G04*
G04 #@! TF.GenerationSoftware,Altium Limited,Altium Designer,24.2.2 (26)*
G04*
G04 Layer_Color=8421504*
%FSLAX43Y43*%
%MOMM*%
G71*
G04*
G04 #@! TF.SameCoordinates,5DB90D12-C1CB-46FC-8784-53B28312C21E*
G04*
G04*
G04 #@! TF.FilePolarity,Positive*
G04*
G01*
G75*
%ADD10C,0.100*%
%ADD11R,0.800X0.400*%
%ADD12R,1.750X2.500*%
%ADD13R,0.350X0.850*%
%ADD14R,2.200X1.400*%
%ADD15R,0.300X1.475*%
%ADD16R,1.475X0.300*%
%ADD17R,0.500X0.400*%
G04:AMPARAMS|DCode=18|XSize=0.4mm|YSize=1mm|CornerRadius=0mm|HoleSize=0mm|Usage=FLASHONLY|Rotation=315.000|XOffset=0mm|YOffset=0mm|HoleType=Round|Shape=Rectangle|*
%AMROTATEDRECTD18*
4,1,4,-0.495,-0.212,0.212,0.495,0.495,0.212,-0.212,-0.495,-0.495,-0.212,0.0*
%
%ADD18ROTATEDRECTD18*%

G04:AMPARAMS|DCode=19|XSize=0.56mm|YSize=0.51mm|CornerRadius=0mm|HoleSize=0mm|Usage=FLASHONLY|Rotation=225.000|XOffset=0mm|YOffset=0mm|HoleType=Round|Shape=Rectangle|*
%AMROTATEDRECTD19*
4,1,4,0.018,0.378,0.378,0.018,-0.018,-0.378,-0.378,-0.018,0.018,0.378,0.0*
%
%ADD19ROTATEDRECTD19*%

G04:AMPARAMS|DCode=20|XSize=0.7mm|YSize=0.51mm|CornerRadius=0mm|HoleSize=0mm|Usage=FLASHONLY|Rotation=225.000|XOffset=0mm|YOffset=0mm|HoleType=Round|Shape=Rectangle|*
%AMROTATEDRECTD20*
4,1,4,0.067,0.428,0.428,0.067,-0.067,-0.428,-0.428,-0.067,0.067,0.428,0.0*
%
%ADD20ROTATEDRECTD20*%

%ADD21R,0.560X0.510*%
%ADD22R,0.700X0.510*%
%ADD23R,0.510X0.700*%
%ADD24R,0.900X0.700*%
%ADD25R,0.400X0.500*%
%ADD26R,0.640X0.890*%
%ADD27R,0.890X0.640*%
%ADD28R,1.550X1.300*%
%ADD29R,1.400X1.000*%
%ADD30R,0.700X0.300*%
%ADD31R,0.700X0.900*%
%ADD32R,0.510X0.560*%
%ADD33R,0.900X0.550*%
%ADD34R,0.950X0.400*%
%ADD35R,0.350X1.300*%
%ADD36R,2.300X0.350*%
%ADD37R,0.400X0.950*%
%ADD38R,1.300X0.350*%
%ADD39R,0.350X2.300*%
%ADD40R,0.200X0.700*%
%ADD41R,1.000X0.500*%
%ADD42R,2.800X1.350*%
%ADD43R,3.700X3.700*%
%ADD44O,0.750X0.300*%
%ADD45O,0.300X0.750*%
%ADD46R,0.800X2.000*%
G04:AMPARAMS|DCode=47|XSize=0.7mm|YSize=0.51mm|CornerRadius=0mm|HoleSize=0mm|Usage=FLASHONLY|Rotation=135.000|XOffset=0mm|YOffset=0mm|HoleType=Round|Shape=Rectangle|*
%AMROTATEDRECTD47*
4,1,4,0.428,-0.067,0.067,-0.428,-0.428,0.067,-0.067,0.428,0.428,-0.067,0.0*
%
%ADD47ROTATEDRECTD47*%

G04:AMPARAMS|DCode=48|XSize=0.56mm|YSize=0.51mm|CornerRadius=0mm|HoleSize=0mm|Usage=FLASHONLY|Rotation=135.000|XOffset=0mm|YOffset=0mm|HoleType=Round|Shape=Rectangle|*
%AMROTATEDRECTD48*
4,1,4,0.378,-0.018,0.018,-0.378,-0.378,0.018,-0.018,0.378,0.378,-0.018,0.0*
%
%ADD48ROTATEDRECTD48*%

%ADD49R,2.650X3.650*%
%ADD50O,0.250X0.850*%
%ADD51O,0.850X0.250*%
%ADD52R,0.350X0.350*%
%ADD53R,1.200X3.700*%
%ADD54R,0.350X0.350*%
%ADD55R,1.500X4.400*%
%ADD56P,0.735X4X360.0*%
%ADD57R,0.900X1.500*%
%ADD58R,1.000X0.300*%
%ADD59R,0.850X0.300*%
%ADD60R,1.000X1.900*%
%ADD61R,0.300X0.750*%
%ADD62R,0.550X0.900*%
%ADD63P,1.414X4X90.0*%
G04:AMPARAMS|DCode=64|XSize=1.1mm|YSize=2.2mm|CornerRadius=0mm|HoleSize=0mm|Usage=FLASHONLY|Rotation=45.000|XOffset=0mm|YOffset=0mm|HoleType=Round|Shape=Rectangle|*
%AMROTATEDRECTD64*
4,1,4,0.389,-1.167,-1.167,0.389,-0.389,1.167,1.167,-0.389,0.389,-1.167,0.0*
%
%ADD64ROTATEDRECTD64*%

%ADD65R,0.800X0.800*%
%ADD66R,0.800X0.800*%
%ADD67R,0.500X1.000*%
%ADD68R,2.000X0.800*%
%ADD69R,0.950X0.800*%
%ADD70R,0.850X0.750*%
%ADD71R,5.600X5.600*%
%ADD72R,0.750X0.300*%
G36*
X41950Y28058D02*
X41740D01*
X41560Y28237D01*
Y28317D01*
X41950D01*
Y28058D01*
D02*
G37*
G36*
X41140Y28237D02*
X40960Y28058D01*
X40750D01*
Y28317D01*
X41140D01*
Y28237D01*
D02*
G37*
G36*
X41950Y27407D02*
X41560D01*
Y27487D01*
X41740Y27667D01*
X41950D01*
Y27407D01*
D02*
G37*
G36*
X41140Y27487D02*
Y27407D01*
X40750D01*
Y27667D01*
X40960D01*
X41140Y27487D01*
D02*
G37*
G36*
X58362Y-11586D02*
X58385D01*
X58437Y-11592D01*
X58496Y-11600D01*
X58557Y-11614D01*
X58623Y-11631D01*
X58687Y-11653D01*
X58690D01*
X58696Y-11656D01*
X58704Y-11658D01*
X58715Y-11664D01*
X58745Y-11681D01*
X58784Y-11700D01*
X58826Y-11728D01*
X58870Y-11761D01*
X58912Y-11797D01*
X58951Y-11842D01*
X58956Y-11847D01*
X58968Y-11864D01*
X58984Y-11889D01*
X59006Y-11925D01*
X59029Y-11969D01*
X59054Y-12025D01*
X59079Y-12086D01*
X59098Y-12155D01*
X58868Y-12216D01*
Y-12214D01*
X58865Y-12211D01*
X58862Y-12203D01*
X58859Y-12191D01*
X58851Y-12166D01*
X58840Y-12133D01*
X58823Y-12094D01*
X58804Y-12058D01*
X58784Y-12019D01*
X58759Y-11986D01*
X58757Y-11983D01*
X58748Y-11972D01*
X58732Y-11958D01*
X58712Y-11939D01*
X58687Y-11917D01*
X58654Y-11894D01*
X58618Y-11872D01*
X58576Y-11853D01*
X58571Y-11850D01*
X58557Y-11844D01*
X58532Y-11836D01*
X58498Y-11825D01*
X58460Y-11817D01*
X58415Y-11808D01*
X58365Y-11803D01*
X58312Y-11800D01*
X58282D01*
X58268Y-11803D01*
X58251D01*
X58210Y-11806D01*
X58162Y-11814D01*
X58110Y-11822D01*
X58060Y-11836D01*
X58010Y-11856D01*
X58004Y-11858D01*
X57988Y-11864D01*
X57965Y-11878D01*
X57938Y-11892D01*
X57904Y-11914D01*
X57868Y-11936D01*
X57835Y-11964D01*
X57804Y-11994D01*
X57802Y-11997D01*
X57790Y-12008D01*
X57777Y-12028D01*
X57760Y-12050D01*
X57740Y-12078D01*
X57721Y-12111D01*
X57702Y-12147D01*
X57682Y-12186D01*
Y-12189D01*
X57679Y-12194D01*
X57677Y-12203D01*
X57671Y-12216D01*
X57666Y-12233D01*
X57660Y-12253D01*
X57652Y-12275D01*
X57646Y-12300D01*
X57632Y-12358D01*
X57621Y-12425D01*
X57613Y-12494D01*
X57610Y-12572D01*
Y-12575D01*
Y-12583D01*
Y-12597D01*
X57613Y-12613D01*
Y-12636D01*
X57616Y-12663D01*
X57618Y-12691D01*
X57621Y-12722D01*
X57632Y-12791D01*
X57646Y-12863D01*
X57668Y-12935D01*
X57696Y-13005D01*
Y-13008D01*
X57702Y-13013D01*
X57704Y-13022D01*
X57713Y-13033D01*
X57732Y-13063D01*
X57763Y-13102D01*
X57799Y-13144D01*
X57843Y-13185D01*
X57896Y-13224D01*
X57954Y-13260D01*
X57957D01*
X57963Y-13263D01*
X57971Y-13269D01*
X57985Y-13274D01*
X57999Y-13280D01*
X58018Y-13285D01*
X58063Y-13302D01*
X58118Y-13316D01*
X58179Y-13330D01*
X58246Y-13341D01*
X58315Y-13344D01*
X58343D01*
X58360Y-13341D01*
X58376D01*
X58418Y-13335D01*
X58468Y-13330D01*
X58521Y-13319D01*
X58579Y-13302D01*
X58637Y-13283D01*
X58640D01*
X58646Y-13280D01*
X58651Y-13277D01*
X58662Y-13271D01*
X58693Y-13258D01*
X58726Y-13241D01*
X58765Y-13221D01*
X58807Y-13199D01*
X58845Y-13174D01*
X58879Y-13146D01*
Y-12786D01*
X58312D01*
Y-12558D01*
X59129D01*
Y-13271D01*
X59126Y-13274D01*
X59120Y-13277D01*
X59109Y-13285D01*
X59095Y-13296D01*
X59079Y-13307D01*
X59059Y-13321D01*
X59034Y-13338D01*
X59009Y-13355D01*
X58951Y-13391D01*
X58884Y-13430D01*
X58815Y-13466D01*
X58740Y-13496D01*
X58737D01*
X58732Y-13499D01*
X58721Y-13502D01*
X58707Y-13507D01*
X58687Y-13513D01*
X58665Y-13521D01*
X58640Y-13527D01*
X58615Y-13532D01*
X58554Y-13546D01*
X58485Y-13560D01*
X58410Y-13568D01*
X58332Y-13571D01*
X58304D01*
X58285Y-13568D01*
X58260D01*
X58229Y-13566D01*
X58196Y-13560D01*
X58160Y-13557D01*
X58079Y-13541D01*
X57993Y-13521D01*
X57904Y-13491D01*
X57860Y-13474D01*
X57815Y-13452D01*
X57813Y-13449D01*
X57804Y-13446D01*
X57793Y-13438D01*
X57777Y-13430D01*
X57757Y-13416D01*
X57738Y-13402D01*
X57685Y-13363D01*
X57629Y-13313D01*
X57571Y-13252D01*
X57516Y-13183D01*
X57466Y-13102D01*
Y-13099D01*
X57460Y-13091D01*
X57455Y-13080D01*
X57446Y-13060D01*
X57438Y-13041D01*
X57430Y-13013D01*
X57418Y-12985D01*
X57407Y-12952D01*
X57396Y-12916D01*
X57385Y-12874D01*
X57377Y-12833D01*
X57368Y-12788D01*
X57355Y-12691D01*
X57349Y-12588D01*
Y-12586D01*
Y-12575D01*
Y-12561D01*
X57352Y-12541D01*
Y-12516D01*
X57355Y-12486D01*
X57360Y-12455D01*
X57363Y-12419D01*
X57371Y-12380D01*
X57377Y-12339D01*
X57399Y-12250D01*
X57427Y-12158D01*
X57466Y-12067D01*
X57468Y-12064D01*
X57471Y-12055D01*
X57477Y-12044D01*
X57488Y-12028D01*
X57499Y-12005D01*
X57513Y-11983D01*
X57552Y-11930D01*
X57599Y-11869D01*
X57657Y-11811D01*
X57724Y-11753D01*
X57763Y-11728D01*
X57802Y-11703D01*
X57804Y-11700D01*
X57813Y-11697D01*
X57824Y-11692D01*
X57840Y-11683D01*
X57863Y-11675D01*
X57888Y-11664D01*
X57915Y-11653D01*
X57949Y-11642D01*
X57985Y-11631D01*
X58024Y-11622D01*
X58065Y-11611D01*
X58110Y-11603D01*
X58207Y-11589D01*
X58257Y-11583D01*
X58346D01*
X58362Y-11586D01*
D02*
G37*
G36*
X18904Y-12118D02*
X18919D01*
X18939Y-12121D01*
X18982Y-12128D01*
X19029Y-12138D01*
X19084Y-12156D01*
X19137Y-12178D01*
X19189Y-12208D01*
X19192D01*
X19194Y-12213D01*
X19202Y-12218D01*
X19212Y-12226D01*
X19237Y-12246D01*
X19267Y-12276D01*
X19299Y-12313D01*
X19334Y-12356D01*
X19367Y-12408D01*
X19397Y-12468D01*
Y-12471D01*
X19399Y-12476D01*
X19404Y-12486D01*
X19407Y-12498D01*
X19414Y-12513D01*
X19419Y-12531D01*
X19424Y-12553D01*
X19432Y-12576D01*
X19444Y-12631D01*
X19457Y-12691D01*
X19464Y-12761D01*
X19467Y-12833D01*
Y-12836D01*
Y-12843D01*
Y-12853D01*
Y-12868D01*
X19464Y-12888D01*
X19462Y-12911D01*
X19459Y-12933D01*
X19457Y-12961D01*
X19447Y-13021D01*
X19434Y-13086D01*
X19414Y-13153D01*
X19389Y-13218D01*
Y-13220D01*
X19387Y-13226D01*
X19382Y-13233D01*
X19374Y-13245D01*
X19367Y-13260D01*
X19357Y-13275D01*
X19332Y-13313D01*
X19299Y-13355D01*
X19262Y-13400D01*
X19217Y-13440D01*
X19164Y-13478D01*
X19162D01*
X19157Y-13483D01*
X19149Y-13485D01*
X19139Y-13493D01*
X19127Y-13498D01*
X19109Y-13505D01*
X19072Y-13523D01*
X19027Y-13540D01*
X18974Y-13553D01*
X18917Y-13563D01*
X18857Y-13568D01*
X18837D01*
X18814Y-13565D01*
X18787Y-13560D01*
X18754Y-13555D01*
X18717Y-13548D01*
X18682Y-13535D01*
X18644Y-13518D01*
X18639Y-13515D01*
X18629Y-13508D01*
X18612Y-13498D01*
X18592Y-13483D01*
X18567Y-13465D01*
X18542Y-13443D01*
X18517Y-13420D01*
X18492Y-13393D01*
Y-14070D01*
X18257D01*
Y-12146D01*
X18472D01*
Y-12328D01*
X18474Y-12323D01*
X18484Y-12311D01*
X18502Y-12293D01*
X18522Y-12268D01*
X18547Y-12243D01*
X18574Y-12218D01*
X18607Y-12193D01*
X18642Y-12171D01*
X18647Y-12168D01*
X18659Y-12163D01*
X18679Y-12153D01*
X18707Y-12143D01*
X18742Y-12133D01*
X18782Y-12123D01*
X18827Y-12118D01*
X18874Y-12116D01*
X18892D01*
X18904Y-12118D01*
D02*
G37*
G36*
X24275D02*
X24290D01*
X24330Y-12121D01*
X24373Y-12128D01*
X24423Y-12136D01*
X24470Y-12148D01*
X24518Y-12163D01*
X24520D01*
X24523Y-12166D01*
X24538Y-12171D01*
X24560Y-12183D01*
X24588Y-12198D01*
X24618Y-12216D01*
X24648Y-12238D01*
X24678Y-12263D01*
X24703Y-12293D01*
X24705Y-12296D01*
X24713Y-12308D01*
X24723Y-12326D01*
X24735Y-12351D01*
X24750Y-12381D01*
X24763Y-12416D01*
X24775Y-12458D01*
X24785Y-12506D01*
X24555Y-12538D01*
Y-12533D01*
X24550Y-12521D01*
X24545Y-12501D01*
X24538Y-12478D01*
X24525Y-12451D01*
X24508Y-12423D01*
X24488Y-12398D01*
X24463Y-12373D01*
X24460Y-12371D01*
X24448Y-12363D01*
X24433Y-12353D01*
X24408Y-12341D01*
X24378Y-12331D01*
X24340Y-12321D01*
X24298Y-12313D01*
X24248Y-12311D01*
X24220D01*
X24193Y-12313D01*
X24158Y-12318D01*
X24120Y-12323D01*
X24080Y-12333D01*
X24045Y-12348D01*
X24015Y-12366D01*
X24013Y-12368D01*
X24005Y-12376D01*
X23993Y-12386D01*
X23983Y-12401D01*
X23970Y-12418D01*
X23958Y-12441D01*
X23950Y-12463D01*
X23948Y-12491D01*
Y-12493D01*
Y-12498D01*
X23950Y-12506D01*
Y-12518D01*
X23960Y-12543D01*
X23965Y-12558D01*
X23975Y-12573D01*
X23978Y-12576D01*
X23980Y-12578D01*
X23988Y-12586D01*
X23998Y-12596D01*
X24010Y-12606D01*
X24025Y-12616D01*
X24045Y-12626D01*
X24065Y-12636D01*
X24068D01*
X24073Y-12638D01*
X24085Y-12643D01*
X24105Y-12648D01*
X24133Y-12656D01*
X24150Y-12661D01*
X24170Y-12666D01*
X24193Y-12673D01*
X24218Y-12678D01*
X24245Y-12688D01*
X24275Y-12696D01*
X24278D01*
X24285Y-12698D01*
X24300Y-12701D01*
X24315Y-12706D01*
X24335Y-12713D01*
X24360Y-12718D01*
X24413Y-12733D01*
X24470Y-12751D01*
X24528Y-12768D01*
X24580Y-12786D01*
X24603Y-12796D01*
X24623Y-12803D01*
X24628Y-12806D01*
X24640Y-12811D01*
X24658Y-12821D01*
X24680Y-12836D01*
X24705Y-12853D01*
X24730Y-12873D01*
X24758Y-12898D01*
X24780Y-12928D01*
X24783Y-12931D01*
X24790Y-12943D01*
X24798Y-12961D01*
X24810Y-12983D01*
X24820Y-13013D01*
X24828Y-13046D01*
X24835Y-13086D01*
X24838Y-13128D01*
Y-13131D01*
Y-13133D01*
Y-13148D01*
X24835Y-13171D01*
X24830Y-13200D01*
X24820Y-13236D01*
X24808Y-13273D01*
X24790Y-13313D01*
X24768Y-13353D01*
X24765Y-13358D01*
X24755Y-13370D01*
X24738Y-13388D01*
X24718Y-13410D01*
X24688Y-13438D01*
X24653Y-13463D01*
X24613Y-13490D01*
X24568Y-13513D01*
X24565D01*
X24563Y-13515D01*
X24555Y-13518D01*
X24545Y-13520D01*
X24518Y-13530D01*
X24483Y-13540D01*
X24440Y-13550D01*
X24390Y-13560D01*
X24335Y-13565D01*
X24275Y-13568D01*
X24250D01*
X24230Y-13565D01*
X24208D01*
X24183Y-13563D01*
X24153Y-13558D01*
X24120Y-13553D01*
X24055Y-13540D01*
X23985Y-13520D01*
X23920Y-13493D01*
X23888Y-13478D01*
X23860Y-13458D01*
X23858Y-13455D01*
X23855Y-13453D01*
X23848Y-13445D01*
X23838Y-13438D01*
X23825Y-13425D01*
X23813Y-13410D01*
X23800Y-13393D01*
X23785Y-13373D01*
X23770Y-13350D01*
X23753Y-13325D01*
X23738Y-13298D01*
X23725Y-13268D01*
X23710Y-13236D01*
X23698Y-13200D01*
X23688Y-13163D01*
X23680Y-13123D01*
X23913Y-13086D01*
Y-13088D01*
Y-13091D01*
X23915Y-13098D01*
X23918Y-13108D01*
X23923Y-13133D01*
X23933Y-13166D01*
X23948Y-13200D01*
X23965Y-13236D01*
X23990Y-13270D01*
X24020Y-13300D01*
X24025Y-13303D01*
X24038Y-13310D01*
X24058Y-13323D01*
X24085Y-13335D01*
X24123Y-13350D01*
X24165Y-13360D01*
X24215Y-13370D01*
X24273Y-13373D01*
X24300D01*
X24328Y-13370D01*
X24365Y-13365D01*
X24403Y-13358D01*
X24443Y-13345D01*
X24483Y-13330D01*
X24515Y-13308D01*
X24518Y-13305D01*
X24528Y-13295D01*
X24540Y-13283D01*
X24555Y-13263D01*
X24570Y-13240D01*
X24583Y-13215D01*
X24593Y-13186D01*
X24595Y-13153D01*
Y-13151D01*
Y-13141D01*
X24593Y-13126D01*
X24588Y-13108D01*
X24578Y-13088D01*
X24565Y-13068D01*
X24548Y-13048D01*
X24525Y-13028D01*
X24523Y-13026D01*
X24515Y-13023D01*
X24500Y-13016D01*
X24475Y-13008D01*
X24460Y-13001D01*
X24445Y-12996D01*
X24425Y-12991D01*
X24403Y-12983D01*
X24378Y-12976D01*
X24348Y-12968D01*
X24318Y-12958D01*
X24283Y-12951D01*
X24280D01*
X24270Y-12948D01*
X24258Y-12943D01*
X24240Y-12938D01*
X24220Y-12933D01*
X24195Y-12926D01*
X24140Y-12911D01*
X24080Y-12893D01*
X24020Y-12873D01*
X23993Y-12863D01*
X23968Y-12853D01*
X23943Y-12846D01*
X23923Y-12836D01*
X23918Y-12833D01*
X23905Y-12826D01*
X23888Y-12816D01*
X23865Y-12801D01*
X23843Y-12783D01*
X23815Y-12761D01*
X23793Y-12736D01*
X23770Y-12706D01*
X23768Y-12701D01*
X23763Y-12691D01*
X23755Y-12673D01*
X23745Y-12651D01*
X23735Y-12623D01*
X23728Y-12591D01*
X23723Y-12556D01*
X23720Y-12518D01*
Y-12513D01*
Y-12503D01*
X23723Y-12486D01*
X23725Y-12461D01*
X23730Y-12436D01*
X23738Y-12406D01*
X23748Y-12376D01*
X23763Y-12346D01*
X23765Y-12343D01*
X23770Y-12333D01*
X23780Y-12318D01*
X23793Y-12298D01*
X23810Y-12278D01*
X23830Y-12256D01*
X23853Y-12233D01*
X23878Y-12213D01*
X23880Y-12211D01*
X23888Y-12206D01*
X23900Y-12198D01*
X23918Y-12191D01*
X23938Y-12178D01*
X23965Y-12168D01*
X23995Y-12156D01*
X24028Y-12146D01*
X24033Y-12143D01*
X24045Y-12141D01*
X24063Y-12136D01*
X24090Y-12131D01*
X24120Y-12126D01*
X24155Y-12121D01*
X24193Y-12116D01*
X24260D01*
X24275Y-12118D01*
D02*
G37*
G36*
X61974Y-11620D02*
X62021Y-11622D01*
X62071Y-11625D01*
X62119Y-11631D01*
X62160Y-11636D01*
X62166D01*
X62185Y-11642D01*
X62210Y-11647D01*
X62244Y-11656D01*
X62280Y-11670D01*
X62318Y-11686D01*
X62360Y-11706D01*
X62396Y-11728D01*
X62402Y-11731D01*
X62413Y-11739D01*
X62430Y-11756D01*
X62452Y-11775D01*
X62477Y-11800D01*
X62502Y-11833D01*
X62529Y-11869D01*
X62552Y-11911D01*
X62554Y-11917D01*
X62560Y-11930D01*
X62571Y-11955D01*
X62582Y-11989D01*
X62591Y-12028D01*
X62602Y-12072D01*
X62607Y-12122D01*
X62610Y-12175D01*
Y-12178D01*
Y-12186D01*
Y-12197D01*
X62607Y-12216D01*
X62604Y-12236D01*
X62602Y-12261D01*
X62596Y-12289D01*
X62591Y-12319D01*
X62571Y-12383D01*
X62560Y-12416D01*
X62543Y-12452D01*
X62524Y-12489D01*
X62504Y-12522D01*
X62479Y-12555D01*
X62452Y-12588D01*
X62449Y-12591D01*
X62443Y-12597D01*
X62435Y-12605D01*
X62421Y-12613D01*
X62405Y-12627D01*
X62382Y-12641D01*
X62355Y-12658D01*
X62324Y-12672D01*
X62288Y-12688D01*
X62246Y-12705D01*
X62202Y-12719D01*
X62149Y-12730D01*
X62094Y-12741D01*
X62033Y-12749D01*
X61963Y-12755D01*
X61891Y-12758D01*
X61400D01*
Y-13538D01*
X61144D01*
Y-11617D01*
X61933D01*
X61974Y-11620D01*
D02*
G37*
G36*
X60880Y-11844D02*
X60247D01*
Y-13538D01*
X59992D01*
Y-11844D01*
X59359D01*
Y-11617D01*
X60880D01*
Y-11844D01*
D02*
G37*
G36*
X56974Y-13538D02*
X56705D01*
Y-13269D01*
X56974D01*
Y-13538D01*
D02*
G37*
G36*
X22933Y-12118D02*
X22973Y-12121D01*
X23018Y-12126D01*
X23068Y-12133D01*
X23113Y-12143D01*
X23158Y-12158D01*
X23161D01*
X23163Y-12161D01*
X23176Y-12166D01*
X23196Y-12176D01*
X23221Y-12188D01*
X23248Y-12203D01*
X23276Y-12221D01*
X23301Y-12243D01*
X23323Y-12266D01*
X23326Y-12268D01*
X23331Y-12276D01*
X23341Y-12291D01*
X23353Y-12308D01*
X23366Y-12331D01*
X23378Y-12358D01*
X23388Y-12388D01*
X23398Y-12423D01*
Y-12426D01*
X23401Y-12436D01*
X23403Y-12451D01*
X23406Y-12473D01*
Y-12503D01*
X23408Y-12541D01*
X23411Y-12586D01*
Y-12641D01*
Y-12956D01*
Y-12958D01*
Y-12971D01*
Y-12986D01*
Y-13008D01*
Y-13033D01*
Y-13063D01*
Y-13096D01*
X23413Y-13131D01*
Y-13200D01*
X23416Y-13268D01*
X23418Y-13300D01*
Y-13328D01*
X23421Y-13350D01*
X23423Y-13370D01*
Y-13375D01*
X23426Y-13385D01*
X23431Y-13403D01*
X23436Y-13423D01*
X23446Y-13450D01*
X23456Y-13478D01*
X23468Y-13508D01*
X23483Y-13538D01*
X23236D01*
X23233Y-13535D01*
X23231Y-13525D01*
X23223Y-13510D01*
X23218Y-13488D01*
X23208Y-13463D01*
X23203Y-13433D01*
X23196Y-13400D01*
X23191Y-13363D01*
X23188D01*
X23186Y-13368D01*
X23178Y-13373D01*
X23168Y-13380D01*
X23143Y-13400D01*
X23108Y-13425D01*
X23071Y-13450D01*
X23028Y-13478D01*
X22981Y-13503D01*
X22936Y-13523D01*
X22933D01*
X22931Y-13525D01*
X22923Y-13528D01*
X22916Y-13530D01*
X22891Y-13538D01*
X22858Y-13545D01*
X22821Y-13553D01*
X22776Y-13560D01*
X22728Y-13565D01*
X22678Y-13568D01*
X22656D01*
X22641Y-13565D01*
X22621D01*
X22598Y-13563D01*
X22548Y-13553D01*
X22491Y-13540D01*
X22433Y-13520D01*
X22376Y-13493D01*
X22351Y-13478D01*
X22326Y-13458D01*
X22323Y-13455D01*
X22321Y-13453D01*
X22306Y-13438D01*
X22288Y-13413D01*
X22266Y-13380D01*
X22243Y-13338D01*
X22223Y-13290D01*
X22208Y-13236D01*
X22206Y-13205D01*
X22203Y-13173D01*
Y-13168D01*
Y-13156D01*
X22206Y-13136D01*
X22208Y-13111D01*
X22213Y-13083D01*
X22223Y-13051D01*
X22233Y-13018D01*
X22248Y-12986D01*
X22251Y-12981D01*
X22256Y-12971D01*
X22268Y-12956D01*
X22281Y-12936D01*
X22298Y-12916D01*
X22321Y-12893D01*
X22343Y-12871D01*
X22371Y-12851D01*
X22373Y-12848D01*
X22383Y-12843D01*
X22401Y-12833D01*
X22421Y-12821D01*
X22446Y-12808D01*
X22473Y-12796D01*
X22506Y-12783D01*
X22541Y-12773D01*
X22543D01*
X22553Y-12771D01*
X22571Y-12766D01*
X22593Y-12763D01*
X22623Y-12756D01*
X22658Y-12751D01*
X22701Y-12746D01*
X22751Y-12738D01*
X22753D01*
X22763Y-12736D01*
X22778D01*
X22798Y-12731D01*
X22821Y-12728D01*
X22848Y-12726D01*
X22878Y-12721D01*
X22911Y-12716D01*
X22978Y-12703D01*
X23048Y-12688D01*
X23113Y-12673D01*
X23143Y-12663D01*
X23171Y-12656D01*
Y-12653D01*
Y-12648D01*
Y-12641D01*
X23173Y-12631D01*
Y-12611D01*
Y-12601D01*
Y-12596D01*
Y-12593D01*
Y-12588D01*
Y-12581D01*
Y-12573D01*
X23171Y-12546D01*
X23166Y-12516D01*
X23156Y-12481D01*
X23146Y-12448D01*
X23128Y-12416D01*
X23106Y-12391D01*
X23101Y-12388D01*
X23088Y-12378D01*
X23068Y-12366D01*
X23038Y-12351D01*
X22998Y-12336D01*
X22953Y-12323D01*
X22898Y-12313D01*
X22836Y-12311D01*
X22808D01*
X22778Y-12313D01*
X22743Y-12318D01*
X22701Y-12326D01*
X22661Y-12336D01*
X22621Y-12351D01*
X22588Y-12371D01*
X22586Y-12373D01*
X22576Y-12381D01*
X22561Y-12396D01*
X22546Y-12418D01*
X22526Y-12446D01*
X22508Y-12481D01*
X22488Y-12526D01*
X22473Y-12576D01*
X22243Y-12543D01*
Y-12541D01*
X22246Y-12536D01*
Y-12528D01*
X22248Y-12518D01*
X22256Y-12491D01*
X22268Y-12458D01*
X22281Y-12421D01*
X22298Y-12381D01*
X22321Y-12341D01*
X22346Y-12306D01*
X22348Y-12301D01*
X22358Y-12291D01*
X22376Y-12276D01*
X22398Y-12253D01*
X22428Y-12231D01*
X22463Y-12208D01*
X22506Y-12186D01*
X22553Y-12166D01*
X22556D01*
X22561Y-12163D01*
X22568Y-12161D01*
X22578Y-12158D01*
X22591Y-12153D01*
X22606Y-12151D01*
X22646Y-12141D01*
X22691Y-12131D01*
X22746Y-12123D01*
X22806Y-12118D01*
X22871Y-12116D01*
X22916D01*
X22933Y-12118D01*
D02*
G37*
G36*
X21356Y-11618D02*
X21401Y-11621D01*
X21451Y-11623D01*
X21499Y-11628D01*
X21539Y-11636D01*
X21546D01*
X21551Y-11638D01*
X21561Y-11641D01*
X21588Y-11646D01*
X21621Y-11656D01*
X21658Y-11668D01*
X21696Y-11683D01*
X21736Y-11703D01*
X21773Y-11726D01*
X21778Y-11728D01*
X21788Y-11738D01*
X21808Y-11753D01*
X21828Y-11773D01*
X21853Y-11798D01*
X21881Y-11831D01*
X21906Y-11868D01*
X21928Y-11911D01*
Y-11913D01*
X21931Y-11916D01*
X21933Y-11923D01*
X21938Y-11931D01*
X21948Y-11956D01*
X21958Y-11988D01*
X21968Y-12028D01*
X21978Y-12073D01*
X21986Y-12121D01*
X21988Y-12173D01*
Y-12176D01*
Y-12183D01*
Y-12196D01*
X21986Y-12213D01*
X21983Y-12236D01*
X21981Y-12261D01*
X21976Y-12288D01*
X21968Y-12316D01*
X21951Y-12383D01*
X21938Y-12416D01*
X21921Y-12451D01*
X21903Y-12486D01*
X21883Y-12521D01*
X21858Y-12556D01*
X21831Y-12588D01*
X21828Y-12591D01*
X21823Y-12596D01*
X21813Y-12603D01*
X21801Y-12616D01*
X21783Y-12628D01*
X21761Y-12641D01*
X21733Y-12658D01*
X21703Y-12673D01*
X21666Y-12688D01*
X21626Y-12703D01*
X21579Y-12718D01*
X21529Y-12731D01*
X21471Y-12743D01*
X21409Y-12751D01*
X21341Y-12756D01*
X21269Y-12758D01*
X20779D01*
Y-13538D01*
X20524D01*
Y-11616D01*
X21314D01*
X21356Y-11618D01*
D02*
G37*
G36*
X16530Y-11843D02*
X15897D01*
Y-13538D01*
X15643D01*
Y-11843D01*
X15010D01*
Y-11616D01*
X16530D01*
Y-11843D01*
D02*
G37*
G36*
X25393Y-12146D02*
X25630D01*
Y-12328D01*
X25393D01*
Y-13143D01*
Y-13148D01*
Y-13161D01*
Y-13178D01*
X25395Y-13198D01*
Y-13220D01*
X25398Y-13243D01*
X25400Y-13260D01*
X25403Y-13275D01*
X25405Y-13280D01*
X25413Y-13290D01*
X25425Y-13305D01*
X25443Y-13320D01*
X25445D01*
X25448Y-13323D01*
X25455Y-13325D01*
X25465Y-13328D01*
X25490Y-13333D01*
X25525Y-13335D01*
X25552D01*
X25567Y-13333D01*
X25587D01*
X25607Y-13330D01*
X25630Y-13328D01*
X25662Y-13535D01*
X25657D01*
X25645Y-13538D01*
X25627Y-13540D01*
X25602Y-13545D01*
X25575Y-13548D01*
X25545Y-13553D01*
X25483Y-13555D01*
X25463D01*
X25438Y-13553D01*
X25410Y-13550D01*
X25378Y-13545D01*
X25345Y-13538D01*
X25313Y-13528D01*
X25285Y-13515D01*
X25283Y-13513D01*
X25273Y-13508D01*
X25263Y-13500D01*
X25248Y-13488D01*
X25230Y-13473D01*
X25213Y-13453D01*
X25198Y-13433D01*
X25185Y-13410D01*
Y-13408D01*
X25180Y-13395D01*
X25178Y-13378D01*
X25173Y-13350D01*
X25170Y-13333D01*
X25168Y-13313D01*
X25165Y-13290D01*
X25163Y-13263D01*
X25160Y-13236D01*
Y-13203D01*
X25158Y-13168D01*
Y-13131D01*
Y-12328D01*
X24983D01*
Y-12146D01*
X25158D01*
Y-11803D01*
X25393Y-11661D01*
Y-12146D01*
D02*
G37*
G36*
X26477Y-12118D02*
X26500Y-12121D01*
X26527Y-12126D01*
X26560Y-12131D01*
X26592Y-12138D01*
X26627Y-12148D01*
X26665Y-12163D01*
X26702Y-12178D01*
X26740Y-12196D01*
X26780Y-12218D01*
X26817Y-12243D01*
X26852Y-12273D01*
X26887Y-12306D01*
X26890Y-12308D01*
X26895Y-12316D01*
X26905Y-12326D01*
X26915Y-12341D01*
X26927Y-12361D01*
X26942Y-12383D01*
X26960Y-12411D01*
X26977Y-12443D01*
X26992Y-12481D01*
X27010Y-12521D01*
X27025Y-12563D01*
X27037Y-12611D01*
X27047Y-12663D01*
X27057Y-12718D01*
X27062Y-12778D01*
X27065Y-12841D01*
Y-12846D01*
Y-12856D01*
Y-12876D01*
X27062Y-12903D01*
X26025D01*
Y-12906D01*
Y-12913D01*
X26027Y-12926D01*
X26030Y-12941D01*
X26032Y-12961D01*
X26035Y-12983D01*
X26045Y-13033D01*
X26062Y-13091D01*
X26085Y-13148D01*
X26115Y-13203D01*
X26132Y-13228D01*
X26152Y-13253D01*
X26155Y-13255D01*
X26157Y-13258D01*
X26165Y-13263D01*
X26172Y-13270D01*
X26200Y-13290D01*
X26232Y-13313D01*
X26275Y-13335D01*
X26325Y-13353D01*
X26382Y-13368D01*
X26412Y-13370D01*
X26445Y-13373D01*
X26467D01*
X26490Y-13370D01*
X26522Y-13365D01*
X26555Y-13355D01*
X26592Y-13345D01*
X26630Y-13328D01*
X26665Y-13305D01*
X26670Y-13303D01*
X26680Y-13293D01*
X26697Y-13275D01*
X26717Y-13253D01*
X26740Y-13223D01*
X26765Y-13183D01*
X26790Y-13138D01*
X26810Y-13086D01*
X27055Y-13118D01*
Y-13121D01*
X27052Y-13128D01*
X27050Y-13138D01*
X27042Y-13153D01*
X27037Y-13171D01*
X27027Y-13193D01*
X27007Y-13240D01*
X26977Y-13293D01*
X26940Y-13348D01*
X26895Y-13403D01*
X26842Y-13450D01*
X26840D01*
X26835Y-13455D01*
X26827Y-13460D01*
X26815Y-13468D01*
X26800Y-13478D01*
X26780Y-13488D01*
X26760Y-13498D01*
X26735Y-13508D01*
X26707Y-13520D01*
X26677Y-13530D01*
X26645Y-13540D01*
X26610Y-13550D01*
X26532Y-13563D01*
X26490Y-13565D01*
X26445Y-13568D01*
X26432D01*
X26415Y-13565D01*
X26395D01*
X26370Y-13563D01*
X26340Y-13558D01*
X26305Y-13553D01*
X26270Y-13545D01*
X26232Y-13535D01*
X26192Y-13523D01*
X26152Y-13508D01*
X26112Y-13488D01*
X26072Y-13468D01*
X26032Y-13443D01*
X25995Y-13413D01*
X25960Y-13380D01*
X25957Y-13378D01*
X25952Y-13370D01*
X25942Y-13360D01*
X25932Y-13345D01*
X25920Y-13325D01*
X25905Y-13303D01*
X25887Y-13275D01*
X25872Y-13245D01*
X25855Y-13208D01*
X25837Y-13171D01*
X25822Y-13126D01*
X25810Y-13081D01*
X25800Y-13028D01*
X25790Y-12976D01*
X25785Y-12918D01*
X25782Y-12856D01*
Y-12851D01*
Y-12841D01*
X25785Y-12821D01*
Y-12798D01*
X25787Y-12768D01*
X25792Y-12733D01*
X25797Y-12696D01*
X25805Y-12656D01*
X25815Y-12613D01*
X25827Y-12568D01*
X25840Y-12523D01*
X25857Y-12478D01*
X25880Y-12433D01*
X25902Y-12388D01*
X25930Y-12348D01*
X25962Y-12311D01*
X25965Y-12308D01*
X25970Y-12303D01*
X25980Y-12293D01*
X25995Y-12281D01*
X26012Y-12266D01*
X26035Y-12248D01*
X26060Y-12231D01*
X26087Y-12213D01*
X26120Y-12196D01*
X26155Y-12178D01*
X26195Y-12161D01*
X26235Y-12146D01*
X26280Y-12133D01*
X26327Y-12123D01*
X26377Y-12118D01*
X26430Y-12116D01*
X26457D01*
X26477Y-12118D01*
D02*
G37*
G36*
X17375D02*
X17400Y-12121D01*
X17427Y-12126D01*
X17460Y-12131D01*
X17495Y-12138D01*
X17530Y-12148D01*
X17567Y-12163D01*
X17607Y-12178D01*
X17647Y-12196D01*
X17687Y-12218D01*
X17724Y-12243D01*
X17762Y-12273D01*
X17797Y-12306D01*
X17799Y-12308D01*
X17804Y-12313D01*
X17814Y-12326D01*
X17824Y-12341D01*
X17839Y-12358D01*
X17854Y-12383D01*
X17872Y-12411D01*
X17889Y-12441D01*
X17904Y-12476D01*
X17922Y-12513D01*
X17937Y-12556D01*
X17952Y-12603D01*
X17962Y-12653D01*
X17972Y-12706D01*
X17977Y-12763D01*
X17979Y-12823D01*
Y-12826D01*
Y-12836D01*
Y-12848D01*
Y-12868D01*
X17977Y-12891D01*
X17974Y-12916D01*
X17972Y-12946D01*
X17969Y-12976D01*
X17959Y-13043D01*
X17944Y-13113D01*
X17924Y-13183D01*
X17912Y-13215D01*
X17897Y-13245D01*
Y-13248D01*
X17894Y-13253D01*
X17889Y-13260D01*
X17882Y-13270D01*
X17864Y-13298D01*
X17837Y-13333D01*
X17804Y-13370D01*
X17764Y-13410D01*
X17717Y-13448D01*
X17662Y-13483D01*
X17660D01*
X17655Y-13485D01*
X17647Y-13490D01*
X17635Y-13495D01*
X17622Y-13503D01*
X17605Y-13510D01*
X17562Y-13525D01*
X17515Y-13540D01*
X17457Y-13555D01*
X17395Y-13565D01*
X17327Y-13568D01*
X17315D01*
X17300Y-13565D01*
X17280D01*
X17255Y-13563D01*
X17227Y-13558D01*
X17195Y-13553D01*
X17160Y-13545D01*
X17122Y-13535D01*
X17085Y-13523D01*
X17047Y-13508D01*
X17007Y-13490D01*
X16967Y-13468D01*
X16930Y-13443D01*
X16892Y-13415D01*
X16857Y-13383D01*
X16855Y-13380D01*
X16850Y-13373D01*
X16840Y-13363D01*
X16830Y-13348D01*
X16815Y-13328D01*
X16800Y-13305D01*
X16785Y-13278D01*
X16767Y-13245D01*
X16750Y-13208D01*
X16735Y-13168D01*
X16720Y-13126D01*
X16705Y-13076D01*
X16695Y-13023D01*
X16685Y-12968D01*
X16680Y-12908D01*
X16677Y-12843D01*
Y-12838D01*
Y-12826D01*
X16680Y-12806D01*
Y-12781D01*
X16685Y-12748D01*
X16690Y-12711D01*
X16695Y-12671D01*
X16705Y-12628D01*
X16715Y-12581D01*
X16730Y-12533D01*
X16747Y-12486D01*
X16767Y-12438D01*
X16792Y-12393D01*
X16820Y-12348D01*
X16852Y-12308D01*
X16890Y-12271D01*
X16892Y-12268D01*
X16897Y-12263D01*
X16907Y-12256D01*
X16922Y-12246D01*
X16940Y-12236D01*
X16960Y-12221D01*
X16985Y-12208D01*
X17012Y-12193D01*
X17042Y-12178D01*
X17075Y-12166D01*
X17112Y-12151D01*
X17150Y-12141D01*
X17192Y-12131D01*
X17235Y-12123D01*
X17280Y-12118D01*
X17327Y-12116D01*
X17355D01*
X17375Y-12118D01*
D02*
G37*
%LPC*%
G36*
X18852Y-12301D02*
X18837D01*
X18827Y-12303D01*
X18797Y-12308D01*
X18762Y-12318D01*
X18719Y-12336D01*
X18697Y-12346D01*
X18674Y-12361D01*
X18652Y-12378D01*
X18629Y-12396D01*
X18607Y-12418D01*
X18584Y-12443D01*
Y-12446D01*
X18579Y-12451D01*
X18574Y-12458D01*
X18567Y-12468D01*
X18557Y-12483D01*
X18547Y-12501D01*
X18537Y-12523D01*
X18527Y-12546D01*
X18517Y-12573D01*
X18507Y-12603D01*
X18497Y-12638D01*
X18487Y-12673D01*
X18479Y-12713D01*
X18474Y-12756D01*
X18472Y-12803D01*
X18469Y-12851D01*
Y-12853D01*
Y-12863D01*
Y-12876D01*
X18472Y-12893D01*
Y-12916D01*
X18474Y-12943D01*
X18479Y-12971D01*
X18482Y-13001D01*
X18497Y-13066D01*
X18514Y-13131D01*
X18542Y-13193D01*
X18557Y-13220D01*
X18577Y-13245D01*
X18579Y-13248D01*
X18582Y-13250D01*
X18597Y-13265D01*
X18619Y-13285D01*
X18652Y-13308D01*
X18689Y-13333D01*
X18734Y-13353D01*
X18787Y-13368D01*
X18814Y-13370D01*
X18842Y-13373D01*
X18857D01*
X18869Y-13370D01*
X18882Y-13368D01*
X18897Y-13365D01*
X18934Y-13355D01*
X18977Y-13340D01*
X19022Y-13318D01*
X19044Y-13303D01*
X19067Y-13283D01*
X19089Y-13263D01*
X19112Y-13240D01*
X19114Y-13238D01*
X19117Y-13233D01*
X19122Y-13226D01*
X19129Y-13215D01*
X19137Y-13200D01*
X19147Y-13183D01*
X19157Y-13163D01*
X19169Y-13141D01*
X19179Y-13113D01*
X19189Y-13083D01*
X19199Y-13048D01*
X19207Y-13011D01*
X19214Y-12971D01*
X19219Y-12928D01*
X19224Y-12881D01*
Y-12831D01*
Y-12828D01*
Y-12818D01*
Y-12806D01*
X19222Y-12788D01*
Y-12766D01*
X19219Y-12741D01*
X19214Y-12711D01*
X19212Y-12681D01*
X19197Y-12618D01*
X19177Y-12551D01*
X19152Y-12488D01*
X19134Y-12458D01*
X19114Y-12433D01*
Y-12431D01*
X19109Y-12428D01*
X19094Y-12413D01*
X19072Y-12391D01*
X19039Y-12366D01*
X19002Y-12343D01*
X18957Y-12321D01*
X18907Y-12306D01*
X18879Y-12303D01*
X18852Y-12301D01*
D02*
G37*
G36*
X61949Y-11844D02*
X61400D01*
Y-12530D01*
X61916D01*
X61935Y-12527D01*
X61955D01*
X61977Y-12525D01*
X62030Y-12519D01*
X62088Y-12508D01*
X62146Y-12491D01*
X62199Y-12469D01*
X62224Y-12455D01*
X62244Y-12439D01*
X62249Y-12433D01*
X62260Y-12422D01*
X62277Y-12400D01*
X62296Y-12372D01*
X62316Y-12336D01*
X62332Y-12291D01*
X62343Y-12241D01*
X62349Y-12183D01*
Y-12180D01*
Y-12178D01*
Y-12164D01*
X62346Y-12139D01*
X62341Y-12111D01*
X62335Y-12080D01*
X62324Y-12044D01*
X62307Y-12011D01*
X62288Y-11978D01*
X62285Y-11975D01*
X62277Y-11964D01*
X62263Y-11950D01*
X62246Y-11930D01*
X62221Y-11911D01*
X62194Y-11894D01*
X62163Y-11878D01*
X62127Y-11864D01*
X62124D01*
X62113Y-11861D01*
X62096Y-11858D01*
X62074Y-11853D01*
X62041Y-11850D01*
X61999Y-11847D01*
X61949Y-11844D01*
D02*
G37*
G36*
X23171Y-12841D02*
X23168D01*
X23166Y-12843D01*
X23158Y-12846D01*
X23146Y-12848D01*
X23133Y-12853D01*
X23116Y-12858D01*
X23096Y-12866D01*
X23073Y-12871D01*
X23048Y-12878D01*
X23021Y-12886D01*
X22988Y-12893D01*
X22953Y-12901D01*
X22916Y-12908D01*
X22876Y-12916D01*
X22833Y-12923D01*
X22786Y-12931D01*
X22778D01*
X22773Y-12933D01*
X22763D01*
X22736Y-12938D01*
X22706Y-12943D01*
X22673Y-12951D01*
X22638Y-12958D01*
X22606Y-12968D01*
X22581Y-12978D01*
X22578D01*
X22571Y-12983D01*
X22561Y-12988D01*
X22546Y-12996D01*
X22516Y-13021D01*
X22501Y-13036D01*
X22488Y-13053D01*
X22486Y-13056D01*
X22483Y-13061D01*
X22478Y-13073D01*
X22473Y-13086D01*
X22466Y-13103D01*
X22461Y-13121D01*
X22458Y-13143D01*
X22456Y-13166D01*
Y-13171D01*
Y-13181D01*
X22461Y-13198D01*
X22466Y-13220D01*
X22473Y-13243D01*
X22486Y-13270D01*
X22503Y-13295D01*
X22526Y-13320D01*
X22528Y-13323D01*
X22538Y-13330D01*
X22556Y-13340D01*
X22578Y-13350D01*
X22608Y-13363D01*
X22646Y-13373D01*
X22688Y-13380D01*
X22736Y-13383D01*
X22758D01*
X22783Y-13380D01*
X22816Y-13375D01*
X22853Y-13368D01*
X22893Y-13358D01*
X22936Y-13345D01*
X22976Y-13325D01*
X22978D01*
X22981Y-13323D01*
X22993Y-13315D01*
X23013Y-13300D01*
X23036Y-13283D01*
X23061Y-13260D01*
X23088Y-13231D01*
X23113Y-13200D01*
X23133Y-13163D01*
X23136Y-13158D01*
X23138Y-13148D01*
X23146Y-13131D01*
X23153Y-13103D01*
X23158Y-13071D01*
X23166Y-13031D01*
X23168Y-12983D01*
X23171Y-12928D01*
Y-12841D01*
D02*
G37*
G36*
X21329Y-11843D02*
X20779D01*
Y-12531D01*
X21296D01*
X21314Y-12528D01*
X21334D01*
X21356Y-12526D01*
X21409Y-12518D01*
X21466Y-12508D01*
X21524Y-12493D01*
X21576Y-12471D01*
X21601Y-12456D01*
X21621Y-12441D01*
X21626Y-12436D01*
X21638Y-12423D01*
X21653Y-12403D01*
X21673Y-12373D01*
X21693Y-12336D01*
X21708Y-12291D01*
X21721Y-12241D01*
X21726Y-12181D01*
Y-12178D01*
Y-12176D01*
Y-12161D01*
X21723Y-12138D01*
X21718Y-12111D01*
X21711Y-12078D01*
X21698Y-12043D01*
X21683Y-12008D01*
X21663Y-11976D01*
X21661Y-11971D01*
X21653Y-11961D01*
X21638Y-11946D01*
X21621Y-11928D01*
X21598Y-11908D01*
X21571Y-11891D01*
X21539Y-11873D01*
X21504Y-11861D01*
X21501D01*
X21491Y-11858D01*
X21474Y-11856D01*
X21451Y-11851D01*
X21419Y-11848D01*
X21379Y-11846D01*
X21329Y-11843D01*
D02*
G37*
G36*
X26432Y-12311D02*
X26417D01*
X26405Y-12313D01*
X26392D01*
X26375Y-12316D01*
X26337Y-12323D01*
X26295Y-12338D01*
X26247Y-12358D01*
X26202Y-12383D01*
X26180Y-12401D01*
X26157Y-12421D01*
X26152Y-12426D01*
X26140Y-12441D01*
X26122Y-12463D01*
X26102Y-12496D01*
X26080Y-12538D01*
X26060Y-12588D01*
X26045Y-12643D01*
X26037Y-12708D01*
X26815D01*
Y-12706D01*
Y-12701D01*
X26812Y-12691D01*
X26810Y-12681D01*
Y-12666D01*
X26805Y-12648D01*
X26797Y-12611D01*
X26785Y-12568D01*
X26770Y-12526D01*
X26750Y-12483D01*
X26725Y-12448D01*
Y-12446D01*
X26720Y-12443D01*
X26712Y-12436D01*
X26705Y-12426D01*
X26680Y-12406D01*
X26647Y-12378D01*
X26605Y-12353D01*
X26555Y-12333D01*
X26497Y-12316D01*
X26465Y-12313D01*
X26432Y-12311D01*
D02*
G37*
G36*
X17327D02*
X17310D01*
X17297Y-12313D01*
X17282Y-12316D01*
X17265Y-12318D01*
X17225Y-12328D01*
X17180Y-12343D01*
X17130Y-12366D01*
X17105Y-12381D01*
X17082Y-12398D01*
X17057Y-12421D01*
X17035Y-12443D01*
Y-12446D01*
X17030Y-12448D01*
X17025Y-12458D01*
X17017Y-12468D01*
X17007Y-12483D01*
X16997Y-12498D01*
X16987Y-12518D01*
X16977Y-12543D01*
X16967Y-12568D01*
X16957Y-12598D01*
X16947Y-12631D01*
X16937Y-12668D01*
X16930Y-12706D01*
X16925Y-12748D01*
X16922Y-12796D01*
X16920Y-12843D01*
Y-12846D01*
Y-12856D01*
Y-12868D01*
X16922Y-12886D01*
Y-12908D01*
X16925Y-12933D01*
X16930Y-12963D01*
X16935Y-12993D01*
X16947Y-13056D01*
X16967Y-13123D01*
X16997Y-13186D01*
X17015Y-13213D01*
X17035Y-13240D01*
X17037Y-13243D01*
X17040Y-13245D01*
X17047Y-13253D01*
X17055Y-13260D01*
X17082Y-13283D01*
X17115Y-13305D01*
X17157Y-13330D01*
X17207Y-13353D01*
X17265Y-13368D01*
X17295Y-13370D01*
X17327Y-13373D01*
X17345D01*
X17357Y-13370D01*
X17372Y-13368D01*
X17390Y-13365D01*
X17430Y-13355D01*
X17475Y-13340D01*
X17525Y-13318D01*
X17550Y-13303D01*
X17575Y-13283D01*
X17597Y-13263D01*
X17620Y-13240D01*
X17622Y-13238D01*
X17625Y-13233D01*
X17630Y-13226D01*
X17637Y-13215D01*
X17647Y-13200D01*
X17657Y-13183D01*
X17667Y-13163D01*
X17680Y-13141D01*
X17690Y-13113D01*
X17699Y-13083D01*
X17709Y-13051D01*
X17719Y-13013D01*
X17727Y-12973D01*
X17732Y-12931D01*
X17737Y-12886D01*
Y-12836D01*
Y-12833D01*
Y-12823D01*
Y-12811D01*
X17734Y-12793D01*
Y-12771D01*
X17732Y-12748D01*
X17727Y-12721D01*
X17722Y-12691D01*
X17709Y-12628D01*
X17687Y-12563D01*
X17660Y-12501D01*
X17640Y-12471D01*
X17620Y-12446D01*
X17617Y-12443D01*
X17615Y-12441D01*
X17607Y-12433D01*
X17600Y-12426D01*
X17572Y-12403D01*
X17540Y-12378D01*
X17497Y-12353D01*
X17447Y-12331D01*
X17390Y-12316D01*
X17360Y-12313D01*
X17327Y-12311D01*
D02*
G37*
%LPD*%
D10*
X100050Y33000D02*
G03*
X98050Y35000I-2000J0D01*
G01*
Y0D02*
G03*
X100050Y2000I0J2000D01*
G01*
X2000Y35000D02*
G03*
X0Y33000I0J-2000D01*
G01*
Y2000D02*
G03*
X2000Y0I2000J0D01*
G01*
X98050D01*
X2000Y35000D02*
X98050D01*
X100050Y2000D02*
Y33000D01*
X0Y2000D02*
Y33000D01*
D11*
X26224Y10329D02*
D03*
Y11279D02*
D03*
Y12229D02*
D03*
X23224D02*
D03*
Y11279D02*
D03*
Y10329D02*
D03*
D12*
X24724Y11279D02*
D03*
D13*
X31475Y12850D02*
D03*
X30825D02*
D03*
X30175D02*
D03*
X29525D02*
D03*
Y10150D02*
D03*
X30175D02*
D03*
X30825D02*
D03*
X31475D02*
D03*
X42576Y12823D02*
D03*
X41926D02*
D03*
X41276D02*
D03*
X40626D02*
D03*
Y10123D02*
D03*
X41276D02*
D03*
X41926D02*
D03*
X42576D02*
D03*
D14*
X30500Y11500D02*
D03*
X41601Y11473D02*
D03*
D15*
X52100Y31138D02*
D03*
X52600D02*
D03*
X53100D02*
D03*
X53600D02*
D03*
X54100D02*
D03*
X54600D02*
D03*
X55100D02*
D03*
X55600D02*
D03*
X56100D02*
D03*
X56600D02*
D03*
X57100D02*
D03*
X57600D02*
D03*
X58100D02*
D03*
X58600D02*
D03*
X59100D02*
D03*
X59600D02*
D03*
X60100D02*
D03*
X60600D02*
D03*
X61100D02*
D03*
X61600D02*
D03*
X62100D02*
D03*
X62600D02*
D03*
X63100D02*
D03*
X63600D02*
D03*
X64100D02*
D03*
Y15662D02*
D03*
X63600D02*
D03*
X63100D02*
D03*
X62600D02*
D03*
X62100D02*
D03*
X61600D02*
D03*
X61100D02*
D03*
X60600D02*
D03*
X60100D02*
D03*
X59600D02*
D03*
X59100D02*
D03*
X58600D02*
D03*
X58100D02*
D03*
X57600D02*
D03*
X57100D02*
D03*
X56600D02*
D03*
X56100D02*
D03*
X55600D02*
D03*
X55100D02*
D03*
X54600D02*
D03*
X54100D02*
D03*
X53600D02*
D03*
X53100D02*
D03*
X52600D02*
D03*
X52100D02*
D03*
D16*
X65838Y29400D02*
D03*
Y28900D02*
D03*
Y28400D02*
D03*
Y27900D02*
D03*
Y27400D02*
D03*
Y26900D02*
D03*
Y26400D02*
D03*
Y25900D02*
D03*
Y25400D02*
D03*
Y24900D02*
D03*
Y24400D02*
D03*
Y23900D02*
D03*
Y23400D02*
D03*
Y22900D02*
D03*
Y22400D02*
D03*
Y21900D02*
D03*
Y21400D02*
D03*
Y20900D02*
D03*
Y20400D02*
D03*
Y19900D02*
D03*
Y19400D02*
D03*
Y18900D02*
D03*
Y18400D02*
D03*
Y17900D02*
D03*
Y17400D02*
D03*
X50362D02*
D03*
Y17900D02*
D03*
Y18400D02*
D03*
Y18900D02*
D03*
Y19400D02*
D03*
Y19900D02*
D03*
Y20400D02*
D03*
Y20900D02*
D03*
Y21400D02*
D03*
Y21900D02*
D03*
Y22400D02*
D03*
Y22900D02*
D03*
Y23400D02*
D03*
Y23900D02*
D03*
Y24400D02*
D03*
Y24900D02*
D03*
Y25400D02*
D03*
Y25900D02*
D03*
Y26400D02*
D03*
Y26900D02*
D03*
Y27400D02*
D03*
Y27900D02*
D03*
Y28400D02*
D03*
Y28900D02*
D03*
Y29400D02*
D03*
D17*
X70258Y27889D02*
D03*
Y27289D02*
D03*
X4100Y16973D02*
D03*
Y16373D02*
D03*
X27323Y10402D02*
D03*
Y11002D02*
D03*
X27329Y11647D02*
D03*
Y12247D02*
D03*
X67400Y29650D02*
D03*
Y29050D02*
D03*
X48453Y26943D02*
D03*
Y27543D02*
D03*
X48400Y24350D02*
D03*
Y24950D02*
D03*
X67376Y17974D02*
D03*
Y17374D02*
D03*
X48550Y20600D02*
D03*
Y20000D02*
D03*
X15226Y24504D02*
D03*
Y25104D02*
D03*
X20609Y12350D02*
D03*
Y11750D02*
D03*
X75996Y12499D02*
D03*
Y13099D02*
D03*
X41479Y31988D02*
D03*
Y32588D02*
D03*
X78200Y24300D02*
D03*
Y23700D02*
D03*
X74931Y12499D02*
D03*
Y13099D02*
D03*
X81014Y23867D02*
D03*
Y23267D02*
D03*
X77100Y23700D02*
D03*
Y24300D02*
D03*
X79950Y23867D02*
D03*
Y23267D02*
D03*
X73867Y12499D02*
D03*
Y13099D02*
D03*
X80400Y13000D02*
D03*
Y13600D02*
D03*
D18*
X88651Y28321D02*
D03*
X87237Y29735D02*
D03*
X88646Y28321D02*
D03*
X87232Y29735D02*
D03*
D19*
X83523Y21990D02*
D03*
X82886Y22627D02*
D03*
X37929Y16651D02*
D03*
X85407Y25083D02*
D03*
X86043Y24447D02*
D03*
X37293Y17287D02*
D03*
X87185Y26861D02*
D03*
X87821Y26225D02*
D03*
X84773Y24447D02*
D03*
X84137Y25083D02*
D03*
X38082Y18018D02*
D03*
X38718Y17382D02*
D03*
D20*
X40068Y16082D02*
D03*
X39432Y16718D02*
D03*
X38632Y16018D02*
D03*
X39268Y15382D02*
D03*
D21*
X21078Y19566D02*
D03*
Y18666D02*
D03*
X68300Y29050D02*
D03*
Y29950D02*
D03*
X40436Y32011D02*
D03*
Y32911D02*
D03*
X33700Y12500D02*
D03*
Y13400D02*
D03*
X39970Y28295D02*
D03*
Y27395D02*
D03*
X33551Y26319D02*
D03*
Y27219D02*
D03*
X35589Y26319D02*
D03*
Y27219D02*
D03*
X32454Y24769D02*
D03*
Y23869D02*
D03*
X34567Y26318D02*
D03*
Y27218D02*
D03*
X53550Y33800D02*
D03*
Y32900D02*
D03*
X68387Y18224D02*
D03*
Y17324D02*
D03*
X47611Y19950D02*
D03*
Y20850D02*
D03*
X45700Y25400D02*
D03*
Y26300D02*
D03*
X62666Y14278D02*
D03*
Y13378D02*
D03*
X51050Y33850D02*
D03*
Y32950D02*
D03*
X16253Y18924D02*
D03*
Y19824D02*
D03*
X15135Y17474D02*
D03*
Y18374D02*
D03*
X19723Y19587D02*
D03*
Y18687D02*
D03*
X26438Y22449D02*
D03*
Y21549D02*
D03*
X21525Y11490D02*
D03*
Y12390D02*
D03*
X38250Y13400D02*
D03*
Y12500D02*
D03*
X78175Y11000D02*
D03*
Y11900D02*
D03*
X77050Y11000D02*
D03*
Y11900D02*
D03*
X82060Y23144D02*
D03*
Y24044D02*
D03*
X76250Y26611D02*
D03*
Y27511D02*
D03*
X74114Y20750D02*
D03*
Y21650D02*
D03*
X70050Y23050D02*
D03*
Y22150D02*
D03*
X81200Y13400D02*
D03*
Y12500D02*
D03*
D22*
X57113Y6614D02*
D03*
Y5714D02*
D03*
X73125Y10081D02*
D03*
Y10981D02*
D03*
X85919Y11767D02*
D03*
Y12667D02*
D03*
X1779Y20800D02*
D03*
Y19900D02*
D03*
X82800Y13700D02*
D03*
Y12800D02*
D03*
X13484Y21056D02*
D03*
Y21956D02*
D03*
X14122Y17478D02*
D03*
Y18378D02*
D03*
X25295Y32471D02*
D03*
Y33371D02*
D03*
X24660Y24724D02*
D03*
Y25624D02*
D03*
X28350Y10100D02*
D03*
Y9200D02*
D03*
X39250Y10150D02*
D03*
Y9250D02*
D03*
X85544Y17031D02*
D03*
Y17931D02*
D03*
Y18895D02*
D03*
Y19795D02*
D03*
X35701Y8684D02*
D03*
Y9584D02*
D03*
X33495Y9600D02*
D03*
Y8700D02*
D03*
X34600Y9600D02*
D03*
Y8700D02*
D03*
X9708Y8708D02*
D03*
Y9608D02*
D03*
D23*
X16281Y11532D02*
D03*
X17181D02*
D03*
X15137Y19439D02*
D03*
X14237D02*
D03*
X55049Y33722D02*
D03*
X55949D02*
D03*
X85604Y20917D02*
D03*
X86504D02*
D03*
X1900Y17829D02*
D03*
X1000D02*
D03*
X58700Y32950D02*
D03*
X57800D02*
D03*
X17141Y24358D02*
D03*
X16241D02*
D03*
X17141Y25573D02*
D03*
X16241D02*
D03*
X15146Y16538D02*
D03*
X14246D02*
D03*
X16209Y17835D02*
D03*
X17109D02*
D03*
X16278Y21364D02*
D03*
X17178D02*
D03*
X16050Y28500D02*
D03*
X16950D02*
D03*
X24464Y21455D02*
D03*
X25364D02*
D03*
X30413Y14273D02*
D03*
X31313D02*
D03*
X24621Y20221D02*
D03*
X25521D02*
D03*
X41000Y15100D02*
D03*
X41900D02*
D03*
X78928Y3146D02*
D03*
X78028D02*
D03*
X7551Y1575D02*
D03*
X6651D02*
D03*
X43900Y27398D02*
D03*
X43000D02*
D03*
D24*
X42942Y6751D02*
D03*
Y8151D02*
D03*
X39979Y8195D02*
D03*
Y6795D02*
D03*
X28800Y8300D02*
D03*
Y6900D02*
D03*
X31800Y8300D02*
D03*
Y6900D02*
D03*
D25*
X4050Y27700D02*
D03*
X4650D02*
D03*
X6000Y27700D02*
D03*
X6600D02*
D03*
X1224Y16879D02*
D03*
X1824D02*
D03*
X42450Y28800D02*
D03*
X41850D02*
D03*
X41177Y8800D02*
D03*
X41777D02*
D03*
X68219Y27552D02*
D03*
X68819D02*
D03*
X68250Y26750D02*
D03*
X68850D02*
D03*
X68292Y26044D02*
D03*
X68892D02*
D03*
X70548Y24935D02*
D03*
X69948D02*
D03*
X70560Y25629D02*
D03*
X69960D02*
D03*
X68842Y28289D02*
D03*
X68242D02*
D03*
X51938Y14012D02*
D03*
X52539D02*
D03*
X52550Y32900D02*
D03*
X51950D02*
D03*
X30700Y8950D02*
D03*
X30100D02*
D03*
X83700Y20750D02*
D03*
X84300D02*
D03*
X73200Y15700D02*
D03*
X73800D02*
D03*
X72900Y17200D02*
D03*
X73500D02*
D03*
X59009Y8012D02*
D03*
X59609D02*
D03*
X83685Y14450D02*
D03*
X83085D02*
D03*
D26*
X22182Y19291D02*
D03*
X23582D02*
D03*
D27*
X23898Y32387D02*
D03*
Y33787D02*
D03*
D28*
X73975Y8250D02*
D03*
Y3750D02*
D03*
X66025Y8250D02*
D03*
Y3750D02*
D03*
X93975Y8250D02*
D03*
Y3750D02*
D03*
X86025Y8250D02*
D03*
Y3750D02*
D03*
X53975Y8250D02*
D03*
Y3750D02*
D03*
X46025Y8250D02*
D03*
Y3750D02*
D03*
X16025D02*
D03*
Y8250D02*
D03*
X23975Y3750D02*
D03*
Y8250D02*
D03*
D29*
X24152Y29847D02*
D03*
X26352Y30797D02*
D03*
Y28897D02*
D03*
D30*
X7944Y4720D02*
D03*
Y5220D02*
D03*
Y5720D02*
D03*
Y6220D02*
D03*
Y6720D02*
D03*
Y7220D02*
D03*
Y8220D02*
D03*
Y8720D02*
D03*
Y9220D02*
D03*
Y9720D02*
D03*
Y10220D02*
D03*
Y10720D02*
D03*
X6244Y5470D02*
D03*
Y5970D02*
D03*
Y6470D02*
D03*
Y6970D02*
D03*
Y7470D02*
D03*
Y7970D02*
D03*
Y8470D02*
D03*
Y8970D02*
D03*
Y9470D02*
D03*
Y9970D02*
D03*
D31*
Y4670D02*
D03*
Y10770D02*
D03*
D32*
X1800Y18900D02*
D03*
X900D02*
D03*
X51611Y13072D02*
D03*
X52512D02*
D03*
X39079Y19123D02*
D03*
X38179D02*
D03*
X40847Y25683D02*
D03*
X39947D02*
D03*
X37487Y26857D02*
D03*
X36587D02*
D03*
X41113Y21385D02*
D03*
X40213D02*
D03*
X64572Y13938D02*
D03*
X63672D02*
D03*
X48350Y23550D02*
D03*
X47450D02*
D03*
X46939Y24297D02*
D03*
X46039D02*
D03*
X25863Y13401D02*
D03*
X24963D02*
D03*
X11123Y21943D02*
D03*
X12023D02*
D03*
X16673Y22687D02*
D03*
X15773D02*
D03*
X21554Y27841D02*
D03*
X20654D02*
D03*
X17073Y26687D02*
D03*
X16173D02*
D03*
X23868Y27808D02*
D03*
X22968D02*
D03*
X25334Y23396D02*
D03*
X24434D02*
D03*
X32073Y14187D02*
D03*
X32973D02*
D03*
X43140Y5890D02*
D03*
X42240D02*
D03*
X28450Y5800D02*
D03*
X27550D02*
D03*
X30850Y5800D02*
D03*
X29950D02*
D03*
X39855Y5891D02*
D03*
X40755D02*
D03*
X30788Y8074D02*
D03*
X29888D02*
D03*
X42800Y15100D02*
D03*
X43700D02*
D03*
X41882Y7911D02*
D03*
X40982D02*
D03*
X78174Y28550D02*
D03*
X79074D02*
D03*
X14029Y8000D02*
D03*
X13129D02*
D03*
X14050Y6300D02*
D03*
X13150D02*
D03*
X59632Y9051D02*
D03*
X58732D02*
D03*
X73076Y18100D02*
D03*
X72176D02*
D03*
X2547Y23950D02*
D03*
X3447D02*
D03*
D33*
X55786Y5425D02*
D03*
Y6675D02*
D03*
X71500Y10100D02*
D03*
Y11350D02*
D03*
X10100Y5067D02*
D03*
Y6317D02*
D03*
D34*
X43875Y30400D02*
D03*
Y31300D02*
D03*
X45225Y30400D02*
D03*
Y31300D02*
D03*
D35*
X42825Y30850D02*
D03*
X46275D02*
D03*
D36*
X44550Y29625D02*
D03*
Y32075D02*
D03*
D37*
X59600Y5275D02*
D03*
X60500D02*
D03*
X59600Y3925D02*
D03*
X60500D02*
D03*
D38*
X60050Y6325D02*
D03*
Y2875D02*
D03*
D39*
X58825Y4600D02*
D03*
X61275D02*
D03*
D40*
X2700Y15375D02*
D03*
X3100D02*
D03*
X3500D02*
D03*
Y14325D02*
D03*
X3100D02*
D03*
X2700D02*
D03*
D41*
X46796Y25151D02*
D03*
Y26251D02*
D03*
D42*
X35991Y12063D02*
D03*
Y14813D02*
D03*
D43*
X36345Y22635D02*
D03*
D44*
X38770Y24385D02*
D03*
Y23885D02*
D03*
Y23385D02*
D03*
Y22885D02*
D03*
Y22385D02*
D03*
Y21885D02*
D03*
Y21385D02*
D03*
Y20885D02*
D03*
X33920D02*
D03*
Y21385D02*
D03*
Y21885D02*
D03*
Y22385D02*
D03*
Y22885D02*
D03*
Y23385D02*
D03*
Y23885D02*
D03*
Y24385D02*
D03*
D45*
X38095Y20210D02*
D03*
X37595D02*
D03*
X37095D02*
D03*
X36595D02*
D03*
X36095D02*
D03*
X35595D02*
D03*
X35095D02*
D03*
X34595D02*
D03*
Y25060D02*
D03*
X35095D02*
D03*
X35595D02*
D03*
X36095D02*
D03*
X36595D02*
D03*
X37095D02*
D03*
X37595D02*
D03*
X38095D02*
D03*
D46*
X63550Y11650D02*
D03*
X61550D02*
D03*
D47*
X32114Y16143D02*
D03*
X31478Y15506D02*
D03*
X31245Y16881D02*
D03*
X30609Y16244D02*
D03*
D48*
X32591Y18256D02*
D03*
X31955Y17619D02*
D03*
X33468Y17469D02*
D03*
X32832Y16832D02*
D03*
X86614Y26289D02*
D03*
X85978Y25653D02*
D03*
X84168Y23868D02*
D03*
X83532Y23232D02*
D03*
D49*
X20850Y23650D02*
D03*
D50*
X19600Y26175D02*
D03*
X20100D02*
D03*
X20600D02*
D03*
X21100D02*
D03*
X21600D02*
D03*
X22100D02*
D03*
Y21125D02*
D03*
X21600D02*
D03*
X21100D02*
D03*
X20600D02*
D03*
X20100D02*
D03*
X19600D02*
D03*
D51*
X22875Y25400D02*
D03*
Y24900D02*
D03*
Y24400D02*
D03*
Y23900D02*
D03*
Y23400D02*
D03*
Y22900D02*
D03*
Y22400D02*
D03*
Y21900D02*
D03*
X18825D02*
D03*
Y22400D02*
D03*
Y22900D02*
D03*
Y23400D02*
D03*
Y23900D02*
D03*
Y24400D02*
D03*
Y24900D02*
D03*
Y25400D02*
D03*
D52*
X17167Y19349D02*
D03*
Y19899D02*
D03*
D53*
X11185Y24934D02*
D03*
X13985D02*
D03*
X29061Y25706D02*
D03*
X26261D02*
D03*
D54*
X15389Y21745D02*
D03*
X14839D02*
D03*
X15123Y28537D02*
D03*
X14573D02*
D03*
X24364Y22470D02*
D03*
X24914D02*
D03*
D55*
X21637Y31476D02*
D03*
X18587D02*
D03*
X23048Y15637D02*
D03*
X19998D02*
D03*
D56*
X41350Y27862D02*
D03*
D57*
X33750Y4250D02*
D03*
X35450Y7350D02*
D03*
X33750D02*
D03*
X35450Y4250D02*
D03*
D58*
X4917Y18350D02*
D03*
D59*
X4992Y18850D02*
D03*
Y19350D02*
D03*
Y19850D02*
D03*
Y20350D02*
D03*
X3592D02*
D03*
Y19850D02*
D03*
Y19350D02*
D03*
Y18850D02*
D03*
Y18350D02*
D03*
D60*
X5258Y22350D02*
D03*
X2658D02*
D03*
D61*
X81363Y21890D02*
D03*
X80863D02*
D03*
X80363D02*
D03*
X79863D02*
D03*
X79363D02*
D03*
X78863D02*
D03*
X78363D02*
D03*
X77863D02*
D03*
X77363D02*
D03*
X76863D02*
D03*
X76363D02*
D03*
X75863D02*
D03*
X80863Y14940D02*
D03*
X81363D02*
D03*
X80363D02*
D03*
X79863D02*
D03*
X79363D02*
D03*
X78863D02*
D03*
X78363D02*
D03*
X77863D02*
D03*
X77363D02*
D03*
X76863D02*
D03*
X76363D02*
D03*
X75863D02*
D03*
D62*
X85903Y10390D02*
D03*
X84653D02*
D03*
X17275Y10236D02*
D03*
X16025D02*
D03*
D63*
X83992Y26498D02*
D03*
D64*
X81870D02*
D03*
X83992Y28620D02*
D03*
D65*
X6592Y14605D02*
D03*
D66*
X5092D02*
D03*
D67*
X78160Y13214D02*
D03*
X77060D02*
D03*
D68*
X71800Y22800D02*
D03*
Y20800D02*
D03*
D69*
X11814Y6317D02*
D03*
Y7917D02*
D03*
D70*
X77625Y27236D02*
D03*
X78975D02*
D03*
Y26186D02*
D03*
X77625D02*
D03*
D71*
X78613Y18415D02*
D03*
D72*
X82088Y21165D02*
D03*
Y20665D02*
D03*
Y20165D02*
D03*
Y19665D02*
D03*
Y19165D02*
D03*
Y18665D02*
D03*
Y18165D02*
D03*
Y17665D02*
D03*
Y17165D02*
D03*
Y16665D02*
D03*
Y16165D02*
D03*
Y15665D02*
D03*
X75138D02*
D03*
Y16165D02*
D03*
Y16665D02*
D03*
Y17165D02*
D03*
Y17665D02*
D03*
Y18165D02*
D03*
Y18665D02*
D03*
Y19165D02*
D03*
Y19665D02*
D03*
Y20165D02*
D03*
Y20665D02*
D03*
Y21165D02*
D03*
M02*
