G04*
G04 #@! TF.GenerationSoftware,Altium Limited,Altium Designer,24.2.2 (26)*
G04*
G04 Layer_Color=128*
%FSLAX43Y43*%
%MOMM*%
G71*
G04*
G04 #@! TF.SameCoordinates,5DB90D12-C1CB-46FC-8784-53B28312C21E*
G04*
G04*
G04 #@! TF.FilePolarity,Positive*
G04*
G01*
G75*
%ADD10C,0.100*%
%ADD73R,0.740X2.790*%
G36*
X80039Y-12162D02*
X80086Y-12170D01*
X80126Y-12180D01*
X80163Y-12190D01*
X80193Y-12202D01*
X80216Y-12212D01*
X80231Y-12220D01*
X80233Y-12222D01*
X80236D01*
X80273Y-12247D01*
X80308Y-12275D01*
X80338Y-12302D01*
X80363Y-12327D01*
X80383Y-12352D01*
X80398Y-12370D01*
X80408Y-12382D01*
X80411Y-12387D01*
Y-12190D01*
X80621D01*
Y-13582D01*
X80386D01*
Y-12862D01*
X80383Y-12795D01*
X80381Y-12737D01*
X80373Y-12687D01*
X80366Y-12645D01*
X80361Y-12615D01*
X80353Y-12590D01*
X80351Y-12577D01*
X80348Y-12572D01*
X80331Y-12537D01*
X80311Y-12505D01*
X80291Y-12477D01*
X80271Y-12457D01*
X80253Y-12440D01*
X80238Y-12427D01*
X80226Y-12420D01*
X80223Y-12417D01*
X80191Y-12400D01*
X80159Y-12387D01*
X80129Y-12377D01*
X80099Y-12372D01*
X80074Y-12367D01*
X80056Y-12365D01*
X80039D01*
X79994Y-12367D01*
X79954Y-12377D01*
X79921Y-12390D01*
X79896Y-12405D01*
X79876Y-12420D01*
X79861Y-12432D01*
X79854Y-12442D01*
X79851Y-12445D01*
X79831Y-12477D01*
X79819Y-12515D01*
X79809Y-12552D01*
X79801Y-12592D01*
X79796Y-12625D01*
X79794Y-12655D01*
Y-12665D01*
Y-12672D01*
Y-12677D01*
Y-12680D01*
Y-13582D01*
X79559Y-13582D01*
Y-12775D01*
Y-12737D01*
X79554Y-12700D01*
X79549Y-12667D01*
X79544Y-12637D01*
X79536Y-12610D01*
X79529Y-12582D01*
X79519Y-12560D01*
X79509Y-12540D01*
X79491Y-12507D01*
X79476Y-12482D01*
X79466Y-12470D01*
X79461Y-12465D01*
X79424Y-12432D01*
X79381Y-12407D01*
X79341Y-12390D01*
X79301Y-12377D01*
X79266Y-12370D01*
X79239Y-12367D01*
X79229Y-12365D01*
X79214D01*
X79184Y-12367D01*
X79159Y-12370D01*
X79134Y-12377D01*
X79114Y-12385D01*
X79096Y-12392D01*
X79084Y-12397D01*
X79076Y-12402D01*
X79074Y-12405D01*
X79051Y-12420D01*
X79034Y-12437D01*
X79019Y-12452D01*
X79009Y-12470D01*
X78999Y-12482D01*
X78994Y-12495D01*
X78989Y-12502D01*
Y-12505D01*
X78981Y-12532D01*
X78976Y-12562D01*
X78971Y-12597D01*
X78969Y-12630D01*
X78966Y-12660D01*
Y-12685D01*
Y-12695D01*
Y-12702D01*
Y-12705D01*
Y-12707D01*
Y-13582D01*
X78731D01*
Y-12630D01*
Y-12587D01*
X78736Y-12545D01*
X78741Y-12507D01*
X78749Y-12472D01*
X78756Y-12440D01*
X78766Y-12412D01*
X78776Y-12385D01*
X78786Y-12362D01*
X78799Y-12342D01*
X78809Y-12325D01*
X78819Y-12310D01*
X78826Y-12297D01*
X78834Y-12287D01*
X78839Y-12280D01*
X78841Y-12277D01*
X78844Y-12275D01*
X78866Y-12255D01*
X78889Y-12237D01*
X78941Y-12207D01*
X78994Y-12187D01*
X79044Y-12175D01*
X79091Y-12165D01*
X79111Y-12162D01*
X79129D01*
X79144Y-12160D01*
X79164D01*
X79211Y-12162D01*
X79259Y-12170D01*
X79301Y-12182D01*
X79344Y-12197D01*
X79381Y-12217D01*
X79416Y-12237D01*
X79449Y-12260D01*
X79479Y-12282D01*
X79504Y-12305D01*
X79526Y-12327D01*
X79546Y-12347D01*
X79564Y-12367D01*
X79576Y-12382D01*
X79586Y-12395D01*
X79591Y-12402D01*
X79594Y-12405D01*
X79611Y-12365D01*
X79634Y-12327D01*
X79656Y-12297D01*
X79681Y-12272D01*
X79701Y-12252D01*
X79719Y-12237D01*
X79731Y-12227D01*
X79736Y-12225D01*
X79776Y-12202D01*
X79816Y-12187D01*
X79859Y-12175D01*
X79899Y-12167D01*
X79934Y-12162D01*
X79964Y-12160D01*
X79989D01*
X80039Y-12162D01*
D02*
G37*
G36*
X75325Y-12162D02*
X75385Y-12167D01*
X75440Y-12175D01*
X75485Y-12185D01*
X75525Y-12195D01*
X75540Y-12197D01*
X75552Y-12202D01*
X75562Y-12205D01*
X75570Y-12207D01*
X75575Y-12210D01*
X75577D01*
X75625Y-12230D01*
X75667Y-12252D01*
X75702Y-12275D01*
X75732Y-12297D01*
X75755Y-12320D01*
X75772Y-12335D01*
X75782Y-12345D01*
X75785Y-12350D01*
X75810Y-12385D01*
X75832Y-12425D01*
X75850Y-12465D01*
X75862Y-12502D01*
X75875Y-12535D01*
X75882Y-12562D01*
X75885Y-12572D01*
Y-12580D01*
X75887Y-12585D01*
Y-12587D01*
X75657Y-12620D01*
X75642Y-12570D01*
X75622Y-12525D01*
X75605Y-12490D01*
X75585Y-12462D01*
X75570Y-12440D01*
X75555Y-12425D01*
X75545Y-12417D01*
X75542Y-12415D01*
X75510Y-12395D01*
X75470Y-12380D01*
X75430Y-12370D01*
X75387Y-12362D01*
X75352Y-12357D01*
X75322Y-12355D01*
X75295D01*
X75232Y-12357D01*
X75177Y-12367D01*
X75132Y-12380D01*
X75092Y-12395D01*
X75062Y-12410D01*
X75042Y-12422D01*
X75030Y-12432D01*
X75025Y-12435D01*
X75002Y-12460D01*
X74985Y-12492D01*
X74975Y-12525D01*
X74965Y-12560D01*
X74960Y-12590D01*
X74957Y-12617D01*
Y-12625D01*
Y-12632D01*
Y-12637D01*
Y-12640D01*
Y-12645D01*
Y-12655D01*
Y-12675D01*
X74960Y-12685D01*
Y-12692D01*
Y-12697D01*
Y-12700D01*
X74987Y-12707D01*
X75017Y-12717D01*
X75082Y-12732D01*
X75152Y-12747D01*
X75220Y-12760D01*
X75252Y-12765D01*
X75282Y-12770D01*
X75310Y-12772D01*
X75332Y-12775D01*
X75352Y-12780D01*
X75367D01*
X75377Y-12782D01*
X75380D01*
X75430Y-12790D01*
X75472Y-12795D01*
X75507Y-12800D01*
X75537Y-12807D01*
X75560Y-12810D01*
X75577Y-12815D01*
X75587Y-12817D01*
X75590D01*
X75625Y-12827D01*
X75657Y-12840D01*
X75685Y-12852D01*
X75710Y-12865D01*
X75730Y-12877D01*
X75747Y-12887D01*
X75757Y-12892D01*
X75760Y-12895D01*
X75787Y-12915D01*
X75810Y-12937D01*
X75832Y-12960D01*
X75850Y-12980D01*
X75862Y-13000D01*
X75875Y-13015D01*
X75880Y-13025D01*
X75882Y-13030D01*
X75897Y-13062D01*
X75907Y-13095D01*
X75917Y-13127D01*
X75922Y-13155D01*
X75925Y-13180D01*
X75927Y-13200D01*
Y-13212D01*
Y-13217D01*
X75925Y-13250D01*
X75922Y-13280D01*
X75907Y-13335D01*
X75887Y-13382D01*
X75865Y-13425D01*
X75842Y-13457D01*
X75825Y-13482D01*
X75810Y-13497D01*
X75807Y-13500D01*
X75805Y-13502D01*
X75780Y-13522D01*
X75755Y-13537D01*
X75697Y-13565D01*
X75640Y-13585D01*
X75582Y-13597D01*
X75532Y-13607D01*
X75510Y-13609D01*
X75490D01*
X75475Y-13612D01*
X75452D01*
X75402Y-13609D01*
X75355Y-13604D01*
X75310Y-13597D01*
X75272Y-13590D01*
X75240Y-13582D01*
X75215Y-13575D01*
X75207Y-13572D01*
X75200Y-13570D01*
X75197Y-13567D01*
X75195D01*
X75150Y-13547D01*
X75102Y-13522D01*
X75060Y-13495D01*
X75022Y-13470D01*
X74987Y-13445D01*
X74962Y-13425D01*
X74952Y-13417D01*
X74945Y-13412D01*
X74942Y-13407D01*
X74940D01*
X74935Y-13445D01*
X74927Y-13477D01*
X74922Y-13507D01*
X74912Y-13532D01*
X74907Y-13555D01*
X74900Y-13570D01*
X74897Y-13580D01*
X74895Y-13582D01*
X74647D01*
X74662Y-13552D01*
X74675Y-13522D01*
X74685Y-13495D01*
X74695Y-13467D01*
X74700Y-13447D01*
X74705Y-13430D01*
X74707Y-13420D01*
Y-13415D01*
X74710Y-13395D01*
X74712Y-13372D01*
Y-13345D01*
X74715Y-13312D01*
X74717Y-13245D01*
Y-13175D01*
X74720Y-13140D01*
Y-13107D01*
Y-13077D01*
Y-13052D01*
Y-13030D01*
Y-13015D01*
Y-13002D01*
Y-13000D01*
Y-12685D01*
Y-12630D01*
X74722Y-12585D01*
X74725Y-12547D01*
Y-12517D01*
X74727Y-12495D01*
X74730Y-12480D01*
X74732Y-12470D01*
Y-12467D01*
X74742Y-12432D01*
X74752Y-12402D01*
X74765Y-12375D01*
X74777Y-12352D01*
X74790Y-12335D01*
X74800Y-12320D01*
X74805Y-12312D01*
X74807Y-12310D01*
X74830Y-12287D01*
X74855Y-12265D01*
X74882Y-12247D01*
X74910Y-12232D01*
X74935Y-12220D01*
X74955Y-12210D01*
X74967Y-12205D01*
X74970Y-12202D01*
X74972D01*
X75017Y-12187D01*
X75062Y-12177D01*
X75112Y-12170D01*
X75157Y-12165D01*
X75197Y-12162D01*
X75215Y-12160D01*
X75260D01*
X75325Y-12162D01*
D02*
G37*
G36*
X83560Y-11847D02*
Y-12190D01*
X83735D01*
Y-12372D01*
X83560D01*
Y-13175D01*
Y-13212D01*
X83558Y-13247D01*
Y-13280D01*
X83555Y-13307D01*
X83553Y-13335D01*
X83550Y-13357D01*
X83548Y-13377D01*
X83545Y-13395D01*
X83540Y-13422D01*
X83538Y-13440D01*
X83533Y-13452D01*
Y-13455D01*
X83520Y-13477D01*
X83505Y-13497D01*
X83488Y-13517D01*
X83470Y-13532D01*
X83455Y-13545D01*
X83445Y-13552D01*
X83435Y-13557D01*
X83433Y-13560D01*
X83405Y-13572D01*
X83373Y-13582D01*
X83340Y-13590D01*
X83308Y-13594D01*
X83280Y-13597D01*
X83255Y-13599D01*
X83235D01*
X83173Y-13597D01*
X83143Y-13592D01*
X83115Y-13590D01*
X83090Y-13585D01*
X83073Y-13582D01*
X83060Y-13580D01*
X83055D01*
X83088Y-13372D01*
X83110Y-13375D01*
X83130Y-13377D01*
X83150D01*
X83165Y-13380D01*
X83193D01*
X83228Y-13377D01*
X83253Y-13372D01*
X83263Y-13370D01*
X83270Y-13367D01*
X83273Y-13365D01*
X83275D01*
X83293Y-13350D01*
X83305Y-13335D01*
X83313Y-13325D01*
X83315Y-13320D01*
X83318Y-13305D01*
X83320Y-13287D01*
X83323Y-13265D01*
Y-13242D01*
X83325Y-13222D01*
Y-13205D01*
Y-13192D01*
Y-13187D01*
Y-12372D01*
X83088D01*
Y-12190D01*
X83325D01*
Y-11705D01*
X83560Y-11847D01*
D02*
G37*
G36*
X82815D02*
Y-12190D01*
X82990D01*
Y-12372D01*
X82815D01*
Y-13175D01*
Y-13212D01*
X82813Y-13247D01*
Y-13280D01*
X82810Y-13307D01*
X82808Y-13335D01*
X82805Y-13357D01*
X82803Y-13377D01*
X82800Y-13395D01*
X82795Y-13422D01*
X82793Y-13440D01*
X82788Y-13452D01*
Y-13455D01*
X82775Y-13477D01*
X82760Y-13497D01*
X82743Y-13517D01*
X82725Y-13532D01*
X82710Y-13545D01*
X82700Y-13552D01*
X82690Y-13557D01*
X82688Y-13560D01*
X82660Y-13572D01*
X82628Y-13582D01*
X82595Y-13590D01*
X82563Y-13594D01*
X82535Y-13597D01*
X82510Y-13599D01*
X82490D01*
X82428Y-13597D01*
X82398Y-13592D01*
X82370Y-13590D01*
X82345Y-13585D01*
X82328Y-13582D01*
X82315Y-13580D01*
X82310D01*
X82343Y-13372D01*
X82365Y-13375D01*
X82385Y-13377D01*
X82405D01*
X82420Y-13380D01*
X82448D01*
X82483Y-13377D01*
X82508Y-13372D01*
X82518Y-13370D01*
X82525Y-13367D01*
X82528Y-13365D01*
X82530D01*
X82548Y-13350D01*
X82560Y-13335D01*
X82568Y-13325D01*
X82570Y-13320D01*
X82573Y-13305D01*
X82575Y-13287D01*
X82578Y-13265D01*
Y-13242D01*
X82580Y-13222D01*
Y-13205D01*
Y-13192D01*
Y-13187D01*
Y-12372D01*
X82343D01*
Y-12190D01*
X82580D01*
Y-11705D01*
X82815Y-11847D01*
D02*
G37*
G36*
X72973Y-11847D02*
Y-12190D01*
X73148D01*
Y-12372D01*
X72973D01*
Y-13175D01*
Y-13212D01*
X72970Y-13247D01*
Y-13280D01*
X72968Y-13307D01*
X72965Y-13335D01*
X72963Y-13357D01*
X72960Y-13377D01*
X72958Y-13395D01*
X72953Y-13422D01*
X72950Y-13440D01*
X72945Y-13452D01*
Y-13455D01*
X72933Y-13477D01*
X72918Y-13497D01*
X72900Y-13517D01*
X72883Y-13532D01*
X72868Y-13545D01*
X72858Y-13552D01*
X72848Y-13557D01*
X72845Y-13560D01*
X72818Y-13572D01*
X72785Y-13582D01*
X72753Y-13590D01*
X72720Y-13594D01*
X72693Y-13597D01*
X72668Y-13599D01*
X72648D01*
X72585Y-13597D01*
X72555Y-13592D01*
X72528Y-13590D01*
X72503Y-13585D01*
X72485Y-13582D01*
X72473Y-13580D01*
X72468D01*
X72500Y-13372D01*
X72523Y-13375D01*
X72543Y-13377D01*
X72563D01*
X72578Y-13380D01*
X72605D01*
X72640Y-13377D01*
X72665Y-13372D01*
X72675Y-13370D01*
X72683Y-13367D01*
X72685Y-13365D01*
X72688D01*
X72705Y-13350D01*
X72718Y-13335D01*
X72725Y-13325D01*
X72728Y-13320D01*
X72730Y-13305D01*
X72733Y-13287D01*
X72735Y-13265D01*
Y-13242D01*
X72738Y-13222D01*
Y-13205D01*
Y-13192D01*
Y-13187D01*
Y-12372D01*
X72500D01*
Y-12190D01*
X72738D01*
Y-11705D01*
X72973Y-11847D01*
D02*
G37*
G36*
X71753Y-12162D02*
X71803Y-12167D01*
X71851Y-12177D01*
X71896Y-12190D01*
X71936Y-12205D01*
X71976Y-12222D01*
X72011Y-12240D01*
X72043Y-12257D01*
X72071Y-12275D01*
X72096Y-12292D01*
X72118Y-12310D01*
X72136Y-12325D01*
X72151Y-12337D01*
X72161Y-12347D01*
X72166Y-12352D01*
X72168Y-12355D01*
X72201Y-12392D01*
X72228Y-12432D01*
X72251Y-12477D01*
X72273Y-12522D01*
X72291Y-12567D01*
X72303Y-12612D01*
X72315Y-12657D01*
X72326Y-12700D01*
X72333Y-12740D01*
X72338Y-12777D01*
X72343Y-12812D01*
X72345Y-12842D01*
Y-12865D01*
X72348Y-12885D01*
Y-12895D01*
Y-12900D01*
X72345Y-12962D01*
X72340Y-13020D01*
X72330Y-13072D01*
X72321Y-13125D01*
X72308Y-13170D01*
X72293Y-13215D01*
X72276Y-13252D01*
X72258Y-13290D01*
X72243Y-13320D01*
X72226Y-13347D01*
X72211Y-13370D01*
X72198Y-13390D01*
X72188Y-13405D01*
X72178Y-13415D01*
X72173Y-13422D01*
X72171Y-13425D01*
X72136Y-13457D01*
X72098Y-13487D01*
X72058Y-13512D01*
X72018Y-13532D01*
X71978Y-13552D01*
X71938Y-13567D01*
X71898Y-13580D01*
X71861Y-13590D01*
X71826Y-13597D01*
X71791Y-13602D01*
X71761Y-13607D01*
X71736Y-13609D01*
X71716D01*
X71698Y-13612D01*
X71686D01*
X71641Y-13609D01*
X71598Y-13607D01*
X71521Y-13594D01*
X71486Y-13585D01*
X71453Y-13575D01*
X71423Y-13565D01*
X71396Y-13552D01*
X71371Y-13542D01*
X71351Y-13532D01*
X71331Y-13522D01*
X71316Y-13512D01*
X71303Y-13505D01*
X71296Y-13500D01*
X71291Y-13495D01*
X71288D01*
X71236Y-13447D01*
X71191Y-13392D01*
X71153Y-13337D01*
X71123Y-13285D01*
X71103Y-13237D01*
X71093Y-13215D01*
X71088Y-13197D01*
X71081Y-13182D01*
X71078Y-13172D01*
X71076Y-13165D01*
Y-13162D01*
X71321Y-13130D01*
X71341Y-13182D01*
X71366Y-13227D01*
X71391Y-13267D01*
X71413Y-13297D01*
X71433Y-13320D01*
X71451Y-13337D01*
X71461Y-13347D01*
X71466Y-13350D01*
X71501Y-13372D01*
X71538Y-13390D01*
X71576Y-13400D01*
X71608Y-13410D01*
X71641Y-13415D01*
X71663Y-13417D01*
X71686D01*
X71718Y-13415D01*
X71748Y-13412D01*
X71806Y-13397D01*
X71856Y-13380D01*
X71898Y-13357D01*
X71931Y-13335D01*
X71958Y-13315D01*
X71966Y-13307D01*
X71973Y-13302D01*
X71976Y-13300D01*
X71978Y-13297D01*
X71998Y-13272D01*
X72016Y-13247D01*
X72046Y-13192D01*
X72068Y-13135D01*
X72086Y-13077D01*
X72096Y-13027D01*
X72098Y-13005D01*
X72101Y-12985D01*
X72103Y-12970D01*
X72106Y-12957D01*
Y-12950D01*
Y-12947D01*
X71068D01*
X71066Y-12920D01*
Y-12900D01*
Y-12890D01*
Y-12885D01*
X71068Y-12822D01*
X71073Y-12762D01*
X71083Y-12707D01*
X71093Y-12655D01*
X71106Y-12607D01*
X71121Y-12565D01*
X71138Y-12525D01*
X71153Y-12487D01*
X71171Y-12455D01*
X71188Y-12427D01*
X71203Y-12405D01*
X71216Y-12385D01*
X71226Y-12370D01*
X71236Y-12360D01*
X71241Y-12352D01*
X71243Y-12350D01*
X71278Y-12317D01*
X71313Y-12287D01*
X71351Y-12262D01*
X71391Y-12240D01*
X71428Y-12222D01*
X71466Y-12207D01*
X71503Y-12192D01*
X71538Y-12182D01*
X71571Y-12175D01*
X71603Y-12170D01*
X71631Y-12165D01*
X71653Y-12162D01*
X71673Y-12160D01*
X71701D01*
X71753Y-12162D01*
D02*
G37*
G36*
X86862Y-13582D02*
X86132D01*
X86064Y-13580D01*
X86005Y-13577D01*
X85952Y-13572D01*
X85907Y-13567D01*
X85872Y-13562D01*
X85857Y-13560D01*
X85845Y-13557D01*
X85835Y-13555D01*
X85827Y-13552D01*
X85822D01*
X85777Y-13540D01*
X85735Y-13525D01*
X85700Y-13507D01*
X85670Y-13492D01*
X85645Y-13480D01*
X85627Y-13467D01*
X85615Y-13460D01*
X85612Y-13457D01*
X85582Y-13430D01*
X85555Y-13402D01*
X85530Y-13372D01*
X85510Y-13342D01*
X85492Y-13317D01*
X85480Y-13297D01*
X85472Y-13282D01*
X85470Y-13277D01*
X85450Y-13232D01*
X85437Y-13190D01*
X85427Y-13147D01*
X85420Y-13110D01*
X85415Y-13075D01*
X85412Y-13050D01*
Y-13040D01*
Y-13032D01*
Y-13030D01*
Y-13027D01*
X85417Y-12967D01*
X85427Y-12912D01*
X85442Y-12862D01*
X85460Y-12820D01*
X85477Y-12785D01*
X85492Y-12760D01*
X85497Y-12750D01*
X85502Y-12742D01*
X85507Y-12740D01*
Y-12737D01*
X85545Y-12695D01*
X85587Y-12657D01*
X85632Y-12627D01*
X85675Y-12602D01*
X85715Y-12582D01*
X85732Y-12575D01*
X85745Y-12570D01*
X85757Y-12565D01*
X85767Y-12562D01*
X85772Y-12560D01*
X85775D01*
X85727Y-12535D01*
X85687Y-12505D01*
X85652Y-12477D01*
X85622Y-12450D01*
X85600Y-12425D01*
X85585Y-12405D01*
X85575Y-12392D01*
X85572Y-12387D01*
X85550Y-12345D01*
X85532Y-12305D01*
X85522Y-12265D01*
X85512Y-12227D01*
X85507Y-12197D01*
X85505Y-12172D01*
Y-12165D01*
Y-12157D01*
Y-12155D01*
Y-12152D01*
X85507Y-12102D01*
X85517Y-12057D01*
X85530Y-12015D01*
X85542Y-11977D01*
X85557Y-11945D01*
X85570Y-11920D01*
X85580Y-11905D01*
X85582Y-11902D01*
Y-11900D01*
X85612Y-11857D01*
X85647Y-11820D01*
X85680Y-11790D01*
X85715Y-11765D01*
X85745Y-11745D01*
X85767Y-11730D01*
X85777Y-11725D01*
X85785Y-11722D01*
X85787Y-11720D01*
X85790D01*
X85842Y-11700D01*
X85900Y-11685D01*
X85960Y-11675D01*
X86015Y-11667D01*
X86064Y-11662D01*
X86087D01*
X86104Y-11660D01*
X86862D01*
Y-13582D01*
D02*
G37*
G36*
X77607Y-13582D02*
X77352D01*
Y-12802D01*
X76862D01*
X76789Y-12800D01*
X76722Y-12795D01*
X76659Y-12787D01*
X76602Y-12775D01*
X76552Y-12762D01*
X76504Y-12747D01*
X76464Y-12732D01*
X76427Y-12717D01*
X76397Y-12702D01*
X76369Y-12685D01*
X76347Y-12672D01*
X76329Y-12660D01*
X76317Y-12647D01*
X76307Y-12640D01*
X76302Y-12635D01*
X76299Y-12632D01*
X76272Y-12600D01*
X76247Y-12565D01*
X76227Y-12530D01*
X76210Y-12495D01*
X76192Y-12460D01*
X76180Y-12427D01*
X76162Y-12360D01*
X76155Y-12332D01*
X76150Y-12305D01*
X76147Y-12280D01*
X76145Y-12257D01*
X76142Y-12240D01*
Y-12227D01*
Y-12220D01*
Y-12217D01*
X76145Y-12165D01*
X76152Y-12117D01*
X76162Y-12072D01*
X76172Y-12032D01*
X76182Y-12000D01*
X76192Y-11975D01*
X76197Y-11967D01*
X76200Y-11960D01*
X76202Y-11957D01*
Y-11955D01*
X76225Y-11912D01*
X76249Y-11875D01*
X76277Y-11842D01*
X76302Y-11817D01*
X76322Y-11797D01*
X76342Y-11782D01*
X76352Y-11772D01*
X76357Y-11770D01*
X76394Y-11747D01*
X76434Y-11727D01*
X76472Y-11712D01*
X76509Y-11700D01*
X76542Y-11690D01*
X76569Y-11685D01*
X76579Y-11682D01*
X76584Y-11680D01*
X76592D01*
X76632Y-11672D01*
X76679Y-11667D01*
X76729Y-11665D01*
X76774Y-11662D01*
X76817Y-11660D01*
X77607D01*
Y-13582D01*
D02*
G37*
G36*
X84577Y-12162D02*
X84622Y-12167D01*
X84665Y-12175D01*
X84707Y-12185D01*
X84745Y-12195D01*
X84782Y-12210D01*
X84815Y-12222D01*
X84845Y-12237D01*
X84872Y-12252D01*
X84897Y-12265D01*
X84917Y-12280D01*
X84935Y-12290D01*
X84950Y-12300D01*
X84960Y-12307D01*
X84965Y-12312D01*
X84967Y-12315D01*
X85005Y-12352D01*
X85037Y-12392D01*
X85065Y-12437D01*
X85090Y-12482D01*
X85110Y-12530D01*
X85127Y-12577D01*
X85142Y-12625D01*
X85152Y-12672D01*
X85162Y-12715D01*
X85167Y-12755D01*
X85172Y-12792D01*
X85177Y-12825D01*
Y-12850D01*
X85180Y-12870D01*
Y-12882D01*
Y-12887D01*
X85177Y-12952D01*
X85172Y-13012D01*
X85162Y-13067D01*
X85152Y-13120D01*
X85137Y-13170D01*
X85122Y-13212D01*
X85107Y-13252D01*
X85090Y-13290D01*
X85072Y-13322D01*
X85057Y-13350D01*
X85042Y-13372D01*
X85027Y-13392D01*
X85017Y-13407D01*
X85007Y-13417D01*
X85002Y-13425D01*
X85000Y-13427D01*
X84965Y-13460D01*
X84927Y-13487D01*
X84890Y-13512D01*
X84850Y-13535D01*
X84810Y-13552D01*
X84772Y-13567D01*
X84735Y-13580D01*
X84697Y-13590D01*
X84662Y-13597D01*
X84630Y-13602D01*
X84602Y-13607D01*
X84577Y-13609D01*
X84557D01*
X84542Y-13612D01*
X84530D01*
X84462Y-13609D01*
X84400Y-13599D01*
X84342Y-13585D01*
X84295Y-13569D01*
X84252Y-13555D01*
X84235Y-13547D01*
X84222Y-13540D01*
X84210Y-13535D01*
X84202Y-13530D01*
X84197Y-13527D01*
X84195D01*
X84140Y-13492D01*
X84092Y-13455D01*
X84052Y-13415D01*
X84020Y-13377D01*
X83993Y-13342D01*
X83975Y-13315D01*
X83968Y-13305D01*
X83963Y-13297D01*
X83960Y-13292D01*
Y-13290D01*
X83945Y-13260D01*
X83933Y-13227D01*
X83913Y-13157D01*
X83898Y-13087D01*
X83888Y-13020D01*
X83885Y-12990D01*
X83883Y-12960D01*
X83880Y-12935D01*
X83878Y-12912D01*
Y-12892D01*
Y-12880D01*
Y-12870D01*
Y-12867D01*
X83880Y-12807D01*
X83885Y-12750D01*
X83895Y-12697D01*
X83905Y-12647D01*
X83920Y-12600D01*
X83935Y-12557D01*
X83953Y-12520D01*
X83968Y-12485D01*
X83985Y-12455D01*
X84003Y-12427D01*
X84018Y-12402D01*
X84033Y-12385D01*
X84043Y-12370D01*
X84052Y-12357D01*
X84058Y-12352D01*
X84060Y-12350D01*
X84095Y-12317D01*
X84132Y-12287D01*
X84170Y-12262D01*
X84210Y-12240D01*
X84250Y-12222D01*
X84290Y-12207D01*
X84327Y-12192D01*
X84362Y-12182D01*
X84397Y-12175D01*
X84430Y-12170D01*
X84457Y-12165D01*
X84482Y-12162D01*
X84502Y-12160D01*
X84530D01*
X84577Y-12162D01*
D02*
G37*
G36*
X81596D02*
X81641Y-12167D01*
X81683Y-12175D01*
X81726Y-12185D01*
X81763Y-12195D01*
X81801Y-12210D01*
X81833Y-12222D01*
X81863Y-12237D01*
X81891Y-12252D01*
X81916Y-12265D01*
X81936Y-12280D01*
X81953Y-12290D01*
X81968Y-12300D01*
X81978Y-12307D01*
X81983Y-12312D01*
X81986Y-12315D01*
X82023Y-12352D01*
X82056Y-12392D01*
X82083Y-12437D01*
X82108Y-12482D01*
X82128Y-12530D01*
X82145Y-12577D01*
X82160Y-12625D01*
X82170Y-12672D01*
X82180Y-12715D01*
X82185Y-12755D01*
X82190Y-12792D01*
X82195Y-12825D01*
Y-12850D01*
X82198Y-12870D01*
Y-12882D01*
Y-12887D01*
X82195Y-12952D01*
X82190Y-13012D01*
X82180Y-13067D01*
X82170Y-13120D01*
X82155Y-13170D01*
X82140Y-13212D01*
X82125Y-13252D01*
X82108Y-13290D01*
X82090Y-13322D01*
X82076Y-13350D01*
X82061Y-13372D01*
X82046Y-13392D01*
X82036Y-13407D01*
X82026Y-13417D01*
X82021Y-13425D01*
X82018Y-13427D01*
X81983Y-13460D01*
X81946Y-13487D01*
X81908Y-13512D01*
X81868Y-13535D01*
X81828Y-13552D01*
X81791Y-13567D01*
X81753Y-13580D01*
X81716Y-13590D01*
X81681Y-13597D01*
X81648Y-13602D01*
X81621Y-13607D01*
X81596Y-13609D01*
X81576D01*
X81561Y-13612D01*
X81548D01*
X81481Y-13609D01*
X81418Y-13599D01*
X81361Y-13585D01*
X81313Y-13569D01*
X81271Y-13555D01*
X81253Y-13547D01*
X81241Y-13540D01*
X81228Y-13535D01*
X81221Y-13530D01*
X81216Y-13527D01*
X81213D01*
X81158Y-13492D01*
X81111Y-13455D01*
X81071Y-13415D01*
X81038Y-13377D01*
X81011Y-13342D01*
X80993Y-13315D01*
X80986Y-13305D01*
X80981Y-13297D01*
X80978Y-13292D01*
Y-13290D01*
X80963Y-13260D01*
X80951Y-13227D01*
X80931Y-13157D01*
X80916Y-13087D01*
X80906Y-13020D01*
X80903Y-12990D01*
X80901Y-12960D01*
X80898Y-12935D01*
X80896Y-12912D01*
Y-12892D01*
Y-12880D01*
Y-12870D01*
Y-12867D01*
X80898Y-12807D01*
X80903Y-12750D01*
X80913Y-12697D01*
X80923Y-12647D01*
X80938Y-12600D01*
X80953Y-12557D01*
X80971Y-12520D01*
X80986Y-12485D01*
X81003Y-12455D01*
X81021Y-12427D01*
X81036Y-12402D01*
X81051Y-12385D01*
X81061Y-12370D01*
X81071Y-12357D01*
X81076Y-12352D01*
X81078Y-12350D01*
X81113Y-12317D01*
X81151Y-12287D01*
X81188Y-12262D01*
X81228Y-12240D01*
X81268Y-12222D01*
X81308Y-12207D01*
X81346Y-12192D01*
X81381Y-12182D01*
X81416Y-12175D01*
X81448Y-12170D01*
X81476Y-12165D01*
X81501Y-12162D01*
X81521Y-12160D01*
X81548D01*
X81596Y-12162D01*
D02*
G37*
G36*
X73975Y-12165D02*
X74010Y-12170D01*
X74040Y-12175D01*
X74068Y-12180D01*
X74085Y-12185D01*
X74098Y-12187D01*
X74103Y-12190D01*
X74135Y-12200D01*
X74165Y-12212D01*
X74193Y-12222D01*
X74213Y-12235D01*
X74230Y-12242D01*
X74243Y-12250D01*
X74250Y-12255D01*
X74253Y-12257D01*
X74277Y-12277D01*
X74300Y-12300D01*
X74320Y-12322D01*
X74337Y-12342D01*
X74350Y-12362D01*
X74360Y-12377D01*
X74365Y-12387D01*
X74367Y-12390D01*
X74382Y-12420D01*
X74392Y-12450D01*
X74400Y-12480D01*
X74405Y-12505D01*
X74407Y-12530D01*
X74410Y-12547D01*
Y-12557D01*
Y-12562D01*
X74407Y-12600D01*
X74402Y-12635D01*
X74395Y-12667D01*
X74385Y-12695D01*
X74375Y-12717D01*
X74367Y-12735D01*
X74362Y-12745D01*
X74360Y-12750D01*
X74337Y-12780D01*
X74315Y-12805D01*
X74287Y-12827D01*
X74265Y-12845D01*
X74243Y-12860D01*
X74225Y-12870D01*
X74213Y-12877D01*
X74208Y-12880D01*
X74188Y-12890D01*
X74163Y-12897D01*
X74138Y-12907D01*
X74110Y-12917D01*
X74050Y-12937D01*
X73990Y-12955D01*
X73935Y-12970D01*
X73910Y-12977D01*
X73890Y-12982D01*
X73873Y-12987D01*
X73860Y-12992D01*
X73850Y-12995D01*
X73848D01*
X73813Y-13002D01*
X73783Y-13012D01*
X73753Y-13020D01*
X73728Y-13027D01*
X73705Y-13035D01*
X73685Y-13040D01*
X73670Y-13045D01*
X73655Y-13052D01*
X73630Y-13060D01*
X73615Y-13067D01*
X73608Y-13070D01*
X73605Y-13072D01*
X73583Y-13092D01*
X73565Y-13112D01*
X73553Y-13132D01*
X73543Y-13152D01*
X73538Y-13170D01*
X73535Y-13185D01*
Y-13195D01*
Y-13197D01*
X73538Y-13230D01*
X73548Y-13260D01*
X73560Y-13285D01*
X73575Y-13307D01*
X73590Y-13327D01*
X73603Y-13340D01*
X73613Y-13350D01*
X73615Y-13352D01*
X73648Y-13375D01*
X73688Y-13390D01*
X73728Y-13402D01*
X73765Y-13410D01*
X73803Y-13415D01*
X73830Y-13417D01*
X73858D01*
X73915Y-13415D01*
X73965Y-13405D01*
X74008Y-13395D01*
X74045Y-13380D01*
X74073Y-13367D01*
X74093Y-13355D01*
X74105Y-13347D01*
X74110Y-13345D01*
X74140Y-13315D01*
X74165Y-13280D01*
X74183Y-13245D01*
X74198Y-13210D01*
X74208Y-13177D01*
X74213Y-13152D01*
X74215Y-13142D01*
X74218Y-13135D01*
Y-13132D01*
Y-13130D01*
X74450Y-13167D01*
X74442Y-13207D01*
X74432Y-13245D01*
X74420Y-13280D01*
X74405Y-13312D01*
X74392Y-13342D01*
X74377Y-13370D01*
X74360Y-13395D01*
X74345Y-13417D01*
X74330Y-13437D01*
X74317Y-13455D01*
X74305Y-13470D01*
X74293Y-13482D01*
X74283Y-13490D01*
X74275Y-13497D01*
X74272Y-13500D01*
X74270Y-13502D01*
X74243Y-13522D01*
X74210Y-13537D01*
X74145Y-13565D01*
X74075Y-13585D01*
X74010Y-13597D01*
X73978Y-13602D01*
X73948Y-13607D01*
X73923Y-13609D01*
X73900D01*
X73880Y-13612D01*
X73855D01*
X73795Y-13609D01*
X73740Y-13604D01*
X73690Y-13594D01*
X73648Y-13585D01*
X73613Y-13575D01*
X73585Y-13565D01*
X73575Y-13562D01*
X73568Y-13560D01*
X73565Y-13557D01*
X73563D01*
X73518Y-13535D01*
X73478Y-13507D01*
X73443Y-13482D01*
X73413Y-13455D01*
X73393Y-13432D01*
X73375Y-13415D01*
X73365Y-13402D01*
X73363Y-13397D01*
X73340Y-13357D01*
X73323Y-13317D01*
X73310Y-13280D01*
X73300Y-13245D01*
X73295Y-13215D01*
X73293Y-13192D01*
Y-13177D01*
Y-13175D01*
Y-13172D01*
X73295Y-13130D01*
X73303Y-13090D01*
X73310Y-13057D01*
X73320Y-13027D01*
X73333Y-13005D01*
X73340Y-12987D01*
X73348Y-12975D01*
X73350Y-12972D01*
X73373Y-12942D01*
X73400Y-12917D01*
X73425Y-12897D01*
X73450Y-12880D01*
X73473Y-12865D01*
X73490Y-12855D01*
X73503Y-12850D01*
X73508Y-12847D01*
X73528Y-12840D01*
X73550Y-12830D01*
X73603Y-12812D01*
X73660Y-12795D01*
X73718Y-12777D01*
X73770Y-12762D01*
X73795Y-12757D01*
X73815Y-12750D01*
X73830Y-12745D01*
X73845Y-12742D01*
X73853Y-12740D01*
X73855D01*
X73885Y-12732D01*
X73913Y-12722D01*
X73938Y-12717D01*
X73960Y-12710D01*
X73980Y-12705D01*
X73998Y-12700D01*
X74025Y-12692D01*
X74045Y-12687D01*
X74058Y-12682D01*
X74063Y-12680D01*
X74065D01*
X74085Y-12670D01*
X74105Y-12660D01*
X74120Y-12650D01*
X74133Y-12640D01*
X74143Y-12630D01*
X74150Y-12622D01*
X74153Y-12620D01*
X74155Y-12617D01*
X74165Y-12602D01*
X74170Y-12587D01*
X74180Y-12562D01*
Y-12550D01*
X74183Y-12542D01*
Y-12537D01*
Y-12535D01*
X74180Y-12507D01*
X74173Y-12485D01*
X74160Y-12462D01*
X74148Y-12445D01*
X74138Y-12430D01*
X74125Y-12420D01*
X74118Y-12412D01*
X74115Y-12410D01*
X74085Y-12392D01*
X74050Y-12377D01*
X74010Y-12367D01*
X73973Y-12362D01*
X73938Y-12357D01*
X73910Y-12355D01*
X73883D01*
X73833Y-12357D01*
X73790Y-12365D01*
X73753Y-12375D01*
X73723Y-12385D01*
X73698Y-12397D01*
X73683Y-12407D01*
X73670Y-12415D01*
X73668Y-12417D01*
X73643Y-12442D01*
X73623Y-12467D01*
X73605Y-12495D01*
X73593Y-12522D01*
X73585Y-12545D01*
X73580Y-12565D01*
X73575Y-12577D01*
Y-12582D01*
X73345Y-12550D01*
X73355Y-12502D01*
X73368Y-12460D01*
X73380Y-12425D01*
X73395Y-12395D01*
X73408Y-12370D01*
X73418Y-12352D01*
X73425Y-12340D01*
X73428Y-12337D01*
X73453Y-12307D01*
X73483Y-12282D01*
X73513Y-12260D01*
X73543Y-12242D01*
X73570Y-12227D01*
X73593Y-12215D01*
X73608Y-12210D01*
X73610Y-12207D01*
X73613D01*
X73660Y-12192D01*
X73708Y-12180D01*
X73758Y-12172D01*
X73800Y-12165D01*
X73840Y-12162D01*
X73855D01*
X73870Y-12160D01*
X73938D01*
X73975Y-12165D01*
D02*
G37*
G36*
X44046Y-11633D02*
X44143Y-11647D01*
X44187Y-11655D01*
X44229Y-11666D01*
X44268Y-11675D01*
X44304Y-11686D01*
X44337Y-11697D01*
X44365Y-11708D01*
X44390Y-11719D01*
X44412Y-11727D01*
X44429Y-11736D01*
X44440Y-11741D01*
X44448Y-11744D01*
X44451Y-11747D01*
X44490Y-11772D01*
X44529Y-11797D01*
X44596Y-11855D01*
X44654Y-11913D01*
X44701Y-11975D01*
X44740Y-12027D01*
X44754Y-12050D01*
X44765Y-12072D01*
X44776Y-12088D01*
X44782Y-12099D01*
X44784Y-12108D01*
X44787Y-12111D01*
X44826Y-12202D01*
X44854Y-12294D01*
X44876Y-12383D01*
X44881Y-12424D01*
X44890Y-12463D01*
X44893Y-12499D01*
X44898Y-12530D01*
X44901Y-12560D01*
Y-12585D01*
X44904Y-12605D01*
Y-12619D01*
Y-12630D01*
Y-12633D01*
X44898Y-12735D01*
X44884Y-12832D01*
X44876Y-12877D01*
X44868Y-12918D01*
X44856Y-12960D01*
X44845Y-12996D01*
X44834Y-13030D01*
X44823Y-13057D01*
X44815Y-13085D01*
X44807Y-13104D01*
X44798Y-13124D01*
X44793Y-13135D01*
X44787Y-13143D01*
Y-13146D01*
X44737Y-13227D01*
X44682Y-13296D01*
X44623Y-13357D01*
X44568Y-13407D01*
X44515Y-13446D01*
X44496Y-13460D01*
X44476Y-13474D01*
X44459Y-13482D01*
X44448Y-13490D01*
X44440Y-13493D01*
X44437Y-13496D01*
X44393Y-13518D01*
X44348Y-13535D01*
X44260Y-13565D01*
X44174Y-13585D01*
X44093Y-13601D01*
X44057Y-13604D01*
X44024Y-13610D01*
X43993Y-13613D01*
X43968D01*
X43949Y-13615D01*
X43921D01*
X43843Y-13613D01*
X43768Y-13604D01*
X43699Y-13590D01*
X43638Y-13576D01*
X43613Y-13571D01*
X43588Y-13565D01*
X43566Y-13557D01*
X43546Y-13551D01*
X43532Y-13546D01*
X43521Y-13543D01*
X43516Y-13540D01*
X43513D01*
X43438Y-13510D01*
X43368Y-13474D01*
X43302Y-13435D01*
X43244Y-13399D01*
X43219Y-13382D01*
X43194Y-13365D01*
X43174Y-13352D01*
X43157Y-13340D01*
X43144Y-13329D01*
X43132Y-13321D01*
X43127Y-13318D01*
X43124Y-13315D01*
Y-12602D01*
X43940D01*
Y-12830D01*
X43374D01*
Y-13191D01*
X43407Y-13218D01*
X43446Y-13243D01*
X43488Y-13266D01*
X43527Y-13285D01*
X43560Y-13302D01*
X43591Y-13315D01*
X43602Y-13321D01*
X43607Y-13324D01*
X43613Y-13327D01*
X43616D01*
X43674Y-13346D01*
X43732Y-13363D01*
X43785Y-13374D01*
X43835Y-13379D01*
X43876Y-13385D01*
X43893D01*
X43910Y-13388D01*
X43938D01*
X44007Y-13385D01*
X44074Y-13374D01*
X44135Y-13360D01*
X44190Y-13346D01*
X44235Y-13329D01*
X44254Y-13324D01*
X44268Y-13318D01*
X44282Y-13313D01*
X44290Y-13307D01*
X44296Y-13304D01*
X44298D01*
X44357Y-13268D01*
X44410Y-13229D01*
X44454Y-13188D01*
X44490Y-13146D01*
X44521Y-13107D01*
X44540Y-13077D01*
X44548Y-13066D01*
X44551Y-13057D01*
X44557Y-13052D01*
Y-13049D01*
X44584Y-12980D01*
X44607Y-12907D01*
X44621Y-12835D01*
X44632Y-12766D01*
X44634Y-12735D01*
X44637Y-12707D01*
X44640Y-12680D01*
Y-12658D01*
X44643Y-12641D01*
Y-12627D01*
Y-12619D01*
Y-12616D01*
X44640Y-12538D01*
X44632Y-12469D01*
X44621Y-12402D01*
X44607Y-12344D01*
X44601Y-12319D01*
X44593Y-12297D01*
X44587Y-12277D01*
X44582Y-12261D01*
X44576Y-12247D01*
X44573Y-12238D01*
X44571Y-12233D01*
Y-12230D01*
X44551Y-12191D01*
X44532Y-12155D01*
X44512Y-12122D01*
X44493Y-12094D01*
X44476Y-12072D01*
X44462Y-12052D01*
X44451Y-12041D01*
X44448Y-12038D01*
X44418Y-12008D01*
X44385Y-11980D01*
X44348Y-11958D01*
X44315Y-11936D01*
X44287Y-11922D01*
X44265Y-11908D01*
X44249Y-11902D01*
X44243Y-11900D01*
X44193Y-11880D01*
X44143Y-11866D01*
X44090Y-11858D01*
X44043Y-11850D01*
X44001Y-11847D01*
X43985D01*
X43971Y-11844D01*
X43940D01*
X43888Y-11847D01*
X43838Y-11852D01*
X43793Y-11861D01*
X43754Y-11869D01*
X43721Y-11880D01*
X43696Y-11889D01*
X43682Y-11894D01*
X43677Y-11897D01*
X43635Y-11916D01*
X43599Y-11938D01*
X43566Y-11961D01*
X43541Y-11983D01*
X43521Y-12002D01*
X43504Y-12016D01*
X43496Y-12027D01*
X43493Y-12030D01*
X43468Y-12063D01*
X43449Y-12102D01*
X43430Y-12138D01*
X43413Y-12177D01*
X43402Y-12211D01*
X43393Y-12236D01*
X43391Y-12247D01*
X43388Y-12255D01*
X43385Y-12258D01*
Y-12261D01*
X43155Y-12199D01*
X43174Y-12130D01*
X43199Y-12069D01*
X43224Y-12013D01*
X43246Y-11969D01*
X43269Y-11933D01*
X43285Y-11908D01*
X43296Y-11891D01*
X43302Y-11886D01*
X43341Y-11841D01*
X43382Y-11805D01*
X43427Y-11772D01*
X43468Y-11744D01*
X43507Y-11725D01*
X43538Y-11708D01*
X43549Y-11703D01*
X43557Y-11700D01*
X43563Y-11697D01*
X43566D01*
X43629Y-11675D01*
X43696Y-11658D01*
X43757Y-11644D01*
X43815Y-11636D01*
X43868Y-11630D01*
X43890D01*
X43907Y-11628D01*
X43996D01*
X44046Y-11633D01*
D02*
G37*
G36*
X45548Y-13582D02*
X45278D01*
Y-13313D01*
X45548D01*
Y-13582D01*
D02*
G37*
G36*
X42760D02*
X42028D01*
X41961Y-13579D01*
X41903Y-13576D01*
X41850Y-13571D01*
X41805Y-13565D01*
X41769Y-13560D01*
X41742Y-13557D01*
X41725Y-13551D01*
X41719D01*
X41672Y-13538D01*
X41633Y-13524D01*
X41597Y-13507D01*
X41567Y-13490D01*
X41542Y-13479D01*
X41522Y-13468D01*
X41511Y-13460D01*
X41508Y-13457D01*
X41478Y-13432D01*
X41450Y-13402D01*
X41428Y-13371D01*
X41406Y-13343D01*
X41389Y-13315D01*
X41378Y-13296D01*
X41370Y-13282D01*
X41367Y-13277D01*
X41347Y-13232D01*
X41333Y-13188D01*
X41322Y-13146D01*
X41317Y-13107D01*
X41311Y-13074D01*
X41308Y-13046D01*
Y-13030D01*
Y-13027D01*
Y-13024D01*
X41311Y-12963D01*
X41322Y-12907D01*
X41339Y-12860D01*
X41356Y-12816D01*
X41372Y-12782D01*
X41389Y-12757D01*
X41400Y-12741D01*
X41403Y-12735D01*
X41442Y-12691D01*
X41483Y-12655D01*
X41531Y-12624D01*
X41572Y-12599D01*
X41611Y-12580D01*
X41644Y-12569D01*
X41656Y-12563D01*
X41664Y-12560D01*
X41669Y-12558D01*
X41672D01*
X41625Y-12530D01*
X41583Y-12502D01*
X41550Y-12472D01*
X41522Y-12444D01*
X41500Y-12422D01*
X41483Y-12399D01*
X41475Y-12388D01*
X41472Y-12383D01*
X41450Y-12341D01*
X41433Y-12302D01*
X41420Y-12263D01*
X41411Y-12227D01*
X41406Y-12197D01*
X41403Y-12172D01*
Y-12158D01*
Y-12152D01*
X41406Y-12105D01*
X41414Y-12058D01*
X41428Y-12016D01*
X41442Y-11977D01*
X41456Y-11944D01*
X41470Y-11922D01*
X41478Y-11905D01*
X41481Y-11900D01*
X41511Y-11858D01*
X41544Y-11819D01*
X41581Y-11789D01*
X41614Y-11764D01*
X41642Y-11744D01*
X41667Y-11730D01*
X41683Y-11722D01*
X41686Y-11719D01*
X41689D01*
X41742Y-11700D01*
X41800Y-11686D01*
X41858Y-11675D01*
X41914Y-11669D01*
X41964Y-11664D01*
X41986D01*
X42005Y-11661D01*
X42760D01*
Y-13582D01*
D02*
G37*
G36*
X40959D02*
X40703D01*
Y-12802D01*
X40212D01*
X40140Y-12799D01*
X40070Y-12794D01*
X40009Y-12785D01*
X39954Y-12774D01*
X39901Y-12763D01*
X39857Y-12749D01*
X39815Y-12732D01*
X39779Y-12716D01*
X39748Y-12702D01*
X39720Y-12685D01*
X39698Y-12671D01*
X39682Y-12658D01*
X39668Y-12649D01*
X39659Y-12641D01*
X39654Y-12635D01*
X39651Y-12633D01*
X39623Y-12599D01*
X39598Y-12566D01*
X39579Y-12533D01*
X39559Y-12497D01*
X39543Y-12460D01*
X39532Y-12427D01*
X39512Y-12363D01*
X39507Y-12333D01*
X39501Y-12305D01*
X39498Y-12280D01*
X39496Y-12261D01*
X39493Y-12241D01*
Y-12230D01*
Y-12222D01*
Y-12219D01*
X39496Y-12166D01*
X39501Y-12116D01*
X39512Y-12072D01*
X39521Y-12033D01*
X39532Y-12000D01*
X39543Y-11975D01*
X39548Y-11961D01*
X39551Y-11955D01*
X39573Y-11913D01*
X39601Y-11877D01*
X39626Y-11844D01*
X39651Y-11819D01*
X39673Y-11800D01*
X39690Y-11783D01*
X39701Y-11775D01*
X39707Y-11772D01*
X39743Y-11750D01*
X39784Y-11730D01*
X39823Y-11714D01*
X39859Y-11700D01*
X39893Y-11691D01*
X39918Y-11686D01*
X39937Y-11680D01*
X39943D01*
X39984Y-11675D01*
X40031Y-11669D01*
X40081Y-11666D01*
X40129Y-11664D01*
X40170Y-11661D01*
X40959D01*
Y-13582D01*
D02*
G37*
%LPC*%
G36*
X74962Y-12885D02*
X74960D01*
Y-12972D01*
X74962Y-13027D01*
X74965Y-13075D01*
X74972Y-13115D01*
X74977Y-13147D01*
X74985Y-13175D01*
X74992Y-13192D01*
X74995Y-13202D01*
X74997Y-13207D01*
X75017Y-13245D01*
X75042Y-13275D01*
X75070Y-13305D01*
X75095Y-13327D01*
X75117Y-13345D01*
X75137Y-13360D01*
X75150Y-13367D01*
X75152Y-13370D01*
X75155D01*
X75195Y-13390D01*
X75237Y-13402D01*
X75277Y-13412D01*
X75315Y-13420D01*
X75347Y-13425D01*
X75372Y-13427D01*
X75395D01*
X75442Y-13425D01*
X75485Y-13417D01*
X75522Y-13407D01*
X75552Y-13395D01*
X75575Y-13385D01*
X75592Y-13375D01*
X75602Y-13367D01*
X75605Y-13365D01*
X75627Y-13340D01*
X75645Y-13315D01*
X75657Y-13287D01*
X75665Y-13265D01*
X75670Y-13242D01*
X75675Y-13225D01*
Y-13215D01*
Y-13210D01*
X75672Y-13187D01*
X75670Y-13165D01*
X75665Y-13147D01*
X75657Y-13130D01*
X75652Y-13117D01*
X75647Y-13105D01*
X75645Y-13100D01*
X75642Y-13097D01*
X75630Y-13080D01*
X75615Y-13065D01*
X75585Y-13040D01*
X75570Y-13032D01*
X75560Y-13027D01*
X75552Y-13022D01*
X75550D01*
X75525Y-13012D01*
X75492Y-13002D01*
X75457Y-12995D01*
X75425Y-12987D01*
X75395Y-12982D01*
X75367Y-12977D01*
X75357D01*
X75352Y-12975D01*
X75345D01*
X75297Y-12967D01*
X75255Y-12960D01*
X75215Y-12952D01*
X75177Y-12945D01*
X75142Y-12937D01*
X75110Y-12930D01*
X75082Y-12922D01*
X75057Y-12915D01*
X75035Y-12910D01*
X75015Y-12902D01*
X74997Y-12897D01*
X74985Y-12892D01*
X74972Y-12890D01*
X74965Y-12887D01*
X74962Y-12885D01*
D02*
G37*
G36*
X71713Y-12355D02*
X71698D01*
X71666Y-12357D01*
X71633Y-12360D01*
X71576Y-12377D01*
X71526Y-12397D01*
X71483Y-12422D01*
X71451Y-12450D01*
X71426Y-12470D01*
X71418Y-12480D01*
X71411Y-12487D01*
X71406Y-12490D01*
Y-12492D01*
X71381Y-12527D01*
X71361Y-12570D01*
X71346Y-12612D01*
X71333Y-12655D01*
X71326Y-12692D01*
X71321Y-12710D01*
Y-12725D01*
X71318Y-12735D01*
X71316Y-12745D01*
Y-12750D01*
Y-12752D01*
X72093D01*
X72086Y-12687D01*
X72071Y-12632D01*
X72051Y-12582D01*
X72028Y-12540D01*
X72008Y-12507D01*
X71991Y-12485D01*
X71978Y-12470D01*
X71973Y-12465D01*
X71951Y-12445D01*
X71928Y-12427D01*
X71883Y-12402D01*
X71836Y-12382D01*
X71793Y-12367D01*
X71756Y-12360D01*
X71738Y-12357D01*
X71726D01*
X71713Y-12355D01*
D02*
G37*
G36*
X86607Y-11887D02*
X86152D01*
X86119Y-11890D01*
X86092Y-11892D01*
X86064Y-11895D01*
X86039D01*
X86020Y-11897D01*
X85999Y-11900D01*
X85970Y-11905D01*
X85950Y-11910D01*
X85937Y-11912D01*
X85932Y-11915D01*
X85902Y-11927D01*
X85875Y-11942D01*
X85855Y-11957D01*
X85835Y-11975D01*
X85820Y-11990D01*
X85810Y-12002D01*
X85805Y-12012D01*
X85802Y-12015D01*
X85787Y-12042D01*
X85775Y-12072D01*
X85767Y-12100D01*
X85760Y-12125D01*
X85757Y-12147D01*
X85755Y-12167D01*
Y-12177D01*
Y-12182D01*
X85757Y-12220D01*
X85762Y-12252D01*
X85770Y-12282D01*
X85780Y-12305D01*
X85790Y-12325D01*
X85797Y-12340D01*
X85802Y-12350D01*
X85805Y-12352D01*
X85825Y-12375D01*
X85850Y-12395D01*
X85872Y-12410D01*
X85897Y-12425D01*
X85920Y-12435D01*
X85937Y-12442D01*
X85947Y-12445D01*
X85952Y-12447D01*
X85982Y-12455D01*
X86020Y-12460D01*
X86059Y-12462D01*
X86099Y-12465D01*
X86134Y-12467D01*
X86607D01*
Y-11887D01*
D02*
G37*
G36*
Y-12695D02*
X86164D01*
X86099Y-12697D01*
X86044Y-12700D01*
X85994Y-12705D01*
X85957Y-12710D01*
X85925Y-12717D01*
X85902Y-12722D01*
X85890Y-12725D01*
X85885Y-12727D01*
X85850Y-12742D01*
X85820Y-12757D01*
X85795Y-12777D01*
X85772Y-12795D01*
X85755Y-12812D01*
X85742Y-12827D01*
X85735Y-12837D01*
X85732Y-12840D01*
X85712Y-12870D01*
X85700Y-12902D01*
X85690Y-12932D01*
X85682Y-12962D01*
X85677Y-12987D01*
X85675Y-13007D01*
Y-13020D01*
Y-13025D01*
X85677Y-13057D01*
X85680Y-13090D01*
X85687Y-13117D01*
X85695Y-13140D01*
X85702Y-13160D01*
X85707Y-13175D01*
X85712Y-13185D01*
X85715Y-13187D01*
X85730Y-13212D01*
X85745Y-13232D01*
X85762Y-13252D01*
X85777Y-13267D01*
X85792Y-13280D01*
X85802Y-13287D01*
X85810Y-13292D01*
X85812Y-13295D01*
X85835Y-13307D01*
X85860Y-13320D01*
X85882Y-13327D01*
X85907Y-13335D01*
X85927Y-13340D01*
X85942Y-13345D01*
X85952Y-13347D01*
X85957D01*
X85980Y-13350D01*
X86005Y-13352D01*
X86062Y-13355D01*
X86607D01*
Y-12695D01*
D02*
G37*
G36*
X77352Y-11887D02*
X76802D01*
X76752Y-11890D01*
X76712Y-11892D01*
X76679Y-11895D01*
X76657Y-11900D01*
X76639Y-11902D01*
X76629Y-11905D01*
X76627D01*
X76592Y-11917D01*
X76559Y-11935D01*
X76532Y-11952D01*
X76509Y-11972D01*
X76492Y-11990D01*
X76477Y-12005D01*
X76469Y-12015D01*
X76467Y-12020D01*
X76447Y-12052D01*
X76432Y-12087D01*
X76419Y-12122D01*
X76412Y-12155D01*
X76407Y-12182D01*
X76404Y-12205D01*
Y-12220D01*
Y-12222D01*
Y-12225D01*
X76409Y-12285D01*
X76422Y-12335D01*
X76437Y-12380D01*
X76457Y-12417D01*
X76477Y-12447D01*
X76492Y-12467D01*
X76504Y-12480D01*
X76509Y-12485D01*
X76529Y-12500D01*
X76554Y-12515D01*
X76607Y-12537D01*
X76664Y-12552D01*
X76722Y-12562D01*
X76774Y-12570D01*
X76797Y-12572D01*
X76817D01*
X76834Y-12575D01*
X77352D01*
Y-11887D01*
D02*
G37*
G36*
X84547Y-12355D02*
X84530D01*
X84497Y-12357D01*
X84467Y-12360D01*
X84410Y-12375D01*
X84360Y-12397D01*
X84317Y-12422D01*
X84285Y-12447D01*
X84257Y-12470D01*
X84250Y-12477D01*
X84242Y-12485D01*
X84240Y-12487D01*
X84237Y-12490D01*
X84217Y-12515D01*
X84197Y-12545D01*
X84170Y-12607D01*
X84147Y-12672D01*
X84135Y-12735D01*
X84130Y-12765D01*
X84125Y-12792D01*
X84122Y-12815D01*
Y-12837D01*
X84120Y-12855D01*
Y-12867D01*
Y-12877D01*
Y-12880D01*
Y-12930D01*
X84125Y-12975D01*
X84130Y-13017D01*
X84137Y-13057D01*
X84147Y-13095D01*
X84157Y-13127D01*
X84167Y-13157D01*
X84177Y-13185D01*
X84190Y-13207D01*
X84200Y-13227D01*
X84210Y-13245D01*
X84220Y-13260D01*
X84227Y-13270D01*
X84232Y-13277D01*
X84235Y-13282D01*
X84237Y-13285D01*
X84260Y-13307D01*
X84282Y-13327D01*
X84307Y-13347D01*
X84332Y-13362D01*
X84382Y-13385D01*
X84427Y-13400D01*
X84467Y-13410D01*
X84485Y-13412D01*
X84500Y-13415D01*
X84512Y-13417D01*
X84530D01*
X84562Y-13415D01*
X84592Y-13412D01*
X84650Y-13397D01*
X84700Y-13375D01*
X84742Y-13350D01*
X84775Y-13327D01*
X84802Y-13305D01*
X84810Y-13297D01*
X84817Y-13290D01*
X84820Y-13287D01*
X84822Y-13285D01*
X84842Y-13257D01*
X84860Y-13230D01*
X84890Y-13167D01*
X84910Y-13100D01*
X84922Y-13037D01*
X84927Y-13007D01*
X84932Y-12977D01*
X84935Y-12952D01*
Y-12930D01*
X84937Y-12912D01*
Y-12900D01*
Y-12890D01*
Y-12887D01*
X84935Y-12840D01*
X84932Y-12792D01*
X84927Y-12750D01*
X84920Y-12712D01*
X84910Y-12675D01*
X84900Y-12642D01*
X84890Y-12612D01*
X84880Y-12587D01*
X84870Y-12562D01*
X84860Y-12542D01*
X84850Y-12527D01*
X84840Y-12512D01*
X84832Y-12502D01*
X84827Y-12492D01*
X84822Y-12490D01*
Y-12487D01*
X84800Y-12465D01*
X84775Y-12442D01*
X84752Y-12425D01*
X84727Y-12410D01*
X84677Y-12387D01*
X84632Y-12372D01*
X84592Y-12362D01*
X84575Y-12360D01*
X84560Y-12357D01*
X84547Y-12355D01*
D02*
G37*
G36*
X81566D02*
X81548D01*
X81516Y-12357D01*
X81486Y-12360D01*
X81428Y-12375D01*
X81378Y-12397D01*
X81336Y-12422D01*
X81303Y-12447D01*
X81276Y-12470D01*
X81268Y-12477D01*
X81261Y-12485D01*
X81258Y-12487D01*
X81256Y-12490D01*
X81236Y-12515D01*
X81216Y-12545D01*
X81188Y-12607D01*
X81166Y-12672D01*
X81153Y-12735D01*
X81148Y-12765D01*
X81143Y-12792D01*
X81141Y-12815D01*
Y-12837D01*
X81138Y-12855D01*
Y-12867D01*
Y-12877D01*
Y-12880D01*
Y-12930D01*
X81143Y-12975D01*
X81148Y-13017D01*
X81156Y-13057D01*
X81166Y-13095D01*
X81176Y-13127D01*
X81186Y-13157D01*
X81196Y-13185D01*
X81208Y-13207D01*
X81218Y-13227D01*
X81228Y-13245D01*
X81238Y-13260D01*
X81246Y-13270D01*
X81251Y-13277D01*
X81253Y-13282D01*
X81256Y-13285D01*
X81278Y-13307D01*
X81301Y-13327D01*
X81326Y-13347D01*
X81351Y-13362D01*
X81401Y-13385D01*
X81446Y-13400D01*
X81486Y-13410D01*
X81503Y-13412D01*
X81518Y-13415D01*
X81531Y-13417D01*
X81548D01*
X81581Y-13415D01*
X81611Y-13412D01*
X81668Y-13397D01*
X81718Y-13375D01*
X81761Y-13350D01*
X81793Y-13327D01*
X81821Y-13305D01*
X81828Y-13297D01*
X81836Y-13290D01*
X81838Y-13287D01*
X81841Y-13285D01*
X81861Y-13257D01*
X81878Y-13230D01*
X81908Y-13167D01*
X81928Y-13100D01*
X81941Y-13037D01*
X81946Y-13007D01*
X81951Y-12977D01*
X81953Y-12952D01*
Y-12930D01*
X81956Y-12912D01*
Y-12900D01*
Y-12890D01*
Y-12887D01*
X81953Y-12840D01*
X81951Y-12792D01*
X81946Y-12750D01*
X81938Y-12712D01*
X81928Y-12675D01*
X81918Y-12642D01*
X81908Y-12612D01*
X81898Y-12587D01*
X81888Y-12562D01*
X81878Y-12542D01*
X81868Y-12527D01*
X81858Y-12512D01*
X81851Y-12502D01*
X81846Y-12492D01*
X81841Y-12490D01*
Y-12487D01*
X81818Y-12465D01*
X81793Y-12442D01*
X81771Y-12425D01*
X81746Y-12410D01*
X81696Y-12387D01*
X81651Y-12372D01*
X81611Y-12362D01*
X81593Y-12360D01*
X81578Y-12357D01*
X81566Y-12355D01*
D02*
G37*
G36*
X42505Y-11889D02*
X42050D01*
X41989Y-11894D01*
X41941Y-11897D01*
X41900Y-11902D01*
X41869Y-11908D01*
X41850Y-11911D01*
X41836Y-11916D01*
X41833D01*
X41803Y-11927D01*
X41775Y-11944D01*
X41753Y-11961D01*
X41733Y-11977D01*
X41719Y-11991D01*
X41708Y-12005D01*
X41703Y-12013D01*
X41700Y-12016D01*
X41683Y-12044D01*
X41672Y-12072D01*
X41664Y-12099D01*
X41658Y-12127D01*
X41656Y-12149D01*
X41653Y-12166D01*
Y-12177D01*
Y-12183D01*
X41656Y-12219D01*
X41661Y-12252D01*
X41669Y-12280D01*
X41678Y-12302D01*
X41686Y-12322D01*
X41694Y-12338D01*
X41700Y-12347D01*
X41703Y-12349D01*
X41722Y-12372D01*
X41747Y-12394D01*
X41772Y-12410D01*
X41794Y-12422D01*
X41817Y-12433D01*
X41833Y-12441D01*
X41844Y-12444D01*
X41850Y-12447D01*
X41880Y-12452D01*
X41919Y-12458D01*
X41958Y-12460D01*
X41997Y-12463D01*
X42033Y-12466D01*
X42505D01*
Y-11889D01*
D02*
G37*
G36*
Y-12694D02*
X42000D01*
X41941Y-12699D01*
X41894Y-12705D01*
X41855Y-12710D01*
X41825Y-12716D01*
X41800Y-12721D01*
X41789Y-12724D01*
X41783Y-12727D01*
X41747Y-12741D01*
X41717Y-12757D01*
X41689Y-12777D01*
X41667Y-12796D01*
X41650Y-12813D01*
X41639Y-12827D01*
X41631Y-12838D01*
X41628Y-12841D01*
X41608Y-12871D01*
X41594Y-12902D01*
X41583Y-12932D01*
X41578Y-12960D01*
X41572Y-12985D01*
X41569Y-13007D01*
Y-13018D01*
Y-13024D01*
X41572Y-13057D01*
X41575Y-13091D01*
X41581Y-13118D01*
X41589Y-13141D01*
X41597Y-13160D01*
X41603Y-13177D01*
X41606Y-13185D01*
X41608Y-13188D01*
X41625Y-13213D01*
X41639Y-13235D01*
X41658Y-13252D01*
X41672Y-13268D01*
X41686Y-13279D01*
X41697Y-13288D01*
X41705Y-13293D01*
X41708Y-13296D01*
X41755Y-13318D01*
X41803Y-13335D01*
X41822Y-13340D01*
X41839Y-13343D01*
X41850Y-13346D01*
X41853D01*
X41875Y-13349D01*
X41900Y-13352D01*
X41958Y-13354D01*
X42505D01*
Y-12694D01*
D02*
G37*
G36*
X40703Y-11889D02*
X40154D01*
X40104Y-11891D01*
X40062Y-11894D01*
X40029Y-11897D01*
X40006Y-11902D01*
X39990Y-11905D01*
X39979Y-11908D01*
X39976D01*
X39940Y-11922D01*
X39909Y-11938D01*
X39882Y-11955D01*
X39857Y-11975D01*
X39840Y-11994D01*
X39826Y-12008D01*
X39818Y-12019D01*
X39815Y-12022D01*
X39795Y-12055D01*
X39779Y-12088D01*
X39768Y-12124D01*
X39762Y-12155D01*
X39757Y-12183D01*
X39754Y-12208D01*
Y-12222D01*
Y-12224D01*
Y-12227D01*
X39759Y-12286D01*
X39770Y-12335D01*
X39787Y-12380D01*
X39807Y-12416D01*
X39826Y-12444D01*
X39843Y-12466D01*
X39854Y-12477D01*
X39859Y-12483D01*
X39879Y-12499D01*
X39904Y-12513D01*
X39956Y-12535D01*
X40015Y-12552D01*
X40073Y-12563D01*
X40126Y-12569D01*
X40148Y-12571D01*
X40167D01*
X40187Y-12574D01*
X40703D01*
Y-11889D01*
D02*
G37*
%LPD*%
D10*
X100050Y33000D02*
G03*
X98050Y35000I-2000J0D01*
G01*
Y0D02*
G03*
X100050Y2000I0J2000D01*
G01*
X2000Y35000D02*
G03*
X0Y33000I0J-2000D01*
G01*
Y2000D02*
G03*
X2000Y0I2000J0D01*
G01*
X98050D01*
X2000Y35000D02*
X98050D01*
X100050Y2000D02*
Y33000D01*
X0Y2000D02*
Y33000D01*
D73*
X60929Y31949D02*
D03*
X59659D02*
D03*
X58389D02*
D03*
Y27885D02*
D03*
X59659D02*
D03*
X60929D02*
D03*
X57119D02*
D03*
X55849D02*
D03*
X54579D02*
D03*
X53309D02*
D03*
Y31949D02*
D03*
X54579D02*
D03*
X55849D02*
D03*
X57119D02*
D03*
X75807Y3123D02*
D03*
X77077D02*
D03*
X78347D02*
D03*
Y7187D02*
D03*
X77077D02*
D03*
X75807D02*
D03*
X79617D02*
D03*
X80887D02*
D03*
X82157D02*
D03*
X83427D02*
D03*
Y3123D02*
D03*
X82157D02*
D03*
X80887D02*
D03*
X79617D02*
D03*
M02*
