G04*
G04 #@! TF.GenerationSoftware,Altium Limited,Altium Designer,24.2.2 (26)*
G04*
G04 Layer_Color=8388736*
%FSLAX43Y43*%
%MOMM*%
G71*
G04*
G04 #@! TF.SameCoordinates,4F7CD7CC-9D04-48A1-B46F-AFD2B6BA45A4*
G04*
G04*
G04 #@! TF.FilePolarity,Negative*
G04*
G01*
G75*
%ADD14C,0.100*%
%ADD15R,5.600X1.750*%
%ADD16R,1.850X2.600*%
%ADD17R,0.900X0.500*%
%ADD18R,2.300X1.500*%
%ADD19R,0.450X0.950*%
%ADD20R,1.575X0.400*%
%ADD21R,0.400X1.575*%
%ADD22R,0.600X0.500*%
G04:AMPARAMS|DCode=23|XSize=0.4mm|YSize=1mm|CornerRadius=0mm|HoleSize=0mm|Usage=FLASHONLY|Rotation=315.000|XOffset=0mm|YOffset=0mm|HoleType=Round|Shape=Rectangle|*
%AMROTATEDRECTD23*
4,1,4,-0.495,-0.212,0.212,0.495,0.495,0.212,-0.212,-0.495,-0.495,-0.212,0.0*
%
%ADD23ROTATEDRECTD23*%

G04:AMPARAMS|DCode=24|XSize=0.66mm|YSize=0.61mm|CornerRadius=0mm|HoleSize=0mm|Usage=FLASHONLY|Rotation=225.000|XOffset=0mm|YOffset=0mm|HoleType=Round|Shape=Rectangle|*
%AMROTATEDRECTD24*
4,1,4,0.018,0.449,0.449,0.018,-0.018,-0.449,-0.449,-0.018,0.018,0.449,0.0*
%
%ADD24ROTATEDRECTD24*%

G04:AMPARAMS|DCode=25|XSize=0.8mm|YSize=0.61mm|CornerRadius=0mm|HoleSize=0mm|Usage=FLASHONLY|Rotation=225.000|XOffset=0mm|YOffset=0mm|HoleType=Round|Shape=Rectangle|*
%AMROTATEDRECTD25*
4,1,4,0.067,0.499,0.499,0.067,-0.067,-0.499,-0.499,-0.067,0.067,0.499,0.0*
%
%ADD25ROTATEDRECTD25*%

%ADD26R,0.660X0.610*%
%ADD27R,0.800X0.610*%
%ADD28R,0.610X0.800*%
%ADD29C,1.100*%
%ADD30R,1.000X0.800*%
%ADD31R,0.500X0.600*%
%ADD32R,0.740X0.990*%
%ADD33R,0.990X0.740*%
%ADD34R,1.650X1.400*%
%ADD35R,1.500X1.100*%
%ADD36R,0.800X0.400*%
%ADD37R,0.800X1.000*%
%ADD38R,0.610X0.660*%
%ADD39R,1.000X0.650*%
%ADD40R,1.050X0.500*%
%ADD41R,0.450X1.400*%
%ADD42R,2.400X0.450*%
%ADD43R,0.500X1.050*%
%ADD44R,1.400X0.450*%
%ADD45R,0.450X2.400*%
%ADD46R,0.300X0.800*%
%ADD47R,1.100X0.600*%
%ADD48R,2.900X1.450*%
%ADD49R,3.800X3.800*%
%ADD50O,0.850X0.400*%
%ADD51O,0.400X0.850*%
%ADD52R,0.900X2.100*%
G04:AMPARAMS|DCode=53|XSize=0.8mm|YSize=0.61mm|CornerRadius=0mm|HoleSize=0mm|Usage=FLASHONLY|Rotation=135.000|XOffset=0mm|YOffset=0mm|HoleType=Round|Shape=Rectangle|*
%AMROTATEDRECTD53*
4,1,4,0.499,-0.067,0.067,-0.499,-0.499,0.067,-0.067,0.499,0.499,-0.067,0.0*
%
%ADD53ROTATEDRECTD53*%

G04:AMPARAMS|DCode=54|XSize=0.66mm|YSize=0.61mm|CornerRadius=0mm|HoleSize=0mm|Usage=FLASHONLY|Rotation=135.000|XOffset=0mm|YOffset=0mm|HoleType=Round|Shape=Rectangle|*
%AMROTATEDRECTD54*
4,1,4,0.449,-0.018,0.018,-0.449,-0.449,0.018,-0.018,0.449,0.449,-0.018,0.0*
%
%ADD54ROTATEDRECTD54*%

%ADD55R,2.750X3.750*%
%ADD56O,0.350X0.950*%
%ADD57O,0.950X0.350*%
%ADD58R,0.450X0.450*%
%ADD59R,1.300X3.800*%
%ADD60R,0.450X0.450*%
%ADD61R,1.600X4.500*%
%ADD62P,0.841X4X360.0*%
%ADD63R,1.000X1.600*%
%ADD64R,1.100X0.400*%
%ADD65R,0.950X0.400*%
%ADD66R,1.100X2.000*%
%ADD67R,0.400X0.850*%
%ADD68R,0.650X1.000*%
%ADD69P,1.556X4X90.0*%
G04:AMPARAMS|DCode=70|XSize=1.2mm|YSize=2.3mm|CornerRadius=0mm|HoleSize=0mm|Usage=FLASHONLY|Rotation=45.000|XOffset=0mm|YOffset=0mm|HoleType=Round|Shape=Rectangle|*
%AMROTATEDRECTD70*
4,1,4,0.389,-1.237,-1.237,0.389,-0.389,1.237,1.237,-0.389,0.389,-1.237,0.0*
%
%ADD70ROTATEDRECTD70*%

%ADD71C,1.200*%
%ADD72R,0.900X0.900*%
%ADD73R,0.900X0.900*%
%ADD74R,0.600X1.100*%
%ADD75R,2.100X0.900*%
%ADD76R,1.050X0.900*%
%ADD77R,0.950X0.850*%
%ADD78R,5.700X5.700*%
%ADD79R,0.850X0.400*%
%ADD80C,1.700*%
%ADD81R,1.700X1.700*%
%ADD82C,2.100*%
%ADD83R,1.950X1.950*%
%ADD84C,1.950*%
%ADD85O,2.200X1.200*%
%ADD86O,2.700X1.200*%
%ADD87O,3.700X1.200*%
%ADD88C,0.100*%
%ADD89C,0.350*%
%ADD90C,0.550*%
%ADD91C,0.400*%
G36*
X41957Y28354D02*
X41964Y28352D01*
X41971Y28349D01*
X41977Y28344D01*
X41981Y28338D01*
X41985Y28332D01*
X41987Y28325D01*
X41988Y28317D01*
Y28058D01*
X41987Y28050D01*
X41985Y28043D01*
X41981Y28037D01*
X41977Y28031D01*
X41971Y28026D01*
X41964Y28023D01*
X41957Y28021D01*
X41950Y28020D01*
X41740D01*
X41733Y28021D01*
X41726Y28023D01*
X41719Y28026D01*
X41713Y28031D01*
X41533Y28211D01*
X41529Y28217D01*
X41525Y28223D01*
X41523Y28230D01*
X41522Y28237D01*
Y28317D01*
X41523Y28325D01*
X41525Y28332D01*
X41529Y28338D01*
X41533Y28344D01*
X41539Y28349D01*
X41546Y28352D01*
X41553Y28354D01*
X41560Y28355D01*
X41950D01*
X41957Y28354D01*
D02*
G37*
G36*
X41147D02*
X41154Y28352D01*
X41161Y28349D01*
X41167Y28344D01*
X41171Y28338D01*
X41175Y28332D01*
X41177Y28325D01*
X41178Y28317D01*
Y28237D01*
X41177Y28230D01*
X41175Y28223D01*
X41171Y28217D01*
X41167Y28211D01*
X40987Y28031D01*
X40981Y28026D01*
X40974Y28023D01*
X40967Y28021D01*
X40960Y28020D01*
X40750D01*
X40743Y28021D01*
X40736Y28023D01*
X40729Y28026D01*
X40723Y28031D01*
X40719Y28037D01*
X40715Y28043D01*
X40713Y28050D01*
X40712Y28058D01*
Y28317D01*
X40713Y28325D01*
X40715Y28332D01*
X40719Y28338D01*
X40723Y28344D01*
X40729Y28349D01*
X40736Y28352D01*
X40743Y28354D01*
X40750Y28355D01*
X41140D01*
X41147Y28354D01*
D02*
G37*
G36*
X41957Y27704D02*
X41964Y27702D01*
X41971Y27699D01*
X41977Y27694D01*
X41981Y27688D01*
X41985Y27682D01*
X41987Y27675D01*
X41988Y27667D01*
Y27407D01*
X41987Y27400D01*
X41985Y27393D01*
X41981Y27387D01*
X41977Y27381D01*
X41971Y27376D01*
X41964Y27373D01*
X41957Y27371D01*
X41950Y27370D01*
X41560D01*
X41553Y27371D01*
X41546Y27373D01*
X41539Y27376D01*
X41533Y27381D01*
X41529Y27387D01*
X41525Y27393D01*
X41523Y27400D01*
X41522Y27407D01*
Y27487D01*
X41523Y27495D01*
X41525Y27502D01*
X41529Y27508D01*
X41533Y27514D01*
X41713Y27694D01*
X41719Y27699D01*
X41726Y27702D01*
X41733Y27704D01*
X41740Y27705D01*
X41950D01*
X41957Y27704D01*
D02*
G37*
G36*
X40967D02*
X40974Y27702D01*
X40981Y27699D01*
X40987Y27694D01*
X41167Y27514D01*
X41171Y27508D01*
X41175Y27502D01*
X41177Y27495D01*
X41178Y27487D01*
Y27407D01*
X41177Y27400D01*
X41175Y27393D01*
X41171Y27387D01*
X41167Y27381D01*
X41161Y27376D01*
X41154Y27373D01*
X41147Y27371D01*
X41140Y27370D01*
X40750D01*
X40743Y27371D01*
X40736Y27373D01*
X40729Y27376D01*
X40723Y27381D01*
X40719Y27387D01*
X40715Y27393D01*
X40713Y27400D01*
X40712Y27407D01*
Y27667D01*
X40713Y27675D01*
X40715Y27682D01*
X40719Y27688D01*
X40723Y27694D01*
X40729Y27699D01*
X40736Y27702D01*
X40743Y27704D01*
X40750Y27705D01*
X40960D01*
X40967Y27704D01*
D02*
G37*
G36*
X92847Y33206D02*
X93114Y33106D01*
X93339Y32929D01*
X93419Y32811D01*
X93419Y32811D01*
X99076Y27154D01*
X98163Y26653D01*
X96551Y28265D01*
X92961Y25633D01*
X93227Y25366D01*
X93436Y25411D01*
X93631Y25437D01*
X93721Y25439D01*
X93802Y25428D01*
X93874Y25405D01*
X93934Y25366D01*
X94006Y25271D01*
X94055Y25142D01*
X94111Y24836D01*
X94135Y24680D01*
X94167Y24535D01*
X94215Y24408D01*
X94288Y24305D01*
X94390Y24233D01*
X94518Y24185D01*
X94663Y24153D01*
X94818Y24129D01*
X95125Y24072D01*
X95253Y24024D01*
X95349Y23952D01*
X95388Y23891D01*
X95411Y23819D01*
X95421Y23738D01*
X95420Y23649D01*
X95393Y23453D01*
X95349Y23245D01*
X96124Y22469D01*
X95558Y21904D01*
X94783Y22679D01*
X94827Y22887D01*
X94854Y23083D01*
X94855Y23172D01*
X94845Y23254D01*
X94822Y23325D01*
X94783Y23386D01*
X94687Y23458D01*
X94559Y23506D01*
X94253Y23563D01*
X94097Y23587D01*
X93952Y23619D01*
X93825Y23667D01*
X93722Y23740D01*
X93650Y23842D01*
X93602Y23969D01*
X93570Y24115D01*
X93545Y24270D01*
X93489Y24577D01*
X93441Y24705D01*
X93369Y24800D01*
X93308Y24839D01*
X93236Y24863D01*
X93155Y24873D01*
X93066Y24872D01*
X92870Y24845D01*
X92662Y24800D01*
X91601Y25861D01*
X95844Y28972D01*
X92569Y32199D01*
X92288Y27578D01*
X92271Y27437D01*
X92155Y27177D01*
X91967Y26964D01*
X91724Y26816D01*
X91448Y26747D01*
X91163Y26763D01*
X90897Y26863D01*
X90672Y27037D01*
X90591Y27154D01*
X89177Y28568D01*
X88328Y27720D01*
X88224Y27724D01*
X88049Y27899D01*
X88045Y28003D01*
X88894Y28851D01*
X88469Y29275D01*
X87746Y29999D01*
X87000Y29260D01*
X86743Y29517D01*
X87482Y30263D01*
X87055Y30690D01*
X87975Y31185D01*
X91439Y27720D01*
X91742Y32366D01*
X91753Y32509D01*
X91861Y32774D01*
X92044Y32994D01*
X92285Y33147D01*
X92561Y33221D01*
X92847Y33206D01*
D02*
G37*
G36*
X61860Y-11586D02*
X61880D01*
X61933Y-11592D01*
X61991Y-11600D01*
X62052Y-11614D01*
X62119Y-11631D01*
X62180Y-11653D01*
X62182D01*
X62188Y-11656D01*
X62196Y-11661D01*
X62207Y-11667D01*
X62235Y-11681D01*
X62271Y-11706D01*
X62313Y-11733D01*
X62355Y-11769D01*
X62393Y-11811D01*
X62430Y-11858D01*
Y-11861D01*
X62432Y-11864D01*
X62438Y-11872D01*
X62443Y-11881D01*
X62457Y-11908D01*
X62474Y-11944D01*
X62493Y-11989D01*
X62507Y-12042D01*
X62521Y-12097D01*
X62527Y-12158D01*
X62282Y-12178D01*
Y-12175D01*
Y-12169D01*
X62280Y-12161D01*
X62277Y-12147D01*
X62269Y-12116D01*
X62257Y-12075D01*
X62241Y-12030D01*
X62216Y-11986D01*
X62185Y-11944D01*
X62146Y-11906D01*
X62141Y-11903D01*
X62127Y-11892D01*
X62099Y-11875D01*
X62063Y-11858D01*
X62016Y-11842D01*
X61960Y-11825D01*
X61891Y-11814D01*
X61813Y-11811D01*
X61774D01*
X61758Y-11814D01*
X61735Y-11817D01*
X61686Y-11822D01*
X61630Y-11833D01*
X61574Y-11847D01*
X61522Y-11869D01*
X61500Y-11883D01*
X61477Y-11897D01*
X61472Y-11900D01*
X61461Y-11911D01*
X61444Y-11930D01*
X61427Y-11953D01*
X61408Y-11983D01*
X61391Y-12017D01*
X61380Y-12055D01*
X61375Y-12100D01*
Y-12105D01*
Y-12116D01*
X61377Y-12136D01*
X61383Y-12158D01*
X61391Y-12186D01*
X61405Y-12214D01*
X61422Y-12241D01*
X61447Y-12269D01*
X61450Y-12272D01*
X61463Y-12280D01*
X61475Y-12289D01*
X61486Y-12294D01*
X61502Y-12302D01*
X61522Y-12314D01*
X61547Y-12322D01*
X61574Y-12333D01*
X61605Y-12344D01*
X61641Y-12358D01*
X61680Y-12369D01*
X61724Y-12383D01*
X61774Y-12394D01*
X61830Y-12408D01*
X61833D01*
X61844Y-12411D01*
X61860Y-12414D01*
X61880Y-12419D01*
X61905Y-12425D01*
X61935Y-12433D01*
X61966Y-12441D01*
X61999Y-12450D01*
X62071Y-12469D01*
X62141Y-12489D01*
X62174Y-12500D01*
X62205Y-12511D01*
X62232Y-12519D01*
X62255Y-12530D01*
X62257D01*
X62263Y-12533D01*
X62271Y-12538D01*
X62282Y-12544D01*
X62313Y-12561D01*
X62349Y-12583D01*
X62391Y-12613D01*
X62432Y-12647D01*
X62471Y-12686D01*
X62504Y-12727D01*
X62507Y-12733D01*
X62518Y-12747D01*
X62529Y-12772D01*
X62546Y-12805D01*
X62560Y-12844D01*
X62574Y-12891D01*
X62582Y-12944D01*
X62585Y-12999D01*
Y-13002D01*
Y-13005D01*
Y-13013D01*
Y-13024D01*
X62579Y-13055D01*
X62574Y-13094D01*
X62563Y-13138D01*
X62549Y-13185D01*
X62527Y-13235D01*
X62496Y-13288D01*
Y-13291D01*
X62493Y-13294D01*
X62479Y-13310D01*
X62460Y-13335D01*
X62432Y-13363D01*
X62396Y-13396D01*
X62352Y-13432D01*
X62302Y-13466D01*
X62244Y-13496D01*
X62241D01*
X62235Y-13499D01*
X62227Y-13502D01*
X62216Y-13507D01*
X62199Y-13513D01*
X62180Y-13521D01*
X62135Y-13532D01*
X62083Y-13546D01*
X62019Y-13560D01*
X61949Y-13568D01*
X61874Y-13571D01*
X61830D01*
X61808Y-13568D01*
X61783D01*
X61755Y-13566D01*
X61722Y-13563D01*
X61652Y-13552D01*
X61580Y-13541D01*
X61508Y-13521D01*
X61438Y-13496D01*
X61436D01*
X61430Y-13493D01*
X61422Y-13488D01*
X61411Y-13482D01*
X61377Y-13466D01*
X61338Y-13441D01*
X61294Y-13407D01*
X61247Y-13369D01*
X61202Y-13321D01*
X61161Y-13269D01*
Y-13266D01*
X61155Y-13260D01*
X61152Y-13252D01*
X61144Y-13241D01*
X61139Y-13227D01*
X61130Y-13210D01*
X61111Y-13169D01*
X61091Y-13116D01*
X61075Y-13058D01*
X61064Y-12991D01*
X61058Y-12922D01*
X61297Y-12899D01*
Y-12902D01*
Y-12905D01*
X61300Y-12913D01*
Y-12924D01*
X61305Y-12949D01*
X61313Y-12985D01*
X61325Y-13022D01*
X61336Y-13063D01*
X61355Y-13102D01*
X61375Y-13138D01*
X61377Y-13141D01*
X61386Y-13152D01*
X61400Y-13171D01*
X61422Y-13191D01*
X61450Y-13216D01*
X61480Y-13241D01*
X61522Y-13266D01*
X61566Y-13288D01*
X61569D01*
X61572Y-13291D01*
X61580Y-13294D01*
X61588Y-13296D01*
X61616Y-13305D01*
X61652Y-13316D01*
X61697Y-13327D01*
X61747Y-13335D01*
X61802Y-13341D01*
X61863Y-13344D01*
X61888D01*
X61916Y-13341D01*
X61949Y-13338D01*
X61988Y-13332D01*
X62033Y-13327D01*
X62077Y-13316D01*
X62119Y-13302D01*
X62124Y-13299D01*
X62138Y-13294D01*
X62157Y-13283D01*
X62182Y-13271D01*
X62207Y-13252D01*
X62235Y-13233D01*
X62263Y-13210D01*
X62285Y-13183D01*
X62288Y-13180D01*
X62293Y-13169D01*
X62302Y-13155D01*
X62313Y-13133D01*
X62324Y-13110D01*
X62332Y-13083D01*
X62338Y-13052D01*
X62341Y-13019D01*
Y-13016D01*
Y-13002D01*
X62338Y-12985D01*
X62335Y-12963D01*
X62327Y-12941D01*
X62318Y-12913D01*
X62305Y-12886D01*
X62285Y-12861D01*
X62282Y-12858D01*
X62274Y-12849D01*
X62263Y-12838D01*
X62244Y-12822D01*
X62221Y-12805D01*
X62191Y-12786D01*
X62155Y-12766D01*
X62113Y-12749D01*
X62110Y-12747D01*
X62096Y-12744D01*
X62074Y-12736D01*
X62060Y-12733D01*
X62041Y-12727D01*
X62021Y-12719D01*
X61996Y-12713D01*
X61969Y-12705D01*
X61935Y-12697D01*
X61902Y-12688D01*
X61863Y-12677D01*
X61819Y-12666D01*
X61772Y-12655D01*
X61769D01*
X61760Y-12652D01*
X61747Y-12650D01*
X61730Y-12644D01*
X61708Y-12638D01*
X61683Y-12633D01*
X61627Y-12616D01*
X61566Y-12597D01*
X61502Y-12577D01*
X61447Y-12558D01*
X61422Y-12547D01*
X61400Y-12536D01*
X61397D01*
X61394Y-12533D01*
X61377Y-12522D01*
X61352Y-12508D01*
X61325Y-12486D01*
X61291Y-12461D01*
X61258Y-12430D01*
X61225Y-12394D01*
X61197Y-12355D01*
X61194Y-12350D01*
X61186Y-12336D01*
X61175Y-12314D01*
X61164Y-12286D01*
X61152Y-12250D01*
X61141Y-12208D01*
X61133Y-12164D01*
X61130Y-12116D01*
Y-12114D01*
Y-12111D01*
Y-12103D01*
Y-12092D01*
X61136Y-12064D01*
X61141Y-12028D01*
X61150Y-11986D01*
X61164Y-11939D01*
X61183Y-11892D01*
X61211Y-11844D01*
Y-11842D01*
X61214Y-11839D01*
X61227Y-11822D01*
X61247Y-11800D01*
X61272Y-11772D01*
X61305Y-11742D01*
X61347Y-11708D01*
X61397Y-11678D01*
X61452Y-11650D01*
X61455D01*
X61461Y-11647D01*
X61469Y-11645D01*
X61480Y-11639D01*
X61494Y-11633D01*
X61513Y-11628D01*
X61555Y-11617D01*
X61608Y-11606D01*
X61669Y-11595D01*
X61733Y-11586D01*
X61805Y-11583D01*
X61841D01*
X61860Y-11586D01*
D02*
G37*
G36*
X21246D02*
X21265D01*
X21318Y-11592D01*
X21376Y-11600D01*
X21437Y-11614D01*
X21504Y-11631D01*
X21565Y-11653D01*
X21568D01*
X21573Y-11656D01*
X21581Y-11661D01*
X21593Y-11667D01*
X21620Y-11681D01*
X21656Y-11706D01*
X21698Y-11733D01*
X21740Y-11769D01*
X21779Y-11811D01*
X21815Y-11858D01*
Y-11861D01*
X21817Y-11864D01*
X21823Y-11872D01*
X21829Y-11881D01*
X21842Y-11908D01*
X21859Y-11944D01*
X21879Y-11989D01*
X21892Y-12042D01*
X21906Y-12097D01*
X21912Y-12158D01*
X21668Y-12178D01*
Y-12175D01*
Y-12169D01*
X21665Y-12161D01*
X21662Y-12147D01*
X21654Y-12116D01*
X21643Y-12075D01*
X21626Y-12030D01*
X21601Y-11986D01*
X21570Y-11944D01*
X21532Y-11906D01*
X21526Y-11903D01*
X21512Y-11892D01*
X21484Y-11875D01*
X21448Y-11858D01*
X21401Y-11842D01*
X21346Y-11825D01*
X21276Y-11814D01*
X21198Y-11811D01*
X21160D01*
X21143Y-11814D01*
X21121Y-11817D01*
X21071Y-11822D01*
X21015Y-11833D01*
X20960Y-11847D01*
X20907Y-11869D01*
X20885Y-11883D01*
X20862Y-11897D01*
X20857Y-11900D01*
X20846Y-11911D01*
X20829Y-11930D01*
X20812Y-11953D01*
X20793Y-11983D01*
X20776Y-12017D01*
X20765Y-12055D01*
X20760Y-12100D01*
Y-12105D01*
Y-12116D01*
X20763Y-12136D01*
X20768Y-12158D01*
X20776Y-12186D01*
X20790Y-12214D01*
X20807Y-12241D01*
X20832Y-12269D01*
X20835Y-12272D01*
X20849Y-12280D01*
X20860Y-12289D01*
X20871Y-12294D01*
X20887Y-12302D01*
X20907Y-12314D01*
X20932Y-12322D01*
X20960Y-12333D01*
X20990Y-12344D01*
X21026Y-12358D01*
X21065Y-12369D01*
X21110Y-12383D01*
X21160Y-12394D01*
X21215Y-12408D01*
X21218D01*
X21229Y-12411D01*
X21246Y-12414D01*
X21265Y-12419D01*
X21290Y-12425D01*
X21321Y-12433D01*
X21351Y-12441D01*
X21384Y-12450D01*
X21457Y-12469D01*
X21526Y-12489D01*
X21559Y-12500D01*
X21590Y-12511D01*
X21618Y-12519D01*
X21640Y-12530D01*
X21643D01*
X21648Y-12533D01*
X21656Y-12538D01*
X21668Y-12544D01*
X21698Y-12561D01*
X21734Y-12583D01*
X21776Y-12613D01*
X21817Y-12647D01*
X21856Y-12686D01*
X21890Y-12727D01*
X21892Y-12733D01*
X21904Y-12747D01*
X21915Y-12772D01*
X21931Y-12805D01*
X21945Y-12844D01*
X21959Y-12891D01*
X21967Y-12944D01*
X21970Y-12999D01*
Y-13002D01*
Y-13005D01*
Y-13013D01*
Y-13024D01*
X21965Y-13055D01*
X21959Y-13094D01*
X21948Y-13138D01*
X21934Y-13185D01*
X21912Y-13235D01*
X21881Y-13288D01*
Y-13291D01*
X21879Y-13294D01*
X21865Y-13310D01*
X21845Y-13335D01*
X21817Y-13363D01*
X21781Y-13396D01*
X21737Y-13432D01*
X21687Y-13466D01*
X21629Y-13496D01*
X21626D01*
X21620Y-13499D01*
X21612Y-13502D01*
X21601Y-13507D01*
X21584Y-13513D01*
X21565Y-13521D01*
X21520Y-13532D01*
X21468Y-13546D01*
X21404Y-13560D01*
X21334Y-13568D01*
X21259Y-13571D01*
X21215D01*
X21193Y-13568D01*
X21168D01*
X21140Y-13566D01*
X21107Y-13563D01*
X21037Y-13552D01*
X20965Y-13541D01*
X20893Y-13521D01*
X20824Y-13496D01*
X20821D01*
X20815Y-13493D01*
X20807Y-13488D01*
X20796Y-13482D01*
X20763Y-13466D01*
X20724Y-13441D01*
X20679Y-13407D01*
X20632Y-13369D01*
X20588Y-13321D01*
X20546Y-13269D01*
Y-13266D01*
X20540Y-13260D01*
X20538Y-13252D01*
X20529Y-13241D01*
X20524Y-13227D01*
X20515Y-13210D01*
X20496Y-13169D01*
X20477Y-13116D01*
X20460Y-13058D01*
X20449Y-12991D01*
X20443Y-12922D01*
X20682Y-12899D01*
Y-12902D01*
Y-12905D01*
X20685Y-12913D01*
Y-12924D01*
X20690Y-12949D01*
X20699Y-12985D01*
X20710Y-13022D01*
X20721Y-13063D01*
X20740Y-13102D01*
X20760Y-13138D01*
X20763Y-13141D01*
X20771Y-13152D01*
X20785Y-13171D01*
X20807Y-13191D01*
X20835Y-13216D01*
X20865Y-13241D01*
X20907Y-13266D01*
X20951Y-13288D01*
X20954D01*
X20957Y-13291D01*
X20965Y-13294D01*
X20973Y-13296D01*
X21001Y-13305D01*
X21037Y-13316D01*
X21082Y-13327D01*
X21132Y-13335D01*
X21187Y-13341D01*
X21248Y-13344D01*
X21273D01*
X21301Y-13341D01*
X21334Y-13338D01*
X21373Y-13332D01*
X21418Y-13327D01*
X21462Y-13316D01*
X21504Y-13302D01*
X21509Y-13299D01*
X21523Y-13294D01*
X21543Y-13283D01*
X21568Y-13271D01*
X21593Y-13252D01*
X21620Y-13233D01*
X21648Y-13210D01*
X21670Y-13183D01*
X21673Y-13180D01*
X21679Y-13169D01*
X21687Y-13155D01*
X21698Y-13133D01*
X21709Y-13110D01*
X21718Y-13083D01*
X21723Y-13052D01*
X21726Y-13019D01*
Y-13016D01*
Y-13002D01*
X21723Y-12985D01*
X21720Y-12963D01*
X21712Y-12941D01*
X21704Y-12913D01*
X21690Y-12886D01*
X21670Y-12861D01*
X21668Y-12858D01*
X21659Y-12849D01*
X21648Y-12838D01*
X21629Y-12822D01*
X21606Y-12805D01*
X21576Y-12786D01*
X21540Y-12766D01*
X21498Y-12749D01*
X21495Y-12747D01*
X21482Y-12744D01*
X21459Y-12736D01*
X21445Y-12733D01*
X21426Y-12727D01*
X21407Y-12719D01*
X21382Y-12713D01*
X21354Y-12705D01*
X21321Y-12697D01*
X21287Y-12688D01*
X21248Y-12677D01*
X21204Y-12666D01*
X21157Y-12655D01*
X21154D01*
X21146Y-12652D01*
X21132Y-12650D01*
X21115Y-12644D01*
X21093Y-12638D01*
X21068Y-12633D01*
X21012Y-12616D01*
X20951Y-12597D01*
X20887Y-12577D01*
X20832Y-12558D01*
X20807Y-12547D01*
X20785Y-12536D01*
X20782D01*
X20779Y-12533D01*
X20763Y-12522D01*
X20738Y-12508D01*
X20710Y-12486D01*
X20676Y-12461D01*
X20643Y-12430D01*
X20610Y-12394D01*
X20582Y-12355D01*
X20579Y-12350D01*
X20571Y-12336D01*
X20560Y-12314D01*
X20549Y-12286D01*
X20538Y-12250D01*
X20527Y-12208D01*
X20518Y-12164D01*
X20515Y-12116D01*
Y-12114D01*
Y-12111D01*
Y-12103D01*
Y-12092D01*
X20521Y-12064D01*
X20527Y-12028D01*
X20535Y-11986D01*
X20549Y-11939D01*
X20568Y-11892D01*
X20596Y-11844D01*
Y-11842D01*
X20599Y-11839D01*
X20613Y-11822D01*
X20632Y-11800D01*
X20657Y-11772D01*
X20690Y-11742D01*
X20732Y-11708D01*
X20782Y-11678D01*
X20837Y-11650D01*
X20840D01*
X20846Y-11647D01*
X20854Y-11645D01*
X20865Y-11639D01*
X20879Y-11633D01*
X20899Y-11628D01*
X20940Y-11617D01*
X20993Y-11606D01*
X21054Y-11595D01*
X21118Y-11586D01*
X21190Y-11583D01*
X21226D01*
X21246Y-11586D01*
D02*
G37*
G36*
X58362D02*
X58385D01*
X58437Y-11592D01*
X58496Y-11600D01*
X58557Y-11614D01*
X58623Y-11631D01*
X58687Y-11653D01*
X58690D01*
X58696Y-11656D01*
X58704Y-11658D01*
X58715Y-11664D01*
X58745Y-11681D01*
X58784Y-11700D01*
X58826Y-11728D01*
X58870Y-11761D01*
X58912Y-11797D01*
X58951Y-11842D01*
X58956Y-11847D01*
X58968Y-11864D01*
X58984Y-11889D01*
X59006Y-11925D01*
X59029Y-11969D01*
X59054Y-12025D01*
X59079Y-12086D01*
X59098Y-12155D01*
X58868Y-12216D01*
Y-12214D01*
X58865Y-12211D01*
X58862Y-12203D01*
X58859Y-12191D01*
X58851Y-12166D01*
X58840Y-12133D01*
X58823Y-12094D01*
X58804Y-12058D01*
X58784Y-12019D01*
X58759Y-11986D01*
X58757Y-11983D01*
X58748Y-11972D01*
X58732Y-11958D01*
X58712Y-11939D01*
X58687Y-11917D01*
X58654Y-11894D01*
X58618Y-11872D01*
X58576Y-11853D01*
X58571Y-11850D01*
X58557Y-11844D01*
X58532Y-11836D01*
X58498Y-11825D01*
X58460Y-11817D01*
X58415Y-11808D01*
X58365Y-11803D01*
X58312Y-11800D01*
X58282D01*
X58268Y-11803D01*
X58251D01*
X58210Y-11806D01*
X58162Y-11814D01*
X58110Y-11822D01*
X58060Y-11836D01*
X58010Y-11856D01*
X58004Y-11858D01*
X57988Y-11864D01*
X57965Y-11878D01*
X57938Y-11892D01*
X57904Y-11914D01*
X57868Y-11936D01*
X57835Y-11964D01*
X57804Y-11994D01*
X57802Y-11997D01*
X57790Y-12008D01*
X57777Y-12028D01*
X57760Y-12050D01*
X57740Y-12078D01*
X57721Y-12111D01*
X57702Y-12147D01*
X57682Y-12186D01*
Y-12189D01*
X57679Y-12194D01*
X57677Y-12203D01*
X57671Y-12216D01*
X57666Y-12233D01*
X57660Y-12253D01*
X57652Y-12275D01*
X57646Y-12300D01*
X57632Y-12358D01*
X57621Y-12425D01*
X57613Y-12494D01*
X57610Y-12572D01*
Y-12575D01*
Y-12583D01*
Y-12597D01*
X57613Y-12613D01*
Y-12636D01*
X57616Y-12663D01*
X57618Y-12691D01*
X57621Y-12722D01*
X57632Y-12791D01*
X57646Y-12863D01*
X57668Y-12935D01*
X57696Y-13005D01*
Y-13008D01*
X57702Y-13013D01*
X57704Y-13022D01*
X57713Y-13033D01*
X57732Y-13063D01*
X57763Y-13102D01*
X57799Y-13144D01*
X57843Y-13185D01*
X57896Y-13224D01*
X57954Y-13260D01*
X57957D01*
X57963Y-13263D01*
X57971Y-13269D01*
X57985Y-13274D01*
X57999Y-13280D01*
X58018Y-13285D01*
X58063Y-13302D01*
X58118Y-13316D01*
X58179Y-13330D01*
X58246Y-13341D01*
X58315Y-13344D01*
X58343D01*
X58360Y-13341D01*
X58376D01*
X58418Y-13335D01*
X58468Y-13330D01*
X58521Y-13319D01*
X58579Y-13302D01*
X58637Y-13283D01*
X58640D01*
X58646Y-13280D01*
X58651Y-13277D01*
X58662Y-13271D01*
X58693Y-13258D01*
X58726Y-13241D01*
X58765Y-13221D01*
X58807Y-13199D01*
X58845Y-13174D01*
X58879Y-13146D01*
Y-12786D01*
X58312D01*
Y-12558D01*
X59129D01*
Y-13271D01*
X59126Y-13274D01*
X59120Y-13277D01*
X59109Y-13285D01*
X59095Y-13296D01*
X59079Y-13307D01*
X59059Y-13321D01*
X59034Y-13338D01*
X59009Y-13355D01*
X58951Y-13391D01*
X58884Y-13430D01*
X58815Y-13466D01*
X58740Y-13496D01*
X58737D01*
X58732Y-13499D01*
X58721Y-13502D01*
X58707Y-13507D01*
X58687Y-13513D01*
X58665Y-13521D01*
X58640Y-13527D01*
X58615Y-13532D01*
X58554Y-13546D01*
X58485Y-13560D01*
X58410Y-13568D01*
X58332Y-13571D01*
X58304D01*
X58285Y-13568D01*
X58260D01*
X58229Y-13566D01*
X58196Y-13560D01*
X58160Y-13557D01*
X58079Y-13541D01*
X57993Y-13521D01*
X57904Y-13491D01*
X57860Y-13474D01*
X57815Y-13452D01*
X57813Y-13449D01*
X57804Y-13446D01*
X57793Y-13438D01*
X57777Y-13430D01*
X57757Y-13416D01*
X57738Y-13402D01*
X57685Y-13363D01*
X57629Y-13313D01*
X57571Y-13252D01*
X57516Y-13183D01*
X57466Y-13102D01*
Y-13099D01*
X57460Y-13091D01*
X57455Y-13080D01*
X57446Y-13060D01*
X57438Y-13041D01*
X57430Y-13013D01*
X57418Y-12985D01*
X57407Y-12952D01*
X57396Y-12916D01*
X57385Y-12874D01*
X57377Y-12833D01*
X57368Y-12788D01*
X57355Y-12691D01*
X57349Y-12588D01*
Y-12586D01*
Y-12575D01*
Y-12561D01*
X57352Y-12541D01*
Y-12516D01*
X57355Y-12486D01*
X57360Y-12455D01*
X57363Y-12419D01*
X57371Y-12380D01*
X57377Y-12339D01*
X57399Y-12250D01*
X57427Y-12158D01*
X57466Y-12067D01*
X57468Y-12064D01*
X57471Y-12055D01*
X57477Y-12044D01*
X57488Y-12028D01*
X57499Y-12005D01*
X57513Y-11983D01*
X57552Y-11930D01*
X57599Y-11869D01*
X57657Y-11811D01*
X57724Y-11753D01*
X57763Y-11728D01*
X57802Y-11703D01*
X57804Y-11700D01*
X57813Y-11697D01*
X57824Y-11692D01*
X57840Y-11683D01*
X57863Y-11675D01*
X57888Y-11664D01*
X57915Y-11653D01*
X57949Y-11642D01*
X57985Y-11631D01*
X58024Y-11622D01*
X58065Y-11611D01*
X58110Y-11603D01*
X58207Y-11589D01*
X58257Y-11583D01*
X58346D01*
X58362Y-11586D01*
D02*
G37*
G36*
X25499Y-13538D02*
X25279D01*
Y-13363D01*
X25277Y-13366D01*
X25274Y-13371D01*
X25266Y-13382D01*
X25254Y-13396D01*
X25241Y-13410D01*
X25224Y-13427D01*
X25204Y-13446D01*
X25179Y-13466D01*
X25154Y-13485D01*
X25127Y-13505D01*
X25093Y-13521D01*
X25057Y-13535D01*
X25021Y-13549D01*
X24980Y-13560D01*
X24935Y-13566D01*
X24888Y-13568D01*
X24871D01*
X24860Y-13566D01*
X24827Y-13563D01*
X24788Y-13557D01*
X24741Y-13546D01*
X24688Y-13530D01*
X24635Y-13507D01*
X24583Y-13477D01*
X24580D01*
X24577Y-13471D01*
X24560Y-13460D01*
X24535Y-13438D01*
X24505Y-13410D01*
X24469Y-13374D01*
X24433Y-13330D01*
X24397Y-13280D01*
X24366Y-13221D01*
Y-13219D01*
X24363Y-13213D01*
X24360Y-13205D01*
X24355Y-13194D01*
X24349Y-13177D01*
X24341Y-13158D01*
X24336Y-13138D01*
X24330Y-13113D01*
X24316Y-13058D01*
X24302Y-12994D01*
X24294Y-12922D01*
X24291Y-12844D01*
Y-12841D01*
Y-12836D01*
Y-12824D01*
Y-12808D01*
X24294Y-12791D01*
Y-12769D01*
X24299Y-12719D01*
X24308Y-12661D01*
X24322Y-12597D01*
X24338Y-12530D01*
X24360Y-12466D01*
Y-12464D01*
X24363Y-12458D01*
X24369Y-12450D01*
X24374Y-12439D01*
X24391Y-12408D01*
X24413Y-12369D01*
X24441Y-12327D01*
X24477Y-12286D01*
X24519Y-12241D01*
X24569Y-12205D01*
X24571D01*
X24574Y-12203D01*
X24583Y-12197D01*
X24594Y-12191D01*
X24621Y-12178D01*
X24660Y-12158D01*
X24705Y-12141D01*
X24757Y-12128D01*
X24816Y-12116D01*
X24877Y-12114D01*
X24899D01*
X24921Y-12116D01*
X24952Y-12119D01*
X24988Y-12128D01*
X25027Y-12136D01*
X25066Y-12150D01*
X25102Y-12169D01*
X25107Y-12172D01*
X25118Y-12178D01*
X25135Y-12191D01*
X25157Y-12205D01*
X25185Y-12225D01*
X25210Y-12250D01*
X25238Y-12275D01*
X25263Y-12305D01*
Y-11617D01*
X25499D01*
Y-13538D01*
D02*
G37*
G36*
X18919Y-12116D02*
X18939Y-12119D01*
X18980Y-12125D01*
X19030Y-12136D01*
X19083Y-12153D01*
X19136Y-12178D01*
X19188Y-12208D01*
X19191D01*
X19194Y-12214D01*
X19211Y-12225D01*
X19236Y-12247D01*
X19266Y-12275D01*
X19299Y-12311D01*
X19333Y-12355D01*
X19366Y-12408D01*
X19394Y-12466D01*
Y-12469D01*
X19397Y-12475D01*
X19399Y-12483D01*
X19405Y-12494D01*
X19410Y-12511D01*
X19416Y-12530D01*
X19430Y-12575D01*
X19444Y-12630D01*
X19455Y-12691D01*
X19463Y-12761D01*
X19466Y-12833D01*
Y-12836D01*
Y-12841D01*
Y-12852D01*
Y-12869D01*
X19463Y-12888D01*
Y-12910D01*
X19458Y-12960D01*
X19447Y-13022D01*
X19433Y-13085D01*
X19413Y-13152D01*
X19388Y-13219D01*
Y-13221D01*
X19386Y-13227D01*
X19380Y-13235D01*
X19374Y-13246D01*
X19355Y-13277D01*
X19330Y-13316D01*
X19299Y-13357D01*
X19261Y-13399D01*
X19216Y-13441D01*
X19163Y-13480D01*
X19161D01*
X19158Y-13482D01*
X19150Y-13488D01*
X19138Y-13493D01*
X19111Y-13507D01*
X19072Y-13524D01*
X19025Y-13541D01*
X18975Y-13555D01*
X18916Y-13566D01*
X18858Y-13568D01*
X18839D01*
X18816Y-13566D01*
X18789Y-13563D01*
X18755Y-13557D01*
X18719Y-13549D01*
X18683Y-13538D01*
X18647Y-13521D01*
X18644Y-13518D01*
X18630Y-13513D01*
X18614Y-13502D01*
X18592Y-13485D01*
X18569Y-13469D01*
X18542Y-13446D01*
X18517Y-13421D01*
X18494Y-13394D01*
Y-14071D01*
X18258D01*
Y-12144D01*
X18472D01*
Y-12327D01*
X18475Y-12322D01*
X18486Y-12311D01*
X18500Y-12291D01*
X18522Y-12269D01*
X18547Y-12241D01*
X18575Y-12216D01*
X18608Y-12191D01*
X18641Y-12169D01*
X18647Y-12166D01*
X18658Y-12161D01*
X18680Y-12153D01*
X18708Y-12141D01*
X18741Y-12130D01*
X18780Y-12122D01*
X18825Y-12116D01*
X18875Y-12114D01*
X18905D01*
X18919Y-12116D01*
D02*
G37*
G36*
X27922D02*
X27953Y-12122D01*
X27989Y-12133D01*
X28028Y-12147D01*
X28072Y-12166D01*
X28119Y-12191D01*
X28033Y-12408D01*
X28031Y-12405D01*
X28020Y-12400D01*
X28003Y-12391D01*
X27981Y-12383D01*
X27956Y-12375D01*
X27925Y-12366D01*
X27895Y-12361D01*
X27864Y-12358D01*
X27850D01*
X27836Y-12361D01*
X27817Y-12364D01*
X27797Y-12369D01*
X27772Y-12377D01*
X27747Y-12389D01*
X27725Y-12405D01*
X27722Y-12408D01*
X27714Y-12414D01*
X27706Y-12425D01*
X27692Y-12439D01*
X27678Y-12458D01*
X27664Y-12480D01*
X27650Y-12505D01*
X27639Y-12536D01*
X27636Y-12541D01*
X27634Y-12558D01*
X27628Y-12583D01*
X27620Y-12616D01*
X27611Y-12658D01*
X27606Y-12705D01*
X27603Y-12755D01*
X27600Y-12811D01*
Y-13538D01*
X27364D01*
Y-12144D01*
X27578D01*
Y-12355D01*
X27581Y-12352D01*
X27592Y-12333D01*
X27606Y-12308D01*
X27628Y-12278D01*
X27650Y-12247D01*
X27675Y-12214D01*
X27700Y-12186D01*
X27725Y-12164D01*
X27728Y-12161D01*
X27736Y-12155D01*
X27753Y-12147D01*
X27770Y-12139D01*
X27792Y-12130D01*
X27820Y-12122D01*
X27847Y-12116D01*
X27878Y-12114D01*
X27897D01*
X27922Y-12116D01*
D02*
G37*
G36*
X60880Y-11844D02*
X60247D01*
Y-13538D01*
X59992D01*
Y-11844D01*
X59359D01*
Y-11617D01*
X60880D01*
Y-11844D01*
D02*
G37*
G36*
X56974Y-13538D02*
X56705D01*
Y-13269D01*
X56974D01*
Y-13538D01*
D02*
G37*
G36*
X24013D02*
X23777D01*
Y-11617D01*
X24013D01*
Y-13538D01*
D02*
G37*
G36*
X16532Y-11844D02*
X15899D01*
Y-13538D01*
X15643D01*
Y-11844D01*
X15010D01*
Y-11617D01*
X16532D01*
Y-11844D01*
D02*
G37*
G36*
X26490Y-12116D02*
X26512Y-12119D01*
X26540Y-12125D01*
X26570Y-12130D01*
X26606Y-12139D01*
X26640Y-12147D01*
X26679Y-12161D01*
X26715Y-12175D01*
X26754Y-12194D01*
X26792Y-12216D01*
X26831Y-12241D01*
X26867Y-12272D01*
X26901Y-12305D01*
X26904Y-12308D01*
X26909Y-12314D01*
X26917Y-12325D01*
X26928Y-12341D01*
X26942Y-12361D01*
X26956Y-12383D01*
X26973Y-12411D01*
X26990Y-12444D01*
X27006Y-12480D01*
X27023Y-12519D01*
X27037Y-12563D01*
X27051Y-12611D01*
X27062Y-12663D01*
X27070Y-12719D01*
X27076Y-12777D01*
X27078Y-12841D01*
Y-12844D01*
Y-12855D01*
Y-12874D01*
X27076Y-12902D01*
X26035D01*
Y-12905D01*
Y-12913D01*
X26037Y-12924D01*
Y-12941D01*
X26040Y-12960D01*
X26046Y-12983D01*
X26054Y-13033D01*
X26071Y-13088D01*
X26093Y-13149D01*
X26123Y-13205D01*
X26162Y-13255D01*
X26165D01*
X26168Y-13260D01*
X26184Y-13274D01*
X26209Y-13294D01*
X26243Y-13313D01*
X26287Y-13335D01*
X26337Y-13355D01*
X26393Y-13369D01*
X26423Y-13371D01*
X26457Y-13374D01*
X26479D01*
X26504Y-13371D01*
X26534Y-13366D01*
X26568Y-13357D01*
X26606Y-13346D01*
X26643Y-13330D01*
X26679Y-13307D01*
X26681Y-13305D01*
X26695Y-13294D01*
X26712Y-13277D01*
X26731Y-13255D01*
X26754Y-13224D01*
X26779Y-13185D01*
X26804Y-13141D01*
X26826Y-13088D01*
X27070Y-13119D01*
Y-13121D01*
X27067Y-13127D01*
X27065Y-13138D01*
X27059Y-13155D01*
X27051Y-13171D01*
X27042Y-13194D01*
X27020Y-13241D01*
X26992Y-13294D01*
X26953Y-13349D01*
X26909Y-13402D01*
X26854Y-13452D01*
X26851D01*
X26845Y-13457D01*
X26837Y-13463D01*
X26826Y-13471D01*
X26809Y-13480D01*
X26792Y-13488D01*
X26770Y-13499D01*
X26745Y-13510D01*
X26718Y-13521D01*
X26690Y-13532D01*
X26620Y-13549D01*
X26543Y-13563D01*
X26457Y-13568D01*
X26426D01*
X26407Y-13566D01*
X26382Y-13563D01*
X26351Y-13557D01*
X26318Y-13552D01*
X26282Y-13546D01*
X26204Y-13524D01*
X26162Y-13507D01*
X26123Y-13491D01*
X26082Y-13469D01*
X26043Y-13444D01*
X26007Y-13416D01*
X25971Y-13382D01*
X25968Y-13380D01*
X25962Y-13374D01*
X25954Y-13363D01*
X25943Y-13346D01*
X25929Y-13327D01*
X25915Y-13305D01*
X25899Y-13277D01*
X25882Y-13246D01*
X25865Y-13210D01*
X25849Y-13171D01*
X25835Y-13127D01*
X25821Y-13080D01*
X25810Y-13030D01*
X25801Y-12974D01*
X25796Y-12916D01*
X25793Y-12855D01*
Y-12852D01*
Y-12838D01*
Y-12822D01*
X25796Y-12797D01*
X25799Y-12766D01*
X25801Y-12733D01*
X25807Y-12694D01*
X25815Y-12655D01*
X25837Y-12566D01*
X25851Y-12522D01*
X25868Y-12475D01*
X25890Y-12430D01*
X25915Y-12389D01*
X25943Y-12347D01*
X25973Y-12308D01*
X25976Y-12305D01*
X25982Y-12300D01*
X25993Y-12291D01*
X26007Y-12278D01*
X26023Y-12264D01*
X26046Y-12247D01*
X26071Y-12228D01*
X26101Y-12211D01*
X26132Y-12191D01*
X26168Y-12175D01*
X26207Y-12158D01*
X26248Y-12144D01*
X26293Y-12130D01*
X26340Y-12122D01*
X26390Y-12116D01*
X26443Y-12114D01*
X26470D01*
X26490Y-12116D01*
D02*
G37*
G36*
X22900D02*
X22925Y-12119D01*
X22953Y-12125D01*
X22983Y-12130D01*
X23020Y-12136D01*
X23095Y-12161D01*
X23133Y-12175D01*
X23172Y-12194D01*
X23211Y-12214D01*
X23250Y-12241D01*
X23286Y-12269D01*
X23322Y-12302D01*
X23325Y-12305D01*
X23331Y-12311D01*
X23339Y-12322D01*
X23350Y-12336D01*
X23364Y-12355D01*
X23380Y-12380D01*
X23397Y-12408D01*
X23414Y-12439D01*
X23430Y-12472D01*
X23447Y-12513D01*
X23464Y-12555D01*
X23478Y-12602D01*
X23489Y-12652D01*
X23497Y-12705D01*
X23503Y-12761D01*
X23505Y-12822D01*
Y-12824D01*
Y-12833D01*
Y-12847D01*
Y-12866D01*
X23503Y-12888D01*
X23500Y-12916D01*
Y-12944D01*
X23494Y-12974D01*
X23486Y-13044D01*
X23469Y-13113D01*
X23450Y-13183D01*
X23422Y-13246D01*
Y-13249D01*
X23419Y-13252D01*
X23414Y-13260D01*
X23408Y-13271D01*
X23389Y-13299D01*
X23364Y-13332D01*
X23331Y-13371D01*
X23289Y-13410D01*
X23242Y-13449D01*
X23186Y-13485D01*
X23183D01*
X23181Y-13488D01*
X23172Y-13493D01*
X23158Y-13499D01*
X23145Y-13505D01*
X23128Y-13510D01*
X23086Y-13527D01*
X23039Y-13541D01*
X22981Y-13555D01*
X22920Y-13566D01*
X22853Y-13568D01*
X22825D01*
X22803Y-13566D01*
X22778Y-13563D01*
X22750Y-13557D01*
X22717Y-13552D01*
X22684Y-13546D01*
X22609Y-13524D01*
X22567Y-13507D01*
X22528Y-13491D01*
X22489Y-13469D01*
X22450Y-13444D01*
X22414Y-13416D01*
X22378Y-13382D01*
X22375Y-13380D01*
X22370Y-13374D01*
X22362Y-13363D01*
X22351Y-13346D01*
X22337Y-13327D01*
X22323Y-13305D01*
X22306Y-13277D01*
X22289Y-13244D01*
X22273Y-13208D01*
X22256Y-13166D01*
X22242Y-13121D01*
X22228Y-13074D01*
X22217Y-13022D01*
X22209Y-12966D01*
X22203Y-12905D01*
X22201Y-12841D01*
Y-12836D01*
Y-12824D01*
X22203Y-12805D01*
Y-12777D01*
X22206Y-12747D01*
X22212Y-12708D01*
X22217Y-12669D01*
X22228Y-12625D01*
X22239Y-12580D01*
X22253Y-12533D01*
X22270Y-12483D01*
X22292Y-12436D01*
X22314Y-12391D01*
X22345Y-12347D01*
X22375Y-12305D01*
X22414Y-12269D01*
X22417Y-12266D01*
X22423Y-12264D01*
X22434Y-12255D01*
X22448Y-12244D01*
X22464Y-12233D01*
X22487Y-12219D01*
X22509Y-12205D01*
X22537Y-12191D01*
X22567Y-12178D01*
X22600Y-12164D01*
X22675Y-12139D01*
X22761Y-12119D01*
X22806Y-12116D01*
X22853Y-12114D01*
X22881D01*
X22900Y-12116D01*
D02*
G37*
G36*
X17376D02*
X17401Y-12119D01*
X17428Y-12125D01*
X17459Y-12130D01*
X17495Y-12136D01*
X17570Y-12161D01*
X17609Y-12175D01*
X17648Y-12194D01*
X17686Y-12214D01*
X17725Y-12241D01*
X17761Y-12269D01*
X17798Y-12302D01*
X17800Y-12305D01*
X17806Y-12311D01*
X17814Y-12322D01*
X17825Y-12336D01*
X17839Y-12355D01*
X17856Y-12380D01*
X17872Y-12408D01*
X17889Y-12439D01*
X17906Y-12472D01*
X17922Y-12513D01*
X17939Y-12555D01*
X17953Y-12602D01*
X17964Y-12652D01*
X17972Y-12705D01*
X17978Y-12761D01*
X17981Y-12822D01*
Y-12824D01*
Y-12833D01*
Y-12847D01*
Y-12866D01*
X17978Y-12888D01*
X17975Y-12916D01*
Y-12944D01*
X17970Y-12974D01*
X17961Y-13044D01*
X17945Y-13113D01*
X17925Y-13183D01*
X17897Y-13246D01*
Y-13249D01*
X17895Y-13252D01*
X17889Y-13260D01*
X17884Y-13271D01*
X17864Y-13299D01*
X17839Y-13332D01*
X17806Y-13371D01*
X17764Y-13410D01*
X17717Y-13449D01*
X17661Y-13485D01*
X17659D01*
X17656Y-13488D01*
X17648Y-13493D01*
X17634Y-13499D01*
X17620Y-13505D01*
X17603Y-13510D01*
X17562Y-13527D01*
X17514Y-13541D01*
X17456Y-13555D01*
X17395Y-13566D01*
X17328Y-13568D01*
X17301D01*
X17278Y-13566D01*
X17253Y-13563D01*
X17226Y-13557D01*
X17192Y-13552D01*
X17159Y-13546D01*
X17084Y-13524D01*
X17042Y-13507D01*
X17004Y-13491D01*
X16965Y-13469D01*
X16926Y-13444D01*
X16890Y-13416D01*
X16854Y-13382D01*
X16851Y-13380D01*
X16845Y-13374D01*
X16837Y-13363D01*
X16826Y-13346D01*
X16812Y-13327D01*
X16798Y-13305D01*
X16781Y-13277D01*
X16765Y-13244D01*
X16748Y-13208D01*
X16731Y-13166D01*
X16718Y-13121D01*
X16704Y-13074D01*
X16693Y-13022D01*
X16684Y-12966D01*
X16679Y-12905D01*
X16676Y-12841D01*
Y-12836D01*
Y-12824D01*
X16679Y-12805D01*
Y-12777D01*
X16681Y-12747D01*
X16687Y-12708D01*
X16693Y-12669D01*
X16704Y-12625D01*
X16715Y-12580D01*
X16729Y-12533D01*
X16745Y-12483D01*
X16768Y-12436D01*
X16790Y-12391D01*
X16820Y-12347D01*
X16851Y-12305D01*
X16890Y-12269D01*
X16892Y-12266D01*
X16898Y-12264D01*
X16909Y-12255D01*
X16923Y-12244D01*
X16940Y-12233D01*
X16962Y-12219D01*
X16984Y-12205D01*
X17012Y-12191D01*
X17042Y-12178D01*
X17076Y-12164D01*
X17151Y-12139D01*
X17237Y-12119D01*
X17281Y-12116D01*
X17328Y-12114D01*
X17356D01*
X17376Y-12116D01*
D02*
G37*
%LPC*%
G36*
X24902Y-12308D02*
X24888D01*
X24877Y-12311D01*
X24846Y-12314D01*
X24810Y-12325D01*
X24769Y-12339D01*
X24724Y-12364D01*
X24680Y-12394D01*
X24658Y-12416D01*
X24638Y-12439D01*
Y-12441D01*
X24633Y-12444D01*
X24630Y-12452D01*
X24621Y-12464D01*
X24613Y-12477D01*
X24605Y-12494D01*
X24596Y-12513D01*
X24585Y-12536D01*
X24574Y-12563D01*
X24566Y-12594D01*
X24558Y-12627D01*
X24549Y-12663D01*
X24544Y-12702D01*
X24538Y-12747D01*
X24533Y-12794D01*
Y-12844D01*
Y-12847D01*
Y-12855D01*
Y-12869D01*
X24535Y-12888D01*
Y-12910D01*
X24538Y-12935D01*
X24546Y-12994D01*
X24560Y-13058D01*
X24580Y-13124D01*
X24608Y-13188D01*
X24624Y-13216D01*
X24644Y-13244D01*
X24646D01*
X24649Y-13249D01*
X24663Y-13263D01*
X24688Y-13285D01*
X24719Y-13307D01*
X24757Y-13332D01*
X24805Y-13355D01*
X24855Y-13369D01*
X24882Y-13371D01*
X24910Y-13374D01*
X24924D01*
X24935Y-13371D01*
X24966Y-13369D01*
X25002Y-13357D01*
X25043Y-13344D01*
X25088Y-13321D01*
X25132Y-13291D01*
X25154Y-13271D01*
X25174Y-13249D01*
Y-13246D01*
X25179Y-13244D01*
X25185Y-13235D01*
X25191Y-13224D01*
X25199Y-13210D01*
X25210Y-13196D01*
X25218Y-13174D01*
X25229Y-13152D01*
X25241Y-13127D01*
X25249Y-13099D01*
X25260Y-13066D01*
X25268Y-13033D01*
X25274Y-12994D01*
X25279Y-12955D01*
X25285Y-12910D01*
Y-12863D01*
Y-12861D01*
Y-12849D01*
Y-12836D01*
X25282Y-12816D01*
Y-12794D01*
X25279Y-12766D01*
X25277Y-12736D01*
X25271Y-12702D01*
X25257Y-12636D01*
X25238Y-12566D01*
X25210Y-12500D01*
X25193Y-12472D01*
X25174Y-12444D01*
Y-12441D01*
X25168Y-12439D01*
X25154Y-12422D01*
X25130Y-12400D01*
X25099Y-12375D01*
X25060Y-12350D01*
X25013Y-12330D01*
X24960Y-12314D01*
X24932Y-12311D01*
X24902Y-12308D01*
D02*
G37*
G36*
X18852Y-12300D02*
X18839D01*
X18827Y-12302D01*
X18800Y-12308D01*
X18764Y-12316D01*
X18722Y-12333D01*
X18678Y-12358D01*
X18653Y-12375D01*
X18630Y-12394D01*
X18608Y-12416D01*
X18586Y-12441D01*
Y-12444D01*
X18580Y-12447D01*
X18575Y-12455D01*
X18569Y-12466D01*
X18561Y-12483D01*
X18550Y-12500D01*
X18539Y-12522D01*
X18530Y-12544D01*
X18519Y-12572D01*
X18508Y-12602D01*
X18500Y-12636D01*
X18489Y-12672D01*
X18483Y-12713D01*
X18478Y-12755D01*
X18472Y-12799D01*
Y-12849D01*
Y-12852D01*
Y-12861D01*
Y-12874D01*
X18475Y-12894D01*
Y-12916D01*
X18478Y-12941D01*
X18486Y-12999D01*
X18500Y-13066D01*
X18517Y-13130D01*
X18544Y-13194D01*
X18561Y-13221D01*
X18580Y-13246D01*
X18586Y-13252D01*
X18600Y-13266D01*
X18622Y-13288D01*
X18653Y-13310D01*
X18691Y-13332D01*
X18736Y-13355D01*
X18786Y-13369D01*
X18814Y-13371D01*
X18841Y-13374D01*
X18858D01*
X18869Y-13371D01*
X18897Y-13366D01*
X18936Y-13357D01*
X18977Y-13341D01*
X19022Y-13319D01*
X19066Y-13285D01*
X19088Y-13266D01*
X19111Y-13244D01*
Y-13241D01*
X19116Y-13238D01*
X19122Y-13230D01*
X19127Y-13219D01*
X19138Y-13205D01*
X19147Y-13185D01*
X19158Y-13166D01*
X19169Y-13141D01*
X19177Y-13116D01*
X19188Y-13083D01*
X19199Y-13049D01*
X19208Y-13013D01*
X19213Y-12972D01*
X19219Y-12927D01*
X19224Y-12880D01*
Y-12830D01*
Y-12827D01*
Y-12819D01*
Y-12805D01*
X19222Y-12786D01*
Y-12763D01*
X19219Y-12738D01*
X19211Y-12680D01*
X19197Y-12616D01*
X19177Y-12552D01*
X19150Y-12489D01*
X19133Y-12458D01*
X19113Y-12433D01*
Y-12430D01*
X19108Y-12427D01*
X19094Y-12411D01*
X19072Y-12391D01*
X19041Y-12366D01*
X19002Y-12341D01*
X18958Y-12319D01*
X18908Y-12305D01*
X18880Y-12302D01*
X18852Y-12300D01*
D02*
G37*
G36*
X26445Y-12308D02*
X26429D01*
X26418Y-12311D01*
X26387Y-12314D01*
X26351Y-12322D01*
X26307Y-12336D01*
X26259Y-12355D01*
X26215Y-12383D01*
X26171Y-12419D01*
X26165Y-12425D01*
X26154Y-12439D01*
X26135Y-12464D01*
X26115Y-12497D01*
X26093Y-12536D01*
X26073Y-12586D01*
X26057Y-12644D01*
X26048Y-12708D01*
X26829D01*
Y-12705D01*
Y-12700D01*
X26826Y-12691D01*
Y-12680D01*
X26820Y-12647D01*
X26812Y-12611D01*
X26798Y-12566D01*
X26784Y-12525D01*
X26762Y-12483D01*
X26737Y-12447D01*
Y-12444D01*
X26731Y-12441D01*
X26718Y-12425D01*
X26693Y-12402D01*
X26659Y-12377D01*
X26618Y-12352D01*
X26568Y-12330D01*
X26509Y-12314D01*
X26479Y-12311D01*
X26445Y-12308D01*
D02*
G37*
G36*
X22853D02*
X22836D01*
X22822Y-12311D01*
X22792Y-12314D01*
X22750Y-12325D01*
X22703Y-12341D01*
X22653Y-12364D01*
X22606Y-12397D01*
X22581Y-12419D01*
X22559Y-12441D01*
Y-12444D01*
X22553Y-12447D01*
X22548Y-12455D01*
X22539Y-12466D01*
X22531Y-12480D01*
X22523Y-12497D01*
X22512Y-12519D01*
X22500Y-12541D01*
X22489Y-12569D01*
X22478Y-12597D01*
X22470Y-12630D01*
X22462Y-12666D01*
X22453Y-12705D01*
X22448Y-12747D01*
X22445Y-12794D01*
X22442Y-12841D01*
Y-12844D01*
Y-12852D01*
Y-12866D01*
X22445Y-12886D01*
Y-12908D01*
X22448Y-12933D01*
X22456Y-12991D01*
X22470Y-13058D01*
X22492Y-13124D01*
X22520Y-13188D01*
X22539Y-13216D01*
X22559Y-13244D01*
X22562D01*
X22564Y-13249D01*
X22581Y-13263D01*
X22606Y-13285D01*
X22639Y-13307D01*
X22681Y-13332D01*
X22731Y-13355D01*
X22789Y-13369D01*
X22820Y-13371D01*
X22853Y-13374D01*
X22870D01*
X22884Y-13371D01*
X22914Y-13366D01*
X22956Y-13357D01*
X23000Y-13341D01*
X23050Y-13319D01*
X23097Y-13285D01*
X23122Y-13263D01*
X23145Y-13241D01*
X23147Y-13238D01*
X23150Y-13235D01*
X23156Y-13227D01*
X23164Y-13216D01*
X23172Y-13202D01*
X23183Y-13185D01*
X23194Y-13163D01*
X23206Y-13141D01*
X23217Y-13113D01*
X23225Y-13083D01*
X23236Y-13049D01*
X23244Y-13013D01*
X23253Y-12972D01*
X23258Y-12930D01*
X23264Y-12883D01*
Y-12833D01*
Y-12830D01*
Y-12822D01*
Y-12808D01*
X23261Y-12791D01*
Y-12769D01*
X23258Y-12744D01*
X23250Y-12686D01*
X23236Y-12625D01*
X23214Y-12558D01*
X23183Y-12497D01*
X23167Y-12466D01*
X23145Y-12441D01*
Y-12439D01*
X23139Y-12436D01*
X23122Y-12419D01*
X23097Y-12400D01*
X23064Y-12375D01*
X23022Y-12350D01*
X22972Y-12327D01*
X22917Y-12314D01*
X22886Y-12311D01*
X22853Y-12308D01*
D02*
G37*
G36*
X17328D02*
X17312D01*
X17298Y-12311D01*
X17267Y-12314D01*
X17226Y-12325D01*
X17178Y-12341D01*
X17128Y-12364D01*
X17081Y-12397D01*
X17056Y-12419D01*
X17034Y-12441D01*
Y-12444D01*
X17028Y-12447D01*
X17023Y-12455D01*
X17015Y-12466D01*
X17006Y-12480D01*
X16998Y-12497D01*
X16987Y-12519D01*
X16976Y-12541D01*
X16965Y-12569D01*
X16954Y-12597D01*
X16945Y-12630D01*
X16937Y-12666D01*
X16929Y-12705D01*
X16923Y-12747D01*
X16920Y-12794D01*
X16917Y-12841D01*
Y-12844D01*
Y-12852D01*
Y-12866D01*
X16920Y-12886D01*
Y-12908D01*
X16923Y-12933D01*
X16931Y-12991D01*
X16945Y-13058D01*
X16967Y-13124D01*
X16995Y-13188D01*
X17015Y-13216D01*
X17034Y-13244D01*
X17037D01*
X17040Y-13249D01*
X17056Y-13263D01*
X17081Y-13285D01*
X17115Y-13307D01*
X17156Y-13332D01*
X17206Y-13355D01*
X17264Y-13369D01*
X17295Y-13371D01*
X17328Y-13374D01*
X17345D01*
X17359Y-13371D01*
X17389Y-13366D01*
X17431Y-13357D01*
X17475Y-13341D01*
X17525Y-13319D01*
X17573Y-13285D01*
X17598Y-13263D01*
X17620Y-13241D01*
X17623Y-13238D01*
X17625Y-13235D01*
X17631Y-13227D01*
X17639Y-13216D01*
X17648Y-13202D01*
X17659Y-13185D01*
X17670Y-13163D01*
X17681Y-13141D01*
X17692Y-13113D01*
X17700Y-13083D01*
X17711Y-13049D01*
X17720Y-13013D01*
X17728Y-12972D01*
X17734Y-12930D01*
X17739Y-12883D01*
Y-12833D01*
Y-12830D01*
Y-12822D01*
Y-12808D01*
X17736Y-12791D01*
Y-12769D01*
X17734Y-12744D01*
X17725Y-12686D01*
X17711Y-12625D01*
X17689Y-12558D01*
X17659Y-12497D01*
X17642Y-12466D01*
X17620Y-12441D01*
Y-12439D01*
X17614Y-12436D01*
X17598Y-12419D01*
X17573Y-12400D01*
X17539Y-12375D01*
X17498Y-12350D01*
X17448Y-12327D01*
X17392Y-12314D01*
X17362Y-12311D01*
X17328Y-12308D01*
D02*
G37*
%LPD*%
D14*
X100050Y33000D02*
G03*
X98050Y35000I-2000J0D01*
G01*
Y0D02*
G03*
X100050Y2000I0J2000D01*
G01*
X2000Y35000D02*
G03*
X0Y33000I0J-2000D01*
G01*
Y2000D02*
G03*
X2000Y0I2000J0D01*
G01*
X98050D01*
X2000Y35000D02*
X98050D01*
X100050Y2000D02*
Y33000D01*
X0Y2000D02*
Y33000D01*
D15*
X35000Y2125D02*
D03*
D16*
X24724Y11279D02*
D03*
D17*
X23224Y10329D02*
D03*
Y11279D02*
D03*
Y12229D02*
D03*
X26224D02*
D03*
Y11279D02*
D03*
Y10329D02*
D03*
D18*
X30500Y11500D02*
D03*
X41601Y11473D02*
D03*
D19*
X31475Y10150D02*
D03*
X30825D02*
D03*
X30175D02*
D03*
X29525D02*
D03*
Y12850D02*
D03*
X30175D02*
D03*
X30825D02*
D03*
X31475D02*
D03*
X42576Y10123D02*
D03*
X41926D02*
D03*
X41276D02*
D03*
X40626D02*
D03*
Y12823D02*
D03*
X41276D02*
D03*
X41926D02*
D03*
X42576D02*
D03*
D20*
X50362Y29400D02*
D03*
Y28900D02*
D03*
Y28400D02*
D03*
Y27900D02*
D03*
Y27400D02*
D03*
Y26900D02*
D03*
Y26400D02*
D03*
Y25900D02*
D03*
Y25400D02*
D03*
Y24900D02*
D03*
Y24400D02*
D03*
Y23900D02*
D03*
Y23400D02*
D03*
Y22900D02*
D03*
Y22400D02*
D03*
Y21900D02*
D03*
Y21400D02*
D03*
Y20900D02*
D03*
Y20400D02*
D03*
Y19900D02*
D03*
Y19400D02*
D03*
Y18900D02*
D03*
Y18400D02*
D03*
Y17900D02*
D03*
Y17400D02*
D03*
X65838D02*
D03*
Y17900D02*
D03*
Y18400D02*
D03*
Y18900D02*
D03*
Y19400D02*
D03*
Y19900D02*
D03*
Y20400D02*
D03*
Y20900D02*
D03*
Y21400D02*
D03*
Y21900D02*
D03*
Y22400D02*
D03*
Y22900D02*
D03*
Y23400D02*
D03*
Y23900D02*
D03*
Y24400D02*
D03*
Y24900D02*
D03*
Y25400D02*
D03*
Y25900D02*
D03*
Y26400D02*
D03*
Y26900D02*
D03*
Y27400D02*
D03*
Y27900D02*
D03*
Y28400D02*
D03*
Y28900D02*
D03*
Y29400D02*
D03*
D21*
X52100Y15662D02*
D03*
X52600D02*
D03*
X53100D02*
D03*
X53600D02*
D03*
X54100D02*
D03*
X54600D02*
D03*
X55100D02*
D03*
X55600D02*
D03*
X56100D02*
D03*
X56600D02*
D03*
X57100D02*
D03*
X57600D02*
D03*
X58100D02*
D03*
X58600D02*
D03*
X59100D02*
D03*
X59600D02*
D03*
X60100D02*
D03*
X60600D02*
D03*
X61100D02*
D03*
X61600D02*
D03*
X62100D02*
D03*
X62600D02*
D03*
X63100D02*
D03*
X63600D02*
D03*
X64100D02*
D03*
Y31138D02*
D03*
X63600D02*
D03*
X63100D02*
D03*
X62600D02*
D03*
X62100D02*
D03*
X61600D02*
D03*
X61100D02*
D03*
X60600D02*
D03*
X60100D02*
D03*
X59600D02*
D03*
X59100D02*
D03*
X58600D02*
D03*
X58100D02*
D03*
X57600D02*
D03*
X57100D02*
D03*
X56600D02*
D03*
X56100D02*
D03*
X55600D02*
D03*
X55100D02*
D03*
X54600D02*
D03*
X54100D02*
D03*
X53600D02*
D03*
X53100D02*
D03*
X52600D02*
D03*
X52100D02*
D03*
D22*
X70258Y27889D02*
D03*
Y27289D02*
D03*
X4100Y16973D02*
D03*
Y16373D02*
D03*
X27323Y10402D02*
D03*
Y11002D02*
D03*
X27329Y11647D02*
D03*
Y12247D02*
D03*
X67400Y29650D02*
D03*
Y29050D02*
D03*
X48453Y26943D02*
D03*
Y27543D02*
D03*
X48400Y24350D02*
D03*
Y24950D02*
D03*
X67376Y17974D02*
D03*
Y17374D02*
D03*
X48550Y20600D02*
D03*
Y20000D02*
D03*
X15226Y24504D02*
D03*
Y25104D02*
D03*
X20609Y12350D02*
D03*
Y11750D02*
D03*
X75996Y12499D02*
D03*
Y13099D02*
D03*
X41479Y31988D02*
D03*
Y32588D02*
D03*
X78200Y24300D02*
D03*
Y23700D02*
D03*
X74931Y12499D02*
D03*
Y13099D02*
D03*
X81014Y23867D02*
D03*
Y23267D02*
D03*
X77100Y23700D02*
D03*
Y24300D02*
D03*
X79950Y23867D02*
D03*
Y23267D02*
D03*
X73867Y12499D02*
D03*
Y13099D02*
D03*
X80400Y13000D02*
D03*
Y13600D02*
D03*
D23*
X88651Y28321D02*
D03*
X87237Y29735D02*
D03*
X88646Y28321D02*
D03*
X87232Y29735D02*
D03*
D24*
X83523Y21990D02*
D03*
X82886Y22627D02*
D03*
X37929Y16651D02*
D03*
X85407Y25083D02*
D03*
X86043Y24447D02*
D03*
X37293Y17287D02*
D03*
X87185Y26861D02*
D03*
X87821Y26225D02*
D03*
X84773Y24447D02*
D03*
X84137Y25083D02*
D03*
X38082Y18018D02*
D03*
X38718Y17382D02*
D03*
D25*
X40068Y16082D02*
D03*
X39432Y16718D02*
D03*
X38632Y16018D02*
D03*
X39268Y15382D02*
D03*
D26*
X21078Y19566D02*
D03*
Y18666D02*
D03*
X68300Y29050D02*
D03*
Y29950D02*
D03*
X40436Y32011D02*
D03*
Y32911D02*
D03*
X33700Y12500D02*
D03*
Y13400D02*
D03*
X39970Y28295D02*
D03*
Y27395D02*
D03*
X33551Y26319D02*
D03*
Y27219D02*
D03*
X35589Y26319D02*
D03*
Y27219D02*
D03*
X32454Y24769D02*
D03*
Y23869D02*
D03*
X34567Y26318D02*
D03*
Y27218D02*
D03*
X53550Y33800D02*
D03*
Y32900D02*
D03*
X68387Y18224D02*
D03*
Y17324D02*
D03*
X47611Y19950D02*
D03*
Y20850D02*
D03*
X45700Y25400D02*
D03*
Y26300D02*
D03*
X62666Y14278D02*
D03*
Y13378D02*
D03*
X51050Y33850D02*
D03*
Y32950D02*
D03*
X16253Y18924D02*
D03*
Y19824D02*
D03*
X15135Y17474D02*
D03*
Y18374D02*
D03*
X19723Y19587D02*
D03*
Y18687D02*
D03*
X26438Y22449D02*
D03*
Y21549D02*
D03*
X21525Y11490D02*
D03*
Y12390D02*
D03*
X38250Y13400D02*
D03*
Y12500D02*
D03*
X78175Y11000D02*
D03*
Y11900D02*
D03*
X77050Y11000D02*
D03*
Y11900D02*
D03*
X82060Y23144D02*
D03*
Y24044D02*
D03*
X76250Y26611D02*
D03*
Y27511D02*
D03*
X74114Y20750D02*
D03*
Y21650D02*
D03*
X70050Y23050D02*
D03*
Y22150D02*
D03*
X81200Y13400D02*
D03*
Y12500D02*
D03*
D27*
X57113Y6614D02*
D03*
Y5714D02*
D03*
X73125Y10081D02*
D03*
Y10981D02*
D03*
X85919Y11767D02*
D03*
Y12667D02*
D03*
X1779Y20800D02*
D03*
Y19900D02*
D03*
X82800Y13700D02*
D03*
Y12800D02*
D03*
X13484Y21056D02*
D03*
Y21956D02*
D03*
X14122Y17478D02*
D03*
Y18378D02*
D03*
X25295Y32471D02*
D03*
Y33371D02*
D03*
X24660Y24724D02*
D03*
Y25624D02*
D03*
X28350Y10100D02*
D03*
Y9200D02*
D03*
X39250Y10150D02*
D03*
Y9250D02*
D03*
X85544Y17031D02*
D03*
Y17931D02*
D03*
Y18895D02*
D03*
Y19795D02*
D03*
X35701Y8684D02*
D03*
Y9584D02*
D03*
X33495Y9600D02*
D03*
Y8700D02*
D03*
X34600Y9600D02*
D03*
Y8700D02*
D03*
X9708Y8708D02*
D03*
Y9608D02*
D03*
D28*
X16281Y11532D02*
D03*
X17181D02*
D03*
X15137Y19439D02*
D03*
X14237D02*
D03*
X55049Y33722D02*
D03*
X55949D02*
D03*
X85604Y20917D02*
D03*
X86504D02*
D03*
X1900Y17829D02*
D03*
X1000D02*
D03*
X58700Y32950D02*
D03*
X57800D02*
D03*
X17141Y24358D02*
D03*
X16241D02*
D03*
X17141Y25573D02*
D03*
X16241D02*
D03*
X15146Y16538D02*
D03*
X14246D02*
D03*
X16209Y17835D02*
D03*
X17109D02*
D03*
X16278Y21364D02*
D03*
X17178D02*
D03*
X16050Y28500D02*
D03*
X16950D02*
D03*
X24464Y21455D02*
D03*
X25364D02*
D03*
X30413Y14273D02*
D03*
X31313D02*
D03*
X24621Y20221D02*
D03*
X25521D02*
D03*
X41000Y15100D02*
D03*
X41900D02*
D03*
X78928Y3146D02*
D03*
X78028D02*
D03*
X7551Y1575D02*
D03*
X6651D02*
D03*
X43900Y27398D02*
D03*
X43000D02*
D03*
D29*
X69005Y11152D02*
D03*
X69005Y13150D02*
D03*
X71483Y14322D02*
D03*
X38481Y32033D02*
D03*
X47500Y14113D02*
D03*
X47523Y16127D02*
D03*
X47586Y18349D02*
D03*
X26250Y15400D02*
D03*
X45635Y16095D02*
D03*
X73383Y27713D02*
D03*
X71497D02*
D03*
X73381Y29608D02*
D03*
X87503Y18910D02*
D03*
Y17018D02*
D03*
X71500Y29600D02*
D03*
X73439Y14373D02*
D03*
X71521Y31520D02*
D03*
X31150Y31250D02*
D03*
X12300Y14100D02*
D03*
X38500Y29400D02*
D03*
X12050Y20500D02*
D03*
X18850Y12400D02*
D03*
X11259Y10269D02*
D03*
X11850Y4900D02*
D03*
D30*
X42942Y6751D02*
D03*
Y8151D02*
D03*
X39979Y8195D02*
D03*
Y6795D02*
D03*
X28800Y8300D02*
D03*
Y6900D02*
D03*
X31800Y8300D02*
D03*
Y6900D02*
D03*
D31*
X4050Y27700D02*
D03*
X4650D02*
D03*
X6000Y27700D02*
D03*
X6600D02*
D03*
X1224Y16879D02*
D03*
X1824D02*
D03*
X42450Y28800D02*
D03*
X41850D02*
D03*
X41177Y8800D02*
D03*
X41777D02*
D03*
X68219Y27552D02*
D03*
X68819D02*
D03*
X68250Y26750D02*
D03*
X68850D02*
D03*
X68292Y26044D02*
D03*
X68892D02*
D03*
X70548Y24935D02*
D03*
X69948D02*
D03*
X70560Y25629D02*
D03*
X69960D02*
D03*
X68842Y28289D02*
D03*
X68242D02*
D03*
X51938Y14012D02*
D03*
X52539D02*
D03*
X52550Y32900D02*
D03*
X51950D02*
D03*
X30700Y8950D02*
D03*
X30100D02*
D03*
X83700Y20750D02*
D03*
X84300D02*
D03*
X73200Y15700D02*
D03*
X73800D02*
D03*
X72900Y17200D02*
D03*
X73500D02*
D03*
X59009Y8012D02*
D03*
X59609D02*
D03*
X83685Y14450D02*
D03*
X83085D02*
D03*
D32*
X22182Y19291D02*
D03*
X23582D02*
D03*
D33*
X23898Y32387D02*
D03*
Y33787D02*
D03*
D34*
X73975Y8250D02*
D03*
Y3750D02*
D03*
X66025Y8250D02*
D03*
Y3750D02*
D03*
X93975Y8250D02*
D03*
Y3750D02*
D03*
X86025Y8250D02*
D03*
Y3750D02*
D03*
X53975Y8250D02*
D03*
Y3750D02*
D03*
X46025Y8250D02*
D03*
Y3750D02*
D03*
X16025D02*
D03*
Y8250D02*
D03*
X23975Y3750D02*
D03*
Y8250D02*
D03*
D35*
X24152Y29847D02*
D03*
X26352Y30797D02*
D03*
Y28897D02*
D03*
D36*
X7944Y4720D02*
D03*
Y5220D02*
D03*
Y5720D02*
D03*
Y6220D02*
D03*
Y6720D02*
D03*
Y7220D02*
D03*
Y8220D02*
D03*
Y8720D02*
D03*
Y9220D02*
D03*
Y9720D02*
D03*
Y10220D02*
D03*
Y10720D02*
D03*
X6244Y5470D02*
D03*
Y5970D02*
D03*
Y6470D02*
D03*
Y6970D02*
D03*
Y7470D02*
D03*
Y7970D02*
D03*
Y8470D02*
D03*
Y8970D02*
D03*
Y9470D02*
D03*
Y9970D02*
D03*
D37*
Y4670D02*
D03*
Y10770D02*
D03*
D38*
X1800Y18900D02*
D03*
X900D02*
D03*
X51611Y13072D02*
D03*
X52512D02*
D03*
X39079Y19123D02*
D03*
X38179D02*
D03*
X40847Y25683D02*
D03*
X39947D02*
D03*
X37487Y26857D02*
D03*
X36587D02*
D03*
X41113Y21385D02*
D03*
X40213D02*
D03*
X64572Y13938D02*
D03*
X63672D02*
D03*
X48350Y23550D02*
D03*
X47450D02*
D03*
X46939Y24297D02*
D03*
X46039D02*
D03*
X25863Y13401D02*
D03*
X24963D02*
D03*
X11123Y21943D02*
D03*
X12023D02*
D03*
X16673Y22687D02*
D03*
X15773D02*
D03*
X21554Y27841D02*
D03*
X20654D02*
D03*
X17073Y26687D02*
D03*
X16173D02*
D03*
X23868Y27808D02*
D03*
X22968D02*
D03*
X25334Y23396D02*
D03*
X24434D02*
D03*
X32073Y14187D02*
D03*
X32973D02*
D03*
X43140Y5890D02*
D03*
X42240D02*
D03*
X28450Y5800D02*
D03*
X27550D02*
D03*
X30850Y5800D02*
D03*
X29950D02*
D03*
X39855Y5891D02*
D03*
X40755D02*
D03*
X30788Y8074D02*
D03*
X29888D02*
D03*
X42800Y15100D02*
D03*
X43700D02*
D03*
X41882Y7911D02*
D03*
X40982D02*
D03*
X78174Y28550D02*
D03*
X79074D02*
D03*
X14029Y8000D02*
D03*
X13129D02*
D03*
X14050Y6300D02*
D03*
X13150D02*
D03*
X59632Y9051D02*
D03*
X58732D02*
D03*
X73076Y18100D02*
D03*
X72176D02*
D03*
X2547Y23950D02*
D03*
X3447D02*
D03*
D39*
X55786Y5425D02*
D03*
Y6675D02*
D03*
X71500Y10100D02*
D03*
Y11350D02*
D03*
X10100Y5067D02*
D03*
Y6317D02*
D03*
D40*
X43875Y30400D02*
D03*
Y31300D02*
D03*
X45225Y30400D02*
D03*
Y31300D02*
D03*
D41*
X42825Y30850D02*
D03*
X46275D02*
D03*
D42*
X44550Y29625D02*
D03*
Y32075D02*
D03*
D43*
X59600Y5275D02*
D03*
X60500D02*
D03*
X59600Y3925D02*
D03*
X60500D02*
D03*
D44*
X60050Y6325D02*
D03*
Y2875D02*
D03*
D45*
X58825Y4600D02*
D03*
X61275D02*
D03*
D46*
X2700Y15375D02*
D03*
X3100D02*
D03*
X3500D02*
D03*
Y14325D02*
D03*
X3100D02*
D03*
X2700D02*
D03*
D47*
X46796Y25151D02*
D03*
Y26251D02*
D03*
D48*
X35991Y12063D02*
D03*
Y14813D02*
D03*
D49*
X36345Y22635D02*
D03*
D50*
X38770Y24385D02*
D03*
Y23885D02*
D03*
Y23385D02*
D03*
Y22885D02*
D03*
Y22385D02*
D03*
Y21885D02*
D03*
Y21385D02*
D03*
Y20885D02*
D03*
X33920D02*
D03*
Y21385D02*
D03*
Y21885D02*
D03*
Y22385D02*
D03*
Y22885D02*
D03*
Y23385D02*
D03*
Y23885D02*
D03*
Y24385D02*
D03*
D51*
X38095Y20210D02*
D03*
X37595D02*
D03*
X37095D02*
D03*
X36595D02*
D03*
X36095D02*
D03*
X35595D02*
D03*
X35095D02*
D03*
X34595D02*
D03*
Y25060D02*
D03*
X35095D02*
D03*
X35595D02*
D03*
X36095D02*
D03*
X36595D02*
D03*
X37095D02*
D03*
X37595D02*
D03*
X38095D02*
D03*
D52*
X63550Y11650D02*
D03*
X61550D02*
D03*
D53*
X32114Y16143D02*
D03*
X31478Y15506D02*
D03*
X31245Y16881D02*
D03*
X30609Y16244D02*
D03*
D54*
X32591Y18256D02*
D03*
X31955Y17619D02*
D03*
X33468Y17469D02*
D03*
X32832Y16832D02*
D03*
X86614Y26289D02*
D03*
X85978Y25653D02*
D03*
X84168Y23868D02*
D03*
X83532Y23232D02*
D03*
D55*
X20850Y23650D02*
D03*
D56*
X19600Y26175D02*
D03*
X20100D02*
D03*
X20600D02*
D03*
X21100D02*
D03*
X21600D02*
D03*
X22100D02*
D03*
Y21125D02*
D03*
X21600D02*
D03*
X21100D02*
D03*
X20600D02*
D03*
X20100D02*
D03*
X19600D02*
D03*
D57*
X22875Y25400D02*
D03*
Y24900D02*
D03*
Y24400D02*
D03*
Y23900D02*
D03*
Y23400D02*
D03*
Y22900D02*
D03*
Y22400D02*
D03*
Y21900D02*
D03*
X18825D02*
D03*
Y22400D02*
D03*
Y22900D02*
D03*
Y23400D02*
D03*
Y23900D02*
D03*
Y24400D02*
D03*
Y24900D02*
D03*
Y25400D02*
D03*
D58*
X17167Y19349D02*
D03*
Y19899D02*
D03*
D59*
X11185Y24934D02*
D03*
X13985D02*
D03*
X29061Y25706D02*
D03*
X26261D02*
D03*
D60*
X15389Y21745D02*
D03*
X14839D02*
D03*
X15123Y28537D02*
D03*
X14573D02*
D03*
X24364Y22470D02*
D03*
X24914D02*
D03*
D61*
X21637Y31476D02*
D03*
X18587D02*
D03*
X23048Y15637D02*
D03*
X19998D02*
D03*
D62*
X41350Y27862D02*
D03*
D63*
X33750Y4250D02*
D03*
X35450Y7350D02*
D03*
X33750D02*
D03*
X35450Y4250D02*
D03*
D64*
X4917Y18350D02*
D03*
D65*
X4992Y18850D02*
D03*
Y19350D02*
D03*
Y19850D02*
D03*
Y20350D02*
D03*
X3592D02*
D03*
Y19850D02*
D03*
Y19350D02*
D03*
Y18850D02*
D03*
Y18350D02*
D03*
D66*
X5258Y22350D02*
D03*
X2658D02*
D03*
D67*
X81363Y21890D02*
D03*
X80863D02*
D03*
X80363D02*
D03*
X79863D02*
D03*
X79363D02*
D03*
X78863D02*
D03*
X78363D02*
D03*
X77863D02*
D03*
X77363D02*
D03*
X76863D02*
D03*
X76363D02*
D03*
X75863D02*
D03*
X80863Y14940D02*
D03*
X81363D02*
D03*
X80363D02*
D03*
X79863D02*
D03*
X79363D02*
D03*
X78863D02*
D03*
X78363D02*
D03*
X77863D02*
D03*
X77363D02*
D03*
X76863D02*
D03*
X76363D02*
D03*
X75863D02*
D03*
D68*
X85903Y10390D02*
D03*
X84653D02*
D03*
X17275Y10236D02*
D03*
X16025D02*
D03*
D69*
X83992Y26498D02*
D03*
D70*
X81870D02*
D03*
X83992Y28620D02*
D03*
D71*
X93350Y1450D02*
D03*
X10850Y1600D02*
D03*
X10650Y31400D02*
D03*
D72*
X6592Y14605D02*
D03*
D73*
X5092D02*
D03*
D74*
X78160Y13214D02*
D03*
X77060D02*
D03*
D75*
X71800Y22800D02*
D03*
Y20800D02*
D03*
D76*
X11814Y6317D02*
D03*
Y7917D02*
D03*
D77*
X77625Y27236D02*
D03*
X78975D02*
D03*
Y26186D02*
D03*
X77625D02*
D03*
D78*
X78613Y18415D02*
D03*
D79*
X82088Y21165D02*
D03*
Y20665D02*
D03*
Y20165D02*
D03*
Y19665D02*
D03*
Y19165D02*
D03*
Y18665D02*
D03*
Y18165D02*
D03*
Y17665D02*
D03*
Y17165D02*
D03*
Y16665D02*
D03*
Y16165D02*
D03*
Y15665D02*
D03*
X75138D02*
D03*
Y16165D02*
D03*
Y16665D02*
D03*
Y17165D02*
D03*
Y17665D02*
D03*
Y18165D02*
D03*
Y18665D02*
D03*
Y19165D02*
D03*
Y19665D02*
D03*
Y20165D02*
D03*
Y20665D02*
D03*
Y21165D02*
D03*
D80*
X2622Y25858D02*
D03*
X5162D02*
D03*
D81*
X7702D02*
D03*
D82*
X8162Y30000D02*
D03*
X27480Y1600D02*
D03*
X30220D02*
D03*
X42770D02*
D03*
X40030D02*
D03*
X5162Y30000D02*
D03*
X2162D02*
D03*
D83*
X30120Y4350D02*
D03*
X42670Y4400D02*
D03*
D84*
X27580Y4350D02*
D03*
X40130Y4400D02*
D03*
D85*
X7134Y3400D02*
D03*
Y12040D02*
D03*
D86*
X1774Y12340D02*
D03*
Y3100D02*
D03*
D87*
X2309Y12340D02*
D03*
Y3100D02*
D03*
D88*
X60294Y29917D02*
D03*
X53944D02*
D03*
X76442Y5155D02*
D03*
X82792D02*
D03*
X10550Y15800D02*
D03*
X97650Y5750D02*
D03*
X34600Y33050D02*
D03*
D89*
X42500Y13800D02*
D03*
X32200Y13028D02*
D03*
X69550Y27400D02*
D03*
X69378Y26800D02*
D03*
X70150Y29050D02*
D03*
X28050Y30450D02*
D03*
X26398Y31712D02*
D03*
X23538Y20233D02*
D03*
X51479Y26821D02*
D03*
X53700Y24950D02*
D03*
X59250D02*
D03*
X61800Y27250D02*
D03*
X57300Y24550D02*
D03*
X57925Y24275D02*
D03*
X49100Y27500D02*
D03*
X18113Y27895D02*
D03*
X36100Y31000D02*
D03*
X40055Y29533D02*
D03*
X29150Y29550D02*
D03*
X41275Y29175D02*
D03*
X52150Y28550D02*
D03*
X51600Y27750D02*
D03*
X74700Y23550D02*
D03*
X65050Y11550D02*
D03*
X64382Y11540D02*
D03*
X87016Y21670D02*
D03*
X84950Y21000D02*
D03*
X85986Y13314D02*
D03*
X18000Y11500D02*
D03*
X57872Y5690D02*
D03*
X98450Y2100D02*
D03*
X94700Y9600D02*
D03*
X95950Y7100D02*
D03*
Y2100D02*
D03*
X93450Y12100D02*
D03*
X92200Y9600D02*
D03*
X93450Y7100D02*
D03*
X92200Y4600D02*
D03*
X89700Y14600D02*
D03*
X90950Y12100D02*
D03*
X89700Y9600D02*
D03*
X90950Y7100D02*
D03*
X89700Y4600D02*
D03*
X90950Y2100D02*
D03*
X88450Y12100D02*
D03*
Y7100D02*
D03*
Y2100D02*
D03*
X85950Y7100D02*
D03*
Y2100D02*
D03*
X74700Y29600D02*
D03*
X73450Y32100D02*
D03*
Y7100D02*
D03*
X69700Y9600D02*
D03*
X70950Y7100D02*
D03*
X69700Y4600D02*
D03*
X70950Y2100D02*
D03*
X68450Y32100D02*
D03*
X67200Y24600D02*
D03*
Y19600D02*
D03*
Y9600D02*
D03*
X68450Y2100D02*
D03*
X65950Y32100D02*
D03*
X64700Y19600D02*
D03*
Y4600D02*
D03*
X65950Y2100D02*
D03*
X62200Y29600D02*
D03*
Y19600D02*
D03*
Y9600D02*
D03*
X63450Y2100D02*
D03*
X60950D02*
D03*
X57200Y9600D02*
D03*
X58450Y7100D02*
D03*
X57200Y4600D02*
D03*
X58450Y2100D02*
D03*
X54700Y9600D02*
D03*
X55950Y2100D02*
D03*
X52200Y9600D02*
D03*
X53450Y7100D02*
D03*
X52200Y4600D02*
D03*
X53450Y2100D02*
D03*
X50950Y32100D02*
D03*
X49700Y14600D02*
D03*
Y9600D02*
D03*
X50950Y7100D02*
D03*
X49700Y4600D02*
D03*
X50950Y2100D02*
D03*
X47200Y29600D02*
D03*
X48450Y7100D02*
D03*
Y2100D02*
D03*
X45950Y22100D02*
D03*
Y12100D02*
D03*
Y7100D02*
D03*
X44700Y4600D02*
D03*
X45950Y2100D02*
D03*
X42200Y24600D02*
D03*
X43450Y17100D02*
D03*
X40950D02*
D03*
X37200Y4600D02*
D03*
X38450Y2100D02*
D03*
X35950Y17100D02*
D03*
X32200Y19600D02*
D03*
Y4600D02*
D03*
X30950Y27100D02*
D03*
X28450Y17100D02*
D03*
X25950D02*
D03*
Y2100D02*
D03*
X22200Y4600D02*
D03*
X23450Y2100D02*
D03*
X19700Y4600D02*
D03*
X20950Y2100D02*
D03*
X18450Y17100D02*
D03*
X17200Y14600D02*
D03*
X18450Y2100D02*
D03*
X15950Y17100D02*
D03*
X14700Y9600D02*
D03*
X15950Y7100D02*
D03*
X14700Y4600D02*
D03*
X15950Y2100D02*
D03*
X13450D02*
D03*
X8450Y32100D02*
D03*
X7200Y9600D02*
D03*
Y4600D02*
D03*
X4700D02*
D03*
X3450Y32100D02*
D03*
X2200Y14600D02*
D03*
Y9600D02*
D03*
X3450Y7100D02*
D03*
X2200Y4600D02*
D03*
X950Y7100D02*
D03*
X26050Y23400D02*
D03*
X35450Y4250D02*
D03*
X59581Y5255D02*
D03*
X41573Y25568D02*
D03*
X87381Y25783D02*
D03*
X88882Y26677D02*
D03*
X87028Y27768D02*
D03*
X99110Y16466D02*
D03*
X82624Y32926D02*
D03*
X89276Y26224D02*
D03*
X88164Y26880D02*
D03*
X81776Y33774D02*
D03*
X81382Y34227D02*
D03*
X92222Y23226D02*
D03*
X83932Y31677D02*
D03*
X84000Y22550D02*
D03*
X83606Y24404D02*
D03*
X97731Y17681D02*
D03*
X82200Y33350D02*
D03*
X84326Y31224D02*
D03*
X84860Y23412D02*
D03*
X96489Y18982D02*
D03*
X92646Y22802D02*
D03*
X90124Y25376D02*
D03*
X98580Y16832D02*
D03*
X95196Y20241D02*
D03*
X97307Y18105D02*
D03*
X83049Y32501D02*
D03*
X83224Y23974D02*
D03*
X98156Y17257D02*
D03*
X84879Y25677D02*
D03*
X85727Y26525D02*
D03*
X99534Y16042D02*
D03*
X82591Y21736D02*
D03*
X84424Y22974D02*
D03*
X82800Y23550D02*
D03*
X93953Y21542D02*
D03*
X85174Y30376D02*
D03*
X86151Y26950D02*
D03*
X96883Y18529D02*
D03*
X85599Y29951D02*
D03*
X94347Y21090D02*
D03*
X96044Y19393D02*
D03*
X95620Y19817D02*
D03*
X91403Y24103D02*
D03*
X94771Y20666D02*
D03*
X90549Y24951D02*
D03*
X83473Y32077D02*
D03*
X93494Y21953D02*
D03*
X93070Y22377D02*
D03*
X86576Y27374D02*
D03*
X86023Y29527D02*
D03*
X85284Y23836D02*
D03*
X84750Y30800D02*
D03*
X91797Y23650D02*
D03*
X90973Y24527D02*
D03*
X86507Y24959D02*
D03*
X85303Y26101D02*
D03*
X89700Y25800D02*
D03*
X99437Y10402D02*
D03*
Y13172D02*
D03*
X99379Y11829D02*
D03*
X98200Y16050D02*
D03*
Y14650D02*
D03*
Y13250D02*
D03*
Y11850D02*
D03*
Y10450D02*
D03*
Y9050D02*
D03*
X96800Y17450D02*
D03*
Y16050D02*
D03*
Y14650D02*
D03*
Y13250D02*
D03*
Y11850D02*
D03*
Y10450D02*
D03*
X95400Y18850D02*
D03*
Y17450D02*
D03*
Y16050D02*
D03*
Y14650D02*
D03*
Y13250D02*
D03*
Y11850D02*
D03*
X94000Y20250D02*
D03*
Y18850D02*
D03*
Y17450D02*
D03*
Y16050D02*
D03*
Y14650D02*
D03*
Y13250D02*
D03*
X92600Y21650D02*
D03*
Y20250D02*
D03*
Y18850D02*
D03*
Y17450D02*
D03*
Y16050D02*
D03*
Y14650D02*
D03*
X91200Y23050D02*
D03*
Y21650D02*
D03*
Y20250D02*
D03*
Y18850D02*
D03*
Y17450D02*
D03*
Y16050D02*
D03*
X89800Y24450D02*
D03*
Y23050D02*
D03*
Y21650D02*
D03*
Y20250D02*
D03*
Y18850D02*
D03*
Y17450D02*
D03*
X88400Y24450D02*
D03*
Y23050D02*
D03*
Y21650D02*
D03*
X87000Y24450D02*
D03*
Y23050D02*
D03*
X85600Y28650D02*
D03*
Y27250D02*
D03*
Y23050D02*
D03*
Y21650D02*
D03*
X84200Y30050D02*
D03*
X82800Y31450D02*
D03*
Y30050D02*
D03*
X81400Y32850D02*
D03*
Y31450D02*
D03*
Y30050D02*
D03*
X80000Y34250D02*
D03*
Y32850D02*
D03*
Y31450D02*
D03*
Y30050D02*
D03*
Y28650D02*
D03*
X78600Y34250D02*
D03*
Y32850D02*
D03*
Y31450D02*
D03*
Y30050D02*
D03*
X77200Y34250D02*
D03*
Y32850D02*
D03*
Y31450D02*
D03*
Y30050D02*
D03*
X75800Y34250D02*
D03*
Y32850D02*
D03*
Y31450D02*
D03*
X74400Y34250D02*
D03*
Y32850D02*
D03*
X73000Y34250D02*
D03*
X84193Y507D02*
D03*
X44143Y34507D02*
D03*
X27200Y9850D02*
D03*
X26850Y13850D02*
D03*
X26900Y12950D02*
D03*
X27800Y13450D02*
D03*
X20602Y11200D02*
D03*
Y10641D02*
D03*
X76344Y20654D02*
D03*
X37653Y23947D02*
D03*
X34990Y23920D02*
D03*
X34907Y19347D02*
D03*
X6255Y22292D02*
D03*
X6250Y22950D02*
D03*
Y21650D02*
D03*
X850Y19900D02*
D03*
X2528Y18850D02*
D03*
X4050Y14350D02*
D03*
Y15350D02*
D03*
X62000Y13450D02*
D03*
X63424Y16920D02*
D03*
X68250Y8100D02*
D03*
X67600Y8750D02*
D03*
X71115Y26458D02*
D03*
X71300Y25750D02*
D03*
X71250Y24850D02*
D03*
X68300Y30650D02*
D03*
X42450Y28100D02*
D03*
X43000Y26700D02*
D03*
X42200Y31400D02*
D03*
X43950Y26650D02*
D03*
X41482Y31360D02*
D03*
X41500Y33250D02*
D03*
X40450Y31328D02*
D03*
X40454Y33620D02*
D03*
X22943Y29239D02*
D03*
X22959Y29887D02*
D03*
X23750Y29900D02*
D03*
X24502Y29885D02*
D03*
X23900Y34450D02*
D03*
X23000Y28500D02*
D03*
X14050Y28300D02*
D03*
X15550Y26650D02*
D03*
X18200Y27150D02*
D03*
X14450Y14100D02*
D03*
X15100Y13800D02*
D03*
X14650Y13050D02*
D03*
X5200Y8550D02*
D03*
X11700Y12800D02*
D03*
X12300Y14100D02*
D03*
X72276Y22775D02*
D03*
X32973Y14877D02*
D03*
X38050Y26150D02*
D03*
X39150Y25700D02*
D03*
X38665Y27147D02*
D03*
X39900Y26700D02*
D03*
X43875Y31300D02*
D03*
X41350Y27862D02*
D03*
X37600Y25600D02*
D03*
X52550Y33600D02*
D03*
X64550Y29600D02*
D03*
X24750Y11250D02*
D03*
X41000Y6650D02*
D03*
X29900Y6750D02*
D03*
X35459Y12012D02*
D03*
X36459Y12037D02*
D03*
X38250Y11800D02*
D03*
X33700Y11850D02*
D03*
X30800Y7400D02*
D03*
X29900Y7450D02*
D03*
X44300Y15100D02*
D03*
X41000Y7250D02*
D03*
X41900Y7300D02*
D03*
X30500Y11500D02*
D03*
X41601Y11473D02*
D03*
X76500Y23450D02*
D03*
X88150Y25800D02*
D03*
X29200Y5800D02*
D03*
X41450Y5950D02*
D03*
X46050Y3700D02*
D03*
X60000Y6950D02*
D03*
X45225Y31300D02*
D03*
X62600Y32700D02*
D03*
X70600Y13450D02*
D03*
X52500Y17500D02*
D03*
Y19500D02*
D03*
X54500D02*
D03*
X83000Y9950D02*
D03*
X8750Y7145D02*
D03*
X5250Y7800D02*
D03*
X8800Y8206D02*
D03*
X5050Y15500D02*
D03*
X6550Y15550D02*
D03*
X67350Y21400D02*
D03*
X64100D02*
D03*
X41350Y24050D02*
D03*
X82784Y12186D02*
D03*
X81850Y13350D02*
D03*
X79400Y12100D02*
D03*
X80400Y12450D02*
D03*
X53550Y34500D02*
D03*
X51050D02*
D03*
X35991Y14813D02*
D03*
X33700Y14050D02*
D03*
X47750Y24600D02*
D03*
X45400D02*
D03*
X54490Y32900D02*
D03*
X46800Y23550D02*
D03*
X49050Y23600D02*
D03*
X47500Y27450D02*
D03*
X38300Y14050D02*
D03*
X17900Y10200D02*
D03*
X50900Y13450D02*
D03*
X51418Y14022D02*
D03*
X53150Y13400D02*
D03*
X53100Y14000D02*
D03*
X60200Y34529D02*
D03*
X99429Y9179D02*
D03*
Y14629D02*
D03*
X521Y32832D02*
D03*
X65650Y34529D02*
D03*
X521Y11032D02*
D03*
X7861Y471D02*
D03*
X51461D02*
D03*
X80838Y34512D02*
D03*
X22050Y34529D02*
D03*
X5700D02*
D03*
X27500D02*
D03*
X71100D02*
D03*
X67811Y471D02*
D03*
X521Y5582D02*
D03*
X89611Y471D02*
D03*
X95061D02*
D03*
X521Y27382D02*
D03*
X18761Y471D02*
D03*
X54750Y34529D02*
D03*
X79100Y500D02*
D03*
X11150Y34529D02*
D03*
X49300D02*
D03*
X56911Y471D02*
D03*
X521Y16482D02*
D03*
X99429Y3729D02*
D03*
X2411Y471D02*
D03*
X13311D02*
D03*
X38400Y34529D02*
D03*
X62361Y471D02*
D03*
X40911D02*
D03*
X24211D02*
D03*
X521Y21932D02*
D03*
X46011Y471D02*
D03*
X73261D02*
D03*
X35111D02*
D03*
X32950Y34529D02*
D03*
X28854Y539D02*
D03*
X61900Y16900D02*
D03*
X64550Y13400D02*
D03*
X46950Y20900D02*
D03*
Y19950D02*
D03*
X61850Y4600D02*
D03*
X55800Y4800D02*
D03*
X58412Y8012D02*
D03*
X58096Y9061D02*
D03*
X60196Y9073D02*
D03*
X60150Y8000D02*
D03*
X37645Y21285D02*
D03*
X35039Y21250D02*
D03*
X36345Y22635D02*
D03*
X41122Y20699D02*
D03*
X39491Y21385D02*
D03*
X39690Y19127D02*
D03*
X45180Y30398D02*
D03*
X43850Y30400D02*
D03*
X51600Y29450D02*
D03*
X38135Y26866D02*
D03*
X35583Y27824D02*
D03*
X34551Y27844D02*
D03*
X33547Y27873D02*
D03*
X32450Y25450D02*
D03*
X39500Y24852D02*
D03*
X37595Y19349D02*
D03*
X68378Y18928D02*
D03*
X68376Y16649D02*
D03*
X67400Y18600D02*
D03*
X45635Y16095D02*
D03*
X54150Y14550D02*
D03*
X47523Y16127D02*
D03*
X60496Y3908D02*
D03*
Y5258D02*
D03*
X70100Y21500D02*
D03*
X54550Y26950D02*
D03*
X55850D02*
D03*
Y32900D02*
D03*
X57150D02*
D03*
X59650Y32950D02*
D03*
X74650Y9750D02*
D03*
X71507Y31599D02*
D03*
X75050Y27550D02*
D03*
X50250Y32950D02*
D03*
X80898Y2387D02*
D03*
X79650Y2400D02*
D03*
X82150D02*
D03*
X16950Y29250D02*
D03*
X15200Y25800D02*
D03*
X12398Y22862D02*
D03*
X12998Y23412D02*
D03*
X12398Y23962D02*
D03*
X15600Y11500D02*
D03*
X17750Y23000D02*
D03*
X19375Y28886D02*
D03*
X76200Y11811D02*
D03*
X48250Y21900D02*
D03*
X69986Y15650D02*
D03*
X71628Y17947D02*
D03*
X73850Y17850D02*
D03*
X72450Y11400D02*
D03*
X69000Y13150D02*
D03*
X71450Y13500D02*
D03*
X63150Y29250D02*
D03*
X54050Y16850D02*
D03*
X35703Y10148D02*
D03*
X34616Y10248D02*
D03*
X33490D02*
D03*
X83150Y15650D02*
D03*
X84050Y18750D02*
D03*
X85100Y15000D02*
D03*
X85850D02*
D03*
X77100Y3100D02*
D03*
X86833Y20196D02*
D03*
X52150Y21900D02*
D03*
X78950Y12650D02*
D03*
X36850Y26100D02*
D03*
X20811Y28836D02*
D03*
X8801Y4115D02*
D03*
X7100Y10800D02*
D03*
X11933Y18830D02*
D03*
X11138Y21172D02*
D03*
X20073Y28487D02*
D03*
X13933Y32988D02*
D03*
X16689Y34500D02*
D03*
X27523Y31437D02*
D03*
X21411Y27132D02*
D03*
X17823Y24427D02*
D03*
X18125Y25987D02*
D03*
X18973Y26187D02*
D03*
X24573Y26387D02*
D03*
X14373Y20137D02*
D03*
X20106Y20270D02*
D03*
X20773Y20255D02*
D03*
X15483Y20937D02*
D03*
X24523Y19187D02*
D03*
X26223Y20187D02*
D03*
X22273D02*
D03*
X23673Y21287D02*
D03*
X27223Y22487D02*
D03*
X23731Y23390D02*
D03*
X20423Y19237D02*
D03*
X15023Y22687D02*
D03*
X24273Y15387D02*
D03*
X20423Y18487D02*
D03*
X21550Y10650D02*
D03*
X80550Y22850D02*
D03*
X74315Y15720D02*
D03*
X86925Y25404D02*
D03*
X87178Y28381D02*
D03*
X72900Y30800D02*
D03*
X10150Y4150D02*
D03*
X14800Y8000D02*
D03*
X11850Y8800D02*
D03*
X10900Y7850D02*
D03*
X77600Y28150D02*
D03*
X76250Y28200D02*
D03*
X77700Y24950D02*
D03*
X76850Y25100D02*
D03*
X71400Y22800D02*
D03*
X79900Y22700D02*
D03*
X80950Y20750D02*
D03*
X76200Y16000D02*
D03*
X78613Y18415D02*
D03*
X74350Y14150D02*
D03*
X4950Y17350D02*
D03*
X86550Y23900D02*
D03*
X83111Y19690D02*
D03*
X82849Y21167D02*
D03*
X80900Y16000D02*
D03*
X78900Y25250D02*
D03*
X84650Y18000D02*
D03*
X78345Y14230D02*
D03*
X78000Y10202D02*
D03*
X77018D02*
D03*
X84295Y21524D02*
D03*
X7591Y2453D02*
D03*
X9763Y10808D02*
D03*
X80300Y24550D02*
D03*
X77273Y22799D02*
D03*
X78350Y22700D02*
D03*
X81000Y24550D02*
D03*
X82300Y14450D02*
D03*
X31150Y31250D02*
D03*
X84850Y22000D02*
D03*
X73380Y21110D02*
D03*
X73300Y21798D02*
D03*
X74900Y11800D02*
D03*
X72400Y15798D02*
D03*
X36018Y16072D02*
D03*
X73900Y11800D02*
D03*
X79856Y14256D02*
D03*
X84586Y11614D02*
D03*
X86400Y17000D02*
D03*
X83578Y19212D02*
D03*
X81727Y24826D02*
D03*
X10900Y8800D02*
D03*
X72200Y17100D02*
D03*
X83943Y10390D02*
D03*
X86383Y19712D02*
D03*
X86480Y28983D02*
D03*
X81200Y11900D02*
D03*
X7900Y21650D02*
D03*
X14800Y6300D02*
D03*
X84328Y14986D02*
D03*
X83992Y28620D02*
D03*
X81870Y26498D02*
D03*
X24003Y3683D02*
D03*
X88900Y10795D02*
D03*
X88265Y20193D02*
D03*
X53975Y3750D02*
D03*
X66025D02*
D03*
X73975D02*
D03*
X93975D02*
D03*
X86025D02*
D03*
D90*
X69800Y28050D02*
D03*
X70124Y26729D02*
D03*
X4150Y15900D02*
D03*
X3550Y17000D02*
D03*
X2593Y16177D02*
D03*
X3193D02*
D03*
X72477Y28728D02*
D03*
X36900Y32050D02*
D03*
X4324Y23964D02*
D03*
X33750Y4250D02*
D03*
X35452Y7345D02*
D03*
X33750Y7350D02*
D03*
D91*
X21400Y22550D02*
D03*
X20300D02*
D03*
X21400Y23650D02*
D03*
X20300D02*
D03*
X21400Y24750D02*
D03*
X20300D02*
D03*
M02*
