M48
;Layer_Color=9474304
;FILE_FORMAT=4:3
METRIC,LZ
;TYPE=PLATED
T01F00S00C0.200
T03F00S00C1.000
%
T01
X0002411Y0000471
X00022Y00046
X00047
X00072
X0008801Y0004115
X001015Y000415
X0007591Y0002453
X0007861Y0000471
X0013311
X001345Y00021
X00109Y000785
Y00088
X001185
X00088Y0008206
X000875Y0007145
X00072Y00096
X00071Y00108
X0009763Y0010808
X00117Y00128
X00123Y00141
X00052Y000855
X000525Y00078
X000345Y00071
X000095
X0000521Y0005582
Y0011032
X00022Y00096
X00147
X00148Y0008
Y00063
X00147Y00046
X001595Y00071
X00156Y00115
X0018
X00179Y00102
X0020602Y0010641
Y00112
X002155Y001065
X002475Y001125
X00272Y000985
X00269Y001295
X002685Y001385
X00278Y001345
X00305Y00115
X00322Y0013028
X00337Y001405
Y001185
X003349Y0010248
X0034616
X0035703Y0010148
X0035459Y0012012
X0036459Y0012037
X003825Y00118
X00383Y001405
X00425Y00138
X0041601Y0011473
X00419Y00073
X0041Y000725
Y000665
X004145Y000595
X00447Y00046
X004605Y00037
X004595Y00021
X0046011Y0000471
X004845Y00021
X005095
X0051461Y0000471
X005345Y00021
X00522Y00046
X00497
X005095Y00071
X005345
X00522Y00096
X00497
X004845Y00071
X004595
Y00121
X00509Y001345
X0051418Y0014022
X00531Y0014
X005315Y00134
X0035452Y0007345
X003375Y000735
X00308Y00074
X00299Y000745
Y000675
X00292Y00058
X00322Y00046
X003375Y000425
X003545Y000425
X00372Y00046
X003845Y00021
X0040911Y0000471
X0035111
X0028854Y0000539
X002595Y00021
X002345
X0024003Y0003683
X00222Y00046
X00197
X002095Y00021
X001845
X0018761Y0000471
X001595Y00021
X0024211Y0000471
X001465Y001305
X00151Y00138
X001445Y00141
X00547Y00096
X00572
X0058096Y0009061
X0058412Y0008012
X005845Y00071
X006Y000695
X006015Y0008
X0060196Y0009073
X00622Y00096
X0062Y001345
X006455Y00134
X0064382Y001154
X006505Y001155
X00672Y00096
X00676Y000875
X006825Y00081
X00697Y00096
X007095Y00071
X007345
X007465Y000975
X00749Y00118
X00739
X007245Y00114
X007145Y00135
X00706Y001345
X0069Y001315
X007435Y001415
X0078345Y001423
X0079856Y0014256
X00804Y001245
X00794Y00121
X007895Y001265
X00812Y00119
X0082784Y0012186
X008185Y001335
X0085986Y0013314
X0084586Y0011614
X0083943Y001039
X0083Y000995
X0078Y0010202
X0077018
X00762Y0011811
X00771Y00031
X007965Y00024
X0080898Y0002387
X008215Y00024
X0084193Y0000507
X008595Y00021
X0086025Y000375
X008595Y00071
X008845
X009095
X009345
X00922Y00096
X00897
X00889Y0010795
X008845Y00121
X009095
X009345
X00922Y00046
X00897
X009095Y00021
X008845
X0089611Y0000471
X00791Y00005
X0073261Y0000471
X007095Y00021
X006845
X0067811Y0000471
X006595Y00021
X0066025Y000375
X00647Y00046
X006185
X0060496Y0005258
X0059581Y0005255
X0057872Y000569
X00572Y00046
X00558Y00048
X005595Y00021
X005845
X006095
X0060496Y0003908
X006345Y00021
X0062361Y0000471
X0056911
X0053975Y000375
X00697Y00046
X0073975Y000375
X0093975
X009595Y00021
X009845
X0099429Y0003729
Y0009179
X0099437Y0010402
X00982Y001045
Y001185
X0099379Y0011829
X0099437Y0013172
X00982Y001325
X00968
Y001185
Y001045
X00982Y000905
X00947Y00096
X00954Y001185
Y001325
X0094
X009595Y00071
X0095061Y0000471
X00954Y001465
X00968
X00982
X0099429Y0014629
X0099534Y0016042
X009911Y0016466
X009858Y0016832
X0098156Y0017257
X0097731Y0017681
X0097307Y0018105
X0096883Y0018529
X0096489Y0018982
X0096044Y0019393
X009562Y0019817
X0095196Y0020241
X0094771Y0020666
X0094347Y002109
X0093953Y0021542
X0094Y002025
Y001885
X00954
Y001745
X00968
Y001605
X00982
X00954
X0094
Y001745
Y001465
X00926
Y001605
Y001745
Y001885
Y002025
Y002165
X0092646Y0022802
X009307Y0022377
X0093494Y0021953
X0092222Y0023226
X0091797Y002365
X0091403Y0024103
X0090973Y0024527
X0090549Y0024951
X0090124Y0025376
X00897Y00258
X0089276Y0026224
X0088882Y0026677
X0088164Y002688
X008815Y00258
X0087381Y0025783
X0086925Y0025404
X0086507Y0024959
X0087Y002445
X008655Y00239
X0087Y002305
X0087016Y002167
X00884Y002165
X00898
X00912
Y002305
X00898
Y002445
X00884
Y002305
X00856
X008486Y0023412
X0085284Y0023836
X0084424Y0022974
X0084Y002255
X0084295Y0021524
X008485Y0022
X00856Y002165
X008495Y0021
X0082849Y0021167
X0082591Y0021736
X00828Y002355
X0083224Y0023974
X0083606Y0024404
X0081727Y0024826
X0081Y002455
X00803
X008055Y002285
X00799Y00227
X007835
X0077273Y0022799
X00765Y002345
X00747Y002355
X00733Y0021798
X007338Y002111
X0072276Y0022775
X00714Y00228
X007125Y002485
X00713Y002575
X0071115Y0026458
X0070124Y0026729
X0069378Y00268
X006955Y00274
X00698Y002805
X007015Y002905
X0072477Y0028728
X00729Y00308
X007345Y00321
X00744Y003285
X00758
X00772
X00786
X008
X00814
X0082624Y0032926
X0083049Y0032501
X0083473Y0032077
X0083932Y0031677
X0084326Y0031224
X008475Y00308
X0085174Y0030376
X0085599Y0029951
X0086023Y0029527
X008648Y0028983
X00856Y002865
Y002725
X0085727Y0026525
X0085303Y0026101
X0084879Y0025677
X0086151Y002695
X0086576Y0027374
X0087028Y0027768
X0087178Y0028381
X0083992Y002862
X00842Y003005
X00828
Y003145
X00814
Y003005
X008
Y003145
X00786
Y003005
X00772
Y003145
X00758
Y003425
X00772
X00786
X008
X0080838Y0034512
X0081382Y0034227
X0081776Y0033774
X00822Y003335
X008Y002865
X00776Y002815
X007625Y00282
X007505Y002755
X00747Y00296
X00744Y003425
X0073
X00711Y0034529
X0071507Y0031599
X006845Y00321
X00683Y003065
X006595Y00321
X006565Y0034529
X00626Y00327
X005965Y003295
X00602Y0034529
X005715Y00329
X005585
X005449
X005475Y0034529
X005455Y002695
X005585
X00573Y002455
X0057925Y0024275
X005925Y002495
X00618Y002725
X00622Y00296
X006315Y002925
X006455Y00296
X00672Y00246
X006735Y00214
X00672Y00196
X00674Y00186
X0068378Y0018928
X0068376Y0016649
X0069986Y001565
X00724Y0015798
X00722Y00171
X0071628Y0017947
X007385Y001785
X0074315Y001572
X00762Y0016
X00809
X008315Y001565
X0084328Y0014986
X00851Y0015
X008585
X00864Y0017
X0086383Y0019712
X0086833Y0020196
X0088265Y0020193
X00898Y002025
X00912
Y001885
Y001745
Y001605
X00898Y001745
Y001885
X00897Y00146
X00823Y001445
X008465Y0018
X008405Y001875
X0083578Y0019212
X0083111Y001969
X008095Y002075
X0078613Y0018415
X0076344Y0020654
X007685Y00251
X00777Y002495
X00789Y002525
X008187Y0026498
X00701Y00215
X00641Y00214
X00647Y00196
X00622
X00619Y00169
X0063424Y001692
X005405Y001685
X005415Y001455
X00545Y00195
X00525
Y00175
X005215Y00219
X004825
X004695Y00209
Y001995
X004595Y00221
X00468Y002355
X004775Y00246
X004905Y00236
X00491Y00275
X00475Y002745
X00472Y00296
X004518Y0030398
X0045225Y00313
X0043875
X004385Y00304
X00422Y00314
X0041482Y003136
X004045Y0031328
X0040055Y0029533
X0041275Y0029175
X004135Y0027862
X004245Y00281
X0043Y00267
X004395Y002665
X0041573Y0025568
X00422Y00246
X004135Y002405
X00395Y0024852
X003915Y00257
X003805Y002615
X0038135Y0026866
X0038665Y0027147
X00399Y00267
X00376Y00256
X003685Y00261
X0037653Y0023947
X0036345Y0022635
X003499Y002392
X0035039Y002125
X0034907Y0019347
X0037595Y0019349
X0037645Y0021285
X0039491Y0021385
X0041122Y0020699
X003969Y0019127
X004095Y00171
X004345
X00443Y00151
X0045635Y0016095
X0047523Y0016127
X00497Y00146
X0035991Y0014813
X0036018Y0016072
X003595Y00171
X0032973Y0014877
X00322Y00196
X003245Y002545
X003095Y00271
X0033547Y0027873
X0034551Y0027844
X0035583Y0027824
X00361Y0031
X00369Y003205
X00384Y0034529
X0040454Y003362
X00415Y003325
X0044143Y0034507
X00493Y0034529
X005105Y00345
X005025Y003295
X005095Y00321
X005255Y00336
X005355Y00345
X00516Y002945
X005215Y002855
X00516Y002775
X0051479Y0026821
X00537Y002495
X00454Y00246
X0027223Y0022487
X002605Y00234
X0023731Y002339
X0023673Y0021287
X0023538Y0020233
X0022273Y0020187
X0020773Y0020255
X0020106Y002027
X0020423Y0019237
Y0018487
X001845Y00171
X001595
X00172Y00146
X0024273Y0015387
X002595Y00171
X002845
X0026223Y0020187
X0024523Y0019187
X00214Y002255
X00203
Y002365
Y002475
X00214
Y002365
X0021411Y0027132
X0020811Y0028836
X0020073Y0028487
X0019375Y0028886
X0018113Y0027895
X00182Y002715
X0018125Y0025987
X0018973Y0026187
X0017823Y0024427
X001775Y0023
X0015023Y0022687
X0015483Y0020937
X0014373Y0020137
X00152Y00258
X001555Y002665
X001695Y002925
X0016689Y00345
X002205Y0034529
X00239Y003445
X00275Y0034529
X0027523Y0031437
X0026398Y0031712
X002805Y003045
X002915Y002955
X003115Y003125
X003295Y0034529
X0024502Y0029885
X002375Y00299
X0022959Y0029887
X0022943Y0029239
X0023Y00285
X0024573Y0026387
X001405Y00283
X0013933Y0032988
X001115Y0034529
X000845Y00321
X000345
X0000521Y0032832
Y0027382
Y0021932
X000085Y00199
X0002528Y001885
X0002593Y0016177
X0003193
X000355Y0017
X000415Y00159
X000405Y001535
Y001435
X00022Y00146
X0000521Y0016482
X000495Y001735
X000505Y00155
X000655Y001555
X000625Y002165
X0006255Y0022292
X000625Y002295
X0004324Y0023964
X00079Y002165
X0011138Y0021172
X0012398Y0022862
Y0023962
X0012998Y0023412
X0011933Y001883
X00057Y0034529
T03
X002758Y000435
X003012
X004013Y00044
X004267
X0007702Y0025858
X0005162
X0002622
M30
