G04*
G04 #@! TF.GenerationSoftware,Altium Limited,Altium Designer,24.2.2 (26)*
G04*
G04 Layer_Physical_Order=2*
G04 Layer_Color=36540*
%FSLAX43Y43*%
%MOMM*%
G71*
G04*
G04 #@! TF.SameCoordinates,4F7CD7CC-9D04-48A1-B46F-AFD2B6BA45A4*
G04*
G04*
G04 #@! TF.FilePolarity,Positive*
G04*
G01*
G75*
%ADD14C,0.100*%
%ADD168C,1.600*%
%ADD169R,1.600X1.600*%
%ADD171C,1.850*%
%ADD172O,2.100X1.100*%
%ADD173O,2.600X1.100*%
%ADD174O,3.600X1.100*%
%ADD175C,0.450*%
%ADD176C,0.500*%
G36*
X84504Y31546D02*
X87780Y28270D01*
X85746Y26236D01*
X85741D01*
X85331Y25826D01*
X84947Y26209D01*
Y27013D01*
X84915Y27035D01*
X82544Y29406D01*
X82479Y29471D01*
X82479Y29521D01*
X81004Y28046D01*
X83363Y25687D01*
X83364Y25096D01*
X83985Y24475D01*
X82781Y23271D01*
X82340Y23265D01*
X82325Y23250D01*
X81550D01*
Y23200D01*
X81018Y22668D01*
X80910Y22740D01*
X80925Y22775D01*
Y22925D01*
X80868Y23062D01*
X80762Y23168D01*
X80625Y23225D01*
X80475D01*
X80338Y23168D01*
X80232Y23062D01*
X80230Y23057D01*
X80105Y23021D01*
X79975Y23075D01*
X79825D01*
X79688Y23018D01*
X79582Y22912D01*
X79525Y22775D01*
Y22625D01*
X79582Y22488D01*
X79688Y22382D01*
X79825Y22325D01*
X79975D01*
X80112Y22382D01*
X80218Y22488D01*
X80220Y22493D01*
X80345Y22529D01*
X80475Y22475D01*
X80625D01*
X80660Y22490D01*
X80732Y22382D01*
X80404Y22054D01*
X80404Y21696D01*
X81150Y20950D01*
X81156D01*
X81547Y20947D01*
X82527Y21927D01*
X83077Y21927D01*
X83254Y22104D01*
X88600Y27450D01*
X99741Y16322D01*
X99741Y2000D01*
Y1829D01*
X99674Y1492D01*
X99543Y1175D01*
X99352Y890D01*
X99110Y648D01*
X98825Y457D01*
X98508Y326D01*
X98171Y259D01*
X98000D01*
X2000Y259D01*
X1829Y259D01*
X1492Y326D01*
X1175Y457D01*
X890Y648D01*
X648Y890D01*
X457Y1175D01*
X326Y1492D01*
X259Y1829D01*
Y2567D01*
X386Y2611D01*
X450Y2527D01*
X618Y2398D01*
X814Y2317D01*
X1024Y2289D01*
X1647D01*
Y3100D01*
Y3911D01*
X1024D01*
X814Y3883D01*
X618Y3802D01*
X450Y3673D01*
X386Y3589D01*
X259Y3633D01*
Y11807D01*
X386Y11851D01*
X450Y11767D01*
X618Y11638D01*
X814Y11557D01*
X1024Y11529D01*
X1647D01*
Y12340D01*
Y13151D01*
X1024D01*
X814Y13123D01*
X618Y13042D01*
X450Y12913D01*
X386Y12829D01*
X259Y12873D01*
Y33000D01*
X259Y33171D01*
X326Y33508D01*
X457Y33825D01*
X648Y34110D01*
X890Y34352D01*
X1175Y34543D01*
X1492Y34674D01*
X1829Y34741D01*
X2000Y34741D01*
X33908Y34741D01*
X33934Y34614D01*
X33795Y34557D01*
X33516Y34370D01*
X33280Y34134D01*
X33093Y33855D01*
X32965Y33546D01*
X32900Y33217D01*
Y32883D01*
X32965Y32554D01*
X33093Y32245D01*
X33280Y31966D01*
X33516Y31730D01*
X33795Y31543D01*
X34104Y31415D01*
X34433Y31350D01*
X34767D01*
X35096Y31415D01*
X35405Y31543D01*
X35684Y31730D01*
X35920Y31966D01*
X36107Y32245D01*
X36235Y32554D01*
X36300Y32883D01*
Y33217D01*
X36235Y33546D01*
X36107Y33855D01*
X35920Y34134D01*
X35684Y34370D01*
X35405Y34557D01*
X35266Y34614D01*
X35292Y34741D01*
X81322Y34741D01*
X84504Y31546D01*
D02*
G37*
G36*
X58408Y-11598D02*
X58431D01*
X58483Y-11604D01*
X58542Y-11612D01*
X58603Y-11626D01*
X58669Y-11643D01*
X58733Y-11665D01*
X58736D01*
X58742Y-11668D01*
X58750Y-11670D01*
X58761Y-11676D01*
X58792Y-11693D01*
X58830Y-11712D01*
X58872Y-11740D01*
X58916Y-11773D01*
X58958Y-11809D01*
X58997Y-11854D01*
X59003Y-11859D01*
X59014Y-11876D01*
X59030Y-11901D01*
X59052Y-11937D01*
X59075Y-11981D01*
X59100Y-12037D01*
X59125Y-12098D01*
X59144Y-12167D01*
X58914Y-12229D01*
Y-12226D01*
X58911Y-12223D01*
X58908Y-12215D01*
X58905Y-12204D01*
X58897Y-12179D01*
X58886Y-12145D01*
X58869Y-12106D01*
X58850Y-12070D01*
X58830Y-12031D01*
X58805Y-11998D01*
X58803Y-11995D01*
X58794Y-11984D01*
X58778Y-11970D01*
X58758Y-11951D01*
X58733Y-11929D01*
X58700Y-11906D01*
X58664Y-11884D01*
X58622Y-11865D01*
X58617Y-11862D01*
X58603Y-11857D01*
X58578Y-11848D01*
X58544Y-11837D01*
X58506Y-11829D01*
X58461Y-11820D01*
X58411Y-11815D01*
X58358Y-11812D01*
X58328D01*
X58314Y-11815D01*
X58297D01*
X58256Y-11818D01*
X58209Y-11826D01*
X58156Y-11834D01*
X58106Y-11848D01*
X58056Y-11868D01*
X58050Y-11870D01*
X58034Y-11876D01*
X58011Y-11890D01*
X57984Y-11904D01*
X57950Y-11926D01*
X57914Y-11948D01*
X57881Y-11976D01*
X57850Y-12006D01*
X57848Y-12009D01*
X57836Y-12020D01*
X57823Y-12040D01*
X57806Y-12062D01*
X57787Y-12090D01*
X57767Y-12123D01*
X57748Y-12159D01*
X57728Y-12198D01*
Y-12201D01*
X57725Y-12206D01*
X57723Y-12215D01*
X57717Y-12229D01*
X57712Y-12245D01*
X57706Y-12265D01*
X57698Y-12287D01*
X57692Y-12312D01*
X57678Y-12370D01*
X57667Y-12437D01*
X57659Y-12506D01*
X57656Y-12584D01*
Y-12587D01*
Y-12595D01*
Y-12609D01*
X57659Y-12626D01*
Y-12648D01*
X57662Y-12675D01*
X57664Y-12703D01*
X57667Y-12734D01*
X57678Y-12803D01*
X57692Y-12875D01*
X57714Y-12948D01*
X57742Y-13017D01*
Y-13020D01*
X57748Y-13025D01*
X57750Y-13034D01*
X57759Y-13045D01*
X57778Y-13075D01*
X57809Y-13114D01*
X57845Y-13156D01*
X57889Y-13197D01*
X57942Y-13236D01*
X58000Y-13272D01*
X58003D01*
X58009Y-13275D01*
X58017Y-13281D01*
X58031Y-13286D01*
X58045Y-13292D01*
X58064Y-13297D01*
X58109Y-13314D01*
X58164Y-13328D01*
X58225Y-13342D01*
X58292Y-13353D01*
X58361Y-13356D01*
X58389D01*
X58406Y-13353D01*
X58422D01*
X58464Y-13347D01*
X58514Y-13342D01*
X58567Y-13331D01*
X58625Y-13314D01*
X58683Y-13295D01*
X58686D01*
X58692Y-13292D01*
X58697Y-13289D01*
X58708Y-13283D01*
X58739Y-13270D01*
X58772Y-13253D01*
X58811Y-13234D01*
X58853Y-13211D01*
X58891Y-13186D01*
X58925Y-13159D01*
Y-12798D01*
X58358D01*
Y-12570D01*
X59175D01*
Y-13283D01*
X59172Y-13286D01*
X59166Y-13289D01*
X59155Y-13297D01*
X59141Y-13308D01*
X59125Y-13320D01*
X59105Y-13333D01*
X59080Y-13350D01*
X59055Y-13367D01*
X58997Y-13403D01*
X58930Y-13442D01*
X58861Y-13478D01*
X58786Y-13508D01*
X58783D01*
X58778Y-13511D01*
X58767Y-13514D01*
X58753Y-13519D01*
X58733Y-13525D01*
X58711Y-13533D01*
X58686Y-13539D01*
X58661Y-13544D01*
X58600Y-13558D01*
X58531Y-13572D01*
X58456Y-13581D01*
X58378Y-13583D01*
X58350D01*
X58331Y-13581D01*
X58306D01*
X58275Y-13578D01*
X58242Y-13572D01*
X58206Y-13569D01*
X58125Y-13553D01*
X58039Y-13533D01*
X57950Y-13503D01*
X57906Y-13486D01*
X57861Y-13464D01*
X57859Y-13461D01*
X57850Y-13458D01*
X57839Y-13450D01*
X57823Y-13442D01*
X57803Y-13428D01*
X57784Y-13414D01*
X57731Y-13375D01*
X57675Y-13325D01*
X57617Y-13264D01*
X57562Y-13195D01*
X57512Y-13114D01*
Y-13111D01*
X57506Y-13103D01*
X57501Y-13092D01*
X57492Y-13072D01*
X57484Y-13053D01*
X57476Y-13025D01*
X57464Y-12998D01*
X57453Y-12964D01*
X57442Y-12928D01*
X57431Y-12886D01*
X57423Y-12845D01*
X57415Y-12800D01*
X57401Y-12703D01*
X57395Y-12601D01*
Y-12598D01*
Y-12587D01*
Y-12573D01*
X57398Y-12553D01*
Y-12528D01*
X57401Y-12498D01*
X57406Y-12467D01*
X57409Y-12431D01*
X57417Y-12392D01*
X57423Y-12351D01*
X57445Y-12262D01*
X57473Y-12170D01*
X57512Y-12079D01*
X57514Y-12076D01*
X57517Y-12068D01*
X57523Y-12056D01*
X57534Y-12040D01*
X57545Y-12018D01*
X57559Y-11995D01*
X57598Y-11943D01*
X57645Y-11882D01*
X57703Y-11823D01*
X57770Y-11765D01*
X57809Y-11740D01*
X57848Y-11715D01*
X57850Y-11712D01*
X57859Y-11709D01*
X57870Y-11704D01*
X57886Y-11695D01*
X57909Y-11687D01*
X57934Y-11676D01*
X57961Y-11665D01*
X57995Y-11654D01*
X58031Y-11643D01*
X58070Y-11634D01*
X58111Y-11623D01*
X58156Y-11615D01*
X58253Y-11601D01*
X58303Y-11596D01*
X58392D01*
X58408Y-11598D01*
D02*
G37*
G36*
X60341Y-13550D02*
X60105D01*
Y-12048D01*
X60102Y-12051D01*
X60088Y-12062D01*
X60071Y-12079D01*
X60044Y-12098D01*
X60013Y-12123D01*
X59974Y-12151D01*
X59930Y-12181D01*
X59880Y-12212D01*
X59877D01*
X59874Y-12215D01*
X59858Y-12226D01*
X59830Y-12240D01*
X59797Y-12256D01*
X59758Y-12276D01*
X59716Y-12295D01*
X59674Y-12315D01*
X59633Y-12331D01*
Y-12104D01*
X59635D01*
X59641Y-12098D01*
X59652Y-12095D01*
X59666Y-12087D01*
X59683Y-12079D01*
X59702Y-12068D01*
X59749Y-12040D01*
X59805Y-12009D01*
X59860Y-11970D01*
X59919Y-11926D01*
X59977Y-11879D01*
X59980Y-11876D01*
X59983Y-11873D01*
X59991Y-11865D01*
X60002Y-11857D01*
X60027Y-11829D01*
X60060Y-11795D01*
X60094Y-11757D01*
X60130Y-11712D01*
X60160Y-11668D01*
X60188Y-11621D01*
X60341D01*
Y-13550D01*
D02*
G37*
G36*
X57020D02*
X56751D01*
Y-13281D01*
X57020D01*
Y-13550D01*
D02*
G37*
G36*
X16070Y-11598D02*
X16092D01*
X16145Y-11604D01*
X16203Y-11612D01*
X16264Y-11626D01*
X16330Y-11643D01*
X16394Y-11665D01*
X16397D01*
X16403Y-11668D01*
X16411Y-11670D01*
X16422Y-11676D01*
X16453Y-11693D01*
X16492Y-11712D01*
X16533Y-11740D01*
X16578Y-11773D01*
X16619Y-11809D01*
X16658Y-11854D01*
X16664Y-11859D01*
X16675Y-11876D01*
X16691Y-11901D01*
X16714Y-11937D01*
X16736Y-11981D01*
X16761Y-12037D01*
X16786Y-12098D01*
X16805Y-12167D01*
X16575Y-12229D01*
Y-12226D01*
X16572Y-12223D01*
X16569Y-12215D01*
X16566Y-12204D01*
X16558Y-12179D01*
X16547Y-12145D01*
X16530Y-12106D01*
X16511Y-12070D01*
X16492Y-12031D01*
X16467Y-11998D01*
X16464Y-11995D01*
X16455Y-11984D01*
X16439Y-11970D01*
X16419Y-11951D01*
X16394Y-11929D01*
X16361Y-11906D01*
X16325Y-11884D01*
X16283Y-11865D01*
X16278Y-11862D01*
X16264Y-11857D01*
X16239Y-11848D01*
X16206Y-11837D01*
X16167Y-11829D01*
X16122Y-11820D01*
X16072Y-11815D01*
X16020Y-11812D01*
X15989D01*
X15975Y-11815D01*
X15958D01*
X15917Y-11818D01*
X15870Y-11826D01*
X15817Y-11834D01*
X15767Y-11848D01*
X15717Y-11868D01*
X15711Y-11870D01*
X15695Y-11876D01*
X15673Y-11890D01*
X15645Y-11904D01*
X15611Y-11926D01*
X15575Y-11948D01*
X15542Y-11976D01*
X15512Y-12006D01*
X15509Y-12009D01*
X15498Y-12020D01*
X15484Y-12040D01*
X15467Y-12062D01*
X15448Y-12090D01*
X15428Y-12123D01*
X15409Y-12159D01*
X15389Y-12198D01*
Y-12201D01*
X15387Y-12206D01*
X15384Y-12215D01*
X15378Y-12229D01*
X15373Y-12245D01*
X15367Y-12265D01*
X15359Y-12287D01*
X15353Y-12312D01*
X15339Y-12370D01*
X15328Y-12437D01*
X15320Y-12506D01*
X15317Y-12584D01*
Y-12587D01*
Y-12595D01*
Y-12609D01*
X15320Y-12626D01*
Y-12648D01*
X15323Y-12675D01*
X15326Y-12703D01*
X15328Y-12734D01*
X15339Y-12803D01*
X15353Y-12875D01*
X15375Y-12948D01*
X15403Y-13017D01*
Y-13020D01*
X15409Y-13025D01*
X15412Y-13034D01*
X15420Y-13045D01*
X15439Y-13075D01*
X15470Y-13114D01*
X15506Y-13156D01*
X15550Y-13197D01*
X15603Y-13236D01*
X15661Y-13272D01*
X15664D01*
X15670Y-13275D01*
X15678Y-13281D01*
X15692Y-13286D01*
X15706Y-13292D01*
X15725Y-13297D01*
X15770Y-13314D01*
X15825Y-13328D01*
X15886Y-13342D01*
X15953Y-13353D01*
X16022Y-13356D01*
X16050D01*
X16067Y-13353D01*
X16083D01*
X16125Y-13347D01*
X16175Y-13342D01*
X16228Y-13331D01*
X16286Y-13314D01*
X16344Y-13295D01*
X16347D01*
X16353Y-13292D01*
X16358Y-13289D01*
X16369Y-13283D01*
X16400Y-13270D01*
X16433Y-13253D01*
X16472Y-13234D01*
X16514Y-13211D01*
X16553Y-13186D01*
X16586Y-13159D01*
Y-12798D01*
X16020D01*
Y-12570D01*
X16836D01*
Y-13283D01*
X16833Y-13286D01*
X16827Y-13289D01*
X16816Y-13297D01*
X16802Y-13308D01*
X16786Y-13320D01*
X16766Y-13333D01*
X16741Y-13350D01*
X16716Y-13367D01*
X16658Y-13403D01*
X16591Y-13442D01*
X16522Y-13478D01*
X16447Y-13508D01*
X16444D01*
X16439Y-13511D01*
X16428Y-13514D01*
X16414Y-13519D01*
X16394Y-13525D01*
X16372Y-13533D01*
X16347Y-13539D01*
X16322Y-13544D01*
X16261Y-13558D01*
X16192Y-13572D01*
X16117Y-13581D01*
X16039Y-13583D01*
X16011D01*
X15992Y-13581D01*
X15967D01*
X15936Y-13578D01*
X15903Y-13572D01*
X15867Y-13569D01*
X15786Y-13553D01*
X15700Y-13533D01*
X15611Y-13503D01*
X15567Y-13486D01*
X15523Y-13464D01*
X15520Y-13461D01*
X15512Y-13458D01*
X15500Y-13450D01*
X15484Y-13442D01*
X15464Y-13428D01*
X15445Y-13414D01*
X15392Y-13375D01*
X15337Y-13325D01*
X15278Y-13264D01*
X15223Y-13195D01*
X15173Y-13114D01*
Y-13111D01*
X15167Y-13103D01*
X15162Y-13092D01*
X15153Y-13072D01*
X15145Y-13053D01*
X15137Y-13025D01*
X15126Y-12998D01*
X15115Y-12964D01*
X15103Y-12928D01*
X15092Y-12886D01*
X15084Y-12845D01*
X15076Y-12800D01*
X15062Y-12703D01*
X15056Y-12601D01*
Y-12598D01*
Y-12587D01*
Y-12573D01*
X15059Y-12553D01*
Y-12528D01*
X15062Y-12498D01*
X15067Y-12467D01*
X15070Y-12431D01*
X15078Y-12392D01*
X15084Y-12351D01*
X15106Y-12262D01*
X15134Y-12170D01*
X15173Y-12079D01*
X15176Y-12076D01*
X15178Y-12068D01*
X15184Y-12056D01*
X15195Y-12040D01*
X15206Y-12018D01*
X15220Y-11995D01*
X15259Y-11943D01*
X15306Y-11882D01*
X15364Y-11823D01*
X15431Y-11765D01*
X15470Y-11740D01*
X15509Y-11715D01*
X15512Y-11712D01*
X15520Y-11709D01*
X15531Y-11704D01*
X15548Y-11695D01*
X15570Y-11687D01*
X15595Y-11676D01*
X15623Y-11665D01*
X15656Y-11654D01*
X15692Y-11643D01*
X15731Y-11634D01*
X15772Y-11623D01*
X15817Y-11615D01*
X15914Y-11601D01*
X15964Y-11596D01*
X16053D01*
X16070Y-11598D01*
D02*
G37*
G36*
X18721Y-13550D02*
X18457D01*
X17452Y-12043D01*
Y-13550D01*
X17208D01*
Y-11629D01*
X17469D01*
X18477Y-13139D01*
Y-11629D01*
X18721D01*
Y-13550D01*
D02*
G37*
G36*
X19937Y-11632D02*
X19992Y-11634D01*
X20048Y-11640D01*
X20103Y-11648D01*
X20151Y-11657D01*
X20153D01*
X20159Y-11659D01*
X20167D01*
X20178Y-11665D01*
X20209Y-11673D01*
X20248Y-11687D01*
X20292Y-11707D01*
X20339Y-11732D01*
X20387Y-11759D01*
X20431Y-11795D01*
X20434Y-11798D01*
X20437Y-11801D01*
X20445Y-11809D01*
X20456Y-11818D01*
X20484Y-11845D01*
X20517Y-11884D01*
X20553Y-11931D01*
X20592Y-11987D01*
X20628Y-12051D01*
X20659Y-12123D01*
Y-12126D01*
X20661Y-12131D01*
X20667Y-12142D01*
X20670Y-12159D01*
X20678Y-12179D01*
X20684Y-12201D01*
X20689Y-12226D01*
X20698Y-12256D01*
X20706Y-12287D01*
X20711Y-12323D01*
X20725Y-12401D01*
X20734Y-12487D01*
X20736Y-12581D01*
Y-12584D01*
Y-12589D01*
Y-12603D01*
Y-12617D01*
X20734Y-12637D01*
Y-12659D01*
X20731Y-12712D01*
X20722Y-12773D01*
X20714Y-12837D01*
X20700Y-12903D01*
X20684Y-12970D01*
Y-12973D01*
X20681Y-12978D01*
X20678Y-12986D01*
X20675Y-12998D01*
X20664Y-13028D01*
X20648Y-13067D01*
X20631Y-13111D01*
X20609Y-13156D01*
X20581Y-13203D01*
X20553Y-13247D01*
X20550Y-13253D01*
X20539Y-13267D01*
X20523Y-13286D01*
X20500Y-13311D01*
X20475Y-13339D01*
X20445Y-13367D01*
X20414Y-13397D01*
X20378Y-13422D01*
X20373Y-13425D01*
X20362Y-13433D01*
X20342Y-13445D01*
X20314Y-13458D01*
X20281Y-13475D01*
X20242Y-13489D01*
X20198Y-13506D01*
X20148Y-13519D01*
X20142D01*
X20134Y-13522D01*
X20126Y-13525D01*
X20098Y-13528D01*
X20059Y-13533D01*
X20015Y-13539D01*
X19962Y-13544D01*
X19903Y-13547D01*
X19840Y-13550D01*
X19148D01*
Y-11629D01*
X19887D01*
X19937Y-11632D01*
D02*
G37*
%LPC*%
G36*
X59725Y33325D02*
X59575D01*
X59438Y33268D01*
X59332Y33162D01*
X59275Y33025D01*
Y32875D01*
X59332Y32738D01*
X59438Y32632D01*
X59575Y32575D01*
X59725D01*
X59862Y32632D01*
X59968Y32738D01*
X60025Y32875D01*
Y33025D01*
X59968Y33162D01*
X59862Y33268D01*
X59725Y33325D01*
D02*
G37*
G36*
X50325D02*
X50175D01*
X50038Y33268D01*
X49932Y33162D01*
X49875Y33025D01*
Y32875D01*
X49932Y32738D01*
X50038Y32632D01*
X50175Y32575D01*
X50325D01*
X50462Y32632D01*
X50568Y32738D01*
X50625Y32875D01*
Y33025D01*
X50568Y33162D01*
X50462Y33268D01*
X50325Y33325D01*
D02*
G37*
G36*
X54565Y33275D02*
X54416D01*
X54278Y33218D01*
X54172Y33112D01*
X54115Y32975D01*
Y32825D01*
X54172Y32688D01*
X54278Y32582D01*
X54416Y32525D01*
X54565D01*
X54703Y32582D01*
X54808Y32688D01*
X54865Y32825D01*
Y32975D01*
X54808Y33112D01*
X54703Y33218D01*
X54565Y33275D01*
D02*
G37*
G36*
X62675Y33075D02*
X62525D01*
X62388Y33018D01*
X62282Y32912D01*
X62225Y32775D01*
Y32625D01*
X62282Y32488D01*
X62388Y32382D01*
X62525Y32325D01*
X62675D01*
X62812Y32382D01*
X62918Y32488D01*
X62975Y32625D01*
Y32775D01*
X62918Y32912D01*
X62812Y33018D01*
X62675Y33075D01*
D02*
G37*
G36*
X36975Y32425D02*
X36825D01*
X36688Y32368D01*
X36582Y32262D01*
X36525Y32125D01*
Y31975D01*
X36582Y31838D01*
X36688Y31732D01*
X36825Y31675D01*
X36975D01*
X37112Y31732D01*
X37218Y31838D01*
X37275Y31975D01*
Y32125D01*
X37218Y32262D01*
X37112Y32368D01*
X36975Y32425D01*
D02*
G37*
G36*
X26472Y32087D02*
X26323D01*
X26185Y32030D01*
X26080Y31925D01*
X26023Y31787D01*
Y31638D01*
X26080Y31500D01*
X26185Y31394D01*
X26323Y31337D01*
X26472D01*
X26610Y31394D01*
X26715Y31500D01*
X26773Y31638D01*
Y31787D01*
X26715Y31925D01*
X26610Y32030D01*
X26472Y32087D01*
D02*
G37*
G36*
X41557Y31735D02*
X41408D01*
X41270Y31678D01*
X41164Y31573D01*
X41107Y31435D01*
Y31286D01*
X41164Y31148D01*
X41270Y31042D01*
X41408Y30985D01*
X41557D01*
X41695Y31042D01*
X41800Y31148D01*
X41857Y31286D01*
Y31435D01*
X41800Y31573D01*
X41695Y31678D01*
X41557Y31735D01*
D02*
G37*
G36*
X40525Y31703D02*
X40376D01*
X40238Y31646D01*
X40132Y31541D01*
X40075Y31403D01*
Y31254D01*
X40132Y31116D01*
X40238Y31011D01*
X40376Y30953D01*
X40525D01*
X40663Y31011D01*
X40768Y31116D01*
X40825Y31254D01*
Y31403D01*
X40768Y31541D01*
X40663Y31646D01*
X40525Y31703D01*
D02*
G37*
G36*
X45300Y31675D02*
X45150D01*
X45013Y31618D01*
X44907Y31513D01*
X44850Y31375D01*
Y31226D01*
X44907Y31088D01*
X45013Y30982D01*
X45150Y30925D01*
X45300D01*
X45437Y30982D01*
X45543Y31088D01*
X45600Y31226D01*
Y31375D01*
X45543Y31513D01*
X45437Y31618D01*
X45300Y31675D01*
D02*
G37*
G36*
X43950D02*
X43800D01*
X43663Y31618D01*
X43557Y31513D01*
X43500Y31375D01*
Y31226D01*
X43557Y31088D01*
X43663Y30982D01*
X43800Y30925D01*
X43950D01*
X44087Y30982D01*
X44193Y31088D01*
X44250Y31226D01*
Y31375D01*
X44193Y31513D01*
X44087Y31618D01*
X43950Y31675D01*
D02*
G37*
G36*
X68375Y31025D02*
X68225D01*
X68088Y30968D01*
X67982Y30862D01*
X67925Y30725D01*
Y30575D01*
X67982Y30438D01*
X68088Y30332D01*
X68225Y30275D01*
X68375D01*
X68512Y30332D01*
X68618Y30438D01*
X68675Y30575D01*
Y30725D01*
X68618Y30862D01*
X68512Y30968D01*
X68375Y31025D01*
D02*
G37*
G36*
X23825Y30275D02*
X23675D01*
X23538Y30218D01*
X23432Y30112D01*
X23420Y30084D01*
X23283D01*
X23277Y30099D01*
X23171Y30205D01*
X23034Y30262D01*
X22884D01*
X22747Y30205D01*
X22641Y30099D01*
X22584Y29961D01*
Y29812D01*
X22641Y29674D01*
X22661Y29654D01*
X22731Y29557D01*
X22625Y29452D01*
X22568Y29314D01*
Y29165D01*
X22625Y29027D01*
X22731Y28921D01*
X22868Y28864D01*
X23018D01*
X23155Y28921D01*
X23261Y29027D01*
X23318Y29165D01*
Y29314D01*
X23261Y29452D01*
X23241Y29472D01*
X23171Y29569D01*
X23277Y29674D01*
X23289Y29702D01*
X23426D01*
X23432Y29688D01*
X23538Y29582D01*
X23675Y29525D01*
X23825D01*
X23962Y29582D01*
X24049Y29668D01*
X24148Y29671D01*
X24195Y29662D01*
X24290Y29567D01*
X24428Y29510D01*
X24577D01*
X24715Y29567D01*
X24820Y29673D01*
X24877Y29810D01*
Y29960D01*
X24820Y30097D01*
X24715Y30203D01*
X24577Y30260D01*
X24428D01*
X24290Y30203D01*
X24204Y30117D01*
X24104Y30114D01*
X24057Y30123D01*
X23962Y30218D01*
X23825Y30275D01*
D02*
G37*
G36*
X28125Y30825D02*
X27975D01*
X27838Y30768D01*
X27732Y30662D01*
X27675Y30525D01*
Y30375D01*
X27732Y30238D01*
X27838Y30132D01*
X27975Y30075D01*
X28125D01*
X28262Y30132D01*
X28368Y30238D01*
X28425Y30375D01*
Y30525D01*
X28368Y30662D01*
X28262Y30768D01*
X28125Y30825D01*
D02*
G37*
G36*
X43925Y30775D02*
X43775D01*
X43638Y30718D01*
X43532Y30612D01*
X43475Y30475D01*
Y30325D01*
X43532Y30188D01*
X43638Y30082D01*
X43775Y30025D01*
X43925D01*
X44062Y30082D01*
X44168Y30188D01*
X44225Y30325D01*
Y30475D01*
X44168Y30612D01*
X44062Y30718D01*
X43925Y30775D01*
D02*
G37*
G36*
X64625Y29975D02*
X64475D01*
X64338Y29918D01*
X64232Y29812D01*
X64175Y29675D01*
Y29525D01*
X64232Y29388D01*
X64338Y29282D01*
X64475Y29225D01*
X64625D01*
X64762Y29282D01*
X64868Y29388D01*
X64925Y29525D01*
Y29675D01*
X64868Y29812D01*
X64762Y29918D01*
X64625Y29975D01*
D02*
G37*
G36*
X51675Y29825D02*
X51525D01*
X51388Y29768D01*
X51282Y29662D01*
X51225Y29525D01*
Y29375D01*
X51282Y29238D01*
X51388Y29132D01*
X51525Y29075D01*
X51675D01*
X51812Y29132D01*
X51918Y29238D01*
X51975Y29375D01*
Y29525D01*
X51918Y29662D01*
X51812Y29768D01*
X51675Y29825D01*
D02*
G37*
G36*
X63225Y29625D02*
X63075D01*
X62938Y29568D01*
X62832Y29462D01*
X62775Y29325D01*
Y29175D01*
X62832Y29038D01*
X62938Y28932D01*
X63075Y28875D01*
X63225D01*
X63362Y28932D01*
X63468Y29038D01*
X63525Y29175D01*
Y29325D01*
X63468Y29462D01*
X63362Y29568D01*
X63225Y29625D01*
D02*
G37*
G36*
X17025D02*
X16875D01*
X16738Y29568D01*
X16632Y29462D01*
X16575Y29325D01*
Y29175D01*
X16632Y29038D01*
X16738Y28932D01*
X16875Y28875D01*
X17025D01*
X17162Y28932D01*
X17268Y29038D01*
X17325Y29175D01*
Y29325D01*
X17268Y29462D01*
X17162Y29568D01*
X17025Y29625D01*
D02*
G37*
G36*
X41349Y29550D02*
X41200D01*
X41062Y29493D01*
X40957Y29387D01*
X40900Y29250D01*
Y29100D01*
X40957Y28963D01*
X41062Y28857D01*
X41200Y28800D01*
X41349D01*
X41487Y28857D01*
X41592Y28963D01*
X41650Y29100D01*
Y29250D01*
X41592Y29387D01*
X41487Y29493D01*
X41349Y29550D01*
D02*
G37*
G36*
X8320Y31200D02*
X8004D01*
X7699Y31118D01*
X7425Y30960D01*
X7202Y30737D01*
X7044Y30463D01*
X6962Y30158D01*
Y29842D01*
X7044Y29537D01*
X7202Y29263D01*
X7425Y29040D01*
X7699Y28882D01*
X8004Y28800D01*
X8320D01*
X8625Y28882D01*
X8899Y29040D01*
X9122Y29263D01*
X9280Y29537D01*
X9362Y29842D01*
Y30158D01*
X9280Y30463D01*
X9122Y30737D01*
X8899Y30960D01*
X8625Y31118D01*
X8320Y31200D01*
D02*
G37*
G36*
X5320D02*
X5004D01*
X4699Y31118D01*
X4425Y30960D01*
X4202Y30737D01*
X4044Y30463D01*
X3962Y30158D01*
Y29842D01*
X4044Y29537D01*
X4202Y29263D01*
X4425Y29040D01*
X4699Y28882D01*
X5004Y28800D01*
X5320D01*
X5625Y28882D01*
X5899Y29040D01*
X6122Y29263D01*
X6280Y29537D01*
X6362Y29842D01*
Y30158D01*
X6280Y30463D01*
X6122Y30737D01*
X5899Y30960D01*
X5625Y31118D01*
X5320Y31200D01*
D02*
G37*
G36*
X2320D02*
X2004D01*
X1699Y31118D01*
X1425Y30960D01*
X1202Y30737D01*
X1044Y30463D01*
X962Y30158D01*
Y29842D01*
X1044Y29537D01*
X1202Y29263D01*
X1425Y29040D01*
X1699Y28882D01*
X2004Y28800D01*
X2320D01*
X2625Y28882D01*
X2899Y29040D01*
X3122Y29263D01*
X3280Y29537D01*
X3362Y29842D01*
Y30158D01*
X3280Y30463D01*
X3122Y30737D01*
X2899Y30960D01*
X2625Y31118D01*
X2320Y31200D01*
D02*
G37*
G36*
X70225Y29425D02*
X70075D01*
X69938Y29368D01*
X69832Y29262D01*
X69775Y29125D01*
Y28975D01*
X69832Y28838D01*
X69938Y28732D01*
X70075Y28675D01*
X70225D01*
X70362Y28732D01*
X70468Y28838D01*
X70525Y28975D01*
Y29125D01*
X70468Y29262D01*
X70362Y29368D01*
X70225Y29425D01*
D02*
G37*
G36*
X19449Y29261D02*
X19300D01*
X19162Y29204D01*
X19057Y29098D01*
X19000Y28960D01*
Y28811D01*
X19057Y28673D01*
X19162Y28568D01*
X19300Y28511D01*
X19449D01*
X19571Y28561D01*
X19640Y28535D01*
X19698Y28499D01*
Y28412D01*
X19755Y28275D01*
X19861Y28169D01*
X19998Y28112D01*
X20148D01*
X20285Y28169D01*
X20391Y28275D01*
X20448Y28412D01*
Y28489D01*
X20575Y28542D01*
X20599Y28518D01*
X20737Y28461D01*
X20886D01*
X21024Y28518D01*
X21129Y28624D01*
X21186Y28761D01*
Y28911D01*
X21129Y29048D01*
X21024Y29154D01*
X20886Y29211D01*
X20737D01*
X20599Y29154D01*
X20493Y29048D01*
X20436Y28911D01*
Y28834D01*
X20309Y28781D01*
X20285Y28805D01*
X20148Y28862D01*
X19998D01*
X19877Y28812D01*
X19807Y28838D01*
X19750Y28873D01*
Y28960D01*
X19692Y29098D01*
X19587Y29204D01*
X19449Y29261D01*
D02*
G37*
G36*
X72551Y29103D02*
X72402D01*
X72264Y29046D01*
X72159Y28940D01*
X72102Y28803D01*
Y28653D01*
X72159Y28516D01*
X72264Y28410D01*
X72402Y28353D01*
X72551D01*
X72689Y28410D01*
X72795Y28516D01*
X72852Y28653D01*
Y28803D01*
X72795Y28940D01*
X72689Y29046D01*
X72551Y29103D01*
D02*
G37*
G36*
X51675Y28125D02*
X51525D01*
X51388Y28068D01*
X51282Y27962D01*
X51225Y27825D01*
Y27675D01*
X51282Y27538D01*
X51388Y27432D01*
X51525Y27375D01*
X51675D01*
X51812Y27432D01*
X51918Y27538D01*
X51975Y27675D01*
Y27825D01*
X51918Y27962D01*
X51812Y28068D01*
X51675Y28125D01*
D02*
G37*
G36*
X75125Y27925D02*
X74975D01*
X74838Y27868D01*
X74732Y27762D01*
X74675Y27625D01*
Y27475D01*
X74732Y27338D01*
X74838Y27232D01*
X74975Y27175D01*
X75125D01*
X75262Y27232D01*
X75368Y27338D01*
X75425Y27475D01*
Y27625D01*
X75368Y27762D01*
X75262Y27868D01*
X75125Y27925D01*
D02*
G37*
G36*
X47575Y27825D02*
X47425D01*
X47288Y27768D01*
X47182Y27662D01*
X47125Y27525D01*
Y27375D01*
X47182Y27238D01*
X47288Y27132D01*
X47425Y27075D01*
X47575D01*
X47712Y27132D01*
X47818Y27238D01*
X47875Y27375D01*
Y27525D01*
X47818Y27662D01*
X47712Y27768D01*
X47575Y27825D01*
D02*
G37*
G36*
X18275Y27525D02*
X18125D01*
X17988Y27468D01*
X17882Y27362D01*
X17825Y27225D01*
Y27075D01*
X17882Y26938D01*
X17988Y26832D01*
X18125Y26775D01*
X18275D01*
X18412Y26832D01*
X18518Y26938D01*
X18575Y27075D01*
Y27225D01*
X18518Y27362D01*
X18412Y27468D01*
X18275Y27525D01*
D02*
G37*
G36*
X38740Y27522D02*
X38591D01*
X38453Y27465D01*
X38347Y27360D01*
X38290Y27222D01*
Y27073D01*
X38347Y26935D01*
X38453Y26829D01*
X38591Y26772D01*
X38740D01*
X38878Y26829D01*
X38983Y26935D01*
X39040Y27073D01*
Y27222D01*
X38983Y27360D01*
X38878Y27465D01*
X38740Y27522D01*
D02*
G37*
G36*
X55925Y27325D02*
X55775D01*
X55638Y27268D01*
X55532Y27162D01*
X55475Y27025D01*
Y26875D01*
X55532Y26738D01*
X55638Y26632D01*
X55775Y26575D01*
X55925D01*
X56062Y26632D01*
X56168Y26738D01*
X56225Y26875D01*
Y27025D01*
X56168Y27162D01*
X56062Y27268D01*
X55925Y27325D01*
D02*
G37*
G36*
X54625D02*
X54475D01*
X54338Y27268D01*
X54232Y27162D01*
X54175Y27025D01*
Y26875D01*
X54232Y26738D01*
X54338Y26632D01*
X54475Y26575D01*
X54625D01*
X54762Y26632D01*
X54868Y26738D01*
X54925Y26875D01*
Y27025D01*
X54868Y27162D01*
X54762Y27268D01*
X54625Y27325D01*
D02*
G37*
G36*
X51554Y27196D02*
X51405D01*
X51267Y27139D01*
X51161Y27034D01*
X51104Y26896D01*
Y26747D01*
X51161Y26609D01*
X51267Y26503D01*
X51405Y26446D01*
X51554D01*
X51692Y26503D01*
X51797Y26609D01*
X51854Y26747D01*
Y26896D01*
X51797Y27034D01*
X51692Y27139D01*
X51554Y27196D01*
D02*
G37*
G36*
X69875Y28425D02*
X69725D01*
X69588Y28368D01*
X69482Y28262D01*
X69425Y28125D01*
Y27975D01*
X69458Y27895D01*
X69469Y27823D01*
X69397Y27743D01*
X69338Y27718D01*
X69232Y27612D01*
X69175Y27475D01*
Y27325D01*
X69198Y27269D01*
X69165Y27118D01*
X69060Y27013D01*
X69003Y26875D01*
Y26726D01*
X69060Y26588D01*
X69165Y26482D01*
X69303Y26425D01*
X69452D01*
X69590Y26482D01*
X69696Y26588D01*
X69753Y26726D01*
Y26875D01*
X69729Y26931D01*
X69762Y27082D01*
X69868Y27188D01*
X69925Y27325D01*
Y27475D01*
X69892Y27555D01*
X69881Y27627D01*
X69953Y27707D01*
X70012Y27732D01*
X70118Y27838D01*
X70175Y27975D01*
Y28125D01*
X70118Y28262D01*
X70012Y28368D01*
X69875Y28425D01*
D02*
G37*
G36*
X43075Y27075D02*
X42925D01*
X42788Y27018D01*
X42682Y26912D01*
X42625Y26775D01*
Y26625D01*
X42682Y26488D01*
X42788Y26382D01*
X42925Y26325D01*
X43075D01*
X43212Y26382D01*
X43318Y26488D01*
X43375Y26625D01*
Y26775D01*
X43318Y26912D01*
X43212Y27018D01*
X43075Y27075D01*
D02*
G37*
G36*
X19048Y26562D02*
X18898D01*
X18761Y26505D01*
X18655Y26399D01*
X18598Y26262D01*
Y26166D01*
X18598Y26157D01*
X18471Y26132D01*
X18469Y26137D01*
X18443Y26199D01*
X18337Y26305D01*
X18200Y26362D01*
X18050D01*
X17913Y26305D01*
X17807Y26199D01*
X17750Y26062D01*
Y25912D01*
X17807Y25775D01*
X17913Y25669D01*
X18050Y25612D01*
X18200D01*
X18337Y25669D01*
X18443Y25775D01*
X18500Y25912D01*
Y26008D01*
X18500Y26017D01*
X18627Y26042D01*
X18629Y26037D01*
X18655Y25975D01*
X18761Y25869D01*
X18898Y25812D01*
X19048D01*
X19185Y25869D01*
X19291Y25975D01*
X19348Y26112D01*
Y26262D01*
X19291Y26399D01*
X19185Y26505D01*
X19048Y26562D01*
D02*
G37*
G36*
X36925Y26475D02*
X36775D01*
X36638Y26418D01*
X36532Y26312D01*
X36475Y26175D01*
Y26025D01*
X36532Y25888D01*
X36638Y25782D01*
X36775Y25725D01*
X36925D01*
X37062Y25782D01*
X37168Y25888D01*
X37225Y26025D01*
Y26175D01*
X37168Y26312D01*
X37062Y26418D01*
X36925Y26475D01*
D02*
G37*
G36*
X71189Y26833D02*
X71040D01*
X70902Y26776D01*
X70797Y26671D01*
X70740Y26533D01*
Y26384D01*
X70797Y26246D01*
X70902Y26140D01*
X70958Y26117D01*
X70987Y25968D01*
X70982Y25962D01*
X70925Y25825D01*
Y25675D01*
X70982Y25538D01*
X71088Y25432D01*
X71225Y25375D01*
X71375D01*
X71512Y25432D01*
X71618Y25538D01*
X71675Y25675D01*
Y25825D01*
X71618Y25962D01*
X71512Y26068D01*
X71457Y26091D01*
X71428Y26241D01*
X71433Y26246D01*
X71490Y26384D01*
Y26533D01*
X71433Y26671D01*
X71327Y26776D01*
X71189Y26833D01*
D02*
G37*
G36*
X39225Y26075D02*
X39075D01*
X38938Y26018D01*
X38832Y25912D01*
X38775Y25775D01*
Y25625D01*
X38832Y25488D01*
X38938Y25382D01*
X39075Y25325D01*
X39225D01*
X39362Y25382D01*
X39468Y25488D01*
X39525Y25625D01*
Y25775D01*
X39468Y25912D01*
X39362Y26018D01*
X39225Y26075D01*
D02*
G37*
G36*
X37674Y25975D02*
X37525D01*
X37387Y25918D01*
X37282Y25812D01*
X37225Y25675D01*
Y25525D01*
X37282Y25388D01*
X37387Y25282D01*
X37525Y25225D01*
X37674D01*
X37812Y25282D01*
X37918Y25388D01*
X37975Y25525D01*
Y25675D01*
X37918Y25812D01*
X37812Y25918D01*
X37674Y25975D01*
D02*
G37*
G36*
X8652Y26808D02*
X6752D01*
Y24908D01*
X8652D01*
Y26808D01*
D02*
G37*
G36*
X5287D02*
X5037D01*
X4795Y26743D01*
X4579Y26618D01*
X4402Y26442D01*
X4277Y26225D01*
X4212Y25983D01*
Y25733D01*
X4277Y25492D01*
X4402Y25275D01*
X4579Y25098D01*
X4795Y24973D01*
X5037Y24908D01*
X5287D01*
X5529Y24973D01*
X5745Y25098D01*
X5922Y25275D01*
X6047Y25492D01*
X6112Y25733D01*
Y25983D01*
X6047Y26225D01*
X5922Y26442D01*
X5745Y26618D01*
X5529Y26743D01*
X5287Y26808D01*
D02*
G37*
G36*
X2747D02*
X2497D01*
X2255Y26743D01*
X2039Y26618D01*
X1862Y26442D01*
X1737Y26225D01*
X1672Y25983D01*
Y25733D01*
X1737Y25492D01*
X1862Y25275D01*
X2039Y25098D01*
X2255Y24973D01*
X2497Y24908D01*
X2747D01*
X2989Y24973D01*
X3205Y25098D01*
X3382Y25275D01*
X3507Y25492D01*
X3572Y25733D01*
Y25983D01*
X3507Y26225D01*
X3382Y26442D01*
X3205Y26618D01*
X2989Y26743D01*
X2747Y26808D01*
D02*
G37*
G36*
X39575Y25227D02*
X39425D01*
X39288Y25170D01*
X39182Y25065D01*
X39125Y24927D01*
Y24778D01*
X39182Y24640D01*
X39288Y24534D01*
X39425Y24477D01*
X39575D01*
X39712Y24534D01*
X39818Y24640D01*
X39875Y24778D01*
Y24927D01*
X39818Y25065D01*
X39712Y25170D01*
X39575Y25227D01*
D02*
G37*
G36*
X71325Y25225D02*
X71175D01*
X71038Y25168D01*
X70932Y25062D01*
X70875Y24925D01*
Y24775D01*
X70932Y24638D01*
X71038Y24532D01*
X71175Y24475D01*
X71325D01*
X71462Y24532D01*
X71568Y24638D01*
X71625Y24775D01*
Y24925D01*
X71568Y25062D01*
X71462Y25168D01*
X71325Y25225D01*
D02*
G37*
G36*
X17898Y24802D02*
X17748D01*
X17611Y24745D01*
X17505Y24640D01*
X17448Y24502D01*
Y24353D01*
X17505Y24215D01*
X17611Y24109D01*
X17748Y24052D01*
X17898D01*
X18035Y24109D01*
X18141Y24215D01*
X18198Y24353D01*
Y24502D01*
X18141Y24640D01*
X18035Y24745D01*
X17898Y24802D01*
D02*
G37*
G36*
X57375Y24925D02*
X57225D01*
X57088Y24868D01*
X56982Y24762D01*
X56925Y24625D01*
Y24475D01*
X56982Y24338D01*
X57088Y24232D01*
X57225Y24175D01*
X57375D01*
X57425Y24196D01*
X57534Y24200D01*
X57579Y24132D01*
X57607Y24063D01*
X57713Y23957D01*
X57851Y23900D01*
X58000D01*
X58138Y23957D01*
X58243Y24063D01*
X58300Y24200D01*
Y24350D01*
X58243Y24487D01*
X58138Y24593D01*
X58000Y24650D01*
X57851D01*
X57800Y24629D01*
X57692Y24625D01*
X57647Y24693D01*
X57618Y24762D01*
X57512Y24868D01*
X57375Y24925D01*
D02*
G37*
G36*
X41425Y24425D02*
X41275D01*
X41138Y24368D01*
X41032Y24262D01*
X40975Y24125D01*
Y23975D01*
X41032Y23838D01*
X41138Y23732D01*
X41275Y23675D01*
X41425D01*
X41562Y23732D01*
X41668Y23838D01*
X41725Y23975D01*
Y24125D01*
X41668Y24262D01*
X41562Y24368D01*
X41425Y24425D01*
D02*
G37*
G36*
X4398Y24339D02*
X4249D01*
X4111Y24282D01*
X4006Y24177D01*
X3949Y24039D01*
Y23890D01*
X4006Y23752D01*
X4111Y23646D01*
X4249Y23589D01*
X4398D01*
X4536Y23646D01*
X4641Y23752D01*
X4699Y23890D01*
Y24039D01*
X4641Y24177D01*
X4536Y24282D01*
X4398Y24339D01*
D02*
G37*
G36*
X49125Y23975D02*
X48975D01*
X48838Y23918D01*
X48732Y23812D01*
X48675Y23675D01*
Y23525D01*
X48732Y23388D01*
X48838Y23282D01*
X48975Y23225D01*
X49125D01*
X49262Y23282D01*
X49368Y23388D01*
X49425Y23525D01*
Y23675D01*
X49368Y23812D01*
X49262Y23918D01*
X49125Y23975D01*
D02*
G37*
G36*
X12473Y24337D02*
X12323D01*
X12186Y24279D01*
X12080Y24174D01*
X12023Y24036D01*
Y23887D01*
X12080Y23749D01*
X12186Y23644D01*
X12323Y23587D01*
X12473D01*
X12538Y23614D01*
X12636Y23517D01*
X12623Y23486D01*
Y23337D01*
X12636Y23307D01*
X12538Y23209D01*
X12473Y23237D01*
X12323D01*
X12186Y23180D01*
X12080Y23074D01*
X12023Y22936D01*
Y22787D01*
X12080Y22649D01*
X12186Y22544D01*
X12323Y22487D01*
X12473D01*
X12610Y22544D01*
X12716Y22649D01*
X12773Y22787D01*
Y22936D01*
X12760Y22967D01*
X12858Y23064D01*
X12923Y23037D01*
X13073D01*
X13210Y23094D01*
X13316Y23199D01*
X13373Y23337D01*
Y23486D01*
X13316Y23624D01*
X13210Y23729D01*
X13073Y23787D01*
X12923D01*
X12858Y23759D01*
X12760Y23857D01*
X12773Y23887D01*
Y24036D01*
X12716Y24174D01*
X12610Y24279D01*
X12473Y24337D01*
D02*
G37*
G36*
X76575Y23825D02*
X76425D01*
X76288Y23768D01*
X76182Y23662D01*
X76125Y23525D01*
Y23375D01*
X76182Y23238D01*
X76288Y23132D01*
X76425Y23075D01*
X76575D01*
X76712Y23132D01*
X76818Y23238D01*
X76875Y23375D01*
Y23525D01*
X76818Y23662D01*
X76712Y23768D01*
X76575Y23825D01*
D02*
G37*
G36*
X23805Y23765D02*
X23656D01*
X23518Y23708D01*
X23413Y23602D01*
X23356Y23464D01*
Y23315D01*
X23413Y23177D01*
X23518Y23072D01*
X23656Y23015D01*
X23805D01*
X23943Y23072D01*
X24049Y23177D01*
X24106Y23315D01*
Y23464D01*
X24049Y23602D01*
X23943Y23708D01*
X23805Y23765D01*
D02*
G37*
G36*
X17825Y23375D02*
X17675D01*
X17538Y23318D01*
X17432Y23212D01*
X17375Y23075D01*
Y22925D01*
X17432Y22788D01*
X17538Y22682D01*
X17675Y22625D01*
X17825D01*
X17962Y22682D01*
X18068Y22788D01*
X18125Y22925D01*
Y23075D01*
X18068Y23212D01*
X17962Y23318D01*
X17825Y23375D01*
D02*
G37*
G36*
X77348Y23174D02*
X77199D01*
X77061Y23117D01*
X76955Y23012D01*
X76898Y22874D01*
Y22725D01*
X76955Y22587D01*
X77061Y22481D01*
X77199Y22424D01*
X77348D01*
X77486Y22481D01*
X77591Y22587D01*
X77648Y22725D01*
Y22874D01*
X77591Y23012D01*
X77486Y23117D01*
X77348Y23174D01*
D02*
G37*
G36*
X71475Y23175D02*
X71325D01*
X71188Y23118D01*
X71082Y23012D01*
X71025Y22875D01*
Y22725D01*
X71082Y22588D01*
X71188Y22482D01*
X71325Y22425D01*
X71475D01*
X71612Y22482D01*
X71718Y22588D01*
X71775Y22725D01*
X71900Y22723D01*
D01*
X71900D01*
X71901Y22700D01*
X71958Y22563D01*
X72064Y22457D01*
X72201Y22400D01*
X72351D01*
X72488Y22457D01*
X72594Y22563D01*
X72651Y22700D01*
Y22850D01*
X72594Y22987D01*
X72488Y23093D01*
X72351Y23150D01*
X72201D01*
X72064Y23093D01*
X71958Y22987D01*
X71901Y22850D01*
X71776Y22852D01*
D01*
X71776D01*
X71775Y22875D01*
X71718Y23012D01*
X71612Y23118D01*
X71475Y23175D01*
D02*
G37*
G36*
X78425Y23075D02*
X78275D01*
X78138Y23018D01*
X78032Y22912D01*
X77975Y22775D01*
Y22625D01*
X78032Y22488D01*
X78138Y22382D01*
X78275Y22325D01*
X78425D01*
X78562Y22382D01*
X78668Y22488D01*
X78725Y22625D01*
Y22775D01*
X78668Y22912D01*
X78562Y23018D01*
X78425Y23075D01*
D02*
G37*
G36*
X52225Y22275D02*
X52075D01*
X51938Y22218D01*
X51832Y22112D01*
X51775Y21975D01*
Y21825D01*
X51832Y21688D01*
X51938Y21582D01*
X52075Y21525D01*
X52225D01*
X52362Y21582D01*
X52468Y21688D01*
X52525Y21825D01*
Y21975D01*
X52468Y22112D01*
X52362Y22218D01*
X52225Y22275D01*
D02*
G37*
G36*
X48325D02*
X48175D01*
X48038Y22218D01*
X47932Y22112D01*
X47875Y21975D01*
Y21825D01*
X47932Y21688D01*
X48038Y21582D01*
X48175Y21525D01*
X48325D01*
X48462Y21582D01*
X48568Y21688D01*
X48625Y21825D01*
Y21975D01*
X48568Y22112D01*
X48462Y22218D01*
X48325Y22275D01*
D02*
G37*
G36*
X84370Y21899D02*
X84220D01*
X84083Y21842D01*
X83977Y21736D01*
X83920Y21599D01*
Y21449D01*
X83977Y21312D01*
X84083Y21206D01*
X84220Y21149D01*
X84370D01*
X84507Y21206D01*
X84613Y21312D01*
X84670Y21449D01*
Y21599D01*
X84613Y21736D01*
X84507Y21842D01*
X84370Y21899D01*
D02*
G37*
G36*
X67425Y21775D02*
X67275D01*
X67138Y21718D01*
X67032Y21612D01*
X66975Y21475D01*
Y21325D01*
X67032Y21188D01*
X67138Y21082D01*
X67275Y21025D01*
X67425D01*
X67562Y21082D01*
X67668Y21188D01*
X67725Y21325D01*
Y21475D01*
X67668Y21612D01*
X67562Y21718D01*
X67425Y21775D01*
D02*
G37*
G36*
X64175D02*
X64025D01*
X63888Y21718D01*
X63782Y21612D01*
X63725Y21475D01*
Y21325D01*
X63782Y21188D01*
X63888Y21082D01*
X64025Y21025D01*
X64175D01*
X64312Y21082D01*
X64418Y21188D01*
X64475Y21325D01*
Y21475D01*
X64418Y21612D01*
X64312Y21718D01*
X64175Y21775D01*
D02*
G37*
G36*
X39566Y21760D02*
X39417D01*
X39279Y21703D01*
X39173Y21597D01*
X39116Y21460D01*
Y21310D01*
X39173Y21173D01*
X39279Y21067D01*
X39417Y21010D01*
X39566D01*
X39704Y21067D01*
X39809Y21173D01*
X39866Y21310D01*
Y21460D01*
X39809Y21597D01*
X39704Y21703D01*
X39566Y21760D01*
D02*
G37*
G36*
X23748Y21662D02*
X23598D01*
X23461Y21605D01*
X23355Y21499D01*
X23298Y21362D01*
Y21212D01*
X23355Y21075D01*
X23461Y20969D01*
X23598Y20912D01*
X23748D01*
X23885Y20969D01*
X23991Y21075D01*
X24048Y21212D01*
Y21362D01*
X23991Y21499D01*
X23885Y21605D01*
X23748Y21662D01*
D02*
G37*
G36*
X82924Y21542D02*
X82774D01*
X82637Y21485D01*
X82531Y21379D01*
X82474Y21242D01*
Y21092D01*
X82531Y20955D01*
X82637Y20849D01*
X82774Y20792D01*
X82924D01*
X83061Y20849D01*
X83167Y20955D01*
X83224Y21092D01*
Y21242D01*
X83167Y21379D01*
X83061Y21485D01*
X82924Y21542D01*
D02*
G37*
G36*
X73455Y21485D02*
X73305D01*
X73168Y21428D01*
X73062Y21322D01*
X73005Y21185D01*
Y21035D01*
X73062Y20898D01*
X73168Y20792D01*
X73305Y20735D01*
X73455D01*
X73592Y20792D01*
X73698Y20898D01*
X73755Y21035D01*
Y21185D01*
X73698Y21322D01*
X73592Y21428D01*
X73455Y21485D01*
D02*
G37*
G36*
X20180Y20645D02*
X20031D01*
X19893Y20588D01*
X19788Y20482D01*
X19731Y20344D01*
Y20195D01*
X19788Y20057D01*
X19893Y19952D01*
X20031Y19895D01*
X20180D01*
X20318Y19952D01*
X20349Y19982D01*
X20447Y20038D01*
X20515Y19982D01*
X20560Y19937D01*
X20698Y19880D01*
X20847D01*
X20985Y19937D01*
X21091Y20042D01*
X21148Y20180D01*
Y20329D01*
X21091Y20467D01*
X20985Y20573D01*
X20847Y20630D01*
X20698D01*
X20560Y20573D01*
X20530Y20542D01*
X20431Y20486D01*
X20364Y20542D01*
X20318Y20588D01*
X20180Y20645D01*
D02*
G37*
G36*
X88340Y20568D02*
X88190D01*
X88053Y20511D01*
X87947Y20405D01*
X87890Y20268D01*
Y20118D01*
X87947Y19981D01*
X88053Y19875D01*
X88190Y19818D01*
X88340D01*
X88477Y19875D01*
X88583Y19981D01*
X88640Y20118D01*
Y20268D01*
X88583Y20405D01*
X88477Y20511D01*
X88340Y20568D01*
D02*
G37*
G36*
X22348Y20562D02*
X22198D01*
X22061Y20505D01*
X21955Y20399D01*
X21898Y20262D01*
Y20112D01*
X21955Y19975D01*
X22061Y19869D01*
X22198Y19812D01*
X22348D01*
X22485Y19869D01*
X22591Y19975D01*
X22648Y20112D01*
Y20262D01*
X22591Y20399D01*
X22485Y20505D01*
X22348Y20562D01*
D02*
G37*
G36*
X47025Y20325D02*
X46875D01*
X46738Y20268D01*
X46632Y20162D01*
X46575Y20025D01*
Y19875D01*
X46632Y19738D01*
X46738Y19632D01*
X46875Y19575D01*
X47025D01*
X47162Y19632D01*
X47268Y19738D01*
X47325Y19875D01*
Y20025D01*
X47268Y20162D01*
X47162Y20268D01*
X47025Y20325D01*
D02*
G37*
G36*
X86908Y20571D02*
X86758D01*
X86621Y20514D01*
X86515Y20408D01*
X86458Y20271D01*
Y20204D01*
X86457Y20121D01*
X86341Y20087D01*
X86308D01*
X86170Y20030D01*
X86065Y19924D01*
X86008Y19787D01*
Y19637D01*
X86065Y19500D01*
X86170Y19394D01*
X86308Y19337D01*
X86457D01*
X86595Y19394D01*
X86701Y19500D01*
X86758Y19637D01*
Y19704D01*
X86758Y19787D01*
X86875Y19821D01*
X86908D01*
X87045Y19878D01*
X87151Y19984D01*
X87208Y20121D01*
Y20271D01*
X87151Y20408D01*
X87045Y20514D01*
X86908Y20571D01*
D02*
G37*
G36*
X54575Y19875D02*
X54425D01*
X54288Y19818D01*
X54182Y19712D01*
X54125Y19575D01*
Y19425D01*
X54182Y19288D01*
X54288Y19182D01*
X54425Y19125D01*
X54575D01*
X54712Y19182D01*
X54818Y19288D01*
X54875Y19425D01*
Y19575D01*
X54818Y19712D01*
X54712Y19818D01*
X54575Y19875D01*
D02*
G37*
G36*
X52575D02*
X52425D01*
X52288Y19818D01*
X52182Y19712D01*
X52125Y19575D01*
Y19425D01*
X52182Y19288D01*
X52288Y19182D01*
X52425Y19125D01*
X52575D01*
X52712Y19182D01*
X52818Y19288D01*
X52875Y19425D01*
Y19575D01*
X52818Y19712D01*
X52712Y19818D01*
X52575Y19875D01*
D02*
G37*
G36*
X37669Y19724D02*
X37520D01*
X37382Y19667D01*
X37277Y19561D01*
X37220Y19423D01*
Y19274D01*
X37277Y19136D01*
X37382Y19031D01*
X37520Y18974D01*
X37669D01*
X37807Y19031D01*
X37913Y19136D01*
X37970Y19274D01*
Y19423D01*
X37913Y19561D01*
X37807Y19667D01*
X37669Y19724D01*
D02*
G37*
G36*
X2603Y19225D02*
X2454D01*
X2316Y19168D01*
X2211Y19062D01*
X2153Y18924D01*
Y18775D01*
X2211Y18637D01*
X2316Y18532D01*
X2454Y18475D01*
X2603D01*
X2741Y18532D01*
X2846Y18637D01*
X2903Y18775D01*
Y18924D01*
X2846Y19062D01*
X2741Y19168D01*
X2603Y19225D01*
D02*
G37*
G36*
X83186Y20065D02*
X83037D01*
X82899Y20008D01*
X82793Y19902D01*
X82736Y19765D01*
Y19615D01*
X82793Y19478D01*
X82899Y19372D01*
X83037Y19315D01*
X83086D01*
X83189Y19290D01*
X83203Y19198D01*
Y19137D01*
X83260Y19000D01*
X83366Y18894D01*
X83504Y18837D01*
X83558D01*
X83655Y18827D01*
X83675Y18720D01*
Y18675D01*
X83732Y18538D01*
X83838Y18432D01*
X83975Y18375D01*
X84125D01*
X84262Y18432D01*
X84368Y18538D01*
X84425Y18675D01*
Y18825D01*
X84368Y18962D01*
X84262Y19068D01*
X84125Y19125D01*
X84070D01*
X83973Y19135D01*
X83953Y19242D01*
Y19287D01*
X83896Y19424D01*
X83791Y19530D01*
X83653Y19587D01*
X83604D01*
X83500Y19612D01*
X83486Y19704D01*
Y19765D01*
X83429Y19902D01*
X83324Y20008D01*
X83186Y20065D01*
D02*
G37*
G36*
X84725Y18375D02*
X84575D01*
X84438Y18318D01*
X84332Y18212D01*
X84275Y18075D01*
Y17925D01*
X84332Y17788D01*
X84438Y17682D01*
X84575Y17625D01*
X84725D01*
X84862Y17682D01*
X84968Y17788D01*
X85025Y17925D01*
Y18075D01*
X84968Y18212D01*
X84862Y18318D01*
X84725Y18375D01*
D02*
G37*
G36*
X73925Y18225D02*
X73775D01*
X73638Y18168D01*
X73532Y18062D01*
X73475Y17925D01*
Y17775D01*
X73532Y17638D01*
X73638Y17532D01*
X73775Y17475D01*
X73925D01*
X74062Y17532D01*
X74168Y17638D01*
X74225Y17775D01*
Y17925D01*
X74168Y18062D01*
X74062Y18168D01*
X73925Y18225D01*
D02*
G37*
G36*
X52575Y17875D02*
X52425D01*
X52288Y17818D01*
X52182Y17712D01*
X52125Y17575D01*
Y17425D01*
X52182Y17288D01*
X52288Y17182D01*
X52425Y17125D01*
X52575D01*
X52712Y17182D01*
X52818Y17288D01*
X52875Y17425D01*
Y17575D01*
X52818Y17712D01*
X52712Y17818D01*
X52575Y17875D01*
D02*
G37*
G36*
X86475Y17375D02*
X86325D01*
X86188Y17318D01*
X86082Y17212D01*
X86025Y17075D01*
Y16925D01*
X86082Y16788D01*
X86188Y16682D01*
X86325Y16625D01*
X86475D01*
X86612Y16682D01*
X86718Y16788D01*
X86775Y16925D01*
Y17075D01*
X86718Y17212D01*
X86612Y17318D01*
X86475Y17375D01*
D02*
G37*
G36*
X3625D02*
X3475D01*
X3338Y17318D01*
X3232Y17212D01*
X3175Y17075D01*
Y16925D01*
X3232Y16788D01*
X3338Y16682D01*
X3475Y16625D01*
X3625D01*
X3762Y16682D01*
X3868Y16788D01*
X3925Y16925D01*
Y17075D01*
X3868Y17212D01*
X3762Y17318D01*
X3625Y17375D01*
D02*
G37*
G36*
X61975Y17275D02*
X61825D01*
X61688Y17218D01*
X61582Y17112D01*
X61525Y16975D01*
Y16825D01*
X61582Y16688D01*
X61688Y16582D01*
X61825Y16525D01*
X61975D01*
X62112Y16582D01*
X62218Y16688D01*
X62275Y16825D01*
Y16975D01*
X62218Y17112D01*
X62112Y17218D01*
X61975Y17275D01*
D02*
G37*
G36*
X54125Y17225D02*
X53975D01*
X53838Y17168D01*
X53732Y17062D01*
X53675Y16925D01*
Y16775D01*
X53732Y16638D01*
X53838Y16532D01*
X53975Y16475D01*
X54125D01*
X54262Y16532D01*
X54368Y16638D01*
X54425Y16775D01*
Y16925D01*
X54368Y17062D01*
X54262Y17168D01*
X54125Y17225D01*
D02*
G37*
G36*
X3268Y16552D02*
X3119D01*
X2981Y16495D01*
X2893Y16408D01*
X2806Y16495D01*
X2668Y16552D01*
X2519D01*
X2381Y16495D01*
X2275Y16390D01*
X2218Y16252D01*
Y16103D01*
X2275Y15965D01*
X2381Y15859D01*
X2519Y15802D01*
X2668D01*
X2806Y15859D01*
X2893Y15947D01*
X2981Y15859D01*
X3119Y15802D01*
X3268D01*
X3406Y15859D01*
X3511Y15965D01*
X3568Y16103D01*
Y16252D01*
X3511Y16390D01*
X3406Y16495D01*
X3268Y16552D01*
D02*
G37*
G36*
X68451Y17024D02*
X68302D01*
X68164Y16967D01*
X68058Y16861D01*
X68001Y16724D01*
Y16574D01*
X68058Y16437D01*
X68164Y16331D01*
X68302Y16274D01*
X68451D01*
X68589Y16331D01*
X68694Y16437D01*
X68751Y16574D01*
Y16724D01*
X68694Y16861D01*
X68589Y16967D01*
X68451Y17024D01*
D02*
G37*
G36*
X47598Y16502D02*
X47448D01*
X47311Y16445D01*
X47205Y16339D01*
X47148Y16202D01*
Y16052D01*
X47205Y15915D01*
X47311Y15809D01*
X47448Y15752D01*
X47598D01*
X47735Y15809D01*
X47841Y15915D01*
X47898Y16052D01*
Y16202D01*
X47841Y16339D01*
X47735Y16445D01*
X47598Y16502D01*
D02*
G37*
G36*
X45710Y16470D02*
X45560D01*
X45423Y16413D01*
X45317Y16307D01*
X45260Y16169D01*
Y16020D01*
X45317Y15882D01*
X45423Y15777D01*
X45560Y15720D01*
X45710D01*
X45847Y15777D01*
X45953Y15882D01*
X46010Y16020D01*
Y16169D01*
X45953Y16307D01*
X45847Y16413D01*
X45710Y16470D01*
D02*
G37*
G36*
X74389Y16095D02*
X74240D01*
X74102Y16038D01*
X73997Y15932D01*
X73940Y15794D01*
Y15645D01*
X73997Y15507D01*
X74102Y15402D01*
X74240Y15345D01*
X74389D01*
X74527Y15402D01*
X74633Y15507D01*
X74690Y15645D01*
Y15794D01*
X74633Y15932D01*
X74527Y16038D01*
X74389Y16095D01*
D02*
G37*
G36*
X83225Y16025D02*
X83075D01*
X82938Y15968D01*
X82832Y15862D01*
X82775Y15725D01*
Y15575D01*
X82832Y15438D01*
X82938Y15332D01*
X83075Y15275D01*
X83225D01*
X83362Y15332D01*
X83468Y15438D01*
X83525Y15575D01*
Y15725D01*
X83468Y15862D01*
X83362Y15968D01*
X83225Y16025D01*
D02*
G37*
G36*
X70061D02*
X69912D01*
X69774Y15968D01*
X69668Y15862D01*
X69611Y15725D01*
Y15575D01*
X69668Y15438D01*
X69774Y15332D01*
X69912Y15275D01*
X70061D01*
X70199Y15332D01*
X70304Y15438D01*
X70361Y15575D01*
Y15725D01*
X70304Y15862D01*
X70199Y15968D01*
X70061Y16025D01*
D02*
G37*
G36*
X85925Y15375D02*
X85775D01*
X85638Y15318D01*
X85549Y15229D01*
X85475Y15220D01*
X85401Y15229D01*
X85312Y15318D01*
X85175Y15375D01*
X85025D01*
X84888Y15318D01*
X84782Y15212D01*
X84725Y15075D01*
Y14925D01*
X84782Y14788D01*
X84888Y14682D01*
X85025Y14625D01*
X85175D01*
X85312Y14682D01*
X85401Y14771D01*
X85475Y14780D01*
X85549Y14771D01*
X85638Y14682D01*
X85775Y14625D01*
X85925D01*
X86062Y14682D01*
X86168Y14788D01*
X86225Y14925D01*
Y15075D01*
X86168Y15212D01*
X86062Y15318D01*
X85925Y15375D01*
D02*
G37*
G36*
X6625Y15925D02*
X6475D01*
X6338Y15868D01*
X6232Y15762D01*
X6175Y15625D01*
Y15475D01*
X6232Y15338D01*
X6338Y15232D01*
X6475Y15175D01*
X6625D01*
X6762Y15232D01*
X6868Y15338D01*
X6925Y15475D01*
Y15625D01*
X6868Y15762D01*
X6762Y15868D01*
X6625Y15925D01*
D02*
G37*
G36*
X5125Y15875D02*
X4975D01*
X4838Y15818D01*
X4732Y15712D01*
X4675Y15575D01*
Y15425D01*
X4732Y15288D01*
X4838Y15182D01*
X4975Y15125D01*
X5125D01*
X5262Y15182D01*
X5368Y15288D01*
X5425Y15425D01*
Y15575D01*
X5368Y15712D01*
X5262Y15818D01*
X5125Y15875D01*
D02*
G37*
G36*
X54225Y14925D02*
X54075D01*
X53938Y14868D01*
X53832Y14762D01*
X53775Y14625D01*
Y14475D01*
X53832Y14338D01*
X53938Y14232D01*
X54075Y14175D01*
X54225D01*
X54362Y14232D01*
X54468Y14338D01*
X54525Y14475D01*
Y14625D01*
X54468Y14762D01*
X54362Y14868D01*
X54225Y14925D01*
D02*
G37*
G36*
X10717Y17500D02*
X10383D01*
X10054Y17435D01*
X9745Y17307D01*
X9466Y17120D01*
X9230Y16884D01*
X9043Y16605D01*
X8915Y16296D01*
X8850Y15967D01*
Y15633D01*
X8915Y15304D01*
X9043Y14995D01*
X9230Y14716D01*
X9466Y14480D01*
X9745Y14293D01*
X10054Y14165D01*
X10383Y14100D01*
X10717D01*
X11046Y14165D01*
X11355Y14293D01*
X11634Y14480D01*
X11870Y14716D01*
X12057Y14995D01*
X12185Y15304D01*
X12250Y15633D01*
Y15967D01*
X12185Y16296D01*
X12057Y16605D01*
X11870Y16884D01*
X11634Y17120D01*
X11355Y17307D01*
X11046Y17435D01*
X10717Y17500D01*
D02*
G37*
G36*
X82375Y14825D02*
X82225D01*
X82088Y14768D01*
X81982Y14662D01*
X81925Y14525D01*
Y14375D01*
X81982Y14238D01*
X82088Y14132D01*
X82225Y14075D01*
X82375D01*
X82512Y14132D01*
X82618Y14238D01*
X82675Y14375D01*
Y14525D01*
X82618Y14662D01*
X82512Y14768D01*
X82375Y14825D01*
D02*
G37*
G36*
X79930Y14631D02*
X79781D01*
X79643Y14574D01*
X79538Y14468D01*
X79481Y14330D01*
Y14181D01*
X79538Y14043D01*
X79643Y13938D01*
X79781Y13881D01*
X79930D01*
X80068Y13938D01*
X80174Y14043D01*
X80231Y14181D01*
Y14330D01*
X80174Y14468D01*
X80068Y14574D01*
X79930Y14631D01*
D02*
G37*
G36*
X78420Y14605D02*
X78270D01*
X78133Y14548D01*
X78027Y14443D01*
X77970Y14305D01*
Y14156D01*
X78027Y14018D01*
X78133Y13912D01*
X78270Y13855D01*
X78420D01*
X78557Y13912D01*
X78663Y14018D01*
X78720Y14156D01*
Y14305D01*
X78663Y14443D01*
X78557Y14548D01*
X78420Y14605D01*
D02*
G37*
G36*
X71525Y13875D02*
X71375D01*
X71238Y13818D01*
X71132Y13712D01*
X71083Y13595D01*
X71011Y13579D01*
X70951Y13582D01*
X70918Y13662D01*
X70812Y13768D01*
X70675Y13825D01*
X70525D01*
X70388Y13768D01*
X70282Y13662D01*
X70225Y13525D01*
Y13375D01*
X70282Y13238D01*
X70388Y13132D01*
X70525Y13075D01*
X70675D01*
X70812Y13132D01*
X70918Y13238D01*
X70967Y13355D01*
X71039Y13371D01*
X71099Y13368D01*
X71132Y13288D01*
X71238Y13182D01*
X71375Y13125D01*
X71525D01*
X71662Y13182D01*
X71768Y13288D01*
X71825Y13425D01*
Y13575D01*
X71768Y13712D01*
X71662Y13818D01*
X71525Y13875D01*
D02*
G37*
G36*
X26925Y14225D02*
X26775D01*
X26638Y14168D01*
X26532Y14062D01*
X26475Y13925D01*
Y13775D01*
X26532Y13638D01*
X26638Y13532D01*
X26775Y13475D01*
X26925D01*
X27062Y13532D01*
X27168Y13638D01*
X27225Y13775D01*
Y13925D01*
X27168Y14062D01*
X27062Y14168D01*
X26925Y14225D01*
D02*
G37*
G36*
X42575Y14175D02*
X42425D01*
X42288Y14118D01*
X42182Y14012D01*
X42125Y13875D01*
Y13725D01*
X42182Y13588D01*
X42288Y13482D01*
X42425Y13425D01*
X42575D01*
X42712Y13482D01*
X42818Y13588D01*
X42875Y13725D01*
Y13875D01*
X42818Y14012D01*
X42712Y14118D01*
X42575Y14175D01*
D02*
G37*
G36*
X14525Y14475D02*
X14375D01*
X14238Y14418D01*
X14132Y14312D01*
X14075Y14175D01*
Y14025D01*
X14132Y13888D01*
X14238Y13782D01*
X14375Y13725D01*
X14525D01*
X14598Y13755D01*
X14706Y13730D01*
X14741Y13688D01*
X14782Y13588D01*
X14849Y13521D01*
X14866Y13504D01*
X14794Y13396D01*
X14776Y13404D01*
X14725Y13425D01*
X14575D01*
X14438Y13368D01*
X14332Y13262D01*
X14275Y13125D01*
Y12975D01*
X14332Y12838D01*
X14438Y12732D01*
X14575Y12675D01*
X14725D01*
X14862Y12732D01*
X14968Y12838D01*
X15025Y12975D01*
Y13125D01*
X14968Y13262D01*
X14901Y13329D01*
X14884Y13346D01*
X14956Y13454D01*
X14974Y13446D01*
X15025Y13425D01*
X15175D01*
X15312Y13482D01*
X15418Y13588D01*
X15475Y13725D01*
Y13875D01*
X15418Y14012D01*
X15312Y14118D01*
X15175Y14175D01*
X15025D01*
X14952Y14145D01*
X14844Y14170D01*
X14809Y14212D01*
X14768Y14312D01*
X14662Y14418D01*
X14525Y14475D01*
D02*
G37*
G36*
X27875Y13825D02*
X27725D01*
X27588Y13768D01*
X27482Y13662D01*
X27425Y13525D01*
Y13375D01*
X27482Y13238D01*
X27588Y13132D01*
X27725Y13075D01*
X27875D01*
X28012Y13132D01*
X28118Y13238D01*
X28175Y13375D01*
Y13525D01*
X28118Y13662D01*
X28012Y13768D01*
X27875Y13825D01*
D02*
G37*
G36*
X53175Y14375D02*
X53025D01*
X52888Y14318D01*
X52782Y14212D01*
X52725Y14075D01*
Y13925D01*
X52782Y13788D01*
X52805Y13765D01*
X52832Y13612D01*
X52775Y13475D01*
Y13325D01*
X52832Y13188D01*
X52938Y13082D01*
X53075Y13025D01*
X53225D01*
X53362Y13082D01*
X53468Y13188D01*
X53525Y13325D01*
Y13475D01*
X53468Y13612D01*
X53445Y13635D01*
X53418Y13788D01*
X53475Y13925D01*
Y14075D01*
X53418Y14212D01*
X53312Y14318D01*
X53175Y14375D01*
D02*
G37*
G36*
X81925Y13725D02*
X81775D01*
X81638Y13668D01*
X81532Y13562D01*
X81475Y13425D01*
Y13275D01*
X81532Y13138D01*
X81638Y13032D01*
X81775Y12975D01*
X81925D01*
X82062Y13032D01*
X82168Y13138D01*
X82225Y13275D01*
Y13425D01*
X82168Y13562D01*
X82062Y13668D01*
X81925Y13725D01*
D02*
G37*
G36*
X69075Y13525D02*
X68925D01*
X68788Y13468D01*
X68682Y13362D01*
X68625Y13225D01*
Y13075D01*
X68682Y12938D01*
X68788Y12832D01*
X68925Y12775D01*
X69075D01*
X69212Y12832D01*
X69318Y12938D01*
X69375Y13075D01*
Y13225D01*
X69318Y13362D01*
X69212Y13468D01*
X69075Y13525D01*
D02*
G37*
G36*
X32275Y13403D02*
X32126D01*
X31988Y13346D01*
X31882Y13241D01*
X31825Y13103D01*
Y12954D01*
X31882Y12816D01*
X31988Y12710D01*
X32126Y12653D01*
X32275D01*
X32413Y12710D01*
X32518Y12816D01*
X32575Y12954D01*
Y13103D01*
X32518Y13241D01*
X32413Y13346D01*
X32275Y13403D01*
D02*
G37*
G36*
X26975Y13325D02*
X26825D01*
X26688Y13268D01*
X26582Y13162D01*
X26525Y13025D01*
Y12875D01*
X26582Y12738D01*
X26688Y12632D01*
X26825Y12575D01*
X26975D01*
X27112Y12632D01*
X27218Y12738D01*
X27275Y12875D01*
Y13025D01*
X27218Y13162D01*
X27112Y13268D01*
X26975Y13325D01*
D02*
G37*
G36*
X3559Y13151D02*
X2436D01*
Y12467D01*
X4353D01*
X4342Y12550D01*
X4261Y12745D01*
X4132Y12913D01*
X3964Y13042D01*
X3769Y13123D01*
X3559Y13151D01*
D02*
G37*
G36*
X7634Y12851D02*
X7261D01*
Y12167D01*
X8428D01*
X8417Y12250D01*
X8336Y12445D01*
X8207Y12613D01*
X8039Y12742D01*
X7844Y12823D01*
X7634Y12851D01*
D02*
G37*
G36*
X7007D02*
X6634D01*
X6424Y12823D01*
X6228Y12742D01*
X6060Y12613D01*
X5931Y12445D01*
X5850Y12250D01*
X5840Y12167D01*
X7007D01*
Y12851D01*
D02*
G37*
G36*
X82858Y12561D02*
X82709D01*
X82571Y12504D01*
X82466Y12398D01*
X82409Y12260D01*
Y12111D01*
X82466Y11973D01*
X82571Y11868D01*
X82709Y11811D01*
X82858D01*
X82996Y11868D01*
X83102Y11973D01*
X83159Y12111D01*
Y12260D01*
X83102Y12398D01*
X82996Y12504D01*
X82858Y12561D01*
D02*
G37*
G36*
X65125Y11925D02*
X64975D01*
X64838Y11868D01*
X64794Y11824D01*
X64721Y11769D01*
X64628Y11824D01*
X64594Y11858D01*
X64456Y11915D01*
X64307D01*
X64169Y11858D01*
X64064Y11752D01*
X64007Y11614D01*
Y11465D01*
X64064Y11327D01*
X64169Y11222D01*
X64307Y11165D01*
X64456D01*
X64594Y11222D01*
X64638Y11266D01*
X64710Y11321D01*
X64804Y11266D01*
X64838Y11232D01*
X64975Y11175D01*
X65125D01*
X65262Y11232D01*
X65368Y11338D01*
X65425Y11475D01*
Y11625D01*
X65368Y11762D01*
X65262Y11868D01*
X65125Y11925D01*
D02*
G37*
G36*
X79025Y13025D02*
X78875D01*
X78738Y12968D01*
X78632Y12862D01*
X78575Y12725D01*
Y12575D01*
X78632Y12438D01*
X78738Y12332D01*
X78875Y12275D01*
X78929D01*
X79025Y12175D01*
X79025Y12158D01*
Y12025D01*
X79082Y11888D01*
X79188Y11782D01*
X79325Y11725D01*
X79475D01*
X79612Y11782D01*
X79718Y11888D01*
X79775Y12025D01*
Y12175D01*
X79718Y12312D01*
X79612Y12418D01*
X79475Y12475D01*
X79421D01*
X79325Y12575D01*
X79325Y12592D01*
Y12725D01*
X79268Y12862D01*
X79162Y12968D01*
X79025Y13025D01*
D02*
G37*
G36*
X36533Y12412D02*
X36384D01*
X36246Y12355D01*
X36141Y12250D01*
X36084Y12112D01*
Y11963D01*
X36141Y11825D01*
X36246Y11719D01*
X36384Y11662D01*
X36533D01*
X36671Y11719D01*
X36777Y11825D01*
X36834Y11963D01*
Y12112D01*
X36777Y12250D01*
X36671Y12355D01*
X36533Y12412D01*
D02*
G37*
G36*
X35534Y12387D02*
X35384D01*
X35247Y12330D01*
X35141Y12224D01*
X35084Y12087D01*
Y11937D01*
X35141Y11800D01*
X35247Y11694D01*
X35384Y11637D01*
X35534D01*
X35671Y11694D01*
X35777Y11800D01*
X35834Y11937D01*
Y12087D01*
X35777Y12224D01*
X35671Y12330D01*
X35534Y12387D01*
D02*
G37*
G36*
X4353Y12213D02*
X2436D01*
Y11529D01*
X3559D01*
X3769Y11557D01*
X3964Y11638D01*
X4132Y11767D01*
X4261Y11935D01*
X4342Y12130D01*
X4353Y12213D01*
D02*
G37*
G36*
X2182Y13151D02*
X1901D01*
Y12340D01*
Y11529D01*
X2182D01*
Y12340D01*
Y13151D01*
D02*
G37*
G36*
X33775Y12225D02*
X33625D01*
X33488Y12168D01*
X33382Y12062D01*
X33325Y11925D01*
Y11775D01*
X33382Y11638D01*
X33488Y11532D01*
X33625Y11475D01*
X33775D01*
X33912Y11532D01*
X34018Y11638D01*
X34075Y11775D01*
Y11925D01*
X34018Y12062D01*
X33912Y12168D01*
X33775Y12225D01*
D02*
G37*
G36*
X38325Y12175D02*
X38175D01*
X38038Y12118D01*
X37932Y12012D01*
X37875Y11875D01*
Y11725D01*
X37932Y11588D01*
X38038Y11482D01*
X38175Y11425D01*
X38325D01*
X38462Y11482D01*
X38568Y11588D01*
X38625Y11725D01*
Y11875D01*
X38568Y12012D01*
X38462Y12118D01*
X38325Y12175D01*
D02*
G37*
G36*
X8428Y11913D02*
X7261D01*
Y11229D01*
X7634D01*
X7844Y11257D01*
X8039Y11338D01*
X8207Y11467D01*
X8336Y11635D01*
X8417Y11830D01*
X8428Y11913D01*
D02*
G37*
G36*
X7007D02*
X5840D01*
X5850Y11830D01*
X5931Y11635D01*
X6060Y11467D01*
X6228Y11338D01*
X6424Y11257D01*
X6634Y11229D01*
X7007D01*
Y11913D01*
D02*
G37*
G36*
X15675Y11875D02*
X15525D01*
X15388Y11818D01*
X15282Y11712D01*
X15225Y11575D01*
Y11425D01*
X15282Y11288D01*
X15388Y11182D01*
X15525Y11125D01*
X15675D01*
X15812Y11182D01*
X15918Y11288D01*
X15975Y11425D01*
Y11575D01*
X15918Y11712D01*
X15812Y11818D01*
X15675Y11875D01*
D02*
G37*
G36*
X20677Y11575D02*
X20528D01*
X20390Y11518D01*
X20285Y11413D01*
X20227Y11275D01*
Y11126D01*
X20285Y10988D01*
X20352Y10921D01*
X20285Y10853D01*
X20227Y10715D01*
Y10566D01*
X20285Y10428D01*
X20390Y10323D01*
X20528Y10266D01*
X20677D01*
X20815Y10323D01*
X20920Y10428D01*
X20977Y10566D01*
Y10715D01*
X20920Y10853D01*
X20853Y10921D01*
X20920Y10988D01*
X20977Y11126D01*
Y11275D01*
X20920Y11413D01*
X20815Y11518D01*
X20677Y11575D01*
D02*
G37*
G36*
X34690Y10623D02*
X34541D01*
X34403Y10566D01*
X34298Y10460D01*
X34241Y10322D01*
Y10173D01*
X34298Y10035D01*
X34403Y9930D01*
X34541Y9873D01*
X34690D01*
X34828Y9930D01*
X34934Y10035D01*
X34991Y10173D01*
Y10322D01*
X34934Y10460D01*
X34828Y10566D01*
X34690Y10623D01*
D02*
G37*
G36*
X33565D02*
X33416D01*
X33278Y10566D01*
X33172Y10460D01*
X33115Y10322D01*
Y10173D01*
X33172Y10035D01*
X33278Y9930D01*
X33416Y9873D01*
X33565D01*
X33703Y9930D01*
X33808Y10035D01*
X33865Y10173D01*
Y10322D01*
X33808Y10460D01*
X33703Y10566D01*
X33565Y10623D01*
D02*
G37*
G36*
X35777Y10523D02*
X35628D01*
X35490Y10466D01*
X35385Y10360D01*
X35328Y10223D01*
Y10073D01*
X35385Y9936D01*
X35490Y9830D01*
X35628Y9773D01*
X35777D01*
X35915Y9830D01*
X36020Y9936D01*
X36078Y10073D01*
Y10223D01*
X36020Y10360D01*
X35915Y10466D01*
X35777Y10523D01*
D02*
G37*
G36*
X58171Y9436D02*
X58022D01*
X57884Y9378D01*
X57779Y9273D01*
X57721Y9135D01*
Y8986D01*
X57779Y8848D01*
X57884Y8743D01*
X58022Y8686D01*
X58171D01*
X58309Y8743D01*
X58414Y8848D01*
X58471Y8986D01*
Y9135D01*
X58414Y9273D01*
X58309Y9378D01*
X58171Y9436D01*
D02*
G37*
G36*
X11925Y9175D02*
X11775D01*
X11638Y9118D01*
X11532Y9012D01*
X11475Y8875D01*
Y8725D01*
X11532Y8588D01*
X11638Y8482D01*
X11775Y8425D01*
X11925D01*
X12062Y8482D01*
X12168Y8588D01*
X12225Y8725D01*
Y8875D01*
X12168Y9012D01*
X12062Y9118D01*
X11925Y9175D01*
D02*
G37*
G36*
X10975D02*
X10825D01*
X10688Y9118D01*
X10582Y9012D01*
X10525Y8875D01*
Y8725D01*
X10582Y8588D01*
X10688Y8482D01*
X10825Y8425D01*
X10975D01*
X11112Y8482D01*
X11218Y8588D01*
X11275Y8725D01*
Y8875D01*
X11218Y9012D01*
X11112Y9118D01*
X10975Y9175D01*
D02*
G37*
G36*
X67675Y9125D02*
X67525D01*
X67388Y9068D01*
X67282Y8962D01*
X67225Y8825D01*
Y8675D01*
X67282Y8538D01*
X67388Y8432D01*
X67525Y8375D01*
X67675D01*
X67812Y8432D01*
X67918Y8538D01*
X67975Y8675D01*
Y8825D01*
X67918Y8962D01*
X67812Y9068D01*
X67675Y9125D01*
D02*
G37*
G36*
X8875Y8581D02*
X8725D01*
X8588Y8524D01*
X8482Y8419D01*
X8425Y8281D01*
Y8132D01*
X8482Y7994D01*
X8588Y7888D01*
X8725Y7831D01*
X8875D01*
X9012Y7888D01*
X9118Y7994D01*
X9175Y8132D01*
Y8281D01*
X9118Y8419D01*
X9012Y8524D01*
X8875Y8581D01*
D02*
G37*
G36*
X68325Y8475D02*
X68175D01*
X68038Y8418D01*
X67932Y8312D01*
X67875Y8175D01*
Y8025D01*
X67932Y7888D01*
X68038Y7782D01*
X68175Y7725D01*
X68325D01*
X68462Y7782D01*
X68568Y7888D01*
X68625Y8025D01*
Y8175D01*
X68568Y8312D01*
X68462Y8418D01*
X68325Y8475D01*
D02*
G37*
G36*
X58487Y8387D02*
X58337D01*
X58200Y8330D01*
X58094Y8224D01*
X58037Y8087D01*
Y7937D01*
X58094Y7800D01*
X58200Y7694D01*
X58337Y7637D01*
X58487D01*
X58624Y7694D01*
X58730Y7800D01*
X58787Y7937D01*
Y8087D01*
X58730Y8224D01*
X58624Y8330D01*
X58487Y8387D01*
D02*
G37*
G36*
X10975Y8225D02*
X10825D01*
X10688Y8168D01*
X10582Y8062D01*
X10525Y7925D01*
Y7775D01*
X10582Y7638D01*
X10688Y7532D01*
X10825Y7475D01*
X10975D01*
X11112Y7532D01*
X11218Y7638D01*
X11275Y7775D01*
Y7925D01*
X11218Y8062D01*
X11112Y8168D01*
X10975Y8225D01*
D02*
G37*
G36*
X5275Y8925D02*
X5125D01*
X4988Y8868D01*
X4882Y8762D01*
X4825Y8625D01*
Y8475D01*
X4882Y8338D01*
X4988Y8232D01*
X4999Y8207D01*
X5006Y8087D01*
X4932Y8012D01*
X4875Y7875D01*
Y7725D01*
X4932Y7588D01*
X5038Y7482D01*
X5175Y7425D01*
X5325D01*
X5462Y7482D01*
X5568Y7588D01*
X5625Y7725D01*
Y7875D01*
X5568Y8012D01*
X5462Y8118D01*
X5451Y8143D01*
X5444Y8263D01*
X5518Y8338D01*
X5575Y8475D01*
Y8625D01*
X5518Y8762D01*
X5412Y8868D01*
X5275Y8925D01*
D02*
G37*
G36*
X33825Y7725D02*
X33675D01*
X33538Y7668D01*
X33432Y7562D01*
X33375Y7425D01*
Y7275D01*
X33432Y7138D01*
X33538Y7032D01*
X33675Y6975D01*
X33825D01*
X33962Y7032D01*
X34068Y7138D01*
X34125Y7275D01*
Y7425D01*
X34068Y7562D01*
X33962Y7668D01*
X33825Y7725D01*
D02*
G37*
G36*
X35527Y7720D02*
X35377D01*
X35240Y7663D01*
X35134Y7557D01*
X35077Y7420D01*
Y7270D01*
X35134Y7133D01*
X35240Y7027D01*
X35377Y6970D01*
X35527D01*
X35664Y7027D01*
X35770Y7133D01*
X35827Y7270D01*
Y7420D01*
X35770Y7557D01*
X35664Y7663D01*
X35527Y7720D01*
D02*
G37*
G36*
X8825Y7520D02*
X8675D01*
X8538Y7463D01*
X8432Y7357D01*
X8375Y7220D01*
Y7070D01*
X8432Y6933D01*
X8538Y6827D01*
X8675Y6770D01*
X8825D01*
X8962Y6827D01*
X9068Y6933D01*
X9125Y7070D01*
Y7220D01*
X9068Y7357D01*
X8962Y7463D01*
X8825Y7520D01*
D02*
G37*
G36*
X29975Y7825D02*
X29825D01*
X29688Y7768D01*
X29582Y7662D01*
X29525Y7525D01*
Y7375D01*
X29582Y7238D01*
X29637Y7183D01*
X29673Y7100D01*
X29637Y7017D01*
X29582Y6962D01*
X29525Y6825D01*
Y6675D01*
X29582Y6538D01*
X29688Y6432D01*
X29825Y6375D01*
X29975D01*
X30112Y6432D01*
X30218Y6538D01*
X30275Y6675D01*
Y6825D01*
X30218Y6962D01*
X30163Y7017D01*
X30127Y7100D01*
X30163Y7183D01*
X30218Y7238D01*
X30275Y7375D01*
Y7525D01*
X30218Y7662D01*
X30112Y7768D01*
X29975Y7825D01*
D02*
G37*
G36*
X41075Y7625D02*
X40925D01*
X40788Y7568D01*
X40682Y7462D01*
X40625Y7325D01*
Y7175D01*
X40682Y7038D01*
X40770Y6950D01*
X40682Y6862D01*
X40625Y6725D01*
Y6575D01*
X40682Y6438D01*
X40788Y6332D01*
X40925Y6275D01*
X41075D01*
X41212Y6332D01*
X41318Y6438D01*
X41375Y6575D01*
Y6725D01*
X41318Y6862D01*
X41230Y6950D01*
X41318Y7038D01*
X41375Y7175D01*
Y7325D01*
X41318Y7462D01*
X41212Y7568D01*
X41075Y7625D01*
D02*
G37*
G36*
X60571Y5633D02*
X60421D01*
X60284Y5576D01*
X60178Y5470D01*
X60121Y5333D01*
Y5183D01*
X60178Y5046D01*
X60284Y4940D01*
X60421Y4883D01*
X60571D01*
X60708Y4940D01*
X60814Y5046D01*
X60871Y5183D01*
Y5333D01*
X60814Y5470D01*
X60708Y5576D01*
X60571Y5633D01*
D02*
G37*
G36*
X59655Y5630D02*
X59506D01*
X59368Y5572D01*
X59263Y5467D01*
X59206Y5329D01*
Y5180D01*
X59263Y5042D01*
X59368Y4937D01*
X59506Y4880D01*
X59655D01*
X59793Y4937D01*
X59899Y5042D01*
X59956Y5180D01*
Y5329D01*
X59899Y5467D01*
X59793Y5572D01*
X59655Y5630D01*
D02*
G37*
G36*
X97817Y7450D02*
X97483D01*
X97154Y7385D01*
X96845Y7257D01*
X96566Y7070D01*
X96330Y6834D01*
X96143Y6555D01*
X96015Y6246D01*
X95950Y5917D01*
Y5583D01*
X96015Y5254D01*
X96143Y4945D01*
X96330Y4666D01*
X96566Y4430D01*
X96845Y4243D01*
X97154Y4115D01*
X97483Y4050D01*
X97817D01*
X98146Y4115D01*
X98455Y4243D01*
X98734Y4430D01*
X98970Y4666D01*
X99157Y4945D01*
X99285Y5254D01*
X99350Y5583D01*
Y5917D01*
X99285Y6246D01*
X99157Y6555D01*
X98970Y6834D01*
X98734Y7070D01*
X98455Y7257D01*
X98146Y7385D01*
X97817Y7450D01*
D02*
G37*
G36*
X33825Y4625D02*
X33675D01*
X33538Y4568D01*
X33432Y4462D01*
X33375Y4325D01*
Y4175D01*
X33432Y4038D01*
X33538Y3932D01*
X33675Y3875D01*
X33825D01*
X33962Y3932D01*
X34068Y4038D01*
X34125Y4175D01*
Y4325D01*
X34068Y4462D01*
X33962Y4568D01*
X33825Y4625D01*
D02*
G37*
G36*
X35525Y4625D02*
X35376D01*
X35238Y4568D01*
X35132Y4462D01*
X35075Y4325D01*
Y4175D01*
X35132Y4038D01*
X35238Y3932D01*
X35376Y3875D01*
X35525D01*
X35663Y3932D01*
X35768Y4038D01*
X35825Y4175D01*
Y4325D01*
X35768Y4462D01*
X35663Y4568D01*
X35525Y4625D01*
D02*
G37*
G36*
X60571Y4283D02*
X60421D01*
X60284Y4226D01*
X60178Y4120D01*
X60121Y3983D01*
Y3833D01*
X60178Y3696D01*
X60284Y3590D01*
X60421Y3533D01*
X60571D01*
X60708Y3590D01*
X60814Y3696D01*
X60871Y3833D01*
Y3983D01*
X60814Y4120D01*
X60708Y4226D01*
X60571Y4283D01*
D02*
G37*
G36*
X7634Y4211D02*
X7261D01*
Y3527D01*
X8428D01*
X8417Y3610D01*
X8336Y3805D01*
X8207Y3973D01*
X8039Y4102D01*
X7844Y4183D01*
X7634Y4211D01*
D02*
G37*
G36*
X7007D02*
X6634D01*
X6424Y4183D01*
X6228Y4102D01*
X6060Y3973D01*
X5931Y3805D01*
X5850Y3610D01*
X5840Y3527D01*
X7007D01*
Y4211D01*
D02*
G37*
G36*
X94050Y4125D02*
X93900D01*
X93763Y4068D01*
X93657Y3962D01*
X93600Y3825D01*
Y3675D01*
X93657Y3538D01*
X93763Y3432D01*
X93900Y3375D01*
X94050D01*
X94187Y3432D01*
X94293Y3538D01*
X94350Y3675D01*
Y3825D01*
X94293Y3962D01*
X94187Y4068D01*
X94050Y4125D01*
D02*
G37*
G36*
X86100D02*
X85950D01*
X85813Y4068D01*
X85707Y3962D01*
X85650Y3825D01*
Y3675D01*
X85707Y3538D01*
X85813Y3432D01*
X85950Y3375D01*
X86100D01*
X86237Y3432D01*
X86343Y3538D01*
X86400Y3675D01*
Y3825D01*
X86343Y3962D01*
X86237Y4068D01*
X86100Y4125D01*
D02*
G37*
G36*
X74050D02*
X73900D01*
X73763Y4068D01*
X73657Y3962D01*
X73600Y3825D01*
Y3675D01*
X73657Y3538D01*
X73763Y3432D01*
X73900Y3375D01*
X74050D01*
X74187Y3432D01*
X74293Y3538D01*
X74350Y3675D01*
Y3825D01*
X74293Y3962D01*
X74187Y4068D01*
X74050Y4125D01*
D02*
G37*
G36*
X66100D02*
X65950D01*
X65813Y4068D01*
X65707Y3962D01*
X65650Y3825D01*
Y3675D01*
X65707Y3538D01*
X65813Y3432D01*
X65950Y3375D01*
X66100D01*
X66237Y3432D01*
X66343Y3538D01*
X66400Y3675D01*
Y3825D01*
X66343Y3962D01*
X66237Y4068D01*
X66100Y4125D01*
D02*
G37*
G36*
X54050D02*
X53900D01*
X53763Y4068D01*
X53657Y3962D01*
X53600Y3825D01*
Y3675D01*
X53657Y3538D01*
X53763Y3432D01*
X53900Y3375D01*
X54050D01*
X54187Y3432D01*
X54293Y3538D01*
X54350Y3675D01*
Y3825D01*
X54293Y3962D01*
X54187Y4068D01*
X54050Y4125D01*
D02*
G37*
G36*
X46125Y4075D02*
X45975D01*
X45838Y4018D01*
X45732Y3912D01*
X45675Y3775D01*
Y3625D01*
X45732Y3488D01*
X45838Y3382D01*
X45975Y3325D01*
X46125D01*
X46262Y3382D01*
X46368Y3488D01*
X46425Y3625D01*
Y3775D01*
X46368Y3912D01*
X46262Y4018D01*
X46125Y4075D01*
D02*
G37*
G36*
X42812Y5475D02*
X42528D01*
X42255Y5402D01*
X42010Y5260D01*
X41810Y5060D01*
X41668Y4815D01*
X41595Y4542D01*
Y4258D01*
X41668Y3985D01*
X41810Y3740D01*
X42010Y3540D01*
X42255Y3398D01*
X42528Y3325D01*
X42812D01*
X43085Y3398D01*
X43330Y3540D01*
X43530Y3740D01*
X43672Y3985D01*
X43745Y4258D01*
Y4542D01*
X43672Y4815D01*
X43530Y5060D01*
X43330Y5260D01*
X43085Y5402D01*
X42812Y5475D01*
D02*
G37*
G36*
X40272D02*
X39988D01*
X39715Y5402D01*
X39470Y5260D01*
X39270Y5060D01*
X39128Y4815D01*
X39055Y4542D01*
Y4258D01*
X39128Y3985D01*
X39270Y3740D01*
X39470Y3540D01*
X39715Y3398D01*
X39988Y3325D01*
X40272D01*
X40545Y3398D01*
X40790Y3540D01*
X40990Y3740D01*
X41132Y3985D01*
X41205Y4258D01*
Y4542D01*
X41132Y4815D01*
X40990Y5060D01*
X40790Y5260D01*
X40545Y5402D01*
X40272Y5475D01*
D02*
G37*
G36*
X24078Y4058D02*
X23928D01*
X23791Y4001D01*
X23685Y3895D01*
X23628Y3758D01*
Y3608D01*
X23685Y3471D01*
X23791Y3365D01*
X23928Y3308D01*
X24078D01*
X24215Y3365D01*
X24321Y3471D01*
X24378Y3608D01*
Y3758D01*
X24321Y3895D01*
X24215Y4001D01*
X24078Y4058D01*
D02*
G37*
G36*
X30262Y5425D02*
X29979D01*
X29705Y5352D01*
X29460Y5211D01*
X29260Y5010D01*
X29118Y4765D01*
X29045Y4492D01*
Y4209D01*
X29118Y3935D01*
X29260Y3690D01*
X29460Y3490D01*
X29705Y3349D01*
X29979Y3275D01*
X30262D01*
X30535Y3349D01*
X30780Y3490D01*
X30980Y3690D01*
X31122Y3935D01*
X31195Y4209D01*
Y4492D01*
X31122Y4765D01*
X30980Y5010D01*
X30780Y5211D01*
X30535Y5352D01*
X30262Y5425D01*
D02*
G37*
G36*
X27722D02*
X27439D01*
X27165Y5352D01*
X26920Y5211D01*
X26720Y5010D01*
X26578Y4765D01*
X26505Y4492D01*
Y4209D01*
X26578Y3935D01*
X26720Y3690D01*
X26920Y3490D01*
X27165Y3349D01*
X27439Y3275D01*
X27722D01*
X27995Y3349D01*
X28240Y3490D01*
X28440Y3690D01*
X28582Y3935D01*
X28655Y4209D01*
Y4492D01*
X28582Y4765D01*
X28440Y5010D01*
X28240Y5211D01*
X27995Y5352D01*
X27722Y5425D01*
D02*
G37*
G36*
X3559Y3911D02*
X2436D01*
Y3227D01*
X4353D01*
X4342Y3310D01*
X4261Y3505D01*
X4132Y3673D01*
X3964Y3802D01*
X3769Y3883D01*
X3559Y3911D01*
D02*
G37*
G36*
X77175Y3475D02*
X77025D01*
X76888Y3418D01*
X76782Y3312D01*
X76725Y3175D01*
Y3025D01*
X76782Y2888D01*
X76888Y2782D01*
X77025Y2725D01*
X77175D01*
X77312Y2782D01*
X77418Y2888D01*
X77475Y3025D01*
Y3175D01*
X77418Y3312D01*
X77312Y3418D01*
X77175Y3475D01*
D02*
G37*
G36*
X8428Y3273D02*
X7261D01*
Y2589D01*
X7634D01*
X7844Y2617D01*
X8039Y2698D01*
X8207Y2827D01*
X8336Y2995D01*
X8417Y3190D01*
X8428Y3273D01*
D02*
G37*
G36*
X7007D02*
X5840D01*
X5850Y3190D01*
X5931Y2995D01*
X6060Y2827D01*
X6228Y2698D01*
X6424Y2617D01*
X6634Y2589D01*
X7007D01*
Y3273D01*
D02*
G37*
G36*
X4353Y2973D02*
X2436D01*
Y2289D01*
X3559D01*
X3769Y2317D01*
X3964Y2398D01*
X4132Y2527D01*
X4261Y2695D01*
X4342Y2890D01*
X4353Y2973D01*
D02*
G37*
G36*
X2182Y3911D02*
X1901D01*
Y3100D01*
Y2289D01*
X2182D01*
Y3100D01*
Y3911D01*
D02*
G37*
G36*
X82225Y2775D02*
X82075D01*
X81938Y2718D01*
X81832Y2612D01*
X81775Y2475D01*
Y2325D01*
X81832Y2188D01*
X81938Y2082D01*
X82075Y2025D01*
X82225D01*
X82362Y2082D01*
X82468Y2188D01*
X82525Y2325D01*
Y2475D01*
X82468Y2612D01*
X82362Y2718D01*
X82225Y2775D01*
D02*
G37*
G36*
X37800Y3000D02*
X32200D01*
Y1250D01*
X37800D01*
Y3000D01*
D02*
G37*
G36*
X42928Y2800D02*
X42612D01*
X42307Y2718D01*
X42033Y2560D01*
X41810Y2337D01*
X41652Y2063D01*
X41570Y1758D01*
Y1442D01*
X41652Y1137D01*
X41810Y863D01*
X42033Y640D01*
X42307Y482D01*
X42612Y400D01*
X42928D01*
X43233Y482D01*
X43507Y640D01*
X43730Y863D01*
X43888Y1137D01*
X43970Y1442D01*
Y1758D01*
X43888Y2063D01*
X43730Y2337D01*
X43507Y2560D01*
X43233Y2718D01*
X42928Y2800D01*
D02*
G37*
G36*
X40188D02*
X39872D01*
X39567Y2718D01*
X39293Y2560D01*
X39070Y2337D01*
X38912Y2063D01*
X38830Y1758D01*
Y1442D01*
X38912Y1137D01*
X39070Y863D01*
X39293Y640D01*
X39567Y482D01*
X39872Y400D01*
X40188D01*
X40493Y482D01*
X40767Y640D01*
X40990Y863D01*
X41148Y1137D01*
X41230Y1442D01*
Y1758D01*
X41148Y2063D01*
X40990Y2337D01*
X40767Y2560D01*
X40493Y2718D01*
X40188Y2800D01*
D02*
G37*
G36*
X30378D02*
X30062D01*
X29757Y2718D01*
X29483Y2560D01*
X29260Y2337D01*
X29102Y2063D01*
X29020Y1758D01*
Y1442D01*
X29102Y1137D01*
X29260Y863D01*
X29483Y640D01*
X29757Y482D01*
X30062Y400D01*
X30378D01*
X30683Y482D01*
X30957Y640D01*
X31180Y863D01*
X31338Y1137D01*
X31420Y1442D01*
Y1758D01*
X31338Y2063D01*
X31180Y2337D01*
X30957Y2560D01*
X30683Y2718D01*
X30378Y2800D01*
D02*
G37*
G36*
X27638D02*
X27322D01*
X27017Y2718D01*
X26743Y2560D01*
X26520Y2337D01*
X26362Y2063D01*
X26280Y1758D01*
Y1442D01*
X26362Y1137D01*
X26520Y863D01*
X26743Y640D01*
X27017Y482D01*
X27322Y400D01*
X27638D01*
X27943Y482D01*
X28217Y640D01*
X28440Y863D01*
X28598Y1137D01*
X28680Y1442D01*
Y1758D01*
X28598Y2063D01*
X28440Y2337D01*
X28217Y2560D01*
X27943Y2718D01*
X27638Y2800D01*
D02*
G37*
%LPD*%
G36*
X34285Y2786D02*
X34300Y2785D01*
X34320Y2783D01*
X34340Y2780D01*
X34362Y2775D01*
X34410Y2763D01*
X34435Y2755D01*
X34460Y2745D01*
X34483Y2733D01*
X34508Y2718D01*
X34530Y2703D01*
X34551Y2685D01*
X34553Y2683D01*
X34556Y2680D01*
X34561Y2675D01*
X34568Y2666D01*
X34576Y2656D01*
X34586Y2645D01*
X34595Y2631D01*
X34606Y2615D01*
X34616Y2596D01*
X34625Y2578D01*
X34643Y2535D01*
X34650Y2510D01*
X34655Y2485D01*
X34658Y2458D01*
X34660Y2430D01*
Y2428D01*
Y2426D01*
Y2421D01*
Y2415D01*
X34658Y2398D01*
X34656Y2376D01*
X34651Y2351D01*
X34646Y2323D01*
X34638Y2295D01*
X34628Y2265D01*
Y2263D01*
X34626Y2261D01*
X34621Y2251D01*
X34615Y2235D01*
X34605Y2215D01*
X34590Y2190D01*
X34573Y2163D01*
X34553Y2133D01*
X34530Y2102D01*
X34528Y2098D01*
X34521Y2092D01*
X34510Y2078D01*
X34493Y2060D01*
X34470Y2037D01*
X34443Y2008D01*
X34408Y1975D01*
X34390Y1957D01*
X34368Y1937D01*
X34367Y1935D01*
X34363Y1932D01*
X34358Y1927D01*
X34350Y1920D01*
X34330Y1902D01*
X34307Y1878D01*
X34282Y1855D01*
X34258Y1832D01*
X34237Y1812D01*
X34228Y1802D01*
X34222Y1795D01*
X34220Y1793D01*
X34217Y1788D01*
X34210Y1782D01*
X34203Y1773D01*
X34187Y1752D01*
X34172Y1728D01*
X34660D01*
Y1500D01*
X33800D01*
Y1502D01*
Y1505D01*
X33802Y1513D01*
X33803Y1522D01*
X33805Y1533D01*
X33808Y1547D01*
X33812Y1562D01*
X33815Y1578D01*
X33827Y1617D01*
X33842Y1658D01*
X33860Y1702D01*
X33883Y1745D01*
X33885Y1747D01*
X33887Y1750D01*
X33892Y1757D01*
X33898Y1767D01*
X33907Y1778D01*
X33917Y1792D01*
X33928Y1808D01*
X33943Y1827D01*
X33962Y1848D01*
X33982Y1872D01*
X34003Y1897D01*
X34028Y1925D01*
X34057Y1953D01*
X34088Y1985D01*
X34122Y2018D01*
X34158Y2053D01*
X34160Y2055D01*
X34165Y2060D01*
X34173Y2068D01*
X34185Y2078D01*
X34198Y2092D01*
X34213Y2105D01*
X34247Y2138D01*
X34282Y2173D01*
X34315Y2206D01*
X34330Y2223D01*
X34342Y2238D01*
X34353Y2251D01*
X34362Y2263D01*
Y2265D01*
X34363Y2266D01*
X34370Y2276D01*
X34378Y2291D01*
X34388Y2310D01*
X34397Y2333D01*
X34405Y2358D01*
X34412Y2385D01*
X34413Y2413D01*
Y2415D01*
Y2416D01*
Y2426D01*
X34412Y2441D01*
X34408Y2460D01*
X34402Y2480D01*
X34395Y2501D01*
X34383Y2521D01*
X34368Y2540D01*
X34367Y2541D01*
X34360Y2546D01*
X34350Y2555D01*
X34337Y2563D01*
X34320Y2570D01*
X34298Y2578D01*
X34275Y2583D01*
X34247Y2585D01*
X34233D01*
X34220Y2583D01*
X34203Y2580D01*
X34183Y2573D01*
X34163Y2565D01*
X34143Y2553D01*
X34125Y2538D01*
X34123Y2536D01*
X34118Y2530D01*
X34110Y2518D01*
X34102Y2501D01*
X34093Y2480D01*
X34085Y2453D01*
X34078Y2421D01*
X34073Y2385D01*
X33828Y2408D01*
Y2410D01*
X33830Y2416D01*
X33832Y2428D01*
X33833Y2441D01*
X33837Y2458D01*
X33842Y2476D01*
X33847Y2498D01*
X33853Y2521D01*
X33872Y2568D01*
X33882Y2593D01*
X33895Y2616D01*
X33910Y2640D01*
X33927Y2661D01*
X33945Y2681D01*
X33965Y2700D01*
X33967Y2701D01*
X33970Y2703D01*
X33977Y2708D01*
X33985Y2713D01*
X33997Y2720D01*
X34010Y2728D01*
X34027Y2736D01*
X34045Y2745D01*
X34063Y2751D01*
X34087Y2760D01*
X34110Y2768D01*
X34135Y2775D01*
X34162Y2780D01*
X34192Y2785D01*
X34222Y2786D01*
X34253Y2788D01*
X34272D01*
X34285Y2786D01*
D02*
G37*
%LPC*%
G36*
X19848Y-11857D02*
X19404D01*
Y-13322D01*
X19859D01*
X19879Y-13320D01*
X19920Y-13317D01*
X19967Y-13314D01*
X20017Y-13308D01*
X20067Y-13300D01*
X20109Y-13289D01*
X20114Y-13286D01*
X20128Y-13283D01*
X20148Y-13275D01*
X20173Y-13264D01*
X20201Y-13247D01*
X20228Y-13231D01*
X20256Y-13211D01*
X20284Y-13189D01*
X20287Y-13184D01*
X20298Y-13172D01*
X20314Y-13153D01*
X20334Y-13125D01*
X20356Y-13089D01*
X20381Y-13048D01*
X20403Y-13000D01*
X20423Y-12948D01*
Y-12945D01*
X20425Y-12939D01*
X20428Y-12931D01*
X20431Y-12920D01*
X20434Y-12906D01*
X20439Y-12886D01*
X20445Y-12867D01*
X20450Y-12845D01*
X20459Y-12789D01*
X20467Y-12725D01*
X20473Y-12653D01*
X20475Y-12576D01*
Y-12573D01*
Y-12562D01*
Y-12548D01*
X20473Y-12526D01*
Y-12501D01*
X20470Y-12473D01*
X20467Y-12440D01*
X20464Y-12406D01*
X20450Y-12331D01*
X20434Y-12254D01*
X20409Y-12181D01*
X20392Y-12145D01*
X20375Y-12115D01*
Y-12112D01*
X20370Y-12106D01*
X20364Y-12098D01*
X20359Y-12087D01*
X20337Y-12059D01*
X20309Y-12026D01*
X20273Y-11990D01*
X20231Y-11954D01*
X20184Y-11923D01*
X20134Y-11898D01*
X20128Y-11895D01*
X20114Y-11893D01*
X20090Y-11884D01*
X20053Y-11876D01*
X20009Y-11870D01*
X19953Y-11862D01*
X19920Y-11859D01*
X19884D01*
X19848Y-11857D01*
D02*
G37*
%LPD*%
D14*
X100050Y33000D02*
G03*
X98050Y35000I-2000J0D01*
G01*
Y0D02*
G03*
X100050Y2000I0J2000D01*
G01*
X2000Y35000D02*
G03*
X0Y33000I0J-2000D01*
G01*
Y2000D02*
G03*
X2000Y0I2000J0D01*
G01*
X98050D01*
X2000Y35000D02*
X98050D01*
X100050Y2000D02*
Y33000D01*
X0Y2000D02*
Y33000D01*
D168*
X2622Y25858D02*
D03*
X5162D02*
D03*
D169*
X7702D02*
D03*
D171*
X30120Y4350D02*
D03*
X27580D02*
D03*
X42670Y4400D02*
D03*
X40130D02*
D03*
D172*
X7134Y3400D02*
D03*
Y12040D02*
D03*
D173*
X1774Y12340D02*
D03*
Y3100D02*
D03*
D174*
X2309Y12340D02*
D03*
Y3100D02*
D03*
D175*
X42500Y13800D02*
D03*
X32200Y13028D02*
D03*
X69800Y28050D02*
D03*
X69550Y27400D02*
D03*
X69378Y26800D02*
D03*
X70124Y26729D02*
D03*
X4150Y15900D02*
D03*
X3550Y17000D02*
D03*
X2593Y16177D02*
D03*
X3193D02*
D03*
X70150Y29050D02*
D03*
X72477Y28728D02*
D03*
X28050Y30450D02*
D03*
X26398Y31712D02*
D03*
X36900Y32050D02*
D03*
X4324Y23964D02*
D03*
X23538Y20233D02*
D03*
X51479Y26821D02*
D03*
X53700Y24950D02*
D03*
X59250D02*
D03*
X61800Y27250D02*
D03*
X57300Y24550D02*
D03*
X57925Y24275D02*
D03*
X49100Y27500D02*
D03*
X18113Y27895D02*
D03*
X36100Y31000D02*
D03*
X40055Y29533D02*
D03*
X29150Y29550D02*
D03*
X41275Y29175D02*
D03*
X52150Y28550D02*
D03*
X51600Y27750D02*
D03*
X74700Y23550D02*
D03*
X65050Y11550D02*
D03*
X64382Y11540D02*
D03*
X87016Y21670D02*
D03*
X84950Y21000D02*
D03*
X85986Y13314D02*
D03*
X18000Y11500D02*
D03*
X57872Y5690D02*
D03*
X98450Y2100D02*
D03*
X94700Y9600D02*
D03*
X95950Y7100D02*
D03*
Y2100D02*
D03*
X93450Y12100D02*
D03*
X92200Y9600D02*
D03*
X93450Y7100D02*
D03*
X92200Y4600D02*
D03*
X89700Y14600D02*
D03*
X90950Y12100D02*
D03*
X89700Y9600D02*
D03*
X90950Y7100D02*
D03*
X89700Y4600D02*
D03*
X90950Y2100D02*
D03*
X88450Y12100D02*
D03*
Y7100D02*
D03*
Y2100D02*
D03*
X85950Y7100D02*
D03*
Y2100D02*
D03*
X74700Y29600D02*
D03*
X73450Y32100D02*
D03*
Y7100D02*
D03*
X69700Y9600D02*
D03*
X70950Y7100D02*
D03*
X69700Y4600D02*
D03*
X70950Y2100D02*
D03*
X68450Y32100D02*
D03*
X67200Y24600D02*
D03*
Y19600D02*
D03*
Y9600D02*
D03*
X68450Y2100D02*
D03*
X65950Y32100D02*
D03*
X64700Y19600D02*
D03*
Y4600D02*
D03*
X65950Y2100D02*
D03*
X62200Y29600D02*
D03*
Y19600D02*
D03*
Y9600D02*
D03*
X63450Y2100D02*
D03*
X60950D02*
D03*
X57200Y9600D02*
D03*
X58450Y7100D02*
D03*
X57200Y4600D02*
D03*
X58450Y2100D02*
D03*
X54700Y9600D02*
D03*
X55950Y2100D02*
D03*
X52200Y9600D02*
D03*
X53450Y7100D02*
D03*
X52200Y4600D02*
D03*
X53450Y2100D02*
D03*
X50950Y32100D02*
D03*
X49700Y14600D02*
D03*
Y9600D02*
D03*
X50950Y7100D02*
D03*
X49700Y4600D02*
D03*
X50950Y2100D02*
D03*
X47200Y29600D02*
D03*
X48450Y7100D02*
D03*
Y2100D02*
D03*
X45950Y22100D02*
D03*
Y12100D02*
D03*
Y7100D02*
D03*
X44700Y4600D02*
D03*
X45950Y2100D02*
D03*
X42200Y24600D02*
D03*
X43450Y17100D02*
D03*
X40950D02*
D03*
X37200Y4600D02*
D03*
X38450Y2100D02*
D03*
X35950Y17100D02*
D03*
X32200Y19600D02*
D03*
Y4600D02*
D03*
X30950Y27100D02*
D03*
X28450Y17100D02*
D03*
X25950D02*
D03*
Y2100D02*
D03*
X22200Y4600D02*
D03*
X23450Y2100D02*
D03*
X19700Y4600D02*
D03*
X20950Y2100D02*
D03*
X18450Y17100D02*
D03*
X17200Y14600D02*
D03*
X18450Y2100D02*
D03*
X15950Y17100D02*
D03*
X14700Y9600D02*
D03*
X15950Y7100D02*
D03*
X14700Y4600D02*
D03*
X15950Y2100D02*
D03*
X13450D02*
D03*
X8450Y32100D02*
D03*
X7200Y9600D02*
D03*
Y4600D02*
D03*
X4700D02*
D03*
X3450Y32100D02*
D03*
X2200Y14600D02*
D03*
Y9600D02*
D03*
X3450Y7100D02*
D03*
X2200Y4600D02*
D03*
X950Y7100D02*
D03*
X26050Y23400D02*
D03*
X35450Y4250D02*
D03*
X33750Y4250D02*
D03*
X35452Y7345D02*
D03*
X33750Y7350D02*
D03*
X59581Y5255D02*
D03*
X41573Y25568D02*
D03*
X87381Y25783D02*
D03*
X88882Y26677D02*
D03*
X87028Y27768D02*
D03*
X99110Y16466D02*
D03*
X82624Y32926D02*
D03*
X89276Y26224D02*
D03*
X88164Y26880D02*
D03*
X81776Y33774D02*
D03*
X81382Y34227D02*
D03*
X92222Y23226D02*
D03*
X83932Y31677D02*
D03*
X84000Y22550D02*
D03*
X83606Y24404D02*
D03*
X97731Y17681D02*
D03*
X82200Y33350D02*
D03*
X84326Y31224D02*
D03*
X84860Y23412D02*
D03*
X96489Y18982D02*
D03*
X92646Y22802D02*
D03*
X90124Y25376D02*
D03*
X98580Y16832D02*
D03*
X95196Y20241D02*
D03*
X97307Y18105D02*
D03*
X83049Y32501D02*
D03*
X83224Y23974D02*
D03*
X98156Y17257D02*
D03*
X84879Y25677D02*
D03*
X85727Y26525D02*
D03*
X99534Y16042D02*
D03*
X82591Y21736D02*
D03*
X84424Y22974D02*
D03*
X82800Y23550D02*
D03*
X93953Y21542D02*
D03*
X85174Y30376D02*
D03*
X86151Y26950D02*
D03*
X96883Y18529D02*
D03*
X85599Y29951D02*
D03*
X94347Y21090D02*
D03*
X96044Y19393D02*
D03*
X95620Y19817D02*
D03*
X91403Y24103D02*
D03*
X94771Y20666D02*
D03*
X90549Y24951D02*
D03*
X83473Y32077D02*
D03*
X93494Y21953D02*
D03*
X93070Y22377D02*
D03*
X86576Y27374D02*
D03*
X86023Y29527D02*
D03*
X85284Y23836D02*
D03*
X84750Y30800D02*
D03*
X91797Y23650D02*
D03*
X90973Y24527D02*
D03*
X86507Y24959D02*
D03*
X85303Y26101D02*
D03*
X89700Y25800D02*
D03*
X99437Y10402D02*
D03*
Y13172D02*
D03*
X99379Y11829D02*
D03*
X98200Y16050D02*
D03*
Y14650D02*
D03*
Y13250D02*
D03*
Y11850D02*
D03*
Y10450D02*
D03*
Y9050D02*
D03*
X96800Y17450D02*
D03*
Y16050D02*
D03*
Y14650D02*
D03*
Y13250D02*
D03*
Y11850D02*
D03*
Y10450D02*
D03*
X95400Y18850D02*
D03*
Y17450D02*
D03*
Y16050D02*
D03*
Y14650D02*
D03*
Y13250D02*
D03*
Y11850D02*
D03*
X94000Y20250D02*
D03*
Y18850D02*
D03*
Y17450D02*
D03*
Y16050D02*
D03*
Y14650D02*
D03*
Y13250D02*
D03*
X92600Y21650D02*
D03*
Y20250D02*
D03*
Y18850D02*
D03*
Y17450D02*
D03*
Y16050D02*
D03*
Y14650D02*
D03*
X91200Y23050D02*
D03*
Y21650D02*
D03*
Y20250D02*
D03*
Y18850D02*
D03*
Y17450D02*
D03*
Y16050D02*
D03*
X89800Y24450D02*
D03*
Y23050D02*
D03*
Y21650D02*
D03*
Y20250D02*
D03*
Y18850D02*
D03*
Y17450D02*
D03*
X88400Y24450D02*
D03*
Y23050D02*
D03*
Y21650D02*
D03*
X87000Y24450D02*
D03*
Y23050D02*
D03*
X85600Y28650D02*
D03*
Y27250D02*
D03*
Y23050D02*
D03*
Y21650D02*
D03*
X84200Y30050D02*
D03*
X82800Y31450D02*
D03*
Y30050D02*
D03*
X81400Y32850D02*
D03*
Y31450D02*
D03*
Y30050D02*
D03*
X80000Y34250D02*
D03*
Y32850D02*
D03*
Y31450D02*
D03*
Y30050D02*
D03*
Y28650D02*
D03*
X78600Y34250D02*
D03*
Y32850D02*
D03*
Y31450D02*
D03*
Y30050D02*
D03*
X77200Y34250D02*
D03*
Y32850D02*
D03*
Y31450D02*
D03*
Y30050D02*
D03*
X75800Y34250D02*
D03*
Y32850D02*
D03*
Y31450D02*
D03*
X74400Y34250D02*
D03*
Y32850D02*
D03*
X73000Y34250D02*
D03*
X84193Y507D02*
D03*
X44143Y34507D02*
D03*
X27200Y9850D02*
D03*
X26850Y13850D02*
D03*
X26900Y12950D02*
D03*
X27800Y13450D02*
D03*
X20602Y11200D02*
D03*
Y10641D02*
D03*
X76344Y20654D02*
D03*
X37653Y23947D02*
D03*
X34990Y23920D02*
D03*
X34907Y19347D02*
D03*
X6255Y22292D02*
D03*
X6250Y22950D02*
D03*
Y21650D02*
D03*
X850Y19900D02*
D03*
X2528Y18850D02*
D03*
X4050Y14350D02*
D03*
Y15350D02*
D03*
X62000Y13450D02*
D03*
X63424Y16920D02*
D03*
X68250Y8100D02*
D03*
X67600Y8750D02*
D03*
X71115Y26458D02*
D03*
X71300Y25750D02*
D03*
X71250Y24850D02*
D03*
X68300Y30650D02*
D03*
X42450Y28100D02*
D03*
X43000Y26700D02*
D03*
X42200Y31400D02*
D03*
X43950Y26650D02*
D03*
X41482Y31360D02*
D03*
X41500Y33250D02*
D03*
X40450Y31328D02*
D03*
X40454Y33620D02*
D03*
X22943Y29239D02*
D03*
X22959Y29887D02*
D03*
X23750Y29900D02*
D03*
X24502Y29885D02*
D03*
X23900Y34450D02*
D03*
X23000Y28500D02*
D03*
X14050Y28300D02*
D03*
X15550Y26650D02*
D03*
X18200Y27150D02*
D03*
X14450Y14100D02*
D03*
X15100Y13800D02*
D03*
X14650Y13050D02*
D03*
X5200Y8550D02*
D03*
X11700Y12800D02*
D03*
X12300Y14100D02*
D03*
X72276Y22775D02*
D03*
X32973Y14877D02*
D03*
X38050Y26150D02*
D03*
X39150Y25700D02*
D03*
X38665Y27147D02*
D03*
X39900Y26700D02*
D03*
X43875Y31300D02*
D03*
X41350Y27862D02*
D03*
X37600Y25600D02*
D03*
X52550Y33600D02*
D03*
X64550Y29600D02*
D03*
X24750Y11250D02*
D03*
X41000Y6650D02*
D03*
X29900Y6750D02*
D03*
X35459Y12012D02*
D03*
X36459Y12037D02*
D03*
X38250Y11800D02*
D03*
X33700Y11850D02*
D03*
X30800Y7400D02*
D03*
X29900Y7450D02*
D03*
X44300Y15100D02*
D03*
X41000Y7250D02*
D03*
X41900Y7300D02*
D03*
X30500Y11500D02*
D03*
X41601Y11473D02*
D03*
X76500Y23450D02*
D03*
X88150Y25800D02*
D03*
X29200Y5800D02*
D03*
X41450Y5950D02*
D03*
X46050Y3700D02*
D03*
X60000Y6950D02*
D03*
X45225Y31300D02*
D03*
X62600Y32700D02*
D03*
X70600Y13450D02*
D03*
X52500Y17500D02*
D03*
Y19500D02*
D03*
X54500D02*
D03*
X83000Y9950D02*
D03*
X8750Y7145D02*
D03*
X5250Y7800D02*
D03*
X8800Y8206D02*
D03*
X5050Y15500D02*
D03*
X6550Y15550D02*
D03*
X67350Y21400D02*
D03*
X64100D02*
D03*
X41350Y24050D02*
D03*
X82784Y12186D02*
D03*
X81850Y13350D02*
D03*
X79400Y12100D02*
D03*
X80400Y12450D02*
D03*
X53550Y34500D02*
D03*
X51050D02*
D03*
X35991Y14813D02*
D03*
X33700Y14050D02*
D03*
X47750Y24600D02*
D03*
X45400D02*
D03*
X54490Y32900D02*
D03*
X46800Y23550D02*
D03*
X49050Y23600D02*
D03*
X47500Y27450D02*
D03*
X38300Y14050D02*
D03*
X17900Y10200D02*
D03*
X50900Y13450D02*
D03*
X51418Y14022D02*
D03*
X53150Y13400D02*
D03*
X53100Y14000D02*
D03*
X60200Y34529D02*
D03*
X99429Y9179D02*
D03*
Y14629D02*
D03*
X521Y32832D02*
D03*
X65650Y34529D02*
D03*
X521Y11032D02*
D03*
X7861Y471D02*
D03*
X51461D02*
D03*
X80838Y34512D02*
D03*
X22050Y34529D02*
D03*
X5700D02*
D03*
X27500D02*
D03*
X71100D02*
D03*
X67811Y471D02*
D03*
X521Y5582D02*
D03*
X89611Y471D02*
D03*
X95061D02*
D03*
X521Y27382D02*
D03*
X18761Y471D02*
D03*
X54750Y34529D02*
D03*
X79100Y500D02*
D03*
X11150Y34529D02*
D03*
X49300D02*
D03*
X56911Y471D02*
D03*
X521Y16482D02*
D03*
X99429Y3729D02*
D03*
X2411Y471D02*
D03*
X13311D02*
D03*
X38400Y34529D02*
D03*
X62361Y471D02*
D03*
X40911D02*
D03*
X24211D02*
D03*
X521Y21932D02*
D03*
X46011Y471D02*
D03*
X73261D02*
D03*
X35111D02*
D03*
X32950Y34529D02*
D03*
X28854Y539D02*
D03*
X61900Y16900D02*
D03*
X64550Y13400D02*
D03*
X46950Y20900D02*
D03*
Y19950D02*
D03*
X61850Y4600D02*
D03*
X55800Y4800D02*
D03*
X58412Y8012D02*
D03*
X58096Y9061D02*
D03*
X60196Y9073D02*
D03*
X60150Y8000D02*
D03*
X37645Y21285D02*
D03*
X35039Y21250D02*
D03*
X36345Y22635D02*
D03*
X41122Y20699D02*
D03*
X39491Y21385D02*
D03*
X39690Y19127D02*
D03*
X45180Y30398D02*
D03*
X43850Y30400D02*
D03*
X51600Y29450D02*
D03*
X38135Y26866D02*
D03*
X35583Y27824D02*
D03*
X34551Y27844D02*
D03*
X33547Y27873D02*
D03*
X32450Y25450D02*
D03*
X39500Y24852D02*
D03*
X37595Y19349D02*
D03*
X68378Y18928D02*
D03*
X68376Y16649D02*
D03*
X67400Y18600D02*
D03*
X45635Y16095D02*
D03*
X54150Y14550D02*
D03*
X47523Y16127D02*
D03*
X60496Y3908D02*
D03*
Y5258D02*
D03*
X70100Y21500D02*
D03*
X54550Y26950D02*
D03*
X55850D02*
D03*
Y32900D02*
D03*
X57150D02*
D03*
X59650Y32950D02*
D03*
X74650Y9750D02*
D03*
X71507Y31599D02*
D03*
X75050Y27550D02*
D03*
X50250Y32950D02*
D03*
X80898Y2387D02*
D03*
X79650Y2400D02*
D03*
X82150D02*
D03*
X16950Y29250D02*
D03*
X15200Y25800D02*
D03*
X12398Y22862D02*
D03*
X12998Y23412D02*
D03*
X12398Y23962D02*
D03*
X15600Y11500D02*
D03*
X17750Y23000D02*
D03*
X19375Y28886D02*
D03*
X76200Y11811D02*
D03*
X48250Y21900D02*
D03*
X69986Y15650D02*
D03*
X71628Y17947D02*
D03*
X73850Y17850D02*
D03*
X72450Y11400D02*
D03*
X69000Y13150D02*
D03*
X71450Y13500D02*
D03*
X63150Y29250D02*
D03*
X54050Y16850D02*
D03*
X35703Y10148D02*
D03*
X34616Y10248D02*
D03*
X33490D02*
D03*
X83150Y15650D02*
D03*
X84050Y18750D02*
D03*
X85100Y15000D02*
D03*
X85850D02*
D03*
X77100Y3100D02*
D03*
X86833Y20196D02*
D03*
X52150Y21900D02*
D03*
X78950Y12650D02*
D03*
X36850Y26100D02*
D03*
X20811Y28836D02*
D03*
X8801Y4115D02*
D03*
X7100Y10800D02*
D03*
X11933Y18830D02*
D03*
X11138Y21172D02*
D03*
X20073Y28487D02*
D03*
X13933Y32988D02*
D03*
X16689Y34500D02*
D03*
X27523Y31437D02*
D03*
X21411Y27132D02*
D03*
X17823Y24427D02*
D03*
X18125Y25987D02*
D03*
X18973Y26187D02*
D03*
X24573Y26387D02*
D03*
X14373Y20137D02*
D03*
X20106Y20270D02*
D03*
X20773Y20255D02*
D03*
X15483Y20937D02*
D03*
X24523Y19187D02*
D03*
X26223Y20187D02*
D03*
X22273D02*
D03*
X23673Y21287D02*
D03*
X27223Y22487D02*
D03*
X23731Y23390D02*
D03*
X20423Y19237D02*
D03*
X15023Y22687D02*
D03*
X24273Y15387D02*
D03*
X20423Y18487D02*
D03*
X21550Y10650D02*
D03*
X80550Y22850D02*
D03*
X74315Y15720D02*
D03*
X86925Y25404D02*
D03*
X87178Y28381D02*
D03*
X72900Y30800D02*
D03*
X10150Y4150D02*
D03*
X14800Y8000D02*
D03*
X11850Y8800D02*
D03*
X10900Y7850D02*
D03*
X77600Y28150D02*
D03*
X76250Y28200D02*
D03*
X77700Y24950D02*
D03*
X76850Y25100D02*
D03*
X71400Y22800D02*
D03*
X79900Y22700D02*
D03*
X80950Y20750D02*
D03*
X76200Y16000D02*
D03*
X78613Y18415D02*
D03*
X74350Y14150D02*
D03*
X4950Y17350D02*
D03*
X86550Y23900D02*
D03*
X83111Y19690D02*
D03*
X82849Y21167D02*
D03*
X80900Y16000D02*
D03*
X78900Y25250D02*
D03*
X84650Y18000D02*
D03*
X78345Y14230D02*
D03*
X78000Y10202D02*
D03*
X77018D02*
D03*
X84295Y21524D02*
D03*
X7591Y2453D02*
D03*
X9763Y10808D02*
D03*
X80300Y24550D02*
D03*
X77273Y22799D02*
D03*
X78350Y22700D02*
D03*
X81000Y24550D02*
D03*
X82300Y14450D02*
D03*
X31150Y31250D02*
D03*
X84850Y22000D02*
D03*
X73380Y21110D02*
D03*
X73300Y21798D02*
D03*
X74900Y11800D02*
D03*
X72400Y15798D02*
D03*
X36018Y16072D02*
D03*
X73900Y11800D02*
D03*
X79856Y14256D02*
D03*
X84586Y11614D02*
D03*
X86400Y17000D02*
D03*
X83578Y19212D02*
D03*
X81727Y24826D02*
D03*
X10900Y8800D02*
D03*
X72200Y17100D02*
D03*
X83943Y10390D02*
D03*
X86383Y19712D02*
D03*
X86480Y28983D02*
D03*
X81200Y11900D02*
D03*
X7900Y21650D02*
D03*
X14800Y6300D02*
D03*
X84328Y14986D02*
D03*
X83992Y28620D02*
D03*
X81870Y26498D02*
D03*
X24003Y3683D02*
D03*
X88900Y10795D02*
D03*
X88265Y20193D02*
D03*
X53975Y3750D02*
D03*
X66025D02*
D03*
X73975D02*
D03*
X93975D02*
D03*
X86025D02*
D03*
D176*
X21400Y22550D02*
D03*
X20300D02*
D03*
X21400Y23650D02*
D03*
X20300D02*
D03*
X21400Y24750D02*
D03*
X20300D02*
D03*
M02*
