G04*
G04 #@! TF.GenerationSoftware,Altium Limited,Altium Designer,24.2.2 (26)*
G04*
G04 Layer_Color=128*
%FSLAX43Y43*%
%MOMM*%
G71*
G04*
G04 #@! TF.SameCoordinates,4F7CD7CC-9D04-48A1-B46F-AFD2B6BA45A4*
G04*
G04*
G04 #@! TF.FilePolarity,Positive*
G04*
G01*
G75*
%ADD14C,0.100*%
%ADD181C,0.051*%
D14*
X100050Y33000D02*
G03*
X98050Y35000I-2000J0D01*
G01*
Y0D02*
G03*
X100050Y2000I0J2000D01*
G01*
X2000Y35000D02*
G03*
X0Y33000I0J-2000D01*
G01*
Y2000D02*
G03*
X2000Y0I2000J0D01*
G01*
X98050D01*
X2000Y35000D02*
X98050D01*
X100050Y2000D02*
Y33000D01*
X0Y2000D02*
Y33000D01*
D181*
X2122Y25858D02*
X3122D01*
X2622Y25358D02*
Y26358D01*
X7202Y25858D02*
X8202D01*
X7702Y25358D02*
Y26358D01*
X4662Y25858D02*
X5662D01*
X5162Y25358D02*
Y26358D01*
X7162Y30000D02*
X9162D01*
X8162Y29000D02*
Y31000D01*
X29620Y4350D02*
X30620D01*
X30120Y3850D02*
Y4850D01*
X27080Y4350D02*
X28080D01*
X27580Y3850D02*
Y4850D01*
X42170Y4400D02*
X43170D01*
X42670Y3900D02*
Y4900D01*
X39630Y4400D02*
X40630D01*
X40130Y3900D02*
Y4900D01*
X6834Y3400D02*
X7434D01*
X7134Y3100D02*
Y3700D01*
X1474Y12340D02*
X2074D01*
X1774Y12040D02*
Y12640D01*
X1474Y3100D02*
X2074D01*
X1774Y2800D02*
Y3400D01*
X6834Y12040D02*
X7434D01*
X7134Y11740D02*
Y12340D01*
X26480Y1600D02*
X28480D01*
X27480Y600D02*
Y2600D01*
X29220Y1600D02*
X31220D01*
X30220Y600D02*
Y2600D01*
X9050Y15800D02*
X12050D01*
X10550Y14300D02*
Y17300D01*
X41770Y1600D02*
X43770D01*
X42770Y600D02*
Y2600D01*
X39030Y1600D02*
X41030D01*
X40030Y600D02*
Y2600D01*
X4162Y30000D02*
X6162D01*
X5162Y29000D02*
Y31000D01*
X1162Y30000D02*
X3162D01*
X2162Y29000D02*
Y31000D01*
X96150Y5750D02*
X99150D01*
X97650Y4250D02*
Y7250D01*
X33100Y33050D02*
X36100D01*
X34600Y31550D02*
Y34550D01*
X42400Y13800D02*
X42600D01*
X42500Y13700D02*
Y13900D01*
X32100Y13028D02*
X32300D01*
X32200Y12928D02*
Y13128D01*
X69700Y28050D02*
X69900D01*
X69800Y27950D02*
Y28150D01*
X69450Y27400D02*
X69650D01*
X69550Y27300D02*
Y27500D01*
X69278Y26800D02*
X69478D01*
X69378Y26700D02*
Y26900D01*
X70024Y26729D02*
X70224D01*
X70124Y26629D02*
Y26829D01*
X4050Y15900D02*
X4250D01*
X4150Y15800D02*
Y16000D01*
X3450Y17000D02*
X3650D01*
X3550Y16900D02*
Y17100D01*
X2493Y16177D02*
X2693D01*
X2593Y16077D02*
Y16277D01*
X3093Y16177D02*
X3293D01*
X3193Y16077D02*
Y16277D01*
X70050Y29050D02*
X70250D01*
X70150Y28950D02*
Y29150D01*
X72377Y28728D02*
X72577D01*
X72477Y28628D02*
Y28828D01*
X27950Y30450D02*
X28150D01*
X28050Y30350D02*
Y30550D01*
X26298Y31712D02*
X26498D01*
X26398Y31612D02*
Y31812D01*
X36800Y32050D02*
X37000D01*
X36900Y31950D02*
Y32150D01*
X4224Y23964D02*
X4424D01*
X4324Y23864D02*
Y24064D01*
X23438Y20233D02*
X23638D01*
X23538Y20133D02*
Y20333D01*
X51379Y26821D02*
X51579D01*
X51479Y26721D02*
Y26921D01*
X53600Y24950D02*
X53800D01*
X53700Y24850D02*
Y25050D01*
X59150Y24950D02*
X59350D01*
X59250Y24850D02*
Y25050D01*
X61700Y27250D02*
X61900D01*
X61800Y27150D02*
Y27350D01*
X57200Y24550D02*
X57400D01*
X57300Y24450D02*
Y24650D01*
X57825Y24275D02*
X58025D01*
X57925Y24175D02*
Y24375D01*
X49000Y27500D02*
X49200D01*
X49100Y27400D02*
Y27600D01*
X18013Y27895D02*
X18213D01*
X18113Y27795D02*
Y27995D01*
X36000Y31000D02*
X36200D01*
X36100Y30900D02*
Y31100D01*
X39955Y29533D02*
X40155D01*
X40055Y29433D02*
Y29633D01*
X29050Y29550D02*
X29250D01*
X29150Y29450D02*
Y29650D01*
X41175Y29175D02*
X41375D01*
X41275Y29075D02*
Y29275D01*
X52050Y28550D02*
X52250D01*
X52150Y28450D02*
Y28650D01*
X51500Y27750D02*
X51700D01*
X51600Y27650D02*
Y27850D01*
X74600Y23550D02*
X74800D01*
X74700Y23450D02*
Y23650D01*
X64950Y11550D02*
X65150D01*
X65050Y11450D02*
Y11650D01*
X64282Y11540D02*
X64482D01*
X64382Y11440D02*
Y11640D01*
X86916Y21670D02*
X87116D01*
X87016Y21570D02*
Y21770D01*
X84850Y21000D02*
X85050D01*
X84950Y20900D02*
Y21100D01*
X85886Y13314D02*
X86086D01*
X85986Y13214D02*
Y13414D01*
X17900Y11500D02*
X18100D01*
X18000Y11400D02*
Y11600D01*
X57772Y5690D02*
X57972D01*
X57872Y5590D02*
Y5790D01*
X98350Y2100D02*
X98550D01*
X98450Y2000D02*
Y2200D01*
X94600Y9600D02*
X94800D01*
X94700Y9500D02*
Y9700D01*
X95850Y7100D02*
X96050D01*
X95950Y7000D02*
Y7200D01*
X95850Y2100D02*
X96050D01*
X95950Y2000D02*
Y2200D01*
X93350Y12100D02*
X93550D01*
X93450Y12000D02*
Y12200D01*
X92100Y9600D02*
X92300D01*
X92200Y9500D02*
Y9700D01*
X93350Y7100D02*
X93550D01*
X93450Y7000D02*
Y7200D01*
X92100Y4600D02*
X92300D01*
X92200Y4500D02*
Y4700D01*
X89600Y14600D02*
X89800D01*
X89700Y14500D02*
Y14700D01*
X90850Y12100D02*
X91050D01*
X90950Y12000D02*
Y12200D01*
X89600Y9600D02*
X89800D01*
X89700Y9500D02*
Y9700D01*
X90850Y7100D02*
X91050D01*
X90950Y7000D02*
Y7200D01*
X89600Y4600D02*
X89800D01*
X89700Y4500D02*
Y4700D01*
X90850Y2100D02*
X91050D01*
X90950Y2000D02*
Y2200D01*
X88350Y12100D02*
X88550D01*
X88450Y12000D02*
Y12200D01*
X88350Y7100D02*
X88550D01*
X88450Y7000D02*
Y7200D01*
X88350Y2100D02*
X88550D01*
X88450Y2000D02*
Y2200D01*
X85850Y7100D02*
X86050D01*
X85950Y7000D02*
Y7200D01*
X85850Y2100D02*
X86050D01*
X85950Y2000D02*
Y2200D01*
X74600Y29600D02*
X74800D01*
X74700Y29500D02*
Y29700D01*
X73350Y32100D02*
X73550D01*
X73450Y32000D02*
Y32200D01*
X73350Y7100D02*
X73550D01*
X73450Y7000D02*
Y7200D01*
X69600Y9600D02*
X69800D01*
X69700Y9500D02*
Y9700D01*
X70850Y7100D02*
X71050D01*
X70950Y7000D02*
Y7200D01*
X69600Y4600D02*
X69800D01*
X69700Y4500D02*
Y4700D01*
X70850Y2100D02*
X71050D01*
X70950Y2000D02*
Y2200D01*
X68350Y32100D02*
X68550D01*
X68450Y32000D02*
Y32200D01*
X67100Y24600D02*
X67300D01*
X67200Y24500D02*
Y24700D01*
X67100Y19600D02*
X67300D01*
X67200Y19500D02*
Y19700D01*
X67100Y9600D02*
X67300D01*
X67200Y9500D02*
Y9700D01*
X68350Y2100D02*
X68550D01*
X68450Y2000D02*
Y2200D01*
X65850Y32100D02*
X66050D01*
X65950Y32000D02*
Y32200D01*
X64600Y19600D02*
X64800D01*
X64700Y19500D02*
Y19700D01*
X64600Y4600D02*
X64800D01*
X64700Y4500D02*
Y4700D01*
X65850Y2100D02*
X66050D01*
X65950Y2000D02*
Y2200D01*
X62100Y29600D02*
X62300D01*
X62200Y29500D02*
Y29700D01*
X62100Y19600D02*
X62300D01*
X62200Y19500D02*
Y19700D01*
X62100Y9600D02*
X62300D01*
X62200Y9500D02*
Y9700D01*
X63350Y2100D02*
X63550D01*
X63450Y2000D02*
Y2200D01*
X60850Y2100D02*
X61050D01*
X60950Y2000D02*
Y2200D01*
X57100Y9600D02*
X57300D01*
X57200Y9500D02*
Y9700D01*
X58350Y7100D02*
X58550D01*
X58450Y7000D02*
Y7200D01*
X57100Y4600D02*
X57300D01*
X57200Y4500D02*
Y4700D01*
X58350Y2100D02*
X58550D01*
X58450Y2000D02*
Y2200D01*
X54600Y9600D02*
X54800D01*
X54700Y9500D02*
Y9700D01*
X55850Y2100D02*
X56050D01*
X55950Y2000D02*
Y2200D01*
X52100Y9600D02*
X52300D01*
X52200Y9500D02*
Y9700D01*
X53350Y7100D02*
X53550D01*
X53450Y7000D02*
Y7200D01*
X52100Y4600D02*
X52300D01*
X52200Y4500D02*
Y4700D01*
X53350Y2100D02*
X53550D01*
X53450Y2000D02*
Y2200D01*
X50850Y32100D02*
X51050D01*
X50950Y32000D02*
Y32200D01*
X49600Y14600D02*
X49800D01*
X49700Y14500D02*
Y14700D01*
X49600Y9600D02*
X49800D01*
X49700Y9500D02*
Y9700D01*
X50850Y7100D02*
X51050D01*
X50950Y7000D02*
Y7200D01*
X49600Y4600D02*
X49800D01*
X49700Y4500D02*
Y4700D01*
X50850Y2100D02*
X51050D01*
X50950Y2000D02*
Y2200D01*
X47100Y29600D02*
X47300D01*
X47200Y29500D02*
Y29700D01*
X48350Y7100D02*
X48550D01*
X48450Y7000D02*
Y7200D01*
X48350Y2100D02*
X48550D01*
X48450Y2000D02*
Y2200D01*
X45850Y22100D02*
X46050D01*
X45950Y22000D02*
Y22200D01*
X45850Y12100D02*
X46050D01*
X45950Y12000D02*
Y12200D01*
X45850Y7100D02*
X46050D01*
X45950Y7000D02*
Y7200D01*
X44600Y4600D02*
X44800D01*
X44700Y4500D02*
Y4700D01*
X45850Y2100D02*
X46050D01*
X45950Y2000D02*
Y2200D01*
X42100Y24600D02*
X42300D01*
X42200Y24500D02*
Y24700D01*
X43350Y17100D02*
X43550D01*
X43450Y17000D02*
Y17200D01*
X40850Y17100D02*
X41050D01*
X40950Y17000D02*
Y17200D01*
X37100Y4600D02*
X37300D01*
X37200Y4500D02*
Y4700D01*
X38350Y2100D02*
X38550D01*
X38450Y2000D02*
Y2200D01*
X35850Y17100D02*
X36050D01*
X35950Y17000D02*
Y17200D01*
X32100Y19600D02*
X32300D01*
X32200Y19500D02*
Y19700D01*
X32100Y4600D02*
X32300D01*
X32200Y4500D02*
Y4700D01*
X30850Y27100D02*
X31050D01*
X30950Y27000D02*
Y27200D01*
X28350Y17100D02*
X28550D01*
X28450Y17000D02*
Y17200D01*
X25850Y17100D02*
X26050D01*
X25950Y17000D02*
Y17200D01*
X25850Y2100D02*
X26050D01*
X25950Y2000D02*
Y2200D01*
X22100Y4600D02*
X22300D01*
X22200Y4500D02*
Y4700D01*
X23350Y2100D02*
X23550D01*
X23450Y2000D02*
Y2200D01*
X19600Y4600D02*
X19800D01*
X19700Y4500D02*
Y4700D01*
X20850Y2100D02*
X21050D01*
X20950Y2000D02*
Y2200D01*
X18350Y17100D02*
X18550D01*
X18450Y17000D02*
Y17200D01*
X17100Y14600D02*
X17300D01*
X17200Y14500D02*
Y14700D01*
X18350Y2100D02*
X18550D01*
X18450Y2000D02*
Y2200D01*
X15850Y17100D02*
X16050D01*
X15950Y17000D02*
Y17200D01*
X14600Y9600D02*
X14800D01*
X14700Y9500D02*
Y9700D01*
X15850Y7100D02*
X16050D01*
X15950Y7000D02*
Y7200D01*
X14600Y4600D02*
X14800D01*
X14700Y4500D02*
Y4700D01*
X15850Y2100D02*
X16050D01*
X15950Y2000D02*
Y2200D01*
X13350Y2100D02*
X13550D01*
X13450Y2000D02*
Y2200D01*
X8350Y32100D02*
X8550D01*
X8450Y32000D02*
Y32200D01*
X7100Y9600D02*
X7300D01*
X7200Y9500D02*
Y9700D01*
X7100Y4600D02*
X7300D01*
X7200Y4500D02*
Y4700D01*
X4600Y4600D02*
X4800D01*
X4700Y4500D02*
Y4700D01*
X3350Y32100D02*
X3550D01*
X3450Y32000D02*
Y32200D01*
X2100Y14600D02*
X2300D01*
X2200Y14500D02*
Y14700D01*
X2100Y9600D02*
X2300D01*
X2200Y9500D02*
Y9700D01*
X3350Y7100D02*
X3550D01*
X3450Y7000D02*
Y7200D01*
X2100Y4600D02*
X2300D01*
X2200Y4500D02*
Y4700D01*
X850Y7100D02*
X1050D01*
X950Y7000D02*
Y7200D01*
X25950Y23400D02*
X26150D01*
X26050Y23300D02*
Y23500D01*
X35350Y4250D02*
X35550D01*
X35450Y4150D02*
Y4350D01*
X33650Y4250D02*
X33850D01*
X33750Y4150D02*
Y4350D01*
X35352Y7345D02*
X35552D01*
X35452Y7245D02*
Y7445D01*
X33650Y7350D02*
X33850D01*
X33750Y7250D02*
Y7450D01*
X59481Y5255D02*
X59681D01*
X59581Y5155D02*
Y5355D01*
X41473Y25568D02*
X41673D01*
X41573Y25468D02*
Y25668D01*
X87281Y25783D02*
X87481D01*
X87381Y25683D02*
Y25883D01*
X88782Y26677D02*
X88982D01*
X88882Y26577D02*
Y26777D01*
X86928Y27768D02*
X87128D01*
X87028Y27668D02*
Y27868D01*
X99010Y16466D02*
X99210D01*
X99110Y16366D02*
Y16566D01*
X82524Y32926D02*
X82724D01*
X82624Y32826D02*
Y33026D01*
X89176Y26224D02*
X89376D01*
X89276Y26124D02*
Y26324D01*
X88064Y26880D02*
X88264D01*
X88164Y26780D02*
Y26980D01*
X81676Y33774D02*
X81876D01*
X81776Y33674D02*
Y33874D01*
X81282Y34227D02*
X81482D01*
X81382Y34127D02*
Y34327D01*
X92122Y23226D02*
X92322D01*
X92222Y23126D02*
Y23326D01*
X83832Y31677D02*
X84032D01*
X83932Y31577D02*
Y31777D01*
X83900Y22550D02*
X84100D01*
X84000Y22450D02*
Y22650D01*
X83506Y24404D02*
X83706D01*
X83606Y24304D02*
Y24504D01*
X97631Y17681D02*
X97831D01*
X97731Y17581D02*
Y17781D01*
X82100Y33350D02*
X82300D01*
X82200Y33250D02*
Y33450D01*
X84226Y31224D02*
X84426D01*
X84326Y31124D02*
Y31324D01*
X84760Y23412D02*
X84960D01*
X84860Y23312D02*
Y23512D01*
X96389Y18982D02*
X96589D01*
X96489Y18882D02*
Y19082D01*
X92546Y22802D02*
X92746D01*
X92646Y22702D02*
Y22902D01*
X90024Y25376D02*
X90224D01*
X90124Y25276D02*
Y25476D01*
X98480Y16832D02*
X98680D01*
X98580Y16732D02*
Y16932D01*
X95096Y20241D02*
X95296D01*
X95196Y20141D02*
Y20341D01*
X97207Y18105D02*
X97407D01*
X97307Y18005D02*
Y18205D01*
X82949Y32501D02*
X83149D01*
X83049Y32401D02*
Y32601D01*
X83124Y23974D02*
X83324D01*
X83224Y23874D02*
Y24074D01*
X98056Y17257D02*
X98256D01*
X98156Y17157D02*
Y17357D01*
X84779Y25677D02*
X84979D01*
X84879Y25577D02*
Y25777D01*
X85627Y26525D02*
X85827D01*
X85727Y26425D02*
Y26625D01*
X99434Y16042D02*
X99634D01*
X99534Y15942D02*
Y16142D01*
X82491Y21736D02*
X82691D01*
X82591Y21636D02*
Y21836D01*
X84324Y22974D02*
X84524D01*
X84424Y22874D02*
Y23074D01*
X82700Y23550D02*
X82900D01*
X82800Y23450D02*
Y23650D01*
X93853Y21542D02*
X94053D01*
X93953Y21442D02*
Y21642D01*
X85074Y30376D02*
X85274D01*
X85174Y30276D02*
Y30476D01*
X86051Y26950D02*
X86251D01*
X86151Y26850D02*
Y27050D01*
X96783Y18529D02*
X96983D01*
X96883Y18429D02*
Y18629D01*
X85499Y29951D02*
X85699D01*
X85599Y29851D02*
Y30051D01*
X94247Y21090D02*
X94447D01*
X94347Y20990D02*
Y21190D01*
X95944Y19393D02*
X96144D01*
X96044Y19293D02*
Y19493D01*
X95520Y19817D02*
X95720D01*
X95620Y19717D02*
Y19917D01*
X91303Y24103D02*
X91503D01*
X91403Y24003D02*
Y24203D01*
X94671Y20666D02*
X94871D01*
X94771Y20566D02*
Y20766D01*
X90449Y24951D02*
X90649D01*
X90549Y24851D02*
Y25051D01*
X83373Y32077D02*
X83573D01*
X83473Y31977D02*
Y32177D01*
X93394Y21953D02*
X93594D01*
X93494Y21853D02*
Y22053D01*
X92970Y22377D02*
X93170D01*
X93070Y22277D02*
Y22477D01*
X86476Y27374D02*
X86676D01*
X86576Y27274D02*
Y27474D01*
X85923Y29527D02*
X86123D01*
X86023Y29427D02*
Y29627D01*
X85184Y23836D02*
X85384D01*
X85284Y23736D02*
Y23936D01*
X84650Y30800D02*
X84850D01*
X84750Y30700D02*
Y30900D01*
X91697Y23650D02*
X91897D01*
X91797Y23550D02*
Y23750D01*
X90873Y24527D02*
X91073D01*
X90973Y24427D02*
Y24627D01*
X86407Y24959D02*
X86607D01*
X86507Y24859D02*
Y25059D01*
X85203Y26101D02*
X85403D01*
X85303Y26001D02*
Y26201D01*
X89600Y25800D02*
X89800D01*
X89700Y25700D02*
Y25900D01*
X99337Y10402D02*
X99537D01*
X99437Y10302D02*
Y10502D01*
X99337Y13172D02*
X99537D01*
X99437Y13072D02*
Y13272D01*
X99279Y11829D02*
X99479D01*
X99379Y11729D02*
Y11929D01*
X98100Y16050D02*
X98300D01*
X98200Y15950D02*
Y16150D01*
X98100Y14650D02*
X98300D01*
X98200Y14550D02*
Y14750D01*
X98100Y13250D02*
X98300D01*
X98200Y13150D02*
Y13350D01*
X98100Y11850D02*
X98300D01*
X98200Y11750D02*
Y11950D01*
X98100Y10450D02*
X98300D01*
X98200Y10350D02*
Y10550D01*
X98100Y9050D02*
X98300D01*
X98200Y8950D02*
Y9150D01*
X96700Y17450D02*
X96900D01*
X96800Y17350D02*
Y17550D01*
X96700Y16050D02*
X96900D01*
X96800Y15950D02*
Y16150D01*
X96700Y14650D02*
X96900D01*
X96800Y14550D02*
Y14750D01*
X96700Y13250D02*
X96900D01*
X96800Y13150D02*
Y13350D01*
X96700Y11850D02*
X96900D01*
X96800Y11750D02*
Y11950D01*
X96700Y10450D02*
X96900D01*
X96800Y10350D02*
Y10550D01*
X95300Y18850D02*
X95500D01*
X95400Y18750D02*
Y18950D01*
X95300Y17450D02*
X95500D01*
X95400Y17350D02*
Y17550D01*
X95300Y16050D02*
X95500D01*
X95400Y15950D02*
Y16150D01*
X95300Y14650D02*
X95500D01*
X95400Y14550D02*
Y14750D01*
X95300Y13250D02*
X95500D01*
X95400Y13150D02*
Y13350D01*
X95300Y11850D02*
X95500D01*
X95400Y11750D02*
Y11950D01*
X93900Y20250D02*
X94100D01*
X94000Y20150D02*
Y20350D01*
X93900Y18850D02*
X94100D01*
X94000Y18750D02*
Y18950D01*
X93900Y17450D02*
X94100D01*
X94000Y17350D02*
Y17550D01*
X93900Y16050D02*
X94100D01*
X94000Y15950D02*
Y16150D01*
X93900Y14650D02*
X94100D01*
X94000Y14550D02*
Y14750D01*
X93900Y13250D02*
X94100D01*
X94000Y13150D02*
Y13350D01*
X92500Y21650D02*
X92700D01*
X92600Y21550D02*
Y21750D01*
X92500Y20250D02*
X92700D01*
X92600Y20150D02*
Y20350D01*
X92500Y18850D02*
X92700D01*
X92600Y18750D02*
Y18950D01*
X92500Y17450D02*
X92700D01*
X92600Y17350D02*
Y17550D01*
X92500Y16050D02*
X92700D01*
X92600Y15950D02*
Y16150D01*
X92500Y14650D02*
X92700D01*
X92600Y14550D02*
Y14750D01*
X91100Y23050D02*
X91300D01*
X91200Y22950D02*
Y23150D01*
X91100Y21650D02*
X91300D01*
X91200Y21550D02*
Y21750D01*
X91100Y20250D02*
X91300D01*
X91200Y20150D02*
Y20350D01*
X91100Y18850D02*
X91300D01*
X91200Y18750D02*
Y18950D01*
X91100Y17450D02*
X91300D01*
X91200Y17350D02*
Y17550D01*
X91100Y16050D02*
X91300D01*
X91200Y15950D02*
Y16150D01*
X89700Y24450D02*
X89900D01*
X89800Y24350D02*
Y24550D01*
X89700Y23050D02*
X89900D01*
X89800Y22950D02*
Y23150D01*
X89700Y21650D02*
X89900D01*
X89800Y21550D02*
Y21750D01*
X89700Y20250D02*
X89900D01*
X89800Y20150D02*
Y20350D01*
X89700Y18850D02*
X89900D01*
X89800Y18750D02*
Y18950D01*
X89700Y17450D02*
X89900D01*
X89800Y17350D02*
Y17550D01*
X88300Y24450D02*
X88500D01*
X88400Y24350D02*
Y24550D01*
X88300Y23050D02*
X88500D01*
X88400Y22950D02*
Y23150D01*
X88300Y21650D02*
X88500D01*
X88400Y21550D02*
Y21750D01*
X86900Y24450D02*
X87100D01*
X87000Y24350D02*
Y24550D01*
X86900Y23050D02*
X87100D01*
X87000Y22950D02*
Y23150D01*
X85500Y28650D02*
X85700D01*
X85600Y28550D02*
Y28750D01*
X85500Y27250D02*
X85700D01*
X85600Y27150D02*
Y27350D01*
X85500Y23050D02*
X85700D01*
X85600Y22950D02*
Y23150D01*
X85500Y21650D02*
X85700D01*
X85600Y21550D02*
Y21750D01*
X84100Y30050D02*
X84300D01*
X84200Y29950D02*
Y30150D01*
X82700Y31450D02*
X82900D01*
X82800Y31350D02*
Y31550D01*
X82700Y30050D02*
X82900D01*
X82800Y29950D02*
Y30150D01*
X81300Y32850D02*
X81500D01*
X81400Y32750D02*
Y32950D01*
X81300Y31450D02*
X81500D01*
X81400Y31350D02*
Y31550D01*
X81300Y30050D02*
X81500D01*
X81400Y29950D02*
Y30150D01*
X79900Y34250D02*
X80100D01*
X80000Y34150D02*
Y34350D01*
X79900Y32850D02*
X80100D01*
X80000Y32750D02*
Y32950D01*
X79900Y31450D02*
X80100D01*
X80000Y31350D02*
Y31550D01*
X79900Y30050D02*
X80100D01*
X80000Y29950D02*
Y30150D01*
X79900Y28650D02*
X80100D01*
X80000Y28550D02*
Y28750D01*
X78500Y34250D02*
X78700D01*
X78600Y34150D02*
Y34350D01*
X78500Y32850D02*
X78700D01*
X78600Y32750D02*
Y32950D01*
X78500Y31450D02*
X78700D01*
X78600Y31350D02*
Y31550D01*
X78500Y30050D02*
X78700D01*
X78600Y29950D02*
Y30150D01*
X77100Y34250D02*
X77300D01*
X77200Y34150D02*
Y34350D01*
X77100Y32850D02*
X77300D01*
X77200Y32750D02*
Y32950D01*
X77100Y31450D02*
X77300D01*
X77200Y31350D02*
Y31550D01*
X77100Y30050D02*
X77300D01*
X77200Y29950D02*
Y30150D01*
X75700Y34250D02*
X75900D01*
X75800Y34150D02*
Y34350D01*
X75700Y32850D02*
X75900D01*
X75800Y32750D02*
Y32950D01*
X75700Y31450D02*
X75900D01*
X75800Y31350D02*
Y31550D01*
X74300Y34250D02*
X74500D01*
X74400Y34150D02*
Y34350D01*
X74300Y32850D02*
X74500D01*
X74400Y32750D02*
Y32950D01*
X72900Y34250D02*
X73100D01*
X73000Y34150D02*
Y34350D01*
X84093Y507D02*
X84293D01*
X84193Y407D02*
Y607D01*
X44043Y34507D02*
X44243D01*
X44143Y34407D02*
Y34607D01*
X27100Y9850D02*
X27300D01*
X27200Y9750D02*
Y9950D01*
X26750Y13850D02*
X26950D01*
X26850Y13750D02*
Y13950D01*
X26800Y12950D02*
X27000D01*
X26900Y12850D02*
Y13050D01*
X27700Y13450D02*
X27900D01*
X27800Y13350D02*
Y13550D01*
X20502Y11200D02*
X20702D01*
X20602Y11100D02*
Y11300D01*
X20502Y10641D02*
X20702D01*
X20602Y10541D02*
Y10741D01*
X76244Y20654D02*
X76444D01*
X76344Y20554D02*
Y20754D01*
X37553Y23947D02*
X37753D01*
X37653Y23847D02*
Y24047D01*
X34890Y23920D02*
X35090D01*
X34990Y23820D02*
Y24020D01*
X34807Y19347D02*
X35007D01*
X34907Y19247D02*
Y19447D01*
X6155Y22292D02*
X6355D01*
X6255Y22192D02*
Y22392D01*
X6150Y22950D02*
X6350D01*
X6250Y22850D02*
Y23050D01*
X6150Y21650D02*
X6350D01*
X6250Y21550D02*
Y21750D01*
X750Y19900D02*
X950D01*
X850Y19800D02*
Y20000D01*
X2428Y18850D02*
X2628D01*
X2528Y18750D02*
Y18950D01*
X3950Y14350D02*
X4150D01*
X4050Y14250D02*
Y14450D01*
X3950Y15350D02*
X4150D01*
X4050Y15250D02*
Y15450D01*
X61900Y13450D02*
X62100D01*
X62000Y13350D02*
Y13550D01*
X63324Y16920D02*
X63524D01*
X63424Y16820D02*
Y17020D01*
X68150Y8100D02*
X68350D01*
X68250Y8000D02*
Y8200D01*
X67500Y8750D02*
X67700D01*
X67600Y8650D02*
Y8850D01*
X71015Y26458D02*
X71215D01*
X71115Y26358D02*
Y26558D01*
X71200Y25750D02*
X71400D01*
X71300Y25650D02*
Y25850D01*
X71150Y24850D02*
X71350D01*
X71250Y24750D02*
Y24950D01*
X68200Y30650D02*
X68400D01*
X68300Y30550D02*
Y30750D01*
X42350Y28100D02*
X42550D01*
X42450Y28000D02*
Y28200D01*
X42900Y26700D02*
X43100D01*
X43000Y26600D02*
Y26800D01*
X42100Y31400D02*
X42300D01*
X42200Y31300D02*
Y31500D01*
X43850Y26650D02*
X44050D01*
X43950Y26550D02*
Y26750D01*
X41382Y31360D02*
X41582D01*
X41482Y31260D02*
Y31460D01*
X41400Y33250D02*
X41600D01*
X41500Y33150D02*
Y33350D01*
X40350Y31328D02*
X40550D01*
X40450Y31228D02*
Y31428D01*
X40354Y33620D02*
X40554D01*
X40454Y33520D02*
Y33720D01*
X22843Y29239D02*
X23043D01*
X22943Y29139D02*
Y29339D01*
X22859Y29887D02*
X23059D01*
X22959Y29787D02*
Y29987D01*
X23650Y29900D02*
X23850D01*
X23750Y29800D02*
Y30000D01*
X24402Y29885D02*
X24602D01*
X24502Y29785D02*
Y29985D01*
X23800Y34450D02*
X24000D01*
X23900Y34350D02*
Y34550D01*
X22900Y28500D02*
X23100D01*
X23000Y28400D02*
Y28600D01*
X13950Y28300D02*
X14150D01*
X14050Y28200D02*
Y28400D01*
X15450Y26650D02*
X15650D01*
X15550Y26550D02*
Y26750D01*
X18100Y27150D02*
X18300D01*
X18200Y27050D02*
Y27250D01*
X14350Y14100D02*
X14550D01*
X14450Y14000D02*
Y14200D01*
X15000Y13800D02*
X15200D01*
X15100Y13700D02*
Y13900D01*
X14550Y13050D02*
X14750D01*
X14650Y12950D02*
Y13150D01*
X5100Y8550D02*
X5300D01*
X5200Y8450D02*
Y8650D01*
X11600Y12800D02*
X11800D01*
X11700Y12700D02*
Y12900D01*
X12200Y14100D02*
X12400D01*
X12300Y14000D02*
Y14200D01*
X72176Y22775D02*
X72376D01*
X72276Y22675D02*
Y22875D01*
X32873Y14877D02*
X33073D01*
X32973Y14777D02*
Y14977D01*
X37950Y26150D02*
X38150D01*
X38050Y26050D02*
Y26250D01*
X39050Y25700D02*
X39250D01*
X39150Y25600D02*
Y25800D01*
X38565Y27147D02*
X38765D01*
X38665Y27047D02*
Y27247D01*
X39800Y26700D02*
X40000D01*
X39900Y26600D02*
Y26800D01*
X43775Y31300D02*
X43975D01*
X43875Y31200D02*
Y31400D01*
X41250Y27862D02*
X41450D01*
X41350Y27763D02*
Y27962D01*
X37500Y25600D02*
X37700D01*
X37600Y25500D02*
Y25700D01*
X52450Y33600D02*
X52650D01*
X52550Y33500D02*
Y33700D01*
X64450Y29600D02*
X64650D01*
X64550Y29500D02*
Y29700D01*
X24650Y11250D02*
X24850D01*
X24750Y11150D02*
Y11350D01*
X40900Y6650D02*
X41100D01*
X41000Y6550D02*
Y6750D01*
X29800D02*
X30000D01*
X29900Y6650D02*
Y6850D01*
X35359Y12012D02*
X35559D01*
X35459Y11912D02*
Y12112D01*
X36359Y12037D02*
X36559D01*
X36459Y11937D02*
Y12137D01*
X38150Y11800D02*
X38350D01*
X38250Y11700D02*
Y11900D01*
X33600Y11850D02*
X33800D01*
X33700Y11750D02*
Y11950D01*
X30700Y7400D02*
X30900D01*
X30800Y7300D02*
Y7500D01*
X29800Y7450D02*
X30000D01*
X29900Y7350D02*
Y7550D01*
X44200Y15100D02*
X44400D01*
X44300Y15000D02*
Y15200D01*
X40900Y7250D02*
X41100D01*
X41000Y7150D02*
Y7350D01*
X41800Y7300D02*
X42000D01*
X41900Y7200D02*
Y7400D01*
X30400Y11500D02*
X30600D01*
X30500Y11400D02*
Y11600D01*
X41501Y11473D02*
X41701D01*
X41601Y11373D02*
Y11573D01*
X76400Y23450D02*
X76600D01*
X76500Y23350D02*
Y23550D01*
X88050Y25800D02*
X88250D01*
X88150Y25700D02*
Y25900D01*
X29100Y5800D02*
X29300D01*
X29200Y5700D02*
Y5900D01*
X41350Y5950D02*
X41550D01*
X41450Y5850D02*
Y6050D01*
X45950Y3700D02*
X46150D01*
X46050Y3600D02*
Y3800D01*
X59900Y6950D02*
X60100D01*
X60000Y6850D02*
Y7050D01*
X45125Y31300D02*
X45325D01*
X45225Y31200D02*
Y31400D01*
X62500Y32700D02*
X62700D01*
X62600Y32600D02*
Y32800D01*
X70500Y13450D02*
X70700D01*
X70600Y13350D02*
Y13550D01*
X52400Y17500D02*
X52600D01*
X52500Y17400D02*
Y17600D01*
X52400Y19500D02*
X52600D01*
X52500Y19400D02*
Y19600D01*
X54400Y19500D02*
X54600D01*
X54500Y19400D02*
Y19600D01*
X82900Y9950D02*
X83100D01*
X83000Y9850D02*
Y10050D01*
X8650Y7145D02*
X8850D01*
X8750Y7045D02*
Y7245D01*
X5150Y7800D02*
X5350D01*
X5250Y7700D02*
Y7900D01*
X8700Y8206D02*
X8900D01*
X8800Y8106D02*
Y8306D01*
X4950Y15500D02*
X5150D01*
X5050Y15400D02*
Y15600D01*
X6450Y15550D02*
X6650D01*
X6550Y15450D02*
Y15650D01*
X67250Y21400D02*
X67450D01*
X67350Y21300D02*
Y21500D01*
X64000Y21400D02*
X64200D01*
X64100Y21300D02*
Y21500D01*
X41250Y24050D02*
X41450D01*
X41350Y23950D02*
Y24150D01*
X82684Y12186D02*
X82884D01*
X82784Y12086D02*
Y12286D01*
X81750Y13350D02*
X81950D01*
X81850Y13250D02*
Y13450D01*
X79300Y12100D02*
X79500D01*
X79400Y12000D02*
Y12200D01*
X80300Y12450D02*
X80500D01*
X80400Y12350D02*
Y12550D01*
X53450Y34500D02*
X53650D01*
X53550Y34400D02*
Y34600D01*
X50950Y34500D02*
X51150D01*
X51050Y34400D02*
Y34600D01*
X35891Y14813D02*
X36091D01*
X35991Y14713D02*
Y14913D01*
X33600Y14050D02*
X33800D01*
X33700Y13950D02*
Y14150D01*
X47650Y24600D02*
X47850D01*
X47750Y24500D02*
Y24700D01*
X45300Y24600D02*
X45500D01*
X45400Y24500D02*
Y24700D01*
X54390Y32900D02*
X54590D01*
X54490Y32800D02*
Y33000D01*
X46700Y23550D02*
X46900D01*
X46800Y23450D02*
Y23650D01*
X48950Y23600D02*
X49150D01*
X49050Y23500D02*
Y23700D01*
X47400Y27450D02*
X47600D01*
X47500Y27350D02*
Y27550D01*
X38200Y14050D02*
X38400D01*
X38300Y13950D02*
Y14150D01*
X17800Y10200D02*
X18000D01*
X17900Y10100D02*
Y10300D01*
X50800Y13450D02*
X51000D01*
X50900Y13350D02*
Y13550D01*
X51318Y14022D02*
X51518D01*
X51418Y13922D02*
Y14122D01*
X53050Y13400D02*
X53250D01*
X53150Y13300D02*
Y13500D01*
X53000Y14000D02*
X53200D01*
X53100Y13900D02*
Y14100D01*
X60100Y34529D02*
X60300D01*
X60200Y34429D02*
Y34629D01*
X99329Y9179D02*
X99529D01*
X99429Y9079D02*
Y9279D01*
X99329Y14629D02*
X99529D01*
X99429Y14529D02*
Y14729D01*
X421Y32832D02*
X621D01*
X521Y32732D02*
Y32932D01*
X65550Y34529D02*
X65750D01*
X65650Y34429D02*
Y34629D01*
X421Y11032D02*
X621D01*
X521Y10932D02*
Y11132D01*
X7761Y471D02*
X7961D01*
X7861Y371D02*
Y571D01*
X51361Y471D02*
X51561D01*
X51461Y371D02*
Y571D01*
X80738Y34512D02*
X80938D01*
X80838Y34412D02*
Y34612D01*
X21950Y34529D02*
X22150D01*
X22050Y34429D02*
Y34629D01*
X5600Y34529D02*
X5800D01*
X5700Y34429D02*
Y34629D01*
X27400Y34529D02*
X27600D01*
X27500Y34429D02*
Y34629D01*
X71000Y34529D02*
X71200D01*
X71100Y34429D02*
Y34629D01*
X67711Y471D02*
X67911D01*
X67811Y371D02*
Y571D01*
X421Y5582D02*
X621D01*
X521Y5482D02*
Y5682D01*
X89511Y471D02*
X89711D01*
X89611Y371D02*
Y571D01*
X94961Y471D02*
X95161D01*
X95061Y371D02*
Y571D01*
X421Y27382D02*
X621D01*
X521Y27282D02*
Y27482D01*
X18661Y471D02*
X18861D01*
X18761Y371D02*
Y571D01*
X54650Y34529D02*
X54850D01*
X54750Y34429D02*
Y34629D01*
X79000Y500D02*
X79200D01*
X79100Y400D02*
Y600D01*
X11050Y34529D02*
X11250D01*
X11150Y34429D02*
Y34629D01*
X49200Y34529D02*
X49400D01*
X49300Y34429D02*
Y34629D01*
X56811Y471D02*
X57011D01*
X56911Y371D02*
Y571D01*
X421Y16482D02*
X621D01*
X521Y16382D02*
Y16582D01*
X99329Y3729D02*
X99529D01*
X99429Y3629D02*
Y3829D01*
X2311Y471D02*
X2511D01*
X2411Y371D02*
Y571D01*
X13211Y471D02*
X13411D01*
X13311Y371D02*
Y571D01*
X38300Y34529D02*
X38500D01*
X38400Y34429D02*
Y34629D01*
X62261Y471D02*
X62461D01*
X62361Y371D02*
Y571D01*
X40811Y471D02*
X41011D01*
X40911Y371D02*
Y571D01*
X24111Y471D02*
X24311D01*
X24211Y371D02*
Y571D01*
X421Y21932D02*
X621D01*
X521Y21832D02*
Y22032D01*
X45911Y471D02*
X46111D01*
X46011Y371D02*
Y571D01*
X73161Y471D02*
X73361D01*
X73261Y371D02*
Y571D01*
X35011Y471D02*
X35211D01*
X35111Y371D02*
Y571D01*
X32850Y34529D02*
X33050D01*
X32950Y34429D02*
Y34629D01*
X28754Y539D02*
X28954D01*
X28854Y439D02*
Y639D01*
X61800Y16900D02*
X62000D01*
X61900Y16800D02*
Y17000D01*
X64450Y13400D02*
X64650D01*
X64550Y13300D02*
Y13500D01*
X46850Y20900D02*
X47050D01*
X46950Y20800D02*
Y21000D01*
X46850Y19950D02*
X47050D01*
X46950Y19850D02*
Y20050D01*
X61750Y4600D02*
X61950D01*
X61850Y4500D02*
Y4700D01*
X55700Y4800D02*
X55900D01*
X55800Y4700D02*
Y4900D01*
X58312Y8012D02*
X58512D01*
X58412Y7912D02*
Y8112D01*
X57996Y9061D02*
X58196D01*
X58096Y8961D02*
Y9161D01*
X60096Y9073D02*
X60296D01*
X60196Y8973D02*
Y9173D01*
X60050Y8000D02*
X60250D01*
X60150Y7900D02*
Y8100D01*
X37545Y21285D02*
X37745D01*
X37645Y21185D02*
Y21385D01*
X34939Y21250D02*
X35139D01*
X35039Y21150D02*
Y21350D01*
X36245Y22635D02*
X36445D01*
X36345Y22535D02*
Y22735D01*
X41022Y20699D02*
X41222D01*
X41122Y20599D02*
Y20799D01*
X39391Y21385D02*
X39591D01*
X39491Y21285D02*
Y21485D01*
X39590Y19127D02*
X39790D01*
X39690Y19027D02*
Y19227D01*
X45080Y30398D02*
X45280D01*
X45180Y30298D02*
Y30498D01*
X43750Y30400D02*
X43950D01*
X43850Y30300D02*
Y30500D01*
X51500Y29450D02*
X51700D01*
X51600Y29350D02*
Y29550D01*
X38035Y26866D02*
X38235D01*
X38135Y26766D02*
Y26966D01*
X35483Y27824D02*
X35683D01*
X35583Y27724D02*
Y27924D01*
X34451Y27844D02*
X34651D01*
X34551Y27744D02*
Y27944D01*
X33447Y27873D02*
X33647D01*
X33547Y27773D02*
Y27973D01*
X32350Y25450D02*
X32550D01*
X32450Y25350D02*
Y25550D01*
X39400Y24852D02*
X39600D01*
X39500Y24752D02*
Y24952D01*
X37495Y19349D02*
X37695D01*
X37595Y19249D02*
Y19449D01*
X68278Y18928D02*
X68478D01*
X68378Y18828D02*
Y19028D01*
X68276Y16649D02*
X68476D01*
X68376Y16549D02*
Y16749D01*
X67300Y18600D02*
X67500D01*
X67400Y18500D02*
Y18700D01*
X45535Y16095D02*
X45735D01*
X45635Y15995D02*
Y16195D01*
X54050Y14550D02*
X54250D01*
X54150Y14450D02*
Y14650D01*
X47423Y16127D02*
X47623D01*
X47523Y16027D02*
Y16227D01*
X60396Y3908D02*
X60596D01*
X60496Y3808D02*
Y4008D01*
X60396Y5258D02*
X60596D01*
X60496Y5158D02*
Y5358D01*
X70000Y21500D02*
X70200D01*
X70100Y21400D02*
Y21600D01*
X54450Y26950D02*
X54650D01*
X54550Y26850D02*
Y27050D01*
X55750Y26950D02*
X55950D01*
X55850Y26850D02*
Y27050D01*
X55750Y32900D02*
X55950D01*
X55850Y32800D02*
Y33000D01*
X57050Y32900D02*
X57250D01*
X57150Y32800D02*
Y33000D01*
X59550Y32950D02*
X59750D01*
X59650Y32850D02*
Y33050D01*
X74550Y9750D02*
X74750D01*
X74650Y9650D02*
Y9850D01*
X71407Y31599D02*
X71607D01*
X71507Y31499D02*
Y31699D01*
X74950Y27550D02*
X75150D01*
X75050Y27450D02*
Y27650D01*
X50150Y32950D02*
X50350D01*
X50250Y32850D02*
Y33050D01*
X80798Y2387D02*
X80998D01*
X80898Y2287D02*
Y2487D01*
X79550Y2400D02*
X79750D01*
X79650Y2300D02*
Y2500D01*
X82050Y2400D02*
X82250D01*
X82150Y2300D02*
Y2500D01*
X16850Y29250D02*
X17050D01*
X16950Y29150D02*
Y29350D01*
X15100Y25800D02*
X15300D01*
X15200Y25700D02*
Y25900D01*
X12298Y22862D02*
X12498D01*
X12398Y22762D02*
Y22962D01*
X12898Y23412D02*
X13098D01*
X12998Y23312D02*
Y23512D01*
X12298Y23962D02*
X12498D01*
X12398Y23862D02*
Y24062D01*
X15500Y11500D02*
X15700D01*
X15600Y11400D02*
Y11600D01*
X17650Y23000D02*
X17850D01*
X17750Y22900D02*
Y23100D01*
X19275Y28886D02*
X19475D01*
X19375Y28786D02*
Y28986D01*
X76100Y11811D02*
X76300D01*
X76200Y11711D02*
Y11911D01*
X48150Y21900D02*
X48350D01*
X48250Y21800D02*
Y22000D01*
X69886Y15650D02*
X70086D01*
X69986Y15550D02*
Y15750D01*
X71528Y17947D02*
X71728D01*
X71628Y17847D02*
Y18047D01*
X73750Y17850D02*
X73950D01*
X73850Y17750D02*
Y17950D01*
X72350Y11400D02*
X72550D01*
X72450Y11300D02*
Y11500D01*
X68900Y13150D02*
X69100D01*
X69000Y13050D02*
Y13250D01*
X71350Y13500D02*
X71550D01*
X71450Y13400D02*
Y13600D01*
X63050Y29250D02*
X63250D01*
X63150Y29150D02*
Y29350D01*
X53950Y16850D02*
X54150D01*
X54050Y16750D02*
Y16950D01*
X35603Y10148D02*
X35803D01*
X35703Y10048D02*
Y10248D01*
X34516Y10248D02*
X34716D01*
X34616Y10148D02*
Y10348D01*
X33390Y10248D02*
X33590D01*
X33490Y10148D02*
Y10348D01*
X83050Y15650D02*
X83250D01*
X83150Y15550D02*
Y15750D01*
X83950Y18750D02*
X84150D01*
X84050Y18650D02*
Y18850D01*
X85000Y15000D02*
X85200D01*
X85100Y14900D02*
Y15100D01*
X85750Y15000D02*
X85950D01*
X85850Y14900D02*
Y15100D01*
X77000Y3100D02*
X77200D01*
X77100Y3000D02*
Y3200D01*
X86733Y20196D02*
X86933D01*
X86833Y20096D02*
Y20296D01*
X52050Y21900D02*
X52250D01*
X52150Y21800D02*
Y22000D01*
X78850Y12650D02*
X79050D01*
X78950Y12550D02*
Y12750D01*
X36750Y26100D02*
X36950D01*
X36850Y26000D02*
Y26200D01*
X20711Y28836D02*
X20911D01*
X20811Y28736D02*
Y28936D01*
X8701Y4115D02*
X8901D01*
X8801Y4015D02*
Y4215D01*
X7000Y10800D02*
X7200D01*
X7100Y10700D02*
Y10900D01*
X11833Y18830D02*
X12033D01*
X11933Y18730D02*
Y18930D01*
X11038Y21172D02*
X11238D01*
X11138Y21072D02*
Y21272D01*
X19973Y28487D02*
X20173D01*
X20073Y28387D02*
Y28587D01*
X13833Y32988D02*
X14033D01*
X13933Y32888D02*
Y33088D01*
X16589Y34500D02*
X16789D01*
X16689Y34400D02*
Y34600D01*
X27423Y31437D02*
X27623D01*
X27523Y31337D02*
Y31537D01*
X21311Y27132D02*
X21511D01*
X21411Y27032D02*
Y27232D01*
X21300Y22550D02*
X21500D01*
X21400Y22450D02*
Y22650D01*
X20200Y22550D02*
X20400D01*
X20300Y22450D02*
Y22650D01*
X21300Y23650D02*
X21500D01*
X21400Y23550D02*
Y23750D01*
X20200Y23650D02*
X20400D01*
X20300Y23550D02*
Y23750D01*
X21300Y24750D02*
X21500D01*
X21400Y24650D02*
Y24850D01*
X20200Y24750D02*
X20400D01*
X20300Y24650D02*
Y24850D01*
X17723Y24427D02*
X17923D01*
X17823Y24327D02*
Y24527D01*
X18025Y25987D02*
X18225D01*
X18125Y25887D02*
Y26087D01*
X18873Y26187D02*
X19073D01*
X18973Y26087D02*
Y26287D01*
X24473Y26387D02*
X24673D01*
X24573Y26287D02*
Y26487D01*
X14273Y20137D02*
X14473D01*
X14373Y20037D02*
Y20237D01*
X20006Y20270D02*
X20206D01*
X20106Y20170D02*
Y20370D01*
X20673Y20255D02*
X20873D01*
X20773Y20155D02*
Y20355D01*
X15383Y20937D02*
X15583D01*
X15483Y20837D02*
Y21037D01*
X24423Y19187D02*
X24623D01*
X24523Y19087D02*
Y19287D01*
X26123Y20187D02*
X26323D01*
X26223Y20087D02*
Y20287D01*
X22173Y20187D02*
X22373D01*
X22273Y20087D02*
Y20287D01*
X23573Y21287D02*
X23773D01*
X23673Y21187D02*
Y21387D01*
X27123Y22487D02*
X27323D01*
X27223Y22387D02*
Y22587D01*
X23631Y23390D02*
X23831D01*
X23731Y23290D02*
Y23490D01*
X20323Y19237D02*
X20523D01*
X20423Y19137D02*
Y19337D01*
X14923Y22687D02*
X15123D01*
X15023Y22587D02*
Y22787D01*
X24173Y15387D02*
X24373D01*
X24273Y15287D02*
Y15487D01*
X20323Y18487D02*
X20523D01*
X20423Y18387D02*
Y18587D01*
X21450Y10650D02*
X21650D01*
X21550Y10550D02*
Y10750D01*
X80450Y22850D02*
X80650D01*
X80550Y22750D02*
Y22950D01*
X74215Y15720D02*
X74415D01*
X74315Y15620D02*
Y15820D01*
X86825Y25404D02*
X87025D01*
X86925Y25304D02*
Y25504D01*
X87078Y28381D02*
X87278D01*
X87178Y28281D02*
Y28481D01*
X72800Y30800D02*
X73000D01*
X72900Y30700D02*
Y30900D01*
X10050Y4150D02*
X10250D01*
X10150Y4050D02*
Y4250D01*
X14700Y8000D02*
X14900D01*
X14800Y7900D02*
Y8100D01*
X11750Y8800D02*
X11950D01*
X11850Y8700D02*
Y8900D01*
X10800Y7850D02*
X11000D01*
X10900Y7750D02*
Y7950D01*
X77500Y28150D02*
X77700D01*
X77600Y28050D02*
Y28250D01*
X76150Y28200D02*
X76350D01*
X76250Y28100D02*
Y28300D01*
X77600Y24950D02*
X77800D01*
X77700Y24850D02*
Y25050D01*
X76750Y25100D02*
X76950D01*
X76850Y25000D02*
Y25200D01*
X71300Y22800D02*
X71500D01*
X71400Y22700D02*
Y22900D01*
X79800Y22700D02*
X80000D01*
X79900Y22600D02*
Y22800D01*
X80850Y20750D02*
X81050D01*
X80950Y20650D02*
Y20850D01*
X76100Y16000D02*
X76300D01*
X76200Y15900D02*
Y16100D01*
X78513Y18415D02*
X78713D01*
X78613Y18315D02*
Y18515D01*
X74250Y14150D02*
X74450D01*
X74350Y14050D02*
Y14250D01*
X4850Y17350D02*
X5050D01*
X4950Y17250D02*
Y17450D01*
X86450Y23900D02*
X86650D01*
X86550Y23800D02*
Y24000D01*
X83011Y19690D02*
X83211D01*
X83111Y19590D02*
Y19790D01*
X82749Y21167D02*
X82949D01*
X82849Y21067D02*
Y21267D01*
X80800Y16000D02*
X81000D01*
X80900Y15900D02*
Y16100D01*
X78800Y25250D02*
X79000D01*
X78900Y25150D02*
Y25350D01*
X84550Y18000D02*
X84750D01*
X84650Y17900D02*
Y18100D01*
X78245Y14230D02*
X78445D01*
X78345Y14130D02*
Y14330D01*
X77900Y10202D02*
X78100D01*
X78000Y10102D02*
Y10302D01*
X76918Y10202D02*
X77118D01*
X77018Y10102D02*
Y10302D01*
X84195Y21524D02*
X84395D01*
X84295Y21424D02*
Y21624D01*
X7491Y2453D02*
X7691D01*
X7591Y2353D02*
Y2553D01*
X9663Y10808D02*
X9863D01*
X9763Y10708D02*
Y10908D01*
X80200Y24550D02*
X80400D01*
X80300Y24450D02*
Y24650D01*
X77173Y22799D02*
X77373D01*
X77273Y22699D02*
Y22899D01*
X78250Y22700D02*
X78450D01*
X78350Y22600D02*
Y22800D01*
X80900Y24550D02*
X81100D01*
X81000Y24450D02*
Y24650D01*
X82200Y14450D02*
X82400D01*
X82300Y14350D02*
Y14550D01*
X31050Y31250D02*
X31250D01*
X31150Y31150D02*
Y31350D01*
X84750Y22000D02*
X84950D01*
X84850Y21900D02*
Y22100D01*
X73280Y21110D02*
X73480D01*
X73380Y21010D02*
Y21210D01*
X73200Y21798D02*
X73400D01*
X73300Y21698D02*
Y21898D01*
X74800Y11800D02*
X75000D01*
X74900Y11700D02*
Y11900D01*
X72300Y15798D02*
X72500D01*
X72400Y15698D02*
Y15898D01*
X35918Y16072D02*
X36118D01*
X36018Y15972D02*
Y16172D01*
X73800Y11800D02*
X74000D01*
X73900Y11700D02*
Y11900D01*
X79756Y14256D02*
X79956D01*
X79856Y14156D02*
Y14356D01*
X84486Y11614D02*
X84686D01*
X84586Y11514D02*
Y11714D01*
X86300Y17000D02*
X86500D01*
X86400Y16900D02*
Y17100D01*
X83478Y19212D02*
X83678D01*
X83578Y19112D02*
Y19312D01*
X81627Y24826D02*
X81826D01*
X81727Y24726D02*
Y24927D01*
X10800Y8800D02*
X11000D01*
X10900Y8700D02*
Y8900D01*
X72100Y17100D02*
X72300D01*
X72200Y17000D02*
Y17200D01*
X83843Y10390D02*
X84043D01*
X83943Y10290D02*
Y10490D01*
X86283Y19712D02*
X86483D01*
X86383Y19612D02*
Y19812D01*
X86380Y28983D02*
X86580D01*
X86480Y28883D02*
Y29083D01*
X81100Y11900D02*
X81300D01*
X81200Y11800D02*
Y12000D01*
X7800Y21650D02*
X8000D01*
X7900Y21550D02*
Y21750D01*
X14700Y6300D02*
X14900D01*
X14800Y6200D02*
Y6400D01*
X84228Y14986D02*
X84428D01*
X84328Y14886D02*
Y15086D01*
X83892Y28620D02*
X84092D01*
X83992Y28520D02*
Y28720D01*
X81770Y26498D02*
X81970D01*
X81870Y26398D02*
Y26598D01*
X23903Y3683D02*
X24103D01*
X24003Y3583D02*
Y3783D01*
X88800Y10795D02*
X89000D01*
X88900Y10695D02*
Y10895D01*
X88165Y20193D02*
X88365D01*
X88265Y20093D02*
Y20293D01*
X53875Y3750D02*
X54075D01*
X53975Y3650D02*
Y3850D01*
X65925Y3750D02*
X66125D01*
X66025Y3650D02*
Y3850D01*
X73875Y3750D02*
X74075D01*
X73975Y3650D02*
Y3850D01*
X93875Y3750D02*
X94075D01*
X93975Y3650D02*
Y3850D01*
X85925Y3750D02*
X86125D01*
X86025Y3650D02*
Y3850D01*
M02*
