G04*
G04 #@! TF.GenerationSoftware,Altium Limited,Altium Designer,24.2.2 (26)*
G04*
G04 Layer_Physical_Order=1*
G04 Layer_Color=255*
%FSLAX43Y43*%
%MOMM*%
G71*
G04*
G04 #@! TF.SameCoordinates,4F7CD7CC-9D04-48A1-B46F-AFD2B6BA45A4*
G04*
G04*
G04 #@! TF.FilePolarity,Positive*
G04*
G01*
G75*
%ADD10C,0.250*%
%ADD12C,0.200*%
%ADD14C,0.100*%
G04:AMPARAMS|DCode=23|XSize=0.4mm|YSize=1mm|CornerRadius=0mm|HoleSize=0mm|Usage=FLASHONLY|Rotation=315.000|XOffset=0mm|YOffset=0mm|HoleType=Round|Shape=Rectangle|*
%AMROTATEDRECTD23*
4,1,4,-0.495,-0.212,0.212,0.495,0.495,0.212,-0.212,-0.495,-0.495,-0.212,0.0*
%
%ADD23ROTATEDRECTD23*%

%ADD92R,1.750X2.500*%
%ADD93R,0.800X0.400*%
%ADD94R,2.200X1.400*%
%ADD95R,0.350X0.850*%
%ADD96R,1.475X0.300*%
%ADD97R,0.300X1.475*%
%ADD98R,0.500X0.400*%
G04:AMPARAMS|DCode=99|XSize=0.56mm|YSize=0.51mm|CornerRadius=0mm|HoleSize=0mm|Usage=FLASHONLY|Rotation=225.000|XOffset=0mm|YOffset=0mm|HoleType=Round|Shape=Rectangle|*
%AMROTATEDRECTD99*
4,1,4,0.018,0.378,0.378,0.018,-0.018,-0.378,-0.378,-0.018,0.018,0.378,0.0*
%
%ADD99ROTATEDRECTD99*%

G04:AMPARAMS|DCode=100|XSize=0.7mm|YSize=0.51mm|CornerRadius=0mm|HoleSize=0mm|Usage=FLASHONLY|Rotation=225.000|XOffset=0mm|YOffset=0mm|HoleType=Round|Shape=Rectangle|*
%AMROTATEDRECTD100*
4,1,4,0.067,0.428,0.428,0.067,-0.067,-0.428,-0.428,-0.067,0.067,0.428,0.0*
%
%ADD100ROTATEDRECTD100*%

%ADD101R,0.560X0.510*%
%ADD102R,0.700X0.510*%
%ADD103R,0.510X0.700*%
%ADD104C,1.000*%
%ADD105R,0.900X0.700*%
%ADD106R,0.400X0.500*%
%ADD107R,0.640X0.890*%
%ADD108R,0.890X0.640*%
%ADD109R,1.550X1.300*%
%ADD110R,1.400X1.000*%
%ADD111R,0.700X0.300*%
%ADD112R,0.700X0.900*%
%ADD113R,0.510X0.560*%
%ADD114R,0.900X0.550*%
%ADD115R,0.950X0.400*%
%ADD116R,0.350X1.300*%
%ADD117R,2.300X0.350*%
%ADD118R,0.400X0.950*%
%ADD119R,1.300X0.350*%
%ADD120R,0.350X2.300*%
%ADD121R,0.200X0.700*%
%ADD122R,1.000X0.500*%
%ADD123R,2.800X1.350*%
%ADD124R,3.700X3.700*%
%ADD125O,0.750X0.300*%
%ADD126O,0.300X0.750*%
%ADD127R,0.800X2.000*%
G04:AMPARAMS|DCode=128|XSize=0.7mm|YSize=0.51mm|CornerRadius=0mm|HoleSize=0mm|Usage=FLASHONLY|Rotation=135.000|XOffset=0mm|YOffset=0mm|HoleType=Round|Shape=Rectangle|*
%AMROTATEDRECTD128*
4,1,4,0.428,-0.067,0.067,-0.428,-0.428,0.067,-0.067,0.428,0.428,-0.067,0.0*
%
%ADD128ROTATEDRECTD128*%

G04:AMPARAMS|DCode=129|XSize=0.56mm|YSize=0.51mm|CornerRadius=0mm|HoleSize=0mm|Usage=FLASHONLY|Rotation=135.000|XOffset=0mm|YOffset=0mm|HoleType=Round|Shape=Rectangle|*
%AMROTATEDRECTD129*
4,1,4,0.378,-0.018,0.018,-0.378,-0.378,0.018,-0.018,0.378,0.378,-0.018,0.0*
%
%ADD129ROTATEDRECTD129*%

%ADD130R,2.650X3.650*%
%ADD131O,0.250X0.850*%
%ADD132O,0.850X0.250*%
%ADD133R,0.350X0.350*%
%ADD134R,1.200X3.700*%
%ADD135R,0.350X0.350*%
%ADD136R,1.500X4.400*%
%ADD137P,0.735X4X360.0*%
%ADD138R,0.170X0.260*%
%ADD139R,0.900X1.500*%
%ADD140R,1.000X0.300*%
%ADD141R,0.850X0.300*%
%ADD142R,1.000X1.900*%
%ADD143R,0.300X0.750*%
%ADD144R,0.550X0.900*%
%ADD145P,1.414X4X90.0*%
G04:AMPARAMS|DCode=146|XSize=1.1mm|YSize=2.2mm|CornerRadius=0mm|HoleSize=0mm|Usage=FLASHONLY|Rotation=45.000|XOffset=0mm|YOffset=0mm|HoleType=Round|Shape=Rectangle|*
%AMROTATEDRECTD146*
4,1,4,0.389,-1.167,-1.167,0.389,-0.389,1.167,1.167,-0.389,0.389,-1.167,0.0*
%
%ADD146ROTATEDRECTD146*%

%ADD147C,0.800*%
%ADD148R,0.800X0.800*%
%ADD149R,0.800X0.800*%
%ADD150R,0.500X1.000*%
%ADD151R,2.000X0.800*%
%ADD152R,0.950X0.800*%
%ADD153R,0.850X0.750*%
%ADD154R,5.600X5.600*%
%ADD155R,0.750X0.300*%
%ADD156C,0.254*%
%ADD157C,0.381*%
%ADD158C,0.305*%
%ADD159C,0.300*%
%ADD160C,0.400*%
%ADD161C,0.150*%
%ADD162C,0.350*%
%ADD163C,0.635*%
%ADD164C,0.600*%
%ADD165C,0.500*%
%ADD166C,0.508*%
%ADD167C,0.450*%
%ADD168C,1.600*%
%ADD169R,1.600X1.600*%
%ADD170R,1.850X1.850*%
%ADD171C,1.850*%
%ADD172O,2.100X1.100*%
%ADD173O,2.600X1.100*%
%ADD174O,3.600X1.100*%
%ADD175C,0.450*%
%ADD176C,0.500*%
G36*
X86421Y29566D02*
X86378Y29523D01*
X86562Y29339D01*
X86565Y29334D01*
X86822Y29077D01*
X86827Y29074D01*
X87020Y28881D01*
X87023Y28883D01*
X87025Y28881D01*
X87066Y28922D01*
X87818Y28170D01*
X87815Y28139D01*
X86862Y27186D01*
X86860Y27185D01*
X86290Y26614D01*
X86206Y26489D01*
X86024Y26307D01*
X86024Y26307D01*
X85960Y26243D01*
X85934Y26217D01*
X85779Y26062D01*
X85652Y25977D01*
X84831Y25156D01*
X84662Y25167D01*
X84613Y25215D01*
Y26053D01*
X84589Y26176D01*
X84911Y26498D01*
X84069Y27340D01*
X83992Y27418D01*
X84064Y27514D01*
X84102Y27552D01*
X84282D01*
X84381Y27453D01*
X84680Y27752D01*
X83902Y28530D01*
X83124Y29308D01*
X82825Y29009D01*
X81481Y27665D01*
X81182Y27366D01*
X81960Y26588D01*
X82738Y25810D01*
X83037Y26109D01*
X82848Y26298D01*
X82976Y26426D01*
X83150Y26421D01*
X83642Y25929D01*
X83667Y25891D01*
X83696Y25863D01*
Y25215D01*
X83546Y25066D01*
X83730Y24882D01*
X83812Y24759D01*
X83935Y24677D01*
X84119Y24493D01*
X84047Y24396D01*
X83844Y24193D01*
X83762Y24070D01*
X83604Y23912D01*
X83578Y23886D01*
X83514Y23822D01*
D01*
X83330Y23638D01*
X83207Y23556D01*
X82617Y22965D01*
X82490Y23018D01*
Y23535D01*
X82593D01*
Y23917D01*
X82060D01*
Y24044D01*
X81933D01*
Y24553D01*
X81525D01*
Y24445D01*
X81518Y24321D01*
X81141D01*
Y23867D01*
X80887D01*
Y24321D01*
X80510D01*
Y24321D01*
X80454D01*
Y24321D01*
X80077D01*
Y23867D01*
X79823D01*
Y24321D01*
X79750D01*
X79697Y24448D01*
X79900Y24650D01*
X79961Y24742D01*
X79982Y24850D01*
Y26840D01*
X79961Y26948D01*
X79900Y27039D01*
X79751Y27188D01*
X79659Y27249D01*
X79551Y27271D01*
X79550D01*
Y27761D01*
X79357D01*
Y28120D01*
X79479D01*
Y28980D01*
X78683D01*
Y29084D01*
X78301D01*
Y28550D01*
Y28016D01*
X78683D01*
Y28016D01*
X78792Y27971D01*
Y27761D01*
X78400D01*
X78304Y27836D01*
Y27865D01*
X77752D01*
Y27236D01*
X77625D01*
Y27109D01*
X76946D01*
Y26844D01*
X76680D01*
Y27002D01*
X76784D01*
Y27384D01*
X75716D01*
Y27002D01*
X75820D01*
Y26206D01*
X76680D01*
Y26279D01*
X77050D01*
Y25661D01*
X77801D01*
X78000Y25462D01*
Y25060D01*
X78021Y24951D01*
X78068Y24881D01*
X78030Y24754D01*
X77696D01*
Y24754D01*
X77604D01*
Y24754D01*
X77227D01*
Y24300D01*
X77100D01*
Y24173D01*
X76596D01*
Y23871D01*
X76530Y23827D01*
X76529Y23825D01*
X76425D01*
X76288Y23768D01*
X76182Y23662D01*
X76125Y23525D01*
Y23479D01*
X75998Y23426D01*
X75279Y24145D01*
Y27249D01*
X75368Y27338D01*
X75425Y27475D01*
Y27625D01*
X75368Y27762D01*
X75262Y27868D01*
X75125Y27925D01*
X74975D01*
X74838Y27868D01*
X74732Y27762D01*
X74675Y27625D01*
Y27475D01*
X74732Y27338D01*
X74821Y27249D01*
Y24050D01*
X74838Y23962D01*
X74888Y23888D01*
X76243Y22532D01*
X76195Y22415D01*
X75563D01*
Y22291D01*
X75436Y22238D01*
X74541Y23133D01*
X73862Y23812D01*
X73788Y23862D01*
X73700Y23879D01*
X69600D01*
X69512Y23862D01*
X69438Y23812D01*
X67401Y21775D01*
X67275D01*
X67138Y21718D01*
X67032Y21612D01*
X66975Y21475D01*
Y21325D01*
X67032Y21188D01*
X67138Y21082D01*
X67275Y21025D01*
X67425D01*
X67562Y21082D01*
X67668Y21188D01*
X67725Y21325D01*
Y21451D01*
X69503Y23228D01*
X69620Y23180D01*
Y22659D01*
X69516D01*
Y22277D01*
X70050D01*
Y22150D01*
X70177D01*
Y21641D01*
X70584D01*
Y22150D01*
X70650Y22250D01*
X72950D01*
Y23350D01*
X73048Y23421D01*
X73605D01*
X74217Y22809D01*
X75297Y21728D01*
X75346Y21696D01*
X75321Y21569D01*
X75265D01*
Y21165D01*
X75011D01*
Y21569D01*
X74648D01*
Y22159D01*
X74241D01*
Y21650D01*
X74114D01*
Y21523D01*
X73544D01*
X73474Y21477D01*
X73455Y21485D01*
X73305D01*
X73168Y21428D01*
X73077Y21337D01*
X72950Y21350D01*
Y21350D01*
X70650D01*
Y20250D01*
X72436D01*
X72464Y20245D01*
X72756D01*
X73035Y19965D01*
X73063Y19946D01*
X73025Y19819D01*
X70740D01*
X70652Y19802D01*
X70578Y19752D01*
X69688Y18862D01*
X69638Y18788D01*
X69621Y18700D01*
Y16755D01*
X69074Y16208D01*
X69074Y16208D01*
X67438Y14572D01*
X67388Y14498D01*
X67371Y14410D01*
Y9051D01*
X67282Y8962D01*
X67225Y8825D01*
Y8675D01*
X67282Y8538D01*
X67388Y8432D01*
X67525Y8375D01*
X67675D01*
X67768Y8282D01*
X67818Y8207D01*
X67875Y8151D01*
Y8025D01*
X67932Y7888D01*
X68038Y7782D01*
X68175Y7725D01*
X68325D01*
X68462Y7782D01*
X68568Y7888D01*
X68625Y8025D01*
Y8175D01*
X68568Y8312D01*
X68462Y8418D01*
X68325Y8475D01*
X68279Y8564D01*
Y8936D01*
X68262Y9024D01*
X68212Y9099D01*
X68179Y9131D01*
Y14155D01*
X69511Y15486D01*
X69661Y15457D01*
X69668Y15438D01*
X69774Y15332D01*
X69834Y15307D01*
X69865Y15158D01*
X68838Y14131D01*
X68788Y14056D01*
X68771Y13969D01*
Y13760D01*
X68754Y13756D01*
X68606Y13670D01*
X68485Y13549D01*
X68399Y13401D01*
X68355Y13236D01*
Y13064D01*
X68399Y12899D01*
X68485Y12751D01*
X68606Y12630D01*
X68754Y12544D01*
X68919Y12500D01*
X69091D01*
X69256Y12544D01*
X69404Y12630D01*
X69525Y12751D01*
X69611Y12899D01*
X69655Y13064D01*
Y13236D01*
X69611Y13401D01*
X69525Y13549D01*
X69404Y13670D01*
X69256Y13756D01*
X69253Y13756D01*
X69238Y13882D01*
X70253Y14897D01*
X70371Y14849D01*
Y13751D01*
X70282Y13662D01*
X70225Y13525D01*
Y13375D01*
X70282Y13238D01*
X70371Y13149D01*
Y12842D01*
X69275Y11746D01*
X69256Y11758D01*
X69091Y11802D01*
X68920D01*
X68754Y11758D01*
X68606Y11672D01*
X68485Y11551D01*
X68399Y11403D01*
X68355Y11237D01*
Y11066D01*
X68399Y10901D01*
X68485Y10753D01*
X68606Y10632D01*
X68754Y10546D01*
X68920Y10502D01*
X69091D01*
X69256Y10546D01*
X69404Y10632D01*
X69525Y10753D01*
X69611Y10901D01*
X69655Y11066D01*
Y11237D01*
X69611Y11403D01*
X69600Y11422D01*
X70762Y12584D01*
X70812Y12659D01*
X70829Y12747D01*
Y13149D01*
X70918Y13238D01*
X70967Y13355D01*
X71039Y13371D01*
X71099Y13368D01*
X71132Y13288D01*
X71238Y13182D01*
X71375Y13125D01*
X71525D01*
X71662Y13182D01*
X71768Y13288D01*
X71825Y13425D01*
Y13575D01*
X71768Y13712D01*
X71771Y13738D01*
X71882Y13802D01*
X72003Y13923D01*
X72089Y14071D01*
X72133Y14236D01*
Y14407D01*
X72089Y14573D01*
X72003Y14721D01*
X71882Y14842D01*
X71734Y14928D01*
X71729Y14929D01*
Y15525D01*
X72294Y16090D01*
X72746D01*
Y15827D01*
X73200D01*
Y15700D01*
X73327D01*
Y15196D01*
X73654D01*
Y15300D01*
X73915D01*
X73954Y15173D01*
X73938Y15162D01*
X73731Y14956D01*
X73690Y14979D01*
X73525Y15023D01*
X73354D01*
X73189Y14979D01*
X73040Y14894D01*
X72919Y14773D01*
X72834Y14624D01*
X72789Y14459D01*
Y14288D01*
X72834Y14123D01*
X72919Y13974D01*
X73040Y13853D01*
X73189Y13768D01*
X73354Y13723D01*
X73525D01*
X73690Y13768D01*
X73839Y13853D01*
X73960Y13974D01*
X74045Y14123D01*
X74089Y14288D01*
Y14459D01*
X74046Y14621D01*
X74195Y14771D01*
X74750D01*
X74838Y14788D01*
X74912Y14838D01*
X75195Y15121D01*
X75245Y15195D01*
X75262Y15283D01*
Y15365D01*
X75559D01*
Y15361D01*
X75563D01*
Y14854D01*
X75552Y14852D01*
X75478Y14802D01*
X74125Y13449D01*
X73467D01*
Y13328D01*
X73249D01*
X73161Y13311D01*
X73087Y13261D01*
X72105Y12279D01*
X70850D01*
X70762Y12262D01*
X70688Y12212D01*
X70038Y11562D01*
X69988Y11488D01*
X69971Y11400D01*
Y9045D01*
X68305Y7379D01*
X67048D01*
X66950Y7450D01*
X66950Y7506D01*
Y9050D01*
X65100D01*
Y7604D01*
X64973Y7551D01*
X64912Y7612D01*
X64838Y7662D01*
X64750Y7679D01*
X60063D01*
Y7885D01*
X59609D01*
Y8139D01*
X60063D01*
Y8423D01*
X60141Y8517D01*
X60141Y8611D01*
Y8924D01*
X59632D01*
Y9051D01*
X59505D01*
Y9585D01*
X59123D01*
Y9481D01*
X58327D01*
Y9481D01*
X58200Y9424D01*
X58171Y9436D01*
X58022D01*
X57884Y9378D01*
X57779Y9273D01*
X57721Y9135D01*
Y8986D01*
X57779Y8848D01*
X57884Y8743D01*
X58022Y8686D01*
X58171D01*
X58200Y8698D01*
X58327Y8621D01*
Y8621D01*
X59013D01*
X59096Y8543D01*
X59103Y8526D01*
X59035Y8412D01*
X58659D01*
Y8412D01*
X58532Y8368D01*
X58487Y8387D01*
X58337D01*
X58200Y8330D01*
X58094Y8224D01*
X58037Y8087D01*
Y7937D01*
X58094Y7800D01*
X58200Y7694D01*
X58337Y7637D01*
X58487D01*
X58532Y7656D01*
X58659Y7612D01*
Y7612D01*
X59099D01*
X59155Y7508D01*
X59087Y7412D01*
X58455Y6779D01*
X57613D01*
Y7019D01*
X56613D01*
Y6882D01*
X56386D01*
Y7100D01*
X55186D01*
Y6957D01*
X54392D01*
X54257Y7092D01*
Y7450D01*
X54900D01*
Y9050D01*
X53050D01*
Y7450D01*
X53693D01*
Y6975D01*
X53714Y6867D01*
X53775Y6775D01*
X54075Y6475D01*
X54167Y6414D01*
X54275Y6393D01*
X55186D01*
Y6250D01*
X56386D01*
Y6250D01*
X56504Y6229D01*
X56509Y6223D01*
Y6073D01*
X56490Y5954D01*
X56382Y5954D01*
X55913D01*
Y5425D01*
Y4896D01*
X56490D01*
Y5086D01*
X56509Y5205D01*
X56617Y5205D01*
X56986D01*
Y5714D01*
X57113D01*
Y5841D01*
X57717D01*
Y6223D01*
X57787Y6321D01*
X58550D01*
X58638Y6338D01*
X58712Y6388D01*
X59019Y6695D01*
X59146Y6642D01*
Y6452D01*
X59923D01*
Y6754D01*
X59258D01*
X59206Y6881D01*
X59545Y7221D01*
X64655D01*
X64888Y6988D01*
X64962Y6938D01*
X65050Y6921D01*
X68400D01*
X68488Y6938D01*
X68562Y6988D01*
X70362Y8788D01*
X70412Y8862D01*
X70429Y8950D01*
Y11305D01*
X70679Y11554D01*
X70796Y11506D01*
Y11477D01*
X71500D01*
X72204D01*
Y11821D01*
X72288Y11838D01*
X72362Y11888D01*
X73236Y12762D01*
X73363Y12709D01*
Y12626D01*
X73867D01*
Y12499D01*
X73994D01*
Y12045D01*
X74221D01*
Y11195D01*
X73846Y10821D01*
X73767Y10854D01*
X72521D01*
Y10472D01*
X72625D01*
Y10306D01*
X72100D01*
Y10525D01*
X70900D01*
Y9675D01*
X71220D01*
Y9250D01*
X71220Y9250D01*
X71241Y9143D01*
X71302Y9052D01*
X72302Y8052D01*
X72302Y8052D01*
X72393Y7991D01*
X72500Y7970D01*
X73050D01*
Y7450D01*
X74900D01*
Y9050D01*
X73050D01*
Y8530D01*
X72616D01*
X71780Y9366D01*
Y9675D01*
X72100D01*
Y9847D01*
X72625D01*
Y9676D01*
X73625D01*
Y9951D01*
X74612Y10938D01*
X74662Y11012D01*
X74679Y11100D01*
Y12045D01*
X74804D01*
Y12499D01*
X75058D01*
Y12045D01*
X75239D01*
Y10281D01*
X75257Y10193D01*
X75307Y10119D01*
X76038Y9388D01*
X76112Y9338D01*
X76200Y9321D01*
X78750D01*
X78838Y9338D01*
X78912Y9388D01*
X80445Y10921D01*
X84124D01*
Y10517D01*
X84653D01*
X85182D01*
Y10921D01*
X85478D01*
Y9790D01*
X85623D01*
Y9050D01*
X85100D01*
Y7450D01*
X86950D01*
Y9050D01*
X86184D01*
Y9790D01*
X86328D01*
Y10990D01*
X86133D01*
Y11362D01*
X86419D01*
Y12158D01*
X86523D01*
Y12540D01*
X85315D01*
Y12158D01*
X85419D01*
Y11379D01*
X80350D01*
X80262Y11362D01*
X80188Y11312D01*
X78655Y9779D01*
X76295D01*
X75698Y10376D01*
Y12045D01*
X75869D01*
Y12499D01*
X76123D01*
Y12045D01*
X76500D01*
Y12045D01*
X76620Y12029D01*
Y11509D01*
X76516D01*
Y11127D01*
X77050D01*
Y11000D01*
X77177D01*
Y10491D01*
X77584D01*
Y10491D01*
X77641Y10491D01*
Y10491D01*
X78048D01*
Y11000D01*
X78175D01*
Y11127D01*
X78709D01*
Y11509D01*
X78605D01*
Y12285D01*
X78709Y12361D01*
X78738Y12332D01*
X78875Y12275D01*
X78929D01*
X79025Y12175D01*
X79025Y12158D01*
Y12025D01*
X79082Y11888D01*
X79188Y11782D01*
X79325Y11725D01*
X79475D01*
X79612Y11782D01*
X79718Y11888D01*
X79775Y12025D01*
Y12175D01*
X79729Y12285D01*
Y13000D01*
X79712Y13088D01*
X79662Y13162D01*
X79583Y13241D01*
Y13832D01*
X79710Y13910D01*
X79781Y13881D01*
X79930D01*
X80000Y13834D01*
Y13454D01*
X79896D01*
Y13127D01*
X80400D01*
Y13000D01*
X80527D01*
Y12546D01*
X80666D01*
Y11991D01*
X81073D01*
Y12500D01*
X81200D01*
Y12627D01*
X81734D01*
Y12947D01*
X81775Y12975D01*
X81925D01*
X82062Y13032D01*
X82168Y13138D01*
X82173Y13149D01*
X82300Y13124D01*
Y12395D01*
X82350D01*
X82421Y12289D01*
X82409Y12260D01*
Y12111D01*
X82466Y11973D01*
X82571Y11868D01*
X82709Y11811D01*
X82858D01*
X82996Y11868D01*
X83102Y11973D01*
X83159Y12111D01*
Y12260D01*
X83147Y12289D01*
X83217Y12395D01*
X83300D01*
Y13168D01*
X83300Y13295D01*
X83300Y13332D01*
Y13946D01*
X83558D01*
Y14450D01*
Y14954D01*
X83231D01*
Y14850D01*
X82735D01*
Y14679D01*
X82601D01*
X82512Y14768D01*
X82375Y14825D01*
X82225D01*
X82088Y14768D01*
X82037Y14717D01*
X82011D01*
X81812Y14915D01*
X81738Y14965D01*
X81663Y14980D01*
Y15361D01*
X81667D01*
Y15365D01*
X82613D01*
Y15436D01*
X82834D01*
X82938Y15332D01*
X83075Y15275D01*
X83225D01*
X83362Y15332D01*
X83468Y15438D01*
X83525Y15575D01*
Y15725D01*
X83490Y15809D01*
X83561Y15936D01*
X83840D01*
X84725Y15051D01*
Y14925D01*
X84782Y14788D01*
X84888Y14682D01*
X85025Y14625D01*
X85175D01*
X85312Y14682D01*
X85401Y14771D01*
X85475Y14780D01*
X85549Y14771D01*
X85638Y14682D01*
X85775Y14625D01*
X85925D01*
X86062Y14682D01*
X86168Y14788D01*
X86225Y14925D01*
Y15075D01*
X86168Y15212D01*
X86062Y15318D01*
X85925Y15375D01*
X85799D01*
X85581Y15594D01*
X85596Y15668D01*
X85629Y15721D01*
X88012D01*
X88100Y15738D01*
X88174Y15788D01*
X88712Y16326D01*
X88762Y16400D01*
X88779Y16488D01*
Y19855D01*
X88762Y19943D01*
X88712Y20017D01*
X88632Y20098D01*
X88640Y20118D01*
Y20268D01*
X88583Y20405D01*
X88477Y20511D01*
X88340Y20568D01*
X88190D01*
X88053Y20511D01*
X87947Y20405D01*
X87890Y20268D01*
Y20264D01*
X87763Y20211D01*
X87616Y20358D01*
X87542Y20408D01*
X87454Y20425D01*
X87134D01*
X87045Y20514D01*
X87013Y20527D01*
Y20790D01*
X86504D01*
Y20917D01*
X86377D01*
Y21521D01*
X85995D01*
Y21417D01*
X85199D01*
Y20860D01*
X85169Y20854D01*
X85094Y20804D01*
X84871Y20581D01*
X84771Y20623D01*
X84300D01*
Y20877D01*
X84754D01*
Y21254D01*
X84721D01*
X84642Y21381D01*
X84670Y21449D01*
Y21599D01*
X84613Y21736D01*
X84507Y21842D01*
X84370Y21899D01*
X84220D01*
X84083Y21842D01*
X83977Y21736D01*
X83929Y21620D01*
X83573Y21264D01*
X83512Y21173D01*
X83508Y21150D01*
X83350D01*
Y21150D01*
X83224Y21152D01*
Y21242D01*
X83167Y21379D01*
X83061Y21485D01*
X82924Y21542D01*
X82774D01*
X82637Y21485D01*
X82613Y21465D01*
X82613Y21465D01*
X81911D01*
X81873Y21592D01*
X81945Y21641D01*
X82285Y21980D01*
X82739D01*
X82915Y22015D01*
X83063Y22115D01*
X83856Y22907D01*
X83938Y23030D01*
X84122Y23214D01*
X84186Y23278D01*
X84370Y23462D01*
X84493Y23544D01*
X85026Y24078D01*
X85098Y24125D01*
X85731Y24759D01*
X85731Y24759D01*
X86298Y25325D01*
X86302Y25328D01*
X86384Y25451D01*
X86542Y25609D01*
X86568Y25635D01*
X86632Y25699D01*
X86632Y25699D01*
X86818Y25885D01*
X86938Y25965D01*
X87508Y26535D01*
X87510Y26536D01*
X88464Y27490D01*
X88569Y27419D01*
X99500Y16488D01*
X99741Y16247D01*
X99741Y2000D01*
Y1829D01*
X99674Y1492D01*
X99543Y1175D01*
X99352Y890D01*
X99110Y648D01*
X98825Y457D01*
X98508Y326D01*
X98171Y259D01*
X98000D01*
X2000Y259D01*
X1829Y259D01*
X1492Y326D01*
X1175Y457D01*
X890Y648D01*
X648Y890D01*
X457Y1175D01*
X326Y1492D01*
X259Y1829D01*
Y2567D01*
X386Y2611D01*
X450Y2527D01*
X618Y2398D01*
X814Y2317D01*
X1024Y2289D01*
X1647D01*
Y3100D01*
Y3911D01*
X1024D01*
X814Y3883D01*
X618Y3802D01*
X450Y3673D01*
X386Y3589D01*
X259Y3633D01*
Y11807D01*
X386Y11851D01*
X450Y11767D01*
X618Y11638D01*
X814Y11557D01*
X1024Y11529D01*
X1647D01*
Y12340D01*
Y13151D01*
X1024D01*
X814Y13123D01*
X618Y13042D01*
X450Y12913D01*
X386Y12829D01*
X259Y12873D01*
Y33000D01*
X259Y33171D01*
X326Y33508D01*
X457Y33825D01*
X648Y34110D01*
X890Y34352D01*
X1175Y34543D01*
X1492Y34674D01*
X1829Y34741D01*
X2000Y34741D01*
X33908Y34741D01*
X33934Y34614D01*
X33795Y34557D01*
X33516Y34370D01*
X33280Y34134D01*
X33093Y33855D01*
X32965Y33546D01*
X32900Y33217D01*
Y32883D01*
X32965Y32554D01*
X33093Y32245D01*
X33280Y31966D01*
X33516Y31730D01*
X33795Y31543D01*
X34104Y31415D01*
X34433Y31350D01*
X34767D01*
X35096Y31415D01*
X35405Y31543D01*
X35684Y31730D01*
X35920Y31966D01*
X36107Y32245D01*
X36235Y32554D01*
X36300Y32883D01*
Y33217D01*
X36235Y33546D01*
X36107Y33855D01*
X35920Y34134D01*
X35684Y34370D01*
X35405Y34557D01*
X35266Y34614D01*
X35292Y34741D01*
X81247Y34741D01*
X86421Y29566D01*
D02*
G37*
G36*
X92852Y33207D02*
X93120Y33106D01*
X93344Y32929D01*
X93424Y32811D01*
X93424Y32811D01*
X99081Y27154D01*
X98169Y26653D01*
X96556Y28265D01*
X92966Y25633D01*
X93232Y25366D01*
X93441Y25411D01*
X93637Y25438D01*
X93726Y25439D01*
X93807Y25429D01*
X93879Y25405D01*
X93940Y25366D01*
X94012Y25271D01*
X94060Y25143D01*
X94116Y24836D01*
X94140Y24680D01*
X94173Y24535D01*
X94221Y24408D01*
X94293Y24306D01*
X94395Y24233D01*
X94523Y24185D01*
X94668Y24153D01*
X94823Y24129D01*
X95130Y24072D01*
X95258Y24024D01*
X95354Y23952D01*
X95393Y23891D01*
X95416Y23819D01*
X95426Y23738D01*
X95425Y23649D01*
X95398Y23453D01*
X95354Y23245D01*
X96129Y22470D01*
X95563Y21904D01*
X94788Y22679D01*
X94833Y22888D01*
X94859Y23083D01*
X94861Y23173D01*
X94851Y23254D01*
X94827Y23326D01*
X94788Y23386D01*
X94693Y23458D01*
X94564Y23507D01*
X94258Y23563D01*
X94102Y23587D01*
X93957Y23619D01*
X93830Y23667D01*
X93727Y23740D01*
X93655Y23842D01*
X93607Y23970D01*
X93575Y24115D01*
X93551Y24270D01*
X93494Y24577D01*
X93446Y24705D01*
X93374Y24801D01*
X93313Y24840D01*
X93241Y24863D01*
X93160Y24873D01*
X93071Y24872D01*
X92875Y24845D01*
X92667Y24801D01*
X91606Y25861D01*
X95849Y28972D01*
X92574Y32200D01*
X92293Y27578D01*
X92276Y27437D01*
X92160Y27177D01*
X91972Y26964D01*
X91729Y26816D01*
X91453Y26747D01*
X91169Y26763D01*
X90902Y26863D01*
X90677Y27037D01*
X90596Y27154D01*
X89182Y28568D01*
X88333Y27720D01*
X88229Y27724D01*
X88054Y27899D01*
X88050Y28003D01*
X88899Y28851D01*
X88475Y29275D01*
X87751Y29999D01*
X87005Y29260D01*
X86748Y29517D01*
X87487Y30263D01*
X87061Y30690D01*
X87980Y31185D01*
X91445Y27720D01*
X91748Y32367D01*
X91759Y32509D01*
X91866Y32774D01*
X92049Y32994D01*
X92290Y33148D01*
X92566Y33221D01*
X92852Y33207D01*
D02*
G37*
G36*
X58362Y-11586D02*
X58385D01*
X58437Y-11592D01*
X58496Y-11600D01*
X58557Y-11614D01*
X58623Y-11631D01*
X58687Y-11653D01*
X58690D01*
X58696Y-11656D01*
X58704Y-11658D01*
X58715Y-11664D01*
X58745Y-11681D01*
X58784Y-11700D01*
X58826Y-11728D01*
X58870Y-11761D01*
X58912Y-11797D01*
X58951Y-11842D01*
X58956Y-11847D01*
X58968Y-11864D01*
X58984Y-11889D01*
X59006Y-11925D01*
X59029Y-11969D01*
X59054Y-12025D01*
X59079Y-12086D01*
X59098Y-12155D01*
X58868Y-12216D01*
Y-12214D01*
X58865Y-12211D01*
X58862Y-12203D01*
X58859Y-12191D01*
X58851Y-12166D01*
X58840Y-12133D01*
X58823Y-12094D01*
X58804Y-12058D01*
X58784Y-12019D01*
X58759Y-11986D01*
X58757Y-11983D01*
X58748Y-11972D01*
X58732Y-11958D01*
X58712Y-11939D01*
X58687Y-11917D01*
X58654Y-11894D01*
X58618Y-11872D01*
X58576Y-11853D01*
X58571Y-11850D01*
X58557Y-11844D01*
X58532Y-11836D01*
X58498Y-11825D01*
X58460Y-11817D01*
X58415Y-11808D01*
X58365Y-11803D01*
X58312Y-11800D01*
X58282D01*
X58268Y-11803D01*
X58251D01*
X58210Y-11806D01*
X58162Y-11814D01*
X58110Y-11822D01*
X58060Y-11836D01*
X58010Y-11856D01*
X58004Y-11858D01*
X57988Y-11864D01*
X57965Y-11878D01*
X57938Y-11892D01*
X57904Y-11914D01*
X57868Y-11936D01*
X57835Y-11964D01*
X57804Y-11994D01*
X57802Y-11997D01*
X57790Y-12008D01*
X57777Y-12028D01*
X57760Y-12050D01*
X57740Y-12078D01*
X57721Y-12111D01*
X57702Y-12147D01*
X57682Y-12186D01*
Y-12189D01*
X57679Y-12194D01*
X57677Y-12203D01*
X57671Y-12216D01*
X57666Y-12233D01*
X57660Y-12253D01*
X57652Y-12275D01*
X57646Y-12300D01*
X57632Y-12358D01*
X57621Y-12425D01*
X57613Y-12494D01*
X57610Y-12572D01*
Y-12575D01*
Y-12583D01*
Y-12597D01*
X57613Y-12613D01*
Y-12636D01*
X57616Y-12663D01*
X57618Y-12691D01*
X57621Y-12722D01*
X57632Y-12791D01*
X57646Y-12863D01*
X57668Y-12935D01*
X57696Y-13005D01*
Y-13008D01*
X57702Y-13013D01*
X57704Y-13022D01*
X57713Y-13033D01*
X57732Y-13063D01*
X57763Y-13102D01*
X57799Y-13144D01*
X57843Y-13185D01*
X57896Y-13224D01*
X57954Y-13260D01*
X57957D01*
X57963Y-13263D01*
X57971Y-13269D01*
X57985Y-13274D01*
X57999Y-13280D01*
X58018Y-13285D01*
X58063Y-13302D01*
X58118Y-13316D01*
X58179Y-13330D01*
X58246Y-13341D01*
X58315Y-13344D01*
X58343D01*
X58360Y-13341D01*
X58376D01*
X58418Y-13335D01*
X58468Y-13330D01*
X58521Y-13319D01*
X58579Y-13302D01*
X58637Y-13283D01*
X58640D01*
X58646Y-13280D01*
X58651Y-13277D01*
X58662Y-13271D01*
X58693Y-13258D01*
X58726Y-13241D01*
X58765Y-13221D01*
X58807Y-13199D01*
X58845Y-13174D01*
X58879Y-13146D01*
Y-12786D01*
X58312D01*
Y-12558D01*
X59129D01*
Y-13271D01*
X59126Y-13274D01*
X59120Y-13277D01*
X59109Y-13285D01*
X59095Y-13296D01*
X59079Y-13307D01*
X59059Y-13321D01*
X59034Y-13338D01*
X59009Y-13355D01*
X58951Y-13391D01*
X58884Y-13430D01*
X58815Y-13466D01*
X58740Y-13496D01*
X58737D01*
X58732Y-13499D01*
X58721Y-13502D01*
X58707Y-13507D01*
X58687Y-13513D01*
X58665Y-13521D01*
X58640Y-13527D01*
X58615Y-13532D01*
X58554Y-13546D01*
X58485Y-13560D01*
X58410Y-13568D01*
X58332Y-13571D01*
X58304D01*
X58285Y-13568D01*
X58260D01*
X58229Y-13566D01*
X58196Y-13560D01*
X58160Y-13557D01*
X58079Y-13541D01*
X57993Y-13521D01*
X57904Y-13491D01*
X57860Y-13474D01*
X57815Y-13452D01*
X57813Y-13449D01*
X57804Y-13446D01*
X57793Y-13438D01*
X57777Y-13430D01*
X57757Y-13416D01*
X57738Y-13402D01*
X57685Y-13363D01*
X57629Y-13313D01*
X57571Y-13252D01*
X57516Y-13183D01*
X57466Y-13102D01*
Y-13099D01*
X57460Y-13091D01*
X57455Y-13080D01*
X57446Y-13060D01*
X57438Y-13041D01*
X57430Y-13013D01*
X57418Y-12985D01*
X57407Y-12952D01*
X57396Y-12916D01*
X57385Y-12874D01*
X57377Y-12833D01*
X57368Y-12788D01*
X57355Y-12691D01*
X57349Y-12588D01*
Y-12586D01*
Y-12575D01*
Y-12561D01*
X57352Y-12541D01*
Y-12516D01*
X57355Y-12486D01*
X57360Y-12455D01*
X57363Y-12419D01*
X57371Y-12380D01*
X57377Y-12339D01*
X57399Y-12250D01*
X57427Y-12158D01*
X57466Y-12067D01*
X57468Y-12064D01*
X57471Y-12055D01*
X57477Y-12044D01*
X57488Y-12028D01*
X57499Y-12005D01*
X57513Y-11983D01*
X57552Y-11930D01*
X57599Y-11869D01*
X57657Y-11811D01*
X57724Y-11753D01*
X57763Y-11728D01*
X57802Y-11703D01*
X57804Y-11700D01*
X57813Y-11697D01*
X57824Y-11692D01*
X57840Y-11683D01*
X57863Y-11675D01*
X57888Y-11664D01*
X57915Y-11653D01*
X57949Y-11642D01*
X57985Y-11631D01*
X58024Y-11622D01*
X58065Y-11611D01*
X58110Y-11603D01*
X58207Y-11589D01*
X58257Y-11583D01*
X58346D01*
X58362Y-11586D01*
D02*
G37*
G36*
X61388Y-13310D02*
X62335D01*
Y-13538D01*
X61133D01*
Y-11617D01*
X61388D01*
Y-13310D01*
D02*
G37*
G36*
X60880Y-11844D02*
X60247D01*
Y-13538D01*
X59992D01*
Y-11844D01*
X59359D01*
Y-11617D01*
X60880D01*
Y-11844D01*
D02*
G37*
G36*
X56974Y-13538D02*
X56705D01*
Y-13269D01*
X56974D01*
Y-13538D01*
D02*
G37*
G36*
X18919Y-12116D02*
X18939Y-12119D01*
X18980Y-12125D01*
X19030Y-12136D01*
X19083Y-12153D01*
X19136Y-12178D01*
X19188Y-12208D01*
X19191D01*
X19194Y-12214D01*
X19211Y-12225D01*
X19236Y-12247D01*
X19266Y-12275D01*
X19299Y-12311D01*
X19333Y-12355D01*
X19366Y-12408D01*
X19394Y-12466D01*
Y-12469D01*
X19397Y-12475D01*
X19399Y-12483D01*
X19405Y-12494D01*
X19410Y-12511D01*
X19416Y-12530D01*
X19430Y-12575D01*
X19444Y-12630D01*
X19455Y-12691D01*
X19463Y-12761D01*
X19466Y-12833D01*
Y-12836D01*
Y-12841D01*
Y-12852D01*
Y-12869D01*
X19463Y-12888D01*
Y-12910D01*
X19458Y-12960D01*
X19447Y-13022D01*
X19433Y-13085D01*
X19413Y-13152D01*
X19388Y-13219D01*
Y-13221D01*
X19386Y-13227D01*
X19380Y-13235D01*
X19374Y-13246D01*
X19355Y-13277D01*
X19330Y-13316D01*
X19299Y-13357D01*
X19261Y-13399D01*
X19216Y-13441D01*
X19163Y-13480D01*
X19161D01*
X19158Y-13482D01*
X19150Y-13488D01*
X19138Y-13493D01*
X19111Y-13507D01*
X19072Y-13524D01*
X19025Y-13541D01*
X18975Y-13555D01*
X18916Y-13566D01*
X18858Y-13568D01*
X18839D01*
X18816Y-13566D01*
X18789Y-13563D01*
X18755Y-13557D01*
X18719Y-13549D01*
X18683Y-13538D01*
X18647Y-13521D01*
X18644Y-13518D01*
X18630Y-13513D01*
X18614Y-13502D01*
X18592Y-13485D01*
X18569Y-13469D01*
X18542Y-13446D01*
X18517Y-13421D01*
X18494Y-13394D01*
Y-14071D01*
X18258D01*
Y-12144D01*
X18472D01*
Y-12327D01*
X18475Y-12322D01*
X18486Y-12311D01*
X18500Y-12291D01*
X18522Y-12269D01*
X18547Y-12241D01*
X18575Y-12216D01*
X18608Y-12191D01*
X18641Y-12169D01*
X18647Y-12166D01*
X18658Y-12161D01*
X18680Y-12153D01*
X18708Y-12141D01*
X18741Y-12130D01*
X18780Y-12122D01*
X18825Y-12116D01*
X18875Y-12114D01*
X18905D01*
X18919Y-12116D01*
D02*
G37*
G36*
X26879D02*
X26909Y-12122D01*
X26945Y-12133D01*
X26984Y-12147D01*
X27028Y-12166D01*
X27076Y-12191D01*
X26990Y-12408D01*
X26987Y-12405D01*
X26976Y-12400D01*
X26959Y-12391D01*
X26937Y-12383D01*
X26912Y-12375D01*
X26881Y-12366D01*
X26851Y-12361D01*
X26820Y-12358D01*
X26806D01*
X26792Y-12361D01*
X26773Y-12364D01*
X26754Y-12369D01*
X26729Y-12377D01*
X26704Y-12389D01*
X26681Y-12405D01*
X26679Y-12408D01*
X26670Y-12414D01*
X26662Y-12425D01*
X26648Y-12439D01*
X26634Y-12458D01*
X26620Y-12480D01*
X26606Y-12505D01*
X26595Y-12536D01*
X26593Y-12541D01*
X26590Y-12558D01*
X26584Y-12583D01*
X26576Y-12616D01*
X26568Y-12658D01*
X26562Y-12705D01*
X26559Y-12755D01*
X26556Y-12811D01*
Y-13538D01*
X26320D01*
Y-12144D01*
X26534D01*
Y-12355D01*
X26537Y-12352D01*
X26548Y-12333D01*
X26562Y-12308D01*
X26584Y-12278D01*
X26606Y-12247D01*
X26631Y-12214D01*
X26656Y-12186D01*
X26681Y-12164D01*
X26684Y-12161D01*
X26693Y-12155D01*
X26709Y-12147D01*
X26726Y-12139D01*
X26748Y-12130D01*
X26776Y-12122D01*
X26804Y-12116D01*
X26834Y-12114D01*
X26854D01*
X26879Y-12116D01*
D02*
G37*
G36*
X24097Y-13560D02*
Y-13563D01*
X24094Y-13571D01*
X24088Y-13582D01*
X24083Y-13596D01*
X24075Y-13616D01*
X24066Y-13638D01*
X24047Y-13685D01*
X24027Y-13738D01*
X24005Y-13791D01*
X23983Y-13838D01*
X23972Y-13857D01*
X23963Y-13877D01*
X23961Y-13882D01*
X23952Y-13896D01*
X23939Y-13915D01*
X23922Y-13940D01*
X23900Y-13968D01*
X23875Y-13996D01*
X23850Y-14024D01*
X23819Y-14046D01*
X23816Y-14049D01*
X23805Y-14054D01*
X23789Y-14063D01*
X23764Y-14074D01*
X23736Y-14085D01*
X23703Y-14093D01*
X23666Y-14099D01*
X23625Y-14101D01*
X23614D01*
X23600Y-14099D01*
X23580D01*
X23558Y-14093D01*
X23533Y-14088D01*
X23505Y-14082D01*
X23475Y-14071D01*
X23450Y-13852D01*
X23453D01*
X23464Y-13854D01*
X23478Y-13857D01*
X23494Y-13863D01*
X23539Y-13871D01*
X23583Y-13874D01*
X23597D01*
X23611Y-13871D01*
X23628D01*
X23669Y-13863D01*
X23689Y-13854D01*
X23708Y-13846D01*
X23711D01*
X23716Y-13841D01*
X23725Y-13835D01*
X23736Y-13827D01*
X23761Y-13804D01*
X23783Y-13774D01*
Y-13771D01*
X23789Y-13766D01*
X23794Y-13754D01*
X23800Y-13738D01*
X23811Y-13716D01*
X23822Y-13682D01*
X23839Y-13643D01*
X23855Y-13596D01*
Y-13593D01*
X23861Y-13582D01*
X23866Y-13563D01*
X23877Y-13538D01*
X23350Y-12144D01*
X23600D01*
X23891Y-12952D01*
Y-12955D01*
X23894Y-12958D01*
X23897Y-12966D01*
X23900Y-12980D01*
X23905Y-12994D01*
X23911Y-13010D01*
X23925Y-13049D01*
X23941Y-13097D01*
X23958Y-13152D01*
X23975Y-13210D01*
X23991Y-13274D01*
Y-13271D01*
X23994Y-13266D01*
X23997Y-13258D01*
X24000Y-13246D01*
X24002Y-13233D01*
X24008Y-13216D01*
X24019Y-13174D01*
X24033Y-13127D01*
X24052Y-13072D01*
X24069Y-13016D01*
X24091Y-12958D01*
X24391Y-12144D01*
X24627D01*
X24097Y-13560D01*
D02*
G37*
G36*
X28786Y-13538D02*
X28550D01*
Y-12036D01*
X28547Y-12039D01*
X28533Y-12050D01*
X28516Y-12067D01*
X28489Y-12086D01*
X28458Y-12111D01*
X28419Y-12139D01*
X28375Y-12169D01*
X28325Y-12200D01*
X28322D01*
X28319Y-12203D01*
X28303Y-12214D01*
X28275Y-12228D01*
X28242Y-12244D01*
X28203Y-12264D01*
X28161Y-12283D01*
X28119Y-12302D01*
X28078Y-12319D01*
Y-12092D01*
X28081D01*
X28086Y-12086D01*
X28097Y-12083D01*
X28111Y-12075D01*
X28128Y-12067D01*
X28147Y-12055D01*
X28194Y-12028D01*
X28250Y-11997D01*
X28306Y-11958D01*
X28364Y-11914D01*
X28422Y-11867D01*
X28425Y-11864D01*
X28428Y-11861D01*
X28436Y-11853D01*
X28447Y-11844D01*
X28472Y-11817D01*
X28505Y-11783D01*
X28539Y-11744D01*
X28575Y-11700D01*
X28605Y-11656D01*
X28633Y-11608D01*
X28786D01*
Y-13538D01*
D02*
G37*
G36*
X22642Y-12116D02*
X22684Y-12119D01*
X22731Y-12125D01*
X22778Y-12133D01*
X22825Y-12144D01*
X22870Y-12158D01*
X22875Y-12161D01*
X22889Y-12166D01*
X22909Y-12175D01*
X22934Y-12186D01*
X22961Y-12203D01*
X22989Y-12219D01*
X23014Y-12241D01*
X23036Y-12264D01*
X23039Y-12266D01*
X23045Y-12275D01*
X23053Y-12289D01*
X23064Y-12305D01*
X23078Y-12330D01*
X23089Y-12355D01*
X23100Y-12386D01*
X23108Y-12422D01*
Y-12425D01*
X23111Y-12433D01*
X23114Y-12450D01*
X23117Y-12472D01*
Y-12502D01*
X23120Y-12538D01*
X23122Y-12586D01*
Y-12638D01*
Y-12955D01*
Y-12958D01*
Y-12969D01*
Y-12985D01*
Y-13008D01*
Y-13033D01*
Y-13063D01*
X23125Y-13130D01*
Y-13199D01*
X23128Y-13269D01*
X23131Y-13299D01*
Y-13327D01*
X23133Y-13352D01*
X23136Y-13371D01*
Y-13374D01*
X23139Y-13385D01*
X23142Y-13402D01*
X23150Y-13424D01*
X23156Y-13449D01*
X23167Y-13477D01*
X23181Y-13507D01*
X23194Y-13538D01*
X22947D01*
X22945Y-13535D01*
X22942Y-13524D01*
X22936Y-13510D01*
X22928Y-13488D01*
X22920Y-13463D01*
X22914Y-13432D01*
X22909Y-13399D01*
X22903Y-13363D01*
X22900D01*
X22897Y-13369D01*
X22881Y-13382D01*
X22856Y-13402D01*
X22822Y-13427D01*
X22781Y-13452D01*
X22739Y-13480D01*
X22695Y-13505D01*
X22648Y-13524D01*
X22642Y-13527D01*
X22625Y-13530D01*
X22600Y-13538D01*
X22570Y-13546D01*
X22531Y-13555D01*
X22487Y-13560D01*
X22437Y-13566D01*
X22387Y-13568D01*
X22364D01*
X22348Y-13566D01*
X22328D01*
X22306Y-13563D01*
X22256Y-13555D01*
X22201Y-13541D01*
X22140Y-13521D01*
X22084Y-13493D01*
X22034Y-13457D01*
X22028Y-13452D01*
X22015Y-13438D01*
X21995Y-13413D01*
X21973Y-13380D01*
X21951Y-13338D01*
X21931Y-13291D01*
X21917Y-13233D01*
X21915Y-13205D01*
X21912Y-13171D01*
Y-13166D01*
Y-13155D01*
X21915Y-13135D01*
X21917Y-13110D01*
X21923Y-13080D01*
X21931Y-13049D01*
X21942Y-13016D01*
X21956Y-12985D01*
X21959Y-12983D01*
X21965Y-12972D01*
X21976Y-12955D01*
X21990Y-12935D01*
X22006Y-12913D01*
X22028Y-12891D01*
X22051Y-12869D01*
X22078Y-12849D01*
X22081Y-12847D01*
X22092Y-12841D01*
X22106Y-12830D01*
X22128Y-12819D01*
X22153Y-12808D01*
X22184Y-12794D01*
X22214Y-12783D01*
X22251Y-12772D01*
X22253D01*
X22264Y-12769D01*
X22281Y-12763D01*
X22303Y-12761D01*
X22331Y-12755D01*
X22367Y-12749D01*
X22409Y-12741D01*
X22459Y-12736D01*
X22462D01*
X22473Y-12733D01*
X22487D01*
X22506Y-12730D01*
X22528Y-12727D01*
X22556Y-12722D01*
X22586Y-12719D01*
X22620Y-12713D01*
X22686Y-12700D01*
X22759Y-12686D01*
X22822Y-12669D01*
X22853Y-12661D01*
X22881Y-12652D01*
Y-12650D01*
Y-12644D01*
X22884Y-12627D01*
Y-12608D01*
Y-12597D01*
Y-12591D01*
Y-12588D01*
Y-12586D01*
Y-12569D01*
X22881Y-12541D01*
X22875Y-12511D01*
X22867Y-12477D01*
X22853Y-12444D01*
X22836Y-12414D01*
X22814Y-12389D01*
X22811Y-12386D01*
X22797Y-12375D01*
X22775Y-12364D01*
X22748Y-12347D01*
X22709Y-12333D01*
X22664Y-12319D01*
X22609Y-12311D01*
X22545Y-12308D01*
X22517D01*
X22489Y-12311D01*
X22450Y-12316D01*
X22412Y-12322D01*
X22370Y-12333D01*
X22331Y-12347D01*
X22298Y-12366D01*
X22295Y-12369D01*
X22284Y-12377D01*
X22270Y-12391D01*
X22253Y-12414D01*
X22237Y-12441D01*
X22217Y-12477D01*
X22201Y-12522D01*
X22184Y-12572D01*
X21954Y-12541D01*
Y-12538D01*
X21956Y-12536D01*
Y-12527D01*
X21959Y-12516D01*
X21967Y-12491D01*
X21979Y-12455D01*
X21992Y-12419D01*
X22009Y-12380D01*
X22031Y-12341D01*
X22056Y-12305D01*
X22059Y-12302D01*
X22070Y-12291D01*
X22087Y-12275D01*
X22109Y-12253D01*
X22140Y-12230D01*
X22176Y-12208D01*
X22217Y-12183D01*
X22264Y-12164D01*
X22267D01*
X22270Y-12161D01*
X22278Y-12158D01*
X22289Y-12155D01*
X22317Y-12147D01*
X22356Y-12139D01*
X22400Y-12130D01*
X22456Y-12122D01*
X22514Y-12116D01*
X22581Y-12114D01*
X22611D01*
X22642Y-12116D01*
D02*
G37*
G36*
X20774Y-13310D02*
X21720D01*
Y-13538D01*
X20518D01*
Y-11617D01*
X20774D01*
Y-13310D01*
D02*
G37*
G36*
X16532Y-11844D02*
X15899D01*
Y-13538D01*
X15643D01*
Y-11844D01*
X15010D01*
Y-11617D01*
X16532D01*
Y-11844D01*
D02*
G37*
G36*
X25446Y-12116D02*
X25468Y-12119D01*
X25496Y-12125D01*
X25527Y-12130D01*
X25563Y-12139D01*
X25596Y-12147D01*
X25635Y-12161D01*
X25671Y-12175D01*
X25710Y-12194D01*
X25749Y-12216D01*
X25787Y-12241D01*
X25824Y-12272D01*
X25857Y-12305D01*
X25860Y-12308D01*
X25865Y-12314D01*
X25874Y-12325D01*
X25885Y-12341D01*
X25899Y-12361D01*
X25912Y-12383D01*
X25929Y-12411D01*
X25946Y-12444D01*
X25962Y-12480D01*
X25979Y-12519D01*
X25993Y-12563D01*
X26007Y-12611D01*
X26018Y-12663D01*
X26026Y-12719D01*
X26032Y-12777D01*
X26035Y-12841D01*
Y-12844D01*
Y-12855D01*
Y-12874D01*
X26032Y-12902D01*
X24991D01*
Y-12905D01*
Y-12913D01*
X24993Y-12924D01*
Y-12941D01*
X24996Y-12960D01*
X25002Y-12983D01*
X25010Y-13033D01*
X25027Y-13088D01*
X25049Y-13149D01*
X25080Y-13205D01*
X25118Y-13255D01*
X25121D01*
X25124Y-13260D01*
X25141Y-13274D01*
X25166Y-13294D01*
X25199Y-13313D01*
X25243Y-13335D01*
X25293Y-13355D01*
X25349Y-13369D01*
X25379Y-13371D01*
X25413Y-13374D01*
X25435D01*
X25460Y-13371D01*
X25490Y-13366D01*
X25524Y-13357D01*
X25563Y-13346D01*
X25599Y-13330D01*
X25635Y-13307D01*
X25638Y-13305D01*
X25651Y-13294D01*
X25668Y-13277D01*
X25688Y-13255D01*
X25710Y-13224D01*
X25735Y-13185D01*
X25760Y-13141D01*
X25782Y-13088D01*
X26026Y-13119D01*
Y-13121D01*
X26023Y-13127D01*
X26021Y-13138D01*
X26015Y-13155D01*
X26007Y-13171D01*
X25998Y-13194D01*
X25976Y-13241D01*
X25948Y-13294D01*
X25910Y-13349D01*
X25865Y-13402D01*
X25810Y-13452D01*
X25807D01*
X25801Y-13457D01*
X25793Y-13463D01*
X25782Y-13471D01*
X25765Y-13480D01*
X25749Y-13488D01*
X25726Y-13499D01*
X25701Y-13510D01*
X25674Y-13521D01*
X25646Y-13532D01*
X25576Y-13549D01*
X25499Y-13563D01*
X25413Y-13568D01*
X25382D01*
X25363Y-13566D01*
X25338Y-13563D01*
X25307Y-13557D01*
X25274Y-13552D01*
X25238Y-13546D01*
X25160Y-13524D01*
X25118Y-13507D01*
X25080Y-13491D01*
X25038Y-13469D01*
X24999Y-13444D01*
X24963Y-13416D01*
X24927Y-13382D01*
X24924Y-13380D01*
X24919Y-13374D01*
X24910Y-13363D01*
X24899Y-13346D01*
X24885Y-13327D01*
X24871Y-13305D01*
X24855Y-13277D01*
X24838Y-13246D01*
X24821Y-13210D01*
X24805Y-13171D01*
X24791Y-13127D01*
X24777Y-13080D01*
X24766Y-13030D01*
X24757Y-12974D01*
X24752Y-12916D01*
X24749Y-12855D01*
Y-12852D01*
Y-12838D01*
Y-12822D01*
X24752Y-12797D01*
X24755Y-12766D01*
X24757Y-12733D01*
X24763Y-12694D01*
X24771Y-12655D01*
X24794Y-12566D01*
X24807Y-12522D01*
X24824Y-12475D01*
X24846Y-12430D01*
X24871Y-12389D01*
X24899Y-12347D01*
X24930Y-12308D01*
X24932Y-12305D01*
X24938Y-12300D01*
X24949Y-12291D01*
X24963Y-12278D01*
X24980Y-12264D01*
X25002Y-12247D01*
X25027Y-12228D01*
X25057Y-12211D01*
X25088Y-12191D01*
X25124Y-12175D01*
X25163Y-12158D01*
X25204Y-12144D01*
X25249Y-12130D01*
X25296Y-12122D01*
X25346Y-12116D01*
X25399Y-12114D01*
X25427D01*
X25446Y-12116D01*
D02*
G37*
G36*
X17376D02*
X17401Y-12119D01*
X17428Y-12125D01*
X17459Y-12130D01*
X17495Y-12136D01*
X17570Y-12161D01*
X17609Y-12175D01*
X17648Y-12194D01*
X17686Y-12214D01*
X17725Y-12241D01*
X17761Y-12269D01*
X17798Y-12302D01*
X17800Y-12305D01*
X17806Y-12311D01*
X17814Y-12322D01*
X17825Y-12336D01*
X17839Y-12355D01*
X17856Y-12380D01*
X17872Y-12408D01*
X17889Y-12439D01*
X17906Y-12472D01*
X17922Y-12513D01*
X17939Y-12555D01*
X17953Y-12602D01*
X17964Y-12652D01*
X17972Y-12705D01*
X17978Y-12761D01*
X17981Y-12822D01*
Y-12824D01*
Y-12833D01*
Y-12847D01*
Y-12866D01*
X17978Y-12888D01*
X17975Y-12916D01*
Y-12944D01*
X17970Y-12974D01*
X17961Y-13044D01*
X17945Y-13113D01*
X17925Y-13183D01*
X17897Y-13246D01*
Y-13249D01*
X17895Y-13252D01*
X17889Y-13260D01*
X17884Y-13271D01*
X17864Y-13299D01*
X17839Y-13332D01*
X17806Y-13371D01*
X17764Y-13410D01*
X17717Y-13449D01*
X17661Y-13485D01*
X17659D01*
X17656Y-13488D01*
X17648Y-13493D01*
X17634Y-13499D01*
X17620Y-13505D01*
X17603Y-13510D01*
X17562Y-13527D01*
X17514Y-13541D01*
X17456Y-13555D01*
X17395Y-13566D01*
X17328Y-13568D01*
X17301D01*
X17278Y-13566D01*
X17253Y-13563D01*
X17226Y-13557D01*
X17192Y-13552D01*
X17159Y-13546D01*
X17084Y-13524D01*
X17042Y-13507D01*
X17004Y-13491D01*
X16965Y-13469D01*
X16926Y-13444D01*
X16890Y-13416D01*
X16854Y-13382D01*
X16851Y-13380D01*
X16845Y-13374D01*
X16837Y-13363D01*
X16826Y-13346D01*
X16812Y-13327D01*
X16798Y-13305D01*
X16781Y-13277D01*
X16765Y-13244D01*
X16748Y-13208D01*
X16731Y-13166D01*
X16718Y-13121D01*
X16704Y-13074D01*
X16693Y-13022D01*
X16684Y-12966D01*
X16679Y-12905D01*
X16676Y-12841D01*
Y-12836D01*
Y-12824D01*
X16679Y-12805D01*
Y-12777D01*
X16681Y-12747D01*
X16687Y-12708D01*
X16693Y-12669D01*
X16704Y-12625D01*
X16715Y-12580D01*
X16729Y-12533D01*
X16745Y-12483D01*
X16768Y-12436D01*
X16790Y-12391D01*
X16820Y-12347D01*
X16851Y-12305D01*
X16890Y-12269D01*
X16892Y-12266D01*
X16898Y-12264D01*
X16909Y-12255D01*
X16923Y-12244D01*
X16940Y-12233D01*
X16962Y-12219D01*
X16984Y-12205D01*
X17012Y-12191D01*
X17042Y-12178D01*
X17076Y-12164D01*
X17151Y-12139D01*
X17237Y-12119D01*
X17281Y-12116D01*
X17328Y-12114D01*
X17356D01*
X17376Y-12116D01*
D02*
G37*
%LPC*%
G36*
X51584Y34359D02*
X51177D01*
Y33977D01*
X51584D01*
Y34359D01*
D02*
G37*
G36*
X50923D02*
X50516D01*
Y33977D01*
X50923D01*
Y34359D01*
D02*
G37*
G36*
X54084Y34309D02*
X53677D01*
Y33927D01*
X54084D01*
Y34309D01*
D02*
G37*
G36*
X53423D02*
X53016D01*
Y33927D01*
X53423D01*
Y34309D01*
D02*
G37*
G36*
X24597Y34361D02*
X24025D01*
Y33914D01*
X24597D01*
Y34361D01*
D02*
G37*
G36*
X23771D02*
X23199D01*
Y33914D01*
X23771D01*
Y34361D01*
D02*
G37*
G36*
X56458Y34326D02*
X56076D01*
Y33849D01*
X56458D01*
Y34326D01*
D02*
G37*
G36*
X24597Y33660D02*
X24025D01*
Y33213D01*
X24597D01*
Y33660D01*
D02*
G37*
G36*
X23771D02*
X23199D01*
Y33213D01*
X23771D01*
Y33660D01*
D02*
G37*
G36*
X56458Y33595D02*
X56076D01*
Y33118D01*
X56458D01*
Y33595D01*
D02*
G37*
G36*
X57673Y33554D02*
X57291D01*
Y33077D01*
X57673D01*
Y33554D01*
D02*
G37*
G36*
X40309Y33420D02*
X39902D01*
Y33038D01*
X40309D01*
Y33420D01*
D02*
G37*
G36*
X41606Y33042D02*
Y32715D01*
X41983D01*
Y33042D01*
X41606D01*
D02*
G37*
G36*
X58309Y33554D02*
X57927D01*
Y32950D01*
Y32346D01*
X58309D01*
Y32450D01*
X59105D01*
Y32668D01*
X59402D01*
X59438Y32632D01*
X59575Y32575D01*
X59725D01*
X59862Y32632D01*
X59968Y32738D01*
X60025Y32875D01*
Y33025D01*
X59968Y33162D01*
X59862Y33268D01*
X59725Y33325D01*
X59575D01*
X59438Y33268D01*
X59402Y33232D01*
X59105D01*
Y33450D01*
X58309D01*
Y33554D01*
D02*
G37*
G36*
X57673Y32823D02*
X57291D01*
Y32346D01*
X57673D01*
Y32823D01*
D02*
G37*
G36*
X40970Y33420D02*
X40563D01*
Y32911D01*
X40436D01*
Y32784D01*
X39902D01*
Y32402D01*
X39811Y32315D01*
X39068D01*
X39001Y32432D01*
X38880Y32553D01*
X38732Y32638D01*
X38566Y32683D01*
X38395D01*
X38230Y32638D01*
X38082Y32553D01*
X37961Y32432D01*
X37875Y32283D01*
X37831Y32118D01*
Y31947D01*
X37875Y31782D01*
X37961Y31633D01*
X38082Y31512D01*
X38230Y31427D01*
X38395Y31383D01*
X38566D01*
X38732Y31427D01*
X38880Y31512D01*
X39001Y31633D01*
X39068Y31750D01*
X40006D01*
Y31606D01*
X40031D01*
X40107Y31479D01*
X40075Y31403D01*
Y31254D01*
X40132Y31116D01*
X40238Y31011D01*
X40376Y30953D01*
X40525D01*
X40663Y31011D01*
X40768Y31116D01*
X40825Y31254D01*
Y31403D01*
X40794Y31479D01*
X40866Y31606D01*
X40866D01*
Y32045D01*
X40984Y32111D01*
X41016Y32098D01*
X41079Y32043D01*
Y31638D01*
X41079Y31638D01*
X41139Y31511D01*
X41107Y31435D01*
Y31286D01*
X41164Y31148D01*
X41270Y31042D01*
X41408Y30985D01*
X41557D01*
X41695Y31042D01*
X41800Y31148D01*
X41857Y31286D01*
Y31435D01*
X41826Y31511D01*
X41879Y31638D01*
X41879D01*
Y32134D01*
X41983D01*
Y32461D01*
X41479D01*
Y32588D01*
X41352D01*
Y33042D01*
X40975Y33042D01*
X40970Y33167D01*
Y33420D01*
D02*
G37*
G36*
X55822Y34326D02*
X55440D01*
Y34222D01*
X54644D01*
Y33328D01*
X54565Y33275D01*
X54416D01*
X54278Y33218D01*
X54172Y33112D01*
X54115Y32975D01*
Y32825D01*
X54172Y32688D01*
X54278Y32582D01*
X54416Y32525D01*
X54565D01*
X54703Y32582D01*
X54706Y32585D01*
X54833Y32533D01*
Y32026D01*
X53641D01*
X53593Y32143D01*
X53667Y32217D01*
X53728Y32309D01*
X53749Y32417D01*
Y32495D01*
X53980D01*
Y33291D01*
X54084D01*
Y33673D01*
X53550D01*
X53016D01*
Y33526D01*
X53015Y33523D01*
X52982Y33404D01*
X52677D01*
Y32900D01*
X52423D01*
Y33404D01*
X52096D01*
Y33300D01*
X51694D01*
X51595Y33337D01*
X51584Y33420D01*
Y33723D01*
X50516D01*
Y33380D01*
X50410Y33289D01*
X50325Y33325D01*
X50175D01*
X50038Y33268D01*
X49932Y33162D01*
X49875Y33025D01*
Y32875D01*
X49932Y32738D01*
X50038Y32632D01*
X50175Y32575D01*
X50325D01*
X50462Y32632D01*
X50493Y32663D01*
X50620Y32656D01*
Y32545D01*
X51480D01*
Y32545D01*
X51600Y32528D01*
Y32500D01*
X51668D01*
Y32400D01*
X51689Y32292D01*
X51750Y32200D01*
X51798Y32152D01*
X51800Y32026D01*
X51800D01*
Y30251D01*
X52196D01*
Y30147D01*
X52473D01*
Y31138D01*
X52727D01*
Y30147D01*
X52743D01*
Y26463D01*
X52743Y26463D01*
X52770Y26327D01*
X52848Y26211D01*
X60952Y18106D01*
X60900Y17979D01*
X60245D01*
X52479Y25745D01*
Y27750D01*
X52462Y27838D01*
X52412Y27912D01*
X51829Y28495D01*
Y29149D01*
X51918Y29238D01*
X51975Y29375D01*
Y29525D01*
X51918Y29662D01*
X51812Y29768D01*
X51675Y29825D01*
X51525D01*
X51388Y29768D01*
X51360Y29740D01*
X51249Y29700D01*
X51249Y29700D01*
X49474D01*
Y29100D01*
Y28100D01*
Y27183D01*
X48957D01*
Y27416D01*
X48453D01*
Y27543D01*
X48326D01*
Y27997D01*
X47949D01*
Y27678D01*
X47822Y27653D01*
X47818Y27662D01*
X47712Y27768D01*
X47575Y27825D01*
X47425D01*
X47288Y27768D01*
X47182Y27662D01*
X47135Y27550D01*
X47091Y27510D01*
X46998Y27470D01*
X46950Y27479D01*
X45150D01*
X45062Y27462D01*
X44988Y27412D01*
X44526Y26951D01*
X44409Y26999D01*
Y27271D01*
X44027D01*
Y26794D01*
X44199D01*
X44258Y26667D01*
X44238Y26638D01*
X44221Y26550D01*
Y24250D01*
X44238Y24162D01*
X44288Y24088D01*
X46638Y21738D01*
X46712Y21688D01*
X46800Y21671D01*
X47949D01*
X48038Y21582D01*
X48175Y21525D01*
X48325D01*
X48462Y21582D01*
X48568Y21688D01*
X48625Y21825D01*
Y21975D01*
X48568Y22112D01*
X48462Y22218D01*
X48325Y22275D01*
X48175D01*
X48038Y22218D01*
X47949Y22129D01*
X46895D01*
X44679Y24345D01*
Y26455D01*
X45245Y27021D01*
X46855D01*
X47108Y26768D01*
X47059Y26651D01*
X46146D01*
X46130Y26705D01*
X45270D01*
Y26312D01*
X45268Y26300D01*
X45270Y26288D01*
Y25909D01*
X45166D01*
Y25527D01*
X45700D01*
Y25273D01*
X45166D01*
Y24891D01*
X45428D01*
X45530Y24831D01*
Y24424D01*
X46039D01*
Y24297D01*
X46166D01*
Y23763D01*
X46548D01*
Y23867D01*
X46941D01*
Y23677D01*
X47450D01*
Y23550D01*
X47577D01*
Y23016D01*
X47959D01*
Y23120D01*
X48755D01*
Y23219D01*
X48882Y23264D01*
X48975Y23225D01*
X49125D01*
X49262Y23282D01*
X49347Y23367D01*
X49444Y23345D01*
X49474Y23328D01*
Y22100D01*
Y20804D01*
X49370D01*
Y20527D01*
X51353D01*
Y20804D01*
X51249D01*
Y21658D01*
X51861D01*
X51938Y21582D01*
X52075Y21525D01*
X52225D01*
X52362Y21582D01*
X52468Y21688D01*
X52525Y21825D01*
Y21975D01*
X52615Y22089D01*
X52679Y22097D01*
X54271Y20505D01*
Y19801D01*
X54182Y19712D01*
X54125Y19575D01*
Y19425D01*
X54182Y19288D01*
X54288Y19182D01*
X54425Y19125D01*
X54575D01*
X54712Y19182D01*
X54818Y19288D01*
X54875Y19425D01*
Y19575D01*
X54818Y19712D01*
X54729Y19801D01*
Y20600D01*
X54712Y20688D01*
X54662Y20762D01*
X52862Y22562D01*
X52788Y22612D01*
X52700Y22630D01*
X51529D01*
X51497Y22683D01*
X51481Y22757D01*
X51712Y22988D01*
X51762Y23062D01*
X51779Y23150D01*
Y25067D01*
X51906Y25119D01*
X59738Y17288D01*
X59812Y17238D01*
X59900Y17221D01*
X61511D01*
X61544Y17169D01*
X61574Y17094D01*
X61525Y16975D01*
Y16825D01*
X61582Y16688D01*
X61593Y16677D01*
X61540Y16550D01*
X54756D01*
Y16589D01*
X54739Y16677D01*
X54689Y16751D01*
X54601Y16839D01*
X54596Y16842D01*
X54484Y16955D01*
X54409Y17005D01*
X54390Y17008D01*
X54368Y17062D01*
X54262Y17168D01*
X54125Y17225D01*
X53975D01*
X53838Y17168D01*
X53732Y17062D01*
X53675Y16925D01*
Y16870D01*
X53548Y16818D01*
X53254Y17112D01*
X53179Y17162D01*
X53091Y17179D01*
X52889D01*
X52856Y17231D01*
X52826Y17306D01*
X52875Y17425D01*
Y17575D01*
X52818Y17712D01*
X52712Y17818D01*
X52575Y17875D01*
X52449D01*
X52262Y18062D01*
X52188Y18112D01*
X52100Y18129D01*
X51249D01*
Y18775D01*
X51307Y18813D01*
X51765Y19271D01*
X52199D01*
X52288Y19182D01*
X52425Y19125D01*
X52575D01*
X52712Y19182D01*
X52818Y19288D01*
X52875Y19425D01*
Y19575D01*
X52818Y19712D01*
X52712Y19818D01*
X52575Y19875D01*
X52425D01*
X52288Y19818D01*
X52199Y19729D01*
X51670D01*
X51582Y19712D01*
X51507Y19662D01*
X51367Y19522D01*
X51249Y19570D01*
Y19996D01*
X51353D01*
Y20273D01*
X49370D01*
Y20183D01*
X49054D01*
Y20473D01*
X48550D01*
Y20600D01*
X48423D01*
Y21054D01*
X48145D01*
Y21359D01*
X47738D01*
Y20850D01*
X47611D01*
Y20723D01*
X47077D01*
Y20441D01*
X47029Y20335D01*
X46956Y20325D01*
X46875D01*
X46738Y20268D01*
X46632Y20162D01*
X46575Y20025D01*
Y19875D01*
X46632Y19738D01*
X46738Y19632D01*
X46875Y19575D01*
X47025D01*
X47054Y19587D01*
X47181Y19545D01*
Y19545D01*
X47181Y19545D01*
X48041D01*
Y19607D01*
X48150Y19650D01*
X48150Y19650D01*
Y19650D01*
X48150Y19650D01*
X48576D01*
X48592Y19639D01*
X48700Y19618D01*
X49474D01*
Y19100D01*
Y18100D01*
Y17179D01*
X48345D01*
X47893Y17632D01*
X47916Y17788D01*
X47985Y17828D01*
X48106Y17949D01*
X48192Y18098D01*
X48236Y18263D01*
Y18434D01*
X48192Y18599D01*
X48106Y18748D01*
X47985Y18869D01*
X47837Y18954D01*
X47672Y18999D01*
X47500D01*
X47335Y18954D01*
X47187Y18869D01*
X47066Y18748D01*
X47026Y18678D01*
X46869Y18655D01*
X41977Y23547D01*
X41903Y23597D01*
X41815Y23614D01*
X41610D01*
X41576Y23698D01*
X41572Y23741D01*
X41668Y23838D01*
X41725Y23975D01*
Y24125D01*
X41668Y24262D01*
X41562Y24368D01*
X41425Y24425D01*
X41275D01*
X41138Y24368D01*
X41032Y24262D01*
X40981Y24140D01*
X39602D01*
X39593Y24146D01*
X39495Y24166D01*
X39476Y24194D01*
X39444Y24294D01*
X39533Y24383D01*
X39625Y24411D01*
X39636Y24417D01*
X39649Y24420D01*
X39681Y24441D01*
X39714Y24459D01*
X39722Y24469D01*
X39733Y24476D01*
X39754Y24507D01*
X39778Y24537D01*
X39782Y24549D01*
X39789Y24560D01*
X39797Y24597D01*
X39806Y24628D01*
X39818Y24640D01*
X39838Y24689D01*
X40121Y24971D01*
X40182Y25063D01*
X40203Y25171D01*
Y25253D01*
X40338D01*
Y25149D01*
X40720D01*
Y25683D01*
Y26217D01*
X40338D01*
Y26113D01*
X39918D01*
X39809Y26217D01*
Y26565D01*
X39789Y26664D01*
X39784Y26677D01*
Y26756D01*
X39788Y26770D01*
X39794Y26885D01*
X39843D01*
Y27395D01*
X40097D01*
Y26885D01*
X40504D01*
Y27153D01*
X40708D01*
Y27538D01*
X40750D01*
Y27667D01*
X40960D01*
X41140Y27487D01*
Y27407D01*
X40962D01*
Y27153D01*
X41174D01*
Y27153D01*
X41286Y27200D01*
X41350Y27136D01*
X41414Y27200D01*
X41461Y27168D01*
X41560Y27149D01*
X41950D01*
X42049Y27168D01*
X42133Y27224D01*
X42145Y27243D01*
X42595D01*
Y26898D01*
X42595D01*
X42645Y26823D01*
X42625Y26775D01*
Y26625D01*
X42682Y26488D01*
X42788Y26382D01*
X42925Y26325D01*
X43075D01*
X43212Y26382D01*
X43318Y26488D01*
X43375Y26625D01*
Y26674D01*
X43389Y26777D01*
X43492Y26794D01*
X43773D01*
Y27398D01*
Y28002D01*
X43391D01*
Y27898D01*
X42595D01*
Y27807D01*
X42241D01*
X42173Y27934D01*
X42189Y27958D01*
X42209Y28058D01*
Y28296D01*
X42323D01*
Y28800D01*
Y29304D01*
X41996D01*
Y29200D01*
X41804D01*
X41777Y29205D01*
X41650D01*
Y29250D01*
X41592Y29387D01*
X41487Y29493D01*
X41349Y29550D01*
X41200D01*
X41062Y29493D01*
X40957Y29387D01*
X40900Y29250D01*
Y29100D01*
X40957Y28963D01*
X41062Y28857D01*
X41200Y28800D01*
X41250D01*
X41295Y28755D01*
X41302Y28667D01*
X41299Y28647D01*
X41284Y28605D01*
X41208Y28563D01*
X41140Y28576D01*
X40750D01*
X40651Y28557D01*
X40567Y28501D01*
X40546Y28470D01*
X40400D01*
Y28699D01*
X39642D01*
X39619Y28733D01*
X39535Y28789D01*
X39436Y28809D01*
X39008D01*
X38955Y28936D01*
X39020Y29001D01*
X39106Y29149D01*
X39150Y29314D01*
Y29486D01*
X39106Y29651D01*
X39020Y29799D01*
X38899Y29920D01*
X38751Y30006D01*
X38586Y30050D01*
X38414D01*
X38249Y30006D01*
X38101Y29920D01*
X37980Y29799D01*
X37894Y29651D01*
X37850Y29486D01*
Y29314D01*
X37894Y29149D01*
X37980Y29001D01*
X38045Y28936D01*
X37992Y28809D01*
X36000D01*
X35901Y28789D01*
X35817Y28733D01*
X35761Y28649D01*
X35741Y28550D01*
Y27728D01*
X35716D01*
Y27219D01*
X35462D01*
Y27728D01*
X35055D01*
Y27727D01*
X34694D01*
Y27218D01*
X34440D01*
Y27727D01*
X34085D01*
Y27728D01*
X33678D01*
Y27219D01*
X33551D01*
Y27092D01*
X33017D01*
Y26710D01*
X33121D01*
Y25914D01*
X33336D01*
Y25832D01*
X33357Y25724D01*
X33418Y25632D01*
X34059Y24992D01*
X34145Y24934D01*
X34151Y24929D01*
X34154Y24920D01*
X34059Y24797D01*
X34047D01*
Y24385D01*
X33920D01*
Y24258D01*
X33291D01*
X33223Y24152D01*
X33032D01*
X32988Y24260D01*
X32988D01*
Y24642D01*
X32454D01*
X31920D01*
Y24260D01*
X32024D01*
Y23465D01*
X32884D01*
Y23587D01*
X33328D01*
X33404Y23460D01*
X33389Y23385D01*
X33412Y23268D01*
X33439Y23228D01*
X33468Y23135D01*
X33439Y23042D01*
X33412Y23002D01*
X33389Y22885D01*
X33412Y22768D01*
X33478Y22669D01*
Y22601D01*
X33412Y22502D01*
X33389Y22385D01*
X33412Y22268D01*
X33439Y22228D01*
X33468Y22135D01*
X33439Y22042D01*
X33412Y22002D01*
X33389Y21885D01*
X33412Y21768D01*
X33478Y21669D01*
Y21601D01*
X33412Y21502D01*
X33389Y21385D01*
X33412Y21268D01*
X33478Y21169D01*
Y21101D01*
X33412Y21002D01*
X33389Y20885D01*
X33412Y20768D01*
X33478Y20669D01*
X33578Y20602D01*
X33695Y20579D01*
X34145D01*
X34175Y20585D01*
X34241Y20531D01*
X34295Y20465D01*
X34289Y20435D01*
Y19985D01*
X34312Y19868D01*
X34378Y19769D01*
X34478Y19702D01*
X34595Y19679D01*
X34712Y19702D01*
X34771Y19742D01*
X34803Y19694D01*
X34937Y19604D01*
X34968Y19598D01*
Y20210D01*
X35222D01*
Y19571D01*
X35318Y19507D01*
Y19317D01*
X35033Y19032D01*
X33241D01*
X33133Y19011D01*
X33042Y18950D01*
X32756Y18664D01*
X32573Y18846D01*
X32027Y18299D01*
X32001Y18273D01*
X31911Y18183D01*
X31364Y17637D01*
X31469Y17532D01*
X31318Y17381D01*
X31178Y17521D01*
X30632Y16974D01*
X30605Y16948D01*
X30516Y16858D01*
X29969Y16312D01*
X30123Y16158D01*
X29373Y15408D01*
X29312Y15317D01*
X29291Y15209D01*
Y13425D01*
X29200D01*
Y13383D01*
X29000D01*
X28892Y13361D01*
X28800Y13300D01*
X28726Y13226D01*
X28609Y13274D01*
Y14200D01*
X28589Y14299D01*
X28533Y14383D01*
X28449Y14439D01*
X28350Y14459D01*
X26607D01*
Y14855D01*
X26649Y14880D01*
X26770Y15001D01*
X26856Y15149D01*
X26900Y15314D01*
Y15486D01*
X26856Y15651D01*
X26770Y15799D01*
X26649Y15920D01*
X26501Y16006D01*
X26336Y16050D01*
X26164D01*
X25999Y16006D01*
X25851Y15920D01*
X25730Y15799D01*
X25644Y15651D01*
X25600Y15486D01*
Y15314D01*
X25644Y15149D01*
X25730Y15001D01*
X25851Y14880D01*
X25893Y14855D01*
Y14459D01*
X25750D01*
X25651Y14439D01*
X25567Y14383D01*
X25511Y14299D01*
X25491Y14200D01*
Y14054D01*
X25472Y13935D01*
X25090D01*
Y13401D01*
X24963D01*
Y13274D01*
X24454D01*
Y12867D01*
X24362Y12783D01*
X23595D01*
Y12579D01*
X23259D01*
X23224Y12586D01*
X22819D01*
X22727Y12678D01*
X22595Y12767D01*
X22439Y12798D01*
X22108D01*
Y13177D01*
X22148Y13287D01*
X23948D01*
Y17987D01*
X23179D01*
Y18592D01*
X23455D01*
Y19291D01*
X23582D01*
Y19418D01*
X24156D01*
Y19619D01*
X24216Y19721D01*
X25012D01*
Y19617D01*
X25394D01*
Y20221D01*
Y20825D01*
X25012D01*
Y20721D01*
X24806D01*
Y20854D01*
X24869Y20955D01*
X24959D01*
Y20955D01*
X25769D01*
Y21220D01*
X26008D01*
Y21144D01*
X26868D01*
Y21281D01*
X27264D01*
X27372Y21303D01*
X27463Y21364D01*
X29091Y22992D01*
X29153Y23084D01*
X29174Y23192D01*
Y23706D01*
X29811D01*
Y27706D01*
X28311D01*
Y23706D01*
X28609D01*
Y23309D01*
X27168Y21868D01*
X27030Y21872D01*
X26972Y21940D01*
Y22322D01*
X26438D01*
Y22449D01*
X26311D01*
Y22958D01*
X25904Y22958D01*
X25843Y23060D01*
Y23269D01*
X25334D01*
Y23523D01*
X25843D01*
Y23706D01*
X27011D01*
Y27552D01*
X27581D01*
X27669Y27569D01*
X27744Y27619D01*
X28095Y27971D01*
X31900D01*
X31988Y27988D01*
X32062Y28038D01*
X34145Y30121D01*
X36500D01*
X36588Y30138D01*
X36662Y30188D01*
X37062Y30588D01*
X37112Y30662D01*
X37129Y30750D01*
Y31749D01*
X37218Y31838D01*
X37275Y31975D01*
Y32125D01*
X37218Y32262D01*
X37112Y32368D01*
X36975Y32425D01*
X36825D01*
X36688Y32368D01*
X36582Y32262D01*
X36525Y32125D01*
Y31975D01*
X36582Y31838D01*
X36671Y31749D01*
Y30845D01*
X36405Y30579D01*
X34050D01*
X33962Y30562D01*
X33888Y30512D01*
X31805Y28429D01*
X28229D01*
Y30118D01*
X28262Y30132D01*
X28368Y30238D01*
X28425Y30375D01*
Y30525D01*
X28368Y30662D01*
X28262Y30768D01*
X28125Y30825D01*
X27975D01*
X27838Y30768D01*
X27732Y30662D01*
X27675Y30525D01*
Y30375D01*
X27732Y30238D01*
X27771Y30199D01*
Y28295D01*
X27486Y28011D01*
X25595D01*
X25553Y28074D01*
X25539Y28134D01*
X25652Y28247D01*
X27202D01*
Y29547D01*
X25502D01*
Y29097D01*
X25430Y29024D01*
X25368Y28933D01*
X25347Y28824D01*
Y28741D01*
X24404Y27798D01*
X24281Y27855D01*
Y29197D01*
X25002D01*
Y30353D01*
X25398D01*
X25502Y30245D01*
Y30147D01*
X27202D01*
Y31447D01*
X26829D01*
X26746Y31574D01*
X26773Y31638D01*
Y31787D01*
X26715Y31925D01*
X26629Y32011D01*
Y33110D01*
X26612Y33198D01*
X26562Y33272D01*
X26301Y33533D01*
X26227Y33583D01*
X26139Y33600D01*
X25795D01*
Y33776D01*
X24795D01*
Y32966D01*
X24702Y32884D01*
X24105D01*
X24056Y32917D01*
X23898Y32949D01*
X23740Y32917D01*
X23650Y32857D01*
X23449D01*
X23438Y32911D01*
X23382Y32995D01*
X23298Y33051D01*
X23199Y33071D01*
X22641D01*
X22537Y33180D01*
Y33826D01*
X20737D01*
Y29546D01*
X19487D01*
Y33826D01*
X17687D01*
Y29126D01*
X18342D01*
Y27803D01*
X18373Y27647D01*
X18396Y27612D01*
X18312Y27509D01*
X18275Y27525D01*
X18149D01*
X18091Y27584D01*
X18016Y27633D01*
X17929Y27651D01*
X16874D01*
X16651Y27873D01*
X16704Y28000D01*
X17355D01*
Y29000D01*
X17355D01*
X17305Y29127D01*
X17325Y29175D01*
Y29325D01*
X17268Y29462D01*
X17162Y29568D01*
X17025Y29625D01*
X16875D01*
X16738Y29568D01*
X16632Y29462D01*
X16575Y29325D01*
Y29175D01*
X16595Y29127D01*
X16545Y29000D01*
X16455D01*
X16418Y29000D01*
X15645D01*
Y28766D01*
X15448D01*
Y28862D01*
X15002D01*
Y28966D01*
X14700D01*
Y28537D01*
Y27984D01*
X14702Y27981D01*
X14662Y27929D01*
X6950D01*
Y28100D01*
X5650D01*
Y28082D01*
X5000D01*
Y28100D01*
X3700D01*
Y28082D01*
X3250D01*
X3250Y28082D01*
X3103Y28053D01*
X2979Y27970D01*
X2979Y27970D01*
X2351Y27342D01*
X2269Y27218D01*
X2240Y27072D01*
X2240Y27072D01*
Y26734D01*
X2039Y26618D01*
X1862Y26442D01*
X1737Y26225D01*
X1672Y25983D01*
Y25733D01*
X1737Y25492D01*
X1862Y25275D01*
X2039Y25098D01*
X2123Y25049D01*
Y23450D01*
X2008D01*
Y21309D01*
X1906D01*
Y20800D01*
X1779D01*
Y20673D01*
X1175D01*
Y20291D01*
X1279D01*
Y19495D01*
X1177Y19434D01*
X1027D01*
Y18900D01*
X900D01*
Y18773D01*
X391D01*
Y18366D01*
X484D01*
X595Y18329D01*
Y17329D01*
X770D01*
Y17006D01*
X1224D01*
Y16879D01*
X1351D01*
Y16375D01*
X1678D01*
Y16479D01*
X2174D01*
Y17279D01*
X2281Y17329D01*
X2305D01*
Y17920D01*
X2337Y17941D01*
X2516Y18120D01*
X3017D01*
Y18050D01*
X4140D01*
X4167Y18050D01*
Y18050D01*
X4267D01*
Y18050D01*
X5567D01*
Y18091D01*
X5626D01*
X5714Y18108D01*
X5788Y18158D01*
X5950Y18320D01*
X10357D01*
X11147Y17530D01*
X11075Y17423D01*
X11046Y17435D01*
X10717Y17500D01*
X10383D01*
X10054Y17435D01*
X9745Y17307D01*
X9466Y17120D01*
X9230Y16884D01*
X9043Y16605D01*
X8915Y16296D01*
X8850Y15967D01*
Y15633D01*
X8915Y15304D01*
X9043Y14995D01*
X9230Y14716D01*
X9466Y14480D01*
X9745Y14293D01*
X10054Y14165D01*
X10383Y14100D01*
X10717D01*
X11046Y14165D01*
X11355Y14293D01*
X11458Y14362D01*
X11568Y14283D01*
X11553Y14227D01*
X12173D01*
Y14847D01*
X12097Y14826D01*
X12018Y14936D01*
X12057Y14995D01*
X12185Y15304D01*
X12250Y15633D01*
Y15967D01*
X12185Y16296D01*
X12173Y16325D01*
X12280Y16397D01*
X12471Y16206D01*
Y15400D01*
X12488Y15312D01*
X12538Y15238D01*
X13771Y14005D01*
Y13914D01*
X13788Y13826D01*
X13838Y13751D01*
X14331Y13259D01*
X14275Y13125D01*
Y12975D01*
X14332Y12838D01*
X14438Y12732D01*
X14575Y12675D01*
X14725D01*
X14862Y12732D01*
X14968Y12838D01*
X15025Y12975D01*
Y13125D01*
X14968Y13262D01*
X14884Y13346D01*
X14956Y13454D01*
X15025Y13425D01*
X15175D01*
X15312Y13482D01*
X15418Y13588D01*
X15475Y13725D01*
Y13875D01*
X15418Y14012D01*
X15312Y14118D01*
X15302Y14122D01*
X15287Y14199D01*
X15237Y14274D01*
X14799Y14712D01*
X14724Y14762D01*
X14636Y14779D01*
X14519D01*
X13529Y15769D01*
Y16550D01*
X13512Y16638D01*
X13462Y16712D01*
X10862Y19312D01*
X10788Y19362D01*
X10700Y19379D01*
X5920D01*
X5758Y19541D01*
X5683Y19591D01*
X5595Y19609D01*
X5567D01*
Y19946D01*
X5671D01*
Y20175D01*
X5950Y20180D01*
Y21146D01*
X6012D01*
Y23481D01*
X6970D01*
X7153Y23517D01*
X7307Y23620D01*
X7679Y23992D01*
X7783Y24147D01*
X7819Y24329D01*
Y24356D01*
X7850Y24510D01*
Y24908D01*
X8652D01*
Y26808D01*
X6752D01*
Y24908D01*
X6896D01*
Y24633D01*
X6877Y24539D01*
X6773Y24434D01*
X4324D01*
X4141Y24398D01*
X4092Y24365D01*
X3852D01*
Y24380D01*
X3077D01*
Y25024D01*
X3205Y25098D01*
X3382Y25275D01*
X3507Y25492D01*
X3572Y25733D01*
Y25983D01*
X3507Y26225D01*
X3382Y26442D01*
X3205Y26618D01*
X3004Y26734D01*
Y26913D01*
X3408Y27317D01*
X3700D01*
Y27300D01*
X4943D01*
Y26783D01*
X4795Y26743D01*
X4579Y26618D01*
X4402Y26442D01*
X4277Y26225D01*
X4212Y25983D01*
Y25733D01*
X4277Y25492D01*
X4402Y25275D01*
X4579Y25098D01*
X4795Y24973D01*
X5037Y24908D01*
X5287D01*
X5529Y24973D01*
X5745Y25098D01*
X5922Y25275D01*
X6047Y25492D01*
X6112Y25733D01*
Y25983D01*
X6047Y26225D01*
X5922Y26442D01*
X5745Y26618D01*
X5707Y26640D01*
Y27300D01*
X6950D01*
Y27470D01*
X14800D01*
X14888Y27488D01*
X14962Y27538D01*
X15285Y27861D01*
X15335Y27935D01*
X15352Y28023D01*
Y28212D01*
X15448D01*
Y28308D01*
X15645D01*
Y28000D01*
X15971D01*
X15988Y27912D01*
X16038Y27838D01*
X16528Y27348D01*
X16475Y27221D01*
X16300D01*
Y26687D01*
X16173D01*
Y26560D01*
X15664D01*
Y26153D01*
X15732D01*
Y25684D01*
X15730Y25558D01*
X15353D01*
Y25104D01*
X15099D01*
Y25558D01*
X14735D01*
Y26934D01*
X13235D01*
Y26754D01*
X12039D01*
X11935Y26863D01*
Y26934D01*
X10435D01*
Y23147D01*
X10329Y23089D01*
X10327Y23089D01*
X10278Y23079D01*
X10228Y23069D01*
X10228Y23069D01*
X10228Y23069D01*
X10186Y23042D01*
X10144Y23013D01*
X10144Y23013D01*
X10144Y23013D01*
X10116Y22971D01*
X10088Y22930D01*
X10087Y22929D01*
X10087Y22929D01*
X10077Y22880D01*
X10068Y22831D01*
X10064Y21786D01*
X10064Y21786D01*
X10064Y21786D01*
X10074Y21737D01*
X10084Y21687D01*
X10084Y21687D01*
X10084Y21687D01*
X10112Y21645D01*
X10140Y21603D01*
X10140Y21603D01*
X10140Y21603D01*
X10288Y21454D01*
X10288Y21454D01*
X10289Y21454D01*
X10330Y21426D01*
X10372Y21398D01*
X10372Y21398D01*
X10373Y21398D01*
X10422Y21388D01*
X10471Y21378D01*
X10472Y21378D01*
X10472Y21378D01*
X10718D01*
X10817Y21398D01*
X10834Y21409D01*
X10996D01*
Y21943D01*
X11250D01*
Y21409D01*
X11632D01*
Y21513D01*
X11768D01*
Y21087D01*
X11651Y21020D01*
X11530Y20899D01*
X11444Y20751D01*
X11400Y20586D01*
Y20414D01*
X11444Y20249D01*
X11530Y20101D01*
X11651Y19980D01*
X11799Y19894D01*
X11964Y19850D01*
X12136D01*
X12301Y19894D01*
X12449Y19980D01*
X12570Y20101D01*
X12656Y20249D01*
X12700Y20414D01*
Y20586D01*
X12656Y20751D01*
X12570Y20899D01*
X12449Y21020D01*
X12332Y21087D01*
Y21312D01*
X12370Y21344D01*
X12459Y21392D01*
X12532Y21378D01*
X12880D01*
X12984Y21269D01*
Y20651D01*
X13984D01*
Y20773D01*
X14891D01*
X15000Y20795D01*
X15091Y20856D01*
X15541Y21306D01*
X15599Y21392D01*
X15633Y21395D01*
X15730Y21390D01*
X15769Y21316D01*
Y20760D01*
X16151D01*
Y21364D01*
X16405D01*
Y20760D01*
X16787D01*
Y20864D01*
X17520D01*
Y20592D01*
X17491Y20563D01*
X17455Y20556D01*
X17363Y20495D01*
X17093Y20224D01*
X16842D01*
Y20182D01*
X16683D01*
Y20229D01*
X15823D01*
Y20107D01*
X15739D01*
X15631Y20085D01*
X15540Y20024D01*
X15455Y19939D01*
X14746D01*
Y20043D01*
X14364D01*
Y19439D01*
X14237D01*
Y19312D01*
X13728D01*
Y18835D01*
X13623Y18783D01*
X13622D01*
Y17973D01*
X13622Y17973D01*
Y17883D01*
X13622D01*
X13622Y17846D01*
Y17073D01*
X13729D01*
X13841Y17038D01*
Y16579D01*
X13833Y16539D01*
X13841Y16499D01*
Y16038D01*
X13851D01*
X13971Y16037D01*
X13992Y15930D01*
X14053Y15839D01*
X17628Y12263D01*
X17576Y12136D01*
X17308D01*
Y11659D01*
X17690D01*
Y12049D01*
X17717Y12076D01*
X17817Y12134D01*
X17888Y12120D01*
X18261D01*
X18330Y12001D01*
X18451Y11880D01*
X18599Y11794D01*
X18764Y11750D01*
X18936D01*
X19101Y11794D01*
X19249Y11880D01*
X19370Y12001D01*
X19439Y12120D01*
X19879D01*
X19884Y12112D01*
X20017Y12023D01*
X20173Y11992D01*
X20209D01*
Y11400D01*
X20209D01*
X20227Y11275D01*
Y11126D01*
X20266Y11033D01*
Y10808D01*
X20227Y10715D01*
Y10566D01*
X20285Y10428D01*
X20390Y10323D01*
X20528Y10266D01*
X20677D01*
X20815Y10323D01*
X20920Y10428D01*
X20977Y10566D01*
Y10650D01*
X20980Y10661D01*
Y10859D01*
X20991Y10981D01*
X21398D01*
Y11490D01*
X21525D01*
Y11617D01*
X22059D01*
Y11982D01*
X22265D01*
Y10603D01*
X22287Y10495D01*
X22348Y10403D01*
X22549Y10203D01*
X22640Y10141D01*
X22674Y10135D01*
Y9979D01*
X23595D01*
Y9775D01*
X24597D01*
Y11279D01*
X24851D01*
Y9775D01*
X25853D01*
Y9875D01*
X26097D01*
Y10329D01*
X26351D01*
Y9875D01*
X26878D01*
Y9948D01*
X27196D01*
Y10402D01*
X27450D01*
Y9948D01*
X27827D01*
X27850Y9830D01*
Y9695D01*
X27850D01*
Y9605D01*
X27850D01*
Y8795D01*
X28200D01*
Y7800D01*
X29400D01*
X29442Y7754D01*
X29483Y7644D01*
D01*
X29530Y7536D01*
X29525Y7525D01*
X29525Y7406D01*
X29400Y7400D01*
X29398Y7400D01*
X29288Y7400D01*
X29288D01*
X29286Y7400D01*
X28200D01*
Y7082D01*
X28100D01*
X27992Y7061D01*
X27900Y7000D01*
X27350Y6450D01*
X27289Y6358D01*
X27267Y6250D01*
Y6230D01*
X27145D01*
Y5370D01*
X27052Y5287D01*
X26920Y5211D01*
X26720Y5010D01*
X26578Y4765D01*
X26505Y4492D01*
Y4209D01*
X26578Y3935D01*
X26720Y3690D01*
X26920Y3490D01*
X27165Y3349D01*
X27439Y3275D01*
X27722D01*
X27995Y3349D01*
X28240Y3490D01*
X28440Y3690D01*
X28582Y3935D01*
X28655Y4209D01*
Y4492D01*
X28582Y4765D01*
X28440Y5010D01*
X28311Y5139D01*
X28323Y5167D01*
Y5800D01*
X28577D01*
Y5266D01*
X28918D01*
X28959Y5266D01*
X29045Y5175D01*
Y3275D01*
X31195D01*
Y5370D01*
X31255D01*
Y6230D01*
X31255D01*
X31256Y6357D01*
X31294Y6395D01*
X31477D01*
X31505Y6400D01*
X32400D01*
Y7400D01*
X31200D01*
Y6959D01*
X31177D01*
X31069Y6938D01*
X30977Y6877D01*
X30758Y6658D01*
X30697Y6566D01*
X30676Y6458D01*
Y6230D01*
X30459D01*
Y6334D01*
X30183D01*
X30142Y6461D01*
X30218Y6538D01*
X30275Y6675D01*
Y6825D01*
X30218Y6962D01*
X30182Y6998D01*
Y7202D01*
X30218Y7238D01*
X30275Y7375D01*
Y7415D01*
X30279Y7525D01*
X30392Y7540D01*
X30661D01*
Y8074D01*
X30915D01*
Y7540D01*
X31297D01*
Y7800D01*
X32400D01*
Y8800D01*
X31883D01*
Y9177D01*
X31861Y9285D01*
X31800Y9377D01*
X31760Y9417D01*
Y9575D01*
X31800D01*
Y10546D01*
X31854D01*
Y11373D01*
X30500D01*
Y11627D01*
X31854D01*
Y12454D01*
X31800D01*
Y12718D01*
X31981D01*
X31988Y12710D01*
X32126Y12653D01*
X32275D01*
X32413Y12710D01*
X32518Y12816D01*
X32575Y12954D01*
Y13103D01*
X32518Y13241D01*
X32413Y13346D01*
X32275Y13403D01*
X32126D01*
X31988Y13346D01*
X31927Y13285D01*
X31800Y13290D01*
Y13425D01*
X31150D01*
X31107Y13534D01*
Y13571D01*
X31145Y13608D01*
X31206Y13700D01*
X31220Y13773D01*
X31668D01*
Y13757D01*
X32464D01*
Y13653D01*
X32846D01*
Y14187D01*
Y14721D01*
X32464D01*
Y14617D01*
X31718D01*
Y14773D01*
X31613Y14807D01*
Y14807D01*
D01*
X31578Y14900D01*
X31621Y14942D01*
X32091Y15413D01*
X32118Y15439D01*
X32207Y15529D01*
X32754Y16076D01*
X32614Y16215D01*
X32745Y16346D01*
X32849Y16242D01*
X33396Y16788D01*
X33422Y16814D01*
X33512Y16904D01*
X34059Y17451D01*
X34014Y17496D01*
X34485Y17968D01*
X35250D01*
X35358Y17989D01*
X35450Y18050D01*
X36185Y18786D01*
X36312Y18733D01*
Y17985D01*
X36334Y17877D01*
X36395Y17786D01*
X36807Y17374D01*
X36702Y17270D01*
X37249Y16723D01*
X37275Y16697D01*
X37365Y16607D01*
X37912Y16061D01*
X38051Y16200D01*
X38145Y16105D01*
X37992Y15951D01*
X38538Y15404D01*
X38564Y15378D01*
X38654Y15288D01*
X39201Y14742D01*
X39330Y14871D01*
X40343Y13858D01*
Y13398D01*
X40301D01*
Y12865D01*
X40235D01*
X40126Y12844D01*
X40035Y12782D01*
X39775Y12522D01*
X39713Y12430D01*
X39692Y12322D01*
Y11591D01*
X39150Y11050D01*
X39089Y10958D01*
X39067Y10850D01*
Y10555D01*
X38750D01*
Y9745D01*
X38750D01*
Y9655D01*
X38750D01*
Y8845D01*
X39750D01*
Y8967D01*
X39983D01*
X40018Y8925D01*
Y8695D01*
X39379D01*
Y7695D01*
X40577D01*
Y7481D01*
X40577D01*
X40611Y7409D01*
X40534Y7295D01*
X39379D01*
Y6295D01*
X39450D01*
Y5461D01*
X39596D01*
Y5333D01*
X39470Y5260D01*
X39270Y5060D01*
X39128Y4815D01*
X39055Y4542D01*
Y4258D01*
X39128Y3985D01*
X39270Y3740D01*
X39470Y3540D01*
X39715Y3398D01*
X39988Y3325D01*
X40272D01*
X40545Y3398D01*
X40790Y3540D01*
X40990Y3740D01*
X41132Y3985D01*
X41205Y4258D01*
Y4542D01*
X41132Y4815D01*
X40990Y5060D01*
X40820Y5230D01*
X40863Y5357D01*
X41264D01*
Y5764D01*
X40755D01*
Y6018D01*
X41264D01*
Y6384D01*
X41318Y6438D01*
X41375Y6575D01*
Y6725D01*
X41318Y6862D01*
X41282Y6898D01*
Y7002D01*
X41318Y7038D01*
X41375Y7175D01*
Y7251D01*
X41375Y7325D01*
X41491Y7377D01*
X41755D01*
Y7911D01*
X42009D01*
Y7377D01*
X42264D01*
X42340Y7377D01*
X42342Y7251D01*
X42342Y7250D01*
X42342Y7145D01*
Y6424D01*
X41731D01*
Y6016D01*
X42240D01*
Y5762D01*
X41731D01*
Y5475D01*
X41595D01*
Y3325D01*
X43745D01*
Y5475D01*
X43545D01*
Y6319D01*
X43542D01*
Y7251D01*
X42469D01*
X42393Y7251D01*
X42391Y7377D01*
X42391Y7378D01*
X42391Y7561D01*
X42480Y7651D01*
X43542D01*
Y8651D01*
X43075D01*
Y8858D01*
X43053Y8966D01*
X42992Y9057D01*
X42832Y9217D01*
Y9548D01*
X42901D01*
Y10519D01*
X42955D01*
Y11346D01*
X41601D01*
Y11600D01*
X42955D01*
Y12427D01*
X42901D01*
Y13398D01*
X42845D01*
Y13653D01*
X42875Y13725D01*
Y13875D01*
X42818Y14012D01*
X42712Y14118D01*
X42575Y14175D01*
X42425D01*
X42310Y14127D01*
X42182Y14179D01*
Y14589D01*
X42305Y14600D01*
D01*
X42401Y14670D01*
X43191D01*
Y14566D01*
X43573D01*
Y15100D01*
Y15634D01*
X43191D01*
Y15530D01*
X42395D01*
X42305Y15600D01*
Y15600D01*
X41495D01*
Y15600D01*
X41405D01*
Y15600D01*
X40899D01*
X40529Y15970D01*
X40708Y16149D01*
X40161Y16696D01*
X40135Y16722D01*
X40045Y16811D01*
X39499Y17358D01*
X39320Y17179D01*
X39204Y17295D01*
X39309Y17399D01*
X38762Y17946D01*
X38736Y17972D01*
X38646Y18062D01*
X38142Y18566D01*
X38195Y18693D01*
X38570D01*
Y18589D01*
X38952D01*
Y19123D01*
Y19657D01*
X38570D01*
Y19553D01*
X38004D01*
X38000Y19568D01*
X38093Y19677D01*
X38103Y19681D01*
X38212Y19702D01*
X38311Y19769D01*
X38377Y19868D01*
X38401Y19985D01*
Y20435D01*
X38395Y20465D01*
X38449Y20531D01*
X38515Y20585D01*
X38545Y20579D01*
X38995D01*
X39112Y20602D01*
X39211Y20669D01*
X39277Y20768D01*
X39301Y20885D01*
X39293Y20924D01*
X39404Y21015D01*
X39417Y21010D01*
X39566D01*
X39681Y21058D01*
X39764Y21023D01*
X39808Y20992D01*
Y20955D01*
X40604D01*
Y20851D01*
X40986D01*
Y21385D01*
X41240D01*
Y20851D01*
X41622D01*
Y21386D01*
X41739Y21434D01*
X45471Y17703D01*
Y16724D01*
X45384Y16700D01*
X45236Y16615D01*
X45115Y16494D01*
X45029Y16346D01*
X44985Y16180D01*
Y16009D01*
X45029Y15844D01*
X45115Y15696D01*
X45236Y15575D01*
X45384Y15489D01*
X45549Y15445D01*
X45721D01*
X45886Y15489D01*
X46034Y15575D01*
X46155Y15696D01*
X46241Y15844D01*
X46285Y16009D01*
Y16180D01*
X46241Y16346D01*
X46155Y16494D01*
X46034Y16615D01*
X45929Y16675D01*
Y17502D01*
X46047Y17551D01*
X47037Y16561D01*
X47003Y16526D01*
X46917Y16378D01*
X46873Y16213D01*
Y16041D01*
X46917Y15876D01*
X47003Y15728D01*
X47124Y15607D01*
X47272Y15521D01*
X47437Y15477D01*
X47609D01*
X47697Y15501D01*
X47762Y15387D01*
X47338Y14962D01*
X47288Y14888D01*
X47271Y14800D01*
Y14724D01*
X47249Y14718D01*
X47101Y14633D01*
X46980Y14512D01*
X46894Y14364D01*
X46850Y14198D01*
Y14027D01*
X46894Y13862D01*
X46980Y13714D01*
X47101Y13593D01*
X47249Y13507D01*
X47414Y13463D01*
X47586D01*
X47751Y13507D01*
X47899Y13593D01*
X48020Y13714D01*
X48106Y13862D01*
X48150Y14027D01*
Y14198D01*
X48106Y14364D01*
X48020Y14512D01*
X47899Y14633D01*
X47860Y14656D01*
X47839Y14814D01*
X48712Y15688D01*
X48762Y15762D01*
X48779Y15850D01*
Y16395D01*
X51696D01*
Y15789D01*
X52100D01*
Y15662D01*
X52227D01*
Y14671D01*
X52317D01*
Y14516D01*
X52065D01*
Y14012D01*
X51938D01*
Y13884D01*
X51485D01*
Y13606D01*
X51103D01*
Y13199D01*
X51611D01*
Y13072D01*
X51738D01*
Y12538D01*
X52120D01*
Y12642D01*
X52917D01*
Y12809D01*
X52930Y12811D01*
X53022Y12873D01*
X53174Y13025D01*
X53225D01*
X53362Y13082D01*
X53468Y13188D01*
X53525Y13325D01*
Y13475D01*
X53468Y13612D01*
X53445Y13635D01*
X53418Y13788D01*
X53475Y13925D01*
Y14075D01*
X53418Y14212D01*
X53312Y14318D01*
X53175Y14375D01*
X53025D01*
X52988Y14359D01*
X52882Y14453D01*
Y14775D01*
X53700D01*
X53785Y14648D01*
X53775Y14625D01*
Y14475D01*
X53832Y14338D01*
X53938Y14232D01*
X54075Y14175D01*
X54225D01*
X54362Y14232D01*
X54468Y14338D01*
X54525Y14475D01*
Y14625D01*
X54515Y14648D01*
X54600Y14775D01*
X61426D01*
X61475Y14657D01*
X61141Y14324D01*
X61080Y14232D01*
X61059Y14124D01*
Y12800D01*
X61000D01*
Y10500D01*
X62100D01*
Y12694D01*
X62100Y12738D01*
X62105Y12771D01*
X62116Y12811D01*
X62192Y12864D01*
X62234Y12869D01*
X62249Y12869D01*
X62539D01*
Y13378D01*
X62793D01*
Y12869D01*
X62902D01*
X63000Y12800D01*
Y10500D01*
X64100D01*
Y10593D01*
X65300D01*
X65300Y10593D01*
X65437Y10620D01*
X65552Y10698D01*
X66202Y11348D01*
X66202Y11348D01*
X66280Y11463D01*
X66307Y11600D01*
Y15987D01*
X66280Y16124D01*
X66202Y16239D01*
X66087Y16317D01*
X66003Y16333D01*
X65354Y16983D01*
X65402Y17100D01*
X66725D01*
Y17118D01*
X66976D01*
Y17024D01*
X67776D01*
Y17091D01*
X67957D01*
Y16919D01*
X67957Y16919D01*
X68030Y16792D01*
X68001Y16724D01*
Y16574D01*
X68058Y16437D01*
X68164Y16331D01*
X68302Y16274D01*
X68451D01*
X68589Y16331D01*
X68694Y16437D01*
X68751Y16574D01*
Y16724D01*
X68723Y16792D01*
X68803Y16919D01*
X68817D01*
Y17715D01*
X68921D01*
Y18097D01*
X68387D01*
Y18224D01*
X68260D01*
Y18733D01*
X67853D01*
Y18428D01*
X67503D01*
Y17974D01*
X67376D01*
Y17847D01*
X66872D01*
Y17683D01*
X66725D01*
Y18600D01*
Y19600D01*
Y20600D01*
Y21600D01*
Y22600D01*
Y23600D01*
Y24600D01*
Y25434D01*
X66843Y25483D01*
X67553Y24773D01*
X67627Y24723D01*
X67715Y24706D01*
X69598D01*
Y24535D01*
X70898D01*
X70898Y24535D01*
Y24535D01*
X71025Y24545D01*
X71038Y24532D01*
X71175Y24475D01*
X71325D01*
X71462Y24532D01*
X71568Y24638D01*
X71596Y24706D01*
X71985D01*
X72073Y24723D01*
X72147Y24773D01*
X73416Y26042D01*
X73466Y26116D01*
X73484Y26204D01*
Y27067D01*
X73634Y27108D01*
X73782Y27193D01*
X73903Y27314D01*
X73989Y27462D01*
X74033Y27628D01*
Y27799D01*
X73989Y27964D01*
X73903Y28112D01*
X73782Y28233D01*
X73634Y28319D01*
X73469Y28363D01*
X73297D01*
X73132Y28319D01*
X72984Y28233D01*
X72863Y28112D01*
X72777Y27964D01*
X72733Y27799D01*
Y27628D01*
X72777Y27462D01*
X72863Y27314D01*
X72984Y27193D01*
X73025Y27170D01*
Y26299D01*
X71890Y25164D01*
X71466D01*
X71462Y25168D01*
X71325Y25225D01*
X71175D01*
X71038Y25168D01*
X71034Y25164D01*
X71010D01*
X70910Y25229D01*
Y25430D01*
X71037Y25483D01*
X71088Y25432D01*
X71225Y25375D01*
X71375D01*
X71512Y25432D01*
X71618Y25538D01*
X71675Y25675D01*
Y25801D01*
X71762Y25888D01*
X71812Y25962D01*
X71829Y26050D01*
Y27154D01*
X71896Y27193D01*
X72017Y27314D01*
X72103Y27462D01*
X72147Y27628D01*
Y27799D01*
X72103Y27964D01*
X72017Y28112D01*
X71896Y28233D01*
X71748Y28319D01*
X71583Y28363D01*
X71412D01*
X71246Y28319D01*
X71098Y28233D01*
X70977Y28112D01*
X70892Y27964D01*
X70855Y27827D01*
X70785Y27764D01*
X70658Y27798D01*
Y28239D01*
X70176D01*
X70125Y28273D01*
X70102Y28278D01*
X70012Y28368D01*
X69984Y28380D01*
X69954Y28530D01*
X70099Y28675D01*
X70225D01*
X70362Y28732D01*
X70468Y28838D01*
X70525Y28975D01*
Y29101D01*
X70766Y29342D01*
X70816Y29345D01*
X70905Y29330D01*
X70980Y29201D01*
X71101Y29080D01*
X71249Y28994D01*
X71414Y28950D01*
X71586D01*
X71751Y28994D01*
X71899Y29080D01*
X72020Y29201D01*
X72106Y29349D01*
X72150Y29514D01*
Y29686D01*
X72106Y29851D01*
X72020Y29999D01*
X71899Y30120D01*
X71751Y30206D01*
X71586Y30250D01*
X71414D01*
X71249Y30206D01*
X71101Y30120D01*
X70980Y29999D01*
X70894Y29851D01*
X70889Y29829D01*
X70700D01*
X70612Y29812D01*
X70538Y29762D01*
X70201Y29425D01*
X70075D01*
X69938Y29368D01*
X69832Y29262D01*
X69775Y29125D01*
Y28999D01*
X69405Y28629D01*
X69192D01*
Y28689D01*
X68834D01*
Y28923D01*
X68300D01*
Y29177D01*
X68834D01*
Y29559D01*
X68730D01*
Y30355D01*
X68711D01*
X68693Y30370D01*
X68636Y30482D01*
X68675Y30575D01*
Y30725D01*
X68618Y30862D01*
X68512Y30968D01*
X68375Y31025D01*
X68225D01*
X68088Y30968D01*
X67982Y30862D01*
X67925Y30725D01*
Y30575D01*
X67964Y30482D01*
X67907Y30370D01*
X67889Y30355D01*
X67870D01*
Y30232D01*
X67700D01*
X67592Y30211D01*
X67500Y30150D01*
X67350Y30000D01*
X67000D01*
Y29842D01*
X66977Y29838D01*
X66885Y29777D01*
X66840Y29731D01*
X66725Y29700D01*
X66725Y29700D01*
Y29700D01*
X66725Y29700D01*
X64950D01*
X64875Y29796D01*
X64868Y29812D01*
X64762Y29918D01*
X64625Y29975D01*
X64475D01*
X64456Y29967D01*
X64329Y30052D01*
Y30251D01*
X64400D01*
Y32026D01*
X62829D01*
Y32399D01*
X62918Y32488D01*
X62975Y32625D01*
Y32775D01*
X62918Y32912D01*
X62812Y33018D01*
X62675Y33075D01*
X62525D01*
X62388Y33018D01*
X62282Y32912D01*
X62225Y32775D01*
Y32625D01*
X62282Y32488D01*
X62370Y32399D01*
Y32026D01*
X55398D01*
Y33008D01*
X55440Y33118D01*
X55822D01*
Y33722D01*
Y34326D01*
D02*
G37*
G36*
X71648Y32267D02*
Y31647D01*
X72268D01*
X72224Y31811D01*
X72125Y31983D01*
X71984Y32124D01*
X71812Y32223D01*
X71648Y32267D01*
D02*
G37*
G36*
X71394D02*
X71230Y32223D01*
X71058Y32124D01*
X70918Y31983D01*
X70819Y31811D01*
X70775Y31647D01*
X71394D01*
Y32267D01*
D02*
G37*
G36*
X31277Y31997D02*
Y31377D01*
X31897D01*
X31853Y31541D01*
X31753Y31713D01*
X31613Y31853D01*
X31441Y31953D01*
X31277Y31997D01*
D02*
G37*
G36*
X31023D02*
X30859Y31953D01*
X30687Y31853D01*
X30547Y31713D01*
X30447Y31541D01*
X30403Y31377D01*
X31023D01*
Y31997D01*
D02*
G37*
G36*
X42698Y31754D02*
X42396D01*
Y30977D01*
X42698D01*
Y31754D01*
D02*
G37*
G36*
X72268Y31393D02*
X71648D01*
Y30774D01*
X71812Y30818D01*
X71984Y30917D01*
X72125Y31057D01*
X72224Y31229D01*
X72268Y31393D01*
D02*
G37*
G36*
X71394D02*
X70775D01*
X70819Y31229D01*
X70918Y31057D01*
X71058Y30917D01*
X71230Y30818D01*
X71394Y30774D01*
Y31393D01*
D02*
G37*
G36*
X31897Y31123D02*
X31277D01*
Y30503D01*
X31441Y30547D01*
X31613Y30647D01*
X31753Y30787D01*
X31853Y30959D01*
X31897Y31123D01*
D02*
G37*
G36*
X31023D02*
X30403D01*
X30447Y30959D01*
X30547Y30787D01*
X30687Y30647D01*
X30859Y30547D01*
X31023Y30503D01*
Y31123D01*
D02*
G37*
G36*
X10650Y32367D02*
X10400Y32334D01*
X10167Y32237D01*
X9966Y32084D01*
X9813Y31883D01*
X9716Y31650D01*
X9683Y31400D01*
X9716Y31150D01*
X9813Y30917D01*
X9966Y30716D01*
X10167Y30563D01*
X10400Y30466D01*
X10650Y30433D01*
X10900Y30466D01*
X11133Y30563D01*
X11334Y30716D01*
X11487Y30917D01*
X11584Y31150D01*
X11617Y31400D01*
X11584Y31650D01*
X11487Y31883D01*
X11334Y32084D01*
X11133Y32237D01*
X10900Y32334D01*
X10650Y32367D01*
D02*
G37*
G36*
X42698Y30723D02*
X42396D01*
Y29946D01*
X42698D01*
Y30723D01*
D02*
G37*
G36*
X45850Y32400D02*
X43250D01*
Y31876D01*
X43250Y31754D01*
X43129Y31754D01*
X42952D01*
Y30850D01*
Y29946D01*
X43250D01*
Y29300D01*
X45850D01*
Y29946D01*
X45954D01*
Y30050D01*
X46600D01*
Y31650D01*
X45977D01*
X45850Y31650D01*
Y31750D01*
X45850Y31777D01*
Y32400D01*
D02*
G37*
G36*
X73467Y30258D02*
X73296D01*
X73130Y30214D01*
X72982Y30128D01*
X72861Y30007D01*
X72776Y29859D01*
X72731Y29694D01*
Y29522D01*
X72776Y29357D01*
X72787Y29338D01*
X72552Y29103D01*
X72551Y29103D01*
X72402D01*
X72264Y29046D01*
X72159Y28940D01*
X72102Y28803D01*
Y28653D01*
X72159Y28516D01*
X72264Y28410D01*
X72402Y28353D01*
X72551D01*
X72689Y28410D01*
X72795Y28516D01*
X72852Y28653D01*
Y28754D01*
X73111Y29013D01*
X73130Y29002D01*
X73296Y28958D01*
X73467D01*
X73632Y29002D01*
X73780Y29088D01*
X73901Y29209D01*
X73987Y29357D01*
X74031Y29522D01*
Y29694D01*
X73987Y29859D01*
X73901Y30007D01*
X73780Y30128D01*
X73632Y30214D01*
X73467Y30258D01*
D02*
G37*
G36*
X42904Y29304D02*
X42577D01*
Y28927D01*
X42904D01*
Y29304D01*
D02*
G37*
G36*
X8320Y31200D02*
X8004D01*
X7699Y31118D01*
X7425Y30960D01*
X7202Y30737D01*
X7044Y30463D01*
X6962Y30158D01*
Y29842D01*
X7044Y29537D01*
X7202Y29263D01*
X7425Y29040D01*
X7699Y28882D01*
X8004Y28800D01*
X8320D01*
X8625Y28882D01*
X8899Y29040D01*
X9122Y29263D01*
X9280Y29537D01*
X9362Y29842D01*
Y30158D01*
X9280Y30463D01*
X9122Y30737D01*
X8899Y30960D01*
X8625Y31118D01*
X8320Y31200D01*
D02*
G37*
G36*
X5320D02*
X5004D01*
X4699Y31118D01*
X4425Y30960D01*
X4202Y30737D01*
X4044Y30463D01*
X3962Y30158D01*
Y29842D01*
X4044Y29537D01*
X4202Y29263D01*
X4425Y29040D01*
X4699Y28882D01*
X5004Y28800D01*
X5320D01*
X5625Y28882D01*
X5899Y29040D01*
X6122Y29263D01*
X6280Y29537D01*
X6362Y29842D01*
Y30158D01*
X6280Y30463D01*
X6122Y30737D01*
X5899Y30960D01*
X5625Y31118D01*
X5320Y31200D01*
D02*
G37*
G36*
X2320D02*
X2004D01*
X1699Y31118D01*
X1425Y30960D01*
X1202Y30737D01*
X1044Y30463D01*
X962Y30158D01*
Y29842D01*
X1044Y29537D01*
X1202Y29263D01*
X1425Y29040D01*
X1699Y28882D01*
X2004Y28800D01*
X2320D01*
X2625Y28882D01*
X2899Y29040D01*
X3122Y29263D01*
X3280Y29537D01*
X3362Y29842D01*
Y30158D01*
X3280Y30463D01*
X3122Y30737D01*
X2899Y30960D01*
X2625Y31118D01*
X2320Y31200D01*
D02*
G37*
G36*
X83603Y29786D02*
X83304Y29487D01*
X83992Y28799D01*
X84291Y29098D01*
X83603Y29786D01*
D02*
G37*
G36*
X78047Y29084D02*
X77665D01*
Y28677D01*
X78047D01*
Y29084D01*
D02*
G37*
G36*
X14446Y28966D02*
X14144D01*
Y28664D01*
X14446D01*
Y28966D01*
D02*
G37*
G36*
X42904Y28673D02*
X42577D01*
Y28296D01*
X42904D01*
Y28673D01*
D02*
G37*
G36*
X14446Y28410D02*
X14144D01*
Y28108D01*
X14446D01*
Y28410D01*
D02*
G37*
G36*
X78047Y28423D02*
X77665D01*
Y28016D01*
X78047D01*
Y28423D01*
D02*
G37*
G36*
X84470Y28919D02*
X84171Y28620D01*
X84859Y27932D01*
X85158Y28231D01*
X84470Y28919D01*
D02*
G37*
G36*
X48957Y27997D02*
X48580D01*
Y27670D01*
X48957D01*
Y27997D01*
D02*
G37*
G36*
X76784Y28020D02*
X76377D01*
Y27638D01*
X76784D01*
Y28020D01*
D02*
G37*
G36*
X76123D02*
X75716D01*
Y27638D01*
X76123D01*
Y28020D01*
D02*
G37*
G36*
X44409Y28002D02*
X44027D01*
Y27525D01*
X44409D01*
Y28002D01*
D02*
G37*
G36*
X77498Y27865D02*
X76946D01*
Y27363D01*
X77498D01*
Y27865D01*
D02*
G37*
G36*
X33424Y27728D02*
X33017D01*
Y27346D01*
X33424D01*
Y27728D01*
D02*
G37*
G36*
X16046Y27221D02*
X15664D01*
Y26814D01*
X16046D01*
Y27221D01*
D02*
G37*
G36*
X87839Y26603D02*
X87731Y26495D01*
X87821Y26404D01*
X87929Y26513D01*
X87839Y26603D01*
D02*
G37*
G36*
X81003Y27186D02*
X80704Y26887D01*
X81392Y26199D01*
X81691Y26498D01*
X81003Y27186D01*
D02*
G37*
G36*
X88109Y26333D02*
X88001Y26225D01*
X88091Y26134D01*
X88200Y26242D01*
X88109Y26333D01*
D02*
G37*
G36*
X87551Y26315D02*
X87443Y26207D01*
X87533Y26117D01*
X87642Y26225D01*
X87551Y26315D01*
D02*
G37*
G36*
X87821Y26045D02*
X87713Y25937D01*
X87804Y25847D01*
X87912Y25955D01*
X87821Y26045D01*
D02*
G37*
G36*
X41356Y26217D02*
X40974D01*
Y25810D01*
X41356D01*
Y26217D01*
D02*
G37*
G36*
X81870Y26319D02*
X81571Y26020D01*
X82259Y25332D01*
X82558Y25631D01*
X81870Y26319D01*
D02*
G37*
G36*
X41356Y25556D02*
X40974D01*
Y25149D01*
X41356D01*
Y25556D01*
D02*
G37*
G36*
X32988Y25278D02*
X32581D01*
Y24896D01*
X32988D01*
Y25278D01*
D02*
G37*
G36*
X32327D02*
X31920D01*
Y24896D01*
X32327D01*
Y25278D01*
D02*
G37*
G36*
X86061Y24825D02*
X85953Y24717D01*
X86043Y24626D01*
X86151Y24735D01*
X86061Y24825D01*
D02*
G37*
G36*
X33793Y24797D02*
X33695D01*
X33537Y24766D01*
X33403Y24676D01*
X33314Y24543D01*
X33308Y24512D01*
X33793D01*
Y24797D01*
D02*
G37*
G36*
X76973Y24754D02*
X76596D01*
Y24427D01*
X76973D01*
Y24754D01*
D02*
G37*
G36*
X86331Y24555D02*
X86223Y24447D01*
X86313Y24356D01*
X86422Y24464D01*
X86331Y24555D01*
D02*
G37*
G36*
X85773Y24537D02*
X85665Y24429D01*
X85755Y24339D01*
X85864Y24447D01*
X85773Y24537D01*
D02*
G37*
G36*
X82593Y24553D02*
X82187D01*
Y24171D01*
X82593D01*
Y24553D01*
D02*
G37*
G36*
X86043Y24267D02*
X85935Y24159D01*
X86026Y24069D01*
X86134Y24177D01*
X86043Y24267D01*
D02*
G37*
G36*
X45912Y24170D02*
X45530D01*
Y23763D01*
X45912D01*
Y24170D01*
D02*
G37*
G36*
X47323Y23423D02*
X46941D01*
Y23016D01*
X47323D01*
Y23423D01*
D02*
G37*
G36*
X26565Y22958D02*
Y22576D01*
X26972D01*
Y22958D01*
X26565Y22958D01*
D02*
G37*
G36*
X83540Y22369D02*
X83432Y22260D01*
X83523Y22170D01*
X83631Y22278D01*
X83540Y22369D01*
D02*
G37*
G36*
X83811Y22098D02*
X83702Y21990D01*
X83793Y21900D01*
X83901Y22008D01*
X83811Y22098D01*
D02*
G37*
G36*
X83253Y22081D02*
X83145Y21973D01*
X83235Y21882D01*
X83343Y21990D01*
X83253Y22081D01*
D02*
G37*
G36*
X73987Y22159D02*
X73580D01*
Y21777D01*
X73987D01*
Y22159D01*
D02*
G37*
G36*
X69923Y22023D02*
X69516D01*
Y21641D01*
X69923D01*
Y22023D01*
D02*
G37*
G36*
X83523Y21811D02*
X83415Y21702D01*
X83505Y21612D01*
X83613Y21720D01*
X83523Y21811D01*
D02*
G37*
G36*
X87013Y21521D02*
X86631D01*
Y21044D01*
X87013D01*
Y21521D01*
D02*
G37*
G36*
X47484Y21359D02*
X47077D01*
Y20977D01*
X47484D01*
Y21359D01*
D02*
G37*
G36*
X1652Y21309D02*
X1175D01*
Y20927D01*
X1652D01*
Y21309D01*
D02*
G37*
G36*
X49054Y21054D02*
X48677D01*
Y20727D01*
X49054D01*
Y21054D01*
D02*
G37*
G36*
X26030Y20825D02*
X25648D01*
Y20348D01*
X26030D01*
Y20825D01*
D02*
G37*
G36*
Y20094D02*
X25648D01*
Y19617D01*
X26030D01*
Y20094D01*
D02*
G37*
G36*
X14110Y20043D02*
X13728D01*
Y19566D01*
X14110D01*
Y20043D01*
D02*
G37*
G36*
X39588Y19657D02*
X39206D01*
Y19250D01*
X39588D01*
Y19657D01*
D02*
G37*
G36*
X773Y19434D02*
X391D01*
Y19027D01*
X773D01*
Y19434D01*
D02*
G37*
G36*
X24156Y19164D02*
X23709D01*
Y18592D01*
X24156D01*
Y19164D01*
D02*
G37*
G36*
X39588Y18996D02*
X39206D01*
Y18589D01*
X39588D01*
Y18996D01*
D02*
G37*
G36*
X68921Y18733D02*
X68514D01*
Y18351D01*
X68921D01*
Y18733D01*
D02*
G37*
G36*
X67249Y18428D02*
X66872D01*
Y18101D01*
X67249D01*
Y18428D01*
D02*
G37*
G36*
X3625Y17375D02*
X3475D01*
X3338Y17318D01*
X3232Y17212D01*
X3175Y17075D01*
Y16925D01*
X3232Y16788D01*
X3338Y16682D01*
X3475Y16625D01*
X3596D01*
Y16485D01*
X3469Y16432D01*
X3406Y16495D01*
X3268Y16552D01*
X3119D01*
X2981Y16495D01*
X2893Y16408D01*
X2806Y16495D01*
X2668Y16552D01*
X2519D01*
X2381Y16495D01*
X2275Y16390D01*
X2218Y16252D01*
Y16103D01*
X2275Y15965D01*
X2381Y15859D01*
X2445Y15833D01*
Y15375D01*
X2450Y15350D01*
Y14875D01*
X2450D01*
Y14825D01*
X2450D01*
Y14350D01*
X2445Y14325D01*
Y14032D01*
X2441Y14012D01*
Y13759D01*
X2460Y13662D01*
X2515Y13579D01*
X2826Y13268D01*
X2778Y13151D01*
X2436D01*
Y12340D01*
Y11529D01*
X3559D01*
X3769Y11557D01*
X3964Y11638D01*
X4132Y11767D01*
X4261Y11935D01*
X4342Y12130D01*
X4351Y12196D01*
X4471Y12237D01*
X4595Y12113D01*
Y8977D01*
X4545Y8927D01*
X4489Y8844D01*
X4470Y8747D01*
Y8325D01*
X4489Y8227D01*
X4545Y8145D01*
X4875Y7814D01*
Y7725D01*
X4932Y7588D01*
X5038Y7482D01*
X5175Y7425D01*
X5255D01*
X5317Y7363D01*
X5399Y7307D01*
X5497Y7288D01*
X5612D01*
X5651Y7161D01*
X5629Y7147D01*
X5100Y6618D01*
X5039Y6526D01*
X5018Y6418D01*
Y2926D01*
X5039Y2817D01*
X5100Y2726D01*
X6246Y1581D01*
Y1075D01*
X7042D01*
Y971D01*
X7424D01*
Y1575D01*
Y2179D01*
X7042D01*
Y2075D01*
X6550D01*
X5582Y3043D01*
Y3863D01*
X5640Y3966D01*
X5911D01*
X5967Y3852D01*
X5931Y3805D01*
X5850Y3610D01*
X5840Y3527D01*
X8428D01*
X8417Y3610D01*
X8336Y3805D01*
X8207Y3973D01*
X8039Y4102D01*
X7844Y4183D01*
X7800Y4189D01*
X7809Y4316D01*
X7817D01*
Y4720D01*
X7944D01*
Y4847D01*
X8548D01*
Y5124D01*
X8444D01*
Y5912D01*
X8920D01*
X9038Y5935D01*
X9138Y6002D01*
X9145Y6009D01*
X9500D01*
Y5892D01*
X10700D01*
Y5905D01*
X11189D01*
Y5767D01*
X11438D01*
Y5407D01*
X11330Y5299D01*
X11244Y5151D01*
X11200Y4986D01*
Y4814D01*
X11244Y4649D01*
X11330Y4501D01*
X11451Y4380D01*
X11599Y4294D01*
X11764Y4250D01*
X11936D01*
X12101Y4294D01*
X12249Y4380D01*
X12370Y4501D01*
X12456Y4649D01*
X12500Y4814D01*
Y4986D01*
X12456Y5151D01*
X12370Y5299D01*
X12262Y5407D01*
Y5767D01*
X12439D01*
Y5897D01*
X12745D01*
Y5870D01*
X13541D01*
Y5766D01*
X13923D01*
Y6300D01*
Y6834D01*
X13541D01*
Y6730D01*
X12745D01*
Y6721D01*
X12439D01*
Y6867D01*
X11189D01*
Y6729D01*
X10700D01*
Y6742D01*
X9936D01*
X9680Y6999D01*
Y7408D01*
X9656Y7526D01*
X9589Y7626D01*
X9325Y7890D01*
X9225Y7957D01*
X9162Y8099D01*
X9175Y8132D01*
Y8190D01*
X9203Y8286D01*
X9292Y8303D01*
X10141D01*
Y7500D01*
X10161Y7401D01*
X10217Y7317D01*
X10301Y7261D01*
X10400Y7241D01*
X13400D01*
X13499Y7261D01*
X13583Y7317D01*
X13639Y7401D01*
X13652Y7466D01*
X13902D01*
Y8000D01*
Y8534D01*
X13659D01*
Y9300D01*
X13639Y9399D01*
X13583Y9483D01*
X13499Y9539D01*
X13400Y9559D01*
X11671D01*
Y9762D01*
X11779Y9870D01*
X11865Y10019D01*
X11909Y10184D01*
Y10355D01*
X11865Y10520D01*
X11779Y10669D01*
X11658Y10790D01*
X11510Y10875D01*
X11345Y10919D01*
X11173D01*
X11008Y10875D01*
X10860Y10790D01*
X10739Y10669D01*
X10653Y10520D01*
X10609Y10355D01*
Y10184D01*
X10653Y10019D01*
X10739Y9870D01*
X10847Y9762D01*
Y9559D01*
X10500D01*
X10439Y9547D01*
X10337Y9607D01*
X10312Y9633D01*
Y10117D01*
X9835D01*
Y9608D01*
X9708D01*
Y9481D01*
X9104D01*
Y9099D01*
X9104D01*
X9060Y8991D01*
X8444D01*
Y10316D01*
X8548D01*
Y10593D01*
X7944D01*
Y10720D01*
X7817D01*
Y11124D01*
X7809D01*
X7800Y11251D01*
X7844Y11257D01*
X8039Y11338D01*
X8207Y11467D01*
X8336Y11635D01*
X8417Y11830D01*
X8428Y11913D01*
X5840D01*
X5850Y11830D01*
X5931Y11635D01*
X5967Y11588D01*
X5911Y11474D01*
X5640D01*
Y10897D01*
X6244D01*
Y10643D01*
X5640D01*
Y10066D01*
X5744D01*
Y9670D01*
Y8600D01*
X5715Y8571D01*
X5617Y8536D01*
X5575Y8576D01*
Y8625D01*
X5518Y8762D01*
X5455Y8825D01*
Y12363D01*
X5455Y12363D01*
X5436Y12461D01*
X5380Y12544D01*
X5380Y12544D01*
X4100Y13824D01*
X4017Y13879D01*
X3919Y13899D01*
X3854D01*
Y14198D01*
X3500D01*
Y14452D01*
X3854D01*
Y14771D01*
Y15248D01*
X3500D01*
Y15502D01*
X3854D01*
Y15919D01*
X3973D01*
Y16373D01*
X4100D01*
Y16500D01*
X4604D01*
Y16827D01*
X4500D01*
Y17323D01*
X3750D01*
X3625Y17375D01*
D02*
G37*
G36*
X1097Y16752D02*
X770D01*
Y16375D01*
X1097D01*
Y16752D01*
D02*
G37*
G36*
X4604Y16246D02*
X4227D01*
Y15919D01*
X4604D01*
Y16246D01*
D02*
G37*
G36*
X44209Y15634D02*
X43827D01*
Y15227D01*
X44209D01*
Y15634D01*
D02*
G37*
G36*
X73073Y15573D02*
X72746D01*
Y15196D01*
X73073D01*
Y15573D01*
D02*
G37*
G36*
X37645Y15742D02*
X36118D01*
Y14940D01*
X37645D01*
Y15742D01*
D02*
G37*
G36*
X35864D02*
X34337D01*
Y14940D01*
X35864D01*
Y15742D01*
D02*
G37*
G36*
X51973Y15535D02*
X51696D01*
Y14671D01*
X51973D01*
Y15535D01*
D02*
G37*
G36*
X84139Y14954D02*
X83812D01*
Y14577D01*
X84139D01*
Y14954D01*
D02*
G37*
G36*
X44209Y14973D02*
X43827D01*
Y14566D01*
X44209D01*
Y14973D01*
D02*
G37*
G36*
X33482Y14721D02*
X33100D01*
Y14314D01*
X33482D01*
Y14721D01*
D02*
G37*
G36*
X12427Y14847D02*
Y14227D01*
X13047D01*
X13003Y14391D01*
X12903Y14563D01*
X12763Y14703D01*
X12591Y14803D01*
X12427Y14847D01*
D02*
G37*
G36*
X51812Y14516D02*
X51485D01*
Y14139D01*
X51812D01*
Y14516D01*
D02*
G37*
G36*
X6625Y15925D02*
X6475D01*
X6338Y15868D01*
X6232Y15762D01*
X6175Y15625D01*
Y15475D01*
X6232Y15338D01*
X6288Y15282D01*
X6235Y15155D01*
X6042D01*
Y14055D01*
X7142D01*
Y15155D01*
X6821D01*
Y15291D01*
X6868Y15338D01*
X6925Y15475D01*
Y15625D01*
X6868Y15762D01*
X6762Y15868D01*
X6625Y15925D01*
D02*
G37*
G36*
X5125Y15875D02*
X4975D01*
X4838Y15818D01*
X4732Y15712D01*
X4675Y15575D01*
Y15425D01*
X4732Y15288D01*
X4738Y15282D01*
X4685Y15155D01*
X4542D01*
Y14055D01*
X5642D01*
Y15155D01*
X5415D01*
X5362Y15282D01*
X5368Y15288D01*
X5425Y15425D01*
Y15575D01*
X5368Y15712D01*
X5262Y15818D01*
X5125Y15875D01*
D02*
G37*
G36*
X84139Y14323D02*
X83812D01*
Y13946D01*
X84139D01*
Y14323D01*
D02*
G37*
G36*
X35864Y14686D02*
X34337D01*
Y14011D01*
X34337Y13966D01*
X34234Y13909D01*
X34215Y13909D01*
X34141Y13909D01*
X33827Y13909D01*
Y13527D01*
X34234D01*
Y13782D01*
X34234Y13827D01*
X34337Y13884D01*
X34356Y13884D01*
X34430Y13884D01*
X35864D01*
Y14686D01*
D02*
G37*
G36*
X24836Y13935D02*
X24454D01*
Y13528D01*
X24836D01*
Y13935D01*
D02*
G37*
G36*
X38377Y13909D02*
Y13527D01*
X38784D01*
Y13909D01*
X38377D01*
D02*
G37*
G36*
X37645Y14686D02*
X36118D01*
Y13884D01*
X37577D01*
Y13884D01*
X37645Y13884D01*
X37716Y13786D01*
X37716Y13782D01*
Y13527D01*
X38123D01*
Y13909D01*
X37784D01*
Y13909D01*
X37716Y13909D01*
X37645Y14007D01*
X37645Y14011D01*
Y14686D01*
D02*
G37*
G36*
X33482Y14060D02*
X33100D01*
Y13653D01*
X33166D01*
Y13527D01*
X33573D01*
Y13909D01*
X33482D01*
Y14060D01*
D02*
G37*
G36*
X13047Y13973D02*
X12427D01*
Y13353D01*
X12591Y13397D01*
X12763Y13497D01*
X12903Y13637D01*
X13003Y13809D01*
X13047Y13973D01*
D02*
G37*
G36*
X12173D02*
X11553D01*
X11597Y13809D01*
X11697Y13637D01*
X11837Y13497D01*
X12009Y13397D01*
X12173Y13353D01*
Y13973D01*
D02*
G37*
G36*
X86523Y13176D02*
X86046D01*
Y12794D01*
X86523D01*
Y13176D01*
D02*
G37*
G36*
X85792D02*
X85315D01*
Y12794D01*
X85792D01*
Y13176D01*
D02*
G37*
G36*
X38784Y13273D02*
X38250D01*
X37716D01*
Y12891D01*
X37820D01*
Y12756D01*
X37541D01*
Y12888D01*
X34441D01*
Y12835D01*
X34331Y12819D01*
X34234Y12905D01*
Y13273D01*
X33700D01*
X33166D01*
Y12891D01*
X33270D01*
Y12095D01*
X33270D01*
X33343Y11968D01*
X33325Y11925D01*
Y11775D01*
X33382Y11638D01*
X33488Y11532D01*
X33625Y11475D01*
X33775D01*
X33912Y11532D01*
X34018Y11638D01*
X34075Y11775D01*
Y11925D01*
X34057Y11968D01*
X34130Y12095D01*
X34130D01*
X34197Y12194D01*
X34441D01*
Y11238D01*
X37541D01*
Y12144D01*
X37820D01*
Y12095D01*
X37839D01*
X37857Y12080D01*
X37914Y11968D01*
X37875Y11875D01*
Y11725D01*
X37932Y11588D01*
X38038Y11482D01*
X38175Y11425D01*
X38325D01*
X38462Y11482D01*
X38568Y11588D01*
X38625Y11725D01*
Y11875D01*
X38586Y11968D01*
X38643Y12080D01*
X38661Y12095D01*
X38680D01*
Y12891D01*
X38784D01*
Y13273D01*
D02*
G37*
G36*
X80273Y12873D02*
X79896D01*
Y12546D01*
X80273D01*
Y12873D01*
D02*
G37*
G36*
X51485Y12945D02*
X51103D01*
Y12538D01*
X51485D01*
Y12945D01*
D02*
G37*
G36*
X7634Y12851D02*
X7261D01*
Y12167D01*
X8428D01*
X8417Y12250D01*
X8336Y12445D01*
X8207Y12613D01*
X8039Y12742D01*
X7844Y12823D01*
X7634Y12851D01*
D02*
G37*
G36*
X7007D02*
X6634D01*
X6424Y12823D01*
X6228Y12742D01*
X6060Y12613D01*
X5931Y12445D01*
X5850Y12250D01*
X5840Y12167D01*
X7007D01*
Y12851D01*
D02*
G37*
G36*
X73740Y12372D02*
X73363D01*
Y12045D01*
X73740D01*
Y12372D01*
D02*
G37*
G36*
X81734Y12373D02*
X81327D01*
Y11991D01*
X81734D01*
Y12373D01*
D02*
G37*
G36*
X17054Y12136D02*
X16672D01*
Y12032D01*
X15876D01*
Y11921D01*
X15749Y11844D01*
X15675Y11875D01*
X15525D01*
X15388Y11818D01*
X15282Y11712D01*
X15225Y11575D01*
Y11425D01*
X15282Y11288D01*
X15388Y11182D01*
X15525Y11125D01*
X15675D01*
X15749Y11156D01*
X15876Y11079D01*
Y11032D01*
X15996D01*
Y10836D01*
X15600D01*
Y9636D01*
X15743D01*
Y9050D01*
X15100D01*
Y7450D01*
X16950D01*
Y8021D01*
X23050D01*
Y7450D01*
X24900D01*
Y9050D01*
X23050D01*
Y8479D01*
X16950D01*
Y9050D01*
X16307D01*
Y9636D01*
X16450D01*
Y10436D01*
X16478Y10465D01*
X16539Y10556D01*
X16561Y10664D01*
Y10796D01*
X16688Y10870D01*
X16739Y10841D01*
X16746Y10832D01*
Y10363D01*
X17804D01*
Y10940D01*
X17690D01*
Y11405D01*
X17181D01*
Y11532D01*
X17054D01*
Y12136D01*
D02*
G37*
G36*
X2182Y13151D02*
X1901D01*
Y12340D01*
Y11529D01*
X2182D01*
Y12340D01*
Y13151D01*
D02*
G37*
G36*
X73729Y11490D02*
X73252D01*
Y11108D01*
X73729D01*
Y11490D01*
D02*
G37*
G36*
X72998D02*
X72521D01*
Y11108D01*
X72998D01*
Y11490D01*
D02*
G37*
G36*
X22059Y11363D02*
X21652D01*
Y10981D01*
X22059D01*
Y11363D01*
D02*
G37*
G36*
X8548Y11124D02*
X8071D01*
Y10847D01*
X8548D01*
Y11124D01*
D02*
G37*
G36*
X72204Y11223D02*
X71627D01*
Y10821D01*
X72204D01*
Y11223D01*
D02*
G37*
G36*
X71373D02*
X70796D01*
Y10821D01*
X71373D01*
Y11223D01*
D02*
G37*
G36*
X78709Y10873D02*
X78302D01*
Y10491D01*
X78709D01*
Y10873D01*
D02*
G37*
G36*
X76923Y10873D02*
X76516D01*
Y10491D01*
X76923D01*
Y10873D01*
D02*
G37*
G36*
X34690Y10623D02*
X34541D01*
X34403Y10566D01*
X34298Y10460D01*
X34241Y10322D01*
Y10173D01*
X34258Y10132D01*
X34173Y10005D01*
X34122D01*
X34100Y10005D01*
X33995D01*
X33973Y10005D01*
X33933D01*
X33848Y10132D01*
X33865Y10173D01*
Y10322D01*
X33808Y10460D01*
X33703Y10566D01*
X33565Y10623D01*
X33416D01*
X33278Y10566D01*
X33172Y10460D01*
X33115Y10322D01*
Y10173D01*
X33132Y10132D01*
X33047Y10005D01*
X32995D01*
Y9232D01*
X32995Y9105D01*
X32995Y9068D01*
Y8295D01*
X33042D01*
X33150Y8250D01*
Y6450D01*
X34318D01*
Y5817D01*
X33866Y5365D01*
X33804Y5273D01*
X33783Y5165D01*
Y5150D01*
X33150D01*
Y3350D01*
X34350D01*
Y5051D01*
X34800Y5500D01*
X34861Y5592D01*
X34882Y5700D01*
Y6450D01*
X36050D01*
Y8250D01*
X36165Y8279D01*
X36201D01*
Y9052D01*
X36201Y9179D01*
X36201Y9216D01*
Y9989D01*
X36134D01*
X36078Y10073D01*
Y10223D01*
X36020Y10360D01*
X35915Y10466D01*
X35777Y10523D01*
X35628D01*
X35490Y10466D01*
X35385Y10360D01*
X35328Y10223D01*
Y10093D01*
X35235Y9989D01*
X35220D01*
X35100Y10005D01*
X35081Y10005D01*
X35059D01*
X34974Y10132D01*
X34991Y10173D01*
Y10322D01*
X34934Y10460D01*
X34828Y10566D01*
X34690Y10623D01*
D02*
G37*
G36*
X9581Y10117D02*
X9104D01*
Y9735D01*
X9581D01*
Y10117D01*
D02*
G37*
G36*
X85182Y10263D02*
X84780D01*
Y9686D01*
X85182D01*
Y10263D01*
D02*
G37*
G36*
X84526D02*
X84124D01*
Y9686D01*
X84526D01*
Y10263D01*
D02*
G37*
G36*
X17804Y10109D02*
X17402D01*
Y9532D01*
X17804D01*
Y10109D01*
D02*
G37*
G36*
X17148D02*
X16746D01*
Y9532D01*
X17148D01*
Y10109D01*
D02*
G37*
G36*
X60141Y9585D02*
X59759D01*
Y9178D01*
X60141D01*
Y9585D01*
D02*
G37*
G36*
X14538Y8534D02*
X14156D01*
Y8127D01*
X14538D01*
Y8534D01*
D02*
G37*
G36*
Y7873D02*
X14156D01*
Y7466D01*
X14538D01*
Y7873D01*
D02*
G37*
G36*
X94900Y9050D02*
X93050D01*
Y7450D01*
X94900D01*
Y9050D01*
D02*
G37*
G36*
X46950D02*
X45100D01*
Y7450D01*
X46950D01*
Y9050D01*
D02*
G37*
G36*
X60954Y6754D02*
X60177D01*
Y6452D01*
X60954D01*
Y6754D01*
D02*
G37*
G36*
X14559Y6834D02*
X14177D01*
Y6427D01*
X14559D01*
Y6834D01*
D02*
G37*
G36*
Y6173D02*
X14177D01*
Y5766D01*
X14559D01*
Y6173D01*
D02*
G37*
G36*
X55659Y5954D02*
X55082D01*
Y5552D01*
X55659D01*
Y5954D01*
D02*
G37*
G36*
X57717Y5587D02*
X57240D01*
Y5205D01*
X57717D01*
Y5587D01*
D02*
G37*
G36*
X10804Y5596D02*
X10227D01*
Y5194D01*
X10804D01*
Y5596D01*
D02*
G37*
G36*
X9973D02*
X9396D01*
Y5194D01*
X9973D01*
Y5596D01*
D02*
G37*
G36*
X55659Y5298D02*
X55082D01*
Y4896D01*
X55659D01*
Y5298D01*
D02*
G37*
G36*
X10804Y4940D02*
X10227D01*
Y4538D01*
X10804D01*
Y4940D01*
D02*
G37*
G36*
X9973D02*
X9396D01*
Y4538D01*
X9973D01*
Y4940D01*
D02*
G37*
G36*
X8548Y4593D02*
X8071D01*
Y4316D01*
X8548D01*
Y4593D01*
D02*
G37*
G36*
X97817Y7450D02*
X97483D01*
X97154Y7385D01*
X96845Y7257D01*
X96566Y7070D01*
X96330Y6834D01*
X96143Y6555D01*
X96015Y6246D01*
X95950Y5917D01*
Y5583D01*
X96015Y5254D01*
X96143Y4945D01*
X96330Y4666D01*
X96566Y4430D01*
X96845Y4243D01*
X97154Y4115D01*
X97483Y4050D01*
X97817D01*
X98146Y4115D01*
X98455Y4243D01*
X98734Y4430D01*
X98970Y4666D01*
X99157Y4945D01*
X99285Y5254D01*
X99350Y5583D01*
Y5917D01*
X99285Y6246D01*
X99157Y6555D01*
X98970Y6834D01*
X98734Y7070D01*
X98455Y7257D01*
X98146Y7385D01*
X97817Y7450D01*
D02*
G37*
G36*
X24900Y4550D02*
X23050D01*
Y4032D01*
X16950D01*
Y4550D01*
X15100D01*
Y2950D01*
X16950D01*
Y3468D01*
X23050D01*
Y2950D01*
X24900D01*
Y4550D01*
D02*
G37*
G36*
X78801Y3750D02*
X78419D01*
Y3646D01*
X77623D01*
Y3429D01*
X77286D01*
X77175Y3475D01*
X77025D01*
X76888Y3418D01*
X76782Y3312D01*
X76725Y3175D01*
Y3025D01*
X76782Y2888D01*
X76888Y2782D01*
X77025Y2725D01*
X77175D01*
X77312Y2782D01*
X77394Y2864D01*
X77623D01*
Y2646D01*
X78419D01*
Y2542D01*
X78801D01*
Y3146D01*
Y3750D01*
D02*
G37*
G36*
X36050Y5150D02*
X34850D01*
Y3350D01*
X36050D01*
Y5150D01*
D02*
G37*
G36*
X60954Y6198D02*
X60050D01*
X59146D01*
Y6021D01*
X59146Y5900D01*
X59025Y5900D01*
X58500D01*
Y3300D01*
X59123D01*
X59250Y3235D01*
Y3200D01*
X59250Y3173D01*
Y2550D01*
X60850D01*
Y3173D01*
X60850Y3300D01*
X60950D01*
X60977Y3300D01*
X61600D01*
Y5900D01*
X61076D01*
X60954Y5900D01*
X60954Y6021D01*
Y6198D01*
D02*
G37*
G36*
X79437Y3750D02*
X79055D01*
Y3273D01*
X79437D01*
Y3750D01*
D02*
G37*
G36*
X3559Y3911D02*
X2436D01*
Y3227D01*
X4353D01*
X4342Y3310D01*
X4261Y3505D01*
X4132Y3673D01*
X3964Y3802D01*
X3769Y3883D01*
X3559Y3911D01*
D02*
G37*
G36*
X94900Y4550D02*
X93050D01*
Y2950D01*
X94900D01*
Y4550D01*
D02*
G37*
G36*
X86950D02*
X85100D01*
Y2950D01*
X86950D01*
Y4550D01*
D02*
G37*
G36*
X74900D02*
X73050D01*
Y2950D01*
X74900D01*
Y4550D01*
D02*
G37*
G36*
X66950D02*
X65100D01*
Y2950D01*
X66950D01*
Y4550D01*
D02*
G37*
G36*
X54900D02*
X53050D01*
Y2950D01*
X54900D01*
Y4550D01*
D02*
G37*
G36*
X46950D02*
X45100D01*
Y2950D01*
X46950D01*
Y4550D01*
D02*
G37*
G36*
X8428Y3273D02*
X7261D01*
Y2589D01*
X7634D01*
X7844Y2617D01*
X8039Y2698D01*
X8207Y2827D01*
X8336Y2995D01*
X8417Y3190D01*
X8428Y3273D01*
D02*
G37*
G36*
X7007D02*
X5840D01*
X5850Y3190D01*
X5931Y2995D01*
X6060Y2827D01*
X6228Y2698D01*
X6424Y2617D01*
X6634Y2589D01*
X7007D01*
Y3273D01*
D02*
G37*
G36*
X79437Y3019D02*
X79055D01*
Y2542D01*
X79437D01*
Y3019D01*
D02*
G37*
G36*
X4353Y2973D02*
X2436D01*
Y2289D01*
X3559D01*
X3769Y2317D01*
X3964Y2398D01*
X4132Y2527D01*
X4261Y2695D01*
X4342Y2890D01*
X4353Y2973D01*
D02*
G37*
G36*
X2182Y3911D02*
X1901D01*
Y3100D01*
Y2289D01*
X2182D01*
Y3100D01*
Y3911D01*
D02*
G37*
G36*
X82225Y2775D02*
X82075D01*
X81938Y2718D01*
X81832Y2612D01*
X81775Y2475D01*
Y2325D01*
X81832Y2188D01*
X81938Y2082D01*
X82075Y2025D01*
X82225D01*
X82362Y2082D01*
X82468Y2188D01*
X82525Y2325D01*
Y2475D01*
X82468Y2612D01*
X82362Y2718D01*
X82225Y2775D01*
D02*
G37*
G36*
X8060Y2179D02*
X7678D01*
Y1702D01*
X8060D01*
Y2179D01*
D02*
G37*
G36*
X37800Y3000D02*
X32200D01*
Y1250D01*
X37800D01*
Y3000D01*
D02*
G37*
G36*
X8060Y1448D02*
X7678D01*
Y971D01*
X8060D01*
Y1448D01*
D02*
G37*
G36*
X10850Y2567D02*
X10600Y2534D01*
X10367Y2437D01*
X10166Y2284D01*
X10013Y2083D01*
X9916Y1850D01*
X9883Y1600D01*
X9916Y1350D01*
X10013Y1117D01*
X10166Y916D01*
X10367Y763D01*
X10600Y666D01*
X10850Y633D01*
X11100Y666D01*
X11333Y763D01*
X11534Y916D01*
X11687Y1117D01*
X11784Y1350D01*
X11817Y1600D01*
X11784Y1850D01*
X11687Y2083D01*
X11534Y2284D01*
X11333Y2437D01*
X11100Y2534D01*
X10850Y2567D01*
D02*
G37*
G36*
X93350Y2417D02*
X93100Y2384D01*
X92867Y2287D01*
X92666Y2134D01*
X92513Y1933D01*
X92416Y1700D01*
X92383Y1450D01*
X92416Y1200D01*
X92513Y967D01*
X92666Y766D01*
X92867Y613D01*
X93100Y516D01*
X93350Y483D01*
X93600Y516D01*
X93833Y613D01*
X94034Y766D01*
X94187Y967D01*
X94284Y1200D01*
X94317Y1450D01*
X94284Y1700D01*
X94187Y1933D01*
X94034Y2134D01*
X93833Y2287D01*
X93600Y2384D01*
X93350Y2417D01*
D02*
G37*
G36*
X42928Y2800D02*
X42612D01*
X42307Y2718D01*
X42033Y2560D01*
X41810Y2337D01*
X41652Y2063D01*
X41570Y1758D01*
Y1442D01*
X41652Y1137D01*
X41810Y863D01*
X42033Y640D01*
X42307Y482D01*
X42612Y400D01*
X42928D01*
X43233Y482D01*
X43507Y640D01*
X43730Y863D01*
X43888Y1137D01*
X43970Y1442D01*
Y1758D01*
X43888Y2063D01*
X43730Y2337D01*
X43507Y2560D01*
X43233Y2718D01*
X42928Y2800D01*
D02*
G37*
G36*
X40188D02*
X39872D01*
X39567Y2718D01*
X39293Y2560D01*
X39070Y2337D01*
X38912Y2063D01*
X38830Y1758D01*
Y1442D01*
X38912Y1137D01*
X39070Y863D01*
X39293Y640D01*
X39567Y482D01*
X39872Y400D01*
X40188D01*
X40493Y482D01*
X40767Y640D01*
X40990Y863D01*
X41148Y1137D01*
X41230Y1442D01*
Y1758D01*
X41148Y2063D01*
X40990Y2337D01*
X40767Y2560D01*
X40493Y2718D01*
X40188Y2800D01*
D02*
G37*
G36*
X30378D02*
X30062D01*
X29757Y2718D01*
X29483Y2560D01*
X29260Y2337D01*
X29102Y2063D01*
X29020Y1758D01*
Y1442D01*
X29102Y1137D01*
X29260Y863D01*
X29483Y640D01*
X29757Y482D01*
X30062Y400D01*
X30378D01*
X30683Y482D01*
X30957Y640D01*
X31180Y863D01*
X31338Y1137D01*
X31420Y1442D01*
Y1758D01*
X31338Y2063D01*
X31180Y2337D01*
X30957Y2560D01*
X30683Y2718D01*
X30378Y2800D01*
D02*
G37*
G36*
X27638D02*
X27322D01*
X27017Y2718D01*
X26743Y2560D01*
X26520Y2337D01*
X26362Y2063D01*
X26280Y1758D01*
Y1442D01*
X26362Y1137D01*
X26520Y863D01*
X26743Y640D01*
X27017Y482D01*
X27322Y400D01*
X27638D01*
X27943Y482D01*
X28217Y640D01*
X28440Y863D01*
X28598Y1137D01*
X28680Y1442D01*
Y1758D01*
X28598Y2063D01*
X28440Y2337D01*
X28217Y2560D01*
X27943Y2718D01*
X27638Y2800D01*
D02*
G37*
%LPD*%
G36*
X63870Y28795D02*
X59105Y24029D01*
X58367D01*
X58282Y24156D01*
X58300Y24200D01*
Y24350D01*
X58243Y24487D01*
X58228Y24503D01*
X58229Y24513D01*
Y26471D01*
X58212Y26559D01*
X58162Y26633D01*
X56329Y28466D01*
Y30251D01*
X62870D01*
Y29501D01*
X62832Y29462D01*
X62775Y29325D01*
Y29175D01*
X62832Y29038D01*
X62938Y28932D01*
X63075Y28875D01*
X63225D01*
X63362Y28932D01*
X63468Y29038D01*
X63525Y29175D01*
Y29325D01*
X63468Y29462D01*
X63362Y29568D01*
X63329Y29582D01*
Y30251D01*
X63870D01*
Y28795D01*
D02*
G37*
G36*
X23199Y32514D02*
X23898D01*
Y32387D01*
X24025D01*
Y31813D01*
X24597D01*
Y31813D01*
X24691Y31962D01*
X25168D01*
Y32471D01*
X25422D01*
Y31962D01*
X25868D01*
X26031Y31807D01*
X26023Y31787D01*
Y31638D01*
X25965Y31551D01*
X25398D01*
Y30924D01*
X26352D01*
Y30670D01*
X25398D01*
Y30612D01*
X23900D01*
X23869Y30569D01*
Y30497D01*
X23302D01*
Y29197D01*
X23457D01*
Y28870D01*
X23247Y28783D01*
X23212Y28818D01*
X23075Y28875D01*
X22925D01*
X22788Y28818D01*
X22760Y28790D01*
X22608Y28942D01*
X22641Y29022D01*
X22641D01*
Y31349D01*
X21637D01*
Y31603D01*
X22641D01*
Y32812D01*
X23199D01*
Y32514D01*
D02*
G37*
G36*
X41950Y28058D02*
X41740D01*
X41560Y28237D01*
Y28317D01*
X41950D01*
Y28058D01*
D02*
G37*
G36*
X41140Y28237D02*
X40960Y28058D01*
X40750D01*
Y28317D01*
X41140D01*
Y28237D01*
D02*
G37*
G36*
X20737Y29126D02*
X21104D01*
Y28375D01*
X20781D01*
Y27841D01*
X20654D01*
Y27714D01*
X20145D01*
Y27517D01*
X20007Y27545D01*
X19585D01*
X19157Y27972D01*
Y29126D01*
X19487D01*
Y29287D01*
X20737D01*
Y29126D01*
D02*
G37*
G36*
X41950Y27407D02*
X41560D01*
Y27487D01*
X41740Y27667D01*
X41950D01*
Y27407D01*
D02*
G37*
G36*
X39436Y27785D02*
X39540D01*
Y26990D01*
X39540D01*
X39529Y26784D01*
X39525Y26775D01*
Y26625D01*
X39550Y26565D01*
Y26217D01*
X39438D01*
Y25149D01*
X39550D01*
Y24659D01*
X39340Y24595D01*
X39286Y24676D01*
X39152Y24766D01*
X38995Y24797D01*
X38897D01*
Y24385D01*
X38643D01*
Y24797D01*
X38606D01*
X38534Y24810D01*
X38401Y24982D01*
Y25285D01*
X38384Y25368D01*
Y25808D01*
X38363Y25916D01*
X38362Y25917D01*
Y25931D01*
X38368Y25938D01*
X38425Y26075D01*
Y26225D01*
X38368Y26362D01*
X38348Y26548D01*
X38453Y26654D01*
X38510Y26791D01*
Y26941D01*
X38453Y27078D01*
X38348Y27184D01*
X38210Y27241D01*
X38083D01*
X37892Y27287D01*
Y27287D01*
X37096D01*
Y27391D01*
X36714D01*
Y26857D01*
X36460D01*
Y27391D01*
X36078D01*
X36019Y27576D01*
Y27624D01*
X36000D01*
Y28550D01*
X39436D01*
Y27785D01*
D02*
G37*
G36*
X13235Y22934D02*
X14510D01*
X14648Y22762D01*
Y22612D01*
X14673Y22552D01*
Y22174D01*
X14410D01*
Y21637D01*
X14088D01*
Y21829D01*
X12880D01*
Y21637D01*
X12532D01*
Y21816D01*
X12023D01*
Y21943D01*
X11896D01*
Y22477D01*
X11514D01*
Y22373D01*
X10718D01*
Y21637D01*
X10472D01*
X10323Y21786D01*
X10326Y22830D01*
X10331Y22830D01*
Y22830D01*
X11058D01*
Y24934D01*
X11185D01*
Y25061D01*
X12039D01*
Y26495D01*
X13235D01*
Y22934D01*
D02*
G37*
G36*
X55370Y28250D02*
X55388Y28162D01*
X55438Y28088D01*
X57071Y26455D01*
Y24968D01*
X57056Y24959D01*
X56929Y25027D01*
Y26100D01*
X56912Y26188D01*
X56862Y26262D01*
X56225Y26899D01*
Y27025D01*
X56168Y27162D01*
X56062Y27268D01*
X55925Y27325D01*
X55775D01*
X55638Y27268D01*
X55532Y27162D01*
X55475Y27025D01*
Y26875D01*
X55532Y26738D01*
X55638Y26632D01*
X55775Y26575D01*
X55901D01*
X56471Y26005D01*
Y25520D01*
X56353Y25471D01*
X54925Y26899D01*
Y27025D01*
X54868Y27162D01*
X54762Y27268D01*
X54625Y27325D01*
X54475D01*
X54338Y27268D01*
X54232Y27162D01*
X54175Y27025D01*
Y26875D01*
X54232Y26738D01*
X54338Y26632D01*
X54475Y26575D01*
X54601D01*
X56171Y25005D01*
Y24250D01*
X56188Y24162D01*
X56238Y24088D01*
X57038Y23288D01*
X57112Y23238D01*
X57200Y23221D01*
X59421D01*
X59509Y23238D01*
X59584Y23288D01*
X63967Y27671D01*
X64950D01*
Y27100D01*
Y26100D01*
Y25143D01*
X64928Y25138D01*
X64836Y25077D01*
X63900Y24141D01*
X63839Y24050D01*
X63818Y23942D01*
Y21648D01*
X63782Y21612D01*
X63725Y21475D01*
Y21325D01*
X63782Y21188D01*
X63888Y21082D01*
X64025Y21025D01*
X64175D01*
X64312Y21082D01*
X64418Y21188D01*
X64475Y21325D01*
Y21475D01*
X64418Y21612D01*
X64382Y21648D01*
Y23825D01*
X64833Y24275D01*
X64950Y24227D01*
Y23600D01*
Y22600D01*
Y21600D01*
Y20600D01*
Y19600D01*
Y18600D01*
Y17552D01*
X64833Y17503D01*
X63983Y18353D01*
X63967Y18437D01*
X63889Y18552D01*
X63774Y18630D01*
X63637Y18657D01*
X61411D01*
X53457Y26611D01*
Y30251D01*
X55370D01*
Y28250D01*
D02*
G37*
G36*
X20515Y19982D02*
X20560Y19937D01*
X20648Y19900D01*
Y19175D01*
X20544D01*
Y18793D01*
X21078D01*
Y18666D01*
X21205D01*
Y18157D01*
X21221D01*
X21302Y18059D01*
X21292Y18009D01*
Y12857D01*
X21267Y12832D01*
X21251Y12808D01*
X20173D01*
X20017Y12777D01*
X19884Y12688D01*
X19879Y12680D01*
X19439D01*
X19370Y12799D01*
X19249Y12920D01*
X19101Y13006D01*
X18936Y13050D01*
X18764D01*
X18599Y13006D01*
X18451Y12920D01*
X18330Y12799D01*
X18261Y12680D01*
X18004D01*
X14774Y15911D01*
X14826Y16038D01*
X15551D01*
Y17038D01*
X15565Y17069D01*
X15565D01*
Y17842D01*
X15565Y17969D01*
X15565Y18006D01*
Y18779D01*
X15417D01*
Y18939D01*
X15542D01*
Y19333D01*
X15636Y19352D01*
X15705Y19398D01*
X15726Y19402D01*
X15823Y19316D01*
X15823Y19292D01*
Y18519D01*
X15948D01*
Y18335D01*
X15804D01*
Y17335D01*
X16577D01*
X16704Y17335D01*
X16741Y17335D01*
X17514D01*
Y18335D01*
X17391D01*
Y19024D01*
X17492D01*
Y19165D01*
X17583D01*
X17691Y19186D01*
X17783Y19248D01*
X18438Y19903D01*
X18565Y19850D01*
Y17889D01*
X18579Y17821D01*
X18589Y17752D01*
X18594Y17743D01*
X18596Y17733D01*
X18635Y17675D01*
X18671Y17615D01*
X19098Y17144D01*
Y13287D01*
X20898D01*
Y17987D01*
X19435D01*
X19381Y18046D01*
Y18178D01*
X19596D01*
Y18687D01*
X19723D01*
Y18814D01*
X20257D01*
Y19196D01*
X20153D01*
Y19618D01*
X20281Y19745D01*
X20342Y19837D01*
X20364Y19945D01*
Y19956D01*
X20480Y20011D01*
X20515Y19982D01*
D02*
G37*
G36*
X28350Y12824D02*
X28339Y12808D01*
X28318Y12700D01*
Y12268D01*
X28043Y11993D01*
X27833Y12080D01*
Y12120D01*
X27329D01*
Y12247D01*
X27202D01*
Y12701D01*
X26825D01*
Y12683D01*
X26437D01*
X26372Y12867D01*
X26372D01*
Y13274D01*
X25863D01*
Y13528D01*
X26372D01*
Y13935D01*
X25750D01*
Y14200D01*
X28350D01*
Y12824D01*
D02*
G37*
%LPC*%
G36*
X23771Y32260D02*
X23199D01*
Y31813D01*
X23771D01*
Y32260D01*
D02*
G37*
G36*
X20527Y28375D02*
X20145D01*
Y27968D01*
X20527D01*
Y28375D01*
D02*
G37*
G36*
X12039Y24807D02*
X11312D01*
Y22830D01*
X12039D01*
Y24807D01*
D02*
G37*
G36*
X14088Y22465D02*
X13611D01*
Y22083D01*
X14088D01*
Y22465D01*
D02*
G37*
G36*
X13357D02*
X12880D01*
Y22083D01*
X13357D01*
Y22465D01*
D02*
G37*
G36*
X12532Y22477D02*
X12150D01*
Y22070D01*
X12532D01*
Y22477D01*
D02*
G37*
G36*
X20257Y18560D02*
X19850D01*
Y18178D01*
X20257D01*
Y18560D01*
D02*
G37*
G36*
X20951Y18539D02*
X20544D01*
Y18157D01*
X20951D01*
Y18539D01*
D02*
G37*
G36*
X27833Y12701D02*
X27456D01*
Y12374D01*
X27833D01*
Y12701D01*
D02*
G37*
%LPD*%
G36*
X13400Y8534D02*
Y7500D01*
X10400D01*
Y8600D01*
Y9200D01*
X10500Y9300D01*
X13400D01*
Y8534D01*
D02*
G37*
G36*
X33112Y1500D02*
X32867D01*
Y2425D01*
X32865Y2423D01*
X32860Y2420D01*
X32853Y2413D01*
X32843Y2405D01*
X32830Y2395D01*
X32815Y2381D01*
X32797Y2370D01*
X32777Y2355D01*
X32755Y2340D01*
X32730Y2325D01*
X32703Y2310D01*
X32677Y2295D01*
X32615Y2265D01*
X32550Y2240D01*
Y2463D01*
X32552D01*
X32555Y2465D01*
X32560Y2466D01*
X32567Y2470D01*
X32575Y2473D01*
X32587Y2478D01*
X32612Y2490D01*
X32642Y2505D01*
X32677Y2526D01*
X32715Y2551D01*
X32757Y2581D01*
X32758Y2583D01*
X32762Y2585D01*
X32767Y2590D01*
X32775Y2596D01*
X32785Y2605D01*
X32795Y2616D01*
X32818Y2640D01*
X32845Y2671D01*
X32870Y2706D01*
X32893Y2745D01*
X32903Y2766D01*
X32912Y2788D01*
X33112D01*
Y1500D01*
D02*
G37*
%LPC*%
G36*
X18852Y-12300D02*
X18839D01*
X18827Y-12302D01*
X18800Y-12308D01*
X18764Y-12316D01*
X18722Y-12333D01*
X18678Y-12358D01*
X18653Y-12375D01*
X18630Y-12394D01*
X18608Y-12416D01*
X18586Y-12441D01*
Y-12444D01*
X18580Y-12447D01*
X18575Y-12455D01*
X18569Y-12466D01*
X18561Y-12483D01*
X18550Y-12500D01*
X18539Y-12522D01*
X18530Y-12544D01*
X18519Y-12572D01*
X18508Y-12602D01*
X18500Y-12636D01*
X18489Y-12672D01*
X18483Y-12713D01*
X18478Y-12755D01*
X18472Y-12799D01*
Y-12849D01*
Y-12852D01*
Y-12861D01*
Y-12874D01*
X18475Y-12894D01*
Y-12916D01*
X18478Y-12941D01*
X18486Y-12999D01*
X18500Y-13066D01*
X18517Y-13130D01*
X18544Y-13194D01*
X18561Y-13221D01*
X18580Y-13246D01*
X18586Y-13252D01*
X18600Y-13266D01*
X18622Y-13288D01*
X18653Y-13310D01*
X18691Y-13332D01*
X18736Y-13355D01*
X18786Y-13369D01*
X18814Y-13371D01*
X18841Y-13374D01*
X18858D01*
X18869Y-13371D01*
X18897Y-13366D01*
X18936Y-13357D01*
X18977Y-13341D01*
X19022Y-13319D01*
X19066Y-13285D01*
X19088Y-13266D01*
X19111Y-13244D01*
Y-13241D01*
X19116Y-13238D01*
X19122Y-13230D01*
X19127Y-13219D01*
X19138Y-13205D01*
X19147Y-13185D01*
X19158Y-13166D01*
X19169Y-13141D01*
X19177Y-13116D01*
X19188Y-13083D01*
X19199Y-13049D01*
X19208Y-13013D01*
X19213Y-12972D01*
X19219Y-12927D01*
X19224Y-12880D01*
Y-12830D01*
Y-12827D01*
Y-12819D01*
Y-12805D01*
X19222Y-12786D01*
Y-12763D01*
X19219Y-12738D01*
X19211Y-12680D01*
X19197Y-12616D01*
X19177Y-12552D01*
X19150Y-12489D01*
X19133Y-12458D01*
X19113Y-12433D01*
Y-12430D01*
X19108Y-12427D01*
X19094Y-12411D01*
X19072Y-12391D01*
X19041Y-12366D01*
X19002Y-12341D01*
X18958Y-12319D01*
X18908Y-12305D01*
X18880Y-12302D01*
X18852Y-12300D01*
D02*
G37*
G36*
X22884Y-12838D02*
X22881D01*
X22878Y-12841D01*
X22870Y-12844D01*
X22859Y-12847D01*
X22845Y-12852D01*
X22828Y-12858D01*
X22809Y-12863D01*
X22786Y-12869D01*
X22761Y-12877D01*
X22731Y-12883D01*
X22700Y-12891D01*
X22664Y-12899D01*
X22625Y-12908D01*
X22586Y-12916D01*
X22542Y-12922D01*
X22495Y-12930D01*
X22489D01*
X22473Y-12933D01*
X22445Y-12938D01*
X22414Y-12944D01*
X22381Y-12949D01*
X22348Y-12958D01*
X22317Y-12966D01*
X22289Y-12977D01*
X22287D01*
X22278Y-12983D01*
X22267Y-12988D01*
X22256Y-12997D01*
X22223Y-13019D01*
X22195Y-13052D01*
Y-13055D01*
X22189Y-13060D01*
X22187Y-13072D01*
X22181Y-13085D01*
X22176Y-13102D01*
X22170Y-13119D01*
X22167Y-13141D01*
X22164Y-13163D01*
Y-13166D01*
Y-13180D01*
X22167Y-13196D01*
X22173Y-13219D01*
X22181Y-13244D01*
X22195Y-13269D01*
X22212Y-13296D01*
X22234Y-13321D01*
X22237Y-13324D01*
X22248Y-13330D01*
X22264Y-13341D01*
X22287Y-13352D01*
X22317Y-13363D01*
X22353Y-13374D01*
X22395Y-13380D01*
X22445Y-13382D01*
X22467D01*
X22495Y-13380D01*
X22525Y-13374D01*
X22564Y-13369D01*
X22603Y-13357D01*
X22645Y-13344D01*
X22686Y-13324D01*
X22692Y-13321D01*
X22703Y-13313D01*
X22723Y-13299D01*
X22745Y-13280D01*
X22770Y-13258D01*
X22797Y-13230D01*
X22820Y-13196D01*
X22842Y-13160D01*
X22845Y-13158D01*
X22847Y-13146D01*
X22853Y-13127D01*
X22861Y-13102D01*
X22870Y-13069D01*
X22875Y-13030D01*
X22878Y-12983D01*
X22881Y-12927D01*
X22884Y-12838D01*
D02*
G37*
G36*
X25402Y-12308D02*
X25385D01*
X25374Y-12311D01*
X25343Y-12314D01*
X25307Y-12322D01*
X25263Y-12336D01*
X25216Y-12355D01*
X25171Y-12383D01*
X25127Y-12419D01*
X25121Y-12425D01*
X25110Y-12439D01*
X25091Y-12464D01*
X25071Y-12497D01*
X25049Y-12536D01*
X25030Y-12586D01*
X25013Y-12644D01*
X25005Y-12708D01*
X25785D01*
Y-12705D01*
Y-12700D01*
X25782Y-12691D01*
Y-12680D01*
X25776Y-12647D01*
X25768Y-12611D01*
X25754Y-12566D01*
X25740Y-12525D01*
X25718Y-12483D01*
X25693Y-12447D01*
Y-12444D01*
X25688Y-12441D01*
X25674Y-12425D01*
X25649Y-12402D01*
X25615Y-12377D01*
X25574Y-12352D01*
X25524Y-12330D01*
X25465Y-12314D01*
X25435Y-12311D01*
X25402Y-12308D01*
D02*
G37*
G36*
X17328D02*
X17312D01*
X17298Y-12311D01*
X17267Y-12314D01*
X17226Y-12325D01*
X17178Y-12341D01*
X17128Y-12364D01*
X17081Y-12397D01*
X17056Y-12419D01*
X17034Y-12441D01*
Y-12444D01*
X17028Y-12447D01*
X17023Y-12455D01*
X17015Y-12466D01*
X17006Y-12480D01*
X16998Y-12497D01*
X16987Y-12519D01*
X16976Y-12541D01*
X16965Y-12569D01*
X16954Y-12597D01*
X16945Y-12630D01*
X16937Y-12666D01*
X16929Y-12705D01*
X16923Y-12747D01*
X16920Y-12794D01*
X16917Y-12841D01*
Y-12844D01*
Y-12852D01*
Y-12866D01*
X16920Y-12886D01*
Y-12908D01*
X16923Y-12933D01*
X16931Y-12991D01*
X16945Y-13058D01*
X16967Y-13124D01*
X16995Y-13188D01*
X17015Y-13216D01*
X17034Y-13244D01*
X17037D01*
X17040Y-13249D01*
X17056Y-13263D01*
X17081Y-13285D01*
X17115Y-13307D01*
X17156Y-13332D01*
X17206Y-13355D01*
X17264Y-13369D01*
X17295Y-13371D01*
X17328Y-13374D01*
X17345D01*
X17359Y-13371D01*
X17389Y-13366D01*
X17431Y-13357D01*
X17475Y-13341D01*
X17525Y-13319D01*
X17573Y-13285D01*
X17598Y-13263D01*
X17620Y-13241D01*
X17623Y-13238D01*
X17625Y-13235D01*
X17631Y-13227D01*
X17639Y-13216D01*
X17648Y-13202D01*
X17659Y-13185D01*
X17670Y-13163D01*
X17681Y-13141D01*
X17692Y-13113D01*
X17700Y-13083D01*
X17711Y-13049D01*
X17720Y-13013D01*
X17728Y-12972D01*
X17734Y-12930D01*
X17739Y-12883D01*
Y-12833D01*
Y-12830D01*
Y-12822D01*
Y-12808D01*
X17736Y-12791D01*
Y-12769D01*
X17734Y-12744D01*
X17725Y-12686D01*
X17711Y-12625D01*
X17689Y-12558D01*
X17659Y-12497D01*
X17642Y-12466D01*
X17620Y-12441D01*
Y-12439D01*
X17614Y-12436D01*
X17598Y-12419D01*
X17573Y-12400D01*
X17539Y-12375D01*
X17498Y-12350D01*
X17448Y-12327D01*
X17392Y-12314D01*
X17362Y-12311D01*
X17328Y-12308D01*
D02*
G37*
%LPD*%
D10*
X70150Y26690D02*
X70350Y26890D01*
X34234Y13909D02*
X34259Y13884D01*
X34356D01*
X70124Y26716D02*
X70150Y26690D01*
X70124Y26716D02*
Y26729D01*
X70350Y26890D02*
Y27100D01*
X4100Y16373D02*
X4125Y16348D01*
Y15925D02*
X4150Y15900D01*
X4125Y15925D02*
Y16348D01*
X23538Y19335D02*
X23582Y19291D01*
X23538Y19335D02*
Y20233D01*
X14170Y16860D02*
Y17477D01*
Y16860D02*
X14245Y16785D01*
X25863Y13101D02*
X26162Y12802D01*
X26224D01*
X25863Y13101D02*
Y13401D01*
X25900Y13437D02*
Y14050D01*
X25863Y13401D02*
X25900Y13437D01*
X17888Y12400D02*
X18850D01*
X20173D01*
X71500Y9250D02*
Y10050D01*
Y9250D02*
X72500Y8250D01*
X73975D01*
X14251Y16037D02*
X17888Y12400D01*
X14251Y16037D02*
Y16533D01*
X18527Y25402D02*
X18529Y25400D01*
X18825D01*
X17073Y26687D02*
X17180Y26580D01*
X85903Y8372D02*
Y10390D01*
D12*
X64000Y16502D02*
X64012Y16491D01*
X64000Y16502D02*
Y16503D01*
X63582Y16920D02*
X63852Y16650D01*
X63853D02*
X64000Y16503D01*
X63852Y16650D02*
X63853D01*
X37664Y13884D02*
X37750Y13971D01*
X37645Y13884D02*
X37664D01*
X68850Y26750D02*
X68875Y26775D01*
X69353D02*
X69378Y26800D01*
X69550Y27400D02*
X69550Y27400D01*
X69036Y27400D02*
X69550D01*
X68875Y26775D02*
X69353D01*
X69034Y27402D02*
X69036Y27400D01*
X3193Y16110D02*
Y16177D01*
X2593Y16110D02*
Y16177D01*
X3100Y16016D02*
X3193Y16110D01*
X2593D02*
X2700Y16003D01*
Y15375D02*
Y16003D01*
X3100Y15375D02*
Y16016D01*
X68819Y27502D02*
Y27552D01*
Y27502D02*
X68919Y27402D01*
X69034D01*
X5200Y8517D02*
Y12363D01*
X3919Y13644D02*
X5200Y12363D01*
X3306Y13644D02*
X3919D01*
X48453Y27543D02*
X48458Y27537D01*
X49063D02*
X49100Y27500D01*
X48458Y27537D02*
X49063D01*
X34907Y19347D02*
X35095Y19534D01*
Y20210D01*
Y21195D01*
X35039Y21250D02*
X35095Y21195D01*
X5258Y22350D02*
X5315Y22292D01*
X6255D01*
X6182Y22950D02*
X6250D01*
X5658Y22900D02*
X6132D01*
X6182Y22950D01*
X5258Y21058D02*
Y22067D01*
X5658Y21667D01*
X6233D01*
X6250Y21650D01*
X5258Y22067D02*
Y22350D01*
Y22500D01*
X5658Y22900D01*
X3044Y20350D02*
X3150D01*
X2658Y20736D02*
X3044Y20350D01*
X2658Y20736D02*
Y22350D01*
X65838Y26900D02*
X68100D01*
X68100Y26900D01*
X68250Y26750D02*
Y26800D01*
X68150Y26900D02*
X68250Y26800D01*
X68100Y26900D02*
X68150D01*
X5200Y8517D02*
X5442Y8275D01*
X5447D01*
X5702Y8020D02*
X6194D01*
X5447Y8275D02*
X5702Y8020D01*
X4725Y8325D02*
X5250Y7800D01*
X4725Y8325D02*
Y8747D01*
X4850Y8872D01*
Y12218D01*
X3774Y13294D02*
X4850Y12218D01*
X6194Y8020D02*
X6244Y7970D01*
X5245Y7795D02*
X5497Y7543D01*
X3100Y13850D02*
X3306Y13644D01*
X3161Y13294D02*
X3774D01*
X2696Y13759D02*
X3161Y13294D01*
X2696Y13759D02*
Y14012D01*
X2700Y14016D02*
Y14325D01*
X2696Y14012D02*
X2700Y14016D01*
X4837Y20637D02*
X5258Y21058D01*
X4837Y20425D02*
Y20637D01*
X65849Y27389D02*
X68142D01*
X8697Y7145D02*
X8750D01*
X7944Y7220D02*
X8622D01*
X8697Y7145D01*
X7944Y8220D02*
X8786D01*
X8800Y8206D01*
X5497Y7543D02*
X5872D01*
X5922Y7493D02*
X6221D01*
X6244Y7470D01*
X5872Y7543D02*
X5922Y7493D01*
X3100Y13850D02*
Y14325D01*
X39485Y23885D02*
X41117D01*
X41282Y24050D02*
X41350D01*
X41117Y23885D02*
X41282Y24050D01*
X20007Y27137D02*
X20598Y26546D01*
D14*
X100050Y33000D02*
G03*
X98050Y35000I-2000J0D01*
G01*
Y0D02*
G03*
X100050Y2000I0J2000D01*
G01*
X2000Y35000D02*
G03*
X0Y33000I0J-2000D01*
G01*
Y2000D02*
G03*
X2000Y0I2000J0D01*
G01*
X98050D01*
X2000Y35000D02*
X98050D01*
X100050Y2000D02*
Y33000D01*
X0Y2000D02*
Y33000D01*
D23*
X88651Y28321D02*
D03*
X87237Y29735D02*
D03*
X88646Y28321D02*
D03*
X87232Y29735D02*
D03*
D92*
X24724Y11279D02*
D03*
D93*
X23224Y10329D02*
D03*
Y11279D02*
D03*
Y12229D02*
D03*
X26224D02*
D03*
Y11279D02*
D03*
Y10329D02*
D03*
D94*
X30500Y11500D02*
D03*
X41601Y11473D02*
D03*
D95*
X31475Y10150D02*
D03*
X30825D02*
D03*
X30175D02*
D03*
X29525D02*
D03*
Y12850D02*
D03*
X30175D02*
D03*
X30825D02*
D03*
X31475D02*
D03*
X42576Y10123D02*
D03*
X41926D02*
D03*
X41276D02*
D03*
X40626D02*
D03*
Y12823D02*
D03*
X41276D02*
D03*
X41926D02*
D03*
X42576D02*
D03*
D96*
X50362Y29400D02*
D03*
Y28900D02*
D03*
Y28400D02*
D03*
Y27900D02*
D03*
Y27400D02*
D03*
Y26900D02*
D03*
Y26400D02*
D03*
Y25900D02*
D03*
Y25400D02*
D03*
Y24900D02*
D03*
Y24400D02*
D03*
Y23900D02*
D03*
Y23400D02*
D03*
Y22900D02*
D03*
Y22400D02*
D03*
Y21900D02*
D03*
Y21400D02*
D03*
Y20900D02*
D03*
Y20400D02*
D03*
Y19900D02*
D03*
Y19400D02*
D03*
Y18900D02*
D03*
Y18400D02*
D03*
Y17900D02*
D03*
Y17400D02*
D03*
X65838D02*
D03*
Y17900D02*
D03*
Y18400D02*
D03*
Y18900D02*
D03*
Y19400D02*
D03*
Y19900D02*
D03*
Y20400D02*
D03*
Y20900D02*
D03*
Y21400D02*
D03*
Y21900D02*
D03*
Y22400D02*
D03*
Y22900D02*
D03*
Y23400D02*
D03*
Y23900D02*
D03*
Y24400D02*
D03*
Y24900D02*
D03*
Y25400D02*
D03*
Y25900D02*
D03*
Y26400D02*
D03*
Y26900D02*
D03*
Y27400D02*
D03*
Y27900D02*
D03*
Y28400D02*
D03*
Y28900D02*
D03*
Y29400D02*
D03*
D97*
X52100Y15662D02*
D03*
X52600D02*
D03*
X53100D02*
D03*
X53600D02*
D03*
X54100D02*
D03*
X54600D02*
D03*
X55100D02*
D03*
X55600D02*
D03*
X56100D02*
D03*
X56600D02*
D03*
X57100D02*
D03*
X57600D02*
D03*
X58100D02*
D03*
X58600D02*
D03*
X59100D02*
D03*
X59600D02*
D03*
X60100D02*
D03*
X60600D02*
D03*
X61100D02*
D03*
X61600D02*
D03*
X62100D02*
D03*
X62600D02*
D03*
X63100D02*
D03*
X63600D02*
D03*
X64100D02*
D03*
Y31138D02*
D03*
X63600D02*
D03*
X63100D02*
D03*
X62600D02*
D03*
X62100D02*
D03*
X61600D02*
D03*
X61100D02*
D03*
X60600D02*
D03*
X60100D02*
D03*
X59600D02*
D03*
X59100D02*
D03*
X58600D02*
D03*
X58100D02*
D03*
X57600D02*
D03*
X57100D02*
D03*
X56600D02*
D03*
X56100D02*
D03*
X55600D02*
D03*
X55100D02*
D03*
X54600D02*
D03*
X54100D02*
D03*
X53600D02*
D03*
X53100D02*
D03*
X52600D02*
D03*
X52100D02*
D03*
D98*
X70258Y27889D02*
D03*
Y27289D02*
D03*
X4100Y16973D02*
D03*
Y16373D02*
D03*
X27323Y10402D02*
D03*
Y11002D02*
D03*
X27329Y11647D02*
D03*
Y12247D02*
D03*
X67400Y29650D02*
D03*
Y29050D02*
D03*
X48453Y26943D02*
D03*
Y27543D02*
D03*
X48400Y24350D02*
D03*
Y24950D02*
D03*
X67376Y17974D02*
D03*
Y17374D02*
D03*
X48550Y20600D02*
D03*
Y20000D02*
D03*
X15226Y24504D02*
D03*
Y25104D02*
D03*
X20609Y12350D02*
D03*
Y11750D02*
D03*
X75996Y12499D02*
D03*
Y13099D02*
D03*
X41479Y31988D02*
D03*
Y32588D02*
D03*
X78200Y24300D02*
D03*
Y23700D02*
D03*
X74931Y12499D02*
D03*
Y13099D02*
D03*
X81014Y23867D02*
D03*
Y23267D02*
D03*
X77100Y23700D02*
D03*
Y24300D02*
D03*
X79950Y23867D02*
D03*
Y23267D02*
D03*
X73867Y12499D02*
D03*
Y13099D02*
D03*
X80400Y13000D02*
D03*
Y13600D02*
D03*
D99*
X83523Y21990D02*
D03*
X82886Y22627D02*
D03*
X37929Y16651D02*
D03*
X85407Y25083D02*
D03*
X86043Y24447D02*
D03*
X37293Y17287D02*
D03*
X87185Y26861D02*
D03*
X87821Y26225D02*
D03*
X84773Y24447D02*
D03*
X84137Y25083D02*
D03*
X38082Y18018D02*
D03*
X38718Y17382D02*
D03*
D100*
X40068Y16082D02*
D03*
X39432Y16718D02*
D03*
X38632Y16018D02*
D03*
X39268Y15382D02*
D03*
D101*
X21078Y19566D02*
D03*
Y18666D02*
D03*
X68300Y29050D02*
D03*
Y29950D02*
D03*
X40436Y32011D02*
D03*
Y32911D02*
D03*
X33700Y12500D02*
D03*
Y13400D02*
D03*
X39970Y28295D02*
D03*
Y27395D02*
D03*
X33551Y26319D02*
D03*
Y27219D02*
D03*
X35589Y26319D02*
D03*
Y27219D02*
D03*
X32454Y24769D02*
D03*
Y23869D02*
D03*
X34567Y26318D02*
D03*
Y27218D02*
D03*
X53550Y33800D02*
D03*
Y32900D02*
D03*
X68387Y18224D02*
D03*
Y17324D02*
D03*
X47611Y19950D02*
D03*
Y20850D02*
D03*
X45700Y25400D02*
D03*
Y26300D02*
D03*
X62666Y14278D02*
D03*
Y13378D02*
D03*
X51050Y33850D02*
D03*
Y32950D02*
D03*
X16253Y18924D02*
D03*
Y19824D02*
D03*
X15135Y17474D02*
D03*
Y18374D02*
D03*
X19723Y19587D02*
D03*
Y18687D02*
D03*
X26438Y22449D02*
D03*
Y21549D02*
D03*
X21525Y11490D02*
D03*
Y12390D02*
D03*
X38250Y13400D02*
D03*
Y12500D02*
D03*
X78175Y11000D02*
D03*
Y11900D02*
D03*
X77050Y11000D02*
D03*
Y11900D02*
D03*
X82060Y23144D02*
D03*
Y24044D02*
D03*
X76250Y26611D02*
D03*
Y27511D02*
D03*
X74114Y20750D02*
D03*
Y21650D02*
D03*
X70050Y23050D02*
D03*
Y22150D02*
D03*
X81200Y13400D02*
D03*
Y12500D02*
D03*
D102*
X57113Y6614D02*
D03*
Y5714D02*
D03*
X73125Y10081D02*
D03*
Y10981D02*
D03*
X85919Y11767D02*
D03*
Y12667D02*
D03*
X1779Y20800D02*
D03*
Y19900D02*
D03*
X82800Y13700D02*
D03*
Y12800D02*
D03*
X13484Y21056D02*
D03*
Y21956D02*
D03*
X14122Y17478D02*
D03*
Y18378D02*
D03*
X25295Y32471D02*
D03*
Y33371D02*
D03*
X24660Y24724D02*
D03*
Y25624D02*
D03*
X28350Y10100D02*
D03*
Y9200D02*
D03*
X39250Y10150D02*
D03*
Y9250D02*
D03*
X85544Y17031D02*
D03*
Y17931D02*
D03*
Y18895D02*
D03*
Y19795D02*
D03*
X35701Y8684D02*
D03*
Y9584D02*
D03*
X33495Y9600D02*
D03*
Y8700D02*
D03*
X34600Y9600D02*
D03*
Y8700D02*
D03*
X9708Y8708D02*
D03*
Y9608D02*
D03*
D103*
X16281Y11532D02*
D03*
X17181D02*
D03*
X15137Y19439D02*
D03*
X14237D02*
D03*
X55049Y33722D02*
D03*
X55949D02*
D03*
X85604Y20917D02*
D03*
X86504D02*
D03*
X1900Y17829D02*
D03*
X1000D02*
D03*
X58700Y32950D02*
D03*
X57800D02*
D03*
X17141Y24358D02*
D03*
X16241D02*
D03*
X17141Y25573D02*
D03*
X16241D02*
D03*
X15146Y16538D02*
D03*
X14246D02*
D03*
X16209Y17835D02*
D03*
X17109D02*
D03*
X16278Y21364D02*
D03*
X17178D02*
D03*
X16050Y28500D02*
D03*
X16950D02*
D03*
X24464Y21455D02*
D03*
X25364D02*
D03*
X30413Y14273D02*
D03*
X31313D02*
D03*
X24621Y20221D02*
D03*
X25521D02*
D03*
X41000Y15100D02*
D03*
X41900D02*
D03*
X78928Y3146D02*
D03*
X78028D02*
D03*
X7551Y1575D02*
D03*
X6651D02*
D03*
X43900Y27398D02*
D03*
X43000D02*
D03*
D104*
X69005Y11152D02*
D03*
X69005Y13150D02*
D03*
X71483Y14322D02*
D03*
X38481Y32033D02*
D03*
X47500Y14113D02*
D03*
X47523Y16127D02*
D03*
X47586Y18349D02*
D03*
X26250Y15400D02*
D03*
X45635Y16095D02*
D03*
X73383Y27713D02*
D03*
X71497D02*
D03*
X73381Y29608D02*
D03*
X87503Y18910D02*
D03*
Y17018D02*
D03*
X71500Y29600D02*
D03*
X73439Y14373D02*
D03*
X71521Y31520D02*
D03*
X31150Y31250D02*
D03*
X12300Y14100D02*
D03*
X38500Y29400D02*
D03*
X12050Y20500D02*
D03*
X18850Y12400D02*
D03*
X11259Y10269D02*
D03*
X11850Y4900D02*
D03*
D105*
X42942Y6751D02*
D03*
Y8151D02*
D03*
X39979Y8195D02*
D03*
Y6795D02*
D03*
X28800Y8300D02*
D03*
Y6900D02*
D03*
X31800Y8300D02*
D03*
Y6900D02*
D03*
D106*
X4050Y27700D02*
D03*
X4650D02*
D03*
X6000Y27700D02*
D03*
X6600D02*
D03*
X1224Y16879D02*
D03*
X1824D02*
D03*
X42450Y28800D02*
D03*
X41850D02*
D03*
X41177Y8800D02*
D03*
X41777D02*
D03*
X68219Y27552D02*
D03*
X68819D02*
D03*
X68250Y26750D02*
D03*
X68850D02*
D03*
X68292Y26044D02*
D03*
X68892D02*
D03*
X70548Y24935D02*
D03*
X69948D02*
D03*
X70560Y25629D02*
D03*
X69960D02*
D03*
X68842Y28289D02*
D03*
X68242D02*
D03*
X51938Y14012D02*
D03*
X52539D02*
D03*
X52550Y32900D02*
D03*
X51950D02*
D03*
X30700Y8950D02*
D03*
X30100D02*
D03*
X83700Y20750D02*
D03*
X84300D02*
D03*
X73200Y15700D02*
D03*
X73800D02*
D03*
X72900Y17200D02*
D03*
X73500D02*
D03*
X59009Y8012D02*
D03*
X59609D02*
D03*
X83685Y14450D02*
D03*
X83085D02*
D03*
D107*
X22182Y19291D02*
D03*
X23582D02*
D03*
D108*
X23898Y32387D02*
D03*
Y33787D02*
D03*
D109*
X73975Y8250D02*
D03*
Y3750D02*
D03*
X66025Y8250D02*
D03*
Y3750D02*
D03*
X93975Y8250D02*
D03*
Y3750D02*
D03*
X86025Y8250D02*
D03*
Y3750D02*
D03*
X53975Y8250D02*
D03*
Y3750D02*
D03*
X46025Y8250D02*
D03*
Y3750D02*
D03*
X16025D02*
D03*
Y8250D02*
D03*
X23975Y3750D02*
D03*
Y8250D02*
D03*
D110*
X24152Y29847D02*
D03*
X26352Y30797D02*
D03*
Y28897D02*
D03*
D111*
X7944Y4720D02*
D03*
Y5220D02*
D03*
Y5720D02*
D03*
Y6220D02*
D03*
Y6720D02*
D03*
Y7220D02*
D03*
Y8220D02*
D03*
Y8720D02*
D03*
Y9220D02*
D03*
Y9720D02*
D03*
Y10220D02*
D03*
Y10720D02*
D03*
X6244Y5470D02*
D03*
Y5970D02*
D03*
Y6470D02*
D03*
Y6970D02*
D03*
Y7470D02*
D03*
Y7970D02*
D03*
Y8470D02*
D03*
Y8970D02*
D03*
Y9470D02*
D03*
Y9970D02*
D03*
D112*
Y4670D02*
D03*
Y10770D02*
D03*
D113*
X1800Y18900D02*
D03*
X900D02*
D03*
X51611Y13072D02*
D03*
X52512D02*
D03*
X39079Y19123D02*
D03*
X38179D02*
D03*
X40847Y25683D02*
D03*
X39947D02*
D03*
X37487Y26857D02*
D03*
X36587D02*
D03*
X41113Y21385D02*
D03*
X40213D02*
D03*
X64572Y13938D02*
D03*
X63672D02*
D03*
X48350Y23550D02*
D03*
X47450D02*
D03*
X46939Y24297D02*
D03*
X46039D02*
D03*
X25863Y13401D02*
D03*
X24963D02*
D03*
X11123Y21943D02*
D03*
X12023D02*
D03*
X16673Y22687D02*
D03*
X15773D02*
D03*
X21554Y27841D02*
D03*
X20654D02*
D03*
X17073Y26687D02*
D03*
X16173D02*
D03*
X23868Y27808D02*
D03*
X22968D02*
D03*
X25334Y23396D02*
D03*
X24434D02*
D03*
X32073Y14187D02*
D03*
X32973D02*
D03*
X43140Y5890D02*
D03*
X42240D02*
D03*
X28450Y5800D02*
D03*
X27550D02*
D03*
X30850Y5800D02*
D03*
X29950D02*
D03*
X39855Y5891D02*
D03*
X40755D02*
D03*
X30788Y8074D02*
D03*
X29888D02*
D03*
X42800Y15100D02*
D03*
X43700D02*
D03*
X41882Y7911D02*
D03*
X40982D02*
D03*
X78174Y28550D02*
D03*
X79074D02*
D03*
X14029Y8000D02*
D03*
X13129D02*
D03*
X14050Y6300D02*
D03*
X13150D02*
D03*
X59632Y9051D02*
D03*
X58732D02*
D03*
X73076Y18100D02*
D03*
X72176D02*
D03*
X2547Y23950D02*
D03*
X3447D02*
D03*
D114*
X55786Y5425D02*
D03*
Y6675D02*
D03*
X71500Y10100D02*
D03*
Y11350D02*
D03*
X10100Y5067D02*
D03*
Y6317D02*
D03*
D115*
X43875Y30400D02*
D03*
Y31300D02*
D03*
X45225Y30400D02*
D03*
Y31300D02*
D03*
D116*
X42825Y30850D02*
D03*
X46275D02*
D03*
D117*
X44550Y29625D02*
D03*
Y32075D02*
D03*
D118*
X59600Y5275D02*
D03*
X60500D02*
D03*
X59600Y3925D02*
D03*
X60500D02*
D03*
D119*
X60050Y6325D02*
D03*
Y2875D02*
D03*
D120*
X58825Y4600D02*
D03*
X61275D02*
D03*
D121*
X2700Y15375D02*
D03*
X3100D02*
D03*
X3500D02*
D03*
Y14325D02*
D03*
X3100D02*
D03*
X2700D02*
D03*
D122*
X46796Y25151D02*
D03*
Y26251D02*
D03*
D123*
X35991Y12063D02*
D03*
Y14813D02*
D03*
D124*
X36345Y22635D02*
D03*
D125*
X38770Y24385D02*
D03*
Y23885D02*
D03*
Y23385D02*
D03*
Y22885D02*
D03*
Y22385D02*
D03*
Y21885D02*
D03*
Y21385D02*
D03*
Y20885D02*
D03*
X33920D02*
D03*
Y21385D02*
D03*
Y21885D02*
D03*
Y22385D02*
D03*
Y22885D02*
D03*
Y23385D02*
D03*
Y23885D02*
D03*
Y24385D02*
D03*
D126*
X38095Y20210D02*
D03*
X37595D02*
D03*
X37095D02*
D03*
X36595D02*
D03*
X36095D02*
D03*
X35595D02*
D03*
X35095D02*
D03*
X34595D02*
D03*
Y25060D02*
D03*
X35095D02*
D03*
X35595D02*
D03*
X36095D02*
D03*
X36595D02*
D03*
X37095D02*
D03*
X37595D02*
D03*
X38095D02*
D03*
D127*
X63550Y11650D02*
D03*
X61550D02*
D03*
D128*
X32114Y16143D02*
D03*
X31478Y15506D02*
D03*
X31245Y16881D02*
D03*
X30609Y16244D02*
D03*
D129*
X32591Y18256D02*
D03*
X31955Y17619D02*
D03*
X33468Y17469D02*
D03*
X32832Y16832D02*
D03*
X86614Y26289D02*
D03*
X85978Y25653D02*
D03*
X84168Y23868D02*
D03*
X83532Y23232D02*
D03*
D130*
X20850Y23650D02*
D03*
D131*
X19600Y26175D02*
D03*
X20100D02*
D03*
X20600D02*
D03*
X21100D02*
D03*
X21600D02*
D03*
X22100D02*
D03*
Y21125D02*
D03*
X21600D02*
D03*
X21100D02*
D03*
X20600D02*
D03*
X20100D02*
D03*
X19600D02*
D03*
D132*
X22875Y25400D02*
D03*
Y24900D02*
D03*
Y24400D02*
D03*
Y23900D02*
D03*
Y23400D02*
D03*
Y22900D02*
D03*
Y22400D02*
D03*
Y21900D02*
D03*
X18825D02*
D03*
Y22400D02*
D03*
Y22900D02*
D03*
Y23400D02*
D03*
Y23900D02*
D03*
Y24400D02*
D03*
Y24900D02*
D03*
Y25400D02*
D03*
D133*
X17167Y19349D02*
D03*
Y19899D02*
D03*
D134*
X11185Y24934D02*
D03*
X13985D02*
D03*
X29061Y25706D02*
D03*
X26261D02*
D03*
D135*
X15389Y21745D02*
D03*
X14839D02*
D03*
X15123Y28537D02*
D03*
X14573D02*
D03*
X24364Y22470D02*
D03*
X24914D02*
D03*
D136*
X21637Y31476D02*
D03*
X18587D02*
D03*
X23048Y15637D02*
D03*
X19998D02*
D03*
D137*
X41350Y27862D02*
D03*
D138*
X41865Y28188D02*
D03*
Y27538D02*
D03*
X40835Y28188D02*
D03*
Y27538D02*
D03*
D139*
X33750Y4250D02*
D03*
X35450Y7350D02*
D03*
X33750D02*
D03*
X35450Y4250D02*
D03*
D140*
X4917Y18350D02*
D03*
D141*
X4992Y18850D02*
D03*
Y19350D02*
D03*
Y19850D02*
D03*
Y20350D02*
D03*
X3592D02*
D03*
Y19850D02*
D03*
Y19350D02*
D03*
Y18850D02*
D03*
Y18350D02*
D03*
D142*
X5258Y22350D02*
D03*
X2658D02*
D03*
D143*
X81363Y21890D02*
D03*
X80863D02*
D03*
X80363D02*
D03*
X79863D02*
D03*
X79363D02*
D03*
X78863D02*
D03*
X78363D02*
D03*
X77863D02*
D03*
X77363D02*
D03*
X76863D02*
D03*
X76363D02*
D03*
X75863D02*
D03*
X80863Y14940D02*
D03*
X81363D02*
D03*
X80363D02*
D03*
X79863D02*
D03*
X79363D02*
D03*
X78863D02*
D03*
X78363D02*
D03*
X77863D02*
D03*
X77363D02*
D03*
X76863D02*
D03*
X76363D02*
D03*
X75863D02*
D03*
D144*
X85903Y10390D02*
D03*
X84653D02*
D03*
X17275Y10236D02*
D03*
X16025D02*
D03*
D145*
X83992Y26498D02*
D03*
D146*
X81870D02*
D03*
X83992Y28620D02*
D03*
D147*
X93350Y1450D02*
D03*
X10850Y1600D02*
D03*
X10650Y31400D02*
D03*
D148*
X6592Y14605D02*
D03*
D149*
X5092D02*
D03*
D150*
X78160Y13214D02*
D03*
X77060D02*
D03*
D151*
X71800Y22800D02*
D03*
Y20800D02*
D03*
D152*
X11814Y6317D02*
D03*
Y7917D02*
D03*
D153*
X77625Y27236D02*
D03*
X78975D02*
D03*
Y26186D02*
D03*
X77625D02*
D03*
D154*
X78613Y18415D02*
D03*
D155*
X82088Y21165D02*
D03*
Y20665D02*
D03*
Y20165D02*
D03*
Y19665D02*
D03*
Y19165D02*
D03*
Y18665D02*
D03*
Y18165D02*
D03*
Y17665D02*
D03*
Y17165D02*
D03*
Y16665D02*
D03*
Y16165D02*
D03*
Y15665D02*
D03*
X75138D02*
D03*
Y16165D02*
D03*
Y16665D02*
D03*
Y17165D02*
D03*
Y17665D02*
D03*
Y18165D02*
D03*
Y18665D02*
D03*
Y19165D02*
D03*
Y19665D02*
D03*
Y20165D02*
D03*
Y20665D02*
D03*
Y21165D02*
D03*
D156*
X30773Y9023D02*
Y9170D01*
X30700Y8950D02*
X30773Y9023D01*
Y9170D02*
X30825Y9222D01*
Y11175D01*
X30750Y8113D02*
Y8950D01*
X30500Y11500D02*
X30825Y11175D01*
X52550Y32950D02*
X52600Y32900D01*
X77589Y27250D02*
X77600Y27261D01*
X75863Y21165D02*
X78613Y18415D01*
X80400Y12927D02*
X80473Y13000D01*
X77026Y10211D02*
Y11066D01*
X64100Y15662D02*
X64103Y15659D01*
X64077Y15685D02*
X64100Y15662D01*
X62621Y13414D02*
X62663Y13372D01*
X48400Y24950D02*
X48443Y24993D01*
X48327Y24877D02*
X48400Y24950D01*
X36345Y22635D02*
X38095Y24385D01*
X34595D02*
X36345Y22635D01*
X20100Y24400D02*
Y26175D01*
X38300Y13350D02*
Y14050D01*
X41926Y10123D02*
Y11148D01*
Y8999D02*
Y10123D01*
X33791Y14036D02*
Y14050D01*
X24724Y11077D02*
Y11279D01*
X41777Y8800D02*
X41850Y8873D01*
X41750Y8773D02*
X41777Y8800D01*
X41882Y7911D02*
X41891Y7902D01*
X41754Y8039D02*
X41882Y7911D01*
X40755Y5941D02*
X41441D01*
X30788Y8074D02*
X30800Y8063D01*
X30750Y8113D02*
X30788Y8074D01*
X21078Y18666D02*
X21114D01*
X20572D02*
X21078D01*
X7100Y10800D02*
X7572D01*
X6274D02*
X7100D01*
X7629Y10743D02*
X7944D01*
Y4720D02*
X8800D01*
X6294D02*
X7944D01*
X41601Y11473D02*
X41926Y11148D01*
X41850Y8923D02*
X41926Y8999D01*
X41850Y8873D02*
Y8923D01*
X41133Y8756D02*
X41204Y8827D01*
X41278Y9328D02*
Y10121D01*
X41204Y9254D02*
X41278Y9328D01*
X41204Y8827D02*
Y9254D01*
X40235Y12583D02*
X40577D01*
X40625Y12631D01*
X39974Y11474D02*
Y12322D01*
X40235Y12583D01*
X40625Y12631D02*
Y13975D01*
X30285Y14145D02*
X30541Y14401D01*
X30175Y13826D02*
X30285Y13936D01*
X30175Y12850D02*
Y13826D01*
X30285Y13936D02*
Y14145D01*
X30825Y13688D02*
X30945Y13808D01*
Y13955D02*
X31163Y14173D01*
X30825Y12850D02*
Y13688D01*
X30945Y13808D02*
Y13955D01*
X41276Y12823D02*
Y14324D01*
X41068Y14532D02*
X41276Y14324D01*
X41900Y12848D02*
X41925Y12823D01*
X41900Y12848D02*
Y15100D01*
X42500Y13747D02*
X42562Y13685D01*
Y13029D02*
Y13685D01*
X42500Y13747D02*
Y13800D01*
X42550Y9100D02*
Y10162D01*
Y9100D02*
X42792Y8858D01*
Y8386D02*
Y8858D01*
Y8386D02*
X42942Y8236D01*
X40300Y8925D02*
X40625Y9250D01*
X40300Y8418D02*
Y8925D01*
X39250Y9250D02*
X40625D01*
Y10123D01*
X39874Y8200D02*
X40082D01*
X40300Y8418D01*
X39268Y15332D02*
X40625Y13975D01*
X31477Y9300D02*
Y10112D01*
X31600Y8400D02*
X31700Y8300D01*
X31477Y9300D02*
X31600Y9177D01*
Y8400D02*
Y9177D01*
X30173Y9023D02*
Y10148D01*
X26224Y12229D02*
X27371D01*
X29525Y9225D02*
Y10150D01*
X29423Y9123D02*
X29525Y9225D01*
X31523Y13000D02*
X32172D01*
X31475Y12850D02*
Y12952D01*
X31523Y13000D01*
X32172D02*
X32200Y13028D01*
X29573Y13100D02*
Y15209D01*
X30609Y16244D01*
X29000Y13100D02*
X29573D01*
Y12898D02*
Y13100D01*
X29525Y12850D02*
X29573Y12898D01*
X64012Y16491D02*
X64077Y16425D01*
Y15685D02*
Y16425D01*
X60000Y6897D02*
Y6950D01*
Y6897D02*
X60050Y6847D01*
X70208Y27822D02*
X70273D01*
X70017Y28013D02*
X70208Y27822D01*
X69838Y28013D02*
X70017D01*
X69800Y28050D02*
X69838Y28013D01*
X3550Y17000D02*
X4073D01*
X4100Y16973D01*
X27221Y11034D02*
X27226Y11030D01*
X26874Y11034D02*
X27221D01*
X26629Y11279D02*
X26874Y11034D01*
X26629Y11279D02*
X26952Y11602D01*
X26224Y11279D02*
X26629D01*
X27284Y11602D02*
X27329Y11647D01*
X26952Y11602D02*
X27284D01*
X20961Y19694D02*
X21089Y19566D01*
X20773Y20202D02*
Y20255D01*
Y20202D02*
X20961Y20013D01*
Y19694D02*
Y20013D01*
X24524Y20318D02*
X24621Y20221D01*
X24412Y21507D02*
X24524Y21395D01*
Y20318D02*
Y21395D01*
X30078Y5928D02*
Y6218D01*
X29950Y5800D02*
X30078Y5928D01*
Y6218D02*
X30231Y6371D01*
X41777Y28923D02*
X41850Y28850D01*
Y28800D02*
Y28850D01*
X41527Y28923D02*
X41777D01*
X41275Y29175D02*
X41527Y28923D01*
X63637Y18300D02*
X65950Y15987D01*
X79650Y2400D02*
Y3000D01*
X77191Y3138D02*
X77199Y3146D01*
X77103D02*
X77112Y3138D01*
X77199Y3146D02*
X78028D01*
X77112Y3138D02*
X77191D01*
X21102Y20668D02*
Y21123D01*
Y20668D02*
X21348Y20422D01*
X22547Y10603D02*
Y12281D01*
Y10603D02*
X22748Y10402D01*
X23151D01*
X15135Y16549D02*
Y17474D01*
X14300Y18374D02*
X15135D01*
Y19467D01*
X84300Y20755D02*
X84373Y20828D01*
X84725D02*
X84897Y21000D01*
X84950D01*
X84300Y20750D02*
Y20755D01*
X84373Y20828D02*
X84725D01*
X14335Y20100D02*
X14373Y20137D01*
X14335Y19537D02*
Y20100D01*
X14237Y19439D02*
X14335Y19537D01*
X17968Y11532D02*
X18000Y11500D01*
X17181Y11532D02*
X17968D01*
X55049Y33722D02*
X55115Y33655D01*
Y31154D02*
Y33655D01*
X24962Y22422D02*
X25172D01*
X25321Y21498D02*
Y22273D01*
X24914Y22470D02*
X24962Y22422D01*
X25172D02*
X25321Y22273D01*
X25334Y23396D02*
X26046D01*
X26050Y23400D01*
X23648Y22802D02*
X23982Y22468D01*
X23269Y22802D02*
X23648D01*
X23982Y22468D02*
X24365D01*
X24412Y22422D01*
X35450Y7347D02*
X35452Y7345D01*
X35450Y7347D02*
Y7350D01*
X59581Y5255D02*
X59600Y5274D01*
Y5275D01*
X59581Y3973D02*
Y5256D01*
X41520Y25568D02*
X41573D01*
X40847Y25683D02*
X40862Y25668D01*
X41420D01*
X41520Y25568D01*
X41000Y6650D02*
Y7250D01*
X42412Y7450D02*
X42600D01*
X42340Y7377D02*
X42412Y7450D01*
X26297Y10256D02*
X26514D01*
X26885Y9884D01*
X27166D02*
X27200Y9850D01*
X26885Y9884D02*
X27166D01*
X26224Y10329D02*
X26297Y10256D01*
X25472Y10329D02*
X26224D01*
X24450Y11554D02*
X24724Y11279D01*
X27551Y13201D02*
X27800Y13450D01*
X20602Y10641D02*
X20623Y10661D01*
X33920Y24385D02*
X34595D01*
X38095D02*
Y25060D01*
X37093Y19007D02*
Y19557D01*
Y19007D02*
X38082Y18018D01*
X61341Y14124D02*
X62027Y14810D01*
X61341Y11859D02*
Y14124D01*
X62027Y14884D02*
X62077Y14934D01*
Y15639D01*
X62027Y14810D02*
Y14884D01*
X62077Y15639D02*
X62100Y15662D01*
X62000Y13450D02*
X62036Y13414D01*
X62621D01*
X61341Y11859D02*
X61550Y11650D01*
X63125Y15687D02*
Y16537D01*
X63388Y16800D01*
X64103Y14747D02*
Y15659D01*
Y14747D02*
X64459Y14391D01*
Y14050D02*
Y14391D01*
Y14050D02*
X64572Y13938D01*
X75238Y21165D02*
X75863D01*
X66908Y29400D02*
X67085Y29577D01*
X67327D01*
X67400Y29650D01*
X65838Y28900D02*
X66950D01*
X67027Y28977D02*
X67277D01*
X67350Y29050D01*
X66950Y28900D02*
X67027Y28977D01*
X67350Y29050D02*
X67400D01*
X65838Y29400D02*
X66908D01*
X68300Y29950D02*
Y30650D01*
X68300Y30650D01*
X68300Y29050D02*
X68300Y29050D01*
X67523Y29773D02*
X67700Y29950D01*
X68300D01*
X67400Y29050D02*
X68300D01*
X42450Y28100D02*
Y28800D01*
X42777Y31310D02*
X42825Y31262D01*
X42253Y31400D02*
X42343Y31310D01*
X42825Y30850D02*
Y31262D01*
X42200Y31400D02*
X42253D01*
X43923Y26677D02*
Y27376D01*
X43900Y27398D02*
X43923Y27376D01*
Y26677D02*
X43950Y26650D01*
X40436Y31343D02*
X40450Y31328D01*
X41479Y31364D02*
X41482Y31360D01*
X41479Y31364D02*
Y31988D01*
X40436Y31343D02*
Y32011D01*
X40414Y32033D02*
X40436Y32011D01*
X41479Y32588D02*
Y33229D01*
X41500Y33250D01*
X40436Y32911D02*
Y33602D01*
X40454Y33620D01*
X38481Y32033D02*
X40414D01*
X21602Y26613D02*
X22207Y27218D01*
Y27237D01*
X21602Y26177D02*
Y26613D01*
X21600Y26175D02*
X21602Y26177D01*
X14050Y28300D02*
X14103D01*
X14525Y28489D02*
X14573Y28537D01*
X32869Y18378D02*
X33241Y18750D01*
X35150D01*
X33587Y17469D02*
X34368Y18250D01*
X35250D01*
X31163Y14173D02*
X32059D01*
X30541Y14401D02*
Y14570D01*
X31478Y15506D01*
X32973Y14187D02*
Y14877D01*
X32059Y14173D02*
X32073Y14187D01*
X36095Y19095D02*
Y20210D01*
X35250Y18250D02*
X36095Y19095D01*
X35150Y18750D02*
X35600Y19200D01*
X33468Y17469D02*
X33587D01*
X36595Y17985D02*
X37293Y17287D01*
X36595Y17985D02*
Y20210D01*
X35595D02*
X35600Y20205D01*
Y19200D02*
Y20205D01*
X38102Y25067D02*
Y25808D01*
X38079Y25830D02*
X38102Y25808D01*
X38095Y25060D02*
X38102Y25067D01*
X38079Y25830D02*
Y26121D01*
X38050Y26150D02*
X38079Y26121D01*
X38537Y27450D02*
X38994Y27906D01*
X38500Y28400D02*
Y29400D01*
X38994Y27906D02*
X39382Y28295D01*
X38500Y28400D02*
X38994Y27906D01*
X38855Y26195D02*
X39250Y25800D01*
X39150Y25700D02*
X39167Y25683D01*
X38615Y27097D02*
X38855Y26856D01*
X38665Y27147D02*
Y27200D01*
X38537Y27328D02*
Y27450D01*
Y27328D02*
X38665Y27200D01*
X39900Y26753D02*
X39970Y26823D01*
Y27395D01*
X39900Y26700D02*
Y26753D01*
X39970Y27395D02*
X39995D01*
X38855Y26195D02*
Y26856D01*
X36857Y27450D02*
X38537D01*
X39167Y25683D02*
X39947D01*
X41972Y27525D02*
X42873D01*
X36708Y27301D02*
X36857Y27450D01*
X36459Y26729D02*
X36708Y26978D01*
Y27301D01*
X39144Y24394D02*
X39921Y25171D01*
X41812Y28240D02*
Y28800D01*
X52550Y32950D02*
Y33600D01*
X52600Y31138D02*
Y32900D01*
X64550Y29600D02*
X64800Y29350D01*
Y29200D02*
Y29350D01*
X57750Y32900D02*
X57800Y32950D01*
X57150Y32900D02*
X57750D01*
X65838Y27400D02*
X65849Y27389D01*
X28445Y10100D02*
X28573Y10228D01*
Y10349D01*
X28600Y10377D02*
Y12700D01*
X29000Y13100D01*
X28350Y10100D02*
X28445D01*
X28573Y10349D02*
X28600Y10377D01*
X29900Y6750D02*
Y7450D01*
X38250Y12450D02*
Y12500D01*
Y11800D02*
Y12450D01*
Y11800D02*
X38250Y11800D01*
X33700Y11850D02*
X33700Y11850D01*
X33700Y11850D02*
Y12500D01*
X31177Y6677D02*
X31477D01*
X30958Y6458D02*
X31177Y6677D01*
X30958Y5908D02*
Y6458D01*
X30850Y5800D02*
X30958Y5908D01*
X31477Y6677D02*
X31600Y6800D01*
X27550Y6250D02*
X28100Y6800D01*
X29000D02*
X29100Y6900D01*
X28100Y6800D02*
X29000D01*
X31600D02*
Y6900D01*
X30800Y7400D02*
Y8063D01*
X29894Y7456D02*
X29900Y7450D01*
X29888Y8074D02*
X29894Y8069D01*
Y7456D02*
Y8069D01*
X30016Y8202D02*
Y8373D01*
X30020Y8376D02*
Y8679D01*
X30027Y8686D02*
Y8827D01*
X29888Y8074D02*
X30016Y8202D01*
Y8373D02*
X30020Y8376D01*
Y8679D02*
X30027Y8686D01*
Y8827D02*
X30100Y8900D01*
Y8950D02*
X30173Y9023D01*
X30100Y8900D02*
Y8950D01*
X44300Y15100D02*
X44300Y15100D01*
X43700Y15100D02*
X43700Y15100D01*
X44300D01*
X39268Y15332D02*
Y15382D01*
X41068Y14532D02*
Y15032D01*
X41000Y15100D02*
X41068Y15032D01*
X40990Y7260D02*
Y7903D01*
Y7260D02*
X41000Y7250D01*
X40982Y7911D02*
X40990Y7903D01*
X40982Y7911D02*
Y8211D01*
X41133Y8363D02*
Y8756D01*
X40982Y8211D02*
X41133Y8363D01*
X41750Y8213D02*
X41754Y8209D01*
X41891Y7309D02*
X41900Y7300D01*
X41754Y8039D02*
Y8209D01*
X41750Y8213D02*
Y8773D01*
X41891Y7309D02*
Y7902D01*
X31700Y8300D02*
X31800D01*
X29123Y8523D02*
Y8623D01*
X29423Y8923D01*
X28800Y8300D02*
X28900D01*
X29123Y8523D01*
X29423Y8923D02*
Y9123D01*
X24724Y11077D02*
X25472Y10329D01*
X39879Y4652D02*
Y6695D01*
X39979Y6795D01*
X42942Y6836D02*
X43140Y6638D01*
Y5890D02*
Y6638D01*
X42670Y4400D02*
X43050Y4780D01*
X43082Y5831D02*
X43140Y5890D01*
X43082Y5382D02*
Y5831D01*
X43050Y5350D02*
X43082Y5382D01*
X43050Y4780D02*
Y5350D01*
X27550Y5700D02*
Y6250D01*
X27565Y4365D02*
Y5685D01*
X27550Y5700D02*
X27565Y5685D01*
Y4365D02*
X27580Y4350D01*
Y4630D01*
X30850Y5500D02*
Y5800D01*
X30775Y5006D02*
Y5426D01*
X30120Y4350D02*
X30775Y5006D01*
Y5426D02*
X30850Y5500D01*
X39350Y10850D02*
X39974Y11474D01*
X76730Y23627D02*
X77027D01*
X76500Y23450D02*
X76553D01*
X77027Y23627D02*
X77100Y23700D01*
X76553Y23450D02*
X76730Y23627D01*
X88150Y25800D02*
Y25848D01*
X87821Y26177D02*
Y26225D01*
Y26177D02*
X88150Y25848D01*
X29285Y5787D02*
X29298Y5800D01*
X29950D01*
X29200Y5800D02*
X29200Y5800D01*
X28450Y5800D02*
X29200D01*
X41441Y5941D02*
X41450Y5950D01*
X41500D02*
X41511Y5939D01*
X42190D01*
X39879Y4652D02*
X40130Y4400D01*
X46025Y3725D02*
X46050Y3700D01*
X46025Y3725D02*
Y3750D01*
X6244Y4670D02*
X6294Y4720D01*
X80886Y14500D02*
Y15017D01*
Y14500D02*
X81311Y14075D01*
X65036Y24877D02*
X65815D01*
X64100Y23942D02*
X65036Y24877D01*
X65815D02*
X65838Y24900D01*
X64100Y21400D02*
Y23942D01*
X82784Y12186D02*
X82800Y12202D01*
Y12800D01*
X80863Y15040D02*
X80886Y15017D01*
X81835Y14075D02*
X82210Y13700D01*
X82800D01*
X81311Y14075D02*
X81835D01*
X80473Y13000D02*
X80500D01*
X80400Y12450D02*
Y12927D01*
X52550Y32900D02*
X52550Y32900D01*
Y31896D02*
X52577Y31869D01*
X52550Y31896D02*
Y32900D01*
X53550Y34500D02*
X53550Y34500D01*
X53550Y33800D02*
Y34500D01*
X51050Y33850D02*
Y34500D01*
X33700Y13600D02*
Y14050D01*
X46939Y24322D02*
Y25028D01*
X46816Y25151D02*
X46939Y25028D01*
X46796Y25151D02*
X46816D01*
X45650Y24900D02*
Y25350D01*
X45700Y25400D01*
X45400Y24600D02*
Y24650D01*
X45650Y24900D01*
X48400Y24950D02*
X48450Y24900D01*
X50362D01*
X47750Y24605D02*
X48022Y24877D01*
X47750Y24600D02*
Y24605D01*
X48022Y24877D02*
X48327D01*
X45924Y24412D02*
X46039Y24297D01*
X45588Y24412D02*
X45924D01*
X45400Y24600D02*
X45588Y24412D01*
X46800Y23550D02*
X47450D01*
X46800Y23550D02*
X46800Y23550D01*
X48947D02*
X48997Y23600D01*
X48350Y23550D02*
X48947D01*
X48997Y23600D02*
X49050D01*
X48350Y23550D02*
X48400Y23601D01*
Y24350D01*
X48450Y24400D01*
X50362D01*
X45550Y26300D02*
X45599Y26251D01*
X46796D01*
X49627Y25427D02*
X49631Y25423D01*
X47323Y25427D02*
X49627D01*
X50339Y25423D02*
X50362Y25400D01*
X49631Y25423D02*
X50339D01*
X47046Y25151D02*
X47323Y25427D01*
X47271Y26128D02*
X47499Y25900D01*
X50362D01*
X46919Y26128D02*
X47271D01*
X46796Y26251D02*
X46919Y26128D01*
X46796Y25151D02*
X47046D01*
X47500Y27450D02*
X47990Y26960D01*
X48435D02*
X48495Y26900D01*
X47990Y26960D02*
X48435D01*
X38300Y14050D02*
X38300Y14050D01*
X28450Y9200D02*
X29391D01*
X39350Y10300D02*
Y10850D01*
X17275Y10236D02*
X17311Y10200D01*
X17900D01*
X50900Y13400D02*
X51137Y13163D01*
X50900Y13400D02*
Y13450D01*
X51137Y13163D02*
X51520D01*
X51611Y13072D01*
X51418Y14022D02*
X51429Y14012D01*
X51938D01*
X52822Y13072D02*
X53150Y13400D01*
X52512Y13072D02*
X52822D01*
X52544Y14006D02*
X53094D01*
X52539Y14012D02*
X52544Y14006D01*
X53094D02*
X53100Y14000D01*
X62663Y13222D02*
Y13372D01*
X61900Y16900D02*
X62250D01*
X62585Y16565D01*
Y15678D02*
X62600Y15662D01*
X62585Y15678D02*
Y16565D01*
X64561Y13411D02*
Y13927D01*
X64572Y13938D01*
X64550Y13400D02*
X64561Y13411D01*
X46950Y20900D02*
X46975Y20875D01*
X47586D02*
X47611Y20850D01*
X46975Y20875D02*
X47586D01*
X48427Y20673D02*
Y20701D01*
X48500Y20600D02*
X48550D01*
X48427Y20673D02*
X48500Y20600D01*
X48278Y20850D02*
X48427Y20701D01*
X47611Y20850D02*
X48278D01*
X48550Y20600D02*
X49100D01*
X48550Y20600D02*
X48550Y20600D01*
X49300Y20400D02*
X50362D01*
X49100Y20600D02*
X49300Y20400D01*
X46950Y19950D02*
X46950Y19950D01*
X47611D01*
X48500D01*
X48550Y20000D01*
X48700Y19900D02*
X50362D01*
Y19400D02*
Y19900D01*
X42800Y15100D02*
X42800Y15100D01*
X41900Y15100D02*
X42800D01*
X40068Y16032D02*
X40777Y15323D01*
X41000Y15100D02*
Y15195D01*
X40068Y16032D02*
Y16082D01*
X40777Y15323D02*
X40872D01*
X41000Y15195D01*
X37929Y16651D02*
X37999D01*
X38632Y16018D01*
X38718Y17382D02*
X39382Y16718D01*
X39432D01*
X37095Y19559D02*
Y20210D01*
X37093Y19557D02*
X37095Y19559D01*
X31245Y16910D02*
X31955Y17619D01*
X32142Y16143D02*
X32832Y16832D01*
X15208Y19540D02*
X15213D01*
X15135Y19467D02*
X15208Y19540D01*
X61842Y4592D02*
X61850Y4600D01*
X55800Y4800D02*
Y5411D01*
X55786Y5425D02*
X55800Y5411D01*
X58096Y9061D02*
X58106Y9051D01*
X58732D01*
X60174D02*
X60196Y9073D01*
X59632Y9051D02*
X60174D01*
X59615Y8006D02*
X60144D01*
X59609Y8012D02*
X59615Y8006D01*
X60144D02*
X60150Y8000D01*
X58412Y8012D02*
X59009D01*
X41122Y20699D02*
Y21376D01*
X41113Y21385D02*
X41122Y21376D01*
X39491Y21385D02*
X40213D01*
X38770D02*
X39491D01*
X40213D02*
X40213Y21385D01*
X39685Y19123D02*
X39690Y19127D01*
X39079Y19123D02*
X39685D01*
X43830Y30398D02*
X43832Y30400D01*
X43850D01*
X39995Y27395D02*
X40138Y27538D01*
X38126Y26857D02*
X38135Y26866D01*
X37487Y26857D02*
X38126D01*
X35583Y27824D02*
X35589Y27819D01*
Y27219D02*
Y27819D01*
X34551Y27844D02*
X34567Y27828D01*
Y27218D02*
Y27828D01*
X33547Y27873D02*
X33551Y27870D01*
Y27219D02*
Y27870D01*
X32450Y25450D02*
X32454Y25446D01*
Y24769D02*
Y25446D01*
X35589Y25066D02*
X35595Y25060D01*
X35589Y25066D02*
Y26319D01*
X34720Y25930D02*
X35095Y25555D01*
X34567Y26318D02*
X34592D01*
X34720Y26190D01*
Y25930D02*
Y26190D01*
X35095Y25060D02*
Y25555D01*
X34258Y25192D02*
X34574D01*
X34595Y25060D02*
Y25170D01*
X34574Y25192D02*
X34595Y25170D01*
X33618Y25832D02*
X34258Y25192D01*
X33551Y26319D02*
X33618Y26252D01*
Y25832D02*
Y26252D01*
X33653Y23876D02*
X33911D01*
X33647Y23869D02*
X33653Y23876D01*
X32454Y23869D02*
X33647D01*
X33911Y23876D02*
X33920Y23885D01*
X32454Y24769D02*
X33231D01*
X33911Y24394D02*
X33920Y24385D01*
X33606Y24394D02*
X33911D01*
X33231Y24769D02*
X33606Y24394D01*
X40138Y27538D02*
X40835D01*
X41865D02*
X41868Y27535D01*
X41963D01*
X41972Y27525D01*
X42873D02*
X43000Y27398D01*
X37770Y19226D02*
X38076D01*
X37595Y19349D02*
Y20210D01*
X38076Y19226D02*
X38179Y19123D01*
X38779Y24394D02*
X39144D01*
X38770Y24385D02*
X38779Y24394D01*
X39921Y25171D02*
Y25657D01*
X39947Y25683D01*
X36095Y25060D02*
Y25899D01*
X36146Y25950D01*
Y26105D02*
X36459Y26419D01*
X36146Y25950D02*
Y26105D01*
X36459Y26419D02*
Y26729D01*
X39382Y28295D02*
X39970D01*
X40077Y28188D01*
X40835D01*
X68387Y18224D02*
Y18920D01*
X68378Y18928D02*
X68387Y18920D01*
X68376Y16649D02*
X68387Y16660D01*
Y17324D01*
X67400Y17998D02*
Y18600D01*
X67376Y17974D02*
X67400Y17998D01*
X68337Y17374D02*
X68387Y17324D01*
X67376Y17374D02*
X68337D01*
X65838Y17400D02*
X67350D01*
X67376Y17374D01*
X64977Y28423D02*
X65815D01*
X65838Y28400D01*
X64800Y28600D02*
X64977Y28423D01*
X64800Y28600D02*
Y29200D01*
X65815Y29377D02*
X65838Y29400D01*
X64977Y29377D02*
X65815D01*
X64800Y29200D02*
X64977Y29377D01*
X63550Y11223D02*
Y11650D01*
Y11223D02*
X63823Y10950D01*
X70050Y23050D02*
X71550D01*
X71800Y22800D01*
X70078Y21522D02*
X70100Y21500D01*
X70078Y21522D02*
Y22122D01*
X70050Y22150D02*
X70078Y22122D01*
X48495Y26900D02*
X50362D01*
X53103Y32053D02*
X53467Y32417D01*
Y32817D02*
X53550Y32900D01*
X53467Y32417D02*
Y32817D01*
X53103Y31142D02*
Y32053D01*
X53100Y31138D02*
X53103Y31142D01*
X58700Y32950D02*
X59650D01*
X33594Y7506D02*
Y8601D01*
Y7506D02*
X33750Y7350D01*
X33495Y8700D02*
X33594Y8601D01*
X35450Y7350D02*
X35606Y7506D01*
Y8589D02*
X35701Y8684D01*
X35606Y7506D02*
Y8589D01*
X15200Y25130D02*
X15226Y25104D01*
X15200Y25130D02*
Y25800D01*
X51950Y32400D02*
X52100Y32250D01*
Y31138D02*
Y32250D01*
X51950Y32400D02*
Y32900D01*
X51050Y32950D02*
X51900D01*
X51950Y32900D01*
X50250Y32950D02*
X51050D01*
X55100Y31138D02*
X55115Y31154D01*
X63672Y11772D02*
Y13938D01*
X63550Y11650D02*
X63672Y11772D01*
X62600Y15662D02*
X62613Y15649D01*
Y14222D02*
Y15649D01*
X63600Y14010D02*
Y15662D01*
Y14010D02*
X63672Y13938D01*
X12398Y22862D02*
Y23962D01*
Y22812D02*
Y22862D01*
X12023Y22487D02*
X12398Y22862D01*
X12023Y21943D02*
Y22487D01*
X12050Y20500D02*
Y21916D01*
X12023Y21943D02*
X12050Y21916D01*
X16950Y29250D02*
X16950Y29250D01*
X16950Y28500D02*
Y29250D01*
X12398Y22812D02*
X13126Y22084D01*
X12744Y22947D02*
X12898Y22793D01*
X12744Y23157D02*
X12998Y23412D01*
X12744Y22947D02*
Y23157D01*
X13791Y22793D02*
X14839Y21745D01*
X12898Y22793D02*
X13791D01*
X12361Y23924D02*
X12398Y23962D01*
X11459Y23924D02*
X12361D01*
X10823Y24561D02*
X11459Y23924D01*
X16025Y10411D02*
X16279Y10664D01*
X16025Y10236D02*
Y10411D01*
X16279Y10664D02*
Y11500D01*
X16025Y8250D02*
Y10236D01*
X17437Y22687D02*
X17750Y23000D01*
X16573Y22687D02*
X17437D01*
X17750Y23000D02*
Y23001D01*
X18147Y23398D01*
X76200Y11811D02*
Y11823D01*
X73204Y17893D02*
Y18046D01*
X73427Y17323D02*
Y17670D01*
X73150Y18100D02*
X73204Y18046D01*
Y17893D02*
X73427Y17670D01*
X73204Y17947D02*
X73256D01*
X73076Y18075D02*
Y18100D01*
Y18075D02*
X73204Y17947D01*
X73353Y17850D02*
X73850D01*
X71628Y17947D02*
X71665Y17985D01*
X72061D02*
X72176Y18100D01*
X71665Y17985D02*
X72061D01*
X72347Y11350D02*
X72397Y11400D01*
X72450D01*
X71500Y11350D02*
X72347D01*
X74931Y13099D02*
X74977D01*
X34065Y5165D02*
X34600Y5700D01*
Y8700D01*
X33750Y4250D02*
X34065Y4565D01*
Y5165D01*
X53975Y6975D02*
Y8250D01*
Y6975D02*
X54275Y6675D01*
X55786D01*
X55861Y6600D02*
X56771D01*
X55786Y6675D02*
X55861Y6600D01*
X53975Y8250D02*
X54100D01*
X38770Y23885D02*
X39485D01*
X51611Y13072D02*
X51717Y13177D01*
Y13500D01*
X51866Y13649D02*
Y13939D01*
X51717Y13500D02*
X51866Y13649D01*
Y13939D02*
X51938Y14012D01*
X52512Y13072D02*
X52539Y13099D01*
Y14012D01*
X52600Y14073D02*
Y15662D01*
X52539Y14012D02*
X52600Y14073D01*
X51900Y14050D02*
Y14600D01*
Y14050D02*
X51938Y14012D01*
X52077Y14777D02*
Y15639D01*
X52100Y15662D01*
X51900Y14600D02*
X52077Y14777D01*
X28892Y23192D02*
Y25537D01*
X26532Y21564D02*
X27264D01*
X28892Y23192D01*
X26453Y21564D02*
X26532D01*
X28892Y25537D02*
X29061Y25706D01*
X24065Y23953D02*
X24950D01*
X25429Y24432D02*
X25788D01*
X26261Y24905D02*
Y25706D01*
X25788Y24432D02*
X26261Y24905D01*
X24950Y23953D02*
X25429Y24432D01*
X8800Y4116D02*
X8801Y4115D01*
X8800Y4720D02*
X9176D01*
X8800Y4116D02*
Y4720D01*
X9176D02*
X9276Y4820D01*
X7956Y8708D02*
X9708D01*
X7944Y8720D02*
X7956Y8708D01*
X9710Y10808D02*
X9763D01*
X7944Y10720D02*
X9622D01*
X9710Y10808D01*
X7572Y10800D02*
X7629Y10743D01*
X6244Y10770D02*
X6274Y10800D01*
X5300Y6418D02*
X5829Y6947D01*
X6221D01*
X6244Y6970D01*
X5300Y2926D02*
X6651Y1575D01*
X5300Y2926D02*
Y6418D01*
X23151Y10402D02*
X23224Y10329D01*
X26457Y22468D02*
X27204D01*
X27223Y22487D01*
X16231Y18902D02*
X16253Y18924D01*
X16209Y17835D02*
X16231Y17857D01*
Y18902D01*
X17535Y22059D02*
X18374Y22898D01*
X18361Y22304D02*
X18433D01*
X19876Y19715D02*
Y19740D01*
X17364Y19447D02*
X17583D01*
X17109Y17835D02*
Y19291D01*
X17215Y19397D01*
X17314D01*
X17364Y19447D01*
X16253Y19824D02*
X16328Y19899D01*
X17167D01*
X17563Y20295D01*
X17622D01*
X17802Y20475D01*
X17583Y19447D02*
X18310Y20174D01*
X11123Y21187D02*
Y21943D01*
X13356Y22084D02*
X13484Y21956D01*
X13126Y22084D02*
X13356D01*
X17802Y21746D02*
X18361Y22304D01*
X14891Y21056D02*
X15341Y21505D01*
Y21697D01*
X15703Y22059D01*
X17123D01*
X17178Y22004D01*
Y21364D02*
Y22004D01*
Y21364D02*
X17292Y21478D01*
X17123Y22059D02*
X17535D01*
X15286Y19613D02*
X15528D01*
X15213Y19540D02*
X15286Y19613D01*
X15528D02*
X15739Y19824D01*
X16253D01*
X13612Y22084D02*
X14067D01*
X13484Y21056D02*
X14891D01*
X14067Y22084D02*
X14248Y22265D01*
X13484Y21956D02*
X13612Y22084D01*
X24412Y21507D02*
Y22422D01*
X18823Y24902D02*
X18825Y24900D01*
X18303Y24902D02*
X18823D01*
X22102Y21025D02*
X22459D01*
X22875Y23400D02*
X22877Y23398D01*
X23173Y22898D02*
X23269Y22802D01*
X22877Y23398D02*
X23723D01*
X23731Y23390D01*
X23734Y23393D01*
X22875Y25400D02*
Y25870D01*
X22013Y31524D02*
X22076Y31587D01*
X23749Y31687D02*
X23898Y31836D01*
X22875Y23900D02*
X24012D01*
X22875Y24400D02*
X24241D01*
X24012Y23900D02*
X24065Y23953D01*
X24241Y24400D02*
X24565Y24724D01*
X24660D01*
X26438Y22449D02*
X26457Y22468D01*
X26002Y31097D02*
X26202D01*
X25411Y21502D02*
X26391D01*
X25321Y21498D02*
X25364Y21455D01*
X25411Y21502D01*
X26391D02*
X26438Y21549D01*
X26453Y21564D01*
X26206Y20204D02*
X26223Y20187D01*
X25521Y20221D02*
X25538Y20204D01*
X26206D01*
X19723Y19587D02*
X19748D01*
X19876Y19715D01*
Y19740D02*
X20081Y19945D01*
X21089Y19566D02*
X21114D01*
X22182Y19291D02*
X22223Y19250D01*
X22100Y21027D02*
Y21125D01*
Y21027D02*
X22102Y21025D01*
X22459D02*
X22873Y20611D01*
X18310Y21681D02*
X18529Y21900D01*
X17802Y20475D02*
Y21746D01*
X18310Y20174D02*
Y21681D01*
X18433Y22304D02*
X18529Y22400D01*
X18147Y23398D02*
X18823D01*
X18374Y22898D02*
X18823D01*
X18529Y22400D02*
X18825D01*
X18529Y21900D02*
X18825D01*
X18823Y22898D02*
X18825Y22900D01*
X18106Y24996D02*
X18209D01*
X17141Y25478D02*
Y25573D01*
Y25478D02*
X17269Y25350D01*
X17753D01*
X18106Y24996D01*
X18209D02*
X18303Y24902D01*
X17141Y24358D02*
Y25478D01*
X15226Y24504D02*
X15254Y24532D01*
X20598Y26177D02*
Y26546D01*
Y26177D02*
X20600Y26175D01*
X21098Y26177D02*
Y26662D01*
Y26177D02*
X21100Y26175D01*
X20100Y21125D02*
X20102Y21123D01*
X20081Y19945D02*
Y20245D01*
X20106Y20270D01*
X20102Y20273D02*
Y21123D01*
Y20273D02*
X20106Y20270D01*
X20600Y21125D02*
X20602Y21123D01*
Y20408D02*
Y21123D01*
X18823Y23398D02*
X18825Y23400D01*
X21100Y21125D02*
X21102Y21123D01*
X20100Y24400D02*
X20850Y23650D01*
X20423Y18815D02*
Y19237D01*
Y18815D02*
X20572Y18666D01*
X19723Y18687D02*
X19851Y18559D01*
X20198D01*
X20232Y18524D01*
X20385D02*
X20423Y18487D01*
X20232Y18524D02*
X20385D01*
X23423Y31587D02*
X23523Y31687D01*
X23749D01*
X25629Y28624D02*
Y28824D01*
X26002Y29197D02*
X26202D01*
X25629Y28824D02*
X26002Y29197D01*
X22875Y25870D02*
X25629Y28624D01*
X24573Y26387D02*
X24828Y26132D01*
Y25752D02*
Y26132D01*
X24700Y25624D02*
X24828Y25752D01*
X24660Y25624D02*
X24700D01*
X23734Y23393D02*
X24431D01*
X24434Y23396D01*
X77600Y27261D02*
Y28150D01*
X77847Y28397D02*
X78046D01*
X77600Y28150D02*
X77847Y28397D01*
X78046D02*
X78174Y28525D01*
X77600Y28150D02*
Y28150D01*
X81356Y22600D02*
X81772Y23016D01*
X81050Y22600D02*
X81356D01*
X80886Y22436D02*
X81050Y22600D01*
X80886Y21813D02*
Y22436D01*
X80863Y21790D02*
X80886Y21813D01*
X80550Y22853D02*
X80964Y23267D01*
X80550Y22850D02*
Y22853D01*
X80386Y22483D02*
X80512Y22609D01*
X80964Y23267D02*
X81014D01*
X80386Y21813D02*
Y22483D01*
X74315Y15720D02*
X74319D01*
X74381Y15781D01*
Y15825D02*
X74698Y16142D01*
X75215D01*
X74381Y15781D02*
Y15825D01*
X73833Y15748D02*
X73871Y15710D01*
X74305D02*
X74315Y15720D01*
X73871Y15710D02*
X74305D01*
X16002Y3683D02*
X16069Y3750D01*
X11823Y6309D02*
X11850Y6282D01*
X11814Y6317D02*
X11823Y6309D01*
X16069Y3750D02*
X23975D01*
X74725Y20184D02*
X74745Y20165D01*
X72873Y20527D02*
X73235Y20165D01*
X74290D02*
X74310Y20184D01*
X72464Y20527D02*
X72873D01*
X73235Y20165D02*
X74290D01*
X74745D02*
X75238D01*
X74310Y20184D02*
X74725D01*
X72175Y20816D02*
X72464Y20527D01*
X76950Y27250D02*
X77589D01*
X76314Y27448D02*
X76752D01*
X76950Y27250D01*
X76250Y27511D02*
X76314Y27448D01*
X78975Y27236D02*
X79074Y27336D01*
Y28550D01*
X76250Y27578D02*
Y28200D01*
X79888Y22712D02*
Y23100D01*
Y22712D02*
X79900Y22700D01*
X79864Y22664D02*
X79900Y22700D01*
X79864Y21791D02*
Y22664D01*
X80363Y21790D02*
X80386Y21813D01*
X78356Y21796D02*
X78363Y21790D01*
X78356Y21796D02*
Y22694D01*
X78350Y22700D02*
X78356Y22694D01*
X77363Y21790D02*
Y22657D01*
X77273Y22746D02*
X77363Y22657D01*
X77273Y22746D02*
Y22799D01*
X78312Y22737D02*
X78350Y22700D01*
X78312Y22737D02*
Y23627D01*
X78200Y23700D02*
X78240D01*
X78312Y23627D01*
X77843Y14438D02*
X77863Y14458D01*
Y15040D01*
X77843Y13781D02*
Y14438D01*
Y13781D02*
X78160Y13464D01*
Y13214D02*
Y13464D01*
Y13214D02*
X78167Y13207D01*
X79363Y24513D02*
X79700Y24850D01*
Y26840D01*
X79363Y21790D02*
Y24513D01*
X56911Y471D02*
X56927Y486D01*
X73427Y17323D02*
X73550Y17200D01*
X84205Y21487D02*
X84242Y21524D01*
X84100Y21382D02*
X84205Y21487D01*
X84258D01*
X84195D02*
X84205D01*
X83773Y21065D02*
X84195Y21487D01*
X84258D02*
X84295Y21524D01*
X83773Y20823D02*
Y21065D01*
X83350Y20750D02*
X83700D01*
X83265Y20665D02*
X83350Y20750D01*
X81988Y20665D02*
X83265D01*
X7591Y3363D02*
X7725Y3497D01*
X9763Y10808D02*
X9771Y10800D01*
X79551Y26988D02*
X79700Y26840D01*
X79223Y26988D02*
X79551D01*
X78975Y27236D02*
X79223Y26988D01*
X78900Y26111D02*
X78975Y26186D01*
X78900Y25250D02*
Y26111D01*
X78282Y25060D02*
Y25579D01*
X77625Y26186D02*
X77675D01*
X78282Y25579D01*
Y25060D02*
X78863Y24479D01*
X77200Y26561D02*
X77575Y26186D01*
X76250Y26561D02*
X77200D01*
X77575Y26186D02*
X77625D01*
X78175Y10430D02*
Y11000D01*
X78000Y10255D02*
X78175Y10430D01*
X78000Y10202D02*
Y10255D01*
X78167Y11908D02*
Y13207D01*
Y11908D02*
X78175Y11900D01*
X77038Y13193D02*
Y13443D01*
X77055Y11905D02*
Y13209D01*
X77050Y11900D02*
X77055Y11905D01*
Y13209D02*
X77060Y13214D01*
X77363Y13767D02*
Y15040D01*
X77038Y13443D02*
X77363Y13767D01*
X78161Y10986D02*
X78175Y11000D01*
X77018Y10202D02*
X77026Y10211D01*
Y11066D02*
X77084Y11124D01*
X84242Y21524D02*
X84295D01*
X7551Y1575D02*
X7571Y1595D01*
Y2433D01*
X7591Y2453D02*
Y3363D01*
X7571Y2433D02*
X7591Y2453D01*
X9771Y9836D02*
Y10800D01*
Y9836D02*
X9779Y9828D01*
X78863Y21790D02*
Y24479D01*
X77848Y21805D02*
Y23002D01*
Y21805D02*
X77863Y21790D01*
X77150Y23700D02*
X77848Y23002D01*
X77100Y23700D02*
X77150D01*
X79863Y21790D02*
X79864Y21791D01*
X74114Y21650D02*
X74217Y21547D01*
X74089Y21675D02*
X74114Y21650D01*
X83700Y20750D02*
X83773Y20823D01*
X73433Y21110D02*
X73665Y20878D01*
X73380Y21110D02*
X73433D01*
X73961Y20878D02*
X74089Y20750D01*
X73665Y20878D02*
X73961D01*
X73476Y21675D02*
X74089D01*
X73353Y21798D02*
X73476Y21675D01*
X73300Y21798D02*
X73353D01*
X74114Y20750D02*
X74176Y20688D01*
X74089Y20750D02*
X74114D01*
X74176Y20688D02*
X75215D01*
Y18688D02*
X75238Y18665D01*
X74900Y11800D02*
X74916Y11816D01*
Y12483D01*
X74931Y12499D01*
X73195Y15760D02*
X73208Y15773D01*
X72400Y15798D02*
X72438Y15760D01*
X73195D01*
X73884Y11816D02*
X73900Y11800D01*
X73884Y11816D02*
Y12483D01*
X73867Y12499D02*
X73884Y12483D01*
X85544Y17031D02*
X85559Y17015D01*
X86385D01*
X86400Y17000D01*
X72238Y17138D02*
X72838D01*
X72900Y17200D01*
X72200Y17100D02*
X72238Y17138D01*
X75215Y16142D02*
X75238Y16165D01*
X73550Y17200D02*
X73900D01*
X74359Y17659D01*
X75232D02*
X75238Y17665D01*
X74359Y17659D02*
X75232D01*
X74731Y21547D02*
X75136Y21142D01*
X74217Y21547D02*
X74731D01*
X75215Y20688D02*
X75238Y20665D01*
X81988D02*
X82011Y20688D01*
X82552D01*
X85544Y19795D02*
X85589Y19750D01*
X86345D01*
X86383Y19712D01*
X78863Y21790D02*
X78883Y21810D01*
X75996Y12027D02*
Y12499D01*
Y12027D02*
X76200Y11823D01*
X83685Y14500D02*
X83758Y14573D01*
X83915D02*
X84328Y14986D01*
X83685Y14450D02*
Y14500D01*
X83758Y14573D02*
X83915D01*
X81772Y23016D02*
X81932D01*
X82060Y23144D01*
D157*
X86480Y28983D02*
X87232Y29735D01*
X86467Y28970D02*
X86480Y28983D01*
X88139Y27814D02*
X88646Y28321D01*
X85950Y28200D02*
X86467Y28717D01*
Y28970D01*
D158*
X83521Y22051D02*
X84759D01*
X86448Y21100D02*
X86771D01*
X13985Y23849D02*
Y24934D01*
Y23849D02*
X14433Y23402D01*
X17217D01*
X79450Y3150D02*
X79600Y3000D01*
X78932Y3150D02*
X79450D01*
X78928Y3146D02*
X78932Y3150D01*
X86950Y21501D02*
X86989Y21540D01*
X86448Y21100D02*
X86507Y21041D01*
Y20993D02*
Y21041D01*
X86950Y21279D02*
Y21501D01*
X86771Y21100D02*
X86950Y21279D01*
X86989Y21540D02*
Y21643D01*
X87016Y21670D01*
X22968Y27808D02*
X22969Y27809D01*
Y28430D01*
X23000Y28461D01*
Y28500D01*
X15563Y26663D02*
X16172D01*
X15550Y26650D02*
X15563Y26663D01*
X16172D02*
X16173Y26662D01*
X10100Y4239D02*
Y5067D01*
Y4239D02*
X10150Y4189D01*
Y4150D02*
Y4189D01*
X84381Y28231D02*
X84943D01*
X84974Y28200D01*
X83992Y28620D02*
X84381Y28231D01*
X84974Y28200D02*
X85950D01*
X7528Y7672D02*
X9107D01*
X7150Y8050D02*
Y8650D01*
Y8050D02*
X7528Y7672D01*
X81300Y13350D02*
X81300Y13350D01*
X81850D01*
X81026Y13599D02*
X81275Y13350D01*
X80459Y13599D02*
X81026D01*
X81275Y13350D02*
X81300D01*
X80411Y13648D02*
X80459Y13599D01*
X15552Y25797D02*
X15579Y25770D01*
X15203Y25797D02*
X15552D01*
X15200Y25800D02*
X15203Y25797D01*
X15579Y25770D02*
X16138D01*
X9925Y6317D02*
X10100D01*
X8920Y6220D02*
X9017Y6317D01*
X9925D01*
X7944Y6220D02*
X8920D01*
X9107Y7672D02*
X9371Y7408D01*
X6244Y8970D02*
X6830D01*
X7150Y8650D01*
X7470Y9220D02*
X7944D01*
X7150Y8900D02*
X7470Y9220D01*
X7150Y8650D02*
Y8900D01*
X21411Y27172D02*
X21451Y27212D01*
Y27738D01*
X21554Y27841D01*
X21411Y27132D02*
Y27172D01*
X17217Y23402D02*
X17715Y23900D01*
X18825D01*
X15751Y21166D02*
X16176D01*
X16278Y21269D01*
Y21364D01*
X15483Y20937D02*
X15522D01*
X15751Y21166D01*
X15023Y22687D02*
X15773D01*
X22100Y26175D02*
Y26420D01*
X22605Y26925D01*
X23048D01*
X23766Y27643D02*
Y27706D01*
X23868Y27808D01*
X23048Y26925D02*
X23766Y27643D01*
X16950Y28500D02*
X17039Y28411D01*
X16138Y24504D02*
X16241Y24401D01*
X16138Y25770D02*
X16241Y25668D01*
Y25573D02*
Y25668D01*
X15226Y24504D02*
X16138D01*
X16241Y24358D02*
Y24401D01*
X10008Y4975D02*
X10100Y5067D01*
X9276Y4820D02*
X9431Y4975D01*
X10008D01*
X84510Y10390D02*
X84528Y10372D01*
X84500Y10400D02*
X84510Y10390D01*
X84653D01*
X83943D02*
X84510D01*
X78102Y24348D02*
X78152D01*
X77728Y24722D02*
X78102Y24348D01*
X77728Y24722D02*
Y24922D01*
X78152Y24348D02*
X78200Y24300D01*
X77700Y24950D02*
X77728Y24922D01*
X76850Y25061D02*
X77100Y24811D01*
Y24300D02*
Y24811D01*
X76850Y25061D02*
Y25100D01*
X86550Y23900D02*
Y23920D01*
X86043Y24427D02*
Y24447D01*
Y24427D02*
X86550Y23920D01*
X86614Y26289D02*
Y26290D01*
X79950Y23867D02*
X80000D01*
X80048Y23914D02*
Y24258D01*
X80300Y24511D01*
X80000Y23867D02*
X80048Y23914D01*
X80300Y24511D02*
Y24550D01*
X81007Y23874D02*
X81014Y23867D01*
X81007Y23874D02*
Y24543D01*
X81000Y24550D02*
X81007Y24543D01*
X84759Y22051D02*
X84811Y22000D01*
X84850D01*
X84586Y11614D02*
X84614Y11641D01*
X81727Y24787D02*
X81932Y24582D01*
Y24147D02*
Y24582D01*
X81727Y24787D02*
Y24826D01*
X81932Y24147D02*
X82035Y24044D01*
X83503Y22034D02*
X83521Y22051D01*
X80365Y14628D02*
Y15038D01*
X80411Y13648D02*
Y14583D01*
X80363Y15040D02*
X80365Y15038D01*
Y14628D02*
X80411Y14583D01*
X9371Y6871D02*
X9925Y6317D01*
X9371Y6871D02*
Y7408D01*
D159*
X37400Y12450D02*
X38250D01*
X36009Y11750D02*
X36607Y12348D01*
X35528Y12081D02*
X35859Y11750D01*
X35261Y12348D02*
X35528Y12081D01*
X35859Y11750D02*
X36009D01*
X35450Y4250D02*
X35450Y4250D01*
X35450Y4250D02*
X35450D01*
X26712Y12802D02*
X26859Y12950D01*
X26900D01*
X26224Y12802D02*
X26712D01*
X26224Y12229D02*
Y12802D01*
X22209Y28246D02*
Y28287D01*
Y28246D02*
X22273Y28182D01*
X33700Y12500D02*
X35112D01*
X36800Y12550D02*
X37247D01*
X36607Y12357D02*
X36800Y12550D01*
X36607Y12348D02*
Y12357D01*
X35261Y12348D02*
Y12351D01*
X35112Y12500D02*
X35261Y12351D01*
X6930Y6470D02*
X7180Y6220D01*
X6244Y6470D02*
X6930D01*
X7180Y6220D02*
X7944D01*
X17532Y26580D02*
X18125Y25987D01*
Y25963D02*
X18527Y25561D01*
Y25402D02*
Y25561D01*
X22748Y15137D02*
X22873Y15262D01*
Y20611D01*
X20654Y27106D02*
Y27841D01*
X17180Y26580D02*
X17532D01*
X20654Y27106D02*
X21098Y26662D01*
D160*
X20623Y10661D02*
Y11200D01*
X61263Y18300D02*
X63637D01*
X53100Y26463D02*
Y31138D01*
Y26463D02*
X61263Y18300D01*
X65300Y10950D02*
X65950Y11600D01*
Y15987D01*
X63823Y10950D02*
X65300D01*
X22062Y19411D02*
Y19585D01*
X21708Y19939D02*
Y19966D01*
Y19939D02*
X22062Y19585D01*
X21698Y19976D02*
Y20072D01*
X21348Y20422D02*
X21698Y20072D01*
X22062Y19411D02*
X22182Y19291D01*
X21698Y19976D02*
X21708Y19966D01*
X26250Y14150D02*
Y15400D01*
X24684Y13321D02*
X24908D01*
X24963Y13376D01*
Y13401D01*
X24450Y11554D02*
Y13086D01*
X24684Y13321D01*
X26841Y13850D02*
X26850D01*
X20609Y11207D02*
Y11750D01*
X22207Y27237D02*
X22217Y27247D01*
Y28238D01*
X26224Y15374D02*
X26250Y15400D01*
X22599Y12229D02*
X23224D01*
X18973Y20202D02*
X19598Y20827D01*
D161*
X44450Y24250D02*
X46800Y21900D01*
X48250D01*
X44450Y24250D02*
Y26550D01*
X45150Y27250D01*
X46950D01*
X47800Y26400D01*
X82674Y17677D02*
X82800Y17550D01*
X81999Y17677D02*
X82674D01*
X82800Y17550D02*
X84050D01*
X85350Y16250D01*
X84011Y17165D02*
X85226Y15950D01*
X81988Y17165D02*
X84011D01*
X70807Y26150D02*
X71115Y26458D01*
X69414Y25908D02*
X69656Y26150D01*
X70807D01*
X69500Y28400D02*
X70700Y29600D01*
X71500D01*
X68953Y28400D02*
X69500D01*
X68842Y28289D02*
X68953Y28400D01*
X28000Y30400D02*
X28050Y30450D01*
X28000Y28200D02*
Y30400D01*
X26398Y31712D02*
X26400Y31715D01*
Y33110D01*
X26139Y33371D02*
X26400Y33110D01*
X36900Y30750D02*
Y32050D01*
X36500Y30350D02*
X36900Y30750D01*
X34050Y30350D02*
X36500D01*
X31900Y28200D02*
X34050Y30350D01*
X28000Y28200D02*
X31900D01*
X17929Y27421D02*
X18200Y27150D01*
X16200Y28000D02*
X16779Y27421D01*
X17929D01*
X5855Y18550D02*
X10452D01*
X12700Y15400D02*
Y16301D01*
X10452Y18550D02*
X12700Y16301D01*
X4992Y18850D02*
X10576D01*
X13000Y15550D02*
Y16426D01*
X10576Y18850D02*
X13000Y16426D01*
X13300Y15674D02*
Y16550D01*
X5825Y19150D02*
X10700D01*
X13300Y16550D01*
X15075Y13825D02*
X15100Y13800D01*
X15075Y13825D02*
Y14111D01*
X14636Y14550D02*
X15075Y14111D01*
X14000Y13914D02*
X14593Y13321D01*
Y13107D02*
Y13321D01*
X12700Y15400D02*
X14000Y14100D01*
Y13914D02*
Y14100D01*
X14424Y14550D02*
X14636D01*
X13300Y15674D02*
X14424Y14550D01*
X13000Y15550D02*
X14450Y14100D01*
X51479Y26821D02*
X51537Y26764D01*
Y26597D02*
X51550Y26583D01*
Y23150D02*
Y26583D01*
X51537Y26597D02*
Y26764D01*
X56400Y24250D02*
X57200Y23450D01*
X59421D01*
X56400Y24250D02*
Y25100D01*
X57300Y23800D02*
X59200D01*
X56700Y24400D02*
Y26100D01*
Y24400D02*
X57300Y23800D01*
X54550Y26950D02*
X56400Y25100D01*
X55850Y26950D02*
X56700Y26100D01*
X56100Y28371D02*
X58000Y26471D01*
Y24513D02*
Y26471D01*
X56100Y28371D02*
Y31138D01*
X55600Y28250D02*
Y31138D01*
Y28250D02*
X57300Y26550D01*
Y24550D02*
Y26550D01*
X52250Y25650D02*
Y27750D01*
X60150Y17750D02*
X63674D01*
X52250Y25650D02*
X60150Y17750D01*
X51950Y25400D02*
X59900Y17450D01*
X63550D01*
X51950Y25400D02*
Y27400D01*
X57925Y24275D02*
X57983Y24332D01*
Y24496D01*
X58000Y24513D01*
X59200Y23800D02*
X64100Y28700D01*
X59421Y23450D02*
X63872Y27900D01*
X51600Y28400D02*
X52250Y27750D01*
X51600Y28400D02*
Y29450D01*
Y27750D02*
X51950Y27400D01*
X51250Y27400D02*
X51600Y27750D01*
X50362Y27400D02*
X51250D01*
X79500Y12281D02*
Y13000D01*
X79400Y12100D02*
Y12181D01*
X79354Y13146D02*
X79500Y13000D01*
X79400Y12181D02*
X79500Y12281D01*
X79354Y13146D02*
Y15031D01*
X65500Y13100D02*
Y15924D01*
X65050Y12650D02*
X65500Y13100D01*
X65050Y11550D02*
Y12650D01*
X65200Y13300D02*
Y15800D01*
X64382Y12482D02*
X65200Y13300D01*
X64382Y11540D02*
Y12482D01*
X21600Y21125D02*
X21635Y21090D01*
Y20795D02*
X22243Y20187D01*
X21635Y20795D02*
Y21090D01*
X22243Y20187D02*
X22273D01*
X85257Y20642D02*
X85424D01*
X85607Y20825D02*
Y20993D01*
X85424Y20642D02*
X85607Y20825D01*
X82260Y20192D02*
X84807D01*
X85257Y20642D01*
X70600Y13450D02*
Y15144D01*
Y12747D02*
Y13450D01*
X69005Y11152D02*
X70600Y12747D01*
X71500Y14375D02*
Y15620D01*
X75469Y10281D02*
X76200Y9550D01*
X78750D01*
X80350Y11150D01*
X85815D01*
X69698Y25454D02*
X69835D01*
X69480Y25235D02*
X69698Y25454D01*
X67915Y25235D02*
X69480D01*
X900Y18900D02*
Y19850D01*
X850Y19900D02*
X900Y19850D01*
X1000Y17829D02*
Y17924D01*
X1180Y18104D01*
X1775Y18850D02*
X2528D01*
X1620Y18538D02*
Y18695D01*
X1186Y18104D02*
X1620Y18538D01*
X1180Y18104D02*
X1186D01*
X1620Y18695D02*
X1775Y18850D01*
X2528D02*
X3150D01*
X1779Y19900D02*
X2600D01*
X3150Y19350D01*
X4992D02*
X5022Y19379D01*
X4688Y19350D02*
X4992D01*
X5022Y19379D02*
X5595D01*
X5825Y19150D01*
X4947Y18320D02*
X5626D01*
X4917Y18350D02*
X4947Y18320D01*
X5626D02*
X5855Y18550D01*
X4992Y18850D02*
X4992Y18850D01*
X1824Y16879D02*
X1900Y16954D01*
Y17829D01*
X2175Y18104D02*
X2421Y18350D01*
X3150D01*
X1900Y17829D02*
Y17924D01*
X2080Y18104D01*
X2175D01*
X6600Y27700D02*
X14800D01*
X15123Y28023D01*
Y28537D01*
X70740Y19590D02*
X75163D01*
X69850Y18700D02*
X70740Y19590D01*
X69850Y16660D02*
Y18700D01*
X70890Y19290D02*
X73962D01*
X70200Y18600D02*
X70890Y19290D01*
X70200Y16500D02*
Y18600D01*
X48550Y16625D02*
X52843D01*
X48051D02*
X48550D01*
Y15850D02*
Y16625D01*
X47823Y16852D02*
X48051Y16625D01*
X47549Y16852D02*
X47823D01*
X47548Y16852D02*
X47549Y16852D01*
X47500Y14800D02*
X48550Y15850D01*
X41515Y22885D02*
X47548Y16852D01*
X38770Y22885D02*
X41515D01*
X47571Y17629D02*
X48250Y16950D01*
X46851Y18349D02*
X47586D01*
X47571Y18333D02*
X47586Y18349D01*
X41815Y23385D02*
X46851Y18349D01*
X47571Y17629D02*
Y18333D01*
X4025Y14325D02*
X4050Y14350D01*
X3500Y14325D02*
X4025D01*
X4025Y15375D02*
X4050Y15350D01*
X3500Y15375D02*
X4025D01*
X62846Y13558D02*
X63012D01*
X63100Y13645D01*
X62666Y13378D02*
X62846Y13558D01*
X63100Y13645D02*
Y13858D01*
X63100Y14697D02*
Y15662D01*
X63125Y15687D01*
X63388Y16884D02*
X63424Y16920D01*
X63388Y16800D02*
Y16884D01*
X63171Y13929D02*
Y14626D01*
X63100Y14697D02*
X63171Y14626D01*
X63100Y13858D02*
X63171Y13929D01*
X65050Y7150D02*
X68400D01*
X70200Y8950D02*
Y11400D01*
X68400Y7150D02*
X70200Y8950D01*
Y11400D02*
X70850Y12050D01*
X64750Y7450D02*
X65050Y7150D01*
X59450Y7450D02*
X64750D01*
X67950Y9036D02*
Y14250D01*
X67980Y8494D02*
X68050Y8564D01*
X67980Y8370D02*
X68250Y8100D01*
X67980Y8370D02*
Y8494D01*
X68050Y8564D02*
Y8936D01*
X67600Y8750D02*
Y14410D01*
X67950Y9036D02*
X68050Y8936D01*
X67600Y14410D02*
X69236Y16046D01*
X68929Y25908D02*
X69414D01*
X68219Y27552D02*
Y28266D01*
X68242Y28289D01*
X68320Y25899D02*
Y26679D01*
X68250Y26750D02*
X68320Y26679D01*
X66750Y26400D02*
X67915Y25235D01*
X69835Y25454D02*
X69960Y25579D01*
Y25629D01*
X68920Y25899D02*
X68929Y25908D01*
X65838Y26400D02*
X66750D01*
X67715Y24935D02*
X69948D01*
X66750Y25900D02*
X67715Y24935D01*
X65838Y25900D02*
X66750D01*
X70560Y25779D02*
X70588Y25750D01*
X71300D01*
X71600Y26050D01*
Y27610D01*
X71985Y24935D02*
X73254Y26204D01*
X71250Y24935D02*
X71985D01*
X73254Y26204D02*
Y27584D01*
X70548Y24935D02*
X71250D01*
X75050Y24050D02*
Y27550D01*
Y24050D02*
X76863Y22237D01*
X70988Y18938D02*
X74112D01*
X70600Y18550D02*
X70988Y18938D01*
X70086Y15831D02*
Y15886D01*
X69986Y15650D02*
Y15731D01*
X70086Y15831D01*
Y15886D02*
X70600Y16400D01*
X74309Y19165D02*
X75238D01*
X73962Y19290D02*
X74184D01*
X73962Y19290D02*
X73962Y19290D01*
X74184D02*
X74309Y19165D01*
X75163Y19590D02*
X75238Y19665D01*
X43000Y26700D02*
Y27398D01*
X14292Y28489D02*
X14525D01*
X14103Y28300D02*
X14292Y28489D01*
X16200Y28000D02*
Y28350D01*
X16050Y28500D02*
X16200Y28350D01*
X15123Y28537D02*
X16013D01*
X14593Y13107D02*
X14650Y13050D01*
X4688Y19350D02*
X4688Y19350D01*
X4762Y20350D02*
X4837Y20425D01*
X65838Y25900D02*
X65838Y25900D01*
X58550Y6550D02*
X59450Y7450D01*
X27581Y27781D02*
X28000Y28200D01*
X62600Y32700D02*
X62600Y32700D01*
X62600Y31138D02*
Y32700D01*
X71500Y14375D02*
Y15620D01*
X70600Y15144D02*
X72075Y16619D01*
X69000Y13969D02*
X71025Y15994D01*
X69000Y13150D02*
Y13969D01*
X71025Y15994D02*
Y18325D01*
X74100Y15000D02*
X74750D01*
X73432Y14332D02*
X74100Y15000D01*
X52100Y17900D02*
X52500Y17500D01*
X50362Y17900D02*
X52100D01*
X51670Y19500D02*
X52500D01*
X50437Y18975D02*
X51145D01*
X51670Y19500D01*
X50362Y18900D02*
X50437Y18975D01*
X54500Y19500D02*
Y20600D01*
X52700Y22400D02*
X54500Y20600D01*
X5050Y15500D02*
X5092Y15458D01*
Y14605D02*
Y15458D01*
X6550Y15550D02*
X6592Y15508D01*
Y14605D02*
Y15508D01*
X67350Y21400D02*
X69600Y23650D01*
X73700D01*
X74379Y22971D01*
X47800Y26400D02*
X50362D01*
X51300Y22900D02*
X51550Y23150D01*
X50362Y22900D02*
X51300D01*
X85903Y11061D02*
Y11732D01*
Y10390D02*
Y11061D01*
X85815Y11150D02*
X85903Y11061D01*
Y11732D02*
X85920Y11748D01*
Y11698D02*
Y11748D01*
X51550Y29400D02*
X51600Y29450D01*
X50362Y29400D02*
X51550D01*
X56821Y6550D02*
X58550D01*
X54322Y16793D02*
X54437Y16677D01*
X54439D01*
X54107Y16793D02*
X54322D01*
X54050Y16850D02*
X54107Y16793D01*
X54439Y16677D02*
X54527Y16589D01*
Y15735D02*
Y16589D01*
Y15735D02*
X54600Y15662D01*
X54100Y14550D02*
Y15662D01*
X47500Y14113D02*
Y14800D01*
X52975Y16400D02*
Y16493D01*
Y16400D02*
X53025Y16350D01*
Y15737D02*
X53100Y15662D01*
X53025Y15737D02*
Y16350D01*
X52843Y16625D02*
X52975Y16493D01*
X53091Y16950D02*
X53577Y16465D01*
X48250Y16950D02*
X53091D01*
X45700Y16487D02*
X45845Y16343D01*
X45700Y16487D02*
Y17798D01*
X41608Y21890D02*
X45700Y17798D01*
X47523Y16127D02*
Y16357D01*
X47296Y16584D02*
Y16626D01*
X41537Y22385D02*
X47296Y16626D01*
Y16584D02*
X47523Y16357D01*
X38770Y22385D02*
X41537D01*
X63674Y17750D02*
X65500Y15924D01*
X63550Y17450D02*
X65200Y15800D01*
X73254Y27584D02*
X73383Y27713D01*
X71497D02*
X71600Y27610D01*
X72523Y28750D02*
X73381Y29608D01*
X78936Y12664D02*
X78950Y12650D01*
X78936Y12664D02*
Y14743D01*
X74379Y22971D02*
X75459Y21891D01*
X15600Y11500D02*
X16279D01*
X25568Y27781D02*
X27581D01*
X24624Y26837D02*
X25568Y27781D01*
X24340Y26837D02*
X24624D01*
X23525Y26022D02*
X24340Y26837D01*
X23163Y24900D02*
X23313Y25050D01*
X23320D01*
X23525Y25255D02*
Y26022D01*
X22875Y24900D02*
X23163D01*
X23320Y25050D02*
X23525Y25255D01*
X70850Y12050D02*
X72200D01*
X75106Y13340D02*
X76288Y14522D01*
Y14965D01*
X76363Y15040D01*
X75106Y13224D02*
Y13340D01*
X74450Y12786D02*
X74847Y13183D01*
X73249Y13099D02*
X73867D01*
X74099D01*
X75788Y14640D02*
X75863Y14715D01*
X75640Y14640D02*
X75788D01*
X74099Y13099D02*
X75640Y14640D01*
X75863Y14715D02*
Y15040D01*
X74750Y15000D02*
X75033Y15283D01*
X75056Y15665D02*
X75238D01*
X75033Y15642D02*
X75056Y15665D01*
X75033Y15283D02*
Y15642D01*
X70600Y16400D02*
Y18550D01*
X71828Y18605D02*
X73424D01*
X73429Y18600D01*
X71300D02*
X71823D01*
X71025Y18325D02*
X71300Y18600D01*
X71823D02*
X71828Y18605D01*
X73803Y18600D02*
X74240Y18163D01*
X73429Y18600D02*
X73803D01*
X74112Y18938D02*
X74385Y18665D01*
X75238D01*
X67950Y14250D02*
X70200Y16500D01*
X69236Y16046D02*
X69850Y16660D01*
X74240Y18163D02*
X75236D01*
X69236Y16046D02*
X69236D01*
X71500Y10100D02*
X71524Y10076D01*
X73157D01*
X72200Y12050D02*
X73249Y13099D01*
X71500Y13550D02*
Y15620D01*
X71450Y13500D02*
X71500Y13550D01*
X72075Y16619D02*
X74059D01*
X74605Y17165D01*
X75238D01*
X63872Y27900D02*
X65838D01*
X64100Y28700D02*
Y31138D01*
X63100Y29353D02*
X63150Y29303D01*
X63100Y29353D02*
Y31138D01*
X63150Y29250D02*
Y29303D01*
X39865Y21890D02*
X41608D01*
X53577Y15685D02*
X53600Y15662D01*
X53577Y15685D02*
Y16465D01*
X38770Y21885D02*
X39860D01*
X39865Y21890D01*
X38770Y23385D02*
X41815D01*
X54100Y15662D02*
X54100Y15662D01*
X35701Y9584D02*
Y10156D01*
X35703Y10148D02*
Y10157D01*
X35701Y10156D02*
X35703Y10157D01*
X34600Y10232D02*
X34616Y10248D01*
X34600Y9600D02*
Y10232D01*
X33490Y10248D02*
X33495Y10243D01*
Y9600D02*
Y10243D01*
X83135Y15665D02*
X83150Y15650D01*
X81988Y15665D02*
X83135D01*
X81988Y18665D02*
X83812D01*
X83993Y18693D02*
X84050Y18750D01*
X84129D02*
X84288Y18909D01*
X84050Y18750D02*
X84129D01*
X83840Y18693D02*
X83993D01*
X84288Y18909D02*
X85530D01*
X83812Y18665D02*
X83840Y18693D01*
X83859Y16665D02*
X85074Y15450D01*
X81988Y16665D02*
X83859D01*
X85074Y15450D02*
X85400D01*
X85850Y15000D01*
X83935Y16165D02*
X85100Y15000D01*
X81988Y16165D02*
X83935D01*
X52147Y21950D02*
X52200D01*
X50375Y21888D02*
X52085D01*
X52147Y21950D01*
X50362Y21900D02*
X50375Y21888D01*
X50362Y22400D02*
X52700D01*
X50362Y17900D02*
X50362Y17900D01*
X56771Y6600D02*
X56821Y6550D01*
X36907Y25961D02*
X37095Y25774D01*
Y25060D02*
Y25774D01*
X85544Y17931D02*
X86590D01*
X84772D02*
X85544D01*
X23462Y22398D02*
X23673Y22187D01*
Y21287D02*
Y22187D01*
X18823Y24402D02*
X18825Y24400D01*
X22875Y22400D02*
X22877Y22398D01*
X23462D01*
X25295Y33371D02*
X26139D01*
X17823Y24427D02*
X17848Y24402D01*
X18823D01*
X18973Y26187D02*
X19004Y26156D01*
X19598D01*
X81363Y14828D02*
Y15040D01*
X81438Y14753D02*
X81650D01*
X81915Y14488D01*
X82262D01*
X81363Y14828D02*
X81438Y14753D01*
X82262Y14488D02*
X82300Y14450D01*
X75459Y21891D02*
X75793D01*
X75840Y21938D01*
X81988Y17665D02*
X81999Y17677D01*
X71500Y15620D02*
X72199Y16319D01*
X88265Y20140D02*
Y20193D01*
X88550Y16488D02*
Y19855D01*
X88265Y20140D02*
X88550Y19855D01*
X88012Y15950D02*
X88550Y16488D01*
X87888Y16250D02*
X88250Y16612D01*
Y19400D01*
X87850Y19800D02*
X88250Y19400D01*
X75923Y13026D02*
X75996Y13099D01*
X75469Y12814D02*
X75681Y13026D01*
X75996Y13542D02*
X76863Y14409D01*
X75681Y13026D02*
X75923D01*
X75996Y13099D02*
Y13542D01*
X75469Y10281D02*
Y12814D01*
X76863Y21790D02*
Y22237D01*
X87454Y20196D02*
X87850Y19800D01*
X87850D01*
X86833Y20196D02*
X87454D01*
X85350Y16250D02*
X87888D01*
X85226Y15950D02*
X88012D01*
X74450Y11100D02*
Y12786D01*
X73353Y10003D02*
X74450Y11100D01*
X85903Y8372D02*
X86025Y8250D01*
X79354Y15031D02*
X79363Y15040D01*
X78886Y14793D02*
X78936Y14743D01*
X78863Y15040D02*
X78886Y15017D01*
Y14793D02*
Y15017D01*
X75840Y21813D02*
Y21938D01*
Y21813D02*
X75863Y21790D01*
X81988Y20165D02*
X82011Y20188D01*
X82256D01*
X82260Y20192D01*
X81988Y19665D02*
X82001Y19677D01*
X83099D02*
X83111Y19690D01*
X82001Y19677D02*
X83099D01*
X82135Y21165D02*
X82136Y21166D01*
X82848D02*
X82849Y21167D01*
X81988Y21165D02*
X82135D01*
X82136Y21166D02*
X82848D01*
X76863Y14409D02*
Y15040D01*
X84616Y17966D02*
X84650Y18000D01*
X83864Y17966D02*
X84616D01*
X75236Y18163D02*
X75238Y18165D01*
X78354Y15031D02*
X78363Y15040D01*
X78345Y14230D02*
X78354Y14239D01*
Y15031D01*
X82300Y14450D02*
X83085D01*
X79859Y14259D02*
Y15036D01*
X79856Y14256D02*
X79859Y14259D01*
Y15036D02*
X79863Y15040D01*
X81988Y19165D02*
X82011Y19188D01*
X83554D02*
X83578Y19212D01*
X82011Y19188D02*
X83554D01*
X16025Y8250D02*
X23876D01*
X74941Y16592D02*
X74991Y16642D01*
X74295Y16319D02*
X74568Y16592D01*
X74941D01*
X74991Y16642D02*
X75215D01*
X72199Y16319D02*
X74295D01*
X75215Y16642D02*
X75238Y16665D01*
X82352Y18190D02*
X83640D01*
X82011Y18188D02*
X82350D01*
X82352Y18190D01*
X83640D02*
X83864Y17966D01*
X81988Y18165D02*
X82011Y18188D01*
X86590Y17931D02*
X87503Y17018D01*
X85530Y18909D02*
X85544Y18895D01*
X87495Y18903D02*
X87503Y18910D01*
X85544Y18895D02*
X85552Y18903D01*
X87495D01*
D162*
X60050Y6325D02*
Y6847D01*
X42343Y31310D02*
X42777D01*
D163*
X4324Y23957D02*
X6970D01*
X7342Y24329D01*
Y24479D01*
X7373Y24510D01*
Y25529D01*
X7702Y25858D01*
X2600Y22350D02*
Y25796D01*
D164*
X87185Y26861D02*
X87186D01*
X88139Y27814D01*
X83992Y26215D02*
X84154Y26053D01*
X83992Y26215D02*
Y26498D01*
X84154Y25101D02*
Y26053D01*
X81513Y21965D02*
X81621D01*
X82095Y22439D01*
X82739D02*
X83532Y23232D01*
X82095Y22439D02*
X82739D01*
X84137Y25083D02*
X84154Y25101D01*
X84168Y23868D02*
X84747Y24447D01*
X85976Y25653D02*
X85978D01*
X85407Y25083D02*
Y25083D01*
X85976Y25653D01*
X84773Y24450D02*
X85407Y25083D01*
X86614Y26290D02*
X87185Y26861D01*
D165*
X22169Y18478D02*
Y19196D01*
X21700Y12688D02*
Y18009D01*
X22169Y18478D01*
Y19196D02*
X22223Y19250D01*
X20173Y12400D02*
X20609D01*
X21490D01*
X21525Y12390D02*
X21550D01*
X21555Y12395D01*
Y12543D02*
X21700Y12688D01*
X21555Y12395D02*
Y12543D01*
X18973Y17889D02*
X19498Y17310D01*
X19998Y15637D01*
X18973Y17889D02*
Y20202D01*
X21525Y12390D02*
X22439D01*
X3452Y23957D02*
X4307D01*
X21792Y28704D02*
X22209Y28287D01*
X22439Y12390D02*
X22599Y12229D01*
X21490Y12400D02*
X21495Y12395D01*
X21515D01*
X18750Y27803D02*
X19416Y27137D01*
X20007D01*
X18750Y27803D02*
Y31313D01*
X18587Y31476D02*
X18750Y31313D01*
X21792Y28704D02*
Y31321D01*
X21637Y31476D02*
X21792Y31321D01*
X14246Y16538D02*
X14251Y16533D01*
X22076Y31587D02*
X23423D01*
X24419Y19291D02*
X24523Y19187D01*
X23582Y19291D02*
X24419D01*
X23898Y31836D02*
Y32537D01*
D166*
X14122Y17478D02*
X14169D01*
X14170Y17477D01*
X14245Y16539D02*
X14246Y16538D01*
X23750Y29900D02*
X23803Y29847D01*
X24152D01*
X23869Y27809D02*
Y29564D01*
X23898Y33937D02*
X23900Y33939D01*
Y34450D01*
X23868Y27808D02*
X23869Y27809D01*
X23898Y32537D02*
X23963Y32472D01*
X25294D02*
X25295Y32471D01*
X25390D01*
X25391Y32470D01*
Y32375D02*
Y32470D01*
X25756Y31343D02*
Y32010D01*
X25391Y32375D02*
X25756Y32010D01*
Y31343D02*
X26002Y31097D01*
X23963Y32472D02*
X25294D01*
X11814Y7917D02*
X11897Y8000D01*
X11814Y7917D02*
X11850Y7953D01*
X14029Y8000D02*
X14800D01*
X11850Y4900D02*
Y6282D01*
Y7953D02*
Y8800D01*
X11259Y8809D02*
Y10269D01*
X11250Y8800D02*
X11259Y8809D01*
X11897Y8000D02*
X13129D01*
X14050Y6300D02*
X14800D01*
X13149Y6309D02*
X13150Y6308D01*
Y6300D02*
Y6308D01*
X11823Y6309D02*
X13149D01*
X10100Y6317D02*
X11814D01*
D167*
X4650Y27700D02*
X5850D01*
X2622Y27072D02*
X3250Y27700D01*
X4050D01*
X2622Y25858D02*
Y27072D01*
X5325Y26021D02*
Y27550D01*
X5162Y25858D02*
X5325Y26021D01*
D168*
X2622Y25858D02*
D03*
X5162D02*
D03*
D169*
X7702D02*
D03*
D170*
X30120Y4350D02*
D03*
X42670Y4400D02*
D03*
D171*
X27580Y4350D02*
D03*
X40130Y4400D02*
D03*
D172*
X7134Y3400D02*
D03*
Y12040D02*
D03*
D173*
X1774Y12340D02*
D03*
Y3100D02*
D03*
D174*
X2309Y12340D02*
D03*
Y3100D02*
D03*
D175*
X42500Y13800D02*
D03*
X32200Y13028D02*
D03*
X69800Y28050D02*
D03*
X69550Y27400D02*
D03*
X69378Y26800D02*
D03*
X70124Y26729D02*
D03*
X4150Y15900D02*
D03*
X3550Y17000D02*
D03*
X2593Y16177D02*
D03*
X3193D02*
D03*
X70150Y29050D02*
D03*
X72477Y28728D02*
D03*
X28050Y30450D02*
D03*
X26398Y31712D02*
D03*
X36900Y32050D02*
D03*
X4324Y23964D02*
D03*
X23538Y20233D02*
D03*
X51479Y26821D02*
D03*
X53700Y24950D02*
D03*
X59250D02*
D03*
X61800Y27250D02*
D03*
X57300Y24550D02*
D03*
X57925Y24275D02*
D03*
X49100Y27500D02*
D03*
X18113Y27895D02*
D03*
X36100Y31000D02*
D03*
X40055Y29533D02*
D03*
X29150Y29550D02*
D03*
X41275Y29175D02*
D03*
X52150Y28550D02*
D03*
X51600Y27750D02*
D03*
X74700Y23550D02*
D03*
X65050Y11550D02*
D03*
X64382Y11540D02*
D03*
X87016Y21670D02*
D03*
X84950Y21000D02*
D03*
X85986Y13314D02*
D03*
X18000Y11500D02*
D03*
X57872Y5690D02*
D03*
X98450Y2100D02*
D03*
X94700Y9600D02*
D03*
X95950Y7100D02*
D03*
Y2100D02*
D03*
X93450Y12100D02*
D03*
X92200Y9600D02*
D03*
X93450Y7100D02*
D03*
X92200Y4600D02*
D03*
X89700Y14600D02*
D03*
X90950Y12100D02*
D03*
X89700Y9600D02*
D03*
X90950Y7100D02*
D03*
X89700Y4600D02*
D03*
X90950Y2100D02*
D03*
X88450Y12100D02*
D03*
Y7100D02*
D03*
Y2100D02*
D03*
X85950Y7100D02*
D03*
Y2100D02*
D03*
X74700Y29600D02*
D03*
X73450Y32100D02*
D03*
Y7100D02*
D03*
X69700Y9600D02*
D03*
X70950Y7100D02*
D03*
X69700Y4600D02*
D03*
X70950Y2100D02*
D03*
X68450Y32100D02*
D03*
X67200Y24600D02*
D03*
Y19600D02*
D03*
Y9600D02*
D03*
X68450Y2100D02*
D03*
X65950Y32100D02*
D03*
X64700Y19600D02*
D03*
Y4600D02*
D03*
X65950Y2100D02*
D03*
X62200Y29600D02*
D03*
Y19600D02*
D03*
Y9600D02*
D03*
X63450Y2100D02*
D03*
X60950D02*
D03*
X57200Y9600D02*
D03*
X58450Y7100D02*
D03*
X57200Y4600D02*
D03*
X58450Y2100D02*
D03*
X54700Y9600D02*
D03*
X55950Y2100D02*
D03*
X52200Y9600D02*
D03*
X53450Y7100D02*
D03*
X52200Y4600D02*
D03*
X53450Y2100D02*
D03*
X50950Y32100D02*
D03*
X49700Y14600D02*
D03*
Y9600D02*
D03*
X50950Y7100D02*
D03*
X49700Y4600D02*
D03*
X50950Y2100D02*
D03*
X47200Y29600D02*
D03*
X48450Y7100D02*
D03*
Y2100D02*
D03*
X45950Y22100D02*
D03*
Y12100D02*
D03*
Y7100D02*
D03*
X44700Y4600D02*
D03*
X45950Y2100D02*
D03*
X42200Y24600D02*
D03*
X43450Y17100D02*
D03*
X40950D02*
D03*
X37200Y4600D02*
D03*
X38450Y2100D02*
D03*
X35950Y17100D02*
D03*
X32200Y19600D02*
D03*
Y4600D02*
D03*
X30950Y27100D02*
D03*
X28450Y17100D02*
D03*
X25950D02*
D03*
Y2100D02*
D03*
X22200Y4600D02*
D03*
X23450Y2100D02*
D03*
X19700Y4600D02*
D03*
X20950Y2100D02*
D03*
X18450Y17100D02*
D03*
X17200Y14600D02*
D03*
X18450Y2100D02*
D03*
X15950Y17100D02*
D03*
X14700Y9600D02*
D03*
X15950Y7100D02*
D03*
X14700Y4600D02*
D03*
X15950Y2100D02*
D03*
X13450D02*
D03*
X8450Y32100D02*
D03*
X7200Y9600D02*
D03*
Y4600D02*
D03*
X4700D02*
D03*
X3450Y32100D02*
D03*
X2200Y14600D02*
D03*
Y9600D02*
D03*
X3450Y7100D02*
D03*
X2200Y4600D02*
D03*
X950Y7100D02*
D03*
X26050Y23400D02*
D03*
X35450Y4250D02*
D03*
X33750Y4250D02*
D03*
X35452Y7345D02*
D03*
X33750Y7350D02*
D03*
X59581Y5255D02*
D03*
X41573Y25568D02*
D03*
X87381Y25783D02*
D03*
X88882Y26677D02*
D03*
X87028Y27768D02*
D03*
X99110Y16466D02*
D03*
X82624Y32926D02*
D03*
X89276Y26224D02*
D03*
X88164Y26880D02*
D03*
X81776Y33774D02*
D03*
X81382Y34227D02*
D03*
X92222Y23226D02*
D03*
X83932Y31677D02*
D03*
X84000Y22550D02*
D03*
X83606Y24404D02*
D03*
X97731Y17681D02*
D03*
X82200Y33350D02*
D03*
X84326Y31224D02*
D03*
X84860Y23412D02*
D03*
X96489Y18982D02*
D03*
X92646Y22802D02*
D03*
X90124Y25376D02*
D03*
X98580Y16832D02*
D03*
X95196Y20241D02*
D03*
X97307Y18105D02*
D03*
X83049Y32501D02*
D03*
X83224Y23974D02*
D03*
X98156Y17257D02*
D03*
X84879Y25677D02*
D03*
X85727Y26525D02*
D03*
X99534Y16042D02*
D03*
X82591Y21736D02*
D03*
X84424Y22974D02*
D03*
X82800Y23550D02*
D03*
X93953Y21542D02*
D03*
X85174Y30376D02*
D03*
X86151Y26950D02*
D03*
X96883Y18529D02*
D03*
X85599Y29951D02*
D03*
X94347Y21090D02*
D03*
X96044Y19393D02*
D03*
X95620Y19817D02*
D03*
X91403Y24103D02*
D03*
X94771Y20666D02*
D03*
X90549Y24951D02*
D03*
X83473Y32077D02*
D03*
X93494Y21953D02*
D03*
X93070Y22377D02*
D03*
X86576Y27374D02*
D03*
X86023Y29527D02*
D03*
X85284Y23836D02*
D03*
X84750Y30800D02*
D03*
X91797Y23650D02*
D03*
X90973Y24527D02*
D03*
X86507Y24959D02*
D03*
X85303Y26101D02*
D03*
X89700Y25800D02*
D03*
X99437Y10402D02*
D03*
Y13172D02*
D03*
X99379Y11829D02*
D03*
X98200Y16050D02*
D03*
Y14650D02*
D03*
Y13250D02*
D03*
Y11850D02*
D03*
Y10450D02*
D03*
Y9050D02*
D03*
X96800Y17450D02*
D03*
Y16050D02*
D03*
Y14650D02*
D03*
Y13250D02*
D03*
Y11850D02*
D03*
Y10450D02*
D03*
X95400Y18850D02*
D03*
Y17450D02*
D03*
Y16050D02*
D03*
Y14650D02*
D03*
Y13250D02*
D03*
Y11850D02*
D03*
X94000Y20250D02*
D03*
Y18850D02*
D03*
Y17450D02*
D03*
Y16050D02*
D03*
Y14650D02*
D03*
Y13250D02*
D03*
X92600Y21650D02*
D03*
Y20250D02*
D03*
Y18850D02*
D03*
Y17450D02*
D03*
Y16050D02*
D03*
Y14650D02*
D03*
X91200Y23050D02*
D03*
Y21650D02*
D03*
Y20250D02*
D03*
Y18850D02*
D03*
Y17450D02*
D03*
Y16050D02*
D03*
X89800Y24450D02*
D03*
Y23050D02*
D03*
Y21650D02*
D03*
Y20250D02*
D03*
Y18850D02*
D03*
Y17450D02*
D03*
X88400Y24450D02*
D03*
Y23050D02*
D03*
Y21650D02*
D03*
X87000Y24450D02*
D03*
Y23050D02*
D03*
X85600Y28650D02*
D03*
Y27250D02*
D03*
Y23050D02*
D03*
Y21650D02*
D03*
X84200Y30050D02*
D03*
X82800Y31450D02*
D03*
Y30050D02*
D03*
X81400Y32850D02*
D03*
Y31450D02*
D03*
Y30050D02*
D03*
X80000Y34250D02*
D03*
Y32850D02*
D03*
Y31450D02*
D03*
Y30050D02*
D03*
Y28650D02*
D03*
X78600Y34250D02*
D03*
Y32850D02*
D03*
Y31450D02*
D03*
Y30050D02*
D03*
X77200Y34250D02*
D03*
Y32850D02*
D03*
Y31450D02*
D03*
Y30050D02*
D03*
X75800Y34250D02*
D03*
Y32850D02*
D03*
Y31450D02*
D03*
X74400Y34250D02*
D03*
Y32850D02*
D03*
X73000Y34250D02*
D03*
X84193Y507D02*
D03*
X44143Y34507D02*
D03*
X27200Y9850D02*
D03*
X26850Y13850D02*
D03*
X26900Y12950D02*
D03*
X27800Y13450D02*
D03*
X20602Y11200D02*
D03*
Y10641D02*
D03*
X76344Y20654D02*
D03*
X37653Y23947D02*
D03*
X34990Y23920D02*
D03*
X34907Y19347D02*
D03*
X6255Y22292D02*
D03*
X6250Y22950D02*
D03*
Y21650D02*
D03*
X850Y19900D02*
D03*
X2528Y18850D02*
D03*
X4050Y14350D02*
D03*
Y15350D02*
D03*
X62000Y13450D02*
D03*
X63424Y16920D02*
D03*
X68250Y8100D02*
D03*
X67600Y8750D02*
D03*
X71115Y26458D02*
D03*
X71300Y25750D02*
D03*
X71250Y24850D02*
D03*
X68300Y30650D02*
D03*
X42450Y28100D02*
D03*
X43000Y26700D02*
D03*
X42200Y31400D02*
D03*
X43950Y26650D02*
D03*
X41482Y31360D02*
D03*
X41500Y33250D02*
D03*
X40450Y31328D02*
D03*
X40454Y33620D02*
D03*
X22943Y29239D02*
D03*
X22959Y29887D02*
D03*
X23750Y29900D02*
D03*
X24502Y29885D02*
D03*
X23900Y34450D02*
D03*
X23000Y28500D02*
D03*
X14050Y28300D02*
D03*
X15550Y26650D02*
D03*
X18200Y27150D02*
D03*
X14450Y14100D02*
D03*
X15100Y13800D02*
D03*
X14650Y13050D02*
D03*
X5200Y8550D02*
D03*
X11700Y12800D02*
D03*
X12300Y14100D02*
D03*
X72276Y22775D02*
D03*
X32973Y14877D02*
D03*
X38050Y26150D02*
D03*
X39150Y25700D02*
D03*
X38665Y27147D02*
D03*
X39900Y26700D02*
D03*
X43875Y31300D02*
D03*
X41350Y27862D02*
D03*
X37600Y25600D02*
D03*
X52550Y33600D02*
D03*
X64550Y29600D02*
D03*
X24750Y11250D02*
D03*
X41000Y6650D02*
D03*
X29900Y6750D02*
D03*
X35459Y12012D02*
D03*
X36459Y12037D02*
D03*
X38250Y11800D02*
D03*
X33700Y11850D02*
D03*
X30800Y7400D02*
D03*
X29900Y7450D02*
D03*
X44300Y15100D02*
D03*
X41000Y7250D02*
D03*
X41900Y7300D02*
D03*
X30500Y11500D02*
D03*
X41601Y11473D02*
D03*
X76500Y23450D02*
D03*
X88150Y25800D02*
D03*
X29200Y5800D02*
D03*
X41450Y5950D02*
D03*
X46050Y3700D02*
D03*
X60000Y6950D02*
D03*
X45225Y31300D02*
D03*
X62600Y32700D02*
D03*
X70600Y13450D02*
D03*
X52500Y17500D02*
D03*
Y19500D02*
D03*
X54500D02*
D03*
X83000Y9950D02*
D03*
X8750Y7145D02*
D03*
X5250Y7800D02*
D03*
X8800Y8206D02*
D03*
X5050Y15500D02*
D03*
X6550Y15550D02*
D03*
X67350Y21400D02*
D03*
X64100D02*
D03*
X41350Y24050D02*
D03*
X82784Y12186D02*
D03*
X81850Y13350D02*
D03*
X79400Y12100D02*
D03*
X80400Y12450D02*
D03*
X53550Y34500D02*
D03*
X51050D02*
D03*
X35991Y14813D02*
D03*
X33700Y14050D02*
D03*
X47750Y24600D02*
D03*
X45400D02*
D03*
X54490Y32900D02*
D03*
X46800Y23550D02*
D03*
X49050Y23600D02*
D03*
X47500Y27450D02*
D03*
X38300Y14050D02*
D03*
X17900Y10200D02*
D03*
X50900Y13450D02*
D03*
X51418Y14022D02*
D03*
X53150Y13400D02*
D03*
X53100Y14000D02*
D03*
X60200Y34529D02*
D03*
X99429Y9179D02*
D03*
Y14629D02*
D03*
X521Y32832D02*
D03*
X65650Y34529D02*
D03*
X521Y11032D02*
D03*
X7861Y471D02*
D03*
X51461D02*
D03*
X80838Y34512D02*
D03*
X22050Y34529D02*
D03*
X5700D02*
D03*
X27500D02*
D03*
X71100D02*
D03*
X67811Y471D02*
D03*
X521Y5582D02*
D03*
X89611Y471D02*
D03*
X95061D02*
D03*
X521Y27382D02*
D03*
X18761Y471D02*
D03*
X54750Y34529D02*
D03*
X79100Y500D02*
D03*
X11150Y34529D02*
D03*
X49300D02*
D03*
X56911Y471D02*
D03*
X521Y16482D02*
D03*
X99429Y3729D02*
D03*
X2411Y471D02*
D03*
X13311D02*
D03*
X38400Y34529D02*
D03*
X62361Y471D02*
D03*
X40911D02*
D03*
X24211D02*
D03*
X521Y21932D02*
D03*
X46011Y471D02*
D03*
X73261D02*
D03*
X35111D02*
D03*
X32950Y34529D02*
D03*
X28854Y539D02*
D03*
X61900Y16900D02*
D03*
X64550Y13400D02*
D03*
X46950Y20900D02*
D03*
Y19950D02*
D03*
X61850Y4600D02*
D03*
X55800Y4800D02*
D03*
X58412Y8012D02*
D03*
X58096Y9061D02*
D03*
X60196Y9073D02*
D03*
X60150Y8000D02*
D03*
X37645Y21285D02*
D03*
X35039Y21250D02*
D03*
X36345Y22635D02*
D03*
X41122Y20699D02*
D03*
X39491Y21385D02*
D03*
X39690Y19127D02*
D03*
X45180Y30398D02*
D03*
X43850Y30400D02*
D03*
X51600Y29450D02*
D03*
X38135Y26866D02*
D03*
X35583Y27824D02*
D03*
X34551Y27844D02*
D03*
X33547Y27873D02*
D03*
X32450Y25450D02*
D03*
X39500Y24852D02*
D03*
X37595Y19349D02*
D03*
X68378Y18928D02*
D03*
X68376Y16649D02*
D03*
X67400Y18600D02*
D03*
X45635Y16095D02*
D03*
X54150Y14550D02*
D03*
X47523Y16127D02*
D03*
X60496Y3908D02*
D03*
Y5258D02*
D03*
X70100Y21500D02*
D03*
X54550Y26950D02*
D03*
X55850D02*
D03*
Y32900D02*
D03*
X57150D02*
D03*
X59650Y32950D02*
D03*
X74650Y9750D02*
D03*
X71507Y31599D02*
D03*
X75050Y27550D02*
D03*
X50250Y32950D02*
D03*
X80898Y2387D02*
D03*
X79650Y2400D02*
D03*
X82150D02*
D03*
X16950Y29250D02*
D03*
X15200Y25800D02*
D03*
X12398Y22862D02*
D03*
X12998Y23412D02*
D03*
X12398Y23962D02*
D03*
X15600Y11500D02*
D03*
X17750Y23000D02*
D03*
X19375Y28886D02*
D03*
X76200Y11811D02*
D03*
X48250Y21900D02*
D03*
X69986Y15650D02*
D03*
X71628Y17947D02*
D03*
X73850Y17850D02*
D03*
X72450Y11400D02*
D03*
X69000Y13150D02*
D03*
X71450Y13500D02*
D03*
X63150Y29250D02*
D03*
X54050Y16850D02*
D03*
X35703Y10148D02*
D03*
X34616Y10248D02*
D03*
X33490D02*
D03*
X83150Y15650D02*
D03*
X84050Y18750D02*
D03*
X85100Y15000D02*
D03*
X85850D02*
D03*
X77100Y3100D02*
D03*
X86833Y20196D02*
D03*
X52150Y21900D02*
D03*
X78950Y12650D02*
D03*
X36850Y26100D02*
D03*
X20811Y28836D02*
D03*
X8801Y4115D02*
D03*
X7100Y10800D02*
D03*
X11933Y18830D02*
D03*
X11138Y21172D02*
D03*
X20073Y28487D02*
D03*
X13933Y32988D02*
D03*
X16689Y34500D02*
D03*
X27523Y31437D02*
D03*
X21411Y27132D02*
D03*
X17823Y24427D02*
D03*
X18125Y25987D02*
D03*
X18973Y26187D02*
D03*
X24573Y26387D02*
D03*
X14373Y20137D02*
D03*
X20106Y20270D02*
D03*
X20773Y20255D02*
D03*
X15483Y20937D02*
D03*
X24523Y19187D02*
D03*
X26223Y20187D02*
D03*
X22273D02*
D03*
X23673Y21287D02*
D03*
X27223Y22487D02*
D03*
X23731Y23390D02*
D03*
X20423Y19237D02*
D03*
X15023Y22687D02*
D03*
X24273Y15387D02*
D03*
X20423Y18487D02*
D03*
X21550Y10650D02*
D03*
X80550Y22850D02*
D03*
X74315Y15720D02*
D03*
X86925Y25404D02*
D03*
X87178Y28381D02*
D03*
X72900Y30800D02*
D03*
X10150Y4150D02*
D03*
X14800Y8000D02*
D03*
X11850Y8800D02*
D03*
X10900Y7850D02*
D03*
X77600Y28150D02*
D03*
X76250Y28200D02*
D03*
X77700Y24950D02*
D03*
X76850Y25100D02*
D03*
X71400Y22800D02*
D03*
X79900Y22700D02*
D03*
X80950Y20750D02*
D03*
X76200Y16000D02*
D03*
X78613Y18415D02*
D03*
X74350Y14150D02*
D03*
X4950Y17350D02*
D03*
X86550Y23900D02*
D03*
X83111Y19690D02*
D03*
X82849Y21167D02*
D03*
X80900Y16000D02*
D03*
X78900Y25250D02*
D03*
X84650Y18000D02*
D03*
X78345Y14230D02*
D03*
X78000Y10202D02*
D03*
X77018D02*
D03*
X84295Y21524D02*
D03*
X7591Y2453D02*
D03*
X9763Y10808D02*
D03*
X80300Y24550D02*
D03*
X77273Y22799D02*
D03*
X78350Y22700D02*
D03*
X81000Y24550D02*
D03*
X82300Y14450D02*
D03*
X31150Y31250D02*
D03*
X84850Y22000D02*
D03*
X73380Y21110D02*
D03*
X73300Y21798D02*
D03*
X74900Y11800D02*
D03*
X72400Y15798D02*
D03*
X36018Y16072D02*
D03*
X73900Y11800D02*
D03*
X79856Y14256D02*
D03*
X84586Y11614D02*
D03*
X86400Y17000D02*
D03*
X83578Y19212D02*
D03*
X81727Y24826D02*
D03*
X10900Y8800D02*
D03*
X72200Y17100D02*
D03*
X83943Y10390D02*
D03*
X86383Y19712D02*
D03*
X86480Y28983D02*
D03*
X81200Y11900D02*
D03*
X7900Y21650D02*
D03*
X14800Y6300D02*
D03*
X84328Y14986D02*
D03*
X83992Y28620D02*
D03*
X81870Y26498D02*
D03*
X24003Y3683D02*
D03*
X88900Y10795D02*
D03*
X88265Y20193D02*
D03*
X53975Y3750D02*
D03*
X66025D02*
D03*
X73975D02*
D03*
X93975D02*
D03*
X86025D02*
D03*
D176*
X21400Y22550D02*
D03*
X20300D02*
D03*
X21400Y23650D02*
D03*
X20300D02*
D03*
X21400Y24750D02*
D03*
X20300D02*
D03*
M02*
