G04*
G04 #@! TF.GenerationSoftware,Altium Limited,Altium Designer,24.2.2 (26)*
G04*
G04 Layer_Physical_Order=4*
G04 Layer_Color=16711680*
%FSLAX43Y43*%
%MOMM*%
G71*
G04*
G04 #@! TF.SameCoordinates,4F7CD7CC-9D04-48A1-B46F-AFD2B6BA45A4*
G04*
G04*
G04 #@! TF.FilePolarity,Positive*
G04*
G01*
G75*
%ADD12C,0.200*%
%ADD14C,0.100*%
%ADD104C,1.000*%
%ADD147C,0.800*%
%ADD156C,0.254*%
%ADD159C,0.300*%
%ADD161C,0.150*%
%ADD165C,0.500*%
%ADD166C,0.508*%
%ADD168C,1.600*%
%ADD169R,1.600X1.600*%
%ADD170R,1.850X1.850*%
%ADD171C,1.850*%
%ADD172O,2.100X1.100*%
%ADD173O,2.600X1.100*%
%ADD174O,3.600X1.100*%
%ADD175C,0.450*%
%ADD176C,0.500*%
%ADD178R,0.740X2.790*%
G36*
X99741Y16324D02*
X99741Y2000D01*
Y1829D01*
X99674Y1492D01*
X99543Y1175D01*
X99352Y890D01*
X99110Y648D01*
X98825Y457D01*
X98508Y326D01*
X98171Y259D01*
X98000D01*
X2000Y259D01*
X1829Y259D01*
X1492Y326D01*
X1175Y457D01*
X890Y648D01*
X648Y890D01*
X457Y1175D01*
X326Y1492D01*
X259Y1829D01*
Y2567D01*
X386Y2611D01*
X450Y2527D01*
X618Y2398D01*
X814Y2317D01*
X1024Y2289D01*
X1647D01*
Y3100D01*
Y3911D01*
X1024D01*
X814Y3883D01*
X618Y3802D01*
X450Y3673D01*
X386Y3589D01*
X259Y3633D01*
Y11807D01*
X386Y11851D01*
X450Y11767D01*
X618Y11638D01*
X814Y11557D01*
X1024Y11529D01*
X1647D01*
Y12340D01*
Y13151D01*
X1024D01*
X814Y13123D01*
X618Y13042D01*
X450Y12913D01*
X386Y12829D01*
X259Y12873D01*
Y33000D01*
X259Y33171D01*
X326Y33508D01*
X457Y33825D01*
X648Y34110D01*
X890Y34352D01*
X1175Y34543D01*
X1492Y34674D01*
X1829Y34741D01*
X2000Y34741D01*
X33908Y34741D01*
X33934Y34614D01*
X33795Y34557D01*
X33516Y34370D01*
X33280Y34134D01*
X33093Y33855D01*
X32965Y33546D01*
X32900Y33217D01*
Y32883D01*
X32965Y32554D01*
X33093Y32245D01*
X33280Y31966D01*
X33516Y31730D01*
X33795Y31543D01*
X34104Y31415D01*
X34433Y31350D01*
X34767D01*
X35096Y31415D01*
X35405Y31543D01*
X35684Y31730D01*
X35920Y31966D01*
X36107Y32245D01*
X36235Y32554D01*
X36300Y32883D01*
Y33217D01*
X36235Y33546D01*
X36107Y33855D01*
X35920Y34134D01*
X35684Y34370D01*
X35405Y34557D01*
X35266Y34614D01*
X35292Y34741D01*
X81324Y34741D01*
X99741Y16324D01*
D02*
G37*
G36*
X69519Y-11700D02*
X69549Y-11744D01*
X69585Y-11789D01*
X69619Y-11827D01*
X69652Y-11861D01*
X69677Y-11889D01*
X69688Y-11897D01*
X69696Y-11905D01*
X69699Y-11908D01*
X69702Y-11911D01*
X69760Y-11958D01*
X69819Y-12002D01*
X69874Y-12041D01*
X69930Y-12072D01*
X69977Y-12099D01*
X69996Y-12111D01*
X70013Y-12119D01*
X70027Y-12127D01*
X70038Y-12130D01*
X70043Y-12136D01*
X70046D01*
Y-12363D01*
X70005Y-12347D01*
X69963Y-12327D01*
X69921Y-12308D01*
X69882Y-12288D01*
X69849Y-12272D01*
X69821Y-12258D01*
X69805Y-12247D01*
X69802Y-12244D01*
X69799D01*
X69749Y-12213D01*
X69705Y-12183D01*
X69666Y-12155D01*
X69635Y-12130D01*
X69608Y-12111D01*
X69591Y-12094D01*
X69577Y-12083D01*
X69574Y-12080D01*
Y-13582D01*
X69338D01*
Y-11653D01*
X69491D01*
X69519Y-11700D01*
D02*
G37*
G36*
X80030Y-12161D02*
X80077Y-12169D01*
X80118Y-12177D01*
X80154Y-12188D01*
X80185Y-12202D01*
X80207Y-12211D01*
X80221Y-12219D01*
X80227Y-12222D01*
X80265Y-12247D01*
X80299Y-12274D01*
X80329Y-12302D01*
X80354Y-12330D01*
X80374Y-12352D01*
X80390Y-12372D01*
X80399Y-12383D01*
X80402Y-12388D01*
Y-12188D01*
X80613D01*
Y-13582D01*
X80377D01*
Y-12860D01*
X80374Y-12794D01*
X80371Y-12735D01*
X80365Y-12685D01*
X80357Y-12644D01*
X80349Y-12613D01*
X80343Y-12591D01*
X80340Y-12577D01*
X80338Y-12571D01*
X80321Y-12535D01*
X80302Y-12505D01*
X80282Y-12477D01*
X80263Y-12455D01*
X80243Y-12438D01*
X80229Y-12427D01*
X80218Y-12419D01*
X80216Y-12416D01*
X80182Y-12399D01*
X80152Y-12385D01*
X80118Y-12377D01*
X80091Y-12369D01*
X80068Y-12366D01*
X80049Y-12363D01*
X80032D01*
X79985Y-12366D01*
X79946Y-12374D01*
X79913Y-12388D01*
X79888Y-12402D01*
X79868Y-12419D01*
X79855Y-12430D01*
X79846Y-12441D01*
X79843Y-12444D01*
X79824Y-12477D01*
X79810Y-12513D01*
X79799Y-12552D01*
X79794Y-12591D01*
X79788Y-12624D01*
X79785Y-12655D01*
Y-12666D01*
Y-12671D01*
Y-12677D01*
Y-12680D01*
Y-13582D01*
X79549Y-13582D01*
Y-12774D01*
X79544Y-12699D01*
X79533Y-12635D01*
X79519Y-12583D01*
X79499Y-12538D01*
X79483Y-12505D01*
X79466Y-12483D01*
X79455Y-12469D01*
X79452Y-12463D01*
X79413Y-12430D01*
X79372Y-12405D01*
X79330Y-12388D01*
X79291Y-12374D01*
X79258Y-12369D01*
X79230Y-12366D01*
X79219Y-12363D01*
X79205D01*
X79174Y-12366D01*
X79149Y-12369D01*
X79124Y-12374D01*
X79105Y-12383D01*
X79086Y-12391D01*
X79074Y-12397D01*
X79066Y-12399D01*
X79063Y-12402D01*
X79041Y-12419D01*
X79025Y-12435D01*
X79011Y-12452D01*
X79000Y-12469D01*
X78991Y-12483D01*
X78986Y-12494D01*
X78980Y-12502D01*
Y-12505D01*
X78972Y-12530D01*
X78966Y-12563D01*
X78963Y-12596D01*
X78961Y-12630D01*
X78958Y-12660D01*
Y-12685D01*
Y-12702D01*
Y-12705D01*
Y-12707D01*
Y-13582D01*
X78722D01*
Y-12627D01*
Y-12583D01*
X78727Y-12544D01*
X78733Y-12505D01*
X78739Y-12472D01*
X78747Y-12438D01*
X78758Y-12410D01*
X78766Y-12385D01*
X78777Y-12360D01*
X78789Y-12341D01*
X78797Y-12322D01*
X78816Y-12297D01*
X78827Y-12280D01*
X78833Y-12274D01*
X78877Y-12236D01*
X78930Y-12208D01*
X78983Y-12186D01*
X79033Y-12172D01*
X79080Y-12163D01*
X79099Y-12161D01*
X79119D01*
X79133Y-12158D01*
X79152D01*
X79202Y-12161D01*
X79247Y-12169D01*
X79291Y-12180D01*
X79333Y-12197D01*
X79372Y-12216D01*
X79408Y-12236D01*
X79438Y-12258D01*
X79469Y-12280D01*
X79496Y-12305D01*
X79519Y-12327D01*
X79538Y-12347D01*
X79555Y-12366D01*
X79569Y-12383D01*
X79577Y-12394D01*
X79583Y-12402D01*
X79585Y-12405D01*
X79602Y-12363D01*
X79624Y-12327D01*
X79649Y-12297D01*
X79671Y-12272D01*
X79694Y-12249D01*
X79710Y-12236D01*
X79721Y-12227D01*
X79727Y-12224D01*
X79766Y-12202D01*
X79807Y-12186D01*
X79849Y-12174D01*
X79891Y-12166D01*
X79924Y-12161D01*
X79955Y-12158D01*
X79980D01*
X80030Y-12161D01*
D02*
G37*
G36*
X75610Y-12161D02*
X75668Y-12166D01*
X75724Y-12174D01*
X75768Y-12183D01*
X75807Y-12191D01*
X75835Y-12199D01*
X75846Y-12202D01*
X75854Y-12205D01*
X75857Y-12208D01*
X75860D01*
X75907Y-12227D01*
X75948Y-12252D01*
X75985Y-12274D01*
X76015Y-12297D01*
X76037Y-12319D01*
X76054Y-12335D01*
X76065Y-12347D01*
X76068Y-12349D01*
X76093Y-12385D01*
X76115Y-12424D01*
X76132Y-12463D01*
X76146Y-12499D01*
X76157Y-12535D01*
X76165Y-12560D01*
X76168Y-12571D01*
Y-12580D01*
X76171Y-12583D01*
Y-12585D01*
X75940Y-12616D01*
X75923Y-12566D01*
X75907Y-12521D01*
X75887Y-12485D01*
X75871Y-12458D01*
X75854Y-12435D01*
X75840Y-12422D01*
X75829Y-12413D01*
X75826Y-12410D01*
X75793Y-12391D01*
X75754Y-12377D01*
X75712Y-12366D01*
X75674Y-12360D01*
X75635Y-12355D01*
X75607Y-12352D01*
X75579D01*
X75515Y-12355D01*
X75460Y-12363D01*
X75415Y-12377D01*
X75377Y-12391D01*
X75349Y-12408D01*
X75327Y-12419D01*
X75313Y-12430D01*
X75310Y-12433D01*
X75288Y-12458D01*
X75271Y-12488D01*
X75257Y-12521D01*
X75249Y-12555D01*
X75243Y-12585D01*
X75241Y-12613D01*
Y-12630D01*
Y-12633D01*
Y-12635D01*
Y-12641D01*
Y-12652D01*
Y-12671D01*
X75243Y-12688D01*
Y-12694D01*
Y-12696D01*
X75271Y-12705D01*
X75302Y-12713D01*
X75365Y-12730D01*
X75438Y-12744D01*
X75504Y-12757D01*
X75538Y-12763D01*
X75568Y-12766D01*
X75596Y-12771D01*
X75618Y-12774D01*
X75638Y-12777D01*
X75651D01*
X75663Y-12780D01*
X75665D01*
X75715Y-12785D01*
X75757Y-12794D01*
X75793Y-12799D01*
X75821Y-12805D01*
X75843Y-12807D01*
X75860Y-12813D01*
X75871Y-12816D01*
X75873D01*
X75910Y-12827D01*
X75940Y-12838D01*
X75971Y-12852D01*
X75996Y-12863D01*
X76018Y-12874D01*
X76032Y-12885D01*
X76043Y-12891D01*
X76046Y-12894D01*
X76073Y-12913D01*
X76096Y-12935D01*
X76118Y-12957D01*
X76134Y-12980D01*
X76148Y-12999D01*
X76159Y-13016D01*
X76165Y-13027D01*
X76168Y-13030D01*
X76182Y-13060D01*
X76193Y-13093D01*
X76201Y-13124D01*
X76207Y-13154D01*
X76209Y-13179D01*
X76212Y-13199D01*
Y-13210D01*
Y-13216D01*
X76209Y-13249D01*
X76207Y-13277D01*
X76193Y-13335D01*
X76173Y-13382D01*
X76151Y-13424D01*
X76129Y-13457D01*
X76109Y-13482D01*
X76096Y-13496D01*
X76090Y-13501D01*
X76040Y-13538D01*
X75985Y-13565D01*
X75923Y-13585D01*
X75868Y-13599D01*
X75818Y-13607D01*
X75796Y-13610D01*
X75776D01*
X75760Y-13613D01*
X75737D01*
X75687Y-13610D01*
X75638Y-13604D01*
X75593Y-13599D01*
X75554Y-13590D01*
X75524Y-13582D01*
X75499Y-13574D01*
X75482Y-13571D01*
X75477Y-13568D01*
X75429Y-13549D01*
X75385Y-13524D01*
X75343Y-13496D01*
X75302Y-13471D01*
X75268Y-13446D01*
X75243Y-13427D01*
X75227Y-13413D01*
X75224Y-13407D01*
X75221D01*
X75216Y-13443D01*
X75210Y-13477D01*
X75204Y-13507D01*
X75196Y-13532D01*
X75188Y-13554D01*
X75182Y-13568D01*
X75179Y-13579D01*
X75177Y-13582D01*
X74930D01*
X74943Y-13551D01*
X74957Y-13521D01*
X74968Y-13493D01*
X74974Y-13468D01*
X74982Y-13446D01*
X74985Y-13429D01*
X74988Y-13418D01*
Y-13415D01*
X74991Y-13396D01*
X74993Y-13371D01*
Y-13343D01*
X74996Y-13313D01*
X74999Y-13243D01*
Y-13174D01*
X75002Y-13107D01*
Y-13077D01*
Y-13052D01*
Y-13030D01*
Y-13013D01*
Y-13002D01*
Y-12999D01*
Y-12683D01*
Y-12630D01*
X75005Y-12583D01*
X75007Y-12546D01*
Y-12516D01*
X75010Y-12494D01*
X75013Y-12477D01*
X75016Y-12469D01*
Y-12466D01*
X75024Y-12430D01*
X75035Y-12399D01*
X75046Y-12374D01*
X75060Y-12349D01*
X75071Y-12333D01*
X75079Y-12319D01*
X75085Y-12310D01*
X75088Y-12308D01*
X75110Y-12286D01*
X75135Y-12263D01*
X75163Y-12247D01*
X75191Y-12230D01*
X75216Y-12219D01*
X75235Y-12211D01*
X75249Y-12205D01*
X75254Y-12202D01*
X75299Y-12188D01*
X75346Y-12177D01*
X75393Y-12169D01*
X75440Y-12163D01*
X75482Y-12161D01*
X75513Y-12158D01*
X75543D01*
X75610Y-12161D01*
D02*
G37*
G36*
X74247Y-13582D02*
X74258Y-13607D01*
X74263Y-13626D01*
X74269Y-13638D01*
Y-13640D01*
X74285Y-13688D01*
X74302Y-13726D01*
X74313Y-13760D01*
X74324Y-13782D01*
X74330Y-13799D01*
X74335Y-13810D01*
X74341Y-13815D01*
Y-13818D01*
X74363Y-13849D01*
X74388Y-13871D01*
X74399Y-13879D01*
X74408Y-13885D01*
X74413Y-13890D01*
X74416D01*
X74435Y-13898D01*
X74455Y-13907D01*
X74496Y-13915D01*
X74513D01*
X74527Y-13918D01*
X74541D01*
X74585Y-13915D01*
X74630Y-13907D01*
X74646Y-13901D01*
X74660Y-13898D01*
X74671Y-13896D01*
X74674D01*
X74649Y-14115D01*
X74619Y-14126D01*
X74591Y-14132D01*
X74566Y-14137D01*
X74544Y-14143D01*
X74524D01*
X74510Y-14146D01*
X74499D01*
X74458Y-14143D01*
X74422Y-14137D01*
X74388Y-14129D01*
X74360Y-14118D01*
X74335Y-14107D01*
X74319Y-14098D01*
X74308Y-14093D01*
X74305Y-14090D01*
X74274Y-14068D01*
X74249Y-14040D01*
X74224Y-14012D01*
X74202Y-13985D01*
X74186Y-13960D01*
X74172Y-13940D01*
X74163Y-13926D01*
X74161Y-13921D01*
X74152Y-13901D01*
X74141Y-13882D01*
X74119Y-13835D01*
X74097Y-13782D01*
X74077Y-13729D01*
X74058Y-13682D01*
X74050Y-13660D01*
X74041Y-13640D01*
X74036Y-13626D01*
X74030Y-13615D01*
X74027Y-13607D01*
Y-13604D01*
X73497Y-12188D01*
X73733D01*
X74033Y-13002D01*
X74055Y-13060D01*
X74072Y-13116D01*
X74091Y-13171D01*
X74105Y-13218D01*
X74116Y-13260D01*
X74122Y-13277D01*
X74124Y-13290D01*
X74127Y-13302D01*
X74130Y-13310D01*
X74133Y-13315D01*
Y-13318D01*
X74149Y-13254D01*
X74166Y-13196D01*
X74183Y-13141D01*
X74199Y-13093D01*
X74213Y-13055D01*
X74219Y-13038D01*
X74224Y-13024D01*
X74227Y-13010D01*
X74230Y-13002D01*
X74233Y-12999D01*
Y-12996D01*
X74524Y-12188D01*
X74774D01*
X74247Y-13582D01*
D02*
G37*
G36*
X83558Y-11844D02*
Y-12188D01*
X83733D01*
Y-12372D01*
X83558D01*
Y-13177D01*
Y-13216D01*
Y-13249D01*
X83555Y-13279D01*
X83553Y-13310D01*
Y-13335D01*
X83550Y-13357D01*
X83544Y-13393D01*
X83539Y-13421D01*
X83536Y-13440D01*
X83530Y-13452D01*
Y-13454D01*
X83519Y-13479D01*
X83503Y-13499D01*
X83486Y-13518D01*
X83472Y-13532D01*
X83455Y-13546D01*
X83444Y-13554D01*
X83436Y-13560D01*
X83433Y-13563D01*
X83403Y-13576D01*
X83372Y-13585D01*
X83339Y-13593D01*
X83305Y-13596D01*
X83278Y-13599D01*
X83255Y-13601D01*
X83233D01*
X83172Y-13599D01*
X83142Y-13596D01*
X83114Y-13590D01*
X83089Y-13588D01*
X83069Y-13585D01*
X83058Y-13582D01*
X83053D01*
X83083Y-13374D01*
X83106Y-13377D01*
X83128Y-13379D01*
X83147D01*
X83161Y-13382D01*
X83189D01*
X83225Y-13379D01*
X83250Y-13374D01*
X83264Y-13368D01*
X83269Y-13365D01*
X83289Y-13352D01*
X83300Y-13338D01*
X83308Y-13327D01*
X83311Y-13321D01*
X83314Y-13307D01*
X83317Y-13288D01*
X83319Y-13243D01*
X83322Y-13224D01*
Y-13207D01*
Y-13196D01*
Y-13191D01*
Y-12372D01*
X83083D01*
Y-12188D01*
X83322D01*
Y-11703D01*
X83558Y-11844D01*
D02*
G37*
G36*
X82811D02*
Y-12188D01*
X82986D01*
Y-12372D01*
X82811D01*
Y-13177D01*
Y-13216D01*
Y-13249D01*
X82809Y-13279D01*
X82806Y-13310D01*
Y-13335D01*
X82803Y-13357D01*
X82797Y-13393D01*
X82792Y-13421D01*
X82789Y-13440D01*
X82784Y-13452D01*
Y-13454D01*
X82772Y-13479D01*
X82756Y-13499D01*
X82739Y-13518D01*
X82725Y-13532D01*
X82709Y-13546D01*
X82697Y-13554D01*
X82689Y-13560D01*
X82686Y-13563D01*
X82656Y-13576D01*
X82625Y-13585D01*
X82592Y-13593D01*
X82559Y-13596D01*
X82531Y-13599D01*
X82509Y-13601D01*
X82486D01*
X82425Y-13599D01*
X82395Y-13596D01*
X82367Y-13590D01*
X82342Y-13588D01*
X82323Y-13585D01*
X82312Y-13582D01*
X82306D01*
X82337Y-13374D01*
X82359Y-13377D01*
X82381Y-13379D01*
X82400D01*
X82414Y-13382D01*
X82442D01*
X82478Y-13379D01*
X82503Y-13374D01*
X82517Y-13368D01*
X82523Y-13365D01*
X82542Y-13352D01*
X82553Y-13338D01*
X82561Y-13327D01*
X82564Y-13321D01*
X82567Y-13307D01*
X82570Y-13288D01*
X82573Y-13243D01*
X82575Y-13224D01*
Y-13207D01*
Y-13196D01*
Y-13191D01*
Y-12372D01*
X82337D01*
Y-12188D01*
X82575D01*
Y-11703D01*
X82811Y-11844D01*
D02*
G37*
G36*
X72778Y-12161D02*
X72828Y-12166D01*
X72875Y-12174D01*
X72920Y-12188D01*
X72961Y-12202D01*
X73000Y-12219D01*
X73036Y-12236D01*
X73067Y-12255D01*
X73097Y-12272D01*
X73122Y-12291D01*
X73144Y-12308D01*
X73161Y-12322D01*
X73175Y-12335D01*
X73186Y-12344D01*
X73192Y-12349D01*
X73194Y-12352D01*
X73225Y-12391D01*
X73253Y-12433D01*
X73278Y-12474D01*
X73300Y-12519D01*
X73317Y-12566D01*
X73330Y-12610D01*
X73353Y-12699D01*
X73361Y-12738D01*
X73367Y-12777D01*
X73369Y-12810D01*
X73372Y-12841D01*
X73375Y-12866D01*
Y-12882D01*
Y-12896D01*
Y-12899D01*
X73372Y-12960D01*
X73367Y-13018D01*
X73358Y-13074D01*
X73347Y-13124D01*
X73333Y-13171D01*
X73319Y-13216D01*
X73303Y-13254D01*
X73286Y-13290D01*
X73269Y-13321D01*
X73253Y-13349D01*
X73239Y-13371D01*
X73225Y-13390D01*
X73214Y-13407D01*
X73206Y-13418D01*
X73200Y-13424D01*
X73197Y-13427D01*
X73161Y-13460D01*
X73125Y-13488D01*
X73086Y-13513D01*
X73045Y-13535D01*
X73006Y-13551D01*
X72964Y-13568D01*
X72886Y-13590D01*
X72850Y-13596D01*
X72817Y-13601D01*
X72786Y-13607D01*
X72761Y-13610D01*
X72742Y-13613D01*
X72711D01*
X72625Y-13607D01*
X72548Y-13593D01*
X72478Y-13576D01*
X72450Y-13565D01*
X72423Y-13554D01*
X72398Y-13543D01*
X72375Y-13532D01*
X72359Y-13524D01*
X72342Y-13515D01*
X72331Y-13507D01*
X72323Y-13501D01*
X72317Y-13496D01*
X72314D01*
X72259Y-13446D01*
X72214Y-13393D01*
X72176Y-13338D01*
X72148Y-13285D01*
X72126Y-13238D01*
X72117Y-13216D01*
X72109Y-13199D01*
X72103Y-13182D01*
X72101Y-13171D01*
X72098Y-13166D01*
Y-13163D01*
X72342Y-13132D01*
X72364Y-13185D01*
X72389Y-13229D01*
X72414Y-13268D01*
X72437Y-13299D01*
X72456Y-13321D01*
X72473Y-13338D01*
X72487Y-13349D01*
X72489Y-13352D01*
X72525Y-13374D01*
X72561Y-13390D01*
X72600Y-13402D01*
X72634Y-13410D01*
X72664Y-13415D01*
X72689Y-13418D01*
X72711D01*
X72745Y-13415D01*
X72775Y-13413D01*
X72831Y-13399D01*
X72881Y-13379D01*
X72925Y-13357D01*
X72958Y-13338D01*
X72983Y-13318D01*
X73000Y-13304D01*
X73003Y-13299D01*
X73006D01*
X73045Y-13249D01*
X73075Y-13193D01*
X73097Y-13132D01*
X73114Y-13077D01*
X73122Y-13027D01*
X73128Y-13005D01*
X73131Y-12985D01*
Y-12968D01*
X73133Y-12957D01*
Y-12949D01*
Y-12946D01*
X72092D01*
X72090Y-12918D01*
Y-12899D01*
Y-12888D01*
Y-12885D01*
X72092Y-12821D01*
X72098Y-12763D01*
X72106Y-12707D01*
X72117Y-12655D01*
X72131Y-12608D01*
X72145Y-12563D01*
X72162Y-12524D01*
X72178Y-12488D01*
X72195Y-12455D01*
X72212Y-12427D01*
X72226Y-12405D01*
X72239Y-12385D01*
X72251Y-12369D01*
X72259Y-12358D01*
X72264Y-12352D01*
X72267Y-12349D01*
X72301Y-12316D01*
X72337Y-12286D01*
X72375Y-12261D01*
X72414Y-12238D01*
X72453Y-12219D01*
X72489Y-12205D01*
X72528Y-12191D01*
X72561Y-12183D01*
X72598Y-12174D01*
X72628Y-12169D01*
X72656Y-12163D01*
X72678Y-12161D01*
X72698Y-12158D01*
X72725D01*
X72778Y-12161D01*
D02*
G37*
G36*
X86862Y-13582D02*
X86129D01*
X86062Y-13579D01*
X86004Y-13576D01*
X85951Y-13571D01*
X85907Y-13565D01*
X85871Y-13560D01*
X85843Y-13557D01*
X85826Y-13551D01*
X85821D01*
X85773Y-13538D01*
X85735Y-13524D01*
X85699Y-13507D01*
X85668Y-13490D01*
X85643Y-13479D01*
X85624Y-13468D01*
X85612Y-13460D01*
X85610Y-13457D01*
X85579Y-13432D01*
X85551Y-13402D01*
X85529Y-13371D01*
X85507Y-13343D01*
X85490Y-13315D01*
X85479Y-13296D01*
X85471Y-13282D01*
X85468Y-13277D01*
X85449Y-13232D01*
X85435Y-13188D01*
X85424Y-13146D01*
X85418Y-13107D01*
X85413Y-13074D01*
X85410Y-13046D01*
Y-13030D01*
Y-13027D01*
Y-13024D01*
X85413Y-12963D01*
X85424Y-12907D01*
X85440Y-12860D01*
X85457Y-12816D01*
X85474Y-12782D01*
X85490Y-12757D01*
X85501Y-12741D01*
X85504Y-12735D01*
X85543Y-12691D01*
X85585Y-12655D01*
X85632Y-12624D01*
X85674Y-12599D01*
X85712Y-12580D01*
X85746Y-12569D01*
X85757Y-12563D01*
X85765Y-12560D01*
X85771Y-12558D01*
X85773D01*
X85726Y-12530D01*
X85685Y-12502D01*
X85651Y-12472D01*
X85624Y-12444D01*
X85601Y-12422D01*
X85585Y-12399D01*
X85576Y-12388D01*
X85574Y-12383D01*
X85551Y-12341D01*
X85535Y-12302D01*
X85521Y-12263D01*
X85513Y-12227D01*
X85507Y-12197D01*
X85504Y-12172D01*
Y-12158D01*
Y-12152D01*
X85507Y-12105D01*
X85515Y-12058D01*
X85529Y-12016D01*
X85543Y-11977D01*
X85557Y-11944D01*
X85571Y-11922D01*
X85579Y-11905D01*
X85582Y-11900D01*
X85612Y-11858D01*
X85646Y-11819D01*
X85682Y-11789D01*
X85715Y-11764D01*
X85743Y-11744D01*
X85768Y-11730D01*
X85785Y-11722D01*
X85787Y-11719D01*
X85790D01*
X85843Y-11700D01*
X85901Y-11686D01*
X85960Y-11675D01*
X86015Y-11669D01*
X86065Y-11664D01*
X86087D01*
X86107Y-11661D01*
X86862D01*
Y-13582D01*
D02*
G37*
G36*
X77606Y-13582D02*
X76404D01*
Y-13354D01*
X77350D01*
Y-11661D01*
X77606D01*
Y-13582D01*
D02*
G37*
G36*
X71321Y-12161D02*
X71348Y-12166D01*
X71376Y-12174D01*
X71398Y-12183D01*
X71415Y-12191D01*
X71432Y-12199D01*
X71440Y-12205D01*
X71443Y-12208D01*
X71468Y-12230D01*
X71493Y-12258D01*
X71518Y-12291D01*
X71540Y-12322D01*
X71562Y-12352D01*
X71576Y-12377D01*
X71587Y-12397D01*
X71590Y-12399D01*
Y-12188D01*
X71804D01*
Y-13582D01*
X71568D01*
Y-12855D01*
X71565Y-12799D01*
X71562Y-12749D01*
X71556Y-12702D01*
X71548Y-12660D01*
X71540Y-12627D01*
X71534Y-12602D01*
X71531Y-12585D01*
X71529Y-12580D01*
X71518Y-12549D01*
X71504Y-12524D01*
X71490Y-12502D01*
X71476Y-12483D01*
X71462Y-12469D01*
X71454Y-12458D01*
X71445Y-12452D01*
X71443Y-12449D01*
X71420Y-12433D01*
X71395Y-12422D01*
X71370Y-12413D01*
X71351Y-12408D01*
X71332Y-12405D01*
X71318Y-12402D01*
X71304D01*
X71273Y-12405D01*
X71243Y-12410D01*
X71212Y-12419D01*
X71187Y-12427D01*
X71165Y-12435D01*
X71148Y-12444D01*
X71137Y-12449D01*
X71134Y-12452D01*
X71048Y-12236D01*
X71096Y-12211D01*
X71140Y-12191D01*
X71179Y-12177D01*
X71215Y-12166D01*
X71246Y-12161D01*
X71271Y-12158D01*
X71290D01*
X71321Y-12161D01*
D02*
G37*
G36*
X84574Y-12161D02*
X84619Y-12163D01*
X84705Y-12183D01*
X84780Y-12208D01*
X84813Y-12222D01*
X84843Y-12236D01*
X84871Y-12249D01*
X84893Y-12263D01*
X84916Y-12277D01*
X84932Y-12288D01*
X84946Y-12299D01*
X84957Y-12308D01*
X84963Y-12310D01*
X84966Y-12313D01*
X85004Y-12349D01*
X85035Y-12391D01*
X85066Y-12435D01*
X85088Y-12480D01*
X85110Y-12527D01*
X85127Y-12577D01*
X85141Y-12624D01*
X85152Y-12669D01*
X85163Y-12713D01*
X85168Y-12752D01*
X85174Y-12791D01*
X85177Y-12821D01*
Y-12849D01*
X85179Y-12869D01*
Y-12880D01*
Y-12885D01*
X85177Y-12949D01*
X85171Y-13010D01*
X85163Y-13066D01*
X85152Y-13118D01*
X85138Y-13166D01*
X85124Y-13210D01*
X85107Y-13252D01*
X85091Y-13288D01*
X85074Y-13321D01*
X85057Y-13349D01*
X85043Y-13371D01*
X85029Y-13390D01*
X85018Y-13407D01*
X85010Y-13418D01*
X85004Y-13424D01*
X85002Y-13427D01*
X84966Y-13460D01*
X84930Y-13488D01*
X84891Y-13513D01*
X84852Y-13535D01*
X84813Y-13551D01*
X84771Y-13568D01*
X84696Y-13590D01*
X84663Y-13596D01*
X84630Y-13601D01*
X84602Y-13607D01*
X84577Y-13610D01*
X84555Y-13613D01*
X84527D01*
X84460Y-13610D01*
X84399Y-13599D01*
X84341Y-13585D01*
X84294Y-13571D01*
X84252Y-13554D01*
X84235Y-13549D01*
X84222Y-13543D01*
X84208Y-13538D01*
X84199Y-13532D01*
X84197Y-13529D01*
X84194D01*
X84138Y-13493D01*
X84091Y-13454D01*
X84049Y-13415D01*
X84016Y-13377D01*
X83991Y-13343D01*
X83972Y-13315D01*
X83966Y-13304D01*
X83961Y-13296D01*
X83958Y-13293D01*
Y-13290D01*
X83930Y-13227D01*
X83911Y-13157D01*
X83894Y-13088D01*
X83886Y-13018D01*
X83880Y-12988D01*
Y-12960D01*
X83877Y-12932D01*
X83875Y-12910D01*
Y-12891D01*
Y-12877D01*
Y-12869D01*
Y-12866D01*
X83877Y-12805D01*
X83883Y-12749D01*
X83891Y-12696D01*
X83902Y-12646D01*
X83916Y-12599D01*
X83933Y-12558D01*
X83950Y-12516D01*
X83966Y-12483D01*
X83983Y-12452D01*
X83999Y-12424D01*
X84016Y-12399D01*
X84030Y-12380D01*
X84041Y-12366D01*
X84049Y-12355D01*
X84055Y-12349D01*
X84058Y-12347D01*
X84094Y-12313D01*
X84130Y-12286D01*
X84169Y-12258D01*
X84208Y-12238D01*
X84247Y-12219D01*
X84285Y-12205D01*
X84360Y-12180D01*
X84396Y-12174D01*
X84427Y-12169D01*
X84455Y-12163D01*
X84480Y-12161D01*
X84499Y-12158D01*
X84527D01*
X84574Y-12161D01*
D02*
G37*
G36*
X81587D02*
X81631Y-12163D01*
X81717Y-12183D01*
X81792Y-12208D01*
X81826Y-12222D01*
X81856Y-12236D01*
X81884Y-12249D01*
X81906Y-12263D01*
X81928Y-12277D01*
X81945Y-12288D01*
X81959Y-12299D01*
X81970Y-12308D01*
X81976Y-12310D01*
X81978Y-12313D01*
X82017Y-12349D01*
X82048Y-12391D01*
X82078Y-12435D01*
X82101Y-12480D01*
X82123Y-12527D01*
X82139Y-12577D01*
X82153Y-12624D01*
X82164Y-12669D01*
X82176Y-12713D01*
X82181Y-12752D01*
X82187Y-12791D01*
X82189Y-12821D01*
Y-12849D01*
X82192Y-12869D01*
Y-12880D01*
Y-12885D01*
X82189Y-12949D01*
X82184Y-13010D01*
X82176Y-13066D01*
X82164Y-13118D01*
X82151Y-13166D01*
X82137Y-13210D01*
X82120Y-13252D01*
X82103Y-13288D01*
X82087Y-13321D01*
X82070Y-13349D01*
X82056Y-13371D01*
X82042Y-13390D01*
X82031Y-13407D01*
X82023Y-13418D01*
X82017Y-13424D01*
X82015Y-13427D01*
X81978Y-13460D01*
X81942Y-13488D01*
X81903Y-13513D01*
X81865Y-13535D01*
X81826Y-13551D01*
X81784Y-13568D01*
X81709Y-13590D01*
X81676Y-13596D01*
X81642Y-13601D01*
X81615Y-13607D01*
X81590Y-13610D01*
X81568Y-13613D01*
X81540D01*
X81473Y-13610D01*
X81412Y-13599D01*
X81354Y-13585D01*
X81307Y-13571D01*
X81265Y-13554D01*
X81248Y-13549D01*
X81234Y-13543D01*
X81220Y-13538D01*
X81212Y-13532D01*
X81209Y-13529D01*
X81207D01*
X81151Y-13493D01*
X81104Y-13454D01*
X81062Y-13415D01*
X81029Y-13377D01*
X81004Y-13343D01*
X80985Y-13315D01*
X80979Y-13304D01*
X80973Y-13296D01*
X80971Y-13293D01*
Y-13290D01*
X80943Y-13227D01*
X80923Y-13157D01*
X80907Y-13088D01*
X80898Y-13018D01*
X80893Y-12988D01*
Y-12960D01*
X80890Y-12932D01*
X80887Y-12910D01*
Y-12891D01*
Y-12877D01*
Y-12869D01*
Y-12866D01*
X80890Y-12805D01*
X80896Y-12749D01*
X80904Y-12696D01*
X80915Y-12646D01*
X80929Y-12599D01*
X80946Y-12558D01*
X80962Y-12516D01*
X80979Y-12483D01*
X80996Y-12452D01*
X81012Y-12424D01*
X81029Y-12399D01*
X81043Y-12380D01*
X81054Y-12366D01*
X81062Y-12355D01*
X81068Y-12349D01*
X81071Y-12347D01*
X81107Y-12313D01*
X81143Y-12286D01*
X81182Y-12258D01*
X81220Y-12238D01*
X81259Y-12219D01*
X81298Y-12205D01*
X81373Y-12180D01*
X81409Y-12174D01*
X81440Y-12169D01*
X81468Y-12163D01*
X81493Y-12161D01*
X81512Y-12158D01*
X81540D01*
X81587Y-12161D01*
D02*
G37*
G36*
X44046Y-11633D02*
X44143Y-11647D01*
X44187Y-11655D01*
X44229Y-11666D01*
X44268Y-11675D01*
X44304Y-11686D01*
X44337Y-11697D01*
X44365Y-11708D01*
X44390Y-11719D01*
X44412Y-11727D01*
X44429Y-11736D01*
X44440Y-11741D01*
X44448Y-11744D01*
X44451Y-11747D01*
X44490Y-11772D01*
X44529Y-11797D01*
X44596Y-11855D01*
X44654Y-11913D01*
X44701Y-11975D01*
X44740Y-12027D01*
X44754Y-12050D01*
X44765Y-12072D01*
X44776Y-12088D01*
X44782Y-12099D01*
X44784Y-12108D01*
X44787Y-12111D01*
X44826Y-12202D01*
X44854Y-12294D01*
X44876Y-12383D01*
X44881Y-12424D01*
X44890Y-12463D01*
X44893Y-12499D01*
X44898Y-12530D01*
X44901Y-12560D01*
Y-12585D01*
X44904Y-12605D01*
Y-12619D01*
Y-12630D01*
Y-12633D01*
X44898Y-12735D01*
X44884Y-12832D01*
X44876Y-12877D01*
X44868Y-12918D01*
X44856Y-12960D01*
X44845Y-12996D01*
X44834Y-13030D01*
X44823Y-13057D01*
X44815Y-13085D01*
X44807Y-13104D01*
X44798Y-13124D01*
X44793Y-13135D01*
X44787Y-13143D01*
Y-13146D01*
X44737Y-13227D01*
X44682Y-13296D01*
X44623Y-13357D01*
X44568Y-13407D01*
X44515Y-13446D01*
X44496Y-13460D01*
X44476Y-13474D01*
X44459Y-13482D01*
X44448Y-13490D01*
X44440Y-13493D01*
X44437Y-13496D01*
X44393Y-13518D01*
X44348Y-13535D01*
X44260Y-13565D01*
X44174Y-13585D01*
X44093Y-13601D01*
X44057Y-13604D01*
X44024Y-13610D01*
X43993Y-13613D01*
X43968D01*
X43949Y-13615D01*
X43921D01*
X43843Y-13613D01*
X43768Y-13604D01*
X43699Y-13590D01*
X43638Y-13576D01*
X43613Y-13571D01*
X43588Y-13565D01*
X43566Y-13557D01*
X43546Y-13551D01*
X43532Y-13546D01*
X43521Y-13543D01*
X43516Y-13540D01*
X43513D01*
X43438Y-13510D01*
X43368Y-13474D01*
X43302Y-13435D01*
X43244Y-13399D01*
X43219Y-13382D01*
X43194Y-13365D01*
X43174Y-13352D01*
X43157Y-13340D01*
X43144Y-13329D01*
X43132Y-13321D01*
X43127Y-13318D01*
X43124Y-13315D01*
Y-12602D01*
X43940D01*
Y-12830D01*
X43374D01*
Y-13191D01*
X43407Y-13218D01*
X43446Y-13243D01*
X43488Y-13266D01*
X43527Y-13285D01*
X43560Y-13302D01*
X43591Y-13315D01*
X43602Y-13321D01*
X43607Y-13324D01*
X43613Y-13327D01*
X43616D01*
X43674Y-13346D01*
X43732Y-13363D01*
X43785Y-13374D01*
X43835Y-13379D01*
X43876Y-13385D01*
X43893D01*
X43910Y-13388D01*
X43938D01*
X44007Y-13385D01*
X44074Y-13374D01*
X44135Y-13360D01*
X44190Y-13346D01*
X44235Y-13329D01*
X44254Y-13324D01*
X44268Y-13318D01*
X44282Y-13313D01*
X44290Y-13307D01*
X44296Y-13304D01*
X44298D01*
X44357Y-13268D01*
X44410Y-13229D01*
X44454Y-13188D01*
X44490Y-13146D01*
X44521Y-13107D01*
X44540Y-13077D01*
X44548Y-13066D01*
X44551Y-13057D01*
X44557Y-13052D01*
Y-13049D01*
X44584Y-12980D01*
X44607Y-12907D01*
X44621Y-12835D01*
X44632Y-12766D01*
X44634Y-12735D01*
X44637Y-12707D01*
X44640Y-12680D01*
Y-12658D01*
X44643Y-12641D01*
Y-12627D01*
Y-12619D01*
Y-12616D01*
X44640Y-12538D01*
X44632Y-12469D01*
X44621Y-12402D01*
X44607Y-12344D01*
X44601Y-12319D01*
X44593Y-12297D01*
X44587Y-12277D01*
X44582Y-12261D01*
X44576Y-12247D01*
X44573Y-12238D01*
X44571Y-12233D01*
Y-12230D01*
X44551Y-12191D01*
X44532Y-12155D01*
X44512Y-12122D01*
X44493Y-12094D01*
X44476Y-12072D01*
X44462Y-12052D01*
X44451Y-12041D01*
X44448Y-12038D01*
X44418Y-12008D01*
X44385Y-11980D01*
X44348Y-11958D01*
X44315Y-11936D01*
X44287Y-11922D01*
X44265Y-11908D01*
X44249Y-11902D01*
X44243Y-11900D01*
X44193Y-11880D01*
X44143Y-11866D01*
X44090Y-11858D01*
X44043Y-11850D01*
X44001Y-11847D01*
X43985D01*
X43971Y-11844D01*
X43940D01*
X43888Y-11847D01*
X43838Y-11852D01*
X43793Y-11861D01*
X43754Y-11869D01*
X43721Y-11880D01*
X43696Y-11889D01*
X43682Y-11894D01*
X43677Y-11897D01*
X43635Y-11916D01*
X43599Y-11938D01*
X43566Y-11961D01*
X43541Y-11983D01*
X43521Y-12002D01*
X43504Y-12016D01*
X43496Y-12027D01*
X43493Y-12030D01*
X43468Y-12063D01*
X43449Y-12102D01*
X43430Y-12138D01*
X43413Y-12177D01*
X43402Y-12211D01*
X43393Y-12236D01*
X43391Y-12247D01*
X43388Y-12255D01*
X43385Y-12258D01*
Y-12261D01*
X43155Y-12199D01*
X43174Y-12130D01*
X43199Y-12069D01*
X43224Y-12013D01*
X43246Y-11969D01*
X43269Y-11933D01*
X43285Y-11908D01*
X43296Y-11891D01*
X43302Y-11886D01*
X43341Y-11841D01*
X43382Y-11805D01*
X43427Y-11772D01*
X43468Y-11744D01*
X43507Y-11725D01*
X43538Y-11708D01*
X43549Y-11703D01*
X43557Y-11700D01*
X43563Y-11697D01*
X43566D01*
X43629Y-11675D01*
X43696Y-11658D01*
X43757Y-11644D01*
X43815Y-11636D01*
X43868Y-11630D01*
X43890D01*
X43907Y-11628D01*
X43996D01*
X44046Y-11633D01*
D02*
G37*
G36*
X45548Y-13582D02*
X45278D01*
Y-13313D01*
X45548D01*
Y-13582D01*
D02*
G37*
G36*
X42760D02*
X42028D01*
X41961Y-13579D01*
X41903Y-13576D01*
X41850Y-13571D01*
X41805Y-13565D01*
X41769Y-13560D01*
X41742Y-13557D01*
X41725Y-13551D01*
X41719D01*
X41672Y-13538D01*
X41633Y-13524D01*
X41597Y-13507D01*
X41567Y-13490D01*
X41542Y-13479D01*
X41522Y-13468D01*
X41511Y-13460D01*
X41508Y-13457D01*
X41478Y-13432D01*
X41450Y-13402D01*
X41428Y-13371D01*
X41406Y-13343D01*
X41389Y-13315D01*
X41378Y-13296D01*
X41370Y-13282D01*
X41367Y-13277D01*
X41347Y-13232D01*
X41333Y-13188D01*
X41322Y-13146D01*
X41317Y-13107D01*
X41311Y-13074D01*
X41308Y-13046D01*
Y-13030D01*
Y-13027D01*
Y-13024D01*
X41311Y-12963D01*
X41322Y-12907D01*
X41339Y-12860D01*
X41356Y-12816D01*
X41372Y-12782D01*
X41389Y-12757D01*
X41400Y-12741D01*
X41403Y-12735D01*
X41442Y-12691D01*
X41483Y-12655D01*
X41531Y-12624D01*
X41572Y-12599D01*
X41611Y-12580D01*
X41644Y-12569D01*
X41656Y-12563D01*
X41664Y-12560D01*
X41669Y-12558D01*
X41672D01*
X41625Y-12530D01*
X41583Y-12502D01*
X41550Y-12472D01*
X41522Y-12444D01*
X41500Y-12422D01*
X41483Y-12399D01*
X41475Y-12388D01*
X41472Y-12383D01*
X41450Y-12341D01*
X41433Y-12302D01*
X41420Y-12263D01*
X41411Y-12227D01*
X41406Y-12197D01*
X41403Y-12172D01*
Y-12158D01*
Y-12152D01*
X41406Y-12105D01*
X41414Y-12058D01*
X41428Y-12016D01*
X41442Y-11977D01*
X41456Y-11944D01*
X41470Y-11922D01*
X41478Y-11905D01*
X41481Y-11900D01*
X41511Y-11858D01*
X41544Y-11819D01*
X41581Y-11789D01*
X41614Y-11764D01*
X41642Y-11744D01*
X41667Y-11730D01*
X41683Y-11722D01*
X41686Y-11719D01*
X41689D01*
X41742Y-11700D01*
X41800Y-11686D01*
X41858Y-11675D01*
X41914Y-11669D01*
X41964Y-11664D01*
X41986D01*
X42005Y-11661D01*
X42760D01*
Y-13582D01*
D02*
G37*
G36*
X40970D02*
X39768D01*
Y-13354D01*
X40714D01*
Y-11661D01*
X40970D01*
Y-13582D01*
D02*
G37*
%LPC*%
G36*
X50325Y33325D02*
X50175D01*
X50038Y33268D01*
X49932Y33162D01*
X49875Y33025D01*
Y32875D01*
X49932Y32738D01*
X50038Y32632D01*
X50175Y32575D01*
X50325D01*
X50462Y32632D01*
X50568Y32738D01*
X50625Y32875D01*
Y33025D01*
X50568Y33162D01*
X50462Y33268D01*
X50325Y33325D01*
D02*
G37*
G36*
X56473Y33598D02*
Y33598D01*
X56372Y33598D01*
X55976D01*
Y31949D01*
X55722D01*
Y33598D01*
X55225D01*
Y33496D01*
X55099Y33494D01*
Y33494D01*
X54059D01*
Y30479D01*
X53829D01*
Y33494D01*
X52789D01*
Y30479D01*
X51920D01*
X50238Y32162D01*
X50163Y32212D01*
X50075Y32229D01*
X37232D01*
X37218Y32262D01*
X37112Y32368D01*
X36975Y32425D01*
X36825D01*
X36688Y32368D01*
X36582Y32262D01*
X36525Y32125D01*
Y31975D01*
X36582Y31838D01*
X36688Y31732D01*
X36825Y31675D01*
X36975D01*
X37112Y31732D01*
X37151Y31771D01*
X40206D01*
X40234Y31659D01*
X40235Y31644D01*
X40132Y31541D01*
X40075Y31403D01*
Y31254D01*
X40132Y31116D01*
X40238Y31011D01*
X40376Y30953D01*
X40525D01*
X40663Y31011D01*
X40768Y31116D01*
X40825Y31254D01*
Y31403D01*
X40768Y31541D01*
X40665Y31644D01*
X40666Y31659D01*
X40694Y31771D01*
X41186D01*
X41235Y31644D01*
X41164Y31573D01*
X41107Y31435D01*
Y31286D01*
X41164Y31148D01*
X41270Y31042D01*
X41408Y30985D01*
X41557D01*
X41695Y31042D01*
X41800Y31148D01*
X41857Y31286D01*
Y31435D01*
X41800Y31573D01*
X41729Y31644D01*
X41778Y31771D01*
X43699D01*
X43724Y31644D01*
X43663Y31618D01*
X43557Y31513D01*
X43500Y31375D01*
Y31226D01*
X43557Y31088D01*
X43663Y30982D01*
X43740Y30950D01*
X43770Y30905D01*
X43783Y30892D01*
X43737Y30759D01*
X43638Y30718D01*
X43532Y30612D01*
X43475Y30475D01*
Y30325D01*
X43532Y30188D01*
X43638Y30082D01*
X43775Y30025D01*
X43925D01*
X44062Y30082D01*
X44168Y30188D01*
X44225Y30325D01*
Y30475D01*
X44218Y30492D01*
X44303Y30619D01*
X49457D01*
X49721Y30355D01*
Y30100D01*
X49614D01*
X49449Y30056D01*
X49301Y29970D01*
X49180Y29849D01*
X49094Y29701D01*
X49050Y29536D01*
Y29364D01*
X49094Y29199D01*
X49180Y29051D01*
X49301Y28930D01*
X49449Y28844D01*
X49614Y28800D01*
X49786D01*
X49951Y28844D01*
X50099Y28930D01*
X50197Y29028D01*
X51277Y27949D01*
X51225Y27825D01*
Y27675D01*
X51282Y27538D01*
X51388Y27432D01*
X51525Y27375D01*
X51675D01*
X51812Y27432D01*
X51918Y27538D01*
X51975Y27675D01*
Y27825D01*
X51918Y27962D01*
X51812Y28068D01*
X51755Y28092D01*
X51755Y28095D01*
X51705Y28170D01*
X50425Y29450D01*
X50350Y29499D01*
X50350Y29499D01*
Y29536D01*
X50306Y29701D01*
X50220Y29849D01*
X50173Y29896D01*
X50179Y29930D01*
Y30279D01*
X50297Y30328D01*
X50979Y29645D01*
X50950Y29536D01*
Y29364D01*
X50994Y29199D01*
X51080Y29051D01*
X51201Y28930D01*
X51349Y28844D01*
X51514Y28800D01*
X51686D01*
X51851Y28844D01*
X51999Y28930D01*
X52120Y29051D01*
X52206Y29199D01*
X52250Y29364D01*
Y29536D01*
X52206Y29701D01*
X52120Y29849D01*
X52076Y29894D01*
X52128Y30021D01*
X64274D01*
X64282Y30007D01*
X64313Y29894D01*
X64232Y29812D01*
X64175Y29675D01*
Y29525D01*
X64232Y29388D01*
X64338Y29282D01*
X64475Y29225D01*
X64625D01*
X64762Y29282D01*
X64868Y29388D01*
X64925Y29525D01*
Y29675D01*
X64868Y29812D01*
X64787Y29894D01*
X64818Y30007D01*
X64826Y30021D01*
X67719D01*
X67951Y29788D01*
X68026Y29738D01*
X68114Y29721D01*
X72555D01*
X74675Y27601D01*
Y27475D01*
X74732Y27338D01*
X74838Y27232D01*
X74975Y27175D01*
X75125D01*
X75262Y27232D01*
X75368Y27338D01*
X75425Y27475D01*
Y27625D01*
X75368Y27762D01*
X75262Y27868D01*
X75125Y27925D01*
X74999D01*
X72812Y30112D01*
X72738Y30162D01*
X72650Y30179D01*
X68476D01*
X68450Y30306D01*
X68512Y30332D01*
X68618Y30438D01*
X68675Y30575D01*
Y30725D01*
X68618Y30862D01*
X68512Y30968D01*
X68375Y31025D01*
X68225D01*
X68088Y30968D01*
X67982Y30862D01*
X67925Y30725D01*
Y30587D01*
X67919Y30569D01*
X67829Y30476D01*
X67814Y30479D01*
X61449D01*
Y31309D01*
X61524Y31324D01*
X61598Y31374D01*
X62549Y32325D01*
X62675D01*
X62812Y32382D01*
X62918Y32488D01*
X62975Y32625D01*
Y32775D01*
X62918Y32912D01*
X62812Y33018D01*
X62675Y33075D01*
X62525D01*
X62388Y33018D01*
X62282Y32912D01*
X62225Y32775D01*
Y32649D01*
X61566Y31991D01*
X61449Y32039D01*
Y33494D01*
X60409D01*
Y30479D01*
X60179D01*
Y33494D01*
X59139D01*
Y30479D01*
X58909D01*
Y33494D01*
X57869D01*
Y33494D01*
X57743Y33496D01*
Y33598D01*
X57246D01*
Y31949D01*
X56992D01*
Y33598D01*
X56596D01*
X56495Y33598D01*
Y33598D01*
X56473D01*
D02*
G37*
G36*
X10650Y32367D02*
X10400Y32334D01*
X10167Y32237D01*
X9966Y32084D01*
X9813Y31883D01*
X9716Y31650D01*
X9683Y31400D01*
X9716Y31150D01*
X9813Y30917D01*
X9966Y30716D01*
X10167Y30563D01*
X10400Y30466D01*
X10650Y30433D01*
X10900Y30466D01*
X11133Y30563D01*
X11334Y30716D01*
X11487Y30917D01*
X11584Y31150D01*
X11617Y31400D01*
X11584Y31650D01*
X11487Y31883D01*
X11334Y32084D01*
X11133Y32237D01*
X10900Y32334D01*
X10650Y32367D01*
D02*
G37*
G36*
X26600Y32529D02*
X18876D01*
X18788Y32512D01*
X18714Y32462D01*
X9038Y22786D01*
X8988Y22712D01*
X8971Y22624D01*
Y19395D01*
X5328Y15752D01*
X5262Y15818D01*
X5125Y15875D01*
X4975D01*
X4838Y15818D01*
X4732Y15712D01*
X4675Y15575D01*
Y15425D01*
X4732Y15288D01*
X4838Y15182D01*
X4975Y15125D01*
X5125D01*
X5262Y15182D01*
X5351Y15271D01*
X5400D01*
X5488Y15288D01*
X5562Y15338D01*
X6140Y15916D01*
X6275Y15870D01*
X6283Y15813D01*
X6232Y15762D01*
X6175Y15625D01*
Y15475D01*
X6232Y15338D01*
X6338Y15232D01*
X6475Y15175D01*
X6625D01*
X6762Y15232D01*
X6868Y15338D01*
X6925Y15475D01*
Y15625D01*
X6868Y15762D01*
X6779Y15851D01*
Y16131D01*
X9662Y19014D01*
X9712Y19088D01*
X9729Y19176D01*
Y22405D01*
X16458Y29133D01*
X16606Y29102D01*
X16632Y29038D01*
X16738Y28932D01*
X16875Y28875D01*
X17025D01*
X17162Y28932D01*
X17268Y29038D01*
X17325Y29175D01*
Y29325D01*
X17268Y29462D01*
X17162Y29568D01*
X17098Y29594D01*
X17067Y29742D01*
X19095Y31771D01*
X26015D01*
X26023Y31763D01*
Y31638D01*
X26080Y31500D01*
X26185Y31394D01*
X26323Y31337D01*
X26472D01*
X26610Y31394D01*
X26715Y31500D01*
X26717Y31502D01*
X26844Y31477D01*
Y31136D01*
X26861Y31049D01*
X26911Y30974D01*
X27574Y30311D01*
X27649Y30261D01*
X27729Y30245D01*
X27732Y30238D01*
X27838Y30132D01*
X27975Y30075D01*
X28125D01*
X28262Y30132D01*
X28368Y30238D01*
X28425Y30375D01*
Y30525D01*
X28368Y30662D01*
X28262Y30768D01*
X28125Y30825D01*
X27975D01*
X27838Y30768D01*
X27802Y30732D01*
X27302Y31231D01*
Y31827D01*
X27285Y31915D01*
X27235Y31989D01*
X26762Y32462D01*
X26688Y32512D01*
X26600Y32529D01*
D02*
G37*
G36*
X8320Y31200D02*
X8004D01*
X7699Y31118D01*
X7425Y30960D01*
X7202Y30737D01*
X7044Y30463D01*
X6962Y30158D01*
Y29842D01*
X7044Y29537D01*
X7202Y29263D01*
X7425Y29040D01*
X7699Y28882D01*
X8004Y28800D01*
X8320D01*
X8625Y28882D01*
X8899Y29040D01*
X9122Y29263D01*
X9280Y29537D01*
X9362Y29842D01*
Y30158D01*
X9280Y30463D01*
X9122Y30737D01*
X8899Y30960D01*
X8625Y31118D01*
X8320Y31200D01*
D02*
G37*
G36*
X5320D02*
X5004D01*
X4699Y31118D01*
X4425Y30960D01*
X4202Y30737D01*
X4044Y30463D01*
X3962Y30158D01*
Y29842D01*
X4044Y29537D01*
X4202Y29263D01*
X4425Y29040D01*
X4699Y28882D01*
X5004Y28800D01*
X5320D01*
X5625Y28882D01*
X5899Y29040D01*
X6122Y29263D01*
X6280Y29537D01*
X6362Y29842D01*
Y30158D01*
X6280Y30463D01*
X6122Y30737D01*
X5899Y30960D01*
X5625Y31118D01*
X5320Y31200D01*
D02*
G37*
G36*
X2320D02*
X2004D01*
X1699Y31118D01*
X1425Y30960D01*
X1202Y30737D01*
X1044Y30463D01*
X962Y30158D01*
Y29842D01*
X1044Y29537D01*
X1202Y29263D01*
X1425Y29040D01*
X1699Y28882D01*
X2004Y28800D01*
X2320D01*
X2625Y28882D01*
X2899Y29040D01*
X3122Y29263D01*
X3280Y29537D01*
X3362Y29842D01*
Y30158D01*
X3280Y30463D01*
X3122Y30737D01*
X2899Y30960D01*
X2625Y31118D01*
X2320Y31200D01*
D02*
G37*
G36*
X63225Y29625D02*
X63075D01*
X62938Y29568D01*
X62832Y29462D01*
X62775Y29325D01*
Y29199D01*
X62197Y28622D01*
X61449D01*
Y29430D01*
X60409D01*
Y26340D01*
X61449D01*
Y28163D01*
X62292D01*
X62380Y28180D01*
X62454Y28230D01*
X63099Y28875D01*
X63225D01*
X63362Y28932D01*
X63468Y29038D01*
X63525Y29175D01*
Y29325D01*
X63468Y29462D01*
X63362Y29568D01*
X63225Y29625D01*
D02*
G37*
G36*
X27375Y33700D02*
X15600D01*
X15502Y33680D01*
X15420Y33625D01*
X10240Y28445D01*
X7585D01*
X7488Y28426D01*
X7405Y28370D01*
X6075Y27041D01*
X6020Y26958D01*
X6001Y26860D01*
Y26543D01*
X5874Y26490D01*
X5745Y26618D01*
X5529Y26743D01*
X5287Y26808D01*
X5037D01*
X4795Y26743D01*
X4579Y26618D01*
X4402Y26442D01*
X4277Y26225D01*
X4212Y25983D01*
Y25733D01*
X4277Y25492D01*
X4402Y25275D01*
X4579Y25098D01*
X4795Y24973D01*
X5037Y24908D01*
X5287D01*
X5529Y24973D01*
X5745Y25098D01*
X5874Y25226D01*
X6001Y25174D01*
Y24461D01*
X2823Y21284D01*
X2768Y21201D01*
X2749Y21103D01*
Y19302D01*
X2622Y19217D01*
X2603Y19225D01*
X2454D01*
X2316Y19168D01*
X2211Y19062D01*
X2153Y18924D01*
Y18775D01*
X2211Y18637D01*
X2316Y18532D01*
X2454Y18475D01*
X2603D01*
X2622Y18482D01*
X2749Y18398D01*
Y18213D01*
X2538Y18003D01*
X2483Y17920D01*
X2463Y17823D01*
Y16529D01*
X2381Y16495D01*
X2275Y16390D01*
X2218Y16252D01*
Y16103D01*
X2275Y15965D01*
X2381Y15859D01*
X2519Y15802D01*
X2668D01*
X2806Y15859D01*
X2893Y15947D01*
X2981Y15859D01*
X3119Y15802D01*
X3268D01*
X3406Y15859D01*
X3511Y15965D01*
X3568Y16103D01*
Y16252D01*
X3511Y16390D01*
X3431Y16470D01*
X3428Y16508D01*
X3436Y16526D01*
X3534Y16625D01*
X3625D01*
X3762Y16682D01*
X3868Y16788D01*
X3925Y16925D01*
Y17075D01*
X3868Y17212D01*
X3762Y17318D01*
X3625Y17375D01*
X3475D01*
X3450Y17365D01*
X3323Y17449D01*
Y17572D01*
X3534Y17783D01*
X3589Y17865D01*
X3608Y17963D01*
Y20853D01*
X6786Y24030D01*
X6841Y24113D01*
X6860Y24211D01*
Y24908D01*
X8652D01*
Y26808D01*
X7225D01*
X7176Y26926D01*
X7836Y27585D01*
X10490D01*
X10588Y27605D01*
X10670Y27660D01*
X15850Y32840D01*
X27124D01*
X30047Y29917D01*
X30130Y29862D01*
X30227Y29843D01*
X42270D01*
X43893Y28220D01*
X43975Y28164D01*
X44073Y28145D01*
X47949D01*
X48275Y27820D01*
X48357Y27764D01*
X48455Y27745D01*
X49166D01*
X49495Y27416D01*
Y26512D01*
X49514Y26415D01*
X49570Y26332D01*
X50632Y25270D01*
X50632Y25270D01*
X50715Y25214D01*
X50812Y25195D01*
X56755D01*
X56803Y25078D01*
X56355Y24629D01*
X49894D01*
X48661Y25862D01*
X48586Y25912D01*
X48499Y25929D01*
X44294D01*
X43711Y26512D01*
X43636Y26562D01*
X43549Y26579D01*
X43445D01*
X43375Y26649D01*
Y26775D01*
X43318Y26912D01*
X43212Y27018D01*
X43075Y27075D01*
X42925D01*
X42788Y27018D01*
X42682Y26912D01*
X42625Y26775D01*
Y26625D01*
X42682Y26488D01*
X42763Y26406D01*
X42732Y26293D01*
X42724Y26279D01*
X42459D01*
X40576Y28162D01*
X40501Y28212D01*
X40414Y28229D01*
X37850D01*
X37762Y28212D01*
X37688Y28162D01*
X36838Y27312D01*
X36788Y27238D01*
X36771Y27150D01*
Y26473D01*
X36638Y26418D01*
X36532Y26312D01*
X36475Y26175D01*
Y26129D01*
X35200D01*
X35112Y26112D01*
X35038Y26062D01*
X30255Y21279D01*
X24048D01*
Y21362D01*
X23991Y21499D01*
X23885Y21605D01*
X23748Y21662D01*
X23598D01*
X23461Y21605D01*
X23355Y21499D01*
X23298Y21362D01*
Y21279D01*
X22826D01*
X22738Y21262D01*
X22664Y21212D01*
X22531Y21079D01*
X22315D01*
X22262Y21206D01*
X24266Y23210D01*
X24322Y23294D01*
X24342Y23393D01*
Y29408D01*
X24391Y29467D01*
X24424Y29496D01*
X24452Y29510D01*
X24577D01*
X24715Y29567D01*
X24820Y29673D01*
X24827Y29690D01*
X24977Y29720D01*
X25963Y28734D01*
X26063Y28667D01*
X26180Y28644D01*
X40630D01*
X40856Y28419D01*
X40955Y28352D01*
X41072Y28329D01*
X42632D01*
X43727Y27234D01*
X43826Y27167D01*
X43943Y27144D01*
X47276D01*
X47288Y27132D01*
X47425Y27075D01*
X47575D01*
X47712Y27132D01*
X47818Y27238D01*
X47875Y27375D01*
Y27525D01*
X47818Y27662D01*
X47712Y27768D01*
X47575Y27825D01*
X47425D01*
X47288Y27768D01*
X47276Y27756D01*
X44070D01*
X42975Y28851D01*
X42875Y28918D01*
X42758Y28941D01*
X41721D01*
X41636Y29068D01*
X41650Y29100D01*
Y29250D01*
X41592Y29387D01*
X41487Y29493D01*
X41349Y29550D01*
X41200D01*
X41062Y29493D01*
X40957Y29387D01*
X40937Y29340D01*
X40884Y29250D01*
X40774Y29253D01*
X40757Y29256D01*
X26306D01*
X24921Y30641D01*
X24822Y30708D01*
X24705Y30731D01*
X22475D01*
X22358Y30708D01*
X22259Y30641D01*
X21334Y29716D01*
X21267Y29617D01*
X21244Y29500D01*
Y29100D01*
X21174Y29068D01*
X21117Y29061D01*
X21024Y29154D01*
X20886Y29211D01*
X20737D01*
X20599Y29154D01*
X20493Y29048D01*
X20436Y28911D01*
Y28834D01*
X20309Y28781D01*
X20285Y28805D01*
X20148Y28862D01*
X19998D01*
X19877Y28812D01*
X19807Y28838D01*
X19750Y28873D01*
Y28960D01*
X19692Y29098D01*
X19587Y29204D01*
X19449Y29261D01*
X19300D01*
X19162Y29204D01*
X19057Y29098D01*
X19000Y28960D01*
Y28811D01*
X19057Y28673D01*
X19162Y28568D01*
X19300Y28511D01*
X19449D01*
X19571Y28561D01*
X19640Y28535D01*
X19698Y28499D01*
Y28412D01*
X19735Y28323D01*
X19686Y28192D01*
X19674Y28176D01*
X19584Y28116D01*
X18692Y27225D01*
X18557Y27269D01*
X18518Y27362D01*
X18412Y27468D01*
X18275Y27525D01*
X18125D01*
X17988Y27468D01*
X17882Y27362D01*
X17825Y27225D01*
Y27075D01*
X17882Y26938D01*
X17896Y26924D01*
X17461Y26489D01*
X17411Y26415D01*
X17394Y26327D01*
Y24998D01*
X17411Y24910D01*
X17461Y24836D01*
X17581Y24716D01*
X17505Y24640D01*
X17448Y24502D01*
Y24353D01*
X17459Y24326D01*
X17374Y24199D01*
X17063D01*
X16946Y24176D01*
X16847Y24110D01*
X15198Y22461D01*
X15114Y22445D01*
X15015Y22378D01*
X13291Y20655D01*
X13225Y20556D01*
X13202Y20438D01*
Y11742D01*
X13225Y11625D01*
X13291Y11526D01*
X17936Y6882D01*
X18035Y6815D01*
X18152Y6792D01*
X20461D01*
X23628Y3625D01*
Y3608D01*
X23685Y3471D01*
X23791Y3365D01*
X23928Y3308D01*
X23945D01*
X24444Y2809D01*
X24544Y2743D01*
X24661Y2719D01*
X26765D01*
X26799Y2592D01*
X26743Y2560D01*
X26520Y2337D01*
X26362Y2063D01*
X26280Y1758D01*
Y1442D01*
X26362Y1137D01*
X26520Y863D01*
X26743Y640D01*
X27017Y482D01*
X27322Y400D01*
X27638D01*
X27943Y482D01*
X28217Y640D01*
X28440Y863D01*
X28598Y1137D01*
X28680Y1442D01*
Y1758D01*
X28598Y2063D01*
X28440Y2337D01*
X28217Y2560D01*
X28161Y2592D01*
X28195Y2719D01*
X29505D01*
X29539Y2592D01*
X29483Y2560D01*
X29260Y2337D01*
X29102Y2063D01*
X29020Y1758D01*
Y1442D01*
X29102Y1137D01*
X29260Y863D01*
X29483Y640D01*
X29757Y482D01*
X30062Y400D01*
X30378D01*
X30683Y482D01*
X30957Y640D01*
X31180Y863D01*
X31338Y1137D01*
X31420Y1442D01*
Y1758D01*
X31338Y2063D01*
X31180Y2337D01*
X30957Y2560D01*
X30901Y2592D01*
X30935Y2719D01*
X31725D01*
X31842Y2743D01*
X31942Y2809D01*
X31980Y2847D01*
X32200D01*
Y1250D01*
X37800D01*
Y3000D01*
X34904D01*
X34855Y3117D01*
X35352Y3614D01*
X35427Y3594D01*
X35598D01*
X35763Y3638D01*
X35912Y3724D01*
X36033Y3845D01*
X36118Y3993D01*
X36163Y4158D01*
Y4330D01*
X36118Y4495D01*
X36033Y4643D01*
X35912Y4764D01*
X35763Y4850D01*
X35598Y4894D01*
X35427D01*
X35262Y4850D01*
X35113Y4764D01*
X34992Y4643D01*
X34907Y4495D01*
X34863Y4330D01*
Y4158D01*
X34898Y4026D01*
X34331Y3459D01*
X31853D01*
X31736Y3436D01*
X31637Y3369D01*
X31599Y3331D01*
X31195D01*
Y5425D01*
X29045D01*
Y3331D01*
X28219D01*
X28185Y3458D01*
X28240Y3490D01*
X28440Y3690D01*
X28582Y3935D01*
X28655Y4209D01*
Y4492D01*
X28582Y4765D01*
X28440Y5010D01*
X28240Y5211D01*
X27995Y5352D01*
X27722Y5425D01*
X27439D01*
X27165Y5352D01*
X26920Y5211D01*
X26720Y5010D01*
X26578Y4765D01*
X26505Y4492D01*
Y4209D01*
X26578Y3935D01*
X26720Y3690D01*
X26920Y3490D01*
X26975Y3458D01*
X26941Y3331D01*
X24787D01*
X24378Y3741D01*
Y3758D01*
X24321Y3895D01*
X24215Y4001D01*
X24078Y4058D01*
X24061D01*
X20804Y7314D01*
X20705Y7381D01*
X20588Y7404D01*
X18279D01*
X14449Y11233D01*
X14453Y11260D01*
X14550Y11371D01*
X15248D01*
X15282Y11288D01*
X15388Y11182D01*
X15525Y11125D01*
X15651D01*
X17638Y9138D01*
X17712Y9088D01*
X17800Y9071D01*
X46924D01*
X47012Y9088D01*
X47086Y9138D01*
X49719Y11771D01*
X63934D01*
X64019Y11644D01*
X64007Y11614D01*
Y11465D01*
X64064Y11327D01*
X64152Y11239D01*
Y8701D01*
X60939Y5487D01*
X60797D01*
X60708Y5576D01*
X60571Y5633D01*
X60421D01*
X60284Y5576D01*
X60178Y5470D01*
X60121Y5333D01*
Y5183D01*
X60178Y5046D01*
X60284Y4940D01*
X60421Y4883D01*
X60571D01*
X60585Y4889D01*
X60657Y4781D01*
X60334Y4458D01*
X60284Y4384D01*
X60267Y4296D01*
Y4209D01*
X60178Y4120D01*
X60121Y3983D01*
Y3833D01*
X60178Y3696D01*
X60284Y3590D01*
X60421Y3533D01*
X60571D01*
X60708Y3590D01*
X60814Y3696D01*
X60871Y3833D01*
Y3983D01*
X60814Y4120D01*
X60729Y4205D01*
X65212Y8688D01*
X65262Y8762D01*
X65279Y8850D01*
Y11249D01*
X65368Y11338D01*
X65425Y11475D01*
Y11625D01*
X65417Y11644D01*
X65502Y11771D01*
X72957D01*
X73540Y11188D01*
X73614Y11138D01*
X73702Y11121D01*
X83200D01*
X83288Y11138D01*
X83362Y11188D01*
X83762Y11588D01*
X83812Y11662D01*
X83829Y11750D01*
Y13600D01*
X83812Y13688D01*
X83762Y13762D01*
X82912Y14612D01*
X82838Y14662D01*
X82750Y14679D01*
X82601D01*
X82512Y14768D01*
X82375Y14825D01*
X82225D01*
X82088Y14768D01*
X81982Y14662D01*
X81925Y14525D01*
Y14375D01*
X81982Y14238D01*
X82088Y14132D01*
X82225Y14075D01*
X82375D01*
X82512Y14132D01*
X82601Y14221D01*
X82655D01*
X83371Y13505D01*
Y11845D01*
X83105Y11579D01*
X73797D01*
X73214Y12162D01*
X73140Y12212D01*
X73052Y12229D01*
X70824D01*
X70775Y12347D01*
X71212Y12784D01*
X71220Y12796D01*
X71555Y13130D01*
X71561Y13140D01*
X71662Y13182D01*
X71768Y13288D01*
X71825Y13425D01*
Y13575D01*
X71817Y13594D01*
X71902Y13721D01*
X72181D01*
X73714Y12188D01*
X73788Y12138D01*
X73876Y12121D01*
X78519D01*
X78801Y11838D01*
X78876Y11788D01*
X78964Y11771D01*
X79215D01*
X79325Y11725D01*
X79475D01*
X79612Y11782D01*
X79718Y11888D01*
X79775Y12025D01*
Y12175D01*
X79718Y12312D01*
X79612Y12418D01*
X79475Y12475D01*
X79421D01*
X79325Y12575D01*
X79325Y12592D01*
Y12725D01*
X79268Y12862D01*
X79162Y12968D01*
X79025Y13025D01*
X78875D01*
X78738Y12968D01*
X78687Y12917D01*
X78630Y12925D01*
X78584Y13060D01*
X79551Y14026D01*
X79555D01*
X79643Y13938D01*
X79781Y13881D01*
X79930D01*
X80068Y13938D01*
X80174Y14043D01*
X80231Y14181D01*
Y14330D01*
X80174Y14468D01*
X80068Y14574D01*
X79930Y14631D01*
X79781D01*
X79643Y14574D01*
X79555Y14485D01*
X79456D01*
X79368Y14468D01*
X79294Y14418D01*
X78055Y13179D01*
X74219D01*
X72845Y14553D01*
X72894Y14671D01*
X76355D01*
X76957Y14068D01*
X77032Y14018D01*
X77120Y14001D01*
X78044D01*
X78133Y13912D01*
X78270Y13855D01*
X78420D01*
X78557Y13912D01*
X78663Y14018D01*
X78720Y14156D01*
Y14305D01*
X78663Y14443D01*
X78557Y14548D01*
X78420Y14605D01*
X78270D01*
X78133Y14548D01*
X78044Y14460D01*
X77215D01*
X76612Y15062D01*
X76538Y15112D01*
X76450Y15129D01*
X60495D01*
X55240Y20385D01*
X55288Y20502D01*
X58823D01*
X61924Y17402D01*
X61871Y17275D01*
X61825D01*
X61688Y17218D01*
X61582Y17112D01*
X61525Y16975D01*
Y16825D01*
X61582Y16688D01*
X61688Y16582D01*
X61825Y16525D01*
X61975D01*
X62112Y16582D01*
X62218Y16688D01*
X62275Y16825D01*
Y16871D01*
X62402Y16924D01*
X63401Y15925D01*
X63475Y15875D01*
X63563Y15858D01*
X68042D01*
X68412Y15488D01*
X68486Y15438D01*
X68574Y15421D01*
X69685D01*
X69774Y15332D01*
X69912Y15275D01*
X70061D01*
X70199Y15332D01*
X70304Y15438D01*
X70361Y15575D01*
Y15725D01*
X70304Y15862D01*
X70199Y15968D01*
X70061Y16025D01*
X69912D01*
X69774Y15968D01*
X69685Y15879D01*
X68669D01*
X68402Y16147D01*
X68451Y16274D01*
X68589Y16331D01*
X68694Y16437D01*
X68751Y16574D01*
Y16724D01*
X68694Y16861D01*
X68589Y16967D01*
X68451Y17024D01*
X68302D01*
X68164Y16967D01*
X68058Y16861D01*
X68001Y16724D01*
Y16574D01*
X68058Y16437D01*
X67999Y16317D01*
X63658D01*
X59081Y20894D01*
X59006Y20943D01*
X58918Y20961D01*
X49514D01*
X48625Y21849D01*
Y21975D01*
X48568Y22112D01*
X48462Y22218D01*
X48462Y22218D01*
X48487Y22345D01*
X49194D01*
X50320Y21220D01*
X50320Y21220D01*
X50402Y21164D01*
X50500Y21145D01*
X63825D01*
X63888Y21082D01*
X64025Y21025D01*
X64064D01*
X64870Y20220D01*
X64870Y20220D01*
X64952Y20164D01*
X65050Y20145D01*
X67473D01*
X71198Y16420D01*
X71281Y16364D01*
X71378Y16345D01*
X71378Y16345D01*
X71850D01*
X71850Y16345D01*
X71850Y16345D01*
X76694D01*
X78180Y14860D01*
X78262Y14804D01*
X78360Y14785D01*
X80204D01*
X80618Y14371D01*
Y13079D01*
X80638Y12981D01*
X80693Y12899D01*
X81586Y12005D01*
X81669Y11950D01*
X81766Y11931D01*
X82508D01*
X82571Y11868D01*
X82709Y11811D01*
X82858D01*
X82996Y11868D01*
X83102Y11973D01*
X83159Y12111D01*
Y12260D01*
X83102Y12398D01*
X82996Y12504D01*
X82858Y12561D01*
X82709D01*
X82571Y12504D01*
X82508Y12441D01*
X81872D01*
X81128Y13184D01*
Y14477D01*
X81128Y14477D01*
X81109Y14574D01*
X81053Y14657D01*
X80490Y15220D01*
X80408Y15276D01*
X80310Y15295D01*
X78466D01*
X76980Y16780D01*
X76898Y16836D01*
X76800Y16855D01*
X71850D01*
X71484D01*
X67813Y20525D01*
X67805Y20538D01*
X67805Y20538D01*
X67763Y20580D01*
X67680Y20636D01*
X67582Y20655D01*
X65156D01*
X64475Y21336D01*
Y21475D01*
X64418Y21612D01*
X64312Y21718D01*
X64175Y21775D01*
X64025D01*
X63888Y21718D01*
X63825Y21655D01*
X52592D01*
X52507Y21782D01*
X52525Y21825D01*
Y21951D01*
X52895Y22321D01*
X53936D01*
X53942Y22299D01*
X54028Y22151D01*
X54149Y22030D01*
X54297Y21944D01*
X54462Y21900D01*
X54633D01*
X54799Y21944D01*
X54947Y22030D01*
X55068Y22151D01*
X55153Y22299D01*
X55159Y22321D01*
X66105D01*
X66975Y21451D01*
Y21325D01*
X67032Y21188D01*
X67138Y21082D01*
X67275Y21025D01*
X67425D01*
X67562Y21082D01*
X67668Y21188D01*
X67725Y21325D01*
Y21475D01*
X67668Y21612D01*
X67562Y21718D01*
X67425Y21775D01*
X67299D01*
X66362Y22712D01*
X66288Y22762D01*
X66200Y22779D01*
X55159D01*
X55153Y22801D01*
X55068Y22949D01*
X54947Y23070D01*
X54799Y23156D01*
X54633Y23200D01*
X54462D01*
X54297Y23156D01*
X54149Y23070D01*
X54028Y22949D01*
X53942Y22801D01*
X53936Y22779D01*
X52800D01*
X52712Y22762D01*
X52638Y22712D01*
X52201Y22275D01*
X52075D01*
X51938Y22218D01*
X51832Y22112D01*
X51775Y21975D01*
Y21825D01*
X51793Y21782D01*
X51708Y21655D01*
X50606D01*
X49480Y22780D01*
X49398Y22836D01*
X49300Y22855D01*
X43937D01*
X42562Y24230D01*
X42479Y24286D01*
X42382Y24305D01*
X41625D01*
X41562Y24368D01*
X41425Y24425D01*
X41275D01*
X41138Y24368D01*
X41032Y24262D01*
X40975Y24125D01*
Y23975D01*
X41032Y23838D01*
X41138Y23732D01*
X41275Y23675D01*
X41425D01*
X41562Y23732D01*
X41625Y23795D01*
X42276D01*
X43651Y22420D01*
X43734Y22364D01*
X43832Y22345D01*
X48013D01*
X48038Y22218D01*
X48038Y22218D01*
X47932Y22112D01*
X47875Y21975D01*
Y21825D01*
X47932Y21688D01*
X48038Y21582D01*
X48175Y21525D01*
X48301D01*
X49079Y20747D01*
X49030Y20629D01*
X43522D01*
X43435Y20612D01*
X43360Y20562D01*
X41377Y18579D01*
X39593D01*
X39587Y18584D01*
X39552Y18625D01*
X39525Y18706D01*
X39527Y18709D01*
X39591Y18857D01*
X39591Y18859D01*
X39593Y18861D01*
X39602Y18908D01*
X39612Y18956D01*
X39612Y18958D01*
X39612Y18960D01*
X39603Y19008D01*
X39594Y19055D01*
X39593Y19057D01*
X39593Y19059D01*
X39574Y19104D01*
Y19150D01*
X39592Y19193D01*
X39624Y19226D01*
X39699Y19257D01*
X39699Y19257D01*
X39783Y19313D01*
X39839Y19397D01*
X39859Y19496D01*
Y20987D01*
X39854Y21012D01*
Y21038D01*
X39844Y21061D01*
X39839Y21086D01*
X39825Y21108D01*
X39815Y21131D01*
X39809Y21173D01*
X39866Y21310D01*
Y21460D01*
X39809Y21597D01*
X39815Y21639D01*
X39825Y21662D01*
X39839Y21684D01*
X39844Y21709D01*
X39854Y21732D01*
X39854Y21758D01*
X39859Y21783D01*
Y24739D01*
X39875Y24778D01*
Y24927D01*
X39859Y24965D01*
Y26470D01*
X39839Y26569D01*
X39812Y26610D01*
X39784Y26677D01*
Y26723D01*
X39812Y26790D01*
X39839Y26831D01*
X39859Y26930D01*
Y27471D01*
X40194D01*
X42127Y25538D01*
X42202Y25488D01*
X42289Y25471D01*
X43255D01*
X43788Y24938D01*
X43862Y24888D01*
X43950Y24871D01*
X48155D01*
X48933Y24092D01*
X48902Y23944D01*
X48838Y23918D01*
X48732Y23812D01*
X48675Y23675D01*
Y23525D01*
X48732Y23388D01*
X48838Y23282D01*
X48975Y23225D01*
X49125D01*
X49262Y23282D01*
X49368Y23388D01*
X49406Y23480D01*
X49431Y23528D01*
X49550Y23571D01*
X57438D01*
X57525Y23588D01*
X57600Y23638D01*
X57862Y23900D01*
X57976D01*
X58238Y23638D01*
X58313Y23588D01*
X58400Y23571D01*
X66056D01*
X71139Y18488D01*
X71214Y18438D01*
X71301Y18421D01*
X75158D01*
X75341Y18238D01*
X75415Y18188D01*
X75475Y18176D01*
X76364Y17288D01*
X76438Y17238D01*
X76526Y17221D01*
X83724D01*
X83812Y17238D01*
X83886Y17288D01*
X84359Y17761D01*
X84438Y17682D01*
X84575Y17625D01*
X84624D01*
X84677Y17498D01*
X83204Y16025D01*
X83075D01*
X82938Y15968D01*
X82832Y15862D01*
X82775Y15725D01*
Y15575D01*
X82832Y15438D01*
X82938Y15332D01*
X83075Y15275D01*
X83225D01*
X83362Y15332D01*
X83468Y15438D01*
X83525Y15575D01*
Y15697D01*
X85314Y17486D01*
X85364Y17561D01*
X85381Y17649D01*
Y18298D01*
X85364Y18386D01*
X85314Y18460D01*
X83420Y20354D01*
X83346Y20404D01*
X83258Y20421D01*
X82977D01*
X82889Y20404D01*
X82815Y20354D01*
X82690Y20229D01*
X75724D01*
X75359Y20595D01*
X75285Y20644D01*
X75197Y20662D01*
X73610D01*
X73585Y20789D01*
X73592Y20792D01*
X73698Y20898D01*
X73755Y21035D01*
Y21185D01*
X73698Y21322D01*
X73592Y21428D01*
X73455Y21485D01*
X73305D01*
X73168Y21428D01*
X73062Y21322D01*
X73005Y21185D01*
Y21035D01*
X73062Y20898D01*
X73168Y20792D01*
X73175Y20789D01*
X73150Y20662D01*
X72587D01*
X71225Y22024D01*
X71274Y22141D01*
X72650D01*
X72749Y22161D01*
X72833Y22217D01*
X72883Y22292D01*
X77174D01*
X77224Y22302D01*
X77273Y22292D01*
X78847D01*
X79353Y21787D01*
X79485Y21698D01*
X79641Y21667D01*
X80159D01*
X80315Y21698D01*
X80447Y21787D01*
X80838Y22178D01*
X80927Y22310D01*
X80958Y22466D01*
Y22850D01*
X80927Y23006D01*
X80838Y23138D01*
X80706Y23227D01*
X80550Y23258D01*
X80394Y23227D01*
X80262Y23138D01*
X80226Y23084D01*
X80120Y23022D01*
X80056Y23041D01*
X79975Y23075D01*
X79825D01*
X79688Y23018D01*
X79582Y22912D01*
X79576Y22897D01*
X79426Y22867D01*
X79305Y22988D01*
X79172Y23077D01*
X79016Y23108D01*
X77495D01*
X77486Y23117D01*
X77348Y23174D01*
X77199D01*
X77061Y23117D01*
X77052Y23108D01*
X76868D01*
X76815Y23235D01*
X76818Y23238D01*
X76875Y23375D01*
Y23525D01*
X76818Y23662D01*
X76712Y23768D01*
X76575Y23825D01*
X76425D01*
X76288Y23768D01*
X76182Y23662D01*
X76125Y23525D01*
Y23375D01*
X76182Y23238D01*
X76185Y23235D01*
X76132Y23108D01*
X72909D01*
Y23150D01*
X72889Y23249D01*
X72833Y23333D01*
X72749Y23389D01*
X72650Y23409D01*
X71024D01*
Y24400D01*
X71151Y24485D01*
X71175Y24475D01*
X71325D01*
X71462Y24532D01*
X71551Y24621D01*
X71892D01*
X72475Y24038D01*
X72550Y23988D01*
X72637Y23971D01*
X76808D01*
X77291Y23488D01*
X77365Y23438D01*
X77453Y23421D01*
X81305D01*
X83151Y21575D01*
X83061Y21485D01*
X82924Y21542D01*
X82774D01*
X82637Y21485D01*
X82531Y21379D01*
X82474Y21242D01*
Y21092D01*
X82531Y20955D01*
X82637Y20849D01*
X82774Y20792D01*
X82924D01*
X83061Y20849D01*
X83196Y20814D01*
X86517Y17492D01*
X86494Y17428D01*
X86455Y17375D01*
X86325D01*
X86188Y17318D01*
X86082Y17212D01*
X86025Y17075D01*
Y16925D01*
X86082Y16788D01*
X86188Y16682D01*
X86325Y16625D01*
X86475D01*
X86612Y16682D01*
X86718Y16788D01*
X86775Y16925D01*
Y17055D01*
X86828Y17094D01*
X86892Y17117D01*
X87054Y16956D01*
Y7478D01*
X84705Y5129D01*
X77734D01*
X77348Y5515D01*
X77401Y5642D01*
X77597D01*
Y8732D01*
X76557D01*
Y5642D01*
X76848D01*
Y5462D01*
X76865Y5374D01*
X76915Y5300D01*
X77420Y4795D01*
X77367Y4668D01*
X76557D01*
Y1578D01*
X77597D01*
Y4549D01*
X77638Y4669D01*
X77701Y4670D01*
X77827Y4642D01*
X77827Y4544D01*
Y1578D01*
X78866D01*
X78867Y1578D01*
X78993Y1576D01*
Y1474D01*
X79490D01*
Y3123D01*
X79744D01*
Y1474D01*
X80241D01*
Y1474D01*
X80263D01*
Y1474D01*
X80760D01*
Y3123D01*
X81014D01*
Y1474D01*
X81511D01*
Y1576D01*
X81637Y1578D01*
X81638Y1578D01*
X82677D01*
X82677Y4642D01*
X82792Y4668D01*
X82907Y4642D01*
X82907Y4544D01*
Y1578D01*
X83947D01*
Y4544D01*
X83947Y4668D01*
X84073Y4671D01*
X84800D01*
X84888Y4688D01*
X84962Y4738D01*
X87445Y7221D01*
X87495Y7295D01*
X87512Y7383D01*
Y17051D01*
X87495Y17139D01*
X87445Y17213D01*
X84809Y19849D01*
X84858Y19967D01*
X85945D01*
X86030Y19840D01*
X86008Y19787D01*
Y19637D01*
X86065Y19500D01*
X86170Y19394D01*
X86308Y19337D01*
X86457D01*
X86595Y19394D01*
X86701Y19500D01*
X86758Y19637D01*
Y19704D01*
X86758Y19787D01*
X86875Y19821D01*
X86908D01*
X87045Y19878D01*
X87151Y19984D01*
X87208Y20121D01*
Y20271D01*
X87197Y20298D01*
X87282Y20425D01*
X87709D01*
X87890Y20244D01*
Y20118D01*
X87947Y19981D01*
X88053Y19875D01*
X88190Y19818D01*
X88340D01*
X88477Y19875D01*
X88583Y19981D01*
X88640Y20118D01*
Y20268D01*
X88583Y20405D01*
X88477Y20511D01*
X88340Y20568D01*
X88214D01*
X87966Y20816D01*
X87892Y20866D01*
X87804Y20883D01*
X86655D01*
X86567Y20866D01*
X86492Y20816D01*
X86402Y20725D01*
X84782D01*
X84459Y21049D01*
X84488Y21198D01*
X84507Y21206D01*
X84613Y21312D01*
X84670Y21449D01*
Y21599D01*
X84613Y21736D01*
X84507Y21842D01*
X84370Y21899D01*
X84220D01*
X84083Y21842D01*
X83934Y21865D01*
X81686Y24112D01*
X81612Y24162D01*
X81524Y24179D01*
X77672D01*
X77189Y24662D01*
X77115Y24712D01*
X77027Y24729D01*
X72857D01*
X71880Y25706D01*
X71856Y25742D01*
X71742Y25856D01*
X71668Y25906D01*
X71639Y25911D01*
X71618Y25962D01*
X71512Y26068D01*
X71457Y26091D01*
X71428Y26241D01*
X71433Y26246D01*
X71490Y26384D01*
Y26509D01*
X72359Y27378D01*
X72409Y27453D01*
X72427Y27541D01*
Y28353D01*
X72551D01*
X72689Y28410D01*
X72795Y28516D01*
X72852Y28653D01*
Y28803D01*
X72795Y28940D01*
X72689Y29046D01*
X72551Y29103D01*
X72402D01*
X72264Y29046D01*
X72159Y28940D01*
X72102Y28803D01*
Y28677D01*
X72035Y28611D01*
X71985Y28536D01*
X71968Y28449D01*
Y27636D01*
X71556Y27224D01*
X71429Y27277D01*
Y28000D01*
X71412Y28088D01*
X71362Y28162D01*
X70525Y28999D01*
Y29125D01*
X70468Y29262D01*
X70362Y29368D01*
X70225Y29425D01*
X70075D01*
X69938Y29368D01*
X69832Y29262D01*
X69775Y29125D01*
Y28975D01*
X69832Y28838D01*
X69938Y28732D01*
X70075Y28675D01*
X70201D01*
X70971Y27905D01*
Y27275D01*
X70332Y26636D01*
X70283Y26562D01*
X70265Y26474D01*
Y22006D01*
X70283Y21918D01*
X70332Y21843D01*
X72205Y19970D01*
X72280Y19921D01*
X72368Y19903D01*
X74978D01*
X75274Y19606D01*
X75222Y19479D01*
X71645D01*
X66562Y24562D01*
X66488Y24612D01*
X66400Y24629D01*
X59049D01*
X58611Y25068D01*
X58663Y25195D01*
X62145D01*
X62243Y25214D01*
X62325Y25270D01*
X63801Y26745D01*
X68647D01*
X68725Y26668D01*
X68807Y26612D01*
X68905Y26593D01*
X69058D01*
X69060Y26588D01*
X69165Y26482D01*
X69303Y26425D01*
X69452D01*
X69590Y26482D01*
X69696Y26588D01*
X69753Y26726D01*
Y26875D01*
X69729Y26931D01*
X69762Y27082D01*
X69868Y27188D01*
X69925Y27325D01*
Y27475D01*
X69892Y27555D01*
X69881Y27627D01*
X69953Y27707D01*
X70012Y27732D01*
X70118Y27838D01*
X70175Y27975D01*
Y28125D01*
X70118Y28262D01*
X70012Y28368D01*
X69875Y28425D01*
X69725D01*
X69588Y28368D01*
X69482Y28262D01*
X69425Y28125D01*
Y27975D01*
X69458Y27895D01*
X69469Y27823D01*
X69397Y27743D01*
X69338Y27718D01*
X69232Y27612D01*
X69230Y27607D01*
X69035D01*
X69024Y27605D01*
X63550D01*
X63452Y27586D01*
X63370Y27530D01*
X61894Y26055D01*
X51063D01*
X50355Y26763D01*
Y27667D01*
X50336Y27764D01*
X50280Y27847D01*
X49597Y28530D01*
X49514Y28586D01*
X49417Y28605D01*
X48706D01*
X48380Y28930D01*
X48298Y28986D01*
X48200Y29005D01*
X44324D01*
X42701Y30628D01*
X42618Y30683D01*
X42521Y30702D01*
X30478D01*
X27555Y33625D01*
X27473Y33680D01*
X27375Y33700D01*
D02*
G37*
G36*
X59174Y29734D02*
X52845D01*
X52757Y29717D01*
X52683Y29667D01*
X52479Y29463D01*
X52429Y29389D01*
X52412Y29301D01*
Y27324D01*
X52139Y27051D01*
X51780D01*
X51692Y27139D01*
X51554Y27196D01*
X51405D01*
X51267Y27139D01*
X51161Y27034D01*
X51104Y26896D01*
Y26747D01*
X51161Y26609D01*
X51267Y26503D01*
X51405Y26446D01*
X51554D01*
X51692Y26503D01*
X51780Y26592D01*
X52234D01*
X52322Y26609D01*
X52396Y26659D01*
X52672Y26935D01*
X52789Y26886D01*
Y26340D01*
X53829D01*
Y29276D01*
X54059D01*
Y26340D01*
X55099D01*
Y29276D01*
X55329D01*
Y26340D01*
X56369D01*
Y29276D01*
X56599D01*
Y26340D01*
X57639D01*
Y29276D01*
X57869D01*
Y26340D01*
X58909D01*
Y29276D01*
X59079D01*
X59135Y29220D01*
Y28180D01*
X59139Y28158D01*
Y26340D01*
X60179D01*
Y29430D01*
X59558D01*
X59526Y29477D01*
X59336Y29667D01*
X59262Y29717D01*
X59174Y29734D01*
D02*
G37*
G36*
X2747Y26808D02*
X2497D01*
X2255Y26743D01*
X2039Y26618D01*
X1862Y26442D01*
X1737Y26225D01*
X1672Y25983D01*
Y25733D01*
X1737Y25492D01*
X1862Y25275D01*
X2039Y25098D01*
X2255Y24973D01*
X2497Y24908D01*
X2747D01*
X2989Y24973D01*
X3205Y25098D01*
X3382Y25275D01*
X3507Y25492D01*
X3572Y25733D01*
Y25983D01*
X3507Y26225D01*
X3382Y26442D01*
X3205Y26618D01*
X2989Y26743D01*
X2747Y26808D01*
D02*
G37*
G36*
X4398Y24339D02*
X4249D01*
X4111Y24282D01*
X4006Y24177D01*
X3949Y24039D01*
Y23890D01*
X4006Y23752D01*
X4111Y23646D01*
X4249Y23589D01*
X4398D01*
X4536Y23646D01*
X4641Y23752D01*
X4699Y23890D01*
Y24039D01*
X4641Y24177D01*
X4536Y24282D01*
X4398Y24339D01*
D02*
G37*
G36*
X12473Y24337D02*
X12323D01*
X12186Y24279D01*
X12080Y24174D01*
X12023Y24036D01*
Y23887D01*
X12080Y23749D01*
X12186Y23644D01*
X12323Y23587D01*
X12473D01*
X12538Y23614D01*
X12636Y23517D01*
X12623Y23486D01*
Y23337D01*
X12636Y23307D01*
X12538Y23209D01*
X12473Y23237D01*
X12323D01*
X12186Y23180D01*
X12080Y23074D01*
X12023Y22936D01*
Y22787D01*
X12080Y22649D01*
X12186Y22544D01*
X12323Y22487D01*
X12473D01*
X12610Y22544D01*
X12716Y22649D01*
X12773Y22787D01*
Y22936D01*
X12760Y22967D01*
X12858Y23064D01*
X12923Y23037D01*
X13073D01*
X13210Y23094D01*
X13316Y23199D01*
X13373Y23337D01*
Y23486D01*
X13316Y23624D01*
X13210Y23729D01*
X13073Y23787D01*
X12923D01*
X12858Y23759D01*
X12760Y23857D01*
X12773Y23887D01*
Y24036D01*
X12716Y24174D01*
X12610Y24279D01*
X12473Y24337D01*
D02*
G37*
G36*
X57627Y20247D02*
Y19627D01*
X58247D01*
X58203Y19791D01*
X58103Y19963D01*
X57963Y20103D01*
X57791Y20203D01*
X57627Y20247D01*
D02*
G37*
G36*
X57373D02*
X57209Y20203D01*
X57037Y20103D01*
X56897Y19963D01*
X56797Y19791D01*
X56753Y19627D01*
X57373D01*
Y20247D01*
D02*
G37*
G36*
X58247Y19373D02*
X57627D01*
Y18753D01*
X57791Y18797D01*
X57963Y18897D01*
X58103Y19037D01*
X58203Y19209D01*
X58247Y19373D01*
D02*
G37*
G36*
X57373D02*
X56753D01*
X56797Y19209D01*
X56897Y19037D01*
X57037Y18897D01*
X57209Y18797D01*
X57373Y18753D01*
Y19373D01*
D02*
G37*
G36*
X73925Y18225D02*
X73775D01*
X73638Y18168D01*
X73532Y18062D01*
X73475Y17925D01*
Y17775D01*
X73532Y17638D01*
X73638Y17532D01*
X73775Y17475D01*
X73925D01*
X74062Y17532D01*
X74168Y17638D01*
X74225Y17775D01*
Y17925D01*
X74168Y18062D01*
X74062Y18168D01*
X73925Y18225D01*
D02*
G37*
G36*
X74389Y16095D02*
X74240D01*
X74102Y16038D01*
X73997Y15932D01*
X73940Y15794D01*
Y15645D01*
X73997Y15507D01*
X74102Y15402D01*
X74240Y15345D01*
X74389D01*
X74527Y15402D01*
X74633Y15507D01*
X74690Y15645D01*
Y15794D01*
X74633Y15932D01*
X74527Y16038D01*
X74389Y16095D01*
D02*
G37*
G36*
X85925Y15375D02*
X85775D01*
X85638Y15318D01*
X85549Y15229D01*
X85475Y15220D01*
X85401Y15229D01*
X85312Y15318D01*
X85175Y15375D01*
X85025D01*
X84888Y15318D01*
X84782Y15212D01*
X84725Y15075D01*
Y14925D01*
X84782Y14788D01*
X84871Y14699D01*
Y10395D01*
X84055Y9579D01*
X81650D01*
X81562Y9562D01*
X81488Y9512D01*
X80907Y8931D01*
X80857Y8857D01*
X80840Y8769D01*
Y8732D01*
X80367D01*
Y5642D01*
X81407D01*
Y8732D01*
X81407Y8732D01*
X81407D01*
X81461Y8837D01*
X81745Y9121D01*
X82530D01*
X82579Y9003D01*
X82308Y8732D01*
X81637D01*
Y5642D01*
X82677D01*
Y6360D01*
X82681Y6382D01*
Y8457D01*
X82790Y8565D01*
X82907Y8517D01*
Y5642D01*
X83947D01*
Y8732D01*
X84037Y8821D01*
X84350D01*
X84438Y8838D01*
X84512Y8888D01*
X85612Y9988D01*
X85662Y10062D01*
X85679Y10150D01*
Y14505D01*
X85799Y14625D01*
X85925D01*
X86062Y14682D01*
X86168Y14788D01*
X86225Y14925D01*
Y15075D01*
X86168Y15212D01*
X86062Y15318D01*
X85925Y15375D01*
D02*
G37*
G36*
X10717Y17500D02*
X10383D01*
X10054Y17435D01*
X9745Y17307D01*
X9466Y17120D01*
X9230Y16884D01*
X9043Y16605D01*
X8915Y16296D01*
X8850Y15967D01*
Y15633D01*
X8915Y15304D01*
X9043Y14995D01*
X9230Y14716D01*
X9466Y14480D01*
X9745Y14293D01*
X10054Y14165D01*
X10383Y14100D01*
X10717D01*
X11046Y14165D01*
X11355Y14293D01*
X11634Y14480D01*
X11870Y14716D01*
X12057Y14995D01*
X12185Y15304D01*
X12250Y15633D01*
Y15967D01*
X12185Y16296D01*
X12057Y16605D01*
X11870Y16884D01*
X11634Y17120D01*
X11355Y17307D01*
X11046Y17435D01*
X10717Y17500D01*
D02*
G37*
G36*
X81925Y13725D02*
X81775D01*
X81638Y13668D01*
X81532Y13562D01*
X81475Y13425D01*
Y13275D01*
X81532Y13138D01*
X81638Y13032D01*
X81775Y12975D01*
X81925D01*
X82062Y13032D01*
X82168Y13138D01*
X82225Y13275D01*
Y13425D01*
X82168Y13562D01*
X82062Y13668D01*
X81925Y13725D01*
D02*
G37*
G36*
X3559Y13151D02*
X2436D01*
Y12467D01*
X4353D01*
X4342Y12550D01*
X4261Y12745D01*
X4132Y12913D01*
X3964Y13042D01*
X3769Y13123D01*
X3559Y13151D01*
D02*
G37*
G36*
X7634Y12851D02*
X7261D01*
Y12167D01*
X8428D01*
X8417Y12250D01*
X8336Y12445D01*
X8207Y12613D01*
X8039Y12742D01*
X7844Y12823D01*
X7634Y12851D01*
D02*
G37*
G36*
X7007D02*
X6634D01*
X6424Y12823D01*
X6228Y12742D01*
X6060Y12613D01*
X5931Y12445D01*
X5850Y12250D01*
X5840Y12167D01*
X7007D01*
Y12851D01*
D02*
G37*
G36*
X4353Y12213D02*
X2436D01*
Y11529D01*
X3559D01*
X3769Y11557D01*
X3964Y11638D01*
X4132Y11767D01*
X4261Y11935D01*
X4342Y12130D01*
X4353Y12213D01*
D02*
G37*
G36*
X2182Y13151D02*
X1901D01*
Y12340D01*
Y11529D01*
X2182D01*
Y12340D01*
Y13151D01*
D02*
G37*
G36*
X8428Y11913D02*
X7261D01*
Y11229D01*
X7634D01*
X7844Y11257D01*
X8039Y11338D01*
X8207Y11467D01*
X8336Y11635D01*
X8417Y11830D01*
X8428Y11913D01*
D02*
G37*
G36*
X7007D02*
X5840D01*
X5850Y11830D01*
X5931Y11635D01*
X6060Y11467D01*
X6228Y11338D01*
X6424Y11257D01*
X6634Y11229D01*
X7007D01*
Y11913D01*
D02*
G37*
G36*
X89027Y11542D02*
Y10922D01*
X89647D01*
X89603Y11086D01*
X89503Y11258D01*
X89363Y11398D01*
X89191Y11498D01*
X89027Y11542D01*
D02*
G37*
G36*
X88773Y11542D02*
X88609Y11498D01*
X88437Y11398D01*
X88297Y11258D01*
X88197Y11086D01*
X88153Y10922D01*
X88773D01*
Y11542D01*
D02*
G37*
G36*
X89647Y10668D02*
X89027D01*
Y10048D01*
X89191Y10092D01*
X89363Y10192D01*
X89503Y10332D01*
X89603Y10504D01*
X89647Y10668D01*
D02*
G37*
G36*
X88773D02*
X88153D01*
X88197Y10504D01*
X88297Y10332D01*
X88437Y10192D01*
X88609Y10092D01*
X88773Y10048D01*
Y10668D01*
D02*
G37*
G36*
X58171Y9436D02*
X58022D01*
X57884Y9378D01*
X57779Y9273D01*
X57721Y9135D01*
Y8986D01*
X57779Y8848D01*
X57884Y8743D01*
X58022Y8686D01*
X58171D01*
X58309Y8743D01*
X58414Y8848D01*
X58471Y8986D01*
Y9135D01*
X58414Y9273D01*
X58309Y9378D01*
X58171Y9436D01*
D02*
G37*
G36*
X11925Y9175D02*
X11775D01*
X11638Y9118D01*
X11532Y9012D01*
X11475Y8875D01*
Y8725D01*
X11532Y8588D01*
X11638Y8482D01*
X11775Y8425D01*
X11925D01*
X12062Y8482D01*
X12168Y8588D01*
X12225Y8725D01*
Y8875D01*
X12168Y9012D01*
X12062Y9118D01*
X11925Y9175D01*
D02*
G37*
G36*
X10975D02*
X10825D01*
X10688Y9118D01*
X10582Y9012D01*
X10525Y8875D01*
Y8725D01*
X10582Y8588D01*
X10688Y8482D01*
X10825Y8425D01*
X10975D01*
X11112Y8482D01*
X11218Y8588D01*
X11275Y8725D01*
Y8875D01*
X11218Y9012D01*
X11112Y9118D01*
X10975Y9175D01*
D02*
G37*
G36*
X58487Y8387D02*
X58337D01*
X58200Y8330D01*
X58094Y8224D01*
X58037Y8087D01*
Y7937D01*
X58094Y7800D01*
X58200Y7694D01*
X58337Y7637D01*
X58487D01*
X58624Y7694D01*
X58730Y7800D01*
X58787Y7937D01*
Y8087D01*
X58730Y8224D01*
X58624Y8330D01*
X58487Y8387D01*
D02*
G37*
G36*
X10975Y8225D02*
X10825D01*
X10688Y8168D01*
X10582Y8062D01*
X10525Y7925D01*
Y7775D01*
X10582Y7638D01*
X10688Y7532D01*
X10825Y7475D01*
X10975D01*
X11112Y7532D01*
X11218Y7638D01*
X11275Y7775D01*
Y7925D01*
X11218Y8062D01*
X11112Y8168D01*
X10975Y8225D01*
D02*
G37*
G36*
X5275Y8925D02*
X5125D01*
X4988Y8868D01*
X4882Y8762D01*
X4825Y8625D01*
Y8535D01*
X4595Y8305D01*
X4539Y8223D01*
X4520Y8125D01*
Y7603D01*
X4539Y7506D01*
X4595Y7423D01*
X4873Y7145D01*
X4956Y7089D01*
X5053Y7070D01*
X5447D01*
X5544Y7089D01*
X5627Y7145D01*
X5769Y7287D01*
X8247D01*
X8375Y7160D01*
Y7070D01*
X8432Y6933D01*
X8538Y6827D01*
X8675Y6770D01*
X8825D01*
X8962Y6827D01*
X9068Y6933D01*
X9125Y7070D01*
Y7220D01*
X9068Y7357D01*
X8962Y7463D01*
X8825Y7520D01*
X8745D01*
X8657Y7614D01*
X8666Y7712D01*
X8785Y7831D01*
X8875D01*
X9012Y7888D01*
X9118Y7994D01*
X9175Y8132D01*
Y8281D01*
X9118Y8419D01*
X9012Y8524D01*
X8875Y8581D01*
X8725D01*
X8588Y8524D01*
X8482Y8419D01*
X8425Y8281D01*
Y8192D01*
X8380Y8147D01*
X5519D01*
X5504Y8144D01*
X5443Y8258D01*
X5444Y8263D01*
X5518Y8338D01*
X5575Y8475D01*
Y8625D01*
X5518Y8762D01*
X5412Y8868D01*
X5275Y8925D01*
D02*
G37*
G36*
X35599Y7998D02*
X35427D01*
X35262Y7954D01*
X35114Y7868D01*
X34993Y7747D01*
X34907Y7599D01*
X34863Y7433D01*
Y7262D01*
X34907Y7097D01*
X34993Y6949D01*
X35114Y6828D01*
X35262Y6742D01*
X35427Y6698D01*
X35599D01*
X35764Y6742D01*
X35912Y6828D01*
X36033Y6949D01*
X36119Y7097D01*
X36163Y7262D01*
Y7433D01*
X36119Y7599D01*
X36033Y7747D01*
X35912Y7868D01*
X35764Y7954D01*
X35599Y7998D01*
D02*
G37*
G36*
X33706Y7993D02*
X33534D01*
X33369Y7949D01*
X33221Y7863D01*
X33100Y7742D01*
X33014Y7594D01*
X32970Y7429D01*
Y7258D01*
X33014Y7092D01*
X33100Y6944D01*
X33221Y6823D01*
X33369Y6737D01*
X33534Y6693D01*
X33706D01*
X33871Y6737D01*
X34019Y6823D01*
X34140Y6944D01*
X34226Y7092D01*
X34270Y7258D01*
Y7429D01*
X34226Y7594D01*
X34140Y7742D01*
X34019Y7863D01*
X33871Y7949D01*
X33706Y7993D01*
D02*
G37*
G36*
X29975Y7825D02*
X29825D01*
X29688Y7768D01*
X29582Y7662D01*
X29525Y7525D01*
Y7375D01*
X29582Y7238D01*
X29637Y7183D01*
X29673Y7100D01*
X29637Y7017D01*
X29582Y6962D01*
X29525Y6825D01*
Y6675D01*
X29582Y6538D01*
X29688Y6432D01*
X29825Y6375D01*
X29975D01*
X30112Y6432D01*
X30218Y6538D01*
X30275Y6675D01*
Y6825D01*
X30218Y6962D01*
X30163Y7017D01*
X30127Y7100D01*
X30163Y7183D01*
X30218Y7238D01*
X30275Y7375D01*
Y7525D01*
X30218Y7662D01*
X30112Y7768D01*
X29975Y7825D01*
D02*
G37*
G36*
X41075Y7625D02*
X40925D01*
X40788Y7568D01*
X40682Y7462D01*
X40625Y7325D01*
Y7175D01*
X40682Y7038D01*
X40770Y6950D01*
X40682Y6862D01*
X40625Y6725D01*
Y6575D01*
X40682Y6438D01*
X40788Y6332D01*
X40925Y6275D01*
X41075D01*
X41212Y6332D01*
X41318Y6438D01*
X41375Y6575D01*
Y6725D01*
X41318Y6862D01*
X41230Y6950D01*
X41318Y7038D01*
X41375Y7175D01*
Y7325D01*
X41318Y7462D01*
X41212Y7568D01*
X41075Y7625D01*
D02*
G37*
G36*
X80137Y8732D02*
X79097D01*
Y5642D01*
X80137D01*
Y8732D01*
D02*
G37*
G36*
X78867D02*
X77827D01*
Y5642D01*
X78867D01*
Y8732D01*
D02*
G37*
G36*
X67675Y9125D02*
X67525D01*
X67388Y9068D01*
X67282Y8962D01*
X67225Y8825D01*
Y8675D01*
X67282Y8538D01*
X67388Y8432D01*
X67525Y8375D01*
X67675D01*
X67812Y8432D01*
X67861Y8480D01*
X67909Y8469D01*
X67949Y8330D01*
X67932Y8312D01*
X67875Y8175D01*
Y8025D01*
X67932Y7888D01*
X68038Y7782D01*
X68175Y7725D01*
X68301D01*
X73407Y2618D01*
X73401Y2570D01*
X73280Y2449D01*
X73194Y2301D01*
X73150Y2136D01*
Y1964D01*
X73194Y1799D01*
X73280Y1651D01*
X73401Y1530D01*
X73549Y1444D01*
X73714Y1400D01*
X73886D01*
X74051Y1444D01*
X74199Y1530D01*
X74320Y1651D01*
X74406Y1799D01*
X74411Y1821D01*
X75287D01*
Y1578D01*
X76327D01*
Y4668D01*
X75287D01*
Y2279D01*
X74411D01*
X74406Y2301D01*
X74320Y2449D01*
X74199Y2570D01*
X74051Y2656D01*
X73911Y2693D01*
X73899Y2750D01*
X73850Y2825D01*
X70544Y6131D01*
X70596Y6258D01*
X75287D01*
Y5642D01*
X76327D01*
Y8732D01*
X75287D01*
Y6716D01*
X70594D01*
X68862Y8449D01*
X68862Y8449D01*
X68399Y8912D01*
X68324Y8962D01*
X68236Y8979D01*
X67901D01*
X67812Y9068D01*
X67675Y9125D01*
D02*
G37*
G36*
X59655Y5630D02*
X59506D01*
X59368Y5572D01*
X59263Y5467D01*
X59206Y5329D01*
Y5180D01*
X59263Y5042D01*
X59368Y4937D01*
X59506Y4880D01*
X59655D01*
X59793Y4937D01*
X59899Y5042D01*
X59956Y5180D01*
Y5329D01*
X59899Y5467D01*
X59793Y5572D01*
X59655Y5630D01*
D02*
G37*
G36*
X97817Y7450D02*
X97483D01*
X97154Y7385D01*
X96845Y7257D01*
X96566Y7070D01*
X96330Y6834D01*
X96143Y6555D01*
X96015Y6246D01*
X95950Y5917D01*
Y5583D01*
X96015Y5254D01*
X96143Y4945D01*
X96330Y4666D01*
X96566Y4430D01*
X96845Y4243D01*
X97154Y4115D01*
X97483Y4050D01*
X97817D01*
X98146Y4115D01*
X98455Y4243D01*
X98734Y4430D01*
X98970Y4666D01*
X99157Y4945D01*
X99285Y5254D01*
X99350Y5583D01*
Y5917D01*
X99285Y6246D01*
X99157Y6555D01*
X98970Y6834D01*
X98734Y7070D01*
X98455Y7257D01*
X98146Y7385D01*
X97817Y7450D01*
D02*
G37*
G36*
X33706Y4894D02*
X33534D01*
X33369Y4849D01*
X33221Y4764D01*
X33100Y4643D01*
X33014Y4495D01*
X32970Y4329D01*
Y4158D01*
X33014Y3993D01*
X33100Y3845D01*
X33221Y3724D01*
X33369Y3638D01*
X33534Y3594D01*
X33706D01*
X33871Y3638D01*
X34019Y3724D01*
X34140Y3845D01*
X34226Y3993D01*
X34270Y4158D01*
Y4329D01*
X34226Y4495D01*
X34140Y4643D01*
X34019Y4764D01*
X33871Y4849D01*
X33706Y4894D01*
D02*
G37*
G36*
X7634Y4211D02*
X7261D01*
Y3527D01*
X8428D01*
X8417Y3610D01*
X8336Y3805D01*
X8207Y3973D01*
X8039Y4102D01*
X7844Y4183D01*
X7634Y4211D01*
D02*
G37*
G36*
X7007D02*
X6634D01*
X6424Y4183D01*
X6228Y4102D01*
X6060Y3973D01*
X5931Y3805D01*
X5850Y3610D01*
X5840Y3527D01*
X7007D01*
Y4211D01*
D02*
G37*
G36*
X94050Y4125D02*
X93900D01*
X93763Y4068D01*
X93657Y3962D01*
X93600Y3825D01*
Y3675D01*
X93657Y3538D01*
X93763Y3432D01*
X93900Y3375D01*
X94050D01*
X94187Y3432D01*
X94293Y3538D01*
X94350Y3675D01*
Y3825D01*
X94293Y3962D01*
X94187Y4068D01*
X94050Y4125D01*
D02*
G37*
G36*
X86100D02*
X85950D01*
X85813Y4068D01*
X85707Y3962D01*
X85650Y3825D01*
Y3675D01*
X85707Y3538D01*
X85813Y3432D01*
X85950Y3375D01*
X86100D01*
X86237Y3432D01*
X86343Y3538D01*
X86400Y3675D01*
Y3825D01*
X86343Y3962D01*
X86237Y4068D01*
X86100Y4125D01*
D02*
G37*
G36*
X74050D02*
X73900D01*
X73763Y4068D01*
X73657Y3962D01*
X73600Y3825D01*
Y3675D01*
X73657Y3538D01*
X73763Y3432D01*
X73900Y3375D01*
X74050D01*
X74187Y3432D01*
X74293Y3538D01*
X74350Y3675D01*
Y3825D01*
X74293Y3962D01*
X74187Y4068D01*
X74050Y4125D01*
D02*
G37*
G36*
X66100D02*
X65950D01*
X65813Y4068D01*
X65707Y3962D01*
X65650Y3825D01*
Y3675D01*
X65707Y3538D01*
X65813Y3432D01*
X65950Y3375D01*
X66100D01*
X66237Y3432D01*
X66343Y3538D01*
X66400Y3675D01*
Y3825D01*
X66343Y3962D01*
X66237Y4068D01*
X66100Y4125D01*
D02*
G37*
G36*
X54050D02*
X53900D01*
X53763Y4068D01*
X53657Y3962D01*
X53600Y3825D01*
Y3675D01*
X53657Y3538D01*
X53763Y3432D01*
X53900Y3375D01*
X54050D01*
X54187Y3432D01*
X54293Y3538D01*
X54350Y3675D01*
Y3825D01*
X54293Y3962D01*
X54187Y4068D01*
X54050Y4125D01*
D02*
G37*
G36*
X46125Y4075D02*
X45975D01*
X45838Y4018D01*
X45732Y3912D01*
X45675Y3775D01*
Y3625D01*
X45732Y3488D01*
X45838Y3382D01*
X45975Y3325D01*
X46125D01*
X46262Y3382D01*
X46368Y3488D01*
X46425Y3625D01*
Y3775D01*
X46368Y3912D01*
X46262Y4018D01*
X46125Y4075D01*
D02*
G37*
G36*
X43745Y5475D02*
X41595D01*
Y3325D01*
X43745D01*
Y5475D01*
D02*
G37*
G36*
X40272D02*
X39988D01*
X39715Y5402D01*
X39470Y5260D01*
X39270Y5060D01*
X39128Y4815D01*
X39055Y4542D01*
Y4258D01*
X39128Y3985D01*
X39270Y3740D01*
X39470Y3540D01*
X39715Y3398D01*
X39988Y3325D01*
X40272D01*
X40545Y3398D01*
X40790Y3540D01*
X40990Y3740D01*
X41132Y3985D01*
X41205Y4258D01*
Y4542D01*
X41132Y4815D01*
X40990Y5060D01*
X40790Y5260D01*
X40545Y5402D01*
X40272Y5475D01*
D02*
G37*
G36*
X3559Y3911D02*
X2436D01*
Y3227D01*
X4353D01*
X4342Y3310D01*
X4261Y3505D01*
X4132Y3673D01*
X3964Y3802D01*
X3769Y3883D01*
X3559Y3911D01*
D02*
G37*
G36*
X8428Y3273D02*
X7261D01*
Y2589D01*
X7634D01*
X7844Y2617D01*
X8039Y2698D01*
X8207Y2827D01*
X8336Y2995D01*
X8417Y3190D01*
X8428Y3273D01*
D02*
G37*
G36*
X7007D02*
X5840D01*
X5850Y3190D01*
X5931Y2995D01*
X6060Y2827D01*
X6228Y2698D01*
X6424Y2617D01*
X6634Y2589D01*
X7007D01*
Y3273D01*
D02*
G37*
G36*
X4353Y2973D02*
X2436D01*
Y2289D01*
X3559D01*
X3769Y2317D01*
X3964Y2398D01*
X4132Y2527D01*
X4261Y2695D01*
X4342Y2890D01*
X4353Y2973D01*
D02*
G37*
G36*
X2182Y3911D02*
X1901D01*
Y3100D01*
Y2289D01*
X2182D01*
Y3100D01*
Y3911D01*
D02*
G37*
G36*
X10850Y2567D02*
X10600Y2534D01*
X10367Y2437D01*
X10166Y2284D01*
X10013Y2083D01*
X9916Y1850D01*
X9883Y1600D01*
X9916Y1350D01*
X10013Y1117D01*
X10166Y916D01*
X10367Y763D01*
X10600Y666D01*
X10850Y633D01*
X11100Y666D01*
X11333Y763D01*
X11534Y916D01*
X11687Y1117D01*
X11784Y1350D01*
X11817Y1600D01*
X11784Y1850D01*
X11687Y2083D01*
X11534Y2284D01*
X11333Y2437D01*
X11100Y2534D01*
X10850Y2567D01*
D02*
G37*
G36*
X93350Y2417D02*
X93100Y2384D01*
X92867Y2287D01*
X92666Y2134D01*
X92513Y1933D01*
X92416Y1700D01*
X92383Y1450D01*
X92416Y1200D01*
X92513Y967D01*
X92666Y766D01*
X92867Y613D01*
X93100Y516D01*
X93350Y483D01*
X93600Y516D01*
X93833Y613D01*
X94034Y766D01*
X94187Y967D01*
X94284Y1200D01*
X94317Y1450D01*
X94284Y1700D01*
X94187Y1933D01*
X94034Y2134D01*
X93833Y2287D01*
X93600Y2384D01*
X93350Y2417D01*
D02*
G37*
G36*
X42928Y2800D02*
X42612D01*
X42307Y2718D01*
X42033Y2560D01*
X41810Y2337D01*
X41652Y2063D01*
X41570Y1758D01*
Y1442D01*
X41652Y1137D01*
X41810Y863D01*
X42033Y640D01*
X42307Y482D01*
X42612Y400D01*
X42928D01*
X43233Y482D01*
X43507Y640D01*
X43730Y863D01*
X43888Y1137D01*
X43970Y1442D01*
Y1758D01*
X43888Y2063D01*
X43730Y2337D01*
X43507Y2560D01*
X43233Y2718D01*
X42928Y2800D01*
D02*
G37*
G36*
X40188D02*
X39872D01*
X39567Y2718D01*
X39293Y2560D01*
X39070Y2337D01*
X38912Y2063D01*
X38830Y1758D01*
Y1442D01*
X38912Y1137D01*
X39070Y863D01*
X39293Y640D01*
X39567Y482D01*
X39872Y400D01*
X40188D01*
X40493Y482D01*
X40767Y640D01*
X40990Y863D01*
X41148Y1137D01*
X41230Y1442D01*
Y1758D01*
X41148Y2063D01*
X40990Y2337D01*
X40767Y2560D01*
X40493Y2718D01*
X40188Y2800D01*
D02*
G37*
%LPD*%
G36*
X39600Y26930D02*
X39582Y26912D01*
X39525Y26775D01*
Y26625D01*
X39582Y26488D01*
X39600Y26470D01*
Y21783D01*
X39566Y21760D01*
X39417D01*
X39279Y21703D01*
X39173Y21597D01*
X39116Y21460D01*
Y21310D01*
X39173Y21173D01*
X39279Y21067D01*
X39417Y21010D01*
X39566D01*
X39600Y20987D01*
Y19496D01*
X39477Y19445D01*
X39372Y19340D01*
X39315Y19202D01*
Y19053D01*
X39353Y18960D01*
X39289Y18811D01*
X39240Y18750D01*
X37350D01*
X37200Y18900D01*
Y20902D01*
X37410Y20989D01*
X37432Y20967D01*
X37570Y20910D01*
X37719D01*
X37857Y20967D01*
X37963Y21073D01*
X38020Y21210D01*
Y21360D01*
X37963Y21497D01*
X37857Y21603D01*
X37719Y21660D01*
X37570D01*
X37432Y21603D01*
X37410Y21581D01*
X37200Y21668D01*
Y23573D01*
X37410Y23660D01*
X37440Y23629D01*
X37578Y23572D01*
X37727D01*
X37865Y23629D01*
X37971Y23735D01*
X38028Y23873D01*
Y24022D01*
X37971Y24160D01*
X37865Y24265D01*
X37727Y24322D01*
X37578D01*
X37440Y24265D01*
X37410Y24235D01*
X37200Y24322D01*
Y25172D01*
X37305Y25234D01*
X37410Y25273D01*
X37525Y25225D01*
X37674D01*
X37812Y25282D01*
X37918Y25388D01*
X37975Y25525D01*
Y25581D01*
X37975Y25675D01*
X38125Y25775D01*
X38262Y25832D01*
X38368Y25938D01*
X38425Y26075D01*
Y26225D01*
X38368Y26362D01*
X38348Y26548D01*
X38453Y26654D01*
X38510Y26791D01*
Y26941D01*
X38453Y27078D01*
X38348Y27184D01*
X38293Y27434D01*
X38318Y27471D01*
X39600D01*
Y26930D01*
D02*
G37*
G36*
X72650Y22400D02*
X71024D01*
Y23150D01*
X72650D01*
Y22400D01*
D02*
G37*
G36*
X23375Y29975D02*
Y29825D01*
X23432Y29688D01*
X23538Y29582D01*
X23675Y29525D01*
X23825D01*
X23873Y29545D01*
X24075Y29432D01*
X24083Y29422D01*
Y23393D01*
X20961Y20272D01*
Y20049D01*
X20648D01*
X20481Y20195D01*
Y20344D01*
X20424Y20482D01*
X20318Y20588D01*
X20180Y20645D01*
X20031D01*
X19893Y20588D01*
X19788Y20482D01*
X19731Y20344D01*
Y20195D01*
X19564Y20049D01*
X19551D01*
X17500Y22100D01*
Y23289D01*
X18444D01*
X18531Y23307D01*
X18606Y23356D01*
X18987Y23738D01*
X19037Y23812D01*
X19054Y23900D01*
Y25815D01*
X19185Y25869D01*
X19291Y25975D01*
X19348Y26112D01*
Y26262D01*
X19337Y26287D01*
X20644Y27594D01*
X20650D01*
X20767Y27617D01*
X20866Y27684D01*
X21766Y28584D01*
X21833Y28683D01*
X21856Y28800D01*
Y29373D01*
X22602Y30119D01*
X23208D01*
X23375Y29975D01*
D02*
G37*
G36*
X52142Y20044D02*
X52101Y20020D01*
X51980Y19899D01*
X51894Y19751D01*
X51850Y19586D01*
Y19414D01*
X51894Y19249D01*
X51980Y19101D01*
X52101Y18980D01*
X52249Y18894D01*
X52414Y18850D01*
X52586D01*
X52751Y18894D01*
X52899Y18980D01*
X52997Y19078D01*
X54029Y18047D01*
X53980Y17929D01*
X53013D01*
X52994Y17926D01*
X52899Y18020D01*
X52751Y18106D01*
X52586Y18150D01*
X52414D01*
X52249Y18106D01*
X52101Y18020D01*
X51980Y17899D01*
X51894Y17751D01*
X51850Y17586D01*
Y17414D01*
X51894Y17249D01*
X51980Y17101D01*
X52101Y16980D01*
X52249Y16894D01*
X52414Y16850D01*
X52586D01*
X52751Y16894D01*
X52899Y16980D01*
X53020Y17101D01*
X53106Y17249D01*
X53150Y17414D01*
Y17471D01*
X54155D01*
X57838Y13788D01*
X57912Y13738D01*
X58000Y13721D01*
X70174D01*
X70254Y13594D01*
X70225Y13525D01*
Y13375D01*
X70242Y13335D01*
X69777Y12870D01*
X69417D01*
X69343Y12997D01*
X69375Y13075D01*
Y13225D01*
X69318Y13362D01*
X69212Y13468D01*
X69075Y13525D01*
X68925D01*
X68788Y13468D01*
X68682Y13362D01*
X68625Y13225D01*
Y13170D01*
X53598D01*
X53513Y13297D01*
X53525Y13325D01*
Y13475D01*
X53468Y13612D01*
X53445Y13635D01*
X53418Y13788D01*
X53475Y13925D01*
Y14075D01*
X53418Y14212D01*
X53312Y14318D01*
X53175Y14375D01*
X53025D01*
X52888Y14318D01*
X52782Y14212D01*
X52725Y14075D01*
Y13925D01*
X52782Y13788D01*
X52805Y13765D01*
X52832Y13612D01*
X52775Y13475D01*
Y13325D01*
X52787Y13297D01*
X52702Y13170D01*
X49292D01*
X49205Y13153D01*
X49130Y13103D01*
X46504Y10477D01*
X36758D01*
X36175Y11060D01*
X36101Y11110D01*
X36013Y11127D01*
X34140D01*
X34052Y11110D01*
X33978Y11060D01*
X33541Y10623D01*
X33416D01*
X33278Y10566D01*
X33172Y10460D01*
X33115Y10322D01*
Y10173D01*
X33172Y10035D01*
X33278Y9930D01*
X33416Y9873D01*
X33565D01*
X33703Y9930D01*
X33808Y10035D01*
X33865Y10173D01*
Y10298D01*
X34223Y10657D01*
X34283Y10656D01*
X34328Y10647D01*
X34363Y10526D01*
X34298Y10460D01*
X34241Y10322D01*
Y10173D01*
X34298Y10035D01*
X34403Y9930D01*
X34541Y9873D01*
X34690D01*
X34828Y9930D01*
X34934Y10035D01*
X34991Y10173D01*
Y10298D01*
X35061Y10369D01*
X35251D01*
X35335Y10242D01*
X35328Y10223D01*
Y10073D01*
X35385Y9936D01*
X35490Y9830D01*
X35628Y9773D01*
X35777D01*
X35910Y9828D01*
X36091Y9647D01*
X36043Y9529D01*
X17895D01*
X15975Y11449D01*
Y11575D01*
X15918Y11712D01*
X15812Y11818D01*
X15675Y11875D01*
X15525D01*
X15415Y11829D01*
X14645D01*
X14152Y12322D01*
Y12965D01*
X14275Y12975D01*
X14332Y12838D01*
X14438Y12732D01*
X14575Y12675D01*
X14725D01*
X14862Y12732D01*
X14968Y12838D01*
X15025Y12975D01*
Y13101D01*
X15045Y13121D01*
X15286D01*
X15374Y13138D01*
X15449Y13188D01*
X15531Y13271D01*
X18724D01*
X18812Y13288D01*
X18886Y13338D01*
X22062Y16514D01*
X22112Y16588D01*
X22129Y16676D01*
Y18755D01*
X22845Y19471D01*
X30055D01*
X31338Y18188D01*
X31412Y18138D01*
X31500Y18121D01*
X41472D01*
X41560Y18138D01*
X41635Y18188D01*
X43617Y20171D01*
X46498D01*
X46583Y20044D01*
X46575Y20025D01*
Y19875D01*
X46632Y19738D01*
X46738Y19632D01*
X46875Y19575D01*
X47025D01*
X47162Y19632D01*
X47268Y19738D01*
X47325Y19875D01*
Y20025D01*
X47317Y20044D01*
X47402Y20171D01*
X52107D01*
X52142Y20044D01*
D02*
G37*
G36*
X36878Y25367D02*
X36912Y25328D01*
X36940Y25282D01*
X36952Y25244D01*
X36949Y25238D01*
X36947Y25205D01*
X36941Y25172D01*
Y24322D01*
X36961Y24223D01*
X37017Y24139D01*
X37101Y24083D01*
X37262Y24016D01*
Y23879D01*
X37101Y23812D01*
X37101Y23812D01*
X37017Y23756D01*
X36961Y23672D01*
X36941Y23573D01*
Y21668D01*
X36961Y21568D01*
X37017Y21484D01*
X37101Y21428D01*
X37285Y21352D01*
X37299Y21285D01*
X37285Y21218D01*
X37101Y21142D01*
X37101Y21142D01*
X37017Y21086D01*
X36961Y21002D01*
X36941Y20902D01*
Y18900D01*
X36961Y18801D01*
X37017Y18717D01*
X37037Y18697D01*
X36988Y18579D01*
X31595D01*
X30312Y19862D01*
X30238Y19912D01*
X30150Y19929D01*
X22750D01*
X22702Y19920D01*
X22616Y20010D01*
X22610Y20021D01*
X22648Y20112D01*
Y20128D01*
X22660Y20136D01*
X23045Y20521D01*
X30300D01*
X30300Y20521D01*
X30474D01*
X30562Y20538D01*
X30636Y20588D01*
X35419Y25371D01*
X36873D01*
X36878Y25367D01*
D02*
G37*
G36*
X83366Y18894D02*
X83504Y18837D01*
X83558D01*
X83655Y18827D01*
X83675Y18720D01*
Y18675D01*
X83732Y18538D01*
X83821Y18449D01*
Y18359D01*
X83441Y17979D01*
X76745D01*
X75897Y18828D01*
X75945Y18945D01*
X83315D01*
X83366Y18894D01*
D02*
G37*
G36*
X17241Y23051D02*
Y22100D01*
X17261Y22001D01*
X17317Y21917D01*
X19368Y19866D01*
X19452Y19810D01*
X19543Y19792D01*
X19546Y19791D01*
X19547Y19791D01*
X19551Y19790D01*
X19564D01*
X19605Y19798D01*
X19647Y19804D01*
X19654Y19808D01*
X19663Y19810D01*
X19698Y19833D01*
X19734Y19854D01*
X19871Y19974D01*
X19893Y19952D01*
X20031Y19895D01*
X20180D01*
X20318Y19952D01*
X20340Y19974D01*
X20477Y19854D01*
X20514Y19833D01*
X20548Y19810D01*
X20557Y19808D01*
X20565Y19804D01*
X20606Y19798D01*
X20648Y19790D01*
X20961D01*
X21060Y19810D01*
X21125Y19853D01*
X21205Y19754D01*
X21138Y19686D01*
X21088Y19612D01*
X21071Y19524D01*
Y17019D01*
X18381Y14329D01*
X15531D01*
X15449Y14412D01*
X15374Y14462D01*
X15286Y14479D01*
X14914D01*
X14826Y14462D01*
X14751Y14412D01*
X14710Y14371D01*
X14662Y14418D01*
X14525Y14475D01*
X14375D01*
X14279Y14435D01*
X14152Y14499D01*
Y20228D01*
X14282Y20358D01*
X14287D01*
X14375Y20375D01*
X14449Y20425D01*
X17124Y23099D01*
X17241Y23051D01*
D02*
G37*
G36*
X37400Y1972D02*
Y1758D01*
X36877D01*
Y1500D01*
X36639D01*
Y1758D01*
X36480D01*
Y1973D01*
X36639D01*
Y2786D01*
X36847D01*
X37400Y1972D01*
D02*
G37*
%LPC*%
G36*
X23075Y28875D02*
X22925D01*
X22788Y28818D01*
X22682Y28712D01*
X22625Y28575D01*
Y28425D01*
X22682Y28288D01*
X22788Y28182D01*
X22925Y28125D01*
X23075D01*
X23212Y28182D01*
X23318Y28288D01*
X23375Y28425D01*
Y28575D01*
X23318Y28712D01*
X23212Y28818D01*
X23075Y28875D01*
D02*
G37*
G36*
X21486Y27507D02*
X21337D01*
X21199Y27450D01*
X21094Y27345D01*
X21036Y27207D01*
Y27058D01*
X21094Y26920D01*
X21199Y26815D01*
X21337Y26757D01*
X21486D01*
X21624Y26815D01*
X21729Y26920D01*
X21786Y27058D01*
Y27207D01*
X21729Y27345D01*
X21624Y27450D01*
X21486Y27507D01*
D02*
G37*
G36*
X21480Y25150D02*
X21320D01*
X21173Y25089D01*
X21061Y24977D01*
X21000Y24830D01*
Y24670D01*
X21061Y24523D01*
X21173Y24411D01*
X21320Y24350D01*
X21480D01*
X21627Y24411D01*
X21739Y24523D01*
X21800Y24670D01*
Y24830D01*
X21739Y24977D01*
X21627Y25089D01*
X21480Y25150D01*
D02*
G37*
G36*
X20380D02*
X20220D01*
X20073Y25089D01*
X19961Y24977D01*
X19900Y24830D01*
Y24670D01*
X19961Y24523D01*
X20073Y24411D01*
X20220Y24350D01*
X20380D01*
X20527Y24411D01*
X20639Y24523D01*
X20700Y24670D01*
Y24830D01*
X20639Y24977D01*
X20527Y25089D01*
X20380Y25150D01*
D02*
G37*
G36*
X21480Y24050D02*
X21320D01*
X21173Y23989D01*
X21061Y23877D01*
X21000Y23730D01*
Y23570D01*
X21061Y23423D01*
X21173Y23311D01*
X21320Y23250D01*
X21480D01*
X21627Y23311D01*
X21739Y23423D01*
X21800Y23570D01*
Y23730D01*
X21739Y23877D01*
X21627Y23989D01*
X21480Y24050D01*
D02*
G37*
G36*
X20380D02*
X20220D01*
X20073Y23989D01*
X19961Y23877D01*
X19900Y23730D01*
Y23570D01*
X19961Y23423D01*
X20073Y23311D01*
X20220Y23250D01*
X20380D01*
X20527Y23311D01*
X20639Y23423D01*
X20700Y23570D01*
Y23730D01*
X20639Y23877D01*
X20527Y23989D01*
X20380Y24050D01*
D02*
G37*
G36*
X21480Y22950D02*
X21320D01*
X21173Y22889D01*
X21061Y22777D01*
X21000Y22630D01*
Y22470D01*
X21061Y22323D01*
X21173Y22211D01*
X21320Y22150D01*
X21480D01*
X21627Y22211D01*
X21739Y22323D01*
X21800Y22470D01*
Y22630D01*
X21739Y22777D01*
X21627Y22889D01*
X21480Y22950D01*
D02*
G37*
G36*
X20380D02*
X20220D01*
X20073Y22889D01*
X19961Y22777D01*
X19900Y22630D01*
Y22470D01*
X19961Y22323D01*
X20073Y22211D01*
X20220Y22150D01*
X20380D01*
X20527Y22211D01*
X20639Y22323D01*
X20700Y22470D01*
Y22630D01*
X20639Y22777D01*
X20527Y22889D01*
X20380Y22950D01*
D02*
G37*
G36*
X54125Y17225D02*
X53975D01*
X53838Y17168D01*
X53732Y17062D01*
X53675Y16925D01*
Y16799D01*
X53232Y16356D01*
X47824D01*
X47735Y16445D01*
X47598Y16502D01*
X47448D01*
X47311Y16445D01*
X47205Y16339D01*
X47197Y16320D01*
X47159Y16300D01*
X47044Y16282D01*
X47007Y16307D01*
X46919Y16324D01*
X45936D01*
X45847Y16413D01*
X45710Y16470D01*
X45560D01*
X45423Y16413D01*
X45317Y16307D01*
X45260Y16169D01*
Y16020D01*
X45317Y15882D01*
X45423Y15777D01*
X45560Y15720D01*
X45710D01*
X45847Y15777D01*
X45936Y15865D01*
X46824D01*
X47174Y15515D01*
X47249Y15465D01*
X47337Y15448D01*
X47709D01*
X47797Y15465D01*
X47872Y15515D01*
X47927Y15571D01*
X52805D01*
X53775Y14601D01*
Y14475D01*
X53832Y14338D01*
X53938Y14232D01*
X54075Y14175D01*
X54225D01*
X54362Y14232D01*
X54468Y14338D01*
X54525Y14475D01*
Y14625D01*
X54468Y14762D01*
X54362Y14868D01*
X54225Y14925D01*
X54099D01*
X53244Y15780D01*
X53293Y15898D01*
X53327D01*
X53415Y15915D01*
X53489Y15965D01*
X53999Y16475D01*
X54125D01*
X54262Y16532D01*
X54368Y16638D01*
X54425Y16775D01*
Y16925D01*
X54368Y17062D01*
X54262Y17168D01*
X54125Y17225D01*
D02*
G37*
G36*
X26925Y14225D02*
X26775D01*
X26638Y14168D01*
X26532Y14062D01*
X26475Y13925D01*
Y13775D01*
X26532Y13638D01*
X26638Y13532D01*
X26775Y13475D01*
X26925D01*
X27062Y13532D01*
X27168Y13638D01*
X27225Y13775D01*
Y13925D01*
X27168Y14062D01*
X27062Y14168D01*
X26925Y14225D01*
D02*
G37*
G36*
X42575Y14175D02*
X42425D01*
X42288Y14118D01*
X42182Y14012D01*
X42125Y13875D01*
Y13725D01*
X42182Y13588D01*
X42288Y13482D01*
X42425Y13425D01*
X42575D01*
X42712Y13482D01*
X42818Y13588D01*
X42875Y13725D01*
Y13875D01*
X42818Y14012D01*
X42712Y14118D01*
X42575Y14175D01*
D02*
G37*
G36*
X27875Y13825D02*
X27725D01*
X27588Y13768D01*
X27482Y13662D01*
X27425Y13525D01*
Y13375D01*
X27482Y13238D01*
X27588Y13132D01*
X27725Y13075D01*
X27875D01*
X28012Y13132D01*
X28118Y13238D01*
X28175Y13375D01*
Y13525D01*
X28118Y13662D01*
X28012Y13768D01*
X27875Y13825D01*
D02*
G37*
G36*
X32275Y13403D02*
X32126D01*
X31988Y13346D01*
X31882Y13241D01*
X31825Y13103D01*
Y12954D01*
X31882Y12816D01*
X31988Y12710D01*
X32126Y12653D01*
X32275D01*
X32413Y12710D01*
X32518Y12816D01*
X32575Y12954D01*
Y13103D01*
X32518Y13241D01*
X32413Y13346D01*
X32275Y13403D01*
D02*
G37*
G36*
X26975Y13325D02*
X26825D01*
X26688Y13268D01*
X26582Y13162D01*
X26525Y13025D01*
Y12875D01*
X26582Y12738D01*
X26688Y12632D01*
X26825Y12575D01*
X26975D01*
X27112Y12632D01*
X27218Y12738D01*
X27275Y12875D01*
Y13025D01*
X27218Y13162D01*
X27112Y13268D01*
X26975Y13325D01*
D02*
G37*
G36*
X36533Y12412D02*
X36384D01*
X36246Y12355D01*
X36141Y12250D01*
X36084Y12112D01*
Y11963D01*
X36141Y11825D01*
X36246Y11719D01*
X36384Y11662D01*
X36533D01*
X36671Y11719D01*
X36777Y11825D01*
X36834Y11963D01*
Y12112D01*
X36777Y12250D01*
X36671Y12355D01*
X36533Y12412D01*
D02*
G37*
G36*
X35534Y12387D02*
X35384D01*
X35247Y12330D01*
X35141Y12224D01*
X35084Y12087D01*
Y11937D01*
X35141Y11800D01*
X35247Y11694D01*
X35384Y11637D01*
X35534D01*
X35671Y11694D01*
X35777Y11800D01*
X35834Y11937D01*
Y12087D01*
X35777Y12224D01*
X35671Y12330D01*
X35534Y12387D01*
D02*
G37*
G36*
X33775Y12225D02*
X33625D01*
X33488Y12168D01*
X33382Y12062D01*
X33325Y11925D01*
Y11775D01*
X33382Y11638D01*
X33488Y11532D01*
X33625Y11475D01*
X33775D01*
X33912Y11532D01*
X34018Y11638D01*
X34075Y11775D01*
Y11925D01*
X34018Y12062D01*
X33912Y12168D01*
X33775Y12225D01*
D02*
G37*
G36*
X38325Y12175D02*
X38175D01*
X38038Y12118D01*
X37932Y12012D01*
X37875Y11875D01*
Y11725D01*
X37932Y11588D01*
X38038Y11482D01*
X38175Y11425D01*
X38325D01*
X38462Y11482D01*
X38568Y11588D01*
X38625Y11725D01*
Y11875D01*
X38568Y12012D01*
X38462Y12118D01*
X38325Y12175D01*
D02*
G37*
G36*
X20677Y11575D02*
X20528D01*
X20390Y11518D01*
X20285Y11413D01*
X20227Y11275D01*
Y11126D01*
X20285Y10988D01*
X20352Y10921D01*
X20285Y10853D01*
X20227Y10715D01*
Y10566D01*
X20285Y10428D01*
X20390Y10323D01*
X20528Y10266D01*
X20677D01*
X20815Y10323D01*
X20920Y10428D01*
X20977Y10566D01*
Y10715D01*
X20920Y10853D01*
X20853Y10921D01*
X20920Y10988D01*
X20977Y11126D01*
Y11275D01*
X20920Y11413D01*
X20815Y11518D01*
X20677Y11575D01*
D02*
G37*
G36*
X36877Y2408D02*
Y1973D01*
X37170D01*
X36877Y2408D01*
D02*
G37*
G36*
X75243Y-12882D02*
X75241D01*
X75243Y-12971D01*
X75246Y-13027D01*
X75249Y-13074D01*
X75254Y-13113D01*
X75263Y-13146D01*
X75271Y-13171D01*
X75277Y-13191D01*
X75279Y-13202D01*
X75282Y-13204D01*
X75304Y-13241D01*
X75327Y-13274D01*
X75354Y-13302D01*
X75379Y-13324D01*
X75402Y-13343D01*
X75421Y-13357D01*
X75432Y-13365D01*
X75438Y-13368D01*
X75479Y-13388D01*
X75521Y-13402D01*
X75560Y-13413D01*
X75599Y-13418D01*
X75629Y-13424D01*
X75657Y-13427D01*
X75679D01*
X75729Y-13424D01*
X75771Y-13418D01*
X75807Y-13407D01*
X75837Y-13396D01*
X75860Y-13385D01*
X75876Y-13374D01*
X75887Y-13368D01*
X75890Y-13365D01*
X75912Y-13340D01*
X75929Y-13313D01*
X75943Y-13288D01*
X75951Y-13263D01*
X75957Y-13241D01*
X75960Y-13224D01*
Y-13210D01*
Y-13207D01*
X75957Y-13185D01*
X75954Y-13163D01*
X75948Y-13146D01*
X75943Y-13129D01*
X75937Y-13116D01*
X75935Y-13104D01*
X75929Y-13099D01*
Y-13096D01*
X75901Y-13063D01*
X75868Y-13041D01*
X75857Y-13032D01*
X75846Y-13027D01*
X75837Y-13021D01*
X75835D01*
X75807Y-13010D01*
X75776Y-13002D01*
X75743Y-12993D01*
X75710Y-12988D01*
X75679Y-12982D01*
X75651Y-12977D01*
X75635Y-12974D01*
X75629D01*
X75582Y-12966D01*
X75538Y-12960D01*
X75499Y-12952D01*
X75460Y-12943D01*
X75424Y-12935D01*
X75393Y-12927D01*
X75363Y-12921D01*
X75338Y-12913D01*
X75315Y-12907D01*
X75296Y-12902D01*
X75279Y-12896D01*
X75266Y-12891D01*
X75254Y-12888D01*
X75246Y-12885D01*
X75243Y-12882D01*
D02*
G37*
G36*
X72739Y-12352D02*
X72722D01*
X72689Y-12355D01*
X72659Y-12358D01*
X72600Y-12374D01*
X72550Y-12397D01*
X72509Y-12422D01*
X72475Y-12447D01*
X72450Y-12469D01*
X72437Y-12485D01*
X72431Y-12488D01*
Y-12491D01*
X72406Y-12527D01*
X72384Y-12569D01*
X72370Y-12610D01*
X72356Y-12655D01*
X72348Y-12691D01*
X72342Y-12724D01*
Y-12735D01*
X72339Y-12744D01*
Y-12749D01*
Y-12752D01*
X73119D01*
X73111Y-12688D01*
X73094Y-12630D01*
X73075Y-12580D01*
X73053Y-12541D01*
X73033Y-12508D01*
X73014Y-12483D01*
X73003Y-12469D01*
X72997Y-12463D01*
X72953Y-12427D01*
X72909Y-12399D01*
X72861Y-12380D01*
X72817Y-12366D01*
X72781Y-12358D01*
X72750Y-12355D01*
X72739Y-12352D01*
D02*
G37*
G36*
X86606Y-11889D02*
X86151D01*
X86090Y-11894D01*
X86043Y-11897D01*
X86001Y-11902D01*
X85971Y-11908D01*
X85951Y-11911D01*
X85937Y-11916D01*
X85935D01*
X85904Y-11927D01*
X85876Y-11944D01*
X85854Y-11961D01*
X85835Y-11977D01*
X85821Y-11991D01*
X85810Y-12005D01*
X85804Y-12013D01*
X85801Y-12016D01*
X85785Y-12044D01*
X85773Y-12072D01*
X85765Y-12099D01*
X85760Y-12127D01*
X85757Y-12149D01*
X85754Y-12166D01*
Y-12177D01*
Y-12183D01*
X85757Y-12219D01*
X85762Y-12252D01*
X85771Y-12280D01*
X85779Y-12302D01*
X85787Y-12322D01*
X85796Y-12338D01*
X85801Y-12347D01*
X85804Y-12349D01*
X85823Y-12372D01*
X85848Y-12394D01*
X85873Y-12410D01*
X85896Y-12422D01*
X85918Y-12433D01*
X85935Y-12441D01*
X85946Y-12444D01*
X85951Y-12447D01*
X85982Y-12452D01*
X86021Y-12458D01*
X86059Y-12460D01*
X86098Y-12463D01*
X86134Y-12466D01*
X86606D01*
Y-11889D01*
D02*
G37*
G36*
Y-12694D02*
X86101D01*
X86043Y-12699D01*
X85996Y-12705D01*
X85957Y-12710D01*
X85926Y-12716D01*
X85901Y-12721D01*
X85890Y-12724D01*
X85885Y-12727D01*
X85848Y-12741D01*
X85818Y-12757D01*
X85790Y-12777D01*
X85768Y-12796D01*
X85751Y-12813D01*
X85740Y-12827D01*
X85732Y-12838D01*
X85729Y-12841D01*
X85710Y-12871D01*
X85696Y-12902D01*
X85685Y-12932D01*
X85679Y-12960D01*
X85674Y-12985D01*
X85671Y-13007D01*
Y-13018D01*
Y-13024D01*
X85674Y-13057D01*
X85676Y-13091D01*
X85682Y-13118D01*
X85690Y-13141D01*
X85699Y-13160D01*
X85704Y-13177D01*
X85707Y-13185D01*
X85710Y-13188D01*
X85726Y-13213D01*
X85740Y-13235D01*
X85760Y-13252D01*
X85773Y-13268D01*
X85787Y-13279D01*
X85798Y-13288D01*
X85807Y-13293D01*
X85810Y-13296D01*
X85857Y-13318D01*
X85904Y-13335D01*
X85923Y-13340D01*
X85940Y-13343D01*
X85951Y-13346D01*
X85954D01*
X85976Y-13349D01*
X86001Y-13352D01*
X86059Y-13354D01*
X86606D01*
Y-12694D01*
D02*
G37*
G36*
X84544Y-12352D02*
X84527D01*
X84494Y-12355D01*
X84463Y-12358D01*
X84408Y-12372D01*
X84358Y-12394D01*
X84316Y-12419D01*
X84283Y-12444D01*
X84258Y-12463D01*
X84241Y-12480D01*
X84235Y-12483D01*
Y-12485D01*
X84213Y-12510D01*
X84197Y-12541D01*
X84166Y-12602D01*
X84144Y-12669D01*
X84130Y-12730D01*
X84122Y-12788D01*
X84119Y-12813D01*
Y-12835D01*
X84116Y-12852D01*
Y-12866D01*
Y-12874D01*
Y-12877D01*
Y-12927D01*
X84122Y-12974D01*
X84127Y-13016D01*
X84136Y-13057D01*
X84144Y-13093D01*
X84155Y-13127D01*
X84163Y-13157D01*
X84174Y-13185D01*
X84186Y-13207D01*
X84197Y-13229D01*
X84208Y-13246D01*
X84216Y-13260D01*
X84224Y-13271D01*
X84230Y-13279D01*
X84233Y-13282D01*
X84235Y-13285D01*
X84258Y-13307D01*
X84283Y-13329D01*
X84330Y-13363D01*
X84380Y-13385D01*
X84424Y-13402D01*
X84466Y-13410D01*
X84496Y-13415D01*
X84510Y-13418D01*
X84527D01*
X84560Y-13415D01*
X84591Y-13413D01*
X84649Y-13399D01*
X84699Y-13377D01*
X84741Y-13352D01*
X84774Y-13329D01*
X84799Y-13307D01*
X84816Y-13293D01*
X84818Y-13288D01*
X84821D01*
X84841Y-13260D01*
X84860Y-13232D01*
X84888Y-13168D01*
X84910Y-13102D01*
X84924Y-13035D01*
X84932Y-12977D01*
X84935Y-12952D01*
Y-12930D01*
X84938Y-12910D01*
Y-12896D01*
Y-12888D01*
Y-12885D01*
X84935Y-12838D01*
X84932Y-12791D01*
X84927Y-12749D01*
X84918Y-12710D01*
X84910Y-12674D01*
X84902Y-12641D01*
X84891Y-12613D01*
X84880Y-12585D01*
X84868Y-12563D01*
X84857Y-12541D01*
X84849Y-12524D01*
X84841Y-12510D01*
X84832Y-12499D01*
X84827Y-12491D01*
X84821Y-12488D01*
Y-12485D01*
X84799Y-12463D01*
X84774Y-12441D01*
X84727Y-12408D01*
X84677Y-12385D01*
X84630Y-12369D01*
X84588Y-12358D01*
X84558Y-12355D01*
X84544Y-12352D01*
D02*
G37*
G36*
X81556D02*
X81540D01*
X81506Y-12355D01*
X81476Y-12358D01*
X81420Y-12372D01*
X81370Y-12394D01*
X81329Y-12419D01*
X81295Y-12444D01*
X81270Y-12463D01*
X81254Y-12480D01*
X81248Y-12483D01*
Y-12485D01*
X81226Y-12510D01*
X81209Y-12541D01*
X81179Y-12602D01*
X81157Y-12669D01*
X81143Y-12730D01*
X81134Y-12788D01*
X81132Y-12813D01*
Y-12835D01*
X81129Y-12852D01*
Y-12866D01*
Y-12874D01*
Y-12877D01*
Y-12927D01*
X81134Y-12974D01*
X81140Y-13016D01*
X81148Y-13057D01*
X81157Y-13093D01*
X81168Y-13127D01*
X81176Y-13157D01*
X81187Y-13185D01*
X81198Y-13207D01*
X81209Y-13229D01*
X81220Y-13246D01*
X81229Y-13260D01*
X81237Y-13271D01*
X81243Y-13279D01*
X81245Y-13282D01*
X81248Y-13285D01*
X81270Y-13307D01*
X81295Y-13329D01*
X81343Y-13363D01*
X81393Y-13385D01*
X81437Y-13402D01*
X81479Y-13410D01*
X81509Y-13415D01*
X81523Y-13418D01*
X81540D01*
X81573Y-13415D01*
X81604Y-13413D01*
X81662Y-13399D01*
X81712Y-13377D01*
X81754Y-13352D01*
X81787Y-13329D01*
X81812Y-13307D01*
X81828Y-13293D01*
X81831Y-13288D01*
X81834D01*
X81853Y-13260D01*
X81873Y-13232D01*
X81901Y-13168D01*
X81923Y-13102D01*
X81937Y-13035D01*
X81945Y-12977D01*
X81948Y-12952D01*
Y-12930D01*
X81951Y-12910D01*
Y-12896D01*
Y-12888D01*
Y-12885D01*
X81948Y-12838D01*
X81945Y-12791D01*
X81940Y-12749D01*
X81931Y-12710D01*
X81923Y-12674D01*
X81915Y-12641D01*
X81903Y-12613D01*
X81892Y-12585D01*
X81881Y-12563D01*
X81870Y-12541D01*
X81862Y-12524D01*
X81853Y-12510D01*
X81845Y-12499D01*
X81840Y-12491D01*
X81834Y-12488D01*
Y-12485D01*
X81812Y-12463D01*
X81787Y-12441D01*
X81740Y-12408D01*
X81690Y-12385D01*
X81642Y-12369D01*
X81601Y-12358D01*
X81570Y-12355D01*
X81556Y-12352D01*
D02*
G37*
G36*
X42505Y-11889D02*
X42050D01*
X41989Y-11894D01*
X41941Y-11897D01*
X41900Y-11902D01*
X41869Y-11908D01*
X41850Y-11911D01*
X41836Y-11916D01*
X41833D01*
X41803Y-11927D01*
X41775Y-11944D01*
X41753Y-11961D01*
X41733Y-11977D01*
X41719Y-11991D01*
X41708Y-12005D01*
X41703Y-12013D01*
X41700Y-12016D01*
X41683Y-12044D01*
X41672Y-12072D01*
X41664Y-12099D01*
X41658Y-12127D01*
X41656Y-12149D01*
X41653Y-12166D01*
Y-12177D01*
Y-12183D01*
X41656Y-12219D01*
X41661Y-12252D01*
X41669Y-12280D01*
X41678Y-12302D01*
X41686Y-12322D01*
X41694Y-12338D01*
X41700Y-12347D01*
X41703Y-12349D01*
X41722Y-12372D01*
X41747Y-12394D01*
X41772Y-12410D01*
X41794Y-12422D01*
X41817Y-12433D01*
X41833Y-12441D01*
X41844Y-12444D01*
X41850Y-12447D01*
X41880Y-12452D01*
X41919Y-12458D01*
X41958Y-12460D01*
X41997Y-12463D01*
X42033Y-12466D01*
X42505D01*
Y-11889D01*
D02*
G37*
G36*
Y-12694D02*
X42000D01*
X41941Y-12699D01*
X41894Y-12705D01*
X41855Y-12710D01*
X41825Y-12716D01*
X41800Y-12721D01*
X41789Y-12724D01*
X41783Y-12727D01*
X41747Y-12741D01*
X41717Y-12757D01*
X41689Y-12777D01*
X41667Y-12796D01*
X41650Y-12813D01*
X41639Y-12827D01*
X41631Y-12838D01*
X41628Y-12841D01*
X41608Y-12871D01*
X41594Y-12902D01*
X41583Y-12932D01*
X41578Y-12960D01*
X41572Y-12985D01*
X41569Y-13007D01*
Y-13018D01*
Y-13024D01*
X41572Y-13057D01*
X41575Y-13091D01*
X41581Y-13118D01*
X41589Y-13141D01*
X41597Y-13160D01*
X41603Y-13177D01*
X41606Y-13185D01*
X41608Y-13188D01*
X41625Y-13213D01*
X41639Y-13235D01*
X41658Y-13252D01*
X41672Y-13268D01*
X41686Y-13279D01*
X41697Y-13288D01*
X41705Y-13293D01*
X41708Y-13296D01*
X41755Y-13318D01*
X41803Y-13335D01*
X41822Y-13340D01*
X41839Y-13343D01*
X41850Y-13346D01*
X41853D01*
X41875Y-13349D01*
X41900Y-13352D01*
X41958Y-13354D01*
X42505D01*
Y-12694D01*
D02*
G37*
%LPD*%
D12*
X65050Y20400D02*
X67582D01*
X67625Y20357D01*
X64100Y21350D02*
X65050Y20400D01*
X64100Y21350D02*
Y21400D01*
X80873Y13079D02*
Y14477D01*
X78360Y15040D02*
X80310D01*
X80873Y14477D01*
X81766Y12186D02*
X82784D01*
X80873Y13079D02*
X81766Y12186D01*
X68905Y26848D02*
X69330D01*
X63695Y27000D02*
X68753D01*
X69502Y27352D02*
X69550Y27400D01*
X69330Y26848D02*
X69378Y26800D01*
X63550Y27350D02*
X69032D01*
X68753Y27000D02*
X68905Y26848D01*
X69035Y27352D02*
X69502D01*
X69032Y27350D02*
X69035Y27352D01*
X3068Y17678D02*
X3353Y17963D01*
X2593Y16177D02*
Y16245D01*
X3068Y16370D02*
X3193Y16245D01*
X3003Y18108D02*
Y21103D01*
X2718Y17823D02*
X3003Y18108D01*
Y21103D02*
X6255Y24355D01*
X2593Y16245D02*
X2718Y16370D01*
Y17823D01*
X3193Y16177D02*
Y16245D01*
X3068Y16370D02*
Y17678D01*
X3353Y17963D02*
Y20958D01*
X7585Y28190D02*
X10345D01*
X15600Y33445D01*
X27375D01*
X15745Y33095D02*
X27230D01*
X7730Y27840D02*
X10490D01*
X15745Y33095D01*
X27230D02*
X30227Y30097D01*
X30372Y30447D02*
X42521D01*
X27375Y33445D02*
X30372Y30447D01*
X30227Y30097D02*
X42376D01*
X6605Y26715D02*
X7730Y27840D01*
X6255Y26860D02*
X7585Y28190D01*
X6255Y24355D02*
Y26860D01*
X6605Y24211D02*
Y26715D01*
X3353Y20958D02*
X6605Y24211D01*
X42376Y30097D02*
X44073Y28400D01*
X48055D01*
X48455Y28000D02*
X49272D01*
X49750Y27522D01*
X48055Y28400D02*
X48455Y28000D01*
X49750Y26512D02*
Y27522D01*
X62145Y25450D02*
X63695Y27000D01*
X50812Y25450D02*
X62145D01*
X49750Y26512D02*
X50812Y25450D01*
X48600Y28350D02*
X49417D01*
X50100Y27667D01*
X44218Y28750D02*
X48200D01*
X48600Y28350D01*
X42521Y30447D02*
X44218Y28750D01*
X62000Y25800D02*
X63550Y27350D01*
X50100Y26657D02*
Y27667D01*
X50957Y25800D02*
X62000D01*
X50100Y26657D02*
X50957Y25800D01*
X8486Y7892D02*
X8800Y8206D01*
X5519Y7892D02*
X8486D01*
X5298Y7848D02*
X5475D01*
X5250Y7800D02*
X5298Y7848D01*
X5475D02*
X5519Y7892D01*
X5664Y7542D02*
X8353D01*
X5053Y7325D02*
X5447D01*
X5664Y7542D01*
X4775Y7603D02*
X5053Y7325D01*
X8353Y7542D02*
X8750Y7145D01*
X4775Y7603D02*
Y8125D01*
X5200Y8550D01*
X49300Y22600D02*
X50500Y21400D01*
X64100D01*
X42382Y24050D02*
X43832Y22600D01*
X49300D01*
X41350Y24050D02*
X42382D01*
X67625Y20353D02*
Y20357D01*
Y20353D02*
X71378Y16600D01*
X71850D02*
X71850Y16600D01*
X71378Y16600D02*
X71850D01*
X71850D02*
X76800D01*
X78360Y15040D01*
D14*
X100050Y33000D02*
G03*
X98050Y35000I-2000J0D01*
G01*
Y0D02*
G03*
X100050Y2000I0J2000D01*
G01*
X2000Y35000D02*
G03*
X0Y33000I0J-2000D01*
G01*
Y2000D02*
G03*
X2000Y0I2000J0D01*
G01*
X98050D01*
X2000Y35000D02*
X98050D01*
X100050Y2000D02*
Y33000D01*
X0Y2000D02*
Y33000D01*
D104*
X35513Y4244D02*
D03*
X33620Y4244D02*
D03*
X35513Y7348D02*
D03*
X33620Y7343D02*
D03*
X88900Y10795D02*
D03*
X73800Y2050D02*
D03*
X54548Y22550D02*
D03*
X52500Y17500D02*
D03*
Y19500D02*
D03*
X57500D02*
D03*
X54500D02*
D03*
X51600Y29450D02*
D03*
X49700D02*
D03*
D147*
X93350Y1450D02*
D03*
X10650Y31400D02*
D03*
X10850Y1600D02*
D03*
D156*
X79617Y2423D02*
X79627D01*
X33750Y4250D02*
X33750Y4250D01*
X33750D01*
X33731Y7350D02*
X33750D01*
X33722Y7340D02*
X33731Y7350D01*
X54490Y32900D02*
X54579Y32811D01*
Y31949D02*
Y32811D01*
X55606Y32656D02*
X55850Y32900D01*
Y32018D02*
Y32900D01*
X55606Y31970D02*
Y32656D01*
X80898Y2387D02*
Y2412D01*
X80887Y2423D02*
X80898Y2412D01*
X79627Y2423D02*
X79650Y2400D01*
X82150D02*
Y2416D01*
X82157Y2423D01*
D159*
X42758Y28635D02*
X43943Y27450D01*
X41072Y28635D02*
X42758D01*
X43943Y27450D02*
X47500D01*
X40757Y28950D02*
X41072Y28635D01*
X26180Y28950D02*
X40757D01*
X24705Y30425D02*
X26180Y28950D01*
X35450Y4145D02*
Y4250D01*
X34458Y3153D02*
X35450Y4145D01*
X31853Y3153D02*
X34458D01*
X24003Y3683D02*
X24661Y3025D01*
X31725D02*
X31853Y3153D01*
X24661Y3025D02*
X31725D01*
X20588Y7098D02*
X24003Y3683D01*
X19800Y27900D02*
X20650D01*
X18154Y26254D02*
X19800Y27900D01*
X20650D02*
X21550Y28800D01*
Y29500D01*
X18224Y23894D02*
X18400Y24069D01*
X17063Y23894D02*
X18224D01*
X18125Y25100D02*
X18400Y24825D01*
Y24069D02*
Y24825D01*
X15231Y22162D02*
X15332D01*
X13508Y20438D02*
X15231Y22162D01*
X15332D02*
X17063Y23894D01*
X13508Y11742D02*
Y20438D01*
X22475Y30425D02*
X24705D01*
X21550Y29500D02*
X22475Y30425D01*
X18125Y25987D02*
X18154Y26016D01*
Y26254D01*
X18125Y25100D02*
Y25987D01*
X13508Y11742D02*
X18152Y7098D01*
X20588D01*
D161*
X84150Y9350D02*
X85100Y10300D01*
X81069Y8769D02*
X81650Y9350D01*
X84150D01*
X83200Y11350D02*
X83600Y11750D01*
X82750Y14450D02*
X83600Y13600D01*
Y11750D02*
Y13600D01*
X73702Y11350D02*
X83200D01*
X85100Y10300D02*
Y15000D01*
X84350Y9050D02*
X85450Y10150D01*
X82950Y9050D02*
X84350D01*
X82452Y8552D02*
X82950Y9050D01*
X85450Y10150D02*
Y14600D01*
X82300Y14450D02*
X82750D01*
X54250Y17700D02*
X58000Y13950D01*
X52663Y17663D02*
X52976D01*
X53013Y17700D02*
X54250D01*
X52500Y17500D02*
X52663Y17663D01*
X52976D02*
X53013Y17700D01*
X70494Y26474D02*
X71200Y27180D01*
Y28000D01*
X70150Y29050D02*
X71200Y28000D01*
X70494Y22006D02*
Y26474D01*
X72197Y27541D02*
Y28449D01*
X72477Y28728D01*
X71115Y26458D02*
X72197Y27541D01*
X9500Y22500D02*
X19000Y32000D01*
X26110D02*
X26398Y31712D01*
X19000Y32000D02*
X26110D01*
X27073Y31136D02*
Y31827D01*
X18876Y32300D02*
X26600D01*
X27073Y31827D01*
X9200Y22624D02*
X18876Y32300D01*
X28027Y30473D02*
X28050Y30450D01*
X27073Y31136D02*
X27736Y30473D01*
X28027D01*
X6550Y16226D02*
X9500Y19176D01*
Y22500D01*
X6550Y15550D02*
Y16226D01*
X5400Y15500D02*
X9200Y19300D01*
X5050Y15500D02*
X5400D01*
X9200Y19300D02*
Y22624D01*
X36950Y32000D02*
X50075D01*
X36900Y32050D02*
X36950Y32000D01*
X50075D02*
X51825Y30250D01*
X58954Y24400D02*
X66400D01*
X58329Y25025D02*
X58954Y24400D01*
X66400D02*
X71550Y19250D01*
X66276Y24100D02*
X71426Y18950D01*
X58205Y24725D02*
X58830Y24100D01*
X66276D01*
X58400Y23800D02*
X66151D01*
X71301Y18650D01*
X57925Y24275D02*
X58400Y23800D01*
X57438D02*
X57913Y24275D01*
X48250Y25100D02*
X49550Y23800D01*
X57438D01*
X48374Y25400D02*
X49674Y24100D01*
X56769D01*
X57219Y24550D01*
X48499Y25700D02*
X49799Y24400D01*
X56450D02*
X57100Y25050D01*
X49799Y24400D02*
X56450D01*
X52234Y26821D02*
X52641Y27229D01*
X51479Y26821D02*
X52234D01*
X57100Y25050D02*
X58300D01*
X58325Y25025D02*
X58329D01*
X58300Y25050D02*
X58325Y25025D01*
X57538Y24725D02*
X58205D01*
X57219Y24550D02*
X57363D01*
X57538Y24725D01*
X57913Y24275D02*
X57925D01*
X51543Y27807D02*
Y28007D01*
Y27807D02*
X51600Y27750D01*
X50263Y29287D02*
X51543Y28007D01*
X59174Y29505D02*
X59364Y29315D01*
Y28180D02*
X59659Y27885D01*
X59364Y28180D02*
Y29315D01*
X52641Y29301D02*
X52845Y29505D01*
X52641Y27229D02*
Y29301D01*
X52845Y29505D02*
X59174D01*
X51825Y30250D02*
X67814D01*
X68114Y29950D01*
X70494Y22006D02*
X72368Y20132D01*
X70794Y22130D02*
Y26267D01*
X70882Y26354D01*
X70794Y22130D02*
X72492Y20433D01*
X72637Y24200D02*
X76903D01*
X77453Y23650D02*
X81400D01*
X76903Y24200D02*
X77453Y23650D01*
X77577Y23950D02*
X81524D01*
X77027Y24500D02*
X77577Y23950D01*
X72762Y24500D02*
X77027D01*
X71987Y24850D02*
X72637Y24200D01*
X71250Y24850D02*
X71987D01*
X71693Y25568D02*
X72762Y24500D01*
X81400Y23650D02*
X83545Y21505D01*
X81524Y23950D02*
X83845Y21629D01*
X65050Y8850D02*
Y11550D01*
X60496Y4296D02*
X65050Y8850D01*
X61034Y5258D02*
X64382Y8606D01*
Y11540D01*
X58918Y20732D02*
X63563Y16087D01*
X49418Y20732D02*
X58918D01*
X48250Y21900D02*
X49418Y20732D01*
X71301Y18650D02*
X75253D01*
X71426Y18950D02*
X75450D01*
X71550Y19250D02*
X75574D01*
X81069Y6269D02*
Y8769D01*
X80887Y6087D02*
X81069Y6269D01*
X83218Y21116D02*
X87283Y17051D01*
Y7383D02*
Y17051D01*
X82977Y20192D02*
X83258D01*
X83545Y21213D02*
X84562Y20196D01*
X83845Y21338D02*
X84687Y20496D01*
X83845Y21338D02*
Y21629D01*
X82849Y21167D02*
X82900Y21116D01*
X84687Y20496D02*
X86497D01*
X85152Y17649D02*
Y18298D01*
X82785Y20000D02*
X82977Y20192D01*
X82900Y21116D02*
X83218D01*
X75197Y20433D02*
X75629Y20000D01*
X83545Y21213D02*
Y21505D01*
X84562Y20196D02*
X86833D01*
X83258Y20192D02*
X85152Y18298D01*
X75505Y19700D02*
X75700D01*
X86497Y20496D02*
X86655Y20654D01*
X75629Y20000D02*
X82785D01*
X75700Y19700D02*
X75710Y19690D01*
X75073Y20132D02*
X75505Y19700D01*
X75710Y19690D02*
X83111D01*
X13923Y12227D02*
X14550Y11600D01*
X13923Y12227D02*
Y20323D01*
X60496Y5258D02*
X61034D01*
X73687Y2163D02*
X73800Y2050D01*
X73687Y2163D02*
Y2663D01*
X68250Y8100D02*
X73687Y2663D01*
X68700Y8286D02*
Y8286D01*
X70499Y6487D02*
X75807D01*
X68700Y8286D02*
X70499Y6487D01*
X68236Y8750D02*
X68700Y8286D01*
X67600Y8750D02*
X68236D01*
X71300Y25750D02*
X71356Y25694D01*
X71580D02*
X71693Y25580D01*
X71356Y25694D02*
X71580D01*
X71693Y25568D02*
Y25580D01*
X49700Y29450D02*
X49863Y29287D01*
X50263D01*
X49552Y30848D02*
X49950Y30450D01*
X49700Y29450D02*
Y29680D01*
X49950Y29930D01*
Y30450D01*
X44199Y25700D02*
X48499D01*
X43549Y26350D02*
X44199Y25700D01*
X43000Y26700D02*
X43350Y26350D01*
X43549D01*
X44152Y30848D02*
X49552D01*
X43932Y31068D02*
X44152Y30848D01*
X43932Y31068D02*
Y31243D01*
X43875Y31300D02*
X43932Y31243D01*
X49649Y31300D02*
X51499Y29450D01*
X45225Y31300D02*
X49649D01*
X17834Y24438D02*
Y24787D01*
X17623Y24998D02*
Y26327D01*
X18163Y26866D02*
Y27112D01*
X17623Y24998D02*
X17834Y24787D01*
X17623Y26327D02*
X18163Y26866D01*
Y27112D02*
X18200Y27150D01*
X17823Y24427D02*
X17834Y24438D01*
X37000Y27150D02*
X37850Y28000D01*
X40414D01*
X42364Y26050D01*
X43424D01*
X37000Y26331D02*
Y27150D01*
X37400Y25881D02*
Y27077D01*
X38023Y27700D01*
X40289D01*
X36612Y25900D02*
X36812Y26100D01*
X30350Y21050D02*
X35200Y25900D01*
X36812Y26100D02*
X36850D01*
X35200Y25900D02*
X36612D01*
X30300Y20750D02*
X30300Y20750D01*
X30474D01*
X35324Y25600D01*
X22950Y20750D02*
X30300D01*
X35324Y25600D02*
X37600D01*
X23674Y21287D02*
X23911Y21050D01*
X30350D01*
X23673Y21287D02*
X23674D01*
X22200Y20850D02*
X22626D01*
X23435Y21050D02*
X23672Y21287D01*
X21750Y20400D02*
X22200Y20850D01*
X22626D02*
X22826Y21050D01*
X23435D01*
X21750Y19974D02*
Y20400D01*
X21300Y19524D02*
X21750Y19974D01*
X21300Y16924D02*
Y19524D01*
X21900Y16676D02*
Y18850D01*
X18724Y13500D02*
X21900Y16676D01*
Y18850D02*
X22750Y19700D01*
X15436Y13500D02*
X18724D01*
X18476Y14100D02*
X21300Y16924D01*
X15436Y14100D02*
X18476D01*
X14650Y13050D02*
X14950Y13350D01*
X15286D01*
X15436Y13500D01*
X14914Y14250D02*
X15286D01*
X15436Y14100D01*
X14775Y14111D02*
X14914Y14250D01*
X14461Y14111D02*
X14775D01*
X14450Y14100D02*
X14461Y14111D01*
X15100Y13800D02*
X18600D01*
X21600Y16800D01*
X22750Y19700D02*
X30150D01*
X31500Y18350D01*
X37400Y25881D02*
X37600Y25681D01*
X40289Y27700D02*
X42289Y25700D01*
X36850Y26100D02*
Y26181D01*
X37000Y26331D01*
X37600Y25600D02*
Y25681D01*
X42289Y25700D02*
X43350D01*
X54450Y18422D02*
X58322Y14550D01*
X78964Y12000D02*
X79219D01*
X79319Y12100D02*
X79400D01*
X78614Y12350D02*
X78964Y12000D01*
X79219D02*
X79319Y12100D01*
X72524Y14550D02*
X74124Y12950D01*
X58322Y14550D02*
X72524D01*
X72400Y14250D02*
X74000Y12650D01*
X58150Y14250D02*
X72400D01*
X72276Y13950D02*
X73876Y12350D01*
X58000Y13950D02*
X72276D01*
X74124Y12950D02*
X78150D01*
X79456Y14256D01*
X73876Y12350D02*
X78614D01*
X74000Y12650D02*
X78950D01*
X79456Y14256D02*
X79856D01*
X52150Y21900D02*
X52800Y22550D01*
X66200D02*
X67350Y21400D01*
X52800Y22550D02*
X66200D01*
X52900Y19500D02*
X58150Y14250D01*
X52500Y19500D02*
X52900D01*
X54450Y18422D02*
Y19450D01*
X54500Y19500D01*
X82452Y6382D02*
Y8552D01*
X77077Y5462D02*
X77639Y4900D01*
X84800D01*
X87283Y7383D01*
X44074Y25400D02*
X48374D01*
X43424Y26050D02*
X44074Y25400D01*
X43950Y25100D02*
X48250D01*
X72650Y29950D02*
X75050Y27550D01*
X68114Y29950D02*
X72650D01*
X60929Y31737D02*
X61130Y31536D01*
X61436D02*
X62600Y32700D01*
X61130Y31536D02*
X61436D01*
X49624Y12000D02*
X73052D01*
X73702Y11350D01*
X69872Y12641D02*
X70600Y13369D01*
X49417Y12641D02*
X69872D01*
X70600Y13369D02*
Y13450D01*
X54900Y20400D02*
X60400Y14900D01*
X43522Y20400D02*
X54900D01*
X85450Y14600D02*
X85850Y15000D01*
X82157Y6087D02*
X82452Y6382D01*
X43350Y25700D02*
X43950Y25100D01*
X51499Y29450D02*
X51600D01*
X41472Y18350D02*
X43522Y20400D01*
X31500Y18350D02*
X41472D01*
X15600Y11500D02*
X17800Y9300D01*
X46924D01*
X47832Y15800D02*
X52900D01*
X54150Y14550D01*
X47709Y15677D02*
X47832Y15800D01*
X47337Y15677D02*
X47709D01*
X46919Y16095D02*
X47337Y15677D01*
X45635Y16095D02*
X46919D01*
X47523Y16127D02*
X53327D01*
X54050Y16850D01*
X46924Y9300D02*
X49624Y12000D01*
X70404Y12300D02*
X71050Y12946D01*
X46800Y9600D02*
X49500Y12300D01*
X70404D01*
X46676Y9900D02*
X49417Y12641D01*
X49292Y12941D02*
X68762D01*
X68889Y13068D02*
X69000D01*
X46599Y10248D02*
X49292Y12941D01*
X68762D02*
X68889Y13068D01*
X14550Y11600D02*
X15419D01*
X35972Y10091D02*
X36463Y9600D01*
X35760Y10091D02*
X35972D01*
X36463Y9600D02*
X46800D01*
X35703Y10148D02*
X35760Y10091D01*
X34140Y10898D02*
X36013D01*
X33490Y10248D02*
X34140Y10898D01*
X34966Y10598D02*
X35889D01*
X34616Y10248D02*
X34966Y10598D01*
X36663Y10248D02*
X46599D01*
X36013Y10898D02*
X36663Y10248D01*
X36587Y9900D02*
X46676D01*
X35889Y10598D02*
X36587Y9900D01*
X60496Y3908D02*
Y4296D01*
X61224Y28392D02*
X62292D01*
X63150Y29250D01*
X60929Y28097D02*
X61224Y28392D01*
X60929Y27885D02*
Y28097D01*
Y31737D02*
Y31949D01*
X22387Y20187D02*
Y20220D01*
X22465Y20298D02*
X22498D01*
X22387Y20220D02*
X22465Y20298D01*
X22498D02*
X22950Y20750D01*
X21600Y19400D02*
X22387Y20187D01*
X21600Y16800D02*
Y19400D01*
X77120Y14230D02*
X78345D01*
X76450Y14900D02*
X77120Y14230D01*
X60400Y14900D02*
X76450D01*
X13923Y20323D02*
X14187Y20587D01*
X14287D01*
X17219Y23519D01*
X18444D01*
X18825Y23900D02*
Y25958D01*
X18973Y26106D02*
Y26187D01*
X18825Y25958D02*
X18973Y26106D01*
X18444Y23519D02*
X18825Y23900D01*
X63563Y16087D02*
X68137D01*
X68574Y15650D02*
X69986D01*
X68137Y16087D02*
X68574Y15650D01*
X75650Y19174D02*
X83541D01*
X75574Y19250D02*
X75650Y19174D01*
X73800Y2050D02*
X75512D01*
X75807Y2345D01*
Y2423D01*
X71393Y13443D02*
X71450Y13500D01*
X71393Y13293D02*
Y13443D01*
X71050Y12950D02*
X71393Y13293D01*
X71050Y12946D02*
Y12950D01*
X83153Y15650D02*
X85152Y17649D01*
X83150Y15650D02*
X83153D01*
X72492Y20433D02*
X75197D01*
X72368Y20132D02*
X75073D01*
X83536Y17750D02*
X84050Y18264D01*
Y18750D01*
X77077Y5462D02*
Y6487D01*
X87804Y20654D02*
X88265Y20193D01*
X86655Y20654D02*
X87804D01*
X75253Y18650D02*
X75503Y18400D01*
X75576D01*
X75450Y18950D02*
X76650Y17750D01*
X75576Y18400D02*
X76526Y17450D01*
X83724D02*
X84274Y18000D01*
X84650D01*
X76526Y17450D02*
X83724D01*
X76650Y17750D02*
X83536D01*
X83541Y19174D02*
X83578Y19212D01*
D165*
X72276Y22775D02*
X72351Y22700D01*
X77174D01*
X80550Y22466D02*
Y22850D01*
X80159Y22075D02*
X80550Y22466D01*
X77273Y22700D02*
X78350D01*
X79016D01*
X79641Y22075D01*
X80159D01*
D166*
X20950Y25750D02*
X22273Y27073D01*
X22250Y24871D02*
Y27050D01*
Y24871D02*
X23731Y23390D01*
X18800Y23000D02*
X19450Y23650D01*
X17750Y23000D02*
X18800D01*
X19450Y23650D02*
Y25400D01*
X19800Y25750D01*
X20950D01*
X20810Y20469D02*
X23731Y23390D01*
X20810Y20292D02*
Y20469D01*
X20773Y20255D02*
X20810Y20292D01*
D168*
X2622Y25858D02*
D03*
X5162D02*
D03*
D169*
X7702D02*
D03*
D170*
X30120Y4350D02*
D03*
X42670Y4400D02*
D03*
D171*
X27580Y4350D02*
D03*
X40130Y4400D02*
D03*
D172*
X7134Y3400D02*
D03*
Y12040D02*
D03*
D173*
X1774Y12340D02*
D03*
Y3100D02*
D03*
D174*
X2309Y12340D02*
D03*
Y3100D02*
D03*
D175*
X42500Y13800D02*
D03*
X32200Y13028D02*
D03*
X69800Y28050D02*
D03*
X69550Y27400D02*
D03*
X69378Y26800D02*
D03*
X70124Y26729D02*
D03*
X4150Y15900D02*
D03*
X3550Y17000D02*
D03*
X2593Y16177D02*
D03*
X3193D02*
D03*
X70150Y29050D02*
D03*
X72477Y28728D02*
D03*
X28050Y30450D02*
D03*
X26398Y31712D02*
D03*
X36900Y32050D02*
D03*
X4324Y23964D02*
D03*
X23538Y20233D02*
D03*
X51479Y26821D02*
D03*
X53700Y24950D02*
D03*
X59250D02*
D03*
X61800Y27250D02*
D03*
X57300Y24550D02*
D03*
X57925Y24275D02*
D03*
X49100Y27500D02*
D03*
X18113Y27895D02*
D03*
X36100Y31000D02*
D03*
X40055Y29533D02*
D03*
X29150Y29550D02*
D03*
X41275Y29175D02*
D03*
X52150Y28550D02*
D03*
X51600Y27750D02*
D03*
X74700Y23550D02*
D03*
X65050Y11550D02*
D03*
X64382Y11540D02*
D03*
X87016Y21670D02*
D03*
X84950Y21000D02*
D03*
X85986Y13314D02*
D03*
X18000Y11500D02*
D03*
X57872Y5690D02*
D03*
X98450Y2100D02*
D03*
X94700Y9600D02*
D03*
X95950Y7100D02*
D03*
Y2100D02*
D03*
X93450Y12100D02*
D03*
X92200Y9600D02*
D03*
X93450Y7100D02*
D03*
X92200Y4600D02*
D03*
X89700Y14600D02*
D03*
X90950Y12100D02*
D03*
X89700Y9600D02*
D03*
X90950Y7100D02*
D03*
X89700Y4600D02*
D03*
X90950Y2100D02*
D03*
X88450Y12100D02*
D03*
Y7100D02*
D03*
Y2100D02*
D03*
X85950Y7100D02*
D03*
Y2100D02*
D03*
X74700Y29600D02*
D03*
X73450Y32100D02*
D03*
Y7100D02*
D03*
X69700Y9600D02*
D03*
X70950Y7100D02*
D03*
X69700Y4600D02*
D03*
X70950Y2100D02*
D03*
X68450Y32100D02*
D03*
X67200Y24600D02*
D03*
Y19600D02*
D03*
Y9600D02*
D03*
X68450Y2100D02*
D03*
X65950Y32100D02*
D03*
X64700Y19600D02*
D03*
Y4600D02*
D03*
X65950Y2100D02*
D03*
X62200Y29600D02*
D03*
Y19600D02*
D03*
Y9600D02*
D03*
X63450Y2100D02*
D03*
X60950D02*
D03*
X57200Y9600D02*
D03*
X58450Y7100D02*
D03*
X57200Y4600D02*
D03*
X58450Y2100D02*
D03*
X54700Y9600D02*
D03*
X55950Y2100D02*
D03*
X52200Y9600D02*
D03*
X53450Y7100D02*
D03*
X52200Y4600D02*
D03*
X53450Y2100D02*
D03*
X50950Y32100D02*
D03*
X49700Y14600D02*
D03*
Y9600D02*
D03*
X50950Y7100D02*
D03*
X49700Y4600D02*
D03*
X50950Y2100D02*
D03*
X47200Y29600D02*
D03*
X48450Y7100D02*
D03*
Y2100D02*
D03*
X45950Y22100D02*
D03*
Y12100D02*
D03*
Y7100D02*
D03*
X44700Y4600D02*
D03*
X45950Y2100D02*
D03*
X42200Y24600D02*
D03*
X43450Y17100D02*
D03*
X40950D02*
D03*
X37200Y4600D02*
D03*
X38450Y2100D02*
D03*
X35950Y17100D02*
D03*
X32200Y19600D02*
D03*
Y4600D02*
D03*
X30950Y27100D02*
D03*
X28450Y17100D02*
D03*
X25950D02*
D03*
Y2100D02*
D03*
X22200Y4600D02*
D03*
X23450Y2100D02*
D03*
X19700Y4600D02*
D03*
X20950Y2100D02*
D03*
X18450Y17100D02*
D03*
X17200Y14600D02*
D03*
X18450Y2100D02*
D03*
X15950Y17100D02*
D03*
X14700Y9600D02*
D03*
X15950Y7100D02*
D03*
X14700Y4600D02*
D03*
X15950Y2100D02*
D03*
X13450D02*
D03*
X8450Y32100D02*
D03*
X7200Y9600D02*
D03*
Y4600D02*
D03*
X4700D02*
D03*
X3450Y32100D02*
D03*
X2200Y14600D02*
D03*
Y9600D02*
D03*
X3450Y7100D02*
D03*
X2200Y4600D02*
D03*
X950Y7100D02*
D03*
X26050Y23400D02*
D03*
X35450Y4250D02*
D03*
X33750Y4250D02*
D03*
X35452Y7345D02*
D03*
X33750Y7350D02*
D03*
X59581Y5255D02*
D03*
X41573Y25568D02*
D03*
X87381Y25783D02*
D03*
X88882Y26677D02*
D03*
X87028Y27768D02*
D03*
X99110Y16466D02*
D03*
X82624Y32926D02*
D03*
X89276Y26224D02*
D03*
X88164Y26880D02*
D03*
X81776Y33774D02*
D03*
X81382Y34227D02*
D03*
X92222Y23226D02*
D03*
X83932Y31677D02*
D03*
X84000Y22550D02*
D03*
X83606Y24404D02*
D03*
X97731Y17681D02*
D03*
X82200Y33350D02*
D03*
X84326Y31224D02*
D03*
X84860Y23412D02*
D03*
X96489Y18982D02*
D03*
X92646Y22802D02*
D03*
X90124Y25376D02*
D03*
X98580Y16832D02*
D03*
X95196Y20241D02*
D03*
X97307Y18105D02*
D03*
X83049Y32501D02*
D03*
X83224Y23974D02*
D03*
X98156Y17257D02*
D03*
X84879Y25677D02*
D03*
X85727Y26525D02*
D03*
X99534Y16042D02*
D03*
X82591Y21736D02*
D03*
X84424Y22974D02*
D03*
X82800Y23550D02*
D03*
X93953Y21542D02*
D03*
X85174Y30376D02*
D03*
X86151Y26950D02*
D03*
X96883Y18529D02*
D03*
X85599Y29951D02*
D03*
X94347Y21090D02*
D03*
X96044Y19393D02*
D03*
X95620Y19817D02*
D03*
X91403Y24103D02*
D03*
X94771Y20666D02*
D03*
X90549Y24951D02*
D03*
X83473Y32077D02*
D03*
X93494Y21953D02*
D03*
X93070Y22377D02*
D03*
X86576Y27374D02*
D03*
X86023Y29527D02*
D03*
X85284Y23836D02*
D03*
X84750Y30800D02*
D03*
X91797Y23650D02*
D03*
X90973Y24527D02*
D03*
X86507Y24959D02*
D03*
X85303Y26101D02*
D03*
X89700Y25800D02*
D03*
X99437Y10402D02*
D03*
Y13172D02*
D03*
X99379Y11829D02*
D03*
X98200Y16050D02*
D03*
Y14650D02*
D03*
Y13250D02*
D03*
Y11850D02*
D03*
Y10450D02*
D03*
Y9050D02*
D03*
X96800Y17450D02*
D03*
Y16050D02*
D03*
Y14650D02*
D03*
Y13250D02*
D03*
Y11850D02*
D03*
Y10450D02*
D03*
X95400Y18850D02*
D03*
Y17450D02*
D03*
Y16050D02*
D03*
Y14650D02*
D03*
Y13250D02*
D03*
Y11850D02*
D03*
X94000Y20250D02*
D03*
Y18850D02*
D03*
Y17450D02*
D03*
Y16050D02*
D03*
Y14650D02*
D03*
Y13250D02*
D03*
X92600Y21650D02*
D03*
Y20250D02*
D03*
Y18850D02*
D03*
Y17450D02*
D03*
Y16050D02*
D03*
Y14650D02*
D03*
X91200Y23050D02*
D03*
Y21650D02*
D03*
Y20250D02*
D03*
Y18850D02*
D03*
Y17450D02*
D03*
Y16050D02*
D03*
X89800Y24450D02*
D03*
Y23050D02*
D03*
Y21650D02*
D03*
Y20250D02*
D03*
Y18850D02*
D03*
Y17450D02*
D03*
X88400Y24450D02*
D03*
Y23050D02*
D03*
Y21650D02*
D03*
X87000Y24450D02*
D03*
Y23050D02*
D03*
X85600Y28650D02*
D03*
Y27250D02*
D03*
Y23050D02*
D03*
Y21650D02*
D03*
X84200Y30050D02*
D03*
X82800Y31450D02*
D03*
Y30050D02*
D03*
X81400Y32850D02*
D03*
Y31450D02*
D03*
Y30050D02*
D03*
X80000Y34250D02*
D03*
Y32850D02*
D03*
Y31450D02*
D03*
Y30050D02*
D03*
Y28650D02*
D03*
X78600Y34250D02*
D03*
Y32850D02*
D03*
Y31450D02*
D03*
Y30050D02*
D03*
X77200Y34250D02*
D03*
Y32850D02*
D03*
Y31450D02*
D03*
Y30050D02*
D03*
X75800Y34250D02*
D03*
Y32850D02*
D03*
Y31450D02*
D03*
X74400Y34250D02*
D03*
Y32850D02*
D03*
X73000Y34250D02*
D03*
X84193Y507D02*
D03*
X44143Y34507D02*
D03*
X27200Y9850D02*
D03*
X26850Y13850D02*
D03*
X26900Y12950D02*
D03*
X27800Y13450D02*
D03*
X20602Y11200D02*
D03*
Y10641D02*
D03*
X76344Y20654D02*
D03*
X37653Y23947D02*
D03*
X34990Y23920D02*
D03*
X34907Y19347D02*
D03*
X6255Y22292D02*
D03*
X6250Y22950D02*
D03*
Y21650D02*
D03*
X850Y19900D02*
D03*
X2528Y18850D02*
D03*
X4050Y14350D02*
D03*
Y15350D02*
D03*
X62000Y13450D02*
D03*
X63424Y16920D02*
D03*
X68250Y8100D02*
D03*
X67600Y8750D02*
D03*
X71115Y26458D02*
D03*
X71300Y25750D02*
D03*
X71250Y24850D02*
D03*
X68300Y30650D02*
D03*
X42450Y28100D02*
D03*
X43000Y26700D02*
D03*
X42200Y31400D02*
D03*
X43950Y26650D02*
D03*
X41482Y31360D02*
D03*
X41500Y33250D02*
D03*
X40450Y31328D02*
D03*
X40454Y33620D02*
D03*
X22943Y29239D02*
D03*
X22959Y29887D02*
D03*
X23750Y29900D02*
D03*
X24502Y29885D02*
D03*
X23900Y34450D02*
D03*
X23000Y28500D02*
D03*
X14050Y28300D02*
D03*
X15550Y26650D02*
D03*
X18200Y27150D02*
D03*
X14450Y14100D02*
D03*
X15100Y13800D02*
D03*
X14650Y13050D02*
D03*
X5200Y8550D02*
D03*
X11700Y12800D02*
D03*
X12300Y14100D02*
D03*
X72276Y22775D02*
D03*
X32973Y14877D02*
D03*
X38050Y26150D02*
D03*
X39150Y25700D02*
D03*
X38665Y27147D02*
D03*
X39900Y26700D02*
D03*
X43875Y31300D02*
D03*
X41350Y27862D02*
D03*
X37600Y25600D02*
D03*
X52550Y33600D02*
D03*
X64550Y29600D02*
D03*
X24750Y11250D02*
D03*
X41000Y6650D02*
D03*
X29900Y6750D02*
D03*
X35459Y12012D02*
D03*
X36459Y12037D02*
D03*
X38250Y11800D02*
D03*
X33700Y11850D02*
D03*
X30800Y7400D02*
D03*
X29900Y7450D02*
D03*
X44300Y15100D02*
D03*
X41000Y7250D02*
D03*
X41900Y7300D02*
D03*
X30500Y11500D02*
D03*
X41601Y11473D02*
D03*
X76500Y23450D02*
D03*
X88150Y25800D02*
D03*
X29200Y5800D02*
D03*
X41450Y5950D02*
D03*
X46050Y3700D02*
D03*
X60000Y6950D02*
D03*
X45225Y31300D02*
D03*
X62600Y32700D02*
D03*
X70600Y13450D02*
D03*
X52500Y17500D02*
D03*
Y19500D02*
D03*
X54500D02*
D03*
X83000Y9950D02*
D03*
X8750Y7145D02*
D03*
X5250Y7800D02*
D03*
X8800Y8206D02*
D03*
X5050Y15500D02*
D03*
X6550Y15550D02*
D03*
X67350Y21400D02*
D03*
X64100D02*
D03*
X41350Y24050D02*
D03*
X82784Y12186D02*
D03*
X81850Y13350D02*
D03*
X79400Y12100D02*
D03*
X80400Y12450D02*
D03*
X53550Y34500D02*
D03*
X51050D02*
D03*
X35991Y14813D02*
D03*
X33700Y14050D02*
D03*
X47750Y24600D02*
D03*
X45400D02*
D03*
X54490Y32900D02*
D03*
X46800Y23550D02*
D03*
X49050Y23600D02*
D03*
X47500Y27450D02*
D03*
X38300Y14050D02*
D03*
X17900Y10200D02*
D03*
X50900Y13450D02*
D03*
X51418Y14022D02*
D03*
X53150Y13400D02*
D03*
X53100Y14000D02*
D03*
X60200Y34529D02*
D03*
X99429Y9179D02*
D03*
Y14629D02*
D03*
X521Y32832D02*
D03*
X65650Y34529D02*
D03*
X521Y11032D02*
D03*
X7861Y471D02*
D03*
X51461D02*
D03*
X80838Y34512D02*
D03*
X22050Y34529D02*
D03*
X5700D02*
D03*
X27500D02*
D03*
X71100D02*
D03*
X67811Y471D02*
D03*
X521Y5582D02*
D03*
X89611Y471D02*
D03*
X95061D02*
D03*
X521Y27382D02*
D03*
X18761Y471D02*
D03*
X54750Y34529D02*
D03*
X79100Y500D02*
D03*
X11150Y34529D02*
D03*
X49300D02*
D03*
X56911Y471D02*
D03*
X521Y16482D02*
D03*
X99429Y3729D02*
D03*
X2411Y471D02*
D03*
X13311D02*
D03*
X38400Y34529D02*
D03*
X62361Y471D02*
D03*
X40911D02*
D03*
X24211D02*
D03*
X521Y21932D02*
D03*
X46011Y471D02*
D03*
X73261D02*
D03*
X35111D02*
D03*
X32950Y34529D02*
D03*
X28854Y539D02*
D03*
X61900Y16900D02*
D03*
X64550Y13400D02*
D03*
X46950Y20900D02*
D03*
Y19950D02*
D03*
X61850Y4600D02*
D03*
X55800Y4800D02*
D03*
X58412Y8012D02*
D03*
X58096Y9061D02*
D03*
X60196Y9073D02*
D03*
X60150Y8000D02*
D03*
X37645Y21285D02*
D03*
X35039Y21250D02*
D03*
X36345Y22635D02*
D03*
X41122Y20699D02*
D03*
X39491Y21385D02*
D03*
X39690Y19127D02*
D03*
X45180Y30398D02*
D03*
X43850Y30400D02*
D03*
X51600Y29450D02*
D03*
X38135Y26866D02*
D03*
X35583Y27824D02*
D03*
X34551Y27844D02*
D03*
X33547Y27873D02*
D03*
X32450Y25450D02*
D03*
X39500Y24852D02*
D03*
X37595Y19349D02*
D03*
X68378Y18928D02*
D03*
X68376Y16649D02*
D03*
X67400Y18600D02*
D03*
X45635Y16095D02*
D03*
X54150Y14550D02*
D03*
X47523Y16127D02*
D03*
X60496Y3908D02*
D03*
Y5258D02*
D03*
X70100Y21500D02*
D03*
X54550Y26950D02*
D03*
X55850D02*
D03*
Y32900D02*
D03*
X57150D02*
D03*
X59650Y32950D02*
D03*
X74650Y9750D02*
D03*
X71507Y31599D02*
D03*
X75050Y27550D02*
D03*
X50250Y32950D02*
D03*
X80898Y2387D02*
D03*
X79650Y2400D02*
D03*
X82150D02*
D03*
X16950Y29250D02*
D03*
X15200Y25800D02*
D03*
X12398Y22862D02*
D03*
X12998Y23412D02*
D03*
X12398Y23962D02*
D03*
X15600Y11500D02*
D03*
X17750Y23000D02*
D03*
X19375Y28886D02*
D03*
X76200Y11811D02*
D03*
X48250Y21900D02*
D03*
X69986Y15650D02*
D03*
X71628Y17947D02*
D03*
X73850Y17850D02*
D03*
X72450Y11400D02*
D03*
X69000Y13150D02*
D03*
X71450Y13500D02*
D03*
X63150Y29250D02*
D03*
X54050Y16850D02*
D03*
X35703Y10148D02*
D03*
X34616Y10248D02*
D03*
X33490D02*
D03*
X83150Y15650D02*
D03*
X84050Y18750D02*
D03*
X85100Y15000D02*
D03*
X85850D02*
D03*
X77100Y3100D02*
D03*
X86833Y20196D02*
D03*
X52150Y21900D02*
D03*
X78950Y12650D02*
D03*
X36850Y26100D02*
D03*
X20811Y28836D02*
D03*
X8801Y4115D02*
D03*
X7100Y10800D02*
D03*
X11933Y18830D02*
D03*
X11138Y21172D02*
D03*
X20073Y28487D02*
D03*
X13933Y32988D02*
D03*
X16689Y34500D02*
D03*
X27523Y31437D02*
D03*
X21411Y27132D02*
D03*
X17823Y24427D02*
D03*
X18125Y25987D02*
D03*
X18973Y26187D02*
D03*
X24573Y26387D02*
D03*
X14373Y20137D02*
D03*
X20106Y20270D02*
D03*
X20773Y20255D02*
D03*
X15483Y20937D02*
D03*
X24523Y19187D02*
D03*
X26223Y20187D02*
D03*
X22273D02*
D03*
X23673Y21287D02*
D03*
X27223Y22487D02*
D03*
X23731Y23390D02*
D03*
X20423Y19237D02*
D03*
X15023Y22687D02*
D03*
X24273Y15387D02*
D03*
X20423Y18487D02*
D03*
X21550Y10650D02*
D03*
X80550Y22850D02*
D03*
X74315Y15720D02*
D03*
X86925Y25404D02*
D03*
X87178Y28381D02*
D03*
X72900Y30800D02*
D03*
X10150Y4150D02*
D03*
X14800Y8000D02*
D03*
X11850Y8800D02*
D03*
X10900Y7850D02*
D03*
X77600Y28150D02*
D03*
X76250Y28200D02*
D03*
X77700Y24950D02*
D03*
X76850Y25100D02*
D03*
X71400Y22800D02*
D03*
X79900Y22700D02*
D03*
X80950Y20750D02*
D03*
X76200Y16000D02*
D03*
X78613Y18415D02*
D03*
X74350Y14150D02*
D03*
X4950Y17350D02*
D03*
X86550Y23900D02*
D03*
X83111Y19690D02*
D03*
X82849Y21167D02*
D03*
X80900Y16000D02*
D03*
X78900Y25250D02*
D03*
X84650Y18000D02*
D03*
X78345Y14230D02*
D03*
X78000Y10202D02*
D03*
X77018D02*
D03*
X84295Y21524D02*
D03*
X7591Y2453D02*
D03*
X9763Y10808D02*
D03*
X80300Y24550D02*
D03*
X77273Y22799D02*
D03*
X78350Y22700D02*
D03*
X81000Y24550D02*
D03*
X82300Y14450D02*
D03*
X31150Y31250D02*
D03*
X84850Y22000D02*
D03*
X73380Y21110D02*
D03*
X73300Y21798D02*
D03*
X74900Y11800D02*
D03*
X72400Y15798D02*
D03*
X36018Y16072D02*
D03*
X73900Y11800D02*
D03*
X79856Y14256D02*
D03*
X84586Y11614D02*
D03*
X86400Y17000D02*
D03*
X83578Y19212D02*
D03*
X81727Y24826D02*
D03*
X10900Y8800D02*
D03*
X72200Y17100D02*
D03*
X83943Y10390D02*
D03*
X86383Y19712D02*
D03*
X86480Y28983D02*
D03*
X81200Y11900D02*
D03*
X7900Y21650D02*
D03*
X14800Y6300D02*
D03*
X84328Y14986D02*
D03*
X83992Y28620D02*
D03*
X81870Y26498D02*
D03*
X24003Y3683D02*
D03*
X88900Y10795D02*
D03*
X88265Y20193D02*
D03*
X53975Y3750D02*
D03*
X66025D02*
D03*
X73975D02*
D03*
X93975D02*
D03*
X86025D02*
D03*
D176*
X21400Y22550D02*
D03*
X20300D02*
D03*
X21400Y23650D02*
D03*
X20300D02*
D03*
X21400Y24750D02*
D03*
X20300D02*
D03*
D178*
X60929Y31949D02*
D03*
X59659D02*
D03*
X58389D02*
D03*
Y27885D02*
D03*
X59659D02*
D03*
X60929D02*
D03*
X57119D02*
D03*
X55849D02*
D03*
X54579D02*
D03*
X53309D02*
D03*
Y31949D02*
D03*
X54579D02*
D03*
X55849D02*
D03*
X57119D02*
D03*
X75807Y3123D02*
D03*
X77077D02*
D03*
X78347D02*
D03*
Y7187D02*
D03*
X77077D02*
D03*
X75807D02*
D03*
X79617D02*
D03*
X80887D02*
D03*
X82157D02*
D03*
X83427D02*
D03*
Y3123D02*
D03*
X82157D02*
D03*
X80887D02*
D03*
X79617D02*
D03*
M02*
