G04*
G04 #@! TF.GenerationSoftware,Altium Limited,Altium Designer,24.2.2 (26)*
G04*
G04 Layer_Color=16711935*
%FSLAX43Y43*%
%MOMM*%
G71*
G04*
G04 #@! TF.SameCoordinates,4F7CD7CC-9D04-48A1-B46F-AFD2B6BA45A4*
G04*
G04*
G04 #@! TF.FilePolarity,Negative*
G04*
G01*
G75*
%ADD14C,0.100*%
%ADD29C,1.100*%
%ADD71C,1.200*%
%ADD80C,1.700*%
%ADD81R,1.700X1.700*%
%ADD82C,2.100*%
%ADD83R,1.950X1.950*%
%ADD84C,1.950*%
%ADD85O,2.200X1.200*%
%ADD86O,2.700X1.200*%
%ADD87O,3.700X1.200*%
%ADD88C,0.100*%
%ADD89C,0.350*%
%ADD90C,0.550*%
%ADD91C,0.400*%
%ADD179R,5.583X1.766*%
%ADD180R,0.840X2.890*%
G36*
X44046Y-11633D02*
X44143Y-11647D01*
X44187Y-11655D01*
X44229Y-11666D01*
X44268Y-11675D01*
X44304Y-11686D01*
X44337Y-11697D01*
X44365Y-11708D01*
X44390Y-11719D01*
X44412Y-11727D01*
X44429Y-11736D01*
X44440Y-11741D01*
X44448Y-11744D01*
X44451Y-11747D01*
X44490Y-11772D01*
X44529Y-11797D01*
X44596Y-11855D01*
X44654Y-11913D01*
X44701Y-11975D01*
X44740Y-12027D01*
X44754Y-12050D01*
X44765Y-12072D01*
X44776Y-12088D01*
X44782Y-12099D01*
X44784Y-12108D01*
X44787Y-12111D01*
X44826Y-12202D01*
X44854Y-12294D01*
X44876Y-12383D01*
X44881Y-12424D01*
X44890Y-12463D01*
X44893Y-12499D01*
X44898Y-12530D01*
X44901Y-12560D01*
Y-12585D01*
X44904Y-12605D01*
Y-12619D01*
Y-12630D01*
Y-12633D01*
X44898Y-12735D01*
X44884Y-12832D01*
X44876Y-12877D01*
X44868Y-12918D01*
X44856Y-12960D01*
X44845Y-12996D01*
X44834Y-13030D01*
X44823Y-13057D01*
X44815Y-13085D01*
X44807Y-13104D01*
X44798Y-13124D01*
X44793Y-13135D01*
X44787Y-13143D01*
Y-13146D01*
X44737Y-13227D01*
X44682Y-13296D01*
X44623Y-13357D01*
X44568Y-13407D01*
X44515Y-13446D01*
X44496Y-13460D01*
X44476Y-13474D01*
X44459Y-13482D01*
X44448Y-13490D01*
X44440Y-13493D01*
X44437Y-13496D01*
X44393Y-13518D01*
X44348Y-13535D01*
X44260Y-13565D01*
X44174Y-13585D01*
X44093Y-13601D01*
X44057Y-13604D01*
X44024Y-13610D01*
X43993Y-13613D01*
X43968D01*
X43949Y-13615D01*
X43921D01*
X43843Y-13613D01*
X43768Y-13604D01*
X43699Y-13590D01*
X43638Y-13576D01*
X43613Y-13571D01*
X43588Y-13565D01*
X43566Y-13557D01*
X43546Y-13551D01*
X43532Y-13546D01*
X43521Y-13543D01*
X43516Y-13540D01*
X43513D01*
X43438Y-13510D01*
X43368Y-13474D01*
X43302Y-13435D01*
X43244Y-13399D01*
X43219Y-13382D01*
X43194Y-13365D01*
X43174Y-13352D01*
X43157Y-13340D01*
X43144Y-13329D01*
X43132Y-13321D01*
X43127Y-13318D01*
X43124Y-13315D01*
Y-12602D01*
X43940D01*
Y-12830D01*
X43374D01*
Y-13191D01*
X43407Y-13218D01*
X43446Y-13243D01*
X43488Y-13266D01*
X43527Y-13285D01*
X43560Y-13302D01*
X43591Y-13315D01*
X43602Y-13321D01*
X43607Y-13324D01*
X43613Y-13327D01*
X43616D01*
X43674Y-13346D01*
X43732Y-13363D01*
X43785Y-13374D01*
X43835Y-13379D01*
X43876Y-13385D01*
X43893D01*
X43910Y-13388D01*
X43938D01*
X44007Y-13385D01*
X44074Y-13374D01*
X44135Y-13360D01*
X44190Y-13346D01*
X44235Y-13329D01*
X44254Y-13324D01*
X44268Y-13318D01*
X44282Y-13313D01*
X44290Y-13307D01*
X44296Y-13304D01*
X44298D01*
X44357Y-13268D01*
X44410Y-13229D01*
X44454Y-13188D01*
X44490Y-13146D01*
X44521Y-13107D01*
X44540Y-13077D01*
X44548Y-13066D01*
X44551Y-13057D01*
X44557Y-13052D01*
Y-13049D01*
X44584Y-12980D01*
X44607Y-12907D01*
X44621Y-12835D01*
X44632Y-12766D01*
X44634Y-12735D01*
X44637Y-12707D01*
X44640Y-12680D01*
Y-12658D01*
X44643Y-12641D01*
Y-12627D01*
Y-12619D01*
Y-12616D01*
X44640Y-12538D01*
X44632Y-12469D01*
X44621Y-12402D01*
X44607Y-12344D01*
X44601Y-12319D01*
X44593Y-12297D01*
X44587Y-12277D01*
X44582Y-12261D01*
X44576Y-12247D01*
X44573Y-12238D01*
X44571Y-12233D01*
Y-12230D01*
X44551Y-12191D01*
X44532Y-12155D01*
X44512Y-12122D01*
X44493Y-12094D01*
X44476Y-12072D01*
X44462Y-12052D01*
X44451Y-12041D01*
X44448Y-12038D01*
X44418Y-12008D01*
X44385Y-11980D01*
X44348Y-11958D01*
X44315Y-11936D01*
X44287Y-11922D01*
X44265Y-11908D01*
X44249Y-11902D01*
X44243Y-11900D01*
X44193Y-11880D01*
X44143Y-11866D01*
X44090Y-11858D01*
X44043Y-11850D01*
X44001Y-11847D01*
X43985D01*
X43971Y-11844D01*
X43940D01*
X43888Y-11847D01*
X43838Y-11852D01*
X43793Y-11861D01*
X43754Y-11869D01*
X43721Y-11880D01*
X43696Y-11889D01*
X43682Y-11894D01*
X43677Y-11897D01*
X43635Y-11916D01*
X43599Y-11938D01*
X43566Y-11961D01*
X43541Y-11983D01*
X43521Y-12002D01*
X43504Y-12016D01*
X43496Y-12027D01*
X43493Y-12030D01*
X43468Y-12063D01*
X43449Y-12102D01*
X43430Y-12138D01*
X43413Y-12177D01*
X43402Y-12211D01*
X43393Y-12236D01*
X43391Y-12247D01*
X43388Y-12255D01*
X43385Y-12258D01*
Y-12261D01*
X43155Y-12199D01*
X43174Y-12130D01*
X43199Y-12069D01*
X43224Y-12013D01*
X43246Y-11969D01*
X43269Y-11933D01*
X43285Y-11908D01*
X43296Y-11891D01*
X43302Y-11886D01*
X43341Y-11841D01*
X43382Y-11805D01*
X43427Y-11772D01*
X43468Y-11744D01*
X43507Y-11725D01*
X43538Y-11708D01*
X43549Y-11703D01*
X43557Y-11700D01*
X43563Y-11697D01*
X43566D01*
X43629Y-11675D01*
X43696Y-11658D01*
X43757Y-11644D01*
X43815Y-11636D01*
X43868Y-11630D01*
X43890D01*
X43907Y-11628D01*
X43996D01*
X44046Y-11633D01*
D02*
G37*
G36*
X45548Y-13582D02*
X45278D01*
Y-13313D01*
X45548D01*
Y-13582D01*
D02*
G37*
G36*
X42760D02*
X42028D01*
X41961Y-13579D01*
X41903Y-13576D01*
X41850Y-13571D01*
X41805Y-13565D01*
X41769Y-13560D01*
X41742Y-13557D01*
X41725Y-13551D01*
X41719D01*
X41672Y-13538D01*
X41633Y-13524D01*
X41597Y-13507D01*
X41567Y-13490D01*
X41542Y-13479D01*
X41522Y-13468D01*
X41511Y-13460D01*
X41508Y-13457D01*
X41478Y-13432D01*
X41450Y-13402D01*
X41428Y-13371D01*
X41406Y-13343D01*
X41389Y-13315D01*
X41378Y-13296D01*
X41370Y-13282D01*
X41367Y-13277D01*
X41347Y-13232D01*
X41333Y-13188D01*
X41322Y-13146D01*
X41317Y-13107D01*
X41311Y-13074D01*
X41308Y-13046D01*
Y-13030D01*
Y-13027D01*
Y-13024D01*
X41311Y-12963D01*
X41322Y-12907D01*
X41339Y-12860D01*
X41356Y-12816D01*
X41372Y-12782D01*
X41389Y-12757D01*
X41400Y-12741D01*
X41403Y-12735D01*
X41442Y-12691D01*
X41483Y-12655D01*
X41531Y-12624D01*
X41572Y-12599D01*
X41611Y-12580D01*
X41644Y-12569D01*
X41656Y-12563D01*
X41664Y-12560D01*
X41669Y-12558D01*
X41672D01*
X41625Y-12530D01*
X41583Y-12502D01*
X41550Y-12472D01*
X41522Y-12444D01*
X41500Y-12422D01*
X41483Y-12399D01*
X41475Y-12388D01*
X41472Y-12383D01*
X41450Y-12341D01*
X41433Y-12302D01*
X41420Y-12263D01*
X41411Y-12227D01*
X41406Y-12197D01*
X41403Y-12172D01*
Y-12158D01*
Y-12152D01*
X41406Y-12105D01*
X41414Y-12058D01*
X41428Y-12016D01*
X41442Y-11977D01*
X41456Y-11944D01*
X41470Y-11922D01*
X41478Y-11905D01*
X41481Y-11900D01*
X41511Y-11858D01*
X41544Y-11819D01*
X41581Y-11789D01*
X41614Y-11764D01*
X41642Y-11744D01*
X41667Y-11730D01*
X41683Y-11722D01*
X41686Y-11719D01*
X41689D01*
X41742Y-11700D01*
X41800Y-11686D01*
X41858Y-11675D01*
X41914Y-11669D01*
X41964Y-11664D01*
X41986D01*
X42005Y-11661D01*
X42760D01*
Y-13582D01*
D02*
G37*
G36*
X40370Y-11630D02*
X40434Y-11639D01*
X40495Y-11650D01*
X40548Y-11661D01*
X40589Y-11672D01*
X40609Y-11678D01*
X40623Y-11683D01*
X40634Y-11689D01*
X40642Y-11691D01*
X40648Y-11694D01*
X40651D01*
X40706Y-11722D01*
X40756Y-11752D01*
X40798Y-11786D01*
X40831Y-11816D01*
X40856Y-11844D01*
X40875Y-11866D01*
X40889Y-11883D01*
X40892Y-11886D01*
Y-11889D01*
X40920Y-11936D01*
X40939Y-11983D01*
X40953Y-12030D01*
X40961Y-12072D01*
X40967Y-12108D01*
X40973Y-12136D01*
Y-12147D01*
Y-12155D01*
Y-12158D01*
Y-12161D01*
X40970Y-12208D01*
X40961Y-12252D01*
X40950Y-12294D01*
X40939Y-12330D01*
X40928Y-12358D01*
X40917Y-12380D01*
X40909Y-12394D01*
X40906Y-12399D01*
X40878Y-12438D01*
X40845Y-12474D01*
X40812Y-12505D01*
X40778Y-12530D01*
X40750Y-12552D01*
X40725Y-12566D01*
X40709Y-12577D01*
X40706Y-12580D01*
X40703D01*
X40681Y-12591D01*
X40656Y-12602D01*
X40601Y-12621D01*
X40537Y-12641D01*
X40476Y-12660D01*
X40420Y-12677D01*
X40395Y-12682D01*
X40373Y-12688D01*
X40356Y-12694D01*
X40342Y-12696D01*
X40334Y-12699D01*
X40331D01*
X40284Y-12710D01*
X40240Y-12721D01*
X40201Y-12732D01*
X40167Y-12741D01*
X40134Y-12749D01*
X40106Y-12757D01*
X40081Y-12763D01*
X40062Y-12771D01*
X40043Y-12777D01*
X40029Y-12780D01*
X40006Y-12788D01*
X39993Y-12791D01*
X39990Y-12794D01*
X39948Y-12810D01*
X39912Y-12830D01*
X39882Y-12849D01*
X39859Y-12866D01*
X39840Y-12882D01*
X39829Y-12894D01*
X39820Y-12902D01*
X39818Y-12905D01*
X39798Y-12930D01*
X39784Y-12957D01*
X39776Y-12985D01*
X39768Y-13007D01*
X39765Y-13030D01*
X39762Y-13046D01*
Y-13060D01*
Y-13063D01*
X39765Y-13096D01*
X39770Y-13127D01*
X39779Y-13154D01*
X39790Y-13177D01*
X39801Y-13199D01*
X39809Y-13213D01*
X39815Y-13224D01*
X39818Y-13227D01*
X39840Y-13254D01*
X39868Y-13277D01*
X39895Y-13296D01*
X39920Y-13315D01*
X39945Y-13327D01*
X39965Y-13338D01*
X39979Y-13343D01*
X39984Y-13346D01*
X40026Y-13360D01*
X40070Y-13371D01*
X40115Y-13377D01*
X40154Y-13382D01*
X40187Y-13385D01*
X40215Y-13388D01*
X40240D01*
X40301Y-13385D01*
X40356Y-13379D01*
X40406Y-13371D01*
X40451Y-13360D01*
X40487Y-13349D01*
X40514Y-13340D01*
X40523Y-13338D01*
X40531Y-13335D01*
X40534Y-13332D01*
X40537D01*
X40581Y-13310D01*
X40623Y-13285D01*
X40653Y-13260D01*
X40681Y-13235D01*
X40703Y-13216D01*
X40717Y-13196D01*
X40725Y-13185D01*
X40728Y-13182D01*
X40748Y-13146D01*
X40767Y-13107D01*
X40778Y-13066D01*
X40789Y-13030D01*
X40798Y-12993D01*
X40803Y-12968D01*
Y-12957D01*
X40806Y-12949D01*
Y-12946D01*
Y-12943D01*
X41045Y-12966D01*
X41039Y-13035D01*
X41028Y-13102D01*
X41011Y-13160D01*
X40992Y-13213D01*
X40973Y-13254D01*
X40964Y-13271D01*
X40959Y-13285D01*
X40950Y-13296D01*
X40948Y-13304D01*
X40942Y-13310D01*
Y-13313D01*
X40900Y-13365D01*
X40856Y-13413D01*
X40809Y-13452D01*
X40764Y-13485D01*
X40725Y-13510D01*
X40692Y-13526D01*
X40681Y-13532D01*
X40673Y-13538D01*
X40667Y-13540D01*
X40664D01*
X40595Y-13565D01*
X40523Y-13585D01*
X40451Y-13596D01*
X40381Y-13607D01*
X40348Y-13610D01*
X40320Y-13613D01*
X40295D01*
X40273Y-13615D01*
X40229D01*
X40154Y-13613D01*
X40084Y-13604D01*
X40020Y-13590D01*
X39968Y-13576D01*
X39923Y-13565D01*
X39904Y-13557D01*
X39887Y-13551D01*
X39876Y-13546D01*
X39868Y-13543D01*
X39862Y-13540D01*
X39859D01*
X39801Y-13510D01*
X39751Y-13476D01*
X39707Y-13440D01*
X39671Y-13407D01*
X39643Y-13379D01*
X39623Y-13354D01*
X39609Y-13338D01*
X39607Y-13335D01*
Y-13332D01*
X39576Y-13279D01*
X39554Y-13229D01*
X39540Y-13182D01*
X39529Y-13138D01*
X39523Y-13099D01*
X39518Y-13068D01*
Y-13057D01*
Y-13049D01*
Y-13046D01*
Y-13043D01*
X39521Y-12988D01*
X39529Y-12935D01*
X39543Y-12888D01*
X39557Y-12849D01*
X39573Y-12816D01*
X39584Y-12791D01*
X39596Y-12777D01*
X39598Y-12771D01*
X39632Y-12730D01*
X39671Y-12691D01*
X39712Y-12658D01*
X39754Y-12627D01*
X39790Y-12605D01*
X39820Y-12588D01*
X39832Y-12583D01*
X39840Y-12577D01*
X39845Y-12574D01*
X39848D01*
X39870Y-12563D01*
X39898Y-12555D01*
X39929Y-12544D01*
X39962Y-12533D01*
X40031Y-12513D01*
X40104Y-12494D01*
X40137Y-12485D01*
X40167Y-12477D01*
X40198Y-12469D01*
X40223Y-12463D01*
X40242Y-12458D01*
X40259Y-12455D01*
X40270Y-12452D01*
X40273D01*
X40328Y-12438D01*
X40378Y-12427D01*
X40423Y-12413D01*
X40462Y-12402D01*
X40498Y-12388D01*
X40528Y-12377D01*
X40556Y-12366D01*
X40581Y-12358D01*
X40601Y-12347D01*
X40617Y-12338D01*
X40628Y-12333D01*
X40639Y-12324D01*
X40653Y-12316D01*
X40656Y-12313D01*
X40681Y-12286D01*
X40698Y-12258D01*
X40712Y-12230D01*
X40720Y-12202D01*
X40725Y-12180D01*
X40728Y-12161D01*
Y-12149D01*
Y-12144D01*
X40723Y-12099D01*
X40712Y-12061D01*
X40695Y-12027D01*
X40676Y-11997D01*
X40659Y-11975D01*
X40642Y-11955D01*
X40631Y-11944D01*
X40626Y-11941D01*
X40603Y-11927D01*
X40581Y-11913D01*
X40528Y-11891D01*
X40473Y-11877D01*
X40417Y-11866D01*
X40367Y-11861D01*
X40345Y-11858D01*
X40328Y-11855D01*
X40290D01*
X40212Y-11858D01*
X40142Y-11869D01*
X40087Y-11886D01*
X40040Y-11902D01*
X40004Y-11919D01*
X39976Y-11936D01*
X39962Y-11947D01*
X39956Y-11950D01*
X39918Y-11988D01*
X39887Y-12030D01*
X39862Y-12075D01*
X39845Y-12119D01*
X39834Y-12161D01*
X39826Y-12191D01*
X39823Y-12205D01*
X39820Y-12213D01*
Y-12219D01*
Y-12222D01*
X39576Y-12202D01*
X39582Y-12141D01*
X39596Y-12086D01*
X39609Y-12033D01*
X39629Y-11988D01*
X39646Y-11952D01*
X39659Y-11925D01*
X39665Y-11916D01*
X39671Y-11908D01*
X39673Y-11905D01*
Y-11902D01*
X39709Y-11855D01*
X39748Y-11814D01*
X39790Y-11777D01*
X39832Y-11750D01*
X39868Y-11725D01*
X39895Y-11711D01*
X39907Y-11705D01*
X39915Y-11700D01*
X39920Y-11697D01*
X39923D01*
X39984Y-11675D01*
X40051Y-11658D01*
X40112Y-11644D01*
X40170Y-11636D01*
X40223Y-11630D01*
X40242D01*
X40262Y-11628D01*
X40298D01*
X40370Y-11630D01*
D02*
G37*
G36*
X80030Y-12161D02*
X80077Y-12169D01*
X80118Y-12177D01*
X80154Y-12188D01*
X80185Y-12202D01*
X80207Y-12211D01*
X80221Y-12219D01*
X80227Y-12222D01*
X80265Y-12247D01*
X80299Y-12274D01*
X80329Y-12302D01*
X80354Y-12330D01*
X80374Y-12352D01*
X80390Y-12372D01*
X80399Y-12383D01*
X80402Y-12388D01*
Y-12188D01*
X80613D01*
Y-13582D01*
X80377D01*
Y-12860D01*
X80374Y-12794D01*
X80371Y-12735D01*
X80365Y-12685D01*
X80357Y-12644D01*
X80349Y-12613D01*
X80343Y-12591D01*
X80340Y-12577D01*
X80338Y-12571D01*
X80321Y-12535D01*
X80302Y-12505D01*
X80282Y-12477D01*
X80263Y-12455D01*
X80243Y-12438D01*
X80229Y-12427D01*
X80218Y-12419D01*
X80216Y-12416D01*
X80182Y-12399D01*
X80152Y-12385D01*
X80118Y-12377D01*
X80091Y-12369D01*
X80068Y-12366D01*
X80049Y-12363D01*
X80032D01*
X79985Y-12366D01*
X79946Y-12374D01*
X79913Y-12388D01*
X79888Y-12402D01*
X79868Y-12419D01*
X79855Y-12430D01*
X79846Y-12441D01*
X79843Y-12444D01*
X79824Y-12477D01*
X79810Y-12513D01*
X79799Y-12552D01*
X79794Y-12591D01*
X79788Y-12624D01*
X79785Y-12655D01*
Y-12666D01*
Y-12671D01*
Y-12677D01*
Y-12680D01*
Y-13582D01*
X79549Y-13582D01*
Y-12774D01*
X79544Y-12699D01*
X79533Y-12635D01*
X79519Y-12583D01*
X79499Y-12538D01*
X79483Y-12505D01*
X79466Y-12483D01*
X79455Y-12469D01*
X79452Y-12463D01*
X79413Y-12430D01*
X79372Y-12405D01*
X79330Y-12388D01*
X79291Y-12374D01*
X79258Y-12369D01*
X79230Y-12366D01*
X79219Y-12363D01*
X79205D01*
X79174Y-12366D01*
X79149Y-12369D01*
X79124Y-12374D01*
X79105Y-12383D01*
X79086Y-12391D01*
X79074Y-12397D01*
X79066Y-12399D01*
X79063Y-12402D01*
X79041Y-12419D01*
X79025Y-12435D01*
X79011Y-12452D01*
X79000Y-12469D01*
X78991Y-12483D01*
X78986Y-12494D01*
X78980Y-12502D01*
Y-12505D01*
X78972Y-12530D01*
X78966Y-12563D01*
X78963Y-12596D01*
X78961Y-12630D01*
X78958Y-12660D01*
Y-12685D01*
Y-12702D01*
Y-12705D01*
Y-12707D01*
Y-13582D01*
X78722D01*
Y-12627D01*
Y-12583D01*
X78727Y-12544D01*
X78733Y-12505D01*
X78739Y-12472D01*
X78747Y-12438D01*
X78758Y-12410D01*
X78766Y-12385D01*
X78777Y-12360D01*
X78789Y-12341D01*
X78797Y-12322D01*
X78816Y-12297D01*
X78827Y-12280D01*
X78833Y-12274D01*
X78877Y-12236D01*
X78930Y-12208D01*
X78983Y-12186D01*
X79033Y-12172D01*
X79080Y-12163D01*
X79099Y-12161D01*
X79119D01*
X79133Y-12158D01*
X79152D01*
X79202Y-12161D01*
X79247Y-12169D01*
X79291Y-12180D01*
X79333Y-12197D01*
X79372Y-12216D01*
X79408Y-12236D01*
X79438Y-12258D01*
X79469Y-12280D01*
X79496Y-12305D01*
X79519Y-12327D01*
X79538Y-12347D01*
X79555Y-12366D01*
X79569Y-12383D01*
X79577Y-12394D01*
X79583Y-12402D01*
X79585Y-12405D01*
X79602Y-12363D01*
X79624Y-12327D01*
X79649Y-12297D01*
X79671Y-12272D01*
X79694Y-12249D01*
X79710Y-12236D01*
X79721Y-12227D01*
X79727Y-12224D01*
X79766Y-12202D01*
X79807Y-12186D01*
X79849Y-12174D01*
X79891Y-12166D01*
X79924Y-12161D01*
X79955Y-12158D01*
X79980D01*
X80030Y-12161D01*
D02*
G37*
G36*
X83558Y-11844D02*
Y-12188D01*
X83733D01*
Y-12372D01*
X83558D01*
Y-13177D01*
Y-13216D01*
Y-13249D01*
X83555Y-13279D01*
X83553Y-13310D01*
Y-13335D01*
X83550Y-13357D01*
X83544Y-13393D01*
X83539Y-13421D01*
X83536Y-13440D01*
X83530Y-13452D01*
Y-13454D01*
X83519Y-13479D01*
X83503Y-13499D01*
X83486Y-13518D01*
X83472Y-13532D01*
X83455Y-13546D01*
X83444Y-13554D01*
X83436Y-13560D01*
X83433Y-13563D01*
X83403Y-13576D01*
X83372Y-13585D01*
X83339Y-13593D01*
X83305Y-13596D01*
X83278Y-13599D01*
X83255Y-13601D01*
X83233D01*
X83172Y-13599D01*
X83142Y-13596D01*
X83114Y-13590D01*
X83089Y-13588D01*
X83069Y-13585D01*
X83058Y-13582D01*
X83053D01*
X83083Y-13374D01*
X83106Y-13377D01*
X83128Y-13379D01*
X83147D01*
X83161Y-13382D01*
X83189D01*
X83225Y-13379D01*
X83250Y-13374D01*
X83264Y-13368D01*
X83269Y-13365D01*
X83289Y-13352D01*
X83300Y-13338D01*
X83308Y-13327D01*
X83311Y-13321D01*
X83314Y-13307D01*
X83317Y-13288D01*
X83319Y-13243D01*
X83322Y-13224D01*
Y-13207D01*
Y-13196D01*
Y-13191D01*
Y-12372D01*
X83083D01*
Y-12188D01*
X83322D01*
Y-11703D01*
X83558Y-11844D01*
D02*
G37*
G36*
X82811D02*
Y-12188D01*
X82986D01*
Y-12372D01*
X82811D01*
Y-13177D01*
Y-13216D01*
Y-13249D01*
X82809Y-13279D01*
X82806Y-13310D01*
Y-13335D01*
X82803Y-13357D01*
X82797Y-13393D01*
X82792Y-13421D01*
X82789Y-13440D01*
X82784Y-13452D01*
Y-13454D01*
X82772Y-13479D01*
X82756Y-13499D01*
X82739Y-13518D01*
X82725Y-13532D01*
X82709Y-13546D01*
X82697Y-13554D01*
X82689Y-13560D01*
X82686Y-13563D01*
X82656Y-13576D01*
X82625Y-13585D01*
X82592Y-13593D01*
X82559Y-13596D01*
X82531Y-13599D01*
X82509Y-13601D01*
X82486D01*
X82425Y-13599D01*
X82395Y-13596D01*
X82367Y-13590D01*
X82342Y-13588D01*
X82323Y-13585D01*
X82312Y-13582D01*
X82306D01*
X82337Y-13374D01*
X82359Y-13377D01*
X82381Y-13379D01*
X82400D01*
X82414Y-13382D01*
X82442D01*
X82478Y-13379D01*
X82503Y-13374D01*
X82517Y-13368D01*
X82523Y-13365D01*
X82542Y-13352D01*
X82553Y-13338D01*
X82561Y-13327D01*
X82564Y-13321D01*
X82567Y-13307D01*
X82570Y-13288D01*
X82573Y-13243D01*
X82575Y-13224D01*
Y-13207D01*
Y-13196D01*
Y-13191D01*
Y-12372D01*
X82337D01*
Y-12188D01*
X82575D01*
Y-11703D01*
X82811Y-11844D01*
D02*
G37*
G36*
X71734Y-12161D02*
X71784Y-12166D01*
X71831Y-12174D01*
X71876Y-12188D01*
X71917Y-12202D01*
X71956Y-12219D01*
X71992Y-12236D01*
X72023Y-12255D01*
X72053Y-12272D01*
X72078Y-12291D01*
X72101Y-12308D01*
X72117Y-12322D01*
X72131Y-12335D01*
X72142Y-12344D01*
X72148Y-12349D01*
X72151Y-12352D01*
X72181Y-12391D01*
X72209Y-12433D01*
X72234Y-12474D01*
X72256Y-12519D01*
X72273Y-12566D01*
X72287Y-12610D01*
X72309Y-12699D01*
X72317Y-12738D01*
X72323Y-12777D01*
X72325Y-12810D01*
X72328Y-12841D01*
X72331Y-12866D01*
Y-12882D01*
Y-12896D01*
Y-12899D01*
X72328Y-12960D01*
X72323Y-13018D01*
X72314Y-13074D01*
X72303Y-13124D01*
X72289Y-13171D01*
X72276Y-13216D01*
X72259Y-13254D01*
X72242Y-13290D01*
X72226Y-13321D01*
X72209Y-13349D01*
X72195Y-13371D01*
X72181Y-13390D01*
X72170Y-13407D01*
X72162Y-13418D01*
X72156Y-13424D01*
X72153Y-13427D01*
X72117Y-13460D01*
X72081Y-13488D01*
X72042Y-13513D01*
X72001Y-13535D01*
X71962Y-13551D01*
X71920Y-13568D01*
X71842Y-13590D01*
X71806Y-13596D01*
X71773Y-13601D01*
X71742Y-13607D01*
X71717Y-13610D01*
X71698Y-13613D01*
X71668D01*
X71581Y-13607D01*
X71504Y-13593D01*
X71434Y-13576D01*
X71407Y-13565D01*
X71379Y-13554D01*
X71354Y-13543D01*
X71332Y-13532D01*
X71315Y-13524D01*
X71298Y-13515D01*
X71287Y-13507D01*
X71279Y-13501D01*
X71273Y-13496D01*
X71271D01*
X71215Y-13446D01*
X71171Y-13393D01*
X71132Y-13338D01*
X71104Y-13285D01*
X71082Y-13238D01*
X71073Y-13216D01*
X71065Y-13199D01*
X71060Y-13182D01*
X71057Y-13171D01*
X71054Y-13166D01*
Y-13163D01*
X71298Y-13132D01*
X71321Y-13185D01*
X71345Y-13229D01*
X71370Y-13268D01*
X71393Y-13299D01*
X71412Y-13321D01*
X71429Y-13338D01*
X71443Y-13349D01*
X71445Y-13352D01*
X71482Y-13374D01*
X71518Y-13390D01*
X71556Y-13402D01*
X71590Y-13410D01*
X71620Y-13415D01*
X71645Y-13418D01*
X71668D01*
X71701Y-13415D01*
X71731Y-13413D01*
X71787Y-13399D01*
X71837Y-13379D01*
X71881Y-13357D01*
X71915Y-13338D01*
X71940Y-13318D01*
X71956Y-13304D01*
X71959Y-13299D01*
X71962D01*
X72001Y-13249D01*
X72031Y-13193D01*
X72053Y-13132D01*
X72070Y-13077D01*
X72078Y-13027D01*
X72084Y-13005D01*
X72087Y-12985D01*
Y-12968D01*
X72090Y-12957D01*
Y-12949D01*
Y-12946D01*
X71048D01*
X71046Y-12918D01*
Y-12899D01*
Y-12888D01*
Y-12885D01*
X71048Y-12821D01*
X71054Y-12763D01*
X71062Y-12707D01*
X71073Y-12655D01*
X71087Y-12608D01*
X71101Y-12563D01*
X71118Y-12524D01*
X71134Y-12488D01*
X71151Y-12455D01*
X71168Y-12427D01*
X71182Y-12405D01*
X71196Y-12385D01*
X71207Y-12369D01*
X71215Y-12358D01*
X71221Y-12352D01*
X71223Y-12349D01*
X71257Y-12316D01*
X71293Y-12286D01*
X71332Y-12261D01*
X71370Y-12238D01*
X71409Y-12219D01*
X71445Y-12205D01*
X71484Y-12191D01*
X71518Y-12183D01*
X71554Y-12174D01*
X71584Y-12169D01*
X71612Y-12163D01*
X71634Y-12161D01*
X71654Y-12158D01*
X71681D01*
X71734Y-12161D01*
D02*
G37*
G36*
X86862Y-13582D02*
X86129D01*
X86062Y-13579D01*
X86004Y-13576D01*
X85951Y-13571D01*
X85907Y-13565D01*
X85871Y-13560D01*
X85843Y-13557D01*
X85826Y-13551D01*
X85821D01*
X85773Y-13538D01*
X85735Y-13524D01*
X85699Y-13507D01*
X85668Y-13490D01*
X85643Y-13479D01*
X85624Y-13468D01*
X85612Y-13460D01*
X85610Y-13457D01*
X85579Y-13432D01*
X85551Y-13402D01*
X85529Y-13371D01*
X85507Y-13343D01*
X85490Y-13315D01*
X85479Y-13296D01*
X85471Y-13282D01*
X85468Y-13277D01*
X85449Y-13232D01*
X85435Y-13188D01*
X85424Y-13146D01*
X85418Y-13107D01*
X85413Y-13074D01*
X85410Y-13046D01*
Y-13030D01*
Y-13027D01*
Y-13024D01*
X85413Y-12963D01*
X85424Y-12907D01*
X85440Y-12860D01*
X85457Y-12816D01*
X85474Y-12782D01*
X85490Y-12757D01*
X85501Y-12741D01*
X85504Y-12735D01*
X85543Y-12691D01*
X85585Y-12655D01*
X85632Y-12624D01*
X85674Y-12599D01*
X85712Y-12580D01*
X85746Y-12569D01*
X85757Y-12563D01*
X85765Y-12560D01*
X85771Y-12558D01*
X85773D01*
X85726Y-12530D01*
X85685Y-12502D01*
X85651Y-12472D01*
X85624Y-12444D01*
X85601Y-12422D01*
X85585Y-12399D01*
X85576Y-12388D01*
X85574Y-12383D01*
X85551Y-12341D01*
X85535Y-12302D01*
X85521Y-12263D01*
X85513Y-12227D01*
X85507Y-12197D01*
X85504Y-12172D01*
Y-12158D01*
Y-12152D01*
X85507Y-12105D01*
X85515Y-12058D01*
X85529Y-12016D01*
X85543Y-11977D01*
X85557Y-11944D01*
X85571Y-11922D01*
X85579Y-11905D01*
X85582Y-11900D01*
X85612Y-11858D01*
X85646Y-11819D01*
X85682Y-11789D01*
X85715Y-11764D01*
X85743Y-11744D01*
X85768Y-11730D01*
X85785Y-11722D01*
X85787Y-11719D01*
X85790D01*
X85843Y-11700D01*
X85901Y-11686D01*
X85960Y-11675D01*
X86015Y-11669D01*
X86065Y-11664D01*
X86087D01*
X86107Y-11661D01*
X86862D01*
Y-13582D01*
D02*
G37*
G36*
X74347Y-13582D02*
X74111D01*
Y-11661D01*
X74347D01*
Y-13582D01*
D02*
G37*
G36*
X70277Y-12161D02*
X70304Y-12166D01*
X70332Y-12174D01*
X70354Y-12183D01*
X70371Y-12191D01*
X70388Y-12199D01*
X70396Y-12205D01*
X70399Y-12208D01*
X70424Y-12230D01*
X70449Y-12258D01*
X70474Y-12291D01*
X70496Y-12322D01*
X70518Y-12352D01*
X70532Y-12377D01*
X70543Y-12397D01*
X70546Y-12399D01*
Y-12188D01*
X70760D01*
Y-13582D01*
X70524D01*
Y-12855D01*
X70521Y-12799D01*
X70518Y-12749D01*
X70513Y-12702D01*
X70504Y-12660D01*
X70496Y-12627D01*
X70490Y-12602D01*
X70488Y-12585D01*
X70485Y-12580D01*
X70474Y-12549D01*
X70460Y-12524D01*
X70446Y-12502D01*
X70432Y-12483D01*
X70418Y-12469D01*
X70410Y-12458D01*
X70402Y-12452D01*
X70399Y-12449D01*
X70377Y-12433D01*
X70352Y-12422D01*
X70327Y-12413D01*
X70307Y-12408D01*
X70288Y-12405D01*
X70274Y-12402D01*
X70260D01*
X70229Y-12405D01*
X70199Y-12410D01*
X70168Y-12419D01*
X70143Y-12427D01*
X70121Y-12435D01*
X70105Y-12444D01*
X70093Y-12449D01*
X70091Y-12452D01*
X70005Y-12236D01*
X70052Y-12211D01*
X70096Y-12191D01*
X70135Y-12177D01*
X70171Y-12166D01*
X70202Y-12161D01*
X70227Y-12158D01*
X70246D01*
X70277Y-12161D01*
D02*
G37*
G36*
X84574Y-12161D02*
X84619Y-12163D01*
X84705Y-12183D01*
X84780Y-12208D01*
X84813Y-12222D01*
X84843Y-12236D01*
X84871Y-12249D01*
X84893Y-12263D01*
X84916Y-12277D01*
X84932Y-12288D01*
X84946Y-12299D01*
X84957Y-12308D01*
X84963Y-12310D01*
X84966Y-12313D01*
X85004Y-12349D01*
X85035Y-12391D01*
X85066Y-12435D01*
X85088Y-12480D01*
X85110Y-12527D01*
X85127Y-12577D01*
X85141Y-12624D01*
X85152Y-12669D01*
X85163Y-12713D01*
X85168Y-12752D01*
X85174Y-12791D01*
X85177Y-12821D01*
Y-12849D01*
X85179Y-12869D01*
Y-12880D01*
Y-12885D01*
X85177Y-12949D01*
X85171Y-13010D01*
X85163Y-13066D01*
X85152Y-13118D01*
X85138Y-13166D01*
X85124Y-13210D01*
X85107Y-13252D01*
X85091Y-13288D01*
X85074Y-13321D01*
X85057Y-13349D01*
X85043Y-13371D01*
X85029Y-13390D01*
X85018Y-13407D01*
X85010Y-13418D01*
X85004Y-13424D01*
X85002Y-13427D01*
X84966Y-13460D01*
X84930Y-13488D01*
X84891Y-13513D01*
X84852Y-13535D01*
X84813Y-13551D01*
X84771Y-13568D01*
X84696Y-13590D01*
X84663Y-13596D01*
X84630Y-13601D01*
X84602Y-13607D01*
X84577Y-13610D01*
X84555Y-13613D01*
X84527D01*
X84460Y-13610D01*
X84399Y-13599D01*
X84341Y-13585D01*
X84294Y-13571D01*
X84252Y-13554D01*
X84235Y-13549D01*
X84222Y-13543D01*
X84208Y-13538D01*
X84199Y-13532D01*
X84197Y-13529D01*
X84194D01*
X84138Y-13493D01*
X84091Y-13454D01*
X84049Y-13415D01*
X84016Y-13377D01*
X83991Y-13343D01*
X83972Y-13315D01*
X83966Y-13304D01*
X83961Y-13296D01*
X83958Y-13293D01*
Y-13290D01*
X83930Y-13227D01*
X83911Y-13157D01*
X83894Y-13088D01*
X83886Y-13018D01*
X83880Y-12988D01*
Y-12960D01*
X83877Y-12932D01*
X83875Y-12910D01*
Y-12891D01*
Y-12877D01*
Y-12869D01*
Y-12866D01*
X83877Y-12805D01*
X83883Y-12749D01*
X83891Y-12696D01*
X83902Y-12646D01*
X83916Y-12599D01*
X83933Y-12558D01*
X83950Y-12516D01*
X83966Y-12483D01*
X83983Y-12452D01*
X83999Y-12424D01*
X84016Y-12399D01*
X84030Y-12380D01*
X84041Y-12366D01*
X84049Y-12355D01*
X84055Y-12349D01*
X84058Y-12347D01*
X84094Y-12313D01*
X84130Y-12286D01*
X84169Y-12258D01*
X84208Y-12238D01*
X84247Y-12219D01*
X84285Y-12205D01*
X84360Y-12180D01*
X84396Y-12174D01*
X84427Y-12169D01*
X84455Y-12163D01*
X84480Y-12161D01*
X84499Y-12158D01*
X84527D01*
X84574Y-12161D01*
D02*
G37*
G36*
X81587D02*
X81631Y-12163D01*
X81717Y-12183D01*
X81792Y-12208D01*
X81826Y-12222D01*
X81856Y-12236D01*
X81884Y-12249D01*
X81906Y-12263D01*
X81928Y-12277D01*
X81945Y-12288D01*
X81959Y-12299D01*
X81970Y-12308D01*
X81976Y-12310D01*
X81978Y-12313D01*
X82017Y-12349D01*
X82048Y-12391D01*
X82078Y-12435D01*
X82101Y-12480D01*
X82123Y-12527D01*
X82139Y-12577D01*
X82153Y-12624D01*
X82164Y-12669D01*
X82176Y-12713D01*
X82181Y-12752D01*
X82187Y-12791D01*
X82189Y-12821D01*
Y-12849D01*
X82192Y-12869D01*
Y-12880D01*
Y-12885D01*
X82189Y-12949D01*
X82184Y-13010D01*
X82176Y-13066D01*
X82164Y-13118D01*
X82151Y-13166D01*
X82137Y-13210D01*
X82120Y-13252D01*
X82103Y-13288D01*
X82087Y-13321D01*
X82070Y-13349D01*
X82056Y-13371D01*
X82042Y-13390D01*
X82031Y-13407D01*
X82023Y-13418D01*
X82017Y-13424D01*
X82015Y-13427D01*
X81978Y-13460D01*
X81942Y-13488D01*
X81903Y-13513D01*
X81865Y-13535D01*
X81826Y-13551D01*
X81784Y-13568D01*
X81709Y-13590D01*
X81676Y-13596D01*
X81642Y-13601D01*
X81615Y-13607D01*
X81590Y-13610D01*
X81568Y-13613D01*
X81540D01*
X81473Y-13610D01*
X81412Y-13599D01*
X81354Y-13585D01*
X81307Y-13571D01*
X81265Y-13554D01*
X81248Y-13549D01*
X81234Y-13543D01*
X81220Y-13538D01*
X81212Y-13532D01*
X81209Y-13529D01*
X81207D01*
X81151Y-13493D01*
X81104Y-13454D01*
X81062Y-13415D01*
X81029Y-13377D01*
X81004Y-13343D01*
X80985Y-13315D01*
X80979Y-13304D01*
X80973Y-13296D01*
X80971Y-13293D01*
Y-13290D01*
X80943Y-13227D01*
X80923Y-13157D01*
X80907Y-13088D01*
X80898Y-13018D01*
X80893Y-12988D01*
Y-12960D01*
X80890Y-12932D01*
X80887Y-12910D01*
Y-12891D01*
Y-12877D01*
Y-12869D01*
Y-12866D01*
X80890Y-12805D01*
X80896Y-12749D01*
X80904Y-12696D01*
X80915Y-12646D01*
X80929Y-12599D01*
X80946Y-12558D01*
X80962Y-12516D01*
X80979Y-12483D01*
X80996Y-12452D01*
X81012Y-12424D01*
X81029Y-12399D01*
X81043Y-12380D01*
X81054Y-12366D01*
X81062Y-12355D01*
X81068Y-12349D01*
X81071Y-12347D01*
X81107Y-12313D01*
X81143Y-12286D01*
X81182Y-12258D01*
X81220Y-12238D01*
X81259Y-12219D01*
X81298Y-12205D01*
X81373Y-12180D01*
X81409Y-12174D01*
X81440Y-12169D01*
X81468Y-12163D01*
X81493Y-12161D01*
X81512Y-12158D01*
X81540D01*
X81587Y-12161D01*
D02*
G37*
G36*
X75318Y-12161D02*
X75363Y-12163D01*
X75449Y-12183D01*
X75524Y-12208D01*
X75557Y-12222D01*
X75588Y-12236D01*
X75615Y-12249D01*
X75638Y-12263D01*
X75660Y-12277D01*
X75676Y-12288D01*
X75690Y-12299D01*
X75701Y-12308D01*
X75707Y-12310D01*
X75710Y-12313D01*
X75749Y-12349D01*
X75779Y-12391D01*
X75810Y-12435D01*
X75832Y-12480D01*
X75854Y-12527D01*
X75871Y-12577D01*
X75885Y-12624D01*
X75896Y-12669D01*
X75907Y-12713D01*
X75912Y-12752D01*
X75918Y-12791D01*
X75921Y-12821D01*
Y-12849D01*
X75923Y-12869D01*
Y-12880D01*
Y-12885D01*
X75921Y-12949D01*
X75915Y-13010D01*
X75907Y-13066D01*
X75896Y-13118D01*
X75882Y-13166D01*
X75868Y-13210D01*
X75851Y-13252D01*
X75835Y-13288D01*
X75818Y-13321D01*
X75801Y-13349D01*
X75787Y-13371D01*
X75774Y-13390D01*
X75762Y-13407D01*
X75754Y-13418D01*
X75749Y-13424D01*
X75746Y-13427D01*
X75710Y-13460D01*
X75674Y-13488D01*
X75635Y-13513D01*
X75596Y-13535D01*
X75557Y-13551D01*
X75515Y-13568D01*
X75440Y-13590D01*
X75407Y-13596D01*
X75374Y-13601D01*
X75346Y-13607D01*
X75321Y-13610D01*
X75299Y-13613D01*
X75271D01*
X75204Y-13610D01*
X75143Y-13599D01*
X75085Y-13585D01*
X75038Y-13571D01*
X74996Y-13554D01*
X74980Y-13549D01*
X74966Y-13543D01*
X74952Y-13538D01*
X74943Y-13532D01*
X74941Y-13529D01*
X74938D01*
X74882Y-13493D01*
X74835Y-13454D01*
X74794Y-13415D01*
X74760Y-13377D01*
X74735Y-13343D01*
X74716Y-13315D01*
X74710Y-13304D01*
X74705Y-13296D01*
X74702Y-13293D01*
Y-13290D01*
X74674Y-13227D01*
X74655Y-13157D01*
X74638Y-13088D01*
X74630Y-13018D01*
X74624Y-12988D01*
Y-12960D01*
X74621Y-12932D01*
X74619Y-12910D01*
Y-12891D01*
Y-12877D01*
Y-12869D01*
Y-12866D01*
X74621Y-12805D01*
X74627Y-12749D01*
X74635Y-12696D01*
X74646Y-12646D01*
X74660Y-12599D01*
X74677Y-12558D01*
X74694Y-12516D01*
X74710Y-12483D01*
X74727Y-12452D01*
X74744Y-12424D01*
X74760Y-12399D01*
X74774Y-12380D01*
X74785Y-12366D01*
X74794Y-12355D01*
X74799Y-12349D01*
X74802Y-12347D01*
X74838Y-12313D01*
X74874Y-12286D01*
X74913Y-12258D01*
X74952Y-12238D01*
X74991Y-12219D01*
X75030Y-12205D01*
X75104Y-12180D01*
X75141Y-12174D01*
X75171Y-12169D01*
X75199Y-12163D01*
X75224Y-12161D01*
X75243Y-12158D01*
X75271D01*
X75318Y-12161D01*
D02*
G37*
G36*
X72861Y-12349D02*
X72886Y-12319D01*
X72914Y-12294D01*
X72939Y-12269D01*
X72967Y-12249D01*
X72989Y-12236D01*
X73006Y-12222D01*
X73017Y-12216D01*
X73022Y-12213D01*
X73058Y-12194D01*
X73097Y-12180D01*
X73136Y-12172D01*
X73172Y-12163D01*
X73203Y-12161D01*
X73225Y-12158D01*
X73247D01*
X73308Y-12161D01*
X73367Y-12172D01*
X73419Y-12186D01*
X73464Y-12202D01*
X73503Y-12222D01*
X73530Y-12236D01*
X73541Y-12241D01*
X73550Y-12247D01*
X73553Y-12249D01*
X73555D01*
X73605Y-12286D01*
X73647Y-12330D01*
X73683Y-12372D01*
X73711Y-12413D01*
X73733Y-12452D01*
X73750Y-12483D01*
X73755Y-12494D01*
X73761Y-12502D01*
X73764Y-12508D01*
Y-12510D01*
X73786Y-12574D01*
X73802Y-12641D01*
X73816Y-12705D01*
X73825Y-12763D01*
X73830Y-12813D01*
Y-12835D01*
X73833Y-12852D01*
Y-12869D01*
Y-12880D01*
Y-12885D01*
Y-12888D01*
X73830Y-12966D01*
X73822Y-13038D01*
X73808Y-13102D01*
X73794Y-13157D01*
X73789Y-13182D01*
X73783Y-13202D01*
X73775Y-13221D01*
X73769Y-13238D01*
X73764Y-13249D01*
X73761Y-13257D01*
X73758Y-13263D01*
Y-13266D01*
X73727Y-13324D01*
X73691Y-13374D01*
X73655Y-13418D01*
X73619Y-13454D01*
X73589Y-13482D01*
X73564Y-13504D01*
X73547Y-13515D01*
X73544Y-13521D01*
X73541D01*
X73489Y-13551D01*
X73436Y-13574D01*
X73383Y-13590D01*
X73336Y-13601D01*
X73297Y-13607D01*
X73264Y-13610D01*
X73253Y-13613D01*
X73236D01*
X73189Y-13610D01*
X73144Y-13604D01*
X73103Y-13593D01*
X73067Y-13579D01*
X73031Y-13565D01*
X72997Y-13549D01*
X72970Y-13529D01*
X72945Y-13510D01*
X72920Y-13490D01*
X72900Y-13471D01*
X72884Y-13454D01*
X72870Y-13440D01*
X72859Y-13427D01*
X72850Y-13415D01*
X72847Y-13410D01*
X72845Y-13407D01*
Y-13582D01*
X72625D01*
Y-11661D01*
X72861D01*
Y-12349D01*
D02*
G37*
G36*
X77006Y-11630D02*
X77070Y-11639D01*
X77131Y-11650D01*
X77184Y-11661D01*
X77226Y-11672D01*
X77245Y-11678D01*
X77259Y-11683D01*
X77270Y-11689D01*
X77278Y-11691D01*
X77284Y-11694D01*
X77287D01*
X77342Y-11722D01*
X77392Y-11752D01*
X77434Y-11786D01*
X77467Y-11816D01*
X77492Y-11844D01*
X77511Y-11866D01*
X77525Y-11883D01*
X77528Y-11886D01*
Y-11889D01*
X77556Y-11936D01*
X77575Y-11983D01*
X77589Y-12030D01*
X77598Y-12072D01*
X77603Y-12108D01*
X77609Y-12136D01*
Y-12147D01*
Y-12155D01*
Y-12158D01*
Y-12161D01*
X77606Y-12208D01*
X77598Y-12252D01*
X77586Y-12294D01*
X77575Y-12330D01*
X77564Y-12358D01*
X77553Y-12380D01*
X77545Y-12394D01*
X77542Y-12399D01*
X77514Y-12438D01*
X77481Y-12474D01*
X77448Y-12505D01*
X77414Y-12530D01*
X77387Y-12552D01*
X77362Y-12566D01*
X77345Y-12577D01*
X77342Y-12580D01*
X77339D01*
X77317Y-12591D01*
X77292Y-12602D01*
X77237Y-12621D01*
X77173Y-12641D01*
X77112Y-12660D01*
X77056Y-12677D01*
X77031Y-12683D01*
X77009Y-12688D01*
X76992Y-12694D01*
X76978Y-12696D01*
X76970Y-12699D01*
X76967D01*
X76920Y-12710D01*
X76876Y-12721D01*
X76837Y-12732D01*
X76804Y-12741D01*
X76770Y-12749D01*
X76742Y-12757D01*
X76717Y-12763D01*
X76698Y-12771D01*
X76679Y-12777D01*
X76665Y-12780D01*
X76643Y-12788D01*
X76629Y-12791D01*
X76626Y-12794D01*
X76584Y-12810D01*
X76548Y-12830D01*
X76518Y-12849D01*
X76495Y-12866D01*
X76476Y-12882D01*
X76465Y-12894D01*
X76457Y-12902D01*
X76454Y-12905D01*
X76434Y-12930D01*
X76420Y-12957D01*
X76412Y-12985D01*
X76404Y-13007D01*
X76401Y-13030D01*
X76398Y-13046D01*
Y-13060D01*
Y-13063D01*
X76401Y-13096D01*
X76407Y-13127D01*
X76415Y-13154D01*
X76426Y-13177D01*
X76437Y-13199D01*
X76445Y-13213D01*
X76451Y-13224D01*
X76454Y-13227D01*
X76476Y-13254D01*
X76504Y-13277D01*
X76531Y-13296D01*
X76556Y-13315D01*
X76581Y-13327D01*
X76601Y-13338D01*
X76615Y-13343D01*
X76620Y-13346D01*
X76662Y-13360D01*
X76706Y-13371D01*
X76751Y-13377D01*
X76790Y-13382D01*
X76823Y-13385D01*
X76851Y-13388D01*
X76876D01*
X76937Y-13385D01*
X76992Y-13379D01*
X77042Y-13371D01*
X77087Y-13360D01*
X77123Y-13349D01*
X77151Y-13340D01*
X77159Y-13338D01*
X77167Y-13335D01*
X77170Y-13332D01*
X77173D01*
X77217Y-13310D01*
X77259Y-13285D01*
X77289Y-13260D01*
X77317Y-13235D01*
X77339Y-13216D01*
X77353Y-13196D01*
X77362Y-13185D01*
X77364Y-13182D01*
X77384Y-13146D01*
X77403Y-13107D01*
X77414Y-13066D01*
X77425Y-13030D01*
X77434Y-12993D01*
X77439Y-12968D01*
Y-12957D01*
X77442Y-12949D01*
Y-12946D01*
Y-12943D01*
X77681Y-12966D01*
X77675Y-13035D01*
X77664Y-13102D01*
X77648Y-13160D01*
X77628Y-13213D01*
X77609Y-13254D01*
X77600Y-13271D01*
X77595Y-13285D01*
X77586Y-13296D01*
X77584Y-13304D01*
X77578Y-13310D01*
Y-13313D01*
X77536Y-13365D01*
X77492Y-13413D01*
X77445Y-13452D01*
X77400Y-13485D01*
X77362Y-13510D01*
X77328Y-13526D01*
X77317Y-13532D01*
X77309Y-13538D01*
X77303Y-13540D01*
X77300D01*
X77231Y-13565D01*
X77159Y-13585D01*
X77087Y-13596D01*
X77017Y-13607D01*
X76984Y-13610D01*
X76956Y-13613D01*
X76931D01*
X76909Y-13615D01*
X76865D01*
X76790Y-13613D01*
X76720Y-13604D01*
X76656Y-13590D01*
X76604Y-13576D01*
X76559Y-13565D01*
X76540Y-13557D01*
X76523Y-13551D01*
X76512Y-13546D01*
X76504Y-13543D01*
X76498Y-13540D01*
X76495D01*
X76437Y-13510D01*
X76387Y-13477D01*
X76343Y-13440D01*
X76307Y-13407D01*
X76279Y-13379D01*
X76259Y-13354D01*
X76246Y-13338D01*
X76243Y-13335D01*
Y-13332D01*
X76212Y-13279D01*
X76190Y-13229D01*
X76176Y-13182D01*
X76165Y-13138D01*
X76159Y-13099D01*
X76154Y-13068D01*
Y-13057D01*
Y-13049D01*
Y-13046D01*
Y-13043D01*
X76157Y-12988D01*
X76165Y-12935D01*
X76179Y-12888D01*
X76193Y-12849D01*
X76209Y-12816D01*
X76221Y-12791D01*
X76232Y-12777D01*
X76234Y-12771D01*
X76268Y-12730D01*
X76307Y-12691D01*
X76348Y-12658D01*
X76390Y-12627D01*
X76426Y-12605D01*
X76457Y-12588D01*
X76468Y-12583D01*
X76476Y-12577D01*
X76481Y-12574D01*
X76484D01*
X76506Y-12563D01*
X76534Y-12555D01*
X76565Y-12544D01*
X76598Y-12533D01*
X76668Y-12513D01*
X76740Y-12494D01*
X76773Y-12485D01*
X76804Y-12477D01*
X76834Y-12469D01*
X76859Y-12463D01*
X76878Y-12458D01*
X76895Y-12455D01*
X76906Y-12452D01*
X76909D01*
X76965Y-12438D01*
X77015Y-12427D01*
X77059Y-12413D01*
X77098Y-12402D01*
X77134Y-12388D01*
X77164Y-12377D01*
X77192Y-12366D01*
X77217Y-12358D01*
X77237Y-12347D01*
X77253Y-12338D01*
X77264Y-12333D01*
X77275Y-12324D01*
X77289Y-12316D01*
X77292Y-12313D01*
X77317Y-12286D01*
X77334Y-12258D01*
X77348Y-12230D01*
X77356Y-12202D01*
X77362Y-12180D01*
X77364Y-12161D01*
Y-12149D01*
Y-12144D01*
X77359Y-12099D01*
X77348Y-12061D01*
X77331Y-12027D01*
X77312Y-11997D01*
X77295Y-11975D01*
X77278Y-11955D01*
X77267Y-11944D01*
X77262Y-11941D01*
X77239Y-11927D01*
X77217Y-11913D01*
X77164Y-11891D01*
X77109Y-11877D01*
X77053Y-11866D01*
X77003Y-11861D01*
X76981Y-11858D01*
X76965Y-11855D01*
X76926D01*
X76848Y-11858D01*
X76779Y-11869D01*
X76723Y-11886D01*
X76676Y-11902D01*
X76640Y-11919D01*
X76612Y-11936D01*
X76598Y-11947D01*
X76593Y-11950D01*
X76554Y-11988D01*
X76523Y-12030D01*
X76498Y-12075D01*
X76481Y-12119D01*
X76470Y-12161D01*
X76462Y-12191D01*
X76459Y-12205D01*
X76457Y-12213D01*
Y-12219D01*
Y-12222D01*
X76212Y-12202D01*
X76218Y-12141D01*
X76232Y-12086D01*
X76246Y-12033D01*
X76265Y-11988D01*
X76282Y-11952D01*
X76295Y-11925D01*
X76301Y-11916D01*
X76307Y-11908D01*
X76309Y-11905D01*
Y-11902D01*
X76345Y-11855D01*
X76384Y-11814D01*
X76426Y-11777D01*
X76468Y-11750D01*
X76504Y-11725D01*
X76531Y-11711D01*
X76543Y-11705D01*
X76551Y-11700D01*
X76556Y-11697D01*
X76559D01*
X76620Y-11675D01*
X76687Y-11658D01*
X76748Y-11644D01*
X76806Y-11636D01*
X76859Y-11630D01*
X76878D01*
X76898Y-11628D01*
X76934D01*
X77006Y-11630D01*
D02*
G37*
%LPC*%
G36*
X42505Y-11889D02*
X42050D01*
X41989Y-11894D01*
X41941Y-11897D01*
X41900Y-11902D01*
X41869Y-11908D01*
X41850Y-11911D01*
X41836Y-11916D01*
X41833D01*
X41803Y-11927D01*
X41775Y-11944D01*
X41753Y-11961D01*
X41733Y-11977D01*
X41719Y-11991D01*
X41708Y-12005D01*
X41703Y-12013D01*
X41700Y-12016D01*
X41683Y-12044D01*
X41672Y-12072D01*
X41664Y-12099D01*
X41658Y-12127D01*
X41656Y-12149D01*
X41653Y-12166D01*
Y-12177D01*
Y-12183D01*
X41656Y-12219D01*
X41661Y-12252D01*
X41669Y-12280D01*
X41678Y-12302D01*
X41686Y-12322D01*
X41694Y-12338D01*
X41700Y-12347D01*
X41703Y-12349D01*
X41722Y-12372D01*
X41747Y-12394D01*
X41772Y-12410D01*
X41794Y-12422D01*
X41817Y-12433D01*
X41833Y-12441D01*
X41844Y-12444D01*
X41850Y-12447D01*
X41880Y-12452D01*
X41919Y-12458D01*
X41958Y-12460D01*
X41997Y-12463D01*
X42033Y-12466D01*
X42505D01*
Y-11889D01*
D02*
G37*
G36*
Y-12694D02*
X42000D01*
X41941Y-12699D01*
X41894Y-12705D01*
X41855Y-12710D01*
X41825Y-12716D01*
X41800Y-12721D01*
X41789Y-12724D01*
X41783Y-12727D01*
X41747Y-12741D01*
X41717Y-12757D01*
X41689Y-12777D01*
X41667Y-12796D01*
X41650Y-12813D01*
X41639Y-12827D01*
X41631Y-12838D01*
X41628Y-12841D01*
X41608Y-12871D01*
X41594Y-12902D01*
X41583Y-12932D01*
X41578Y-12960D01*
X41572Y-12985D01*
X41569Y-13007D01*
Y-13018D01*
Y-13024D01*
X41572Y-13057D01*
X41575Y-13091D01*
X41581Y-13118D01*
X41589Y-13141D01*
X41597Y-13160D01*
X41603Y-13177D01*
X41606Y-13185D01*
X41608Y-13188D01*
X41625Y-13213D01*
X41639Y-13235D01*
X41658Y-13252D01*
X41672Y-13268D01*
X41686Y-13279D01*
X41697Y-13288D01*
X41705Y-13293D01*
X41708Y-13296D01*
X41755Y-13318D01*
X41803Y-13335D01*
X41822Y-13340D01*
X41839Y-13343D01*
X41850Y-13346D01*
X41853D01*
X41875Y-13349D01*
X41900Y-13352D01*
X41958Y-13354D01*
X42505D01*
Y-12694D01*
D02*
G37*
G36*
X71695Y-12352D02*
X71679D01*
X71645Y-12355D01*
X71615Y-12358D01*
X71556Y-12374D01*
X71507Y-12397D01*
X71465Y-12422D01*
X71432Y-12447D01*
X71407Y-12469D01*
X71393Y-12485D01*
X71387Y-12488D01*
Y-12491D01*
X71362Y-12527D01*
X71340Y-12569D01*
X71326Y-12610D01*
X71312Y-12655D01*
X71304Y-12691D01*
X71298Y-12724D01*
Y-12735D01*
X71296Y-12744D01*
Y-12749D01*
Y-12752D01*
X72076D01*
X72067Y-12688D01*
X72051Y-12630D01*
X72031Y-12580D01*
X72009Y-12541D01*
X71990Y-12508D01*
X71970Y-12483D01*
X71959Y-12469D01*
X71953Y-12463D01*
X71909Y-12427D01*
X71865Y-12399D01*
X71817Y-12380D01*
X71773Y-12366D01*
X71737Y-12358D01*
X71706Y-12355D01*
X71695Y-12352D01*
D02*
G37*
G36*
X86606Y-11889D02*
X86151D01*
X86090Y-11894D01*
X86043Y-11897D01*
X86001Y-11902D01*
X85971Y-11908D01*
X85951Y-11911D01*
X85937Y-11916D01*
X85935D01*
X85904Y-11927D01*
X85876Y-11944D01*
X85854Y-11961D01*
X85835Y-11977D01*
X85821Y-11991D01*
X85810Y-12005D01*
X85804Y-12013D01*
X85801Y-12016D01*
X85785Y-12044D01*
X85773Y-12072D01*
X85765Y-12099D01*
X85760Y-12127D01*
X85757Y-12149D01*
X85754Y-12166D01*
Y-12177D01*
Y-12183D01*
X85757Y-12219D01*
X85762Y-12252D01*
X85771Y-12280D01*
X85779Y-12302D01*
X85787Y-12322D01*
X85796Y-12338D01*
X85801Y-12347D01*
X85804Y-12349D01*
X85823Y-12372D01*
X85848Y-12394D01*
X85873Y-12410D01*
X85896Y-12422D01*
X85918Y-12433D01*
X85935Y-12441D01*
X85946Y-12444D01*
X85951Y-12447D01*
X85982Y-12452D01*
X86021Y-12458D01*
X86059Y-12460D01*
X86098Y-12463D01*
X86134Y-12466D01*
X86606D01*
Y-11889D01*
D02*
G37*
G36*
Y-12694D02*
X86101D01*
X86043Y-12699D01*
X85996Y-12705D01*
X85957Y-12710D01*
X85926Y-12716D01*
X85901Y-12721D01*
X85890Y-12724D01*
X85885Y-12727D01*
X85848Y-12741D01*
X85818Y-12757D01*
X85790Y-12777D01*
X85768Y-12796D01*
X85751Y-12813D01*
X85740Y-12827D01*
X85732Y-12838D01*
X85729Y-12841D01*
X85710Y-12871D01*
X85696Y-12902D01*
X85685Y-12932D01*
X85679Y-12960D01*
X85674Y-12985D01*
X85671Y-13007D01*
Y-13018D01*
Y-13024D01*
X85674Y-13057D01*
X85676Y-13091D01*
X85682Y-13118D01*
X85690Y-13141D01*
X85699Y-13160D01*
X85704Y-13177D01*
X85707Y-13185D01*
X85710Y-13188D01*
X85726Y-13213D01*
X85740Y-13235D01*
X85760Y-13252D01*
X85773Y-13268D01*
X85787Y-13279D01*
X85798Y-13288D01*
X85807Y-13293D01*
X85810Y-13296D01*
X85857Y-13318D01*
X85904Y-13335D01*
X85923Y-13340D01*
X85940Y-13343D01*
X85951Y-13346D01*
X85954D01*
X85976Y-13349D01*
X86001Y-13352D01*
X86059Y-13354D01*
X86606D01*
Y-12694D01*
D02*
G37*
G36*
X84544Y-12352D02*
X84527D01*
X84494Y-12355D01*
X84463Y-12358D01*
X84408Y-12372D01*
X84358Y-12394D01*
X84316Y-12419D01*
X84283Y-12444D01*
X84258Y-12463D01*
X84241Y-12480D01*
X84235Y-12483D01*
Y-12485D01*
X84213Y-12510D01*
X84197Y-12541D01*
X84166Y-12602D01*
X84144Y-12669D01*
X84130Y-12730D01*
X84122Y-12788D01*
X84119Y-12813D01*
Y-12835D01*
X84116Y-12852D01*
Y-12866D01*
Y-12874D01*
Y-12877D01*
Y-12927D01*
X84122Y-12974D01*
X84127Y-13016D01*
X84136Y-13057D01*
X84144Y-13093D01*
X84155Y-13127D01*
X84163Y-13157D01*
X84174Y-13185D01*
X84186Y-13207D01*
X84197Y-13229D01*
X84208Y-13246D01*
X84216Y-13260D01*
X84224Y-13271D01*
X84230Y-13279D01*
X84233Y-13282D01*
X84235Y-13285D01*
X84258Y-13307D01*
X84283Y-13329D01*
X84330Y-13363D01*
X84380Y-13385D01*
X84424Y-13402D01*
X84466Y-13410D01*
X84496Y-13415D01*
X84510Y-13418D01*
X84527D01*
X84560Y-13415D01*
X84591Y-13413D01*
X84649Y-13399D01*
X84699Y-13377D01*
X84741Y-13352D01*
X84774Y-13329D01*
X84799Y-13307D01*
X84816Y-13293D01*
X84818Y-13288D01*
X84821D01*
X84841Y-13260D01*
X84860Y-13232D01*
X84888Y-13168D01*
X84910Y-13102D01*
X84924Y-13035D01*
X84932Y-12977D01*
X84935Y-12952D01*
Y-12930D01*
X84938Y-12910D01*
Y-12896D01*
Y-12888D01*
Y-12885D01*
X84935Y-12838D01*
X84932Y-12791D01*
X84927Y-12749D01*
X84918Y-12710D01*
X84910Y-12674D01*
X84902Y-12641D01*
X84891Y-12613D01*
X84880Y-12585D01*
X84868Y-12563D01*
X84857Y-12541D01*
X84849Y-12524D01*
X84841Y-12510D01*
X84832Y-12499D01*
X84827Y-12491D01*
X84821Y-12488D01*
Y-12485D01*
X84799Y-12463D01*
X84774Y-12441D01*
X84727Y-12408D01*
X84677Y-12385D01*
X84630Y-12369D01*
X84588Y-12358D01*
X84558Y-12355D01*
X84544Y-12352D01*
D02*
G37*
G36*
X81556D02*
X81540D01*
X81506Y-12355D01*
X81476Y-12358D01*
X81420Y-12372D01*
X81370Y-12394D01*
X81329Y-12419D01*
X81295Y-12444D01*
X81270Y-12463D01*
X81254Y-12480D01*
X81248Y-12483D01*
Y-12485D01*
X81226Y-12510D01*
X81209Y-12541D01*
X81179Y-12602D01*
X81157Y-12669D01*
X81143Y-12730D01*
X81134Y-12788D01*
X81132Y-12813D01*
Y-12835D01*
X81129Y-12852D01*
Y-12866D01*
Y-12874D01*
Y-12877D01*
Y-12927D01*
X81134Y-12974D01*
X81140Y-13016D01*
X81148Y-13057D01*
X81157Y-13093D01*
X81168Y-13127D01*
X81176Y-13157D01*
X81187Y-13185D01*
X81198Y-13207D01*
X81209Y-13229D01*
X81220Y-13246D01*
X81229Y-13260D01*
X81237Y-13271D01*
X81243Y-13279D01*
X81245Y-13282D01*
X81248Y-13285D01*
X81270Y-13307D01*
X81295Y-13329D01*
X81343Y-13363D01*
X81393Y-13385D01*
X81437Y-13402D01*
X81479Y-13410D01*
X81509Y-13415D01*
X81523Y-13418D01*
X81540D01*
X81573Y-13415D01*
X81604Y-13413D01*
X81662Y-13399D01*
X81712Y-13377D01*
X81754Y-13352D01*
X81787Y-13329D01*
X81812Y-13307D01*
X81828Y-13293D01*
X81831Y-13288D01*
X81834D01*
X81853Y-13260D01*
X81873Y-13232D01*
X81901Y-13168D01*
X81923Y-13102D01*
X81937Y-13035D01*
X81945Y-12977D01*
X81948Y-12952D01*
Y-12930D01*
X81951Y-12910D01*
Y-12896D01*
Y-12888D01*
Y-12885D01*
X81948Y-12838D01*
X81945Y-12791D01*
X81940Y-12749D01*
X81931Y-12710D01*
X81923Y-12674D01*
X81915Y-12641D01*
X81903Y-12613D01*
X81892Y-12585D01*
X81881Y-12563D01*
X81870Y-12541D01*
X81862Y-12524D01*
X81853Y-12510D01*
X81845Y-12499D01*
X81840Y-12491D01*
X81834Y-12488D01*
Y-12485D01*
X81812Y-12463D01*
X81787Y-12441D01*
X81740Y-12408D01*
X81690Y-12385D01*
X81642Y-12369D01*
X81601Y-12358D01*
X81570Y-12355D01*
X81556Y-12352D01*
D02*
G37*
G36*
X75288Y-12352D02*
X75271D01*
X75238Y-12355D01*
X75207Y-12358D01*
X75152Y-12372D01*
X75102Y-12394D01*
X75060Y-12419D01*
X75027Y-12444D01*
X75002Y-12463D01*
X74985Y-12480D01*
X74980Y-12483D01*
Y-12485D01*
X74957Y-12510D01*
X74941Y-12541D01*
X74910Y-12602D01*
X74888Y-12669D01*
X74874Y-12730D01*
X74866Y-12788D01*
X74863Y-12813D01*
Y-12835D01*
X74860Y-12852D01*
Y-12866D01*
Y-12874D01*
Y-12877D01*
Y-12927D01*
X74866Y-12974D01*
X74871Y-13016D01*
X74880Y-13057D01*
X74888Y-13093D01*
X74899Y-13127D01*
X74907Y-13157D01*
X74918Y-13185D01*
X74930Y-13207D01*
X74941Y-13229D01*
X74952Y-13246D01*
X74960Y-13260D01*
X74968Y-13271D01*
X74974Y-13279D01*
X74977Y-13282D01*
X74980Y-13285D01*
X75002Y-13307D01*
X75027Y-13329D01*
X75074Y-13363D01*
X75124Y-13385D01*
X75168Y-13402D01*
X75210Y-13410D01*
X75241Y-13415D01*
X75254Y-13418D01*
X75271D01*
X75304Y-13415D01*
X75335Y-13413D01*
X75393Y-13399D01*
X75443Y-13377D01*
X75485Y-13352D01*
X75518Y-13329D01*
X75543Y-13307D01*
X75560Y-13293D01*
X75563Y-13288D01*
X75565D01*
X75585Y-13260D01*
X75604Y-13232D01*
X75632Y-13168D01*
X75654Y-13102D01*
X75668Y-13035D01*
X75676Y-12977D01*
X75679Y-12952D01*
Y-12930D01*
X75682Y-12910D01*
Y-12896D01*
Y-12888D01*
Y-12885D01*
X75679Y-12838D01*
X75676Y-12791D01*
X75671Y-12749D01*
X75663Y-12710D01*
X75654Y-12674D01*
X75646Y-12641D01*
X75635Y-12613D01*
X75624Y-12585D01*
X75613Y-12563D01*
X75601Y-12541D01*
X75593Y-12524D01*
X75585Y-12510D01*
X75576Y-12499D01*
X75571Y-12491D01*
X75565Y-12488D01*
Y-12485D01*
X75543Y-12463D01*
X75518Y-12441D01*
X75471Y-12408D01*
X75421Y-12385D01*
X75374Y-12369D01*
X75332Y-12358D01*
X75302Y-12355D01*
X75288Y-12352D01*
D02*
G37*
G36*
X73236D02*
X73222D01*
X73192Y-12355D01*
X73164Y-12358D01*
X73111Y-12374D01*
X73064Y-12394D01*
X73025Y-12419D01*
X72995Y-12444D01*
X72970Y-12466D01*
X72956Y-12483D01*
X72950Y-12485D01*
Y-12488D01*
X72931Y-12516D01*
X72914Y-12544D01*
X72886Y-12610D01*
X72867Y-12680D01*
X72853Y-12746D01*
X72847Y-12780D01*
X72845Y-12810D01*
X72842Y-12838D01*
Y-12860D01*
X72839Y-12880D01*
Y-12894D01*
Y-12905D01*
Y-12907D01*
Y-12955D01*
X72845Y-12999D01*
X72850Y-13038D01*
X72856Y-13077D01*
X72864Y-13110D01*
X72875Y-13143D01*
X72884Y-13171D01*
X72895Y-13196D01*
X72906Y-13218D01*
X72914Y-13241D01*
X72925Y-13254D01*
X72933Y-13268D01*
X72939Y-13279D01*
X72945Y-13288D01*
X72950Y-13290D01*
Y-13293D01*
X72970Y-13315D01*
X72992Y-13335D01*
X73036Y-13365D01*
X73081Y-13388D01*
X73122Y-13402D01*
X73158Y-13413D01*
X73189Y-13415D01*
X73200Y-13418D01*
X73214D01*
X73242Y-13415D01*
X73269Y-13413D01*
X73319Y-13399D01*
X73367Y-13377D01*
X73405Y-13352D01*
X73436Y-13329D01*
X73461Y-13307D01*
X73475Y-13293D01*
X73478Y-13288D01*
X73480D01*
X73500Y-13260D01*
X73516Y-13232D01*
X73544Y-13168D01*
X73564Y-13102D01*
X73578Y-13038D01*
X73586Y-12980D01*
X73589Y-12955D01*
Y-12932D01*
X73591Y-12913D01*
Y-12899D01*
Y-12891D01*
Y-12888D01*
Y-12838D01*
X73586Y-12791D01*
X73580Y-12746D01*
X73575Y-12707D01*
X73566Y-12671D01*
X73558Y-12638D01*
X73550Y-12608D01*
X73539Y-12580D01*
X73528Y-12558D01*
X73519Y-12538D01*
X73511Y-12521D01*
X73503Y-12508D01*
X73494Y-12497D01*
X73492Y-12488D01*
X73486Y-12485D01*
Y-12483D01*
X73467Y-12460D01*
X73444Y-12438D01*
X73400Y-12408D01*
X73355Y-12383D01*
X73314Y-12369D01*
X73278Y-12358D01*
X73247Y-12355D01*
X73236Y-12352D01*
D02*
G37*
%LPD*%
D14*
X100050Y33000D02*
G03*
X98050Y35000I-2000J0D01*
G01*
Y0D02*
G03*
X100050Y2000I0J2000D01*
G01*
X2000Y35000D02*
G03*
X0Y33000I0J-2000D01*
G01*
Y2000D02*
G03*
X2000Y0I2000J0D01*
G01*
X98050D01*
X2000Y35000D02*
X98050D01*
X100050Y2000D02*
Y33000D01*
X0Y2000D02*
Y33000D01*
D29*
X35513Y4244D02*
D03*
X33620Y4244D02*
D03*
X35513Y7348D02*
D03*
X33620Y7343D02*
D03*
X88900Y10795D02*
D03*
X73800Y2050D02*
D03*
X54548Y22550D02*
D03*
X52500Y17500D02*
D03*
Y19500D02*
D03*
X57500D02*
D03*
X54500D02*
D03*
X51600Y29450D02*
D03*
X49700D02*
D03*
D71*
X93350Y1450D02*
D03*
X10650Y31400D02*
D03*
X10850Y1600D02*
D03*
D80*
X2622Y25858D02*
D03*
X5162D02*
D03*
D81*
X7702D02*
D03*
D82*
X8162Y30000D02*
D03*
X27480Y1600D02*
D03*
X30220D02*
D03*
X42770D02*
D03*
X40030D02*
D03*
X5162Y30000D02*
D03*
X2162D02*
D03*
D83*
X30120Y4350D02*
D03*
X42670Y4400D02*
D03*
D84*
X27580Y4350D02*
D03*
X40130Y4400D02*
D03*
D85*
X7134Y3400D02*
D03*
Y12040D02*
D03*
D86*
X1774Y12340D02*
D03*
Y3100D02*
D03*
D87*
X2309Y12340D02*
D03*
Y3100D02*
D03*
D88*
X60294Y29917D02*
D03*
X53944D02*
D03*
X76442Y5155D02*
D03*
X82792D02*
D03*
X10550Y15800D02*
D03*
X97650Y5750D02*
D03*
X34600Y33050D02*
D03*
D89*
X42500Y13800D02*
D03*
X32200Y13028D02*
D03*
X69550Y27400D02*
D03*
X69378Y26800D02*
D03*
X70150Y29050D02*
D03*
X28050Y30450D02*
D03*
X26398Y31712D02*
D03*
X23538Y20233D02*
D03*
X51479Y26821D02*
D03*
X53700Y24950D02*
D03*
X59250D02*
D03*
X61800Y27250D02*
D03*
X57300Y24550D02*
D03*
X57925Y24275D02*
D03*
X49100Y27500D02*
D03*
X18113Y27895D02*
D03*
X36100Y31000D02*
D03*
X40055Y29533D02*
D03*
X29150Y29550D02*
D03*
X41275Y29175D02*
D03*
X52150Y28550D02*
D03*
X51600Y27750D02*
D03*
X74700Y23550D02*
D03*
X65050Y11550D02*
D03*
X64382Y11540D02*
D03*
X87016Y21670D02*
D03*
X84950Y21000D02*
D03*
X85986Y13314D02*
D03*
X18000Y11500D02*
D03*
X57872Y5690D02*
D03*
X98450Y2100D02*
D03*
X94700Y9600D02*
D03*
X95950Y7100D02*
D03*
Y2100D02*
D03*
X93450Y12100D02*
D03*
X92200Y9600D02*
D03*
X93450Y7100D02*
D03*
X92200Y4600D02*
D03*
X89700Y14600D02*
D03*
X90950Y12100D02*
D03*
X89700Y9600D02*
D03*
X90950Y7100D02*
D03*
X89700Y4600D02*
D03*
X90950Y2100D02*
D03*
X88450Y12100D02*
D03*
Y7100D02*
D03*
Y2100D02*
D03*
X85950Y7100D02*
D03*
Y2100D02*
D03*
X74700Y29600D02*
D03*
X73450Y32100D02*
D03*
Y7100D02*
D03*
X69700Y9600D02*
D03*
X70950Y7100D02*
D03*
X69700Y4600D02*
D03*
X70950Y2100D02*
D03*
X68450Y32100D02*
D03*
X67200Y24600D02*
D03*
Y19600D02*
D03*
Y9600D02*
D03*
X68450Y2100D02*
D03*
X65950Y32100D02*
D03*
X64700Y19600D02*
D03*
Y4600D02*
D03*
X65950Y2100D02*
D03*
X62200Y29600D02*
D03*
Y19600D02*
D03*
Y9600D02*
D03*
X63450Y2100D02*
D03*
X60950D02*
D03*
X57200Y9600D02*
D03*
X58450Y7100D02*
D03*
X57200Y4600D02*
D03*
X58450Y2100D02*
D03*
X54700Y9600D02*
D03*
X55950Y2100D02*
D03*
X52200Y9600D02*
D03*
X53450Y7100D02*
D03*
X52200Y4600D02*
D03*
X53450Y2100D02*
D03*
X50950Y32100D02*
D03*
X49700Y14600D02*
D03*
Y9600D02*
D03*
X50950Y7100D02*
D03*
X49700Y4600D02*
D03*
X50950Y2100D02*
D03*
X47200Y29600D02*
D03*
X48450Y7100D02*
D03*
Y2100D02*
D03*
X45950Y22100D02*
D03*
Y12100D02*
D03*
Y7100D02*
D03*
X44700Y4600D02*
D03*
X45950Y2100D02*
D03*
X42200Y24600D02*
D03*
X43450Y17100D02*
D03*
X40950D02*
D03*
X37200Y4600D02*
D03*
X38450Y2100D02*
D03*
X35950Y17100D02*
D03*
X32200Y19600D02*
D03*
Y4600D02*
D03*
X30950Y27100D02*
D03*
X28450Y17100D02*
D03*
X25950D02*
D03*
Y2100D02*
D03*
X22200Y4600D02*
D03*
X23450Y2100D02*
D03*
X19700Y4600D02*
D03*
X20950Y2100D02*
D03*
X18450Y17100D02*
D03*
X17200Y14600D02*
D03*
X18450Y2100D02*
D03*
X15950Y17100D02*
D03*
X14700Y9600D02*
D03*
X15950Y7100D02*
D03*
X14700Y4600D02*
D03*
X15950Y2100D02*
D03*
X13450D02*
D03*
X8450Y32100D02*
D03*
X7200Y9600D02*
D03*
Y4600D02*
D03*
X4700D02*
D03*
X3450Y32100D02*
D03*
X2200Y14600D02*
D03*
Y9600D02*
D03*
X3450Y7100D02*
D03*
X2200Y4600D02*
D03*
X950Y7100D02*
D03*
X26050Y23400D02*
D03*
X35450Y4250D02*
D03*
X59581Y5255D02*
D03*
X41573Y25568D02*
D03*
X87381Y25783D02*
D03*
X88882Y26677D02*
D03*
X87028Y27768D02*
D03*
X99110Y16466D02*
D03*
X82624Y32926D02*
D03*
X89276Y26224D02*
D03*
X88164Y26880D02*
D03*
X81776Y33774D02*
D03*
X81382Y34227D02*
D03*
X92222Y23226D02*
D03*
X83932Y31677D02*
D03*
X84000Y22550D02*
D03*
X83606Y24404D02*
D03*
X97731Y17681D02*
D03*
X82200Y33350D02*
D03*
X84326Y31224D02*
D03*
X84860Y23412D02*
D03*
X96489Y18982D02*
D03*
X92646Y22802D02*
D03*
X90124Y25376D02*
D03*
X98580Y16832D02*
D03*
X95196Y20241D02*
D03*
X97307Y18105D02*
D03*
X83049Y32501D02*
D03*
X83224Y23974D02*
D03*
X98156Y17257D02*
D03*
X84879Y25677D02*
D03*
X85727Y26525D02*
D03*
X99534Y16042D02*
D03*
X82591Y21736D02*
D03*
X84424Y22974D02*
D03*
X82800Y23550D02*
D03*
X93953Y21542D02*
D03*
X85174Y30376D02*
D03*
X86151Y26950D02*
D03*
X96883Y18529D02*
D03*
X85599Y29951D02*
D03*
X94347Y21090D02*
D03*
X96044Y19393D02*
D03*
X95620Y19817D02*
D03*
X91403Y24103D02*
D03*
X94771Y20666D02*
D03*
X90549Y24951D02*
D03*
X83473Y32077D02*
D03*
X93494Y21953D02*
D03*
X93070Y22377D02*
D03*
X86576Y27374D02*
D03*
X86023Y29527D02*
D03*
X85284Y23836D02*
D03*
X84750Y30800D02*
D03*
X91797Y23650D02*
D03*
X90973Y24527D02*
D03*
X86507Y24959D02*
D03*
X85303Y26101D02*
D03*
X89700Y25800D02*
D03*
X99437Y10402D02*
D03*
Y13172D02*
D03*
X99379Y11829D02*
D03*
X98200Y16050D02*
D03*
Y14650D02*
D03*
Y13250D02*
D03*
Y11850D02*
D03*
Y10450D02*
D03*
Y9050D02*
D03*
X96800Y17450D02*
D03*
Y16050D02*
D03*
Y14650D02*
D03*
Y13250D02*
D03*
Y11850D02*
D03*
Y10450D02*
D03*
X95400Y18850D02*
D03*
Y17450D02*
D03*
Y16050D02*
D03*
Y14650D02*
D03*
Y13250D02*
D03*
Y11850D02*
D03*
X94000Y20250D02*
D03*
Y18850D02*
D03*
Y17450D02*
D03*
Y16050D02*
D03*
Y14650D02*
D03*
Y13250D02*
D03*
X92600Y21650D02*
D03*
Y20250D02*
D03*
Y18850D02*
D03*
Y17450D02*
D03*
Y16050D02*
D03*
Y14650D02*
D03*
X91200Y23050D02*
D03*
Y21650D02*
D03*
Y20250D02*
D03*
Y18850D02*
D03*
Y17450D02*
D03*
Y16050D02*
D03*
X89800Y24450D02*
D03*
Y23050D02*
D03*
Y21650D02*
D03*
Y20250D02*
D03*
Y18850D02*
D03*
Y17450D02*
D03*
X88400Y24450D02*
D03*
Y23050D02*
D03*
Y21650D02*
D03*
X87000Y24450D02*
D03*
Y23050D02*
D03*
X85600Y28650D02*
D03*
Y27250D02*
D03*
Y23050D02*
D03*
Y21650D02*
D03*
X84200Y30050D02*
D03*
X82800Y31450D02*
D03*
Y30050D02*
D03*
X81400Y32850D02*
D03*
Y31450D02*
D03*
Y30050D02*
D03*
X80000Y34250D02*
D03*
Y32850D02*
D03*
Y31450D02*
D03*
Y30050D02*
D03*
Y28650D02*
D03*
X78600Y34250D02*
D03*
Y32850D02*
D03*
Y31450D02*
D03*
Y30050D02*
D03*
X77200Y34250D02*
D03*
Y32850D02*
D03*
Y31450D02*
D03*
Y30050D02*
D03*
X75800Y34250D02*
D03*
Y32850D02*
D03*
Y31450D02*
D03*
X74400Y34250D02*
D03*
Y32850D02*
D03*
X73000Y34250D02*
D03*
X84193Y507D02*
D03*
X44143Y34507D02*
D03*
X27200Y9850D02*
D03*
X26850Y13850D02*
D03*
X26900Y12950D02*
D03*
X27800Y13450D02*
D03*
X20602Y11200D02*
D03*
Y10641D02*
D03*
X76344Y20654D02*
D03*
X37653Y23947D02*
D03*
X34990Y23920D02*
D03*
X34907Y19347D02*
D03*
X6255Y22292D02*
D03*
X6250Y22950D02*
D03*
Y21650D02*
D03*
X850Y19900D02*
D03*
X2528Y18850D02*
D03*
X4050Y14350D02*
D03*
Y15350D02*
D03*
X62000Y13450D02*
D03*
X63424Y16920D02*
D03*
X68250Y8100D02*
D03*
X67600Y8750D02*
D03*
X71115Y26458D02*
D03*
X71300Y25750D02*
D03*
X71250Y24850D02*
D03*
X68300Y30650D02*
D03*
X42450Y28100D02*
D03*
X43000Y26700D02*
D03*
X42200Y31400D02*
D03*
X43950Y26650D02*
D03*
X41482Y31360D02*
D03*
X41500Y33250D02*
D03*
X40450Y31328D02*
D03*
X40454Y33620D02*
D03*
X22943Y29239D02*
D03*
X22959Y29887D02*
D03*
X23750Y29900D02*
D03*
X24502Y29885D02*
D03*
X23900Y34450D02*
D03*
X23000Y28500D02*
D03*
X14050Y28300D02*
D03*
X15550Y26650D02*
D03*
X18200Y27150D02*
D03*
X14450Y14100D02*
D03*
X15100Y13800D02*
D03*
X14650Y13050D02*
D03*
X5200Y8550D02*
D03*
X11700Y12800D02*
D03*
X12300Y14100D02*
D03*
X72276Y22775D02*
D03*
X32973Y14877D02*
D03*
X38050Y26150D02*
D03*
X39150Y25700D02*
D03*
X38665Y27147D02*
D03*
X39900Y26700D02*
D03*
X43875Y31300D02*
D03*
X41350Y27862D02*
D03*
X37600Y25600D02*
D03*
X52550Y33600D02*
D03*
X64550Y29600D02*
D03*
X24750Y11250D02*
D03*
X41000Y6650D02*
D03*
X29900Y6750D02*
D03*
X35459Y12012D02*
D03*
X36459Y12037D02*
D03*
X38250Y11800D02*
D03*
X33700Y11850D02*
D03*
X30800Y7400D02*
D03*
X29900Y7450D02*
D03*
X44300Y15100D02*
D03*
X41000Y7250D02*
D03*
X41900Y7300D02*
D03*
X30500Y11500D02*
D03*
X41601Y11473D02*
D03*
X76500Y23450D02*
D03*
X88150Y25800D02*
D03*
X29200Y5800D02*
D03*
X41450Y5950D02*
D03*
X46050Y3700D02*
D03*
X60000Y6950D02*
D03*
X45225Y31300D02*
D03*
X62600Y32700D02*
D03*
X70600Y13450D02*
D03*
X52500Y17500D02*
D03*
Y19500D02*
D03*
X54500D02*
D03*
X83000Y9950D02*
D03*
X8750Y7145D02*
D03*
X5250Y7800D02*
D03*
X8800Y8206D02*
D03*
X5050Y15500D02*
D03*
X6550Y15550D02*
D03*
X67350Y21400D02*
D03*
X64100D02*
D03*
X41350Y24050D02*
D03*
X82784Y12186D02*
D03*
X81850Y13350D02*
D03*
X79400Y12100D02*
D03*
X80400Y12450D02*
D03*
X53550Y34500D02*
D03*
X51050D02*
D03*
X35991Y14813D02*
D03*
X33700Y14050D02*
D03*
X47750Y24600D02*
D03*
X45400D02*
D03*
X54490Y32900D02*
D03*
X46800Y23550D02*
D03*
X49050Y23600D02*
D03*
X47500Y27450D02*
D03*
X38300Y14050D02*
D03*
X17900Y10200D02*
D03*
X50900Y13450D02*
D03*
X51418Y14022D02*
D03*
X53150Y13400D02*
D03*
X53100Y14000D02*
D03*
X60200Y34529D02*
D03*
X99429Y9179D02*
D03*
Y14629D02*
D03*
X521Y32832D02*
D03*
X65650Y34529D02*
D03*
X521Y11032D02*
D03*
X7861Y471D02*
D03*
X51461D02*
D03*
X80838Y34512D02*
D03*
X22050Y34529D02*
D03*
X5700D02*
D03*
X27500D02*
D03*
X71100D02*
D03*
X67811Y471D02*
D03*
X521Y5582D02*
D03*
X89611Y471D02*
D03*
X95061D02*
D03*
X521Y27382D02*
D03*
X18761Y471D02*
D03*
X54750Y34529D02*
D03*
X79100Y500D02*
D03*
X11150Y34529D02*
D03*
X49300D02*
D03*
X56911Y471D02*
D03*
X521Y16482D02*
D03*
X99429Y3729D02*
D03*
X2411Y471D02*
D03*
X13311D02*
D03*
X38400Y34529D02*
D03*
X62361Y471D02*
D03*
X40911D02*
D03*
X24211D02*
D03*
X521Y21932D02*
D03*
X46011Y471D02*
D03*
X73261D02*
D03*
X35111D02*
D03*
X32950Y34529D02*
D03*
X28854Y539D02*
D03*
X61900Y16900D02*
D03*
X64550Y13400D02*
D03*
X46950Y20900D02*
D03*
Y19950D02*
D03*
X61850Y4600D02*
D03*
X55800Y4800D02*
D03*
X58412Y8012D02*
D03*
X58096Y9061D02*
D03*
X60196Y9073D02*
D03*
X60150Y8000D02*
D03*
X37645Y21285D02*
D03*
X35039Y21250D02*
D03*
X36345Y22635D02*
D03*
X41122Y20699D02*
D03*
X39491Y21385D02*
D03*
X39690Y19127D02*
D03*
X45180Y30398D02*
D03*
X43850Y30400D02*
D03*
X51600Y29450D02*
D03*
X38135Y26866D02*
D03*
X35583Y27824D02*
D03*
X34551Y27844D02*
D03*
X33547Y27873D02*
D03*
X32450Y25450D02*
D03*
X39500Y24852D02*
D03*
X37595Y19349D02*
D03*
X68378Y18928D02*
D03*
X68376Y16649D02*
D03*
X67400Y18600D02*
D03*
X45635Y16095D02*
D03*
X54150Y14550D02*
D03*
X47523Y16127D02*
D03*
X60496Y3908D02*
D03*
Y5258D02*
D03*
X70100Y21500D02*
D03*
X54550Y26950D02*
D03*
X55850D02*
D03*
Y32900D02*
D03*
X57150D02*
D03*
X59650Y32950D02*
D03*
X74650Y9750D02*
D03*
X71507Y31599D02*
D03*
X75050Y27550D02*
D03*
X50250Y32950D02*
D03*
X80898Y2387D02*
D03*
X79650Y2400D02*
D03*
X82150D02*
D03*
X16950Y29250D02*
D03*
X15200Y25800D02*
D03*
X12398Y22862D02*
D03*
X12998Y23412D02*
D03*
X12398Y23962D02*
D03*
X15600Y11500D02*
D03*
X17750Y23000D02*
D03*
X19375Y28886D02*
D03*
X76200Y11811D02*
D03*
X48250Y21900D02*
D03*
X69986Y15650D02*
D03*
X71628Y17947D02*
D03*
X73850Y17850D02*
D03*
X72450Y11400D02*
D03*
X69000Y13150D02*
D03*
X71450Y13500D02*
D03*
X63150Y29250D02*
D03*
X54050Y16850D02*
D03*
X35703Y10148D02*
D03*
X34616Y10248D02*
D03*
X33490D02*
D03*
X83150Y15650D02*
D03*
X84050Y18750D02*
D03*
X85100Y15000D02*
D03*
X85850D02*
D03*
X77100Y3100D02*
D03*
X86833Y20196D02*
D03*
X52150Y21900D02*
D03*
X78950Y12650D02*
D03*
X36850Y26100D02*
D03*
X20811Y28836D02*
D03*
X8801Y4115D02*
D03*
X7100Y10800D02*
D03*
X11933Y18830D02*
D03*
X11138Y21172D02*
D03*
X20073Y28487D02*
D03*
X13933Y32988D02*
D03*
X16689Y34500D02*
D03*
X27523Y31437D02*
D03*
X21411Y27132D02*
D03*
X17823Y24427D02*
D03*
X18125Y25987D02*
D03*
X18973Y26187D02*
D03*
X24573Y26387D02*
D03*
X14373Y20137D02*
D03*
X20106Y20270D02*
D03*
X20773Y20255D02*
D03*
X15483Y20937D02*
D03*
X24523Y19187D02*
D03*
X26223Y20187D02*
D03*
X22273D02*
D03*
X23673Y21287D02*
D03*
X27223Y22487D02*
D03*
X23731Y23390D02*
D03*
X20423Y19237D02*
D03*
X15023Y22687D02*
D03*
X24273Y15387D02*
D03*
X20423Y18487D02*
D03*
X21550Y10650D02*
D03*
X80550Y22850D02*
D03*
X74315Y15720D02*
D03*
X86925Y25404D02*
D03*
X87178Y28381D02*
D03*
X72900Y30800D02*
D03*
X10150Y4150D02*
D03*
X14800Y8000D02*
D03*
X11850Y8800D02*
D03*
X10900Y7850D02*
D03*
X77600Y28150D02*
D03*
X76250Y28200D02*
D03*
X77700Y24950D02*
D03*
X76850Y25100D02*
D03*
X71400Y22800D02*
D03*
X79900Y22700D02*
D03*
X80950Y20750D02*
D03*
X76200Y16000D02*
D03*
X78613Y18415D02*
D03*
X74350Y14150D02*
D03*
X4950Y17350D02*
D03*
X86550Y23900D02*
D03*
X83111Y19690D02*
D03*
X82849Y21167D02*
D03*
X80900Y16000D02*
D03*
X78900Y25250D02*
D03*
X84650Y18000D02*
D03*
X78345Y14230D02*
D03*
X78000Y10202D02*
D03*
X77018D02*
D03*
X84295Y21524D02*
D03*
X7591Y2453D02*
D03*
X9763Y10808D02*
D03*
X80300Y24550D02*
D03*
X77273Y22799D02*
D03*
X78350Y22700D02*
D03*
X81000Y24550D02*
D03*
X82300Y14450D02*
D03*
X31150Y31250D02*
D03*
X84850Y22000D02*
D03*
X73380Y21110D02*
D03*
X73300Y21798D02*
D03*
X74900Y11800D02*
D03*
X72400Y15798D02*
D03*
X36018Y16072D02*
D03*
X73900Y11800D02*
D03*
X79856Y14256D02*
D03*
X84586Y11614D02*
D03*
X86400Y17000D02*
D03*
X83578Y19212D02*
D03*
X81727Y24826D02*
D03*
X10900Y8800D02*
D03*
X72200Y17100D02*
D03*
X83943Y10390D02*
D03*
X86383Y19712D02*
D03*
X86480Y28983D02*
D03*
X81200Y11900D02*
D03*
X7900Y21650D02*
D03*
X14800Y6300D02*
D03*
X84328Y14986D02*
D03*
X83992Y28620D02*
D03*
X81870Y26498D02*
D03*
X24003Y3683D02*
D03*
X88900Y10795D02*
D03*
X88265Y20193D02*
D03*
X53975Y3750D02*
D03*
X66025D02*
D03*
X73975D02*
D03*
X93975D02*
D03*
X86025D02*
D03*
D90*
X69800Y28050D02*
D03*
X70124Y26729D02*
D03*
X4150Y15900D02*
D03*
X3550Y17000D02*
D03*
X2593Y16177D02*
D03*
X3193D02*
D03*
X72477Y28728D02*
D03*
X36900Y32050D02*
D03*
X4324Y23964D02*
D03*
X33750Y4250D02*
D03*
X35452Y7345D02*
D03*
X33750Y7350D02*
D03*
D91*
X21400Y22550D02*
D03*
X20300D02*
D03*
X21400Y23650D02*
D03*
X20300D02*
D03*
X21400Y24750D02*
D03*
X20300D02*
D03*
D179*
X35009Y2133D02*
D03*
D180*
X60929Y31949D02*
D03*
X59659D02*
D03*
X58389D02*
D03*
Y27885D02*
D03*
X59659D02*
D03*
X60929D02*
D03*
X57119D02*
D03*
X55849D02*
D03*
X54579D02*
D03*
X53309D02*
D03*
Y31949D02*
D03*
X54579D02*
D03*
X55849D02*
D03*
X57119D02*
D03*
X75807Y3123D02*
D03*
X77077D02*
D03*
X78347D02*
D03*
Y7187D02*
D03*
X77077D02*
D03*
X75807D02*
D03*
X79617D02*
D03*
X80887D02*
D03*
X82157D02*
D03*
X83427D02*
D03*
Y3123D02*
D03*
X82157D02*
D03*
X80887D02*
D03*
X79617D02*
D03*
M02*
