<?xml version="1.0" encoding="UTF-8" standalone="no"?>
<svg
   xmlns:dc="http://purl.org/dc/elements/1.1/"
   xmlns:cc="http://creativecommons.org/ns#"
   xmlns:rdf="http://www.w3.org/1999/02/22-rdf-syntax-ns#"
   xmlns:svg="http://www.w3.org/2000/svg"
   xmlns="http://www.w3.org/2000/svg"
   xmlns:sodipodi="http://sodipodi.sourceforge.net/DTD/sodipodi-0.dtd"
   xmlns:inkscape="http://www.inkscape.org/namespaces/inkscape"
   version="1.1"
   id="Layer_1"
   x="0px"
   y="0px"
   viewBox="0 0 300 300"
   style="enable-background:new 0 0 300 300;"
   xml:space="preserve"
   sodipodi:docname="favicon.svg"
   inkscape:version="1.0 (4035a4fb49, 2020-05-01)"><metadata
   id="metadata901"><rdf:RDF><cc:Work
       rdf:about=""><dc:format>image/svg+xml</dc:format><dc:type
         rdf:resource="http://purl.org/dc/dcmitype/StillImage" /><dc:title /></cc:Work></rdf:RDF></metadata><defs
   id="defs899" /><sodipodi:namedview
   inkscape:document-rotation="0"
   pagecolor="#ffffff"
   bordercolor="#666666"
   borderopacity="1"
   objecttolerance="10"
   gridtolerance="10"
   guidetolerance="10"
   inkscape:pageopacity="0"
   inkscape:pageshadow="2"
   inkscape:window-width="1920"
   inkscape:window-height="1147"
   id="namedview897"
   showgrid="false"
   inkscape:zoom="1.1466667"
   inkscape:cx="-64.335337"
   inkscape:cy="-32.143127"
   inkscape:window-x="3192"
   inkscape:window-y="-8"
   inkscape:window-maximized="1"
   inkscape:current-layer="Layer_1" />
<g
   transform="matrix(1.1610047,0,0,1.1693879,-24.151359,-25.407806)"
   id="g894">
	
	
	
	
	
	
	
	
	
	
	
	<path
   style="fill:#000000;stroke-width:2.95438"
   d="m 231.87559,136.01673 c -1.05073,-2.44012 -3.23709,-3.88822 -5.6096,-3.62029 -2.32866,0.26167 -4.28245,2.169 -4.9118,4.7973 L 211.62901,177.7922 196.5159,80.914718 c -0.47614,-3.062092 -2.72271,-5.320408 -5.38795,-5.419307 -2.64339,-0.175407 -5.0295,1.980837 -5.67529,4.998252 l -15.26911,71.190887 -13.01159,-37.91912 c -0.91946,-2.65703 -3.15779,-4.32842 -5.64244,-4.13384 -2.45725,0.19428 -4.52048,2.20728 -5.1116,4.98547 L 133.2723,175.91349 118.45198,80.914718 c -0.48165,-3.090802 -2.76651,-5.361834 -5.45913,-5.422479 h -0.10963 c -2.64883,0 -4.95015,2.143475 -5.53298,5.170485 L 91.577629,163.40669 85.620514,147.67827 c -0.908523,-2.39224 -2.938888,-3.93609 -5.182751,-3.93609 H 58.560224 c 0.0023,13.20537 -1.248934,7.06614 0.0023,13.20537 h 18.188765 l 11.435422,30.19046 c 0.990577,2.60919 3.253588,4.20725 5.743688,3.90418 2.435416,-0.2806 4.441184,-2.35399 4.974785,-5.13858 l 13.432976,-70.45721 14.50019,92.95416 c 0.47611,3.06207 2.72267,5.32038 5.38793,5.41926 2.67893,0.0891 5.03498,-1.98399 5.67532,-4.99826 l 15.2636,-71.18762 13.01156,37.91588 c 0.91947,2.65705 3.1879,4.33162 5.64247,4.13388 2.4518,-0.19429 4.5205,-2.20406 5.1116,-4.98553 l 13.15111,-61.29957 14.82033,95.00196 c 0.47065,3.02699 2.67344,5.27573 5.31135,5.41611 0.0872,0.003 0.17823,0.005 0.25978,0.005 2.5339,0 4.76953,-1.96489 5.45363,-4.82604 l 12.39859,-51.75605 3.18792,7.43203 c 1.40655,3.26309 4.80787,4.5804 7.6017,2.95368 2.79935,-1.63312 3.93222,-5.59789 2.53393,-8.86098 z"
   id="path890"
   sodipodi:nodetypes="ccccccccccccccscccscccccccccccccccccscccccc" />
	<path
   style="fill:#000000"
   d="m 278.937,148.385 c -0.272,-0.889 -1.235,-4.568 -2.297,-4.963 -5.136,-1.333 -10.321,-2.444 -15.555,-3.408 -0.913,-1.086 -0.642,-5.309 -0.815,-6.716 -0.17,-1.392 -0.401,-2.776 -0.691,-4.148 -0.321,-1.382 -1.975,-5.284 -1.481,-6.617 4.617,-2.618 9.161,-5.383 13.556,-8.371 1.012,-0.79 0.494,-5.432 0.42,-6.444 -0.593,-6.79 -4.198,-14.716 -10.321,-18.272 -0.938,-0.568 -2.098,0.049 -3.111,0.272 -2.618,0.543 -5.185,1.136 -7.777,1.777 -1.259,0.321 -2.544,0.642 -3.827,0.988 -1.901,0.494 -1.605,-0.37 -2.544,-1.852 -1.555,-2.519 -3.334,-4.938 -5.062,-7.333 -0.746,-1.033 -1.52,-2.046 -2.321,-3.037 -1.111,-1.383 -2.024,-1.383 -0.913,-3.013 1.481,-2.197 2.914,-4.42 4.321,-6.666 2,-3.161 4.074,-4.914 2.691,-8.47 -2.889,-7.383 -10.074,-13.605 -17.925,-15.037 -2.914,-0.518 -5.605,3.013 -7.704,4.741 -2.074,1.679 -4.099,3.408 -6.099,5.136 -2.544,-1.555 -4.938,-3.309 -7.581,-4.617 -1.827,-0.963 -3.679,-1.876 -5.506,-2.814 -0.79,-0.395 -1.58,-0.815 -2.371,-1.21 -0.395,-0.197 0.889,-7.012 0.987,-7.828 0.296,-2.567 1.802,-6.74 0,-8.84 -2.123,-2.493 -4.913,-4.371 -7.926,-5.63 -4.099,-1.703 -8.692,-2.618 -13.112,-2 -3.827,0.568 -4.247,1.185 -5.975,4.642 -0.839,1.679 -4.099,10.815 -5.58,10.691 l -7.704,-0.667 c -1.46,-0.157 -2.927,-0.239 -4.395,-0.247 -1.259,0 -2.543,0.049 -3.827,0.074 -1.901,0.049 -1.53,-0.864 -2.049,-2.519 -0.814,-2.529 -1.662,-5.048 -2.543,-7.555 -0.42,-1.16 -1.037,-4.642 -2.172,-5.185 -6.346,-3.186 -14.741,-2.198 -20.889,0.864 -1.851,0.913 -3.902,2.099 -5.259,3.704 -0.691,0.815 -0.173,4.42 -0.173,5.506 -0.025,3.087 0.025,6.197 0.148,9.284 0.074,1.951 -0.691,1.58 -2.371,2.148 -1.21,0.395 -2.419,0.765 -3.605,1.21 -1.111,0.42 -2.197,0.938 -3.284,1.432 -2.297,1.037 -4.617,2.098 -6.938,3.136 -0.864,0.395 -8.322,-8.173 -9.457,-9.26 -2.396,-2.32 -3.852,-2.049 -7.16,-1.234 -7.037,1.777 -14.099,7.285 -16.543,14.297 -0.148,0.494 -0.123,1.062 0,1.679 1.407,1.506 3.358,6.839 3.679,7.481 0.296,0.617 3.21,5.58 2.962,5.876 -0.765,0.79 -1.53,1.605 -2.32,2.419 -1.531,1.629 -3.136,3.21 -4.642,4.889 -1.679,1.901 -3.161,4 -4.741,5.975 -2.867,-1.145 -5.756,-2.231 -8.667,-3.26 -1.16,-0.025 -2.148,-0.592 -3.457,-1.358 -1.555,-0.568 -3.087,-0.79 -4.667,0.198 -3.507,2.173 -6.321,5.407 -8.346,8.988 -1.901,3.507 -3.186,7.507 -3.136,11.531 0.05,3.581 3.827,5.185 6.42,7.235 2.074,1.629 4.173,3.21 6.321,4.766 -1.012,2.346 -1.753,4.79 -2.444,7.234 -0.716,2.444 -1.457,4.889 -2,7.382 -0.395,1.728 0.173,2.444 -1.803,2.592 -1.753,0.148 -3.507,0.296 -5.259,0.469 -2.395,0.247 -8.272,-0.222 -9.827,1.802 -1.851,2.396 -2.963,5.358 -3.63,8.297 -0.938,4.297 -0.864,8.889 0.42,13.112 0.666,2.123 1.308,4.692 3.581,5.284 1.407,0.346 14.198,2.543 14.272,3.136 0.296,2.42 0.593,4.815 0.889,7.234 0.173,1.407 0.469,2.766 0.765,4.173 0.296,1.333 0.592,2.642 0.889,3.951 0.37,1.654 0.864,1.802 -0.716,2.715 -2.303,1.328 -4.583,2.695 -6.839,4.099 -0.913,0.593 -5.333,2.666 -5.531,3.655 -0.494,2.444 -0.642,4.864 -0.321,7.383 0.79,6.444 4.395,14.198 10.42,17.433 0.938,0.494 3.21,-0.469 4.198,-0.691 2.592,-0.543 5.185,-1.16 7.754,-1.828 1.259,-0.321 2.543,-0.642 3.803,-0.988 0.62,1.109 1.279,2.196 1.975,3.26 1.629,2.493 3.383,4.914 5.136,7.284 0.763,1.017 1.553,2.014 2.371,2.988 1.259,1.456 0.345,1.679 -0.617,3.136 -1.483,2.197 -2.916,4.428 -4.296,6.691 -2.148,3.432 -3.309,4.371 -1.703,8.025 3.087,7.135 10.247,13.235 18.05,14.42 2.666,0.395 6.37,-4.025 8.346,-5.654 1.012,-0.839 2.024,-1.703 3.062,-2.568 1.308,-1.111 1.457,-2.074 3.062,-1.062 2.173,1.407 4.297,2.84 6.568,4 2,1.012 4.001,2.049 6,3.062 0.37,0.173 1.654,0.568 1.876,0.938 -0.464,3.029 -0.867,6.067 -1.21,9.111 -0.296,2.766 -1.506,5.704 0.445,7.877 2.345,2.592 5.382,4.494 8.667,5.679 4.074,1.506 8.519,2.272 12.865,1.481 3.852,-0.716 4.025,-2.098 5.778,-5.704 0.987,-2.049 3.161,-9.654 5.407,-9.457 l 7.606,0.667 c 1.777,0.148 3.556,0.222 5.358,0.173 1.267,-0.029 2.535,-0.045 3.803,-0.049 0.395,1.259 0.79,2.519 1.21,3.778 0.812,2.536 1.677,5.055 2.592,7.556 0.444,1.234 0.642,3.482 1.95,4.074 6.691,3.037 15.111,2.024 21.407,-1.383 1.555,-0.864 3.531,-1.95 4.568,-3.432 0.79,-1.062 0.124,-5.358 0.124,-6.716 0,-3.087 -0.074,-6.197 -0.222,-9.284 5.654,-2 10.988,-4.222 16.445,-6.691 0.592,-0.272 9.185,9.284 10.222,10.272 1.827,1.703 4.84,0.741 7.111,0.049 6.765,-2.024 13.482,-7.432 15.728,-14.321 0.346,-1.037 -0.469,-1.975 -0.938,-2.914 -1.086,-2.395 -2.222,-4.79 -3.432,-7.135 -0.346,-0.716 -2.692,-4.346 -2.223,-4.84 l 2.642,-2.791 c 1.679,-1.753 3.432,-3.482 4.988,-5.358 0.839,-0.963 1.605,-1.976 2.371,-2.988 1.086,-1.407 1.012,-2.222 2.814,-1.506 2.895,1.121 5.809,2.191 8.741,3.21 3.186,1.086 4.543,2.222 7.284,0.395 3.655,-2.419 6.592,-6 8.494,-9.901 1.605,-3.358 2.666,-7.111 2.493,-10.864 -0.173,-3.334 -5.062,-5.605 -7.456,-7.482 -1.043,-0.82 -2.097,-1.627 -3.161,-2.419 -1.407,-1.037 -2.32,-0.938 -1.629,-2.741 0.914,-2.371 1.629,-4.815 2.296,-7.26 0.716,-2.444 1.456,-4.889 1.926,-7.407 0.37,-1.876 1.086,-1.308 2.84,-1.457 1.753,-0.148 3.507,-0.296 5.259,-0.494 2.543,-0.272 7.111,0.272 8.741,-1.975 1.703,-2.345 2.791,-5.16 3.408,-7.976 0.953,-4.318 0.854,-8.886 -0.429,-13.109 z m -128.94,92.965 c -50.445,0 -91.359,-40.889 -91.359,-91.359 0,-50.445 40.914,-91.359 91.359,-91.359 50.47,0 91.359,40.914 91.359,91.359 0,50.469 -40.89,91.359 -91.359,91.359 z"
   id="path892" />
</g>
</svg>
