<?xml version="1.0" encoding="UTF-8" standalone="no"?>
<svg
   xmlns:dc="http://purl.org/dc/elements/1.1/"
   xmlns:cc="http://creativecommons.org/ns#"
   xmlns:rdf="http://www.w3.org/1999/02/22-rdf-syntax-ns#"
   xmlns:svg="http://www.w3.org/2000/svg"
   xmlns="http://www.w3.org/2000/svg"
   xmlns:sodipodi="http://sodipodi.sourceforge.net/DTD/sodipodi-0.dtd"
   xmlns:inkscape="http://www.inkscape.org/namespaces/inkscape"
   class="ionicon"
   viewBox="0 0 512 512"
   version="1.1"
   id="svg34"
   sodipodi:docname="icon-load-file.svg"
   inkscape:version="1.0 (4035a4fb49, 2020-05-01)">
  <metadata
     id="metadata40">
    <rdf:RDF>
      <cc:Work
         rdf:about="">
        <dc:format>image/svg+xml</dc:format>
        <dc:type
           rdf:resource="http://purl.org/dc/dcmitype/StillImage" />
        <dc:title>Hardware Chip</dc:title>
      </cc:Work>
    </rdf:RDF>
  </metadata>
  <defs
     id="defs38">
    <filter
       style="color-interpolation-filters:sRGB;"
       inkscape:label="Invert"
       id="filter81">
      <feColorMatrix
         type="hueRotate"
         values="180"
         result="color1"
         id="feColorMatrix77" />
      <feColorMatrix
         values="-1 0 0 0 1 0 0 -1 0 1 0 -1 0 0 1 -0.21 -0.72 -0.07 2 0 "
         result="fbSourceGraphic"
         id="feColorMatrix79" />
      <feColorMatrix
         id="feColorMatrix32"
         values="0 0 0 -1 0 0 0 0 -1 0 0 0 0 -1 0 0 0 0 1 0"
         in="fbSourceGraphic"
         result="fbSourceGraphicAlpha" />
      <feColorMatrix
         in="fbSourceGraphic"
         result="color1"
         values="180"
         type="hueRotate"
         id="feColorMatrix34" />
      <feColorMatrix
         result="fbSourceGraphic"
         values="-1 0 0 0 1 0 0 -1 0 1 0 -1 0 0 1 -0.21 -0.72 -0.07 2 0 "
         id="feColorMatrix36" />
      <feColorMatrix
         id="feColorMatrix44"
         values="0 0 0 -1 0 0 0 0 -1 0 0 0 0 -1 0 0 0 0 1 0"
         in="fbSourceGraphic"
         result="fbSourceGraphicAlpha" />
      <feColorMatrix
         in="fbSourceGraphic"
         result="color1"
         values="180"
         type="hueRotate"
         id="feColorMatrix46" />
      <feColorMatrix
         result="color2"
         values="-1 0 0 0 1 0 0 -1 0 1 0 -1 0 0 1 -0.21 -0.72 -0.07 2 0 "
         id="feColorMatrix48" />
    </filter>
    <filter
       style="color-interpolation-filters:sRGB;"
       inkscape:label="Invert"
       id="filter87">
      <feColorMatrix
         type="hueRotate"
         values="180"
         result="color1"
         id="feColorMatrix83" />
      <feColorMatrix
         values="-1 0 0 0 1 0 0 -1 0 1 0 -1 0 0 1 -0.21 -0.72 -0.07 2 0 "
         result="fbSourceGraphic"
         id="feColorMatrix85" />
      <feColorMatrix
         id="feColorMatrix38"
         values="0 0 0 -1 0 0 0 0 -1 0 0 0 0 -1 0 0 0 0 1 0"
         in="fbSourceGraphic"
         result="fbSourceGraphicAlpha" />
      <feColorMatrix
         in="fbSourceGraphic"
         result="color1"
         values="180"
         type="hueRotate"
         id="feColorMatrix40" />
      <feColorMatrix
         result="fbSourceGraphic"
         values="-1 0 0 0 1 0 0 -1 0 1 0 -1 0 0 1 -0.21 -0.72 -0.07 2 0 "
         id="feColorMatrix42" />
      <feColorMatrix
         id="feColorMatrix50"
         values="0 0 0 -1 0 0 0 0 -1 0 0 0 0 -1 0 0 0 0 1 0"
         in="fbSourceGraphic"
         result="fbSourceGraphicAlpha" />
      <feColorMatrix
         in="fbSourceGraphic"
         result="color1"
         values="180"
         type="hueRotate"
         id="feColorMatrix52" />
      <feColorMatrix
         result="color2"
         values="-1 0 0 0 1 0 0 -1 0 1 0 -1 0 0 1 -0.21 -0.72 -0.07 2 0 "
         id="feColorMatrix54" />
    </filter>
  </defs>
  <sodipodi:namedview
     inkscape:document-rotation="0"
     pagecolor="#ffffff"
     bordercolor="#666666"
     borderopacity="1"
     objecttolerance="10"
     gridtolerance="10"
     guidetolerance="10"
     inkscape:pageopacity="0"
     inkscape:pageshadow="2"
     inkscape:window-width="1920"
     inkscape:window-height="1137"
     id="namedview36"
     showgrid="false"
     inkscape:zoom="1.34375"
     inkscape:cx="256"
     inkscape:cy="256"
     inkscape:window-x="3192"
     inkscape:window-y="-8"
     inkscape:window-maximized="1"
     inkscape:current-layer="svg34" />
  <title
     id="title26">Hardware Chip</title>
  <g
     id="g72"
     transform="matrix(-1,0,0,1,545.26038,30)"
     style="filter:url(#filter87)">
    <rect
       id="rect28"
       stroke-width="32"
       stroke-linejoin="round"
       stroke="currentColor"
       fill="none"
       ry="48"
       rx="48"
       height="352"
       width="352"
       y="80"
       x="80" />
    <rect
       id="rect30"
       stroke-width="32"
       stroke-linejoin="round"
       stroke="currentColor"
       fill="none"
       ry="16"
       rx="16"
       height="224"
       width="224"
       y="144"
       x="144" />
    <path
       id="path32"
       d="M 256,80 V 48 m 80,32 V 48 M 176,80 V 48 m 80,416 v -32 m 80,32 V 432 M 176,464 V 432 M 432,256 h 32 m -32,80 h 32 M 432,176 h 32 M 48,256 H 80 M 48,336 H 80 M 48,176 h 32"
       stroke-width="32"
       stroke-linejoin="round"
       stroke-linecap="round"
       stroke="currentColor"
       fill="none" />
  </g>
  <g
     id="g67"
     transform="matrix(1.2051559,0,0,-1.0275272,-569.89115,398.63997)"
     style="filter:url(#filter81)">
    <g
       transform="matrix(0.54215116,0,0,0.60523388,473.41157,75.747292)"
       id="g58"
       style="fill:#000000">
      <g
         id="g46">
        <g
           id="g44">
          <g
             id="g75">
            <path
               id="path42"
               d="M 512,241.7 273.643,3.343 v 156.152 c -71.41,3.744 -138.015,33.337 -188.958,84.28 C 30.075,298.384 0,370.991 0,448.222 v 60.436 l 29.069,-52.985 c 45.354,-82.671 132.173,-134.027 226.573,-134.027 5.986,0 12.004,0.212 18.001,0.632 v 157.779 z m -256.358,48.966 c -84.543,0 -163.661,36.792 -217.939,98.885 C 64.337,275.374 166.959,190.068 289.132,190.068 h 15.489 V 78.131 L 468.189,241.699 304.621,405.267 V 294.531 l -13.585,-1.683 c -11.689,-1.447 -23.597,-2.182 -35.394,-2.182 z" />
          </g>
        </g>
      </g>
    </g>
    <path
       id="path60"
       d="m 638.88372,286.76845 v -33.17838 l -6.51163,-0.82601 c -30.38139,-3.85389 -57.70214,0.59353 -84.19565,13.70582 -18.26716,9.04087 -31.80046,19.40128 -47.61615,36.45252 l -5.48622,5.91481 0.53142,-2.97674 c 0.29228,-1.63721 1.80099,-6.82791 3.35269,-11.53489 15.52323,-47.08864 49.07084,-82.35826 91.97712,-96.69835 11.18003,-3.73657 22.95921,-5.78853 37.05116,-6.45437 l 10.88209,-0.51418 0.19363,-33.08805 0.19363,-33.08806 34.22577,38.22383 c 18.82416,21.02311 38.4887,42.96004 43.69896,48.74874 l 9.47321,10.52489 -42.85027,47.89371 c -23.56765,26.34154 -43.31591,48.38407 -43.88502,48.98341 -0.88435,0.93132 -1.03474,-3.73243 -1.03474,-32.0887 z"
       style="fill:#ffffff;stroke-width:0.744186" />
  </g>
</svg>
