<?xml version="1.0" encoding="UTF-8" standalone="no"?>
<svg
   xmlns:dc="http://purl.org/dc/elements/1.1/"
   xmlns:cc="http://creativecommons.org/ns#"
   xmlns:rdf="http://www.w3.org/1999/02/22-rdf-syntax-ns#"
   xmlns:svg="http://www.w3.org/2000/svg"
   xmlns="http://www.w3.org/2000/svg"
   xmlns:sodipodi="http://sodipodi.sourceforge.net/DTD/sodipodi-0.dtd"
   xmlns:inkscape="http://www.inkscape.org/namespaces/inkscape"
   inkscape:version="1.0 (4035a4fb49, 2020-05-01)"
   sodipodi:docname="icon-connect2.svg"
   version="1.1"
   id="vector"
   viewBox="0 0 24 24">
  <metadata
     id="metadata847">
    <rdf:RDF>
      <cc:Work
         rdf:about="">
        <dc:format>image/svg+xml</dc:format>
        <dc:type
           rdf:resource="http://purl.org/dc/dcmitype/StillImage" />
        <dc:title></dc:title>
      </cc:Work>
    </rdf:RDF>
  </metadata>
  <defs
     id="defs845" />
  <sodipodi:namedview
     inkscape:current-layer="vector"
     inkscape:window-maximized="1"
     inkscape:window-y="-11"
     inkscape:window-x="-11"
     inkscape:cy="3.2071218"
     inkscape:cx="1.2752748"
     inkscape:zoom="15.3125"
     inkscape:guide-bbox="true"
     showguides="true"
     showgrid="false"
     id="namedview843"
     inkscape:window-height="1457"
     inkscape:window-width="1920"
     inkscape:pageshadow="2"
     inkscape:pageopacity="0"
     guidetolerance="10"
     gridtolerance="10"
     objecttolerance="10"
     borderopacity="1"
     bordercolor="#666666"
     pagecolor="#ffffff">
    <sodipodi:guide
       id="guide849"
       orientation="1,0"
       position="48,-6.0081633" />
  </sodipodi:namedview>
  <path
     style="fill:#000000"
     stroke-width="1"
     fill="#ffffff"
     d="M 22.5 0.094 L 18.156 4.438 L 16.406 2.688 C 15.506 1.788 14.213 1.788 13.313 2.688 L 9.906 6.094 L 8.906 5.094 L 7.5 6.5 L 17.5 16.5 L 18.906 15.094 L 17.906 14.094 L 21.313 10.688 C 22.212 9.787 22.212 8.494 21.313 7.594 L 19.563 5.844 L 23.906 1.5 L 22.5 0.094 Z M 6.5 7.5 L 5.094 8.906 L 6.094 9.906 L 2.688 13.313 C 1.788 14.213 1.788 15.506 2.688 16.406 L 4.438 18.156 L 0.094 22.5 L 1.5 23.906 L 5.844 19.563 L 7.594 21.313 C 8.494 22.212 9.787 22.212 10.688 21.313 L 14.094 17.906 L 15.094 18.906 L 16.5 17.5 L 6.5 7.5 Z"
     id="path" />
</svg>
