<?xml version="1.0" encoding="iso-8859-1"?>
<!-- Generator: Adobe Illustrator 24.0.2, SVG Export Plug-In . SVG Version: 6.00 Build 0)  -->
<svg version="1.1" id="Layer_1" xmlns="http://www.w3.org/2000/svg" xmlns:xlink="http://www.w3.org/1999/xlink" x="0px" y="0px"
	 viewBox="0 0 200 200" style="enable-background:new 0 0 200 200;" xml:space="preserve">
<g>
	<path style="fill:#13254A;" d="M74.582,88.893c-2.5-1.92-5.405-2.961-12.669-2.961H48.897v42.997h8.66v-14.759h5.288
		c6.276,0,9.18-1.045,12.085-3.429c2.731-2.21,4.534-6.623,4.534-10.866C79.462,95.633,77.719,91.45,74.582,88.893z M68.305,105.454
		c-1.743,0.928-3.662,1.102-5.638,1.102h-5.111V93.543h4.764c2.15,0,4.126,0.174,5.869,1.102c1.686,0.814,2.964,2.617,2.964,5.348
		C71.153,102.724,69.874,104.64,68.305,105.454z"/>
	<path style="fill:#13254A;" d="M97.886,85.932H84.229v42.997h14.294c15.633,0,22.023-9.414,22.023-21.559
		c0-5.288-1.279-10.052-4.417-14.001C111.019,86.453,103.231,85.932,97.886,85.932z M98.991,121.318h-6.102V93.543h6.159
		c5.231,0,8.135,1.976,9.935,4.3c2.036,2.671,2.908,6.276,2.908,9.644C111.89,115.216,108.288,121.318,98.991,121.318z"/>
	<polygon style="fill:#13254A;" points="126.769,128.929 135.429,128.929 135.429,111.437 149.259,111.437 149.259,103.825 
		135.429,103.825 135.429,93.543 149.606,93.543 149.606,85.932 126.769,85.932 	"/>
	<path style="fill:#13254A;" d="M173.779,42.887L132.113,1.221C131.331,0.439,130.274,0,129.167,0h-87.5
		C32.479,0,25,7.475,25,16.667v166.666C25,192.525,32.479,200,41.667,200h116.666c9.188,0,16.667-7.475,16.667-16.667v-137.5
		C175,44.726,174.561,43.669,173.779,42.887z M133.333,14.225l27.442,27.441h-19.108c-4.598,0-8.333-3.739-8.333-8.333V14.225z
		 M166.667,183.333c0,4.594-3.735,8.333-8.333,8.333H41.667c-4.598,0-8.333-3.739-8.333-8.333V16.667
		c0-4.594,3.735-8.333,8.333-8.333H125v25C125,42.525,132.479,50,141.667,50h25V183.333z"/>
</g>
</svg>
