<?xml version="1.0" encoding="UTF-8" standalone="no"?>
<svg
   xmlns:dc="http://purl.org/dc/elements/1.1/"
   xmlns:cc="http://creativecommons.org/ns#"
   xmlns:rdf="http://www.w3.org/1999/02/22-rdf-syntax-ns#"
   xmlns:svg="http://www.w3.org/2000/svg"
   xmlns="http://www.w3.org/2000/svg"
   xmlns:sodipodi="http://sodipodi.sourceforge.net/DTD/sodipodi-0.dtd"
   xmlns:inkscape="http://www.inkscape.org/namespaces/inkscape"
   sodipodi:docname="icon-info.svg"
   inkscape:version="1.0 (4035a4fb49, 2020-05-01)"
   id="svg1468"
   version="1.1"
   viewBox="0 0 29.999999 29.999999"
   height="7.4999995mm"
   width="7.4999995mm">
  <defs
     id="defs1462" />
  <sodipodi:namedview
     scale-x="5"
     inkscape:window-maximized="0"
     inkscape:window-y="0"
     inkscape:window-x="263"
     inkscape:window-height="1017"
     inkscape:window-width="2178"
     fit-margin-bottom="0"
     fit-margin-right="0"
     fit-margin-left="0"
     fit-margin-top="0"
     showgrid="false"
     inkscape:document-rotation="0"
     inkscape:current-layer="layer1"
     inkscape:document-units="mm"
     inkscape:cy="39.30319"
     inkscape:cx="-0.29726184"
     inkscape:zoom="5.6"
     inkscape:pageshadow="2"
     inkscape:pageopacity="0.0"
     borderopacity="1.0"
     bordercolor="#666666"
     pagecolor="#ffffff"
     id="base" />
  <metadata
     id="metadata1465">
    <rdf:RDF>
      <cc:Work
         rdf:about="">
        <dc:format>image/svg+xml</dc:format>
        <dc:type
           rdf:resource="http://purl.org/dc/dcmitype/StillImage" />
        <dc:title></dc:title>
      </cc:Work>
    </rdf:RDF>
  </metadata>
  <g
     transform="translate(-3.0274785,-4.535714)"
     id="layer1"
     inkscape:groupmode="layer"
     inkscape:label="Calque 1">
    <g
       transform="matrix(0.0611869,0,0,0.06118478,3.0269278,4.535714)"
       id="g2056"
       style="fill:#b3b3b3">
      <g
         style="fill:#b3b3b3"
         id="g2041">
	<g
   style="fill:#b3b3b3"
   id="g2039">
		<g
   style="fill:#b3b3b3"
   id="g2037">
			<path
   style="fill:#b3b3b3"
   d="M 245.148,0 C 109.967,0 0.009,109.98 0.009,245.162 c 0,135.182 109.958,245.156 245.139,245.156 135.186,0 245.162,-109.978 245.162,-245.156 C 490.31,109.98 380.333,0 245.148,0 Z m 0,438.415 c -106.555,0 -193.234,-86.698 -193.234,-193.253 0,-106.555 86.68,-193.258 193.234,-193.258 106.559,0 193.258,86.703 193.258,193.258 0,106.555 -86.7,193.253 -193.258,193.253 z"
   id="path2031" />

			<path
   style="fill:#b3b3b3"
   d="m 270.036,221.352 h -49.771 c -8.351,0 -15.131,6.78 -15.131,15.118 v 147.566 c 0,8.352 6.78,15.119 15.131,15.119 h 49.771 c 8.351,0 15.131,-6.77 15.131,-15.119 V 236.471 c 0,-8.338 -6.78,-15.119 -15.131,-15.119 z"
   id="path2033" />

			<path
   style="fill:#b3b3b3"
   d="m 245.148,91.168 c -24.48,0 -44.336,19.855 -44.336,44.336 0,24.484 19.855,44.34 44.336,44.34 24.485,0 44.342,-19.855 44.342,-44.34 -0.001,-24.481 -19.856,-44.336 -44.342,-44.336 z"
   id="path2035" />

		</g>

	</g>

</g>
    </g>
  </g>
</svg>
