<svg
    xmlns="http://www.w3.org/2000/svg"
    viewBox="0 0 24 24"
    id="vector">
    <path
        id="path"
        d="M 22.5 0.094 L 18.156 4.438 L 16.406 2.688 C 15.506 1.788 14.213 1.788 13.313 2.688 L 9.906 6.094 L 8.906 5.094 L 7.5 6.5 L 17.5 16.5 L 18.906 15.094 L 17.906 14.094 L 21.313 10.688 C 22.212 9.787 22.212 8.494 21.313 7.594 L 19.563 5.844 L 23.906 1.5 L 22.5 0.094 Z M 6.5 7.5 L 5.094 8.906 L 6.094 9.906 L 2.688 13.313 C 1.788 14.213 1.788 15.506 2.688 16.406 L 4.438 18.156 L 0.094 22.5 L 1.5 23.906 L 5.844 19.563 L 7.594 21.313 C 8.494 22.212 9.787 22.212 10.688 21.313 L 14.094 17.906 L 15.094 18.906 L 16.5 17.5 L 6.5 7.5 Z"
        fill="#ffffff"
        stroke-width="1"/>
</svg>
