<svg
    xmlns="http://www.w3.org/2000/svg"
    viewBox="0 0 1920 1920"
    id="vector">
    <path
        id="path"
        d="M 1691.249 1016.47 C 1663.691 1376.188 1376.143 1663.624 1016.425 1691.294 L 1016.425 1468.235 L 903.485 1468.235 L 903.485 1691.295 C 543.767 1663.624 256.331 1376.188 228.774 1016.471 L 451.72 1016.471 L 451.72 903.529 L 228.774 903.529 C 256.331 543.812 543.767 256.376 903.484 228.706 L 903.484 451.765 L 1016.425 451.765 L 1016.425 228.705 C 1376.143 256.376 1663.691 543.812 1691.249 903.529 L 1468.19 903.529 L 1468.19 1016.471 L 1691.249 1016.471 Z M 1804.19 903.53 C 1776.18 481.581 1438.487 143.774 1016.425 115.765 L 1016.425 0 L 903.485 0 L 903.485 115.765 C 481.536 143.775 143.842 481.581 115.832 903.529 L -0.045 903.529 L -0.045 1016.471 L 115.832 1016.471 C 143.842 1438.419 481.536 1776.226 903.484 1804.235 L 903.484 1920 L 1016.425 1920 L 1016.425 1804.235 C 1438.487 1776.225 1776.181 1438.419 1804.19 1016.471 L 1919.955 1016.471 L 1919.955 903.529 L 1804.19 903.529 Z M 960 564.705 C 742.024 564.705 564.706 742.023 564.706 959.999 C 564.706 1177.975 742.024 1355.293 960 1355.293 C 1177.976 1355.293 1355.294 1177.975 1355.294 959.999 C 1355.294 742.023 1177.976 564.705 960 564.705"
        fill="#ffffff"
        stroke-width="1"
        fill-rule="evenodd"/>
</svg>
