<svg id="Layer_1" data-name="Layer 1" xmlns="http://www.w3.org/2000/svg" viewBox="0 0 100 100"><defs><style>.cls-1{fill:#03234b;}</style></defs><path class="cls-1" d="M71.32,42.65H34.5A4.84,4.84,0,0,0,30,46.06L20.8,72.14,12.79,34a5.18,5.18,0,0,1,5.07-6.22H30.47a5.19,5.19,0,0,1,5,3.84s2,5,5.57,4.78H65.67a5.17,5.17,0,0,1,5,3.82Z"/><path class="cls-1" d="M89.14,49.14,83.91,76a6.24,6.24,0,0,1-3.2,1.34l-.42,0H25a1.66,1.66,0,0,1-1.31-.76,3,3,0,0,1-.33-2.73l9.48-26.77a1.9,1.9,0,0,1,1.64-1.42h53a1.65,1.65,0,0,1,1.31.77A3,3,0,0,1,89.14,49.14Z"/></svg>