<svg
    xmlns="http://www.w3.org/2000/svg"
    viewBox="0 0 32 32"
    id="vector">
    <path
        id="path_1"
        d="M 16 4 C 9.384 4 4 9.384 4 16 C 4 22.616 9.384 28 16 28 C 22.616 28 28 22.616 28 16 C 28 9.384 22.616 4 16 4 Z M 16 6 C 21.535 6 26 10.465 26 16 C 26 21.535 21.535 26 16 26 C 10.465 26 6 21.535 6 16 C 6 10.465 10.465 6 16 6 Z M 16 10 C 13.803 10 12 11.803 12 14 L 14 14 C 14 12.883 14.883 12 16 12 C 17.117 12 18 12.883 18 14 C 18 14.767 17.509 15.445 16.781 15.688 L 16.375 15.813 C 15.56 16.084 15 16.862 15 17.719 L 15 19 L 17 19 L 17 17.719 L 17.406 17.594 C 18.945 17.082 20 15.621 20 14 C 20 11.803 18.197 10 16 10 Z M 15 20 L 15 22 L 17 22 L 17 20 L 15 20 Z"
        fill="#ffffff"
        stroke-width="1"/>
</svg>
