<?xml version="1.0" encoding="iso-8859-1"?>
<!-- Generator: Adobe Illustrator 24.0.2, SVG Export Plug-In . SVG Version: 6.00 Build 0)  -->
<svg version="1.1" id="Layer_1" xmlns="http://www.w3.org/2000/svg" xmlns:xlink="http://www.w3.org/1999/xlink" x="0px" y="0px"
	 viewBox="0 0 100 100" style="enable-background:new 0 0 100 100;" xml:space="preserve">
<path style="fill:#13254A;" d="M86.29,69.686l-8.332-5.488c3.201-5.403,5.047-11.701,5.047-18.426
	c0-19.996-16.263-36.263-36.265-36.263c-19.986,0-36.255,16.267-36.255,36.263c0,7.464,2.268,14.407,6.148,20.178v0.382h0.266
	c6.548,9.478,17.481,15.702,29.841,15.702c4.566,0,8.934-0.856,12.962-2.402l1.333,6.934l7.821-11.939l12.64,18.912l3.41-2.279
	l-12.64-18.912L86.29,69.686z M80.316,45.513h-7.069c-0.028-5.524-0.961-10.761-2.61-15.44h5.775
	C78.867,34.689,80.274,39.941,80.316,45.513z M53.669,48.2h3.216c-0.016,0.7-0.039,1.391-0.068,2.073L53.669,48.2z M36.574,45.513
	c0.014-5.718,0.476-10.925,1.241-15.44h17.855c0.767,4.515,1.229,9.722,1.242,15.44H36.574z M53.658,48.2l2.257,11.738
	c-0.192,1.288-0.406,2.528-0.645,3.709H38.216c-0.893-4.438-1.482-9.658-1.613-15.447H53.658z M58.762,74.742
	c-1.881,1.556-3.923,2.765-6.085,3.549c1.924-2.686,3.462-6.643,4.597-11.291L58.762,74.742z M59.418,51.986
	c0.075-1.259,0.127-2.522,0.156-3.787h10.927c-0.179,3.513-0.743,6.876-1.634,10.01L59.418,51.986z M70.565,45.513H59.604
	c-0.014-5.232-0.427-10.55-1.221-15.44h9.411C69.536,34.689,70.535,39.941,70.565,45.513z M57.899,27.386
	c-1.165-5.867-2.915-10.909-5.219-14.129c5.813,2.109,10.77,7.243,13.982,14.129H57.899z M55.164,27.386H38.322
	c1.973-9.42,5.31-15.186,8.418-15.186C49.852,12.2,53.19,17.966,55.164,27.386z M40.802,13.257c-2.302,3.22-4.05,8.262-5.214,14.129
	h-8.761C30.039,20.5,34.993,15.366,40.802,13.257z M35.105,30.073c-0.792,4.89-1.205,10.208-1.218,15.44H22.928
	c0.03-5.572,1.028-10.823,2.769-15.44H35.105z M20.236,45.513h-7.063c0.042-5.572,1.45-10.823,3.904-15.44h5.77
	C21.197,34.752,20.264,39.988,20.236,45.513z M20.297,48.2c0.272,5.588,1.473,10.832,3.393,15.447h-5.349
	c-2.865-4.535-4.672-9.799-5.078-15.447H20.297z M22.992,48.2h10.924c0.125,5.313,0.652,10.64,1.57,15.447h-8.893
	C24.562,59.111,23.28,53.848,22.992,48.2z M36.052,66.331c1.146,4.939,2.74,9.146,4.754,11.961
	c-5.183-1.881-9.684-6.17-12.876-11.961H36.052z M38.815,66.331h15.856c-2.007,8.128-5.066,13.016-7.931,13.016
	C43.878,79.347,40.821,74.459,38.815,66.331z M71.201,59.748c1.101-3.594,1.787-7.481,1.984-11.548h7.04
	c-0.379,5.267-1.975,10.2-4.513,14.519L71.201,59.748z M74.817,27.386h-5.239c-2.043-4.73-4.847-8.775-8.183-11.814
	C66.863,18.234,71.5,22.339,74.817,27.386z M32.085,15.574c-3.334,3.039-6.137,7.082-8.18,11.812h-5.234
	C21.988,22.341,26.622,18.237,32.085,15.574z M20.227,66.331h4.694c1.922,3.805,4.36,7.084,7.176,9.647
	C27.435,73.709,23.38,70.388,20.227,66.331z"/>
</svg>
