<?xml version="1.0" encoding="iso-8859-1"?>
<!-- Generator: Adobe Illustrator 24.0.2, SVG Export Plug-In . SVG Version: 6.00 Build 0)  -->
<svg version="1.1" id="Calque_1" xmlns="http://www.w3.org/2000/svg" xmlns:xlink="http://www.w3.org/1999/xlink" x="0px" y="0px"
	 viewBox="0 0 200 200" style="enable-background:new 0 0 200 200;" xml:space="preserve">
<path style="fill:#03234B;" d="M15.27,130.604l2.268-0.955c2.387-0.693,4.946-0.564,7.283,0.364
	c0.252,0.098,0.504,0.182,0.767,0.235l71.333,21.668c0.444,0.126,0.9,0.199,1.354,0.199c0.588,0,1.179-0.119,1.729-0.336
	l95.546-38.23c0.507-0.2,0.945-0.49,1.337-0.837c2.349-1.019,3.451-3.721,2.454-6.087c-1.001-2.377-3.735-3.475-6.101-2.474
	l-96.593,37.446L15.7,115.151c-5.425-2.247-7.816-8.599-5.449-14.504c0.987-2.44,2.72-4.379,5.019-5.642l2.268-0.948
	c2.387-0.69,4.946-0.574,7.283,0.364c0.252,0.101,0.504,0.175,0.767,0.227l71.333,21.668c0.444,0.137,0.9,0.2,1.354,0.2
	c0.588,0,1.179-0.109,1.729-0.329l89.824-35.945l7.325-2.811c2.369-1.001,3.479-3.731,2.478-6.097
	c-1.005-2.377-3.735-3.486-6.1-2.485l-96.883,37.146L22.641,81.828h-0.004L15.7,79.56c-5.425-2.254-7.816-8.599-5.449-14.514
	c0.987-2.429,2.72-4.375,5.019-5.632l2.268-0.955c2.387-0.693,4.946-0.563,7.283,0.364c0.252,0.102,0.504,0.182,0.767,0.238
	l71.333,21.665c0.444,0.129,0.9,0.199,1.354,0.199c0.588,0,1.179-0.115,1.729-0.336l54.859-21.948l40.687-16.278
	c1.873-0.749,3.049-2.615,2.923-4.617c-0.13-2.009-1.526-3.71-3.472-4.221l-60.357-15.753l-3.444-0.843
	c-7.431-1.841-15.11-3.742-22.445-3.742c-4.48,0-8.421,0.693-12.145,2.149L14.356,49.695c-1.166,0.375-2.296,0.857-3.381,1.428
	c-4.249,2.275-7.574,5.988-9.373,10.458c-4.014,10.027-0.186,20.783,8.659,25.606c-3.888,2.293-6.965,5.789-8.659,9.982
	c-4.014,10.038-0.186,20.793,8.659,25.616c-3.888,2.296-6.965,5.778-8.659,9.986c-4.172,10.419,0.067,21.682,9.65,26.197
	c0.308,0.192,0.633,0.336,0.987,0.455l83.174,27.163c0.469,0.154,0.959,0.228,1.445,0.228c0.62,0,1.232-0.119,1.81-0.364
	l96.964-40.96c2.373-1.001,3.483-3.731,2.482-6.104c-1.001-2.377-3.735-3.476-6.101-2.475l-95.364,40.274L15.7,150.75
	c-5.425-2.258-7.816-8.6-5.449-14.514C11.238,133.806,12.97,131.86,15.27,130.604z M123.034,27.491l27.419,7.325l-18.676,6.454
	l-25.987-7.136L123.034,27.491z"/>
</svg>
