<?xml version="1.0" encoding="iso-8859-1"?>
<!-- Generator: Adobe Illustrator 24.0.2, SVG Export Plug-In . SVG Version: 6.00 Build 0)  -->
<svg version="1.1" id="Layer_1" xmlns="http://www.w3.org/2000/svg" xmlns:xlink="http://www.w3.org/1999/xlink" x="0px" y="0px"
	 viewBox="0 0 85.04 85.04" style="enable-background:new 0 0 85.04 85.04;" xml:space="preserve">
<g>
	<path style="fill:#13254A;" d="M32.18,16.831h14.584c1.455,0,2.736-1.188,3.343-3.102c0.221-0.701,0.333-1.453,0.333-2.237
		c0-2.943-1.649-5.337-3.676-5.337h-3.658c0.33-0.815,0.704-2.791-3.456-2.791c-4.161,0-4.124,1.975-3.933,2.791H32.18
		c-1.006,0-1.943,0.574-2.642,1.617c-0.667,0.998-1.034,2.319-1.034,3.72c0,0.785,0.112,1.538,0.334,2.237
		C29.435,15.614,30.746,16.831,32.18,16.831z M39.649,4.185c0.588,0,1.062,0.475,1.062,1.063c0,0.395-0.222,0.723-0.537,0.908h-1.05
		c-0.316-0.185-0.538-0.513-0.538-0.908C38.586,4.66,39.061,4.185,39.649,4.185z"/>
	<path style="fill:#13254A;" d="M64.926,62.979v13.646c0,1.226-0.984,2.222-2.195,2.222H14.278c-1.211,0-2.196-0.996-2.196-2.222
		V16.196c0-1.225,0.985-2.222,2.196-2.222h12.836v-2.83H12.486c-1.702,0-3.087,1.384-3.087,3.085v64.362
		c0,1.7,1.385,3.084,3.087,3.084h52.038c1.701,0,3.085-1.384,3.085-3.084V62.952c-0.527,0.045-1.058,0.081-1.597,0.081
		C65.646,63.033,65.287,62.999,64.926,62.979z"/>
	<path style="fill:#13254A;" d="M64.926,16.196v9.235c0.361-0.021,0.72-0.055,1.087-0.055c0.539,0,1.069,0.036,1.597,0.081V14.229
		c0-1.701-1.384-3.085-3.085-3.085H51.932v2.83H62.73C63.941,13.974,64.926,14.971,64.926,16.196z"/>
	<path style="fill:#13254A;" d="M66.063,28.143c-8.388,0-15.188,6.8-15.188,15.188c0,8.388,6.8,15.187,15.188,15.187
		S81.25,51.719,81.25,43.331C81.25,34.943,74.45,28.143,66.063,28.143z M75.06,41.563l-8.451,8.45
		c-0.682,0.68-1.569,1.02-2.464,1.02c-0.888,0-1.774-0.34-2.457-1.02l-4.62-4.628c-1.361-1.354-1.361-3.557,0-4.914
		c1.352-1.354,3.557-1.354,4.914,0l2.163,2.166l5.993-5.992c1.363-1.355,3.559-1.355,4.922,0
		C76.416,38.005,76.416,40.208,75.06,41.563z"/>
	<circle style="fill:#13254A;" cx="22.188" cy="30.623" r="3.188"/>
	<circle style="fill:#13254A;" cx="22.188" cy="44.873" r="3.188"/>
	<circle style="fill:#13254A;" cx="22.188" cy="59.123" r="3.188"/>
</g>
</svg>
